<?xml version="1.0" encoding="UTF-8" standalone="no"?>
<svg
   width="64"
   height="64"
   version="1.1"
   id="svg73"
   sodipodi:docname="abcd.svg"
   inkscape:version="1.4.2 (ebf0e940d0, 2025-05-08)"
   xmlns:inkscape="http://www.inkscape.org/namespaces/inkscape"
   xmlns:sodipodi="http://sodipodi.sourceforge.net/DTD/sodipodi-0.dtd"
   xmlns="http://www.w3.org/2000/svg"
   xmlns:svg="http://www.w3.org/2000/svg"
   xmlns:rdf="http://www.w3.org/1999/02/22-rdf-syntax-ns#"
   xmlns:cc="http://creativecommons.org/ns#"
   xmlns:dc="http://purl.org/dc/elements/1.1/">
  <metadata
     id="metadata77">
    <rdf:RDF>
      <cc:Work
         rdf:about="">
        <dc:format>image/svg+xml</dc:format>
        <dc:type
           rdf:resource="http://purl.org/dc/dcmitype/StillImage" />
      </cc:Work>
    </rdf:RDF>
  </metadata>
  <sodipodi:namedview
     pagecolor="#f5f7fa"
     bordercolor="#666666"
     borderopacity="1"
     objecttolerance="10"
     gridtolerance="10"
     guidetolerance="10"
     inkscape:pageopacity="0"
     inkscape:pageshadow="2"
     inkscape:window-width="1377"
     inkscape:window-height="679"
     id="namedview75"
     showgrid="false"
     inkscape:zoom="6.2890624"
     inkscape:cx="47.622361"
     inkscape:cy="45.316771"
     inkscape:window-x="13"
     inkscape:window-y="130"
     inkscape:window-maximized="0"
     inkscape:current-layer="g877"
     inkscape:document-rotation="0"
     inkscape:pagecheckerboard="0"
     inkscape:showpageshadow="2"
     inkscape:deskcolor="#d1d1d1" />
  <defs
     id="defs29">
    <clipPath
       id="clip0_2648_607">
      <rect
         width="16"
         height="16"
         fill="#ffffff"
         id="rect1"
         x="0"
         y="0" />
    </clipPath>
  </defs>
  <circle
     cx="32.516094"
     cy="31.877844"
     r="0"
     fill="url(#b)"
     stroke-width="1.5715"
     id="circle41"
     style="fill:url(#b)" />
  <g
     aria-label="GZ"
     transform="matrix(1.2212657,0,0,0.81882264,0.4960938,-0.1661539)"
     id="text93"
     style="font-weight:bold;font-size:11.5263px;line-height:1.25;font-family:sans-serif;-inkscape-font-specification:'sans-serif Bold';fill:#f2f2f2;stroke-width:0.288159" />
  <g
     id="g877"
     transform="matrix(1.1,0,0,1.1,-3.1845928,-3.2065454)">
    <circle
       style="opacity:1;fill:#414141;stroke:#dfdfdf;stroke-width:2.27272727;stroke-dasharray:none;fill-opacity:1;stroke-opacity:1"
       id="path1"
       cx="31.985994"
       cy="32.005951"
       r="25.454546" />
    <path
       style="fill:#dfdfdf;fill-opacity:1;stroke:none;stroke-width:0.761242;stroke-dasharray:none;stroke-dashoffset:2.2;stroke-opacity:0.3"
       d="M 19.637245,45.55077 C 19.14624,45.29194 18.833859,44.972109 18.620528,44.509886 18.442323,44.123773 18.425009,43.755291 18.422891,40.304413 l -0.0023,-3.782283 0.449641,0.0024 c 0.30382,0.0017 0.621204,0.103374 0.978632,0.313599 1.611486,0.947817 2.215962,1.064108 2.974525,0.572246 0.969077,-0.628362 1.465695,-1.880217 1.396924,-3.521321 -0.06386,-1.523807 -0.610418,-2.585895 -1.590033,-3.089785 -0.690446,-0.355149 -1.273688,-0.231548 -2.453785,0.519996 -0.650672,0.414381 -1.16333,0.586574 -1.497028,0.502818 l -0.258876,-0.06498 v -2.965594 c 0,-3.219215 0.0105,-3.286206 0.620417,-3.943153 0.605522,-0.652261 0.582479,-0.648754 4.496587,-0.684709 l 3.582934,-0.03289 -0.0441,-0.609533 c -0.03558,-0.491798 -0.139988,-0.770675 -0.540569,-1.443788 -0.807692,-1.357202 -0.803702,-1.975664 0.01804,-2.797407 0.724348,-0.724347 1.476066,-0.994953 2.763882,-0.994953 1.287814,0 2.039535,0.270606 2.763882,0.994953 0.821742,0.821743 0.825731,1.440205 0.01803,2.797407 -0.402426,0.676205 -0.504925,0.950957 -0.541042,1.450256 l -0.04457,0.615996 h 3.061657 c 3.449042,0 3.875848,0.0633 4.439181,0.65834 0.625615,0.660836 0.613881,0.581721 0.671042,4.525769 l 0.05293,3.650033 0.251924,0.03565 c 0.462959,0.06547 0.90508,-0.0842 1.793811,-0.60729 0.485067,-0.285495 1.044582,-0.549594 1.243375,-0.586888 0.750422,-0.140776 1.732386,0.585299 2.16894,1.603739 0.872419,2.035282 0.05477,4.732816 -1.583368,5.22361 -0.398013,0.119271 -0.469599,0.1038 -1.196818,-0.257962 -0.425476,-0.211665 -0.987412,-0.506095 -1.248805,-0.654349 -0.355367,-0.201546 -0.595596,-0.261707 -0.95219,-0.238374 l -0.476914,0.03133 -0.05289,3.385537 c -0.05699,3.644635 -0.06778,3.715345 -0.651182,4.246001 -0.583453,0.530703 -0.785999,0.567811 -3.099393,0.567811 h -2.174119 v -0.405212 c 0,-0.235702 0.116693,-0.623069 0.278855,-0.925735 0.153372,-0.28622 0.415224,-0.777128 0.581891,-1.090822 0.910642,-1.713978 -0.399988,-3.299613 -2.870911,-3.47332 -1.892279,-0.133007 -3.599656,0.848908 -3.77716,2.17229 -0.06943,0.51769 0.076,0.973195 0.567525,1.777413 0.441268,0.721997 0.679832,1.410717 0.597589,1.72521 -0.05725,0.218889 -0.08533,0.220231 -4.621014,0.215929 -3.951107,-0.004 -4.606016,-0.02684 -4.880823,-0.171566 z"
       id="path1-28" />
    <g
       id="g2"
       style="fill:#dfdfdf;fill-opacity:1;stroke:none;stroke-opacity:0.6"
       transform="translate(-1.8181818e-7,1.7274047)" />
  </g>
</svg>
