<?xml version="1.0" encoding="UTF-8" standalone="no"?>
<svg
   width="64"
   height="64"
   version="1.1"
   id="svg73"
   sodipodi:docname="abcd.svg"
   inkscape:version="1.4.2 (ebf0e940d0, 2025-05-08)"
   xmlns:inkscape="http://www.inkscape.org/namespaces/inkscape"
   xmlns:sodipodi="http://sodipodi.sourceforge.net/DTD/sodipodi-0.dtd"
   xmlns="http://www.w3.org/2000/svg"
   xmlns:svg="http://www.w3.org/2000/svg"
   xmlns:rdf="http://www.w3.org/1999/02/22-rdf-syntax-ns#"
   xmlns:cc="http://creativecommons.org/ns#"
   xmlns:dc="http://purl.org/dc/elements/1.1/">
  <metadata
     id="metadata77">
    <rdf:RDF>
      <cc:Work
         rdf:about="">
        <dc:format>image/svg+xml</dc:format>
        <dc:type
           rdf:resource="http://purl.org/dc/dcmitype/StillImage" />
      </cc:Work>
    </rdf:RDF>
  </metadata>
  <sodipodi:namedview
     pagecolor="#f5f7fa"
     bordercolor="#666666"
     borderopacity="1"
     objecttolerance="10"
     gridtolerance="10"
     guidetolerance="10"
     inkscape:pageopacity="0"
     inkscape:pageshadow="2"
     inkscape:window-width="1377"
     inkscape:window-height="679"
     id="namedview75"
     showgrid="false"
     inkscape:zoom="6.2890624"
     inkscape:cx="47.622361"
     inkscape:cy="45.316771"
     inkscape:window-x="13"
     inkscape:window-y="130"
     inkscape:window-maximized="0"
     inkscape:current-layer="g877"
     inkscape:document-rotation="0"
     inkscape:pagecheckerboard="0"
     inkscape:showpageshadow="2"
     inkscape:deskcolor="#d1d1d1" />
  <defs
     id="defs29">
    <clipPath
       id="clip0_2648_607">
      <rect
         width="16"
         height="16"
         fill="#ffffff"
         id="rect1"
         x="0"
         y="0" />
    </clipPath>
  </defs>
  <circle
     cx="32.516094"
     cy="31.877844"
     r="0"
     fill="url(#b)"
     stroke-width="1.5715"
     id="circle41"
     style="fill:url(#b)" />
  <g
     aria-label="GZ"
     transform="matrix(1.2212657,0,0,0.81882264,0.4960938,-0.1661539)"
     id="text93"
     style="font-weight:bold;font-size:11.5263px;line-height:1.25;font-family:sans-serif;-inkscape-font-specification:'sans-serif Bold';fill:#f2f2f2;stroke-width:0.288159" />
  <g
     id="g877"
     transform="matrix(1.1,0,0,1.1,-3.1845928,-3.2065454)">
    <circle
       style="opacity:1;fill:#414141;stroke:#dfdfdf;stroke-width:2.27272727;stroke-dasharray:none;fill-opacity:1;stroke-opacity:1"
       id="path1"
       cx="31.985994"
       cy="32.005951"
       r="25.454546" />
    <path
       style="color:#000000;clip-rule:nonzero;display:inline;overflow:visible;visibility:visible;isolation:auto;mix-blend-mode:normal;color-interpolation:sRGB;color-interpolation-filters:linearRGB;solid-color:#000000;solid-opacity:1;fill:#dfdfdf;fill-opacity:1;fill-rule:nonzero;stroke:none;stroke-width:0.921105;stroke-linecap:butt;stroke-linejoin:miter;stroke-miterlimit:4;stroke-dasharray:none;stroke-dashoffset:0;stroke-opacity:0.3;marker:none;color-rendering:auto;image-rendering:auto;shape-rendering:auto;text-rendering:auto;enable-background:accumulate"
       d="m 30.025383,17.868393 c -0.352845,0 -0.646879,1.403843 -0.819476,3.410131 a 10.783356,11.108079 0 0 0 -2.605848,1.128166 c -1.505306,-1.299593 -2.681166,-2.084075 -2.931343,-1.826365 l -2.77434,2.857884 c -0.250174,0.257709 0.511376,1.468979 1.772975,3.019614 a 10.783356,11.108079 0 0 0 -1.085613,2.684322 c -1.953093,0.177624 -3.320015,0.480076 -3.320015,0.844152 v 4.039302 c 0,0.363466 1.362803,0.666358 3.310444,0.844152 a 10.783356,11.108079 0 0 0 1.091355,2.690234 c -1.258731,1.547862 -2.019019,2.756302 -1.769146,3.013702 l 2.77434,2.857884 c 0.249638,0.257172 1.421277,-0.524151 2.92177,-1.818473 a 10.783356,11.108079 0 0 0 2.615421,1.110409 c 0.172431,2.011913 0.466043,3.42 0.819476,3.42 h 3.92122 c 0.352845,0 0.646878,-1.403844 0.819476,-3.410138 a 10.783356,11.108079 0 0 0 2.605846,-1.128163 c 1.505304,1.299588 2.681169,2.084074 2.931345,1.826365 l 2.774343,-2.857884 C 43.327797,40.316003 42.566236,39.10471 41.30463,37.554073 a 10.783356,11.108079 0 0 0 1.08562,-2.684322 c 1.953089,-0.177624 3.320014,-0.480075 3.320014,-0.844152 v -4.039302 c 0,-0.363466 -1.362805,-0.666357 -3.310444,-0.844152 a 10.783356,11.108079 0 0 0 -1.091361,-2.690237 c 1.258736,-1.547856 2.019024,-2.7563 1.769154,-3.013698 L 40.30327,20.580325 c -0.249642,-0.257153 -1.421277,0.524154 -2.921776,1.818475 a 10.783356,11.108079 0 0 0 -2.615415,-1.110414 c -0.172432,-2.011908 -0.466042,-3.419993 -0.819476,-3.419993 z m 1.96061,9.088427 a 4.9015253,5.0491273 0 0 1 4.901524,5.049129 4.9015253,5.0491273 0 0 1 -4.901524,5.049125 4.9015253,5.0491273 0 0 1 -4.901527,-5.049125 4.9015253,5.0491273 0 0 1 4.901527,-5.049129 z"
       id="path4690"
       inkscape:connector-curvature="0" />
    <g
       id="g2"
       style="fill:#dfdfdf;fill-opacity:1;stroke:none;stroke-opacity:0.6"
       transform="translate(-1.8181818e-7,1.7274047)" />
  </g>
</svg>
