<?xml version="1.0" encoding="UTF-8" standalone="no"?>
<svg
   width="64"
   height="64"
   version="1.1"
   id="svg73"
   sodipodi:docname="abcd.svg"
   inkscape:version="1.4.2 (ebf0e940d0, 2025-05-08)"
   xmlns:inkscape="http://www.inkscape.org/namespaces/inkscape"
   xmlns:sodipodi="http://sodipodi.sourceforge.net/DTD/sodipodi-0.dtd"
   xmlns="http://www.w3.org/2000/svg"
   xmlns:svg="http://www.w3.org/2000/svg"
   xmlns:rdf="http://www.w3.org/1999/02/22-rdf-syntax-ns#"
   xmlns:cc="http://creativecommons.org/ns#"
   xmlns:dc="http://purl.org/dc/elements/1.1/">
  <metadata
     id="metadata77">
    <rdf:RDF>
      <cc:Work
         rdf:about="">
        <dc:format>image/svg+xml</dc:format>
        <dc:type
           rdf:resource="http://purl.org/dc/dcmitype/StillImage" />
      </cc:Work>
    </rdf:RDF>
  </metadata>
  <sodipodi:namedview
     pagecolor="#f5f7fa"
     bordercolor="#666666"
     borderopacity="1"
     objecttolerance="10"
     gridtolerance="10"
     guidetolerance="10"
     inkscape:pageopacity="0"
     inkscape:pageshadow="2"
     inkscape:window-width="1377"
     inkscape:window-height="679"
     id="namedview75"
     showgrid="false"
     inkscape:zoom="6.2890624"
     inkscape:cx="47.622361"
     inkscape:cy="45.316771"
     inkscape:window-x="13"
     inkscape:window-y="130"
     inkscape:window-maximized="0"
     inkscape:current-layer="g877"
     inkscape:document-rotation="0"
     inkscape:pagecheckerboard="0"
     inkscape:showpageshadow="2"
     inkscape:deskcolor="#d1d1d1" />
  <defs
     id="defs29">
    <clipPath
       id="clip0_2648_607">
      <rect
         width="16"
         height="16"
         fill="#ffffff"
         id="rect1"
         x="0"
         y="0" />
    </clipPath>
  </defs>
  <circle
     cx="32.516094"
     cy="31.877844"
     r="0"
     fill="url(#b)"
     stroke-width="1.5715"
     id="circle41"
     style="fill:url(#b)" />
  <g
     aria-label="GZ"
     transform="matrix(1.2212657,0,0,0.81882264,0.4960938,-0.1661539)"
     id="text93"
     style="font-weight:bold;font-size:11.5263px;line-height:1.25;font-family:sans-serif;-inkscape-font-specification:'sans-serif Bold';fill:#f2f2f2;stroke-width:0.288159" />
  <g
     id="g877"
     transform="matrix(1.1,0,0,1.1,-3.1845928,-3.2065454)">
    <circle
       style="opacity:1;fill:#414141;stroke:#dfdfdf;stroke-width:2.27272727;stroke-dasharray:none;fill-opacity:1;stroke-opacity:1"
       id="path1"
       cx="31.985994"
       cy="32.005951"
       r="25.454546" />
    <path
       style="fill:#dfdfdf;fill-opacity:1;stroke:none;stroke-width:0.843908;stroke-dasharray:none;stroke-dashoffset:2.2;stroke-opacity:0.3"
       d="m 22.057088,41.89275 c -1.247371,-0.292902 -2.759764,-1.597801 -3.403774,-2.936757 -0.526075,-1.093749 -0.676093,-1.784603 -0.675506,-3.110761 4.15e-4,-0.941535 0.04331,-1.301704 0.225158,-1.890162 0.711091,-2.301224 2.325258,-3.856469 4.336832,-4.178525 0.56413,-0.09032 0.818749,-0.08339 1.405507,0.03818 0.394112,0.08167 0.792903,0.17893 0.886199,0.216154 0.152498,0.06085 0.169624,-0.0058 0.169624,-0.66115 0,-2.190342 0.883313,-4.333563 2.423338,-5.879839 1.298631,-1.303894 2.544963,-1.905984 4.162324,-2.010768 3.798283,-0.246081 7.03155,3.126395 7.337686,7.653618 0.03508,0.519793 0.07367,0.945079 0.08559,0.945079 0.01182,0 0.212608,-0.07158 0.445851,-0.159058 0.636902,-0.238839 2.013768,-0.214018 2.742678,0.04945 1.68307,0.608349 3.052488,2.209073 3.551693,4.151599 0.244754,0.952487 0.261867,2.475197 0.03816,3.399424 -0.495089,2.045346 -1.967488,3.751613 -3.698874,4.286379 -0.614348,0.189769 -0.875215,0.194494 -10.14386,0.185044 -5.33106,-0.0055 -9.678312,-0.04852 -9.888658,-0.09788 z"
       id="path99" />
    <g
       id="g2"
       style="fill:#dfdfdf;fill-opacity:1;stroke:none;stroke-opacity:0.6"
       transform="translate(-1.8181818e-7,1.7274047)" />
  </g>
</svg>
