<?xml version="1.0" encoding="UTF-8" standalone="no"?>
<svg
   width="64"
   height="64"
   version="1.1"
   id="svg73"
   sodipodi:docname="gnome-settings.svg"
   inkscape:version="1.4.2 (ebf0e940d0, 2025-05-08)"
   xmlns:inkscape="http://www.inkscape.org/namespaces/inkscape"
   xmlns:sodipodi="http://sodipodi.sourceforge.net/DTD/sodipodi-0.dtd"
   xmlns="http://www.w3.org/2000/svg"
   xmlns:svg="http://www.w3.org/2000/svg"
   xmlns:rdf="http://www.w3.org/1999/02/22-rdf-syntax-ns#"
   xmlns:cc="http://creativecommons.org/ns#"
   xmlns:dc="http://purl.org/dc/elements/1.1/">
  <metadata
     id="metadata77">
    <rdf:RDF>
      <cc:Work
         rdf:about="">
        <dc:format>image/svg+xml</dc:format>
        <dc:type
           rdf:resource="http://purl.org/dc/dcmitype/StillImage" />
      </cc:Work>
    </rdf:RDF>
  </metadata>
  <sodipodi:namedview
     pagecolor="#f5f7fa"
     bordercolor="#666666"
     borderopacity="1"
     objecttolerance="10"
     gridtolerance="10"
     guidetolerance="10"
     inkscape:pageopacity="0"
     inkscape:pageshadow="2"
     inkscape:window-width="1377"
     inkscape:window-height="886"
     id="namedview75"
     showgrid="false"
     inkscape:zoom="6.2890624"
     inkscape:cx="47.622361"
     inkscape:cy="45.396274"
     inkscape:window-x="334"
     inkscape:window-y="75"
     inkscape:window-maximized="0"
     inkscape:current-layer="g877"
     inkscape:document-rotation="0"
     inkscape:pagecheckerboard="0"
     inkscape:showpageshadow="2"
     inkscape:deskcolor="#d1d1d1" />
  <defs
     id="defs29" />
  <circle
     cx="32.516094"
     cy="31.877844"
     r="0"
     fill="url(#b)"
     stroke-width="1.5715"
     id="circle41"
     style="fill:url(#b)" />
  <g
     aria-label="GZ"
     transform="matrix(1.2212657,0,0,0.81882264,0.4960938,-0.1661539)"
     id="text93"
     style="font-weight:bold;font-size:11.5263px;line-height:1.25;font-family:sans-serif;-inkscape-font-specification:'sans-serif Bold';fill:#f2f2f2;stroke-width:0.288159" />
  <g
     id="g877"
     transform="matrix(1.1,0,0,1.1,-3.1845928,-3.2065454)">
    <circle
       style="opacity:1;fill:#414141;stroke:#dfdfdf;stroke-width:2.27272727;stroke-dasharray:none;fill-opacity:1;stroke-opacity:1"
       id="path1"
       cx="31.985994"
       cy="32.005951"
       r="25.454546" />
    <path
       id="path8-9"
       style="fill:#dfdfdf;fill-opacity:1;stroke:none;stroke-width:0.423667;stroke-dasharray:none;stroke-opacity:0.6"
       d="m 31.981591,19.412185 c -0.553447,0.0033 -1.116015,0.285464 -1.510881,0.855119 l -0.285039,0.409198 -0.02809,5.16743 -0.02804,5.167432 0.491386,-0.150386 c 0.630487,-0.192778 2.098793,-0.192397 2.727982,0 l 0.487941,0.148641 V 26.001318 20.991269 L 33.56942,20.456164 C 33.223543,19.762071 32.608842,19.408458 31.9816,19.412185 Z m 10.663616,0 c -0.46446,0.01771 -0.91281,0.238705 -1.271319,0.647023 -0.470629,0.536034 -0.543203,0.93129 -0.543837,2.981545 -5.32e-4,1.697423 0.0135,1.828954 0.180122,1.778437 1.13831,-0.344895 2.256464,-0.352872 3.291058,-0.02101 l 0.230839,0.07518 v -1.963775 c 0,-2.449785 -0.122197,-2.831024 -1.050963,-3.305058 C 43.207846,19.46507 42.923892,19.40158 42.64522,19.412174 Z m -21.47062,0.002 c -0.341415,0.01274 -0.67889,0.131627 -0.974034,0.356735 -0.527572,0.402406 -0.763157,0.952855 -0.834131,1.958555 -0.03383,0.477122 -0.0418,0.867971 -0.01928,0.867358 0.02265,-6.14e-4 0.267946,-0.07139 0.5456,-0.155636 0.637815,-0.193482 2.140646,-0.198138 2.769952,-0.0088 l 0.479145,0.145146 v -0.6926 c -3e-6,-0.9218 -0.229738,-1.557356 -0.722221,-2.002288 -0.361874,-0.326969 -0.806116,-0.485064 -1.245077,-0.468689 z m 0.06646,3.953829 c -0.943793,0 -1.088191,0.02724 -1.717226,0.325256 -0.956383,0.453099 -1.55196,1.036196 -2.014514,1.972547 -0.366655,0.742194 -0.382978,0.824787 -0.382978,1.81341 0,0.963609 0.02196,1.083506 0.337484,1.724227 0.563151,1.143749 1.538693,1.966959 2.698255,2.278565 0.309702,0.08321 0.733235,0.153633 0.942555,0.157386 1.076946,0.01928 2.357898,-0.527679 3.10745,-1.329017 C 26.1775,28.209158 25.570364,24.99256 22.966995,23.71074 22.31976,23.392065 22.200909,23.367994 21.24102,23.367994 Z m 21.491602,2.262828 c -1.042394,2.77e-4 -1.180127,0.02425 -1.748703,0.302527 -1.202901,0.588545 -2.089336,1.777355 -2.325791,3.119697 -0.385456,2.188278 1.28111,4.452128 3.485189,4.733756 1.860272,0.237675 3.634308,-0.732642 4.42597,-2.421969 0.246096,-0.525017 0.276351,-0.713305 0.276351,-1.673511 0,-1.011734 -0.02159,-1.125811 -0.33225,-1.757451 -0.406016,-0.824528 -1.233447,-1.638425 -2.058316,-2.024988 -0.530326,-0.248522 -0.708425,-0.278314 -1.722484,-0.278047 z M 32.081277,31.66911 c -0.75748,-0.0075 -1.530811,0.198337 -2.241843,0.624294 -0.686815,0.411432 -1.164288,0.960133 -1.587825,1.820402 -0.302853,0.615145 -0.327515,0.744809 -0.327006,1.696245 4.86e-4,0.910295 0.03332,1.101604 0.285038,1.640289 0.554368,1.186044 1.315656,1.876196 2.526883,2.289051 0.852123,0.29046 1.644619,0.298985 2.516385,0.02941 2.072378,-0.639726 3.336778,-2.85286 2.808427,-4.915247 -0.222768,-0.869545 -0.574964,-1.440384 -1.302802,-2.114234 -0.75515,-0.699139 -1.703372,-1.060652 -2.677273,-1.070214 z m -12.755068,0.508877 0.03148,5.41574 c 0.03407,6.003279 0.01118,5.798965 0.722217,6.475464 0.195868,0.186334 0.489631,0.382048 0.654012,0.433688 0.755497,0.237347 1.718212,-0.195436 2.122931,-0.953045 0.233112,-0.436384 0.233215,-0.443645 0.26231,-5.903642 l 0.02967,-5.466457 -0.493132,0.153865 C 22.013868,32.534417 20.46186,32.532889 19.81927,32.332 Z m 21.503845,2.323994 v 4.13918 c 0,2.854734 0.03637,4.263659 0.11893,4.539645 0.163138,0.544586 0.669599,1.095136 1.166382,1.269575 0.22633,0.07948 0.505524,0.147825 0.620799,0.150391 0.353497,0.0074 1.099018,-0.436996 1.430435,-0.853377 l 0.314804,-0.395201 0.02763,-4.425993 c 0.02703,-4.123059 0.01728,-4.420056 -0.14518,-4.357768 -0.09576,0.03677 -0.490178,0.120935 -0.876109,0.187107 -0.67424,0.115639 -1.695039,0.03824 -2.427197,-0.183631 z m -10.695087,6.10124 v 1.180375 c 0,1.621552 0.260134,2.20104 1.182123,2.626555 0.505345,0.23319 0.770942,0.240399 1.262569,0.03487 0.970268,-0.405396 1.252526,-0.997756 1.255569,-2.633544 l 0.002,-1.197864 -0.487887,0.152146 c -0.647874,0.202241 -2.206989,0.199674 -2.776945,-0.0056 z" />
  </g>
</svg>
