<?xml version="1.0" encoding="UTF-8" standalone="no"?>
<svg
   width="64"
   height="64"
   version="1.1"
   id="svg73"
   sodipodi:docname="face-smile.svg"
   inkscape:version="1.4.2 (ebf0e940d0, 2025-05-08)"
   xmlns:inkscape="http://www.inkscape.org/namespaces/inkscape"
   xmlns:sodipodi="http://sodipodi.sourceforge.net/DTD/sodipodi-0.dtd"
   xmlns="http://www.w3.org/2000/svg"
   xmlns:svg="http://www.w3.org/2000/svg"
   xmlns:rdf="http://www.w3.org/1999/02/22-rdf-syntax-ns#"
   xmlns:cc="http://creativecommons.org/ns#"
   xmlns:dc="http://purl.org/dc/elements/1.1/">
  <metadata
     id="metadata77">
    <rdf:RDF>
      <cc:Work
         rdf:about="">
        <dc:format>image/svg+xml</dc:format>
        <dc:type
           rdf:resource="http://purl.org/dc/dcmitype/StillImage" />
      </cc:Work>
    </rdf:RDF>
  </metadata>
  <sodipodi:namedview
     pagecolor="#f5f7fa"
     bordercolor="#666666"
     borderopacity="1"
     objecttolerance="10"
     gridtolerance="10"
     guidetolerance="10"
     inkscape:pageopacity="0"
     inkscape:pageshadow="2"
     inkscape:window-width="1377"
     inkscape:window-height="886"
     id="namedview75"
     showgrid="false"
     inkscape:zoom="6.2890624"
     inkscape:cx="47.622361"
     inkscape:cy="45.396274"
     inkscape:window-x="89"
     inkscape:window-y="84"
     inkscape:window-maximized="0"
     inkscape:current-layer="g877"
     inkscape:document-rotation="0"
     inkscape:pagecheckerboard="0"
     inkscape:showpageshadow="2"
     inkscape:deskcolor="#d1d1d1" />
  <defs
     id="defs29" />
  <circle
     cx="32.516094"
     cy="31.877844"
     r="0"
     fill="url(#b)"
     stroke-width="1.5715"
     id="circle41"
     style="fill:url(#b)" />
  <g
     aria-label="GZ"
     transform="matrix(1.2212657,0,0,0.81882264,0.4960938,-0.1661539)"
     id="text93"
     style="font-weight:bold;font-size:11.5263px;line-height:1.25;font-family:sans-serif;-inkscape-font-specification:'sans-serif Bold';fill:#f2f2f2;stroke-width:0.288159" />
  <g
     id="g877"
     transform="matrix(1.1,0,0,1.1,-3.1845928,-3.2065454)">
    <circle
       style="opacity:1;fill:#414141;stroke:#dfdfdf;stroke-width:2.27272727;stroke-dasharray:none;fill-opacity:1;stroke-opacity:1"
       id="path1"
       cx="31.985994"
       cy="32.005951"
       r="25.454546" />
    <path
       id="path1-6"
       style="fill:#dfdfdf;fill-opacity:1;stroke-width:0.105558"
       d="m 32.010098,18.321503 c -6.764724,0 -6.69742,-0.0043 -7.301873,0.560025 -0.570378,0.532558 -0.545666,0.0634 -0.545666,10.338934 v 9.534796 l 0.238725,0.464892 c 0.270904,0.530172 0.632149,0.831576 1.146975,0.953127 0.498821,0.11774 12.508996,0.120963 13.015214,0.0036 0.56967,-0.132133 0.91568,-0.409215 1.195441,-0.956709 l 0.23874,-0.464905 v -9.480995 c 0,-10.202958 0.01683,-9.878539 -0.543872,-10.394578 -0.598942,-0.551371 -0.684937,-0.558194 -7.443687,-0.558194 z m -0.879529,5.067155 h 0.94953 0.949532 v 4.169678 4.169677 h -0.949532 -0.94953 v -4.169677 z m 1.015945,10.134311 c 0.51279,0 0.883939,0.388512 0.879527,0.919018 -0.0037,0.437603 -0.135221,0.669018 -0.490023,0.857986 -0.390493,0.207977 -0.766747,0.143296 -1.096715,-0.186674 -0.344866,-0.344861 -0.39241,-0.701013 -0.154367,-1.161335 0.177687,-0.343604 0.350262,-0.428994 0.861578,-0.428995 z m -5.977199,8.867074 v 1.952911 1.952903 h 5.910784 5.910784 v -1.952903 -1.952911 h -5.910784 z" />
  </g>
</svg>
