<?xml version="1.0" encoding="UTF-8" standalone="no"?>
<svg
   width="64"
   height="64"
   version="1.1"
   id="svg73"
   sodipodi:docname="accessories-text-editor.svg"
   inkscape:version="1.4.2 (ebf0e940d0, 2025-05-08)"
   xmlns:inkscape="http://www.inkscape.org/namespaces/inkscape"
   xmlns:sodipodi="http://sodipodi.sourceforge.net/DTD/sodipodi-0.dtd"
   xmlns="http://www.w3.org/2000/svg"
   xmlns:svg="http://www.w3.org/2000/svg"
   xmlns:rdf="http://www.w3.org/1999/02/22-rdf-syntax-ns#"
   xmlns:cc="http://creativecommons.org/ns#"
   xmlns:dc="http://purl.org/dc/elements/1.1/">
  <metadata
     id="metadata77">
    <rdf:RDF>
      <cc:Work
         rdf:about="">
        <dc:format>image/svg+xml</dc:format>
        <dc:type
           rdf:resource="http://purl.org/dc/dcmitype/StillImage" />
      </cc:Work>
    </rdf:RDF>
  </metadata>
  <sodipodi:namedview
     pagecolor="#f5f7fa"
     bordercolor="#666666"
     borderopacity="1"
     objecttolerance="10"
     gridtolerance="10"
     guidetolerance="10"
     inkscape:pageopacity="0"
     inkscape:pageshadow="2"
     inkscape:window-width="1377"
     inkscape:window-height="886"
     id="namedview75"
     showgrid="false"
     inkscape:zoom="6.2890624"
     inkscape:cx="47.622361"
     inkscape:cy="45.396274"
     inkscape:window-x="324"
     inkscape:window-y="75"
     inkscape:window-maximized="0"
     inkscape:current-layer="g877"
     inkscape:document-rotation="0"
     inkscape:pagecheckerboard="0"
     inkscape:showpageshadow="2"
     inkscape:deskcolor="#d1d1d1" />
  <defs
     id="defs29" />
  <circle
     cx="32.516094"
     cy="31.877844"
     r="0"
     fill="url(#b)"
     stroke-width="1.5715"
     id="circle41"
     style="fill:url(#b)" />
  <g
     aria-label="GZ"
     transform="matrix(1.2212657,0,0,0.81882264,0.4960938,-0.1661539)"
     id="text93"
     style="font-weight:bold;font-size:11.5263px;line-height:1.25;font-family:sans-serif;-inkscape-font-specification:'sans-serif Bold';fill:#f2f2f2;stroke-width:0.288159" />
  <g
     id="g877"
     transform="matrix(1.1,0,0,1.1,-3.1845928,-3.2065454)">
    <circle
       style="opacity:1;fill:#414141;stroke:#dfdfdf;stroke-width:2.27272727;stroke-dasharray:none;fill-opacity:1;stroke-opacity:1"
       id="path1"
       cx="31.985994"
       cy="32.005951"
       r="25.454546" />
    <path
       style="fill:#dfdfdf;fill-opacity:1;stroke:none;stroke-width:0.386901;stroke-dasharray:none;stroke-opacity:0.6"
       d="M 30.818715,46.071654 C 27.423297,45.754616 24.476968,44.406281 22.097508,42.080531 19.755825,39.791713 18.33813,36.87092 17.94132,33.517786 c -0.07128,-0.6023 -0.07128,-2.426027 0,-3.028327 0.399592,-3.376663 1.825013,-6.298097 4.196948,-8.601761 2.23195,-2.167705 4.926048,-3.461038 8.112637,-3.894561 0.404391,-0.055 0.842509,-0.07505 1.682402,-0.07693 1.154993,-0.0024 1.545913,0.02738 2.502574,0.192101 4.442277,0.764702 8.291439,3.68479 10.260708,7.784063 2.780115,5.78716 1.285611,12.771236 -3.615224,16.89453 -2.163397,1.820156 -4.67498,2.899906 -7.549774,3.245727 -0.506913,0.06094 -2.214627,0.08552 -2.712876,0.03892 z m 2.166093,-7.085102 c 0.735919,-0.154133 1.368221,-0.42123 2.016228,-0.851782 0.684231,-0.454629 1.463338,-1.261227 1.930023,-1.998132 0.176658,-0.278937 0.406966,-0.72491 0.406966,-0.788041 0,-0.02646 -0.1449,-0.04324 -0.3712,-0.04324 h -0.371204 l -0.221217,0.272666 c -0.324867,0.400399 -0.958891,0.984643 -1.357968,1.251348 -0.989644,0.661368 -1.939619,0.957514 -3.071517,0.957514 -1.078396,0 -2.032681,-0.303958 -3.014493,-0.960115 -0.394235,-0.263488 -1.11637,-0.932315 -1.391097,-1.288412 l -0.17977,-0.233018 h -0.394452 c -0.216958,0 -0.394455,0.01298 -0.394455,0.02882 0,0.05251 0.453634,0.828724 0.638529,1.092584 0.992927,1.417006 2.407098,2.339696 3.98808,2.602079 0.449897,0.07466 1.328188,0.05391 1.787552,-0.04233 z M 27.410135,28.930758 c 1.093618,-0.248737 1.770639,-1.393318 1.480829,-2.50351 -0.268156,-1.027238 -1.327899,-1.681757 -2.37082,-1.46427 -0.332271,0.0693 -0.716415,0.266637 -0.96728,0.496916 -0.853504,0.783473 -0.879906,2.109976 -0.05832,2.929456 0.515761,0.514431 1.192829,0.705795 1.915578,0.541408 z m 10.094419,0 c 1.093621,-0.248738 1.770641,-1.393318 1.480832,-2.50351 -0.26816,-1.027238 -1.327898,-1.681757 -2.370824,-1.46427 -0.332271,0.0693 -0.716416,0.266637 -0.96728,0.496916 -0.853504,0.783473 -0.879907,2.109976 -0.05831,2.929456 0.515759,0.514431 1.192826,0.705795 1.915578,0.541408 z"
       id="path1-3" />
  </g>
</svg>
