<?xml version="1.0" encoding="UTF-8" standalone="no"?>
<svg
   width="64"
   height="64"
   version="1.1"
   id="svg73"
   sodipodi:docname="face-smile.svg"
   inkscape:version="1.4.2 (ebf0e940d0, 2025-05-08)"
   xmlns:inkscape="http://www.inkscape.org/namespaces/inkscape"
   xmlns:sodipodi="http://sodipodi.sourceforge.net/DTD/sodipodi-0.dtd"
   xmlns="http://www.w3.org/2000/svg"
   xmlns:svg="http://www.w3.org/2000/svg"
   xmlns:rdf="http://www.w3.org/1999/02/22-rdf-syntax-ns#"
   xmlns:cc="http://creativecommons.org/ns#"
   xmlns:dc="http://purl.org/dc/elements/1.1/">
  <metadata
     id="metadata77">
    <rdf:RDF>
      <cc:Work
         rdf:about="">
        <dc:format>image/svg+xml</dc:format>
        <dc:type
           rdf:resource="http://purl.org/dc/dcmitype/StillImage" />
      </cc:Work>
    </rdf:RDF>
  </metadata>
  <sodipodi:namedview
     pagecolor="#f5f7fa"
     bordercolor="#666666"
     borderopacity="1"
     objecttolerance="10"
     gridtolerance="10"
     guidetolerance="10"
     inkscape:pageopacity="0"
     inkscape:pageshadow="2"
     inkscape:window-width="1377"
     inkscape:window-height="886"
     id="namedview75"
     showgrid="false"
     inkscape:zoom="6.2890624"
     inkscape:cx="47.622361"
     inkscape:cy="45.396274"
     inkscape:window-x="89"
     inkscape:window-y="84"
     inkscape:window-maximized="0"
     inkscape:current-layer="g877"
     inkscape:document-rotation="0"
     inkscape:pagecheckerboard="0"
     inkscape:showpageshadow="2"
     inkscape:deskcolor="#d1d1d1" />
  <defs
     id="defs29" />
  <circle
     cx="32.516094"
     cy="31.877844"
     r="0"
     fill="url(#b)"
     stroke-width="1.5715"
     id="circle41"
     style="fill:url(#b)" />
  <g
     aria-label="GZ"
     transform="matrix(1.2212657,0,0,0.81882264,0.4960938,-0.1661539)"
     id="text93"
     style="font-weight:bold;font-size:11.5263px;line-height:1.25;font-family:sans-serif;-inkscape-font-specification:'sans-serif Bold';fill:#f2f2f2;stroke-width:0.288159" />
  <g
     id="g877"
     transform="matrix(1.1,0,0,1.1,-3.1845928,-3.2065454)">
    <circle
       style="opacity:1;fill:#414141;stroke:#dfdfdf;stroke-width:2.27272727;stroke-dasharray:none;fill-opacity:1;stroke-opacity:1"
       id="path1"
       cx="31.985994"
       cy="32.005951"
       r="25.454546" />
    <path
       id="path51393"
       style="fill:#dfdfdf;fill-opacity:1;stroke:none;stroke-width:0.835471;stroke-dasharray:none;stroke-opacity:1"
       d="m 39.007337,24.006009 c -3.138824,-0.0054 -5.031169,1.760084 -5.794439,5.404442 -0.396652,1.893911 -0.391997,5.256139 0.0098,6.747396 0.568603,2.110405 1.779678,3.465585 3.376146,3.780826 1.299196,0.256568 2.888287,-0.240958 3.69108,-1.155297 1.009587,-1.149852 1.494453,-3.171729 1.2173,-5.073193 -0.187398,-1.285781 -0.613467,-2.166586 -1.401694,-2.89314 -0.670443,-0.617993 -1.281912,-0.833748 -2.349759,-0.830575 -0.988,0.003 -1.680132,0.345499 -2.431349,1.204251 l -0.62497,0.713087 v -0.616812 c 0,-0.924444 0.349364,-2.570055 0.709823,-3.343509 0.398536,-0.855156 1.039111,-1.509431 1.814541,-1.85533 0.705693,-0.31479 2.24737,-0.445089 2.955141,-0.249665 l 0.499322,0.137069 v -0.904 c 0,-1.066731 0.0046,-1.062709 -1.670936,-1.06555 z m -12.443927,0.01307 c -0.111358,5.48e-4 -0.225608,0.004 -0.342669,0.0098 -0.983095,0.04759 -1.270198,0.118249 -1.949975,0.483002 -0.438388,0.235217 -1.031676,0.627781 -1.320109,0.871359 l -0.525432,0.442215 0.438947,0.683715 c 0.241252,0.375953 0.478265,0.683713 0.527065,0.683713 0.0488,0 0.308278,-0.180732 0.576016,-0.401418 0.76551,-0.630999 1.531464,-0.92196 2.44277,-0.925217 1.47881,-0.0054 2.200085,0.81463 2.194739,2.494988 -0.006,1.915833 -0.358846,2.49444 -4.784367,7.865163 l -1.475126,1.791689 v 0.897477 0.897472 h 4.317679 4.31768 v -0.997033 -0.995392 h -3.199912 c -1.850167,0 -3.181464,-0.05134 -3.155856,-0.120785 0.02434,-0.06602 0.82227,-1.029347 1.772109,-2.140878 3.532879,-4.134255 4.136581,-5.29744 4.027224,-7.754181 -0.0456,-1.024278 -0.111987,-1.31849 -0.438949,-1.917335 -0.711978,-1.304019 -1.751463,-1.876632 -3.421834,-1.868384 z m -9.75476,3.975003 c -0.207412,-0.0018 -0.428784,0.104072 -0.646182,0.321459 l -0.326357,0.32636 v 3.309241 c 0,3.146707 0.01234,3.325605 0.274137,3.658443 0.423754,0.538714 1.058019,0.451593 1.390274,-0.190916 0.283305,-0.547858 0.283305,-6.33987 0,-6.887728 -0.18289,-0.353676 -0.425194,-0.534633 -0.691872,-0.536857 z m 30.42121,0 c -0.207381,-0.0018 -0.428779,0.104061 -0.646189,0.321459 l -0.32634,0.326357 v 3.309242 c 0,3.146718 0.01396,3.325607 0.275792,3.658444 0.423761,0.538715 1.058011,0.451593 1.390271,-0.190917 0.283309,-0.547861 0.283309,-6.339868 0,-6.887727 -0.182895,-0.35367 -0.426858,-0.534629 -0.693538,-0.536854 z m -9.780872,3.715555 c 0.965301,0 1.538767,0.33167 1.954873,1.129188 0.234193,0.448914 0.277403,0.768673 0.277403,2.059301 0,1.425468 -0.02434,1.568915 -0.363888,2.14579 -0.252414,0.429336 -0.53881,0.702476 -0.938248,0.895844 -0.654968,0.317067 -1.306841,0.348927 -1.886338,0.09139 -1.467547,-0.652269 -2.242053,-3.518129 -1.357658,-5.02263 0.514066,-0.874514 1.270299,-1.298895 2.313856,-1.298895 z" />
  </g>
</svg>
