<?xml version="1.0" encoding="UTF-8" standalone="no"?>
<svg
   width="64"
   height="64"
   version="1.1"
   id="svg73"
   sodipodi:docname="preferences-desktop-emoticons.svg"
   inkscape:version="1.4.2 (ebf0e940d0, 2025-05-08)"
   xmlns:inkscape="http://www.inkscape.org/namespaces/inkscape"
   xmlns:sodipodi="http://sodipodi.sourceforge.net/DTD/sodipodi-0.dtd"
   xmlns="http://www.w3.org/2000/svg"
   xmlns:svg="http://www.w3.org/2000/svg"
   xmlns:rdf="http://www.w3.org/1999/02/22-rdf-syntax-ns#"
   xmlns:cc="http://creativecommons.org/ns#"
   xmlns:dc="http://purl.org/dc/elements/1.1/">
  <metadata
     id="metadata77">
    <rdf:RDF>
      <cc:Work
         rdf:about="">
        <dc:format>image/svg+xml</dc:format>
        <dc:type
           rdf:resource="http://purl.org/dc/dcmitype/StillImage" />
      </cc:Work>
    </rdf:RDF>
  </metadata>
  <sodipodi:namedview
     pagecolor="#f5f7fa"
     bordercolor="#666666"
     borderopacity="1"
     objecttolerance="10"
     gridtolerance="10"
     guidetolerance="10"
     inkscape:pageopacity="0"
     inkscape:pageshadow="2"
     inkscape:window-width="1377"
     inkscape:window-height="689"
     id="namedview75"
     showgrid="false"
     inkscape:zoom="6.2890624"
     inkscape:cx="47.622361"
     inkscape:cy="35.776398"
     inkscape:window-x="16"
     inkscape:window-y="162"
     inkscape:window-maximized="0"
     inkscape:current-layer="g877"
     inkscape:document-rotation="0"
     inkscape:pagecheckerboard="0"
     inkscape:showpageshadow="2"
     inkscape:deskcolor="#d1d1d1" />
  <defs
     id="defs29" />
  <circle
     cx="32.516094"
     cy="31.877844"
     r="0"
     fill="url(#b)"
     stroke-width="1.5715"
     id="circle41"
     style="fill:url(#b)" />
  <g
     aria-label="GZ"
     transform="matrix(1.2212657,0,0,0.81882264,0.4960938,-0.1661539)"
     id="text93"
     style="font-weight:bold;font-size:11.5263px;line-height:1.25;font-family:sans-serif;-inkscape-font-specification:'sans-serif Bold';fill:#f2f2f2;stroke-width:0.288159" />
  <g
     id="g877"
     transform="matrix(1.1,0,0,1.1,-3.1845928,-3.2065454)">
    <circle
       style="opacity:1;fill:#414141;stroke:#dfdfdf;stroke-width:2.27272727;stroke-dasharray:none;fill-opacity:1;stroke-opacity:1"
       id="path1"
       cx="31.985994"
       cy="32.005951"
       r="25.454546" />
    <path
       style="color:#444444;fill:#dfdfdf;fill-opacity:1;stroke:none;stroke-width:0.835471;stroke-dasharray:none;stroke-opacity:1"
       class="ColorScheme-Text"
       d="m 21.9835,21.094136 c 0,0 -3.637272,0 -3.637272,3.637272 v 14.549079 c 0,3.637277 3.637272,3.637277 3.637272,3.637277 h 20.004989 c 0,0 3.637269,0 3.637269,-3.637277 V 24.731408 c 0,-3.637272 -3.637269,-3.637272 -3.637269,-3.637272 z m 0.454659,3.637272 h 2.727953 c 0.251878,0 0.454657,0.202779 0.454657,0.45466 v 2.727951 c 0,0.251879 -0.202777,0.454659 -0.454657,0.454659 h -2.727953 c -0.251878,0 -0.454659,-0.20278 -0.454659,-0.454659 v -2.727951 c 0,-0.251879 0.202779,-0.45466 0.454659,-0.45466 z m 5.455906,0 h 2.727952 c 0.251878,0 0.454658,0.202779 0.454658,0.45466 v 2.727951 c 0,0.251879 -0.20278,0.454659 -0.454658,0.454659 h -2.727952 c -0.251881,0 -0.45466,-0.20278 -0.45466,-0.454659 v -2.727951 c 0,-0.251879 0.202779,-0.45466 0.45466,-0.45466 z m 5.455906,0 h 2.727952 c 0.251889,0 0.454658,0.202779 0.454658,0.45466 v 2.727951 c 0,0.251879 -0.202772,0.454659 -0.454658,0.454659 H 33.34997 c -0.251878,0 -0.454658,-0.20278 -0.454658,-0.454659 v -2.727951 c 0,-0.251879 0.202773,-0.45466 0.454659,-0.45466 z m 5.455905,0 h 2.72795 c 0.251878,0 0.454663,0.202779 0.454663,0.45466 v 2.727951 c 0,0.251879 -0.2028,0.454659 -0.454663,0.454659 h -2.72795 c -0.251913,0 -0.454658,-0.20278 -0.454658,-0.454659 v -2.727951 c 0,-0.251879 0.202798,-0.45466 0.454658,-0.45466 z m -16.367717,5.455906 h 2.727954 c 0.251877,0 0.454656,0.202776 0.454656,0.454657 v 2.727954 c 0,0.251882 -0.202777,0.454659 -0.454656,0.454659 h -2.727954 c -0.251878,0 -0.454659,-0.20278 -0.454659,-0.454659 v -2.727954 c 0,-0.251876 0.202779,-0.454657 0.454659,-0.454657 z m 5.455906,0 h 2.727952 c 0.251878,0 0.454658,0.202776 0.454658,0.454657 v 2.727954 c 0,0.251882 -0.20278,0.454659 -0.454658,0.454659 h -2.727952 c -0.251881,0 -0.45466,-0.20278 -0.45466,-0.454659 v -2.727954 c 0,-0.251876 0.202779,-0.454657 0.45466,-0.454657 z m 5.455906,0 h 2.727952 c 0.251889,0 0.454658,0.202776 0.454658,0.454657 v 2.727954 c 0,0.251882 -0.202772,0.454659 -0.454658,0.454659 H 33.34997 c -0.251878,0 -0.454658,-0.20278 -0.454658,-0.454659 v -2.727954 c 0,-0.251876 0.202773,-0.454657 0.454659,-0.454657 z m 5.455905,0 h 2.72795 c 0.251878,0 0.454663,0.202776 0.454663,0.454657 v 2.727954 c 0,0.251882 -0.2028,0.454659 -0.454663,0.454659 h -2.72795 c -0.251913,0 -0.454658,-0.20278 -0.454658,-0.454659 v -2.727954 c 0,-0.251876 0.202798,-0.454657 0.454658,-0.454657 z M 26.075429,35.643219 H 37.89656 c 0.251878,0 0.454658,0.202773 0.454658,0.454657 v 2.727957 c 0,0.251878 -0.202798,0.454654 -0.454658,0.454654 H 26.075429 c -0.251878,0 -0.45466,-0.202763 -0.45466,-0.454654 v -2.727957 c 0,-0.25189 0.202779,-0.454657 0.45466,-0.454657 z"
       id="path5" />
  </g>
</svg>
