<?xml version="1.0" encoding="UTF-8" standalone="no"?>
<svg
   width="64"
   height="64"
   version="1.1"
   id="svg73"
   sodipodi:docname="preferences-desktop-emoticons.svg"
   inkscape:version="1.4.2 (ebf0e940d0, 2025-05-08)"
   xmlns:inkscape="http://www.inkscape.org/namespaces/inkscape"
   xmlns:sodipodi="http://sodipodi.sourceforge.net/DTD/sodipodi-0.dtd"
   xmlns="http://www.w3.org/2000/svg"
   xmlns:svg="http://www.w3.org/2000/svg"
   xmlns:rdf="http://www.w3.org/1999/02/22-rdf-syntax-ns#"
   xmlns:cc="http://creativecommons.org/ns#"
   xmlns:dc="http://purl.org/dc/elements/1.1/">
  <metadata
     id="metadata77">
    <rdf:RDF>
      <cc:Work
         rdf:about="">
        <dc:format>image/svg+xml</dc:format>
        <dc:type
           rdf:resource="http://purl.org/dc/dcmitype/StillImage" />
      </cc:Work>
    </rdf:RDF>
  </metadata>
  <sodipodi:namedview
     pagecolor="#f5f7fa"
     bordercolor="#666666"
     borderopacity="1"
     objecttolerance="10"
     gridtolerance="10"
     guidetolerance="10"
     inkscape:pageopacity="0"
     inkscape:pageshadow="2"
     inkscape:window-width="1377"
     inkscape:window-height="689"
     id="namedview75"
     showgrid="false"
     inkscape:zoom="6.2890624"
     inkscape:cx="47.622361"
     inkscape:cy="35.776398"
     inkscape:window-x="16"
     inkscape:window-y="162"
     inkscape:window-maximized="0"
     inkscape:current-layer="g877"
     inkscape:document-rotation="0"
     inkscape:pagecheckerboard="0"
     inkscape:showpageshadow="2"
     inkscape:deskcolor="#d1d1d1" />
  <defs
     id="defs29" />
  <circle
     cx="32.516094"
     cy="31.877844"
     r="0"
     fill="url(#b)"
     stroke-width="1.5715"
     id="circle41"
     style="fill:url(#b)" />
  <g
     aria-label="GZ"
     transform="matrix(1.2212657,0,0,0.81882264,0.4960938,-0.1661539)"
     id="text93"
     style="font-weight:bold;font-size:11.5263px;line-height:1.25;font-family:sans-serif;-inkscape-font-specification:'sans-serif Bold';fill:#f2f2f2;stroke-width:0.288159" />
  <g
     id="g877"
     transform="matrix(1.1,0,0,1.1,-3.1845928,-3.2065454)">
    <circle
       style="opacity:1;fill:#414141;stroke:#dfdfdf;stroke-width:2.27272727;stroke-dasharray:none;fill-opacity:1;stroke-opacity:1"
       id="path1"
       cx="31.985994"
       cy="32.005951"
       r="25.454546" />
    <path
       style="fill:#dfdfdf;fill-opacity:1;stroke:none;stroke-width:0.887003;stroke-dasharray:none;stroke-dashoffset:2.2;stroke-opacity:0.3"
       d="m 21.37843,43.309907 c -0.110302,-0.08674 -0.222851,-0.259279 -0.25011,-0.383384 -0.04411,-0.200873 0.759447,-4.283741 0.86361,-4.387898 0.01993,-0.01965 -0.344654,-0.427258 -0.810158,-0.905195 -1.847545,-1.896904 -2.72705,-3.808754 -2.816205,-6.121801 -0.06191,-1.606066 0.184403,-2.73819 0.921071,-4.233615 1.424527,-2.89176 4.610299,-5.247992 8.425618,-6.231677 1.480488,-0.381706 2.49485,-0.500907 4.272813,-0.502106 1.605763,-9e-4 2.502893,0.09118 3.841611,0.395056 3.51278,0.797382 6.603935,2.802406 8.291638,5.378225 3.427636,5.231373 0.771497,11.635641 -5.93963,14.321144 -2.033858,0.813862 -3.793764,1.136912 -6.193619,1.136912 -1.735722,0 -2.743405,-0.113772 -4.135279,-0.466835 -0.418628,-0.106191 -0.808768,-0.193065 -0.866983,-0.193065 -0.05822,0 -1.184601,0.529203 -2.503084,1.176007 -1.577515,0.773869 -2.483326,1.176004 -2.648992,1.176004 -0.138459,0 -0.341994,-0.07095 -0.452301,-0.157752 z m 18.372604,-6.665391 c 0.566018,-0.302921 0.476461,-1.573367 -0.127097,-1.802834 -0.27305,-0.103817 -14.769508,-0.103817 -15.042567,0 -0.569121,0.216381 -0.690166,1.237736 -0.20427,1.723631 0.158753,0.158759 0.215316,0.159918 7.691507,0.159918 5.015683,0 7.581962,-0.02688 7.682409,-0.0807 z m 0.09244,-4.852058 c 0.240593,-0.214992 0.256036,-0.260236 0.256036,-0.751232 0,-0.490997 -0.01561,-0.536242 -0.256036,-0.751234 L 39.587426,30.061221 H 32.10267 24.61792 l -0.256037,0.228771 c -0.240621,0.214993 -0.256036,0.260237 -0.256036,0.751234 0,0.490996 0.01544,0.536242 0.256036,0.751232 l 0.256037,0.228771 h 7.48475 7.484746 z m -0.219512,-4.551689 c 0.614301,-0.233559 0.692481,-1.336933 0.126317,-1.783066 -0.0933,-0.07354 -1.854053,-0.09608 -7.652438,-0.098 l -7.531207,-0.0024 -0.176387,0.164327 c -0.48915,0.455715 -0.388313,1.491793 0.166917,1.715016 0.245452,0.09869 14.807628,0.102758 15.066809,0.0042 z"
       id="path39" />
  </g>
</svg>
