<?xml version="1.0" encoding="UTF-8" standalone="no"?>
<svg
   width="64"
   height="64"
   version="1.1"
   id="svg73"
   sodipodi:docname="preferences-desktop-touchscreen.svg"
   inkscape:version="1.4.2 (ebf0e940d0, 2025-05-08)"
   xmlns:inkscape="http://www.inkscape.org/namespaces/inkscape"
   xmlns:sodipodi="http://sodipodi.sourceforge.net/DTD/sodipodi-0.dtd"
   xmlns="http://www.w3.org/2000/svg"
   xmlns:svg="http://www.w3.org/2000/svg"
   xmlns:rdf="http://www.w3.org/1999/02/22-rdf-syntax-ns#"
   xmlns:cc="http://creativecommons.org/ns#"
   xmlns:dc="http://purl.org/dc/elements/1.1/">
  <metadata
     id="metadata77">
    <rdf:RDF>
      <cc:Work
         rdf:about="">
        <dc:format>image/svg+xml</dc:format>
        <dc:type
           rdf:resource="http://purl.org/dc/dcmitype/StillImage" />
      </cc:Work>
    </rdf:RDF>
  </metadata>
  <sodipodi:namedview
     pagecolor="#f5f7fa"
     bordercolor="#666666"
     borderopacity="1"
     objecttolerance="10"
     gridtolerance="10"
     guidetolerance="10"
     inkscape:pageopacity="0"
     inkscape:pageshadow="2"
     inkscape:window-width="1377"
     inkscape:window-height="689"
     id="namedview75"
     showgrid="false"
     inkscape:zoom="6.2890624"
     inkscape:cx="47.622361"
     inkscape:cy="35.617392"
     inkscape:window-x="16"
     inkscape:window-y="162"
     inkscape:window-maximized="0"
     inkscape:current-layer="g877"
     inkscape:document-rotation="0"
     inkscape:pagecheckerboard="0"
     inkscape:showpageshadow="2"
     inkscape:deskcolor="#d1d1d1" />
  <defs
     id="defs29" />
  <circle
     cx="32.516094"
     cy="31.877844"
     r="0"
     fill="url(#b)"
     stroke-width="1.5715"
     id="circle41"
     style="fill:url(#b)" />
  <g
     aria-label="GZ"
     transform="matrix(1.2212657,0,0,0.81882264,0.4960938,-0.1661539)"
     id="text93"
     style="font-weight:bold;font-size:11.5263px;line-height:1.25;font-family:sans-serif;-inkscape-font-specification:'sans-serif Bold';fill:#f2f2f2;stroke-width:0.288159" />
  <g
     id="g877"
     transform="matrix(1.1,0,0,1.1,-3.1845928,-3.2065454)">
    <circle
       style="opacity:1;fill:#414141;stroke:#dfdfdf;stroke-width:2.27272727;stroke-dasharray:none;fill-opacity:1;stroke-opacity:1"
       id="path1"
       cx="31.985994"
       cy="32.005951"
       r="25.454546" />
    <path
       style="fill:#dfdfdf;fill-opacity:1;stroke:none;stroke-width:0.107242;stroke-dashoffset:2.2;stroke-opacity:0.3"
       d="M 19.468617,45.735676 C 18.970908,45.473299 18.654262,45.14912 18.43802,44.680588 18.257384,44.289201 18.239831,43.915687 18.237682,40.417689 l -0.0023,-3.833922 0.455782,0.0025 c 0.307964,0.0017 0.629683,0.104781 0.991992,0.317883 1.633487,0.96075 2.24622,1.078632 3.015137,0.580057 0.98231,-0.636942 1.485707,-1.905891 1.415996,-3.569402 -0.06473,-1.544609 -0.618751,-2.621197 -1.611741,-3.131968 -0.699872,-0.359998 -1.291076,-0.234711 -2.487287,0.527095 -0.659556,0.420039 -1.179215,0.594581 -1.51747,0.509684 l -0.262411,-0.06586 v -3.006075 c 0,-3.26317 0.01071,-3.331078 0.628888,-3.996995 0.613793,-0.661163 0.590433,-0.657607 4.557983,-0.694056 l 3.631853,-0.03335 -0.0447,-0.617856 c -0.03605,-0.498512 -0.141898,-0.781197 -0.547947,-1.463501 -0.818717,-1.375732 -0.814675,-2.002638 0.01828,-2.835601 0.734237,-0.734237 1.49622,-1.008538 2.801619,-1.008538 1.305399,0 2.06738,0.274301 2.801617,1.008538 0.832963,0.832963 0.837007,1.459869 0.01829,2.835601 -0.407912,0.685438 -0.511812,0.96394 -0.548421,1.470056 l -0.04516,0.624408 h 3.103458 c 3.496134,0 3.928775,0.06416 4.499796,0.667328 0.634157,0.669861 0.622267,0.589662 0.680208,4.587561 l 0.05363,3.699872 0.255377,0.03613 c 0.469279,0.06637 0.91744,-0.08536 1.8183,-0.615583 0.49169,-0.289392 1.058848,-0.5571 1.260353,-0.594903 0.760667,-0.142701 1.756038,0.593291 2.198551,1.625635 0.884336,2.063072 0.05548,4.797436 -1.604982,5.294927 -0.403424,0.120849 -0.475992,0.105232 -1.213143,-0.261502 -0.431228,-0.214506 -1.000838,-0.512964 -1.265807,-0.663241 -0.360184,-0.204287 -0.603702,-0.265284 -0.965163,-0.241618 l -0.483426,0.03176 -0.05363,3.431764 c -0.05773,3.69439 -0.06872,3.766067 -0.660076,4.303972 -0.591416,0.537952 -0.796728,0.575568 -3.141711,0.575568 h -2.203811 v -0.410802 c 0,-0.23886 0.118288,-0.631575 0.282666,-0.938376 0.155467,-0.29016 0.420893,-0.787737 0.589835,-1.10571 0.923075,-1.737366 -0.40545,-3.344653 -2.91011,-3.520729 -1.918116,-0.134822 -3.648805,0.860494 -3.828733,2.20195 -0.07038,0.524762 0.07705,0.986483 0.575275,1.801678 0.447292,0.73185 0.689115,1.429977 0.605749,1.748768 -0.05801,0.221864 -0.0865,0.22319 -4.684105,0.218948 -4.005054,-0.0038 -4.668906,-0.02712 -4.947464,-0.173903 z"
       id="path1-7" />
  </g>
</svg>
