<?xml version="1.0" encoding="UTF-8" standalone="no"?>
<svg
   width="64"
   height="64"
   version="1.1"
   id="svg73"
   sodipodi:docname="preferences-desktop-touchscreen.svg"
   inkscape:version="1.4.2 (ebf0e940d0, 2025-05-08)"
   xmlns:inkscape="http://www.inkscape.org/namespaces/inkscape"
   xmlns:sodipodi="http://sodipodi.sourceforge.net/DTD/sodipodi-0.dtd"
   xmlns="http://www.w3.org/2000/svg"
   xmlns:svg="http://www.w3.org/2000/svg"
   xmlns:rdf="http://www.w3.org/1999/02/22-rdf-syntax-ns#"
   xmlns:cc="http://creativecommons.org/ns#"
   xmlns:dc="http://purl.org/dc/elements/1.1/">
  <metadata
     id="metadata77">
    <rdf:RDF>
      <cc:Work
         rdf:about="">
        <dc:format>image/svg+xml</dc:format>
        <dc:type
           rdf:resource="http://purl.org/dc/dcmitype/StillImage" />
      </cc:Work>
    </rdf:RDF>
  </metadata>
  <sodipodi:namedview
     pagecolor="#f5f7fa"
     bordercolor="#666666"
     borderopacity="1"
     objecttolerance="10"
     gridtolerance="10"
     guidetolerance="10"
     inkscape:pageopacity="0"
     inkscape:pageshadow="2"
     inkscape:window-width="1377"
     inkscape:window-height="689"
     id="namedview75"
     showgrid="false"
     inkscape:zoom="6.2890624"
     inkscape:cx="47.622361"
     inkscape:cy="35.617392"
     inkscape:window-x="16"
     inkscape:window-y="162"
     inkscape:window-maximized="0"
     inkscape:current-layer="g877"
     inkscape:document-rotation="0"
     inkscape:pagecheckerboard="0"
     inkscape:showpageshadow="2"
     inkscape:deskcolor="#d1d1d1" />
  <defs
     id="defs29" />
  <circle
     cx="32.516094"
     cy="31.877844"
     r="0"
     fill="url(#b)"
     stroke-width="1.5715"
     id="circle41"
     style="fill:url(#b)" />
  <g
     aria-label="GZ"
     transform="matrix(1.2212657,0,0,0.81882264,0.4960938,-0.1661539)"
     id="text93"
     style="font-weight:bold;font-size:11.5263px;line-height:1.25;font-family:sans-serif;-inkscape-font-specification:'sans-serif Bold';fill:#f2f2f2;stroke-width:0.288159" />
  <g
     id="g877"
     transform="matrix(1.1,0,0,1.1,-3.1845928,-3.2065454)">
    <circle
       style="opacity:1;fill:#414141;stroke:#dfdfdf;stroke-width:2.27272727;stroke-dasharray:none;fill-opacity:1;stroke-opacity:1"
       id="path1"
       cx="31.985994"
       cy="32.005951"
       r="25.454546" />
    <path
       id="path11"
       style="fill:#dfdfdf;fill-opacity:1;stroke-width:0.0428495;stroke-opacity:0.6"
       d="m 31.758852,17.655911 c -1.444299,0.02292 -2.898874,0.263988 -4.314812,0.732174 -6.688822,2.211716 -10.774706,8.997899 -9.616553,15.975435 0.622593,3.750935 2.641184,7.017617 5.729011,9.271523 2.056811,1.501336 4.662785,2.472666 7.189345,2.679959 0.246058,0.02015 0.757834,0.03884 1.137378,0.04207 7.065232,0.06103 13.115822,-5.027931 14.258332,-11.991602 0.264658,-1.613028 0.264658,-3.1026 0,-4.711991 -0.488655,-2.971506 -1.865265,-5.657837 -3.999876,-7.799109 -2.62899,-2.637197 -6.143169,-4.096425 -9.764991,-4.194454 -0.205784,-0.0056 -0.411506,-0.0073 -0.617834,-0.004 z m -0.158474,2.026016 c 2.370223,-0.07214 4.619909,0.490276 6.611633,1.654913 1.014165,0.593021 1.769352,1.189021 2.639837,2.082183 1.810369,1.857515 2.941686,4.155 3.351958,6.80019 0.08079,0.520961 0.09627,0.785726 0.09627,1.789314 0,1.350765 -0.0649,1.908291 -0.355036,3.055071 -0.409705,1.619333 -1.098211,3.049385 -2.13233,4.435164 -0.512294,0.686505 -1.672168,1.841729 -2.381071,2.371038 -1.663063,1.241746 -3.576254,2.040804 -5.628716,2.350981 -0.683399,0.103298 -2.295663,0.149299 -2.970821,0.08426 -2.297273,-0.221317 -4.448509,-1.060214 -6.336817,-2.469337 -0.686501,-0.512292 -1.841728,-1.672167 -2.37104,-2.381074 -1.24813,-1.671609 -2.031122,-3.552231 -2.356999,-5.656789 -0.08041,-0.519288 -0.09571,-0.788944 -0.09629,-1.789313 -5.77e-4,-1.002701 0.01455,-1.266812 0.09428,-1.777277 0.364612,-2.334556 1.24952,-4.33238 2.714058,-6.118166 0.17272,-0.210606 0.584602,-0.647141 0.914717,-0.968878 2.224357,-2.167899 5.067601,-3.366753 8.206362,-3.46228 z m -0.599777,3.113243 v 5.614671 5.612666 h 4.070083 4.070085 V 33.529041 33.037582 H 35.564151 31.985525 V 27.916375 22.79517 h -0.493466 z" />
  </g>
</svg>
