<?xml version="1.0" encoding="UTF-8" standalone="no"?>
<svg
   width="64"
   height="64"
   version="1.1"
   id="svg73"
   sodipodi:docname="face-smile.svg"
   inkscape:version="1.4.2 (ebf0e940d0, 2025-05-08)"
   xmlns:inkscape="http://www.inkscape.org/namespaces/inkscape"
   xmlns:sodipodi="http://sodipodi.sourceforge.net/DTD/sodipodi-0.dtd"
   xmlns="http://www.w3.org/2000/svg"
   xmlns:svg="http://www.w3.org/2000/svg"
   xmlns:rdf="http://www.w3.org/1999/02/22-rdf-syntax-ns#"
   xmlns:cc="http://creativecommons.org/ns#"
   xmlns:dc="http://purl.org/dc/elements/1.1/">
  <metadata
     id="metadata77">
    <rdf:RDF>
      <cc:Work
         rdf:about="">
        <dc:format>image/svg+xml</dc:format>
        <dc:type
           rdf:resource="http://purl.org/dc/dcmitype/StillImage" />
      </cc:Work>
    </rdf:RDF>
  </metadata>
  <sodipodi:namedview
     pagecolor="#f5f7fa"
     bordercolor="#666666"
     borderopacity="1"
     objecttolerance="10"
     gridtolerance="10"
     guidetolerance="10"
     inkscape:pageopacity="0"
     inkscape:pageshadow="2"
     inkscape:window-width="1377"
     inkscape:window-height="886"
     id="namedview75"
     showgrid="false"
     inkscape:zoom="6.2890624"
     inkscape:cx="47.622361"
     inkscape:cy="45.396274"
     inkscape:window-x="89"
     inkscape:window-y="84"
     inkscape:window-maximized="0"
     inkscape:current-layer="g877"
     inkscape:document-rotation="0"
     inkscape:pagecheckerboard="0"
     inkscape:showpageshadow="2"
     inkscape:deskcolor="#d1d1d1" />
  <defs
     id="defs29" />
  <circle
     cx="32.516094"
     cy="31.877844"
     r="0"
     fill="url(#b)"
     stroke-width="1.5715"
     id="circle41"
     style="fill:url(#b)" />
  <g
     aria-label="GZ"
     transform="matrix(1.2212657,0,0,0.81882264,0.4960938,-0.1661539)"
     id="text93"
     style="font-weight:bold;font-size:11.5263px;line-height:1.25;font-family:sans-serif;-inkscape-font-specification:'sans-serif Bold';fill:#f2f2f2;stroke-width:0.288159" />
  <g
     id="g877"
     transform="matrix(1.1,0,0,1.1,-3.1845928,-3.2065454)">
    <circle
       style="opacity:1;fill:#414141;stroke:#dfdfdf;stroke-width:2.27272727;stroke-dasharray:none;fill-opacity:1;stroke-opacity:1"
       id="path1"
       cx="31.985994"
       cy="32.005951"
       r="25.454546" />
    <path
       id="path15571"
       style="fill:#dfdfdf;fill-opacity:1;stroke:none;stroke-width:0.877244;stroke-dasharray:none;stroke-opacity:1"
       d="m 41.231897,17.766285 c -1.874474,0.0333 -3.682299,1.198184 -4.571257,3.048074 -1.04099,2.166261 -0.873569,4.436616 0.375225,5.104116 0.353932,0.189182 0.531973,0.226334 0.884098,0.179904 1.726545,-0.227656 4.179155,-2.472469 5.304575,-4.855677 0.334048,-0.707324 0.364908,-0.847453 0.366674,-1.643114 l 0.0033,-0.870393 L 43.1919,18.353971 C 42.904379,18.085582 42.640694,17.946113 42.273562,17.867372 41.927223,17.793086 41.578956,17.76012 41.231828,17.76629 Z m -8.868377,1.33471 c -1.327231,0.03131 -2.126645,1.0093 -2.211955,2.705404 -0.0233,0.463744 0.0082,1.086864 0.07024,1.386111 0.157592,0.759111 0.612166,1.674172 0.988614,1.990931 0.645678,0.543304 1.277984,0.210623 1.918969,-1.009173 0.740853,-1.409848 0.982611,-3.35547 0.527715,-4.245719 -0.317652,-0.621666 -0.663279,-0.842425 -1.293588,-0.827554 z m -6.005346,1.293592 c -0.178579,-0.0036 -0.370815,0.02653 -0.57569,0.08738 -1.119449,0.332437 -1.704939,1.337751 -1.495769,2.568333 0.199418,1.173217 1.126845,2.589996 1.92925,2.948701 0.173633,0.07762 0.448928,0.119261 0.611674,0.09251 1.141121,-0.187477 1.622921,-3.138217 0.783005,-4.795712 -0.29892,-0.589881 -0.716734,-0.89063 -1.25247,-0.901227 z m -4.269705,4.566117 c -0.563604,-0.0021 -1.166261,0.286422 -1.50605,0.786435 -0.194943,0.286884 -0.226536,0.437391 -0.193605,0.908082 0.03199,0.457535 0.111453,0.669615 0.4232,1.122255 0.426077,0.618645 1.190721,1.246629 1.7819,1.463215 0.212427,0.07782 0.466069,0.145201 0.563697,0.149064 0.324204,0.0127 0.736814,-0.278692 0.848114,-0.597964 0.384739,-1.103664 -0.26396,-3.067809 -1.201069,-3.63919 -0.211659,-0.129053 -0.460003,-0.190941 -0.716187,-0.191897 z m 11.666304,2.580327 c -1.917935,0.03003 -4.069899,0.501677 -5.90083,1.406674 -3.328463,1.645197 -5.092018,4.218125 -4.893371,7.137869 0.08408,1.235888 0.385052,2.270439 1.050293,3.616918 1.639677,3.318798 4.690926,5.841807 7.804378,6.45253 0.681004,0.133551 1.863997,0.118365 2.424413,-0.03083 2.536286,-0.675294 4.882547,-3.162831 5.460495,-5.789455 0.105883,-0.481336 0.0998,-0.596642 -0.04796,-0.908087 -0.484879,-1.021834 -3.000051,-1.147214 -4.723746,-0.236469 -0.760215,0.401677 -0.896217,0.625929 -0.909796,1.495774 -0.01879,1.204769 -0.461645,1.751575 -1.411814,1.744199 -0.969148,-0.0077 -2.012277,-0.591536 -2.367888,-1.326127 -0.425593,-0.879158 -0.179678,-1.680869 0.788148,-2.576902 0.322711,-0.298775 1.689983,-1.273039 3.037797,-2.165697 2.986015,-1.977634 4.041805,-2.911086 4.622661,-4.086369 0.335325,-0.678498 0.369945,-0.821457 0.368366,-1.542029 -0.002,-0.914942 -0.180176,-1.347507 -0.803565,-1.948097 -0.895005,-0.862278 -2.579644,-1.273957 -4.497583,-1.243904 z" />
  </g>
</svg>
