<?xml version="1.0" encoding="UTF-8" standalone="no"?>
<svg
   width="64"
   height="64"
   version="1.1"
   id="svg73"
   sodipodi:docname="preferences-desktop-touchscreen.svg"
   inkscape:version="1.4.2 (ebf0e940d0, 2025-05-08)"
   xmlns:inkscape="http://www.inkscape.org/namespaces/inkscape"
   xmlns:sodipodi="http://sodipodi.sourceforge.net/DTD/sodipodi-0.dtd"
   xmlns="http://www.w3.org/2000/svg"
   xmlns:svg="http://www.w3.org/2000/svg"
   xmlns:rdf="http://www.w3.org/1999/02/22-rdf-syntax-ns#"
   xmlns:cc="http://creativecommons.org/ns#"
   xmlns:dc="http://purl.org/dc/elements/1.1/">
  <metadata
     id="metadata77">
    <rdf:RDF>
      <cc:Work
         rdf:about="">
        <dc:format>image/svg+xml</dc:format>
        <dc:type
           rdf:resource="http://purl.org/dc/dcmitype/StillImage" />
      </cc:Work>
    </rdf:RDF>
  </metadata>
  <sodipodi:namedview
     pagecolor="#f5f7fa"
     bordercolor="#666666"
     borderopacity="1"
     objecttolerance="10"
     gridtolerance="10"
     guidetolerance="10"
     inkscape:pageopacity="0"
     inkscape:pageshadow="2"
     inkscape:window-width="1377"
     inkscape:window-height="689"
     id="namedview75"
     showgrid="false"
     inkscape:zoom="6.2890624"
     inkscape:cx="47.622361"
     inkscape:cy="35.617392"
     inkscape:window-x="16"
     inkscape:window-y="162"
     inkscape:window-maximized="0"
     inkscape:current-layer="g877"
     inkscape:document-rotation="0"
     inkscape:pagecheckerboard="0"
     inkscape:showpageshadow="2"
     inkscape:deskcolor="#d1d1d1" />
  <defs
     id="defs29" />
  <circle
     cx="32.516094"
     cy="31.877844"
     r="0"
     fill="url(#b)"
     stroke-width="1.5715"
     id="circle41"
     style="fill:url(#b)" />
  <g
     aria-label="GZ"
     transform="matrix(1.2212657,0,0,0.81882264,0.4960938,-0.1661539)"
     id="text93"
     style="font-weight:bold;font-size:11.5263px;line-height:1.25;font-family:sans-serif;-inkscape-font-specification:'sans-serif Bold';fill:#f2f2f2;stroke-width:0.288159" />
  <g
     id="g877"
     transform="matrix(1.1,0,0,1.1,-3.1845928,-3.2065454)">
    <circle
       style="opacity:1;fill:#414141;stroke:#dfdfdf;stroke-width:2.27272727;stroke-dasharray:none;fill-opacity:1;stroke-opacity:1"
       id="path1"
       cx="31.985994"
       cy="32.005951"
       r="25.454546" />
    <path
       d="m 31.985994,18.044025 c -7.749077,0 -14.030946,6.250974 -14.030946,13.961927 0,7.710948 6.281869,13.961924 14.030946,13.961924 7.749067,0 14.030945,-6.250976 14.030945,-13.961924 0,-7.710953 -6.281878,-13.961927 -14.030945,-13.961927 z m -1.002211,3.864462 c 0.134094,-0.01394 0.303191,0.0079 0.438498,0 0.01591,0.06386 -0.09766,0.290949 -0.250537,0.623303 -0.973868,2.116947 -1.029112,4.596187 -0.125303,5.921353 0.163562,0.240261 0.313187,0.468917 0.313187,0.498643 0,0.0297 -0.176366,0.06218 -0.375843,0.06218 -0.468188,0 -0.911252,-0.283946 -1.816506,-0.997261 -0.40213,-0.316877 -0.924945,-0.58303 -1.127495,-0.623315 -0.318037,-0.06324 -0.40281,-0.03551 -0.814312,0.373976 -0.382812,0.380884 -0.50107,0.586259 -0.50107,0.934952 0,1.322275 1.577638,2.373406 4.50995,2.991841 3.982179,0.839851 4.963848,1.593894 5.073685,3.677471 0.137898,2.612832 -1.259973,4.58304 -4.322035,6.10834 -0.365462,0.182094 -0.598346,0.252806 -0.751681,0.311639 -0.06817,-0.006 -0.120078,0.006 -0.18781,0 -0.02574,-0.08077 -0.0629,-0.268171 -0.0629,-0.623303 0,-1.387773 -0.549709,-2.816218 -1.378014,-3.615139 -0.222348,-0.214452 -0.844921,-0.668873 -1.378051,-0.997275 -0.533118,-0.328383 -1.070267,-0.709859 -1.190132,-0.872616 -0.198641,-0.270087 -0.215156,-0.436013 -0.06289,-0.934951 0.278109,-0.911255 0.609179,-1.418791 1.252745,-1.99456 0.337427,-0.301856 0.676907,-0.554988 0.751683,-0.560974 0.07499,-0.0058 -0.431222,-0.157175 -1.190123,-0.311648 -0.75891,-0.154738 -1.868939,-0.4789 -2.442943,-0.685595 -1.049476,-0.377867 -2.4664,-1.171126 -3.006655,-1.745239 -0.02274,-0.02435 -0.04243,-0.04072 -0.06289,-0.06219 0.773971,-3.067755 2.945963,-5.582098 5.825333,-6.793972 0.602435,-0.253572 1.223538,-0.427533 1.879145,-0.560976 0.32652,-0.0664 0.665012,-0.09055 1.002206,-0.124659 z m 9.395722,4.674751 c 0.235387,0.144801 1.124294,2.058488 1.378038,2.99184 0.327583,1.205095 0.303874,3.29053 0,4.487765 -0.115704,0.455634 -0.263862,0.881894 -0.313182,0.934951 -0.04924,0.05308 -0.228095,-0.252374 -0.438492,-0.623304 -0.210366,-0.370865 -0.882248,-1.158936 -1.440661,-1.745238 -1.611832,-1.692443 -1.865294,-2.576134 -1.190121,-3.926792 0.340459,-0.681124 1.822217,-2.231117 2.004418,-2.119222 z"
       fill="#333333"
       id="path2-0"
       style="fill:#dfdfdf;fill-opacity:1;stroke:none;stroke-width:0.848801;stroke-dasharray:none;stroke-opacity:0.3" />
  </g>
</svg>
