<?xml version="1.0" encoding="UTF-8" standalone="no"?>
<svg
   width="64"
   height="64"
   version="1.1"
   id="svg73"
   sodipodi:docname="preferences-desktop-touchscreen.svg"
   inkscape:version="1.4.2 (ebf0e940d0, 2025-05-08)"
   xmlns:inkscape="http://www.inkscape.org/namespaces/inkscape"
   xmlns:sodipodi="http://sodipodi.sourceforge.net/DTD/sodipodi-0.dtd"
   xmlns="http://www.w3.org/2000/svg"
   xmlns:svg="http://www.w3.org/2000/svg"
   xmlns:rdf="http://www.w3.org/1999/02/22-rdf-syntax-ns#"
   xmlns:cc="http://creativecommons.org/ns#"
   xmlns:dc="http://purl.org/dc/elements/1.1/">
  <metadata
     id="metadata77">
    <rdf:RDF>
      <cc:Work
         rdf:about="">
        <dc:format>image/svg+xml</dc:format>
        <dc:type
           rdf:resource="http://purl.org/dc/dcmitype/StillImage" />
      </cc:Work>
    </rdf:RDF>
  </metadata>
  <sodipodi:namedview
     pagecolor="#f5f7fa"
     bordercolor="#666666"
     borderopacity="1"
     objecttolerance="10"
     gridtolerance="10"
     guidetolerance="10"
     inkscape:pageopacity="0"
     inkscape:pageshadow="2"
     inkscape:window-width="1377"
     inkscape:window-height="689"
     id="namedview75"
     showgrid="false"
     inkscape:zoom="6.2890624"
     inkscape:cx="47.622361"
     inkscape:cy="35.617392"
     inkscape:window-x="16"
     inkscape:window-y="162"
     inkscape:window-maximized="0"
     inkscape:current-layer="g877"
     inkscape:document-rotation="0"
     inkscape:pagecheckerboard="0"
     inkscape:showpageshadow="2"
     inkscape:deskcolor="#d1d1d1" />
  <defs
     id="defs29" />
  <circle
     cx="32.516094"
     cy="31.877844"
     r="0"
     fill="url(#b)"
     stroke-width="1.5715"
     id="circle41"
     style="fill:url(#b)" />
  <g
     aria-label="GZ"
     transform="matrix(1.2212657,0,0,0.81882264,0.4960938,-0.1661539)"
     id="text93"
     style="font-weight:bold;font-size:11.5263px;line-height:1.25;font-family:sans-serif;-inkscape-font-specification:'sans-serif Bold';fill:#f2f2f2;stroke-width:0.288159" />
  <g
     id="g877"
     transform="matrix(1.1,0,0,1.1,-3.1845928,-3.2065454)">
    <circle
       style="opacity:1;fill:#414141;stroke:#dfdfdf;stroke-width:2.27272727;stroke-dasharray:none;fill-opacity:1;stroke-opacity:1"
       id="path1"
       cx="31.985994"
       cy="32.005951"
       r="25.454546" />
    <path
       style="fill:#dfdfdf;fill-opacity:1;stroke-width:2.50644"
       d="m 39.26817,18.315719 a 5.0129092,5.0129088 0 0 0 -4.104824,2.501567 5.0129092,5.0129088 0 0 0 -0.484654,3.845403 l -6.635711,3.83312 a 5.0129092,5.0129088 0 0 0 -3.576709,-1.502621 5.0129092,5.0129088 0 0 0 -5.012912,5.012911 5.0129092,5.0129088 0 0 0 5.012912,5.0129 5.0129092,5.0129088 0 0 0 3.573703,-1.502863 l 6.635714,3.833119 a 5.0129092,5.0129088 0 0 0 0.486256,3.844903 5.0129092,5.0129088 0 0 0 6.848893,1.835978 5.0129092,5.0129088 0 0 0 1.835981,-6.848887 5.0129092,5.0129088 0 0 0 -6.848897,-1.833473 5.0129092,5.0129088 0 0 0 -1.070257,0.829634 L 29.29057,33.346301 a 5.0129092,5.0129088 0 0 0 0.18798,-1.340956 5.0129092,5.0129088 0 0 0 -0.182972,-1.340951 l 6.635717,-3.830615 a 5.0129092,5.0129088 0 0 0 1.066499,0.829635 5.0129092,5.0129088 0 0 0 6.848885,-1.833469 5.0129092,5.0129088 0 0 0 -1.835971,-6.848888 5.0129092,5.0129088 0 0 0 -2.743312,-0.665462 z"
       id="path4" />
  </g>
</svg>
