<?xml version="1.0" encoding="UTF-8" standalone="no"?>
<svg
   width="64"
   height="64"
   version="1.1"
   id="svg73"
   sodipodi:docname="preferences-desktop-touchscreen.svg"
   inkscape:version="1.4.2 (ebf0e940d0, 2025-05-08)"
   xmlns:inkscape="http://www.inkscape.org/namespaces/inkscape"
   xmlns:sodipodi="http://sodipodi.sourceforge.net/DTD/sodipodi-0.dtd"
   xmlns="http://www.w3.org/2000/svg"
   xmlns:svg="http://www.w3.org/2000/svg"
   xmlns:rdf="http://www.w3.org/1999/02/22-rdf-syntax-ns#"
   xmlns:cc="http://creativecommons.org/ns#"
   xmlns:dc="http://purl.org/dc/elements/1.1/">
  <metadata
     id="metadata77">
    <rdf:RDF>
      <cc:Work
         rdf:about="">
        <dc:format>image/svg+xml</dc:format>
        <dc:type
           rdf:resource="http://purl.org/dc/dcmitype/StillImage" />
      </cc:Work>
    </rdf:RDF>
  </metadata>
  <sodipodi:namedview
     pagecolor="#f5f7fa"
     bordercolor="#666666"
     borderopacity="1"
     objecttolerance="10"
     gridtolerance="10"
     guidetolerance="10"
     inkscape:pageopacity="0"
     inkscape:pageshadow="2"
     inkscape:window-width="1377"
     inkscape:window-height="689"
     id="namedview75"
     showgrid="false"
     inkscape:zoom="6.2890624"
     inkscape:cx="47.622361"
     inkscape:cy="35.617392"
     inkscape:window-x="16"
     inkscape:window-y="162"
     inkscape:window-maximized="0"
     inkscape:current-layer="g877"
     inkscape:document-rotation="0"
     inkscape:pagecheckerboard="0"
     inkscape:showpageshadow="2"
     inkscape:deskcolor="#d1d1d1" />
  <defs
     id="defs29" />
  <circle
     cx="32.516094"
     cy="31.877844"
     r="0"
     fill="url(#b)"
     stroke-width="1.5715"
     id="circle41"
     style="fill:url(#b)" />
  <g
     aria-label="GZ"
     transform="matrix(1.2212657,0,0,0.81882264,0.4960938,-0.1661539)"
     id="text93"
     style="font-weight:bold;font-size:11.5263px;line-height:1.25;font-family:sans-serif;-inkscape-font-specification:'sans-serif Bold';fill:#f2f2f2;stroke-width:0.288159" />
  <g
     id="g877"
     transform="matrix(1.1,0,0,1.1,-3.1845928,-3.2065454)">
    <circle
       style="opacity:1;fill:#414141;stroke:#dfdfdf;stroke-width:2.27272727;stroke-dasharray:none;fill-opacity:1;stroke-opacity:1"
       id="path1"
       cx="31.985994"
       cy="32.005951"
       r="25.454546" />
    <path
       style="fill:#dfdfdf;fill-opacity:1;stroke-width:0.151665"
       d="m 20.755833,43.644818 c -0.118222,-0.220884 -0.0407,-0.877543 0.307159,-2.601678 l 0.465284,-2.306235 -0.673881,-0.697013 c -2.000863,-2.069536 -2.902597,-3.921172 -3.085612,-6.336038 -0.378404,-4.993165 3.659249,-9.563527 9.917312,-11.225751 1.322903,-0.35138 1.777374,-0.395102 4.212829,-0.405297 2.344448,-0.0099 2.919274,0.03623 4.070645,0.326118 4.812914,1.211733 8.468614,4.129744 9.768875,7.797591 1.709228,4.821508 -1.178556,10.156894 -6.811979,12.585592 -2.339737,1.008712 -3.367576,1.218231 -6.374144,1.299298 -2.341119,0.06316 -2.887483,0.03036 -4.285424,-0.255775 l -1.602212,-0.328126 -2.577909,1.221394 c -1.417849,0.671767 -2.711766,1.221393 -2.875369,1.221393 -0.163604,0 -0.368612,-0.132938 -0.455574,-0.295445 z m 11.408502,-6.522456 c 0.822085,-0.92 0.443843,-2.35269 -0.722779,-2.737709 -1.863868,-0.615132 -3.070075,1.99772 -1.404299,3.041958 0.703338,0.440911 1.572282,0.316617 2.127078,-0.304265 z m 4.664285,-5.543326 2.347738,-2.351409 -2.385405,-2.385405 -2.385405,-2.385405 -0.912071,0.90255 c -0.501636,0.496403 -0.912066,0.971585 -0.912066,1.055961 0,0.08439 0.595754,0.751939 1.323899,1.483472 l 1.323898,1.330061 -1.323898,1.330061 c -0.728145,0.731532 -1.323899,1.394978 -1.323899,1.474326 0,0.150468 1.672939,1.897196 1.817054,1.897196 0.04535,0 1.138898,-1.058134 2.430155,-2.351408 z m -8.741751,0.06544 c 0.322404,-0.253608 0.39961,-0.441932 0.39961,-0.974809 0,-0.532876 -0.07721,-0.721198 -0.39961,-0.974807 -1.26479,-0.994882 -2.829151,0.70808 -1.727584,1.880645 0.448346,0.477239 1.171829,0.506123 1.727584,0.06898 z m 1.885921,-5.630891 c 0.100118,-0.100097 0.181986,-0.39357 0.181986,-0.652158 0,-0.595348 -0.238801,-0.83415 -0.834151,-0.83415 -0.59535,0 -0.834154,0.238804 -0.834154,0.83415 0,0.595352 0.238805,0.834154 0.834154,0.834154 0.258602,0 0.552059,-0.0819 0.652158,-0.181996 z"
       id="path3-6" />
  </g>
</svg>
