<?xml version="1.0" encoding="UTF-8" standalone="no"?>
<svg
   width="64"
   height="64"
   version="1.1"
   id="svg73"
   sodipodi:docname="preferences-desktop-touchscreen.svg"
   inkscape:version="1.4.2 (ebf0e940d0, 2025-05-08)"
   xmlns:inkscape="http://www.inkscape.org/namespaces/inkscape"
   xmlns:sodipodi="http://sodipodi.sourceforge.net/DTD/sodipodi-0.dtd"
   xmlns="http://www.w3.org/2000/svg"
   xmlns:svg="http://www.w3.org/2000/svg"
   xmlns:rdf="http://www.w3.org/1999/02/22-rdf-syntax-ns#"
   xmlns:cc="http://creativecommons.org/ns#"
   xmlns:dc="http://purl.org/dc/elements/1.1/">
  <metadata
     id="metadata77">
    <rdf:RDF>
      <cc:Work
         rdf:about="">
        <dc:format>image/svg+xml</dc:format>
        <dc:type
           rdf:resource="http://purl.org/dc/dcmitype/StillImage" />
      </cc:Work>
    </rdf:RDF>
  </metadata>
  <sodipodi:namedview
     pagecolor="#f5f7fa"
     bordercolor="#666666"
     borderopacity="1"
     objecttolerance="10"
     gridtolerance="10"
     guidetolerance="10"
     inkscape:pageopacity="0"
     inkscape:pageshadow="2"
     inkscape:window-width="1377"
     inkscape:window-height="689"
     id="namedview75"
     showgrid="false"
     inkscape:zoom="6.2890624"
     inkscape:cx="47.622361"
     inkscape:cy="35.617392"
     inkscape:window-x="16"
     inkscape:window-y="162"
     inkscape:window-maximized="0"
     inkscape:current-layer="g877"
     inkscape:document-rotation="0"
     inkscape:pagecheckerboard="0"
     inkscape:showpageshadow="2"
     inkscape:deskcolor="#d1d1d1" />
  <defs
     id="defs29" />
  <circle
     cx="32.516094"
     cy="31.877844"
     r="0"
     fill="url(#b)"
     stroke-width="1.5715"
     id="circle41"
     style="fill:url(#b)" />
  <g
     aria-label="GZ"
     transform="matrix(1.2212657,0,0,0.81882264,0.4960938,-0.1661539)"
     id="text93"
     style="font-weight:bold;font-size:11.5263px;line-height:1.25;font-family:sans-serif;-inkscape-font-specification:'sans-serif Bold';fill:#f2f2f2;stroke-width:0.288159" />
  <g
     id="g877"
     transform="matrix(1.1,0,0,1.1,-3.1845928,-3.2065454)">
    <circle
       style="opacity:1;fill:#414141;stroke:#dfdfdf;stroke-width:2.27272727;stroke-dasharray:none;fill-opacity:1;stroke-opacity:1"
       id="path1"
       cx="31.985994"
       cy="32.005951"
       r="25.454546" />
    <path
       style="fill:#dfdfdf;fill-opacity:1;stroke:none;stroke-width:0.848801;stroke-dasharray:none;stroke-dashoffset:2.2;stroke-opacity:0.3"
       d="m 31.52383,46.363986 c -1.321432,-0.49323 -3.214084,-1.673998 -4.481421,-2.795812 -4.283057,-3.791267 -6.692904,-11.008068 -6.49058,-19.437431 0.05498,-2.291025 0.140528,-2.746449 0.5578,-2.969766 0.546393,-0.292421 10.571846,-3.607914 10.899807,-3.604648 0.2049,0.0021 2.651786,0.778716 5.627186,1.786152 6.20053,2.099426 5.643529,1.756079 5.756076,3.548157 0.106902,1.702224 -0.01537,5.311272 -0.235598,6.946236 -0.473555,3.517855 -1.223529,6.115536 -2.519171,8.725648 -1.667406,3.359048 -3.999203,5.749267 -7.090317,7.267966 -1.362018,0.669175 -1.536824,0.715258 -2.023789,0.533498 z m 1.578653,-11.285064 c 1.749007,-2.398397 3.254366,-4.516636 3.345234,-4.707199 0.243681,-0.510998 0.216151,-1.077746 -0.06605,-1.359951 -0.347565,-0.347569 -0.848273,-0.441168 -2.363179,-0.441766 l -1.375794,-5.45e-4 0.730112,-1.974239 c 0.868142,-2.347471 0.931651,-2.682954 0.575351,-3.039252 -0.245322,-0.245325 -0.281985,-0.251147 -1.581376,-0.251147 -1.491681,0 -1.833438,0.09576 -2.238908,0.627361 -0.31456,0.41241 -2.581802,7.07127 -2.581802,7.58272 0,0.294792 0.06639,0.450718 0.284982,0.669309 l 0.284982,0.284981 h 1.261616 1.261616 l -0.574325,3.383772 c -0.315875,1.861074 -0.551323,3.443711 -0.523211,3.516962 0.02812,0.07326 0.125275,0.11894 0.215929,0.101441 0.09065,-0.01723 1.595822,-1.994065 3.344829,-4.392458 z"
       id="path83" />
  </g>
</svg>
