<?xml version="1.0" encoding="UTF-8" standalone="no"?>
<svg
   width="64"
   height="64"
   version="1.1"
   id="svg73"
   sodipodi:docname="preferences-desktop-emoticons.svg"
   inkscape:version="1.4.2 (ebf0e940d0, 2025-05-08)"
   xmlns:inkscape="http://www.inkscape.org/namespaces/inkscape"
   xmlns:sodipodi="http://sodipodi.sourceforge.net/DTD/sodipodi-0.dtd"
   xmlns="http://www.w3.org/2000/svg"
   xmlns:svg="http://www.w3.org/2000/svg"
   xmlns:rdf="http://www.w3.org/1999/02/22-rdf-syntax-ns#"
   xmlns:cc="http://creativecommons.org/ns#"
   xmlns:dc="http://purl.org/dc/elements/1.1/">
  <metadata
     id="metadata77">
    <rdf:RDF>
      <cc:Work
         rdf:about="">
        <dc:format>image/svg+xml</dc:format>
        <dc:type
           rdf:resource="http://purl.org/dc/dcmitype/StillImage" />
      </cc:Work>
    </rdf:RDF>
  </metadata>
  <sodipodi:namedview
     pagecolor="#f5f7fa"
     bordercolor="#666666"
     borderopacity="1"
     objecttolerance="10"
     gridtolerance="10"
     guidetolerance="10"
     inkscape:pageopacity="0"
     inkscape:pageshadow="2"
     inkscape:window-width="1377"
     inkscape:window-height="689"
     id="namedview75"
     showgrid="false"
     inkscape:zoom="6.2890624"
     inkscape:cx="47.622361"
     inkscape:cy="35.776398"
     inkscape:window-x="16"
     inkscape:window-y="162"
     inkscape:window-maximized="0"
     inkscape:current-layer="g877"
     inkscape:document-rotation="0"
     inkscape:pagecheckerboard="0"
     inkscape:showpageshadow="2"
     inkscape:deskcolor="#d1d1d1" />
  <defs
     id="defs29" />
  <circle
     cx="32.516094"
     cy="31.877844"
     r="0"
     fill="url(#b)"
     stroke-width="1.5715"
     id="circle41"
     style="fill:url(#b)" />
  <g
     aria-label="GZ"
     transform="matrix(1.2212657,0,0,0.81882264,0.4960938,-0.1661539)"
     id="text93"
     style="font-weight:bold;font-size:11.5263px;line-height:1.25;font-family:sans-serif;-inkscape-font-specification:'sans-serif Bold';fill:#f2f2f2;stroke-width:0.288159" />
  <g
     id="g877"
     transform="matrix(1.1,0,0,1.1,-3.1845928,-3.2065454)">
    <circle
       style="opacity:1;fill:#414141;stroke:#dfdfdf;stroke-width:2.27272727;stroke-dasharray:none;fill-opacity:1;stroke-opacity:1"
       id="path1"
       cx="31.985994"
       cy="32.005951"
       r="25.454546" />
    <path
       id="path19"
       style="fill:#dfdfdf;fill-opacity:1;stroke:none;stroke-width:0.933687;stroke-dasharray:none;stroke-dashoffset:2.2;stroke-opacity:0.3"
       d="m 28.396244,20.512005 c -0.723888,0.0089 -1.45712,0.171503 -2.157313,0.506962 -3.325546,1.593219 -4.065715,5.868829 -1.458879,8.432308 0.787358,0.774261 1.609466,1.227663 2.622332,1.447934 0.831542,0.18084 1.15942,0.18914 1.951248,0.04559 1.927252,-0.349387 3.617318,-1.865 4.166918,-3.738373 0.259194,-0.883477 0.222157,-2.260521 -0.08388,-3.127468 -0.788837,-2.234604 -2.868759,-3.593459 -5.040421,-3.566955 z m 8.868152,3.452068 c -0.397271,0.006 -0.797434,0.065 -1.192632,0.182357 l -0.554374,0.164124 0.06565,0.939152 c 0.122969,1.732449 -0.523426,3.790554 -1.561001,4.969301 -0.241117,0.273925 -0.439486,0.540718 -0.439486,0.59267 0,0.124077 1.047065,1.128002 1.409639,1.351282 0.155699,0.09589 0.566136,0.273464 0.911798,0.395722 0.970726,0.343338 2.319889,0.267392 3.284298,-0.184181 0.962351,-0.450612 1.811397,-1.265692 2.252139,-2.160963 0.324417,-0.658959 0.34647,-0.776935 0.34647,-1.834538 0,-1.055028 -0.02306,-1.177016 -0.342834,-1.825418 -0.80736,-1.637235 -2.458164,-2.61571 -4.17967,-2.589508 z m -0.714849,10.742806 0.525192,0.346483 c 1.212965,0.803435 2.307255,2.043955 2.97976,3.373654 0.363022,0.717778 0.820616,2.298066 0.820616,2.833867 v 0.415778 h 2.638744 2.638742 l -0.03647,-1.265571 c -0.03645,-1.210459 -0.05713,-1.301638 -0.441311,-2.078905 -1.143065,-2.312521 -4.062332,-3.625306 -8.058473,-3.625306 z m -7.914412,0.02005 c -0.257684,2.49e-4 -0.520543,0.0049 -0.789617,0.01277 -2.251036,0.06611 -3.332705,0.246717 -4.87265,0.813338 -3.348251,1.231993 -5.149936,3.738717 -5.153482,7.170385 v 0.776853 h 10.616977 10.616976 v -1.103283 c 0,-2.065012 -0.584485,-3.478152 -2.026011,-4.905473 -1.923239,-1.904291 -4.526907,-2.768281 -8.392193,-2.764582 z" />
  </g>
</svg>
