<?xml version="1.0" encoding="UTF-8" standalone="no"?>
<svg
   width="64"
   height="64"
   version="1.1"
   id="svg73"
   sodipodi:docname="preferences-desktop-emoticons.svg"
   inkscape:version="1.4.2 (ebf0e940d0, 2025-05-08)"
   xmlns:inkscape="http://www.inkscape.org/namespaces/inkscape"
   xmlns:sodipodi="http://sodipodi.sourceforge.net/DTD/sodipodi-0.dtd"
   xmlns="http://www.w3.org/2000/svg"
   xmlns:svg="http://www.w3.org/2000/svg"
   xmlns:rdf="http://www.w3.org/1999/02/22-rdf-syntax-ns#"
   xmlns:cc="http://creativecommons.org/ns#"
   xmlns:dc="http://purl.org/dc/elements/1.1/">
  <metadata
     id="metadata77">
    <rdf:RDF>
      <cc:Work
         rdf:about="">
        <dc:format>image/svg+xml</dc:format>
        <dc:type
           rdf:resource="http://purl.org/dc/dcmitype/StillImage" />
      </cc:Work>
    </rdf:RDF>
  </metadata>
  <sodipodi:namedview
     pagecolor="#f5f7fa"
     bordercolor="#666666"
     borderopacity="1"
     objecttolerance="10"
     gridtolerance="10"
     guidetolerance="10"
     inkscape:pageopacity="0"
     inkscape:pageshadow="2"
     inkscape:window-width="1377"
     inkscape:window-height="689"
     id="namedview75"
     showgrid="false"
     inkscape:zoom="6.2890624"
     inkscape:cx="47.622361"
     inkscape:cy="35.776398"
     inkscape:window-x="16"
     inkscape:window-y="162"
     inkscape:window-maximized="0"
     inkscape:current-layer="g877"
     inkscape:document-rotation="0"
     inkscape:pagecheckerboard="0"
     inkscape:showpageshadow="2"
     inkscape:deskcolor="#d1d1d1" />
  <defs
     id="defs29" />
  <circle
     cx="32.516094"
     cy="31.877844"
     r="0"
     fill="url(#b)"
     stroke-width="1.5715"
     id="circle41"
     style="fill:url(#b)" />
  <g
     aria-label="GZ"
     transform="matrix(1.2212657,0,0,0.81882264,0.4960938,-0.1661539)"
     id="text93"
     style="font-weight:bold;font-size:11.5263px;line-height:1.25;font-family:sans-serif;-inkscape-font-specification:'sans-serif Bold';fill:#f2f2f2;stroke-width:0.288159" />
  <g
     id="g877"
     transform="matrix(1.1,0,0,1.1,-3.1845928,-3.2065454)">
    <circle
       style="opacity:1;fill:#414141;stroke:#dfdfdf;stroke-width:2.27272727;stroke-dasharray:none;fill-opacity:1;stroke-opacity:1"
       id="path1"
       cx="31.985994"
       cy="32.005951"
       r="25.454546" />
    <path
       id="path1-3"
       style="fill:#dfdfdf;fill-opacity:1;stroke:none;stroke-width:0.34256;stroke-dasharray:none;stroke-dashoffset:2.2;stroke-opacity:0.6"
       d="m 39.720057,20.394379 c -0.46532,-1.94e-4 -0.963409,0.187181 -1.586785,0.55243 -1.483403,0.869156 -3.423422,1.279065 -6.087586,1.279065 -2.663902,0 -4.66864,-0.41863 -6.143212,-1.282772 -1.182415,-0.692909 -1.888329,-0.702093 -2.880664,-0.03301 -2.547659,1.716858 -4.467723,7.221425 -5.030989,14.41449 -0.337773,4.313362 -0.02227,6.587395 1.093688,7.867158 0.53823,0.617011 1.859512,0.512408 3.051215,-0.244701 1.010187,-0.641784 2.213818,-2.057955 3.651821,-4.296941 1.299439,-2.023246 2.871197,-2.689611 6.347122,-2.69531 3.469009,-0.0054 4.832295,0.650939 6.432388,3.110531 2.684584,4.126597 5.165972,5.563231 6.621468,3.833474 0.806337,-0.958258 0.95392,-1.88411 0.915731,-5.739086 -0.06959,-7.002749 -1.900089,-13.373299 -4.537892,-15.804743 -0.702526,-0.647568 -1.247984,-0.959977 -1.846305,-0.960228 z m -15.07069,4.126368 h 1.609023 1.609023 v 1.379164 1.379168 h 1.379168 1.379162 v 1.723957 1.723951 h -1.379162 -1.379168 v 1.494092 1.494095 H 26.4104 c -0.800453,0 -1.521062,-0.07175 -1.605325,-0.155692 -0.08422,-0.08422 -0.155692,-0.753117 -0.155692,-1.490377 v -1.342118 h -1.379181 -1.379168 v -1.723951 -1.723957 h 1.379168 1.379165 v -1.379168 z m 13.116882,0 c 1.451557,0 2.073189,1.608287 1.026959,2.654526 -0.665371,0.665286 -1.272605,0.717581 -1.927861,0.163147 -1.136561,-0.961723 -0.543316,-2.817648 0.900902,-2.817648 z m -2.791691,2.947407 c 0.362454,2.52e-4 0.727398,0.144721 1.015834,0.463398 0.449621,0.496832 0.498189,1.634334 0.09269,2.165142 -0.793549,1.038858 -2.699007,0.370636 -2.699007,-0.945393 0,-0.998811 0.793081,-1.68372 1.590484,-1.683175 z m 5.698321,0.05598 c 0.417806,0.0079 0.823369,0.145992 1.060321,0.407795 0.449605,0.496833 0.498174,1.63433 0.09262,2.165144 -0.84405,1.104959 -2.699006,0.365393 -2.699006,-1.075158 0,-0.436642 0.174961,-0.909919 0.418922,-1.130764 0.278919,-0.252405 0.709338,-0.374653 1.127061,-0.367039 z m -2.806529,2.973352 c 1.286875,0 1.913034,1.365005 1.134471,2.476565 -0.266171,0.379961 -0.590743,0.511615 -1.260528,0.511615 -0.771122,0 -0.950063,-0.100363 -1.260517,-0.700734 -0.612124,-1.183743 0.05597,-2.287483 1.386574,-2.287483 z" />
  </g>
</svg>
