<?xml version="1.0" encoding="UTF-8" standalone="no"?>
<svg
   width="64"
   height="64"
   version="1.1"
   id="svg73"
   sodipodi:docname="face-smile.svg"
   inkscape:version="1.4.2 (ebf0e940d0, 2025-05-08)"
   xmlns:inkscape="http://www.inkscape.org/namespaces/inkscape"
   xmlns:sodipodi="http://sodipodi.sourceforge.net/DTD/sodipodi-0.dtd"
   xmlns="http://www.w3.org/2000/svg"
   xmlns:svg="http://www.w3.org/2000/svg"
   xmlns:rdf="http://www.w3.org/1999/02/22-rdf-syntax-ns#"
   xmlns:cc="http://creativecommons.org/ns#"
   xmlns:dc="http://purl.org/dc/elements/1.1/">
  <metadata
     id="metadata77">
    <rdf:RDF>
      <cc:Work
         rdf:about="">
        <dc:format>image/svg+xml</dc:format>
        <dc:type
           rdf:resource="http://purl.org/dc/dcmitype/StillImage" />
      </cc:Work>
    </rdf:RDF>
  </metadata>
  <sodipodi:namedview
     pagecolor="#f5f7fa"
     bordercolor="#666666"
     borderopacity="1"
     objecttolerance="10"
     gridtolerance="10"
     guidetolerance="10"
     inkscape:pageopacity="0"
     inkscape:pageshadow="2"
     inkscape:window-width="1377"
     inkscape:window-height="886"
     id="namedview75"
     showgrid="false"
     inkscape:zoom="6.2890624"
     inkscape:cx="47.622361"
     inkscape:cy="45.396274"
     inkscape:window-x="89"
     inkscape:window-y="84"
     inkscape:window-maximized="0"
     inkscape:current-layer="g877"
     inkscape:document-rotation="0"
     inkscape:pagecheckerboard="0"
     inkscape:showpageshadow="2"
     inkscape:deskcolor="#d1d1d1" />
  <defs
     id="defs29" />
  <circle
     cx="32.516094"
     cy="31.877844"
     r="0"
     fill="url(#b)"
     stroke-width="1.5715"
     id="circle41"
     style="fill:url(#b)" />
  <g
     aria-label="GZ"
     transform="matrix(1.2212657,0,0,0.81882264,0.4960938,-0.1661539)"
     id="text93"
     style="font-weight:bold;font-size:11.5263px;line-height:1.25;font-family:sans-serif;-inkscape-font-specification:'sans-serif Bold';fill:#f2f2f2;stroke-width:0.288159" />
  <g
     id="g877"
     transform="matrix(1.1,0,0,1.1,-3.1845928,-3.2065454)">
    <circle
       style="opacity:1;fill:#414141;stroke:#dfdfdf;stroke-width:2.27272727;stroke-dasharray:none;fill-opacity:1;stroke-opacity:1"
       id="path1"
       cx="31.985994"
       cy="32.005951"
       r="25.454546" />
    <path
       d="m 37.682025,28.079078 4.844519,-4.84452 -1.769155,-1.769157 -4.844524,4.844517 z m 7.390787,-4.84452 q 0,0.446422 -0.297625,0.744038 l -21.262968,21.26297 q -0.297613,0.297623 -0.744037,0.297623 -0.446425,0 -0.74404,-0.297623 l -3.273769,-3.273771 q -0.297617,-0.297626 -0.297617,-0.744035 0,-0.446423 0.297617,-0.744044 L 40.013349,19.216752 q 0.297622,-0.297618 0.74404,-0.297618 0.446422,0 0.744036,0.297618 l 3.27377,3.273766 q 0.297626,0.297621 0.297626,0.74404 z m -22.337696,-3.141496 1.620353,0.496025 -1.620353,0.49603 -0.496023,1.620347 -0.496026,-1.620347 -1.62035,-0.49603 1.62035,-0.496025 0.496026,-1.62035 z m 5.786968,2.678541 3.240699,0.99205 -3.240699,0.992051 -0.99205,3.240703 -0.992051,-3.240703 -3.240704,-0.992051 3.240704,-0.99205 0.992051,-3.240702 z m 15.376799,7.903341 1.620347,0.496026 -1.620347,0.496027 -0.496026,1.620349 -0.496035,-1.620349 -1.620344,-0.496027 1.620344,-0.496026 0.496035,-1.620349 z m -10.581882,-10.581882 1.620349,0.496025 -1.620349,0.49603 -0.496029,1.620347 -0.496025,-1.620347 -1.62035,-0.49603 1.62035,-0.496025 0.496025,-1.62035 z"
       id="path1-3-3"
       style="overflow:hidden;fill:#dfdfdf;fill-opacity:1;stroke-width:0.0289348" />
  </g>
</svg>
