<?xml version="1.0" encoding="UTF-8" standalone="no"?>
<svg
   width="64"
   height="64"
   version="1.1"
   id="svg73"
   sodipodi:docname="preferences-desktop-emoticons.svg"
   inkscape:version="1.4.2 (ebf0e940d0, 2025-05-08)"
   xmlns:inkscape="http://www.inkscape.org/namespaces/inkscape"
   xmlns:sodipodi="http://sodipodi.sourceforge.net/DTD/sodipodi-0.dtd"
   xmlns="http://www.w3.org/2000/svg"
   xmlns:svg="http://www.w3.org/2000/svg"
   xmlns:rdf="http://www.w3.org/1999/02/22-rdf-syntax-ns#"
   xmlns:cc="http://creativecommons.org/ns#"
   xmlns:dc="http://purl.org/dc/elements/1.1/">
  <metadata
     id="metadata77">
    <rdf:RDF>
      <cc:Work
         rdf:about="">
        <dc:format>image/svg+xml</dc:format>
        <dc:type
           rdf:resource="http://purl.org/dc/dcmitype/StillImage" />
      </cc:Work>
    </rdf:RDF>
  </metadata>
  <sodipodi:namedview
     pagecolor="#f5f7fa"
     bordercolor="#666666"
     borderopacity="1"
     objecttolerance="10"
     gridtolerance="10"
     guidetolerance="10"
     inkscape:pageopacity="0"
     inkscape:pageshadow="2"
     inkscape:window-width="1377"
     inkscape:window-height="689"
     id="namedview75"
     showgrid="false"
     inkscape:zoom="6.2890624"
     inkscape:cx="47.622361"
     inkscape:cy="35.776398"
     inkscape:window-x="16"
     inkscape:window-y="162"
     inkscape:window-maximized="0"
     inkscape:current-layer="g877"
     inkscape:document-rotation="0"
     inkscape:pagecheckerboard="0"
     inkscape:showpageshadow="2"
     inkscape:deskcolor="#d1d1d1" />
  <defs
     id="defs29" />
  <circle
     cx="32.516094"
     cy="31.877844"
     r="0"
     fill="url(#b)"
     stroke-width="1.5715"
     id="circle41"
     style="fill:url(#b)" />
  <g
     aria-label="GZ"
     transform="matrix(1.2212657,0,0,0.81882264,0.4960938,-0.1661539)"
     id="text93"
     style="font-weight:bold;font-size:11.5263px;line-height:1.25;font-family:sans-serif;-inkscape-font-specification:'sans-serif Bold';fill:#f2f2f2;stroke-width:0.288159" />
  <g
     id="g877"
     transform="matrix(1.1,0,0,1.1,-3.1845928,-3.2065454)">
    <circle
       style="opacity:1;fill:#414141;stroke:#dfdfdf;stroke-width:2.27272727;stroke-dasharray:none;fill-opacity:1;stroke-opacity:1"
       id="path1"
       cx="31.985994"
       cy="32.005951"
       r="25.454546" />
    <path
       d="m 19.255664,18.331521 v 0.0069 5.469663 5.469666 5.469666 1.811737 3.657935 0.902429 0.909298 a 3.3973196,3.6510367 0 0 0 3.390912,3.644175 h -0.890997 l 0.05767,0.0075 h 2.544784 5.089568 5.089569 5.08959 5.089557 V 40.210584 H 39.62676 34.537185 31.306527 l 2.801184,-1.735979 4.403697,-2.734976 4.410108,-2.734833 -2.544786,-4.73257 -4.410111,2.734834 -4.403689,2.734834 -2.78837,1.729073 1.608923,-2.996605 2.544783,-4.732569 2.544785,-4.739459 -4.422927,-2.741717 -2.544784,4.739457 -2.544785,4.732568 -1.615327,3.010384 v -3.471939 -5.469664 -5.469667 z m 3.390912,21.871774 c 0.4487,0 0.878177,0.192907 1.198676,0.530436 0.3205,0.33753 0.49357,0.805972 0.49357,1.288186 0,0.482218 -0.179479,0.943761 -0.49357,1.288203 -0.314096,0.344408 -0.749976,0.530432 -1.198676,0.530432 -0.448701,0 -0.878177,-0.192908 -1.19868,-0.530432 -0.320499,-0.337532 -0.493569,-0.805985 -0.493569,-1.288203 0,-0.482214 0.179482,-0.943748 0.493569,-1.288186 0.314091,-0.344407 0.749979,-0.530436 1.19868,-0.530436 z"
       fill="#bebebe"
       id="path2-3"
       style="fill:#dfdfdf;fill-opacity:1;stroke:none;stroke-width:0.863273;stroke-dasharray:none;stroke-opacity:0.3" />
  </g>
</svg>
