<?xml version="1.0" encoding="UTF-8" standalone="no"?>
<svg
   width="64"
   height="64"
   version="1.1"
   id="svg73"
   sodipodi:docname="face-smile.svg"
   inkscape:version="1.4.2 (ebf0e940d0, 2025-05-08)"
   xmlns:inkscape="http://www.inkscape.org/namespaces/inkscape"
   xmlns:sodipodi="http://sodipodi.sourceforge.net/DTD/sodipodi-0.dtd"
   xmlns="http://www.w3.org/2000/svg"
   xmlns:svg="http://www.w3.org/2000/svg"
   xmlns:rdf="http://www.w3.org/1999/02/22-rdf-syntax-ns#"
   xmlns:cc="http://creativecommons.org/ns#"
   xmlns:dc="http://purl.org/dc/elements/1.1/">
  <metadata
     id="metadata77">
    <rdf:RDF>
      <cc:Work
         rdf:about="">
        <dc:format>image/svg+xml</dc:format>
        <dc:type
           rdf:resource="http://purl.org/dc/dcmitype/StillImage" />
      </cc:Work>
    </rdf:RDF>
  </metadata>
  <sodipodi:namedview
     pagecolor="#f5f7fa"
     bordercolor="#666666"
     borderopacity="1"
     objecttolerance="10"
     gridtolerance="10"
     guidetolerance="10"
     inkscape:pageopacity="0"
     inkscape:pageshadow="2"
     inkscape:window-width="1377"
     inkscape:window-height="886"
     id="namedview75"
     showgrid="false"
     inkscape:zoom="6.2890624"
     inkscape:cx="47.622361"
     inkscape:cy="45.396274"
     inkscape:window-x="89"
     inkscape:window-y="84"
     inkscape:window-maximized="0"
     inkscape:current-layer="g877"
     inkscape:document-rotation="0"
     inkscape:pagecheckerboard="0"
     inkscape:showpageshadow="2"
     inkscape:deskcolor="#d1d1d1" />
  <defs
     id="defs29" />
  <circle
     cx="32.516094"
     cy="31.877844"
     r="0"
     fill="url(#b)"
     stroke-width="1.5715"
     id="circle41"
     style="fill:url(#b)" />
  <g
     aria-label="GZ"
     transform="matrix(1.2212657,0,0,0.81882264,0.4960938,-0.1661539)"
     id="text93"
     style="font-weight:bold;font-size:11.5263px;line-height:1.25;font-family:sans-serif;-inkscape-font-specification:'sans-serif Bold';fill:#f2f2f2;stroke-width:0.288159" />
  <g
     id="g877"
     transform="matrix(1.1,0,0,1.1,-3.1845928,-3.2065454)">
    <circle
       style="opacity:1;fill:#414141;stroke:#dfdfdf;stroke-width:2.27272727;stroke-dasharray:none;fill-opacity:1;stroke-opacity:1"
       id="path1"
       cx="31.985994"
       cy="32.005951"
       r="25.454546" />
    <path
       id="path8-9"
       style="fill:#dfdfdf;fill-opacity:1;stroke:none;stroke-width:0.362497;stroke-dasharray:none;stroke-opacity:0.6"
       d="m 31.981726,19.790179 c -0.536842,0.0033 -1.082525,0.276896 -1.465542,0.829457 l -0.276489,0.396918 -0.02717,5.012363 -0.02717,5.012365 0.476641,-0.145877 c 0.611564,-0.186993 2.035814,-0.186622 2.646121,0 l 0.473297,0.14418 V 26.181579 21.321875 L 33.521909,20.802827 C 33.186407,20.129563 32.59015,19.786561 31.981728,19.790179 Z m 10.343615,0 c -0.45052,0.01714 -0.885415,0.231544 -1.233165,0.627604 -0.456509,0.519949 -0.526901,0.903343 -0.527522,2.892076 -5.15e-4,1.646484 0.01316,1.774066 0.174711,1.725067 1.104153,-0.334546 2.18875,-0.342283 3.192302,-0.02038 l 0.223914,0.07294 v -1.904855 c 0,-2.376271 -0.118515,-2.74607 -1.019432,-3.205876 -0.265037,-0.135274 -0.540491,-0.196859 -0.810799,-0.186587 z m -20.826316,0.0018 c -0.331169,0.01236 -0.65852,0.127674 -0.944806,0.34603 -0.511743,0.390331 -0.740257,0.92426 -0.809101,1.89978 -0.03282,0.462805 -0.04054,0.841926 -0.01871,0.841332 0.02198,-5.96e-4 0.259904,-0.06926 0.529227,-0.150967 0.618674,-0.187683 2.076408,-0.192193 2.68683,-0.0085 l 0.464766,0.140786 v -0.671728 c 1.3e-5,-0.894124 -0.222827,-1.510606 -0.700532,-1.942185 -0.351015,-0.317122 -0.78193,-0.470473 -1.207715,-0.45459 z m 0.06447,3.835179 c -0.915476,0 -1.05554,0.02643 -1.665699,0.315497 -0.927683,0.439499 -1.505386,1.005101 -1.954061,1.913353 -0.355654,0.719922 -0.371485,0.800037 -0.371485,1.758991 0,0.934695 0.0213,1.050994 0.327356,1.672484 0.546254,1.109431 1.49252,1.907936 2.617286,2.210191 0.30041,0.08071 0.711231,0.149021 0.914269,0.152667 1.044632,0.01871 2.287142,-0.511846 3.014204,-1.289137 1.906449,-2.038157 1.317532,-5.158229 -1.207715,-6.401584 -0.627812,-0.309115 -0.743095,-0.332462 -1.67418,-0.332462 z m 20.846671,2.194924 c -1.011114,2.69e-4 -1.144715,0.02357 -1.696234,0.293448 -1.166798,0.570883 -2.026631,1.724017 -2.25599,3.026079 -0.373892,2.122612 1.242661,4.318527 3.3806,4.591703 1.80445,0.230548 3.525245,-0.710655 4.293158,-2.349288 0.238687,-0.509263 0.268043,-0.6919 0.268043,-1.623294 0,-0.981372 -0.02066,-1.092023 -0.322282,-1.70471 C 45.683653,27.256219 44.881052,26.466746 44.080932,26.091782 43.566523,25.850714 43.393768,25.82182 42.41014,25.822081 Z M 32.078427,31.67917 c -0.73475,-0.0072 -1.484877,0.192384 -2.174569,0.605558 -0.666207,0.399089 -1.129349,0.931323 -1.540176,1.765776 -0.293767,0.596686 -0.317689,0.722458 -0.317198,1.645345 4.73e-4,0.882979 0.0323,1.068546 0.276488,1.591066 0.537731,1.150452 1.276176,1.819898 2.451055,2.220363 0.826552,0.281761 1.59527,0.290031 2.440874,0.02857 2.010187,-0.620562 3.236645,-2.76729 2.724149,-4.767784 -0.216086,-0.843454 -0.557711,-1.397164 -1.263708,-2.050791 -0.732486,-0.678159 -1.652256,-1.028825 -2.596932,-1.0381 z m -12.372309,0.493606 0.03056,5.253226 c 0.03304,5.82313 0.01084,5.624943 0.700544,6.281146 0.18999,0.180762 0.474938,0.370583 0.634388,0.420669 0.732826,0.230229 1.66665,-0.189596 2.059225,-0.924444 0.226119,-0.423289 0.226218,-0.430331 0.254435,-5.726479 l 0.02878,-5.302423 -0.478336,0.149252 c -0.622539,0.194783 -2.127974,0.193305 -2.75128,-0.0017 z m 20.858545,2.254255 v 4.014975 c 0,2.769064 0.03534,4.135714 0.11536,4.403414 0.158244,0.528247 0.649506,1.062272 1.131384,1.231472 0.219479,0.07706 0.490347,0.143436 0.60217,0.14588 0.342881,0.0079 1.066032,-0.423879 1.387509,-0.827762 l 0.305329,-0.383349 0.02706,-4.293167 c 0.02594,-3.999336 0.01691,-4.287421 -0.140805,-4.227004 -0.09292,0.03568 -0.47547,0.117306 -0.849816,0.181492 -0.654003,0.112168 -1.64417,0.0371 -2.354367,-0.17812 z m -10.374142,5.918151 v 1.144952 c 0,1.572895 0.25233,2.134992 1.146651,2.547741 0.490181,0.226168 0.747806,0.233199 1.224681,0.03382 0.941149,-0.39323 1.214938,-0.967817 1.21789,-2.554514 l 0.0018,-1.161916 -0.473247,0.147571 c -0.628433,0.196213 -2.140762,0.193733 -2.693613,-0.0053 z" />
  </g>
</svg>
