<?xml version="1.0" encoding="UTF-8" standalone="no"?>
<svg
   width="64"
   height="64"
   version="1.1"
   id="svg73"
   sodipodi:docname="accessories-calculator.svg"
   inkscape:version="1.4.2 (ebf0e940d0, 2025-05-08)"
   xmlns:inkscape="http://www.inkscape.org/namespaces/inkscape"
   xmlns:sodipodi="http://sodipodi.sourceforge.net/DTD/sodipodi-0.dtd"
   xmlns="http://www.w3.org/2000/svg"
   xmlns:svg="http://www.w3.org/2000/svg"
   xmlns:rdf="http://www.w3.org/1999/02/22-rdf-syntax-ns#"
   xmlns:cc="http://creativecommons.org/ns#"
   xmlns:dc="http://purl.org/dc/elements/1.1/">
  <metadata
     id="metadata77">
    <rdf:RDF>
      <cc:Work
         rdf:about="">
        <dc:format>image/svg+xml</dc:format>
        <dc:type
           rdf:resource="http://purl.org/dc/dcmitype/StillImage" />
      </cc:Work>
    </rdf:RDF>
  </metadata>
  <sodipodi:namedview
     pagecolor="#f5f7fa"
     bordercolor="#666666"
     borderopacity="1"
     objecttolerance="10"
     gridtolerance="10"
     guidetolerance="10"
     inkscape:pageopacity="0"
     inkscape:pageshadow="2"
     inkscape:window-width="1377"
     inkscape:window-height="886"
     id="namedview75"
     showgrid="false"
     inkscape:zoom="6.2890625"
     inkscape:cx="48.258385"
     inkscape:cy="45.396273"
     inkscape:window-x="0"
     inkscape:window-y="47"
     inkscape:window-maximized="0"
     inkscape:current-layer="g877"
     inkscape:document-rotation="0"
     inkscape:pagecheckerboard="0"
     inkscape:showpageshadow="2"
     inkscape:deskcolor="#d1d1d1" />
  <defs
     id="defs29" />
  <circle
     cx="32.516094"
     cy="31.877844"
     r="0"
     fill="url(#b)"
     stroke-width="1.5715"
     id="circle41"
     style="fill:url(#b)" />
  <g
     aria-label="GZ"
     transform="matrix(1.2212657,0,0,0.81882264,0.4960938,-0.1661539)"
     id="text93"
     style="font-weight:bold;font-size:11.5263px;line-height:1.25;font-family:sans-serif;-inkscape-font-specification:'sans-serif Bold';fill:#f2f2f2;stroke-width:0.288159" />
  <g
     id="g877"
     transform="matrix(1.1,0,0,1.1,-3.1845928,-3.2065454)">
    <circle
       style="opacity:1;fill:#414141;stroke:#dfdfdf;stroke-width:2.27272727;stroke-dasharray:none;fill-opacity:1;stroke-opacity:1"
       id="path1"
       cx="31.985994"
       cy="32.005951"
       r="25.454546" />
    <path
       style="fill:#dfdfdf;fill-opacity:1;stroke:none;stroke-width:0.434234;stroke-dasharray:none;stroke-opacity:0.6"
       d="m 31.985993,18.43063 c -7.497455,0 -13.57532,6.077866 -13.57532,13.57532 v 13.575322 h 13.57532 c 7.497461,0 13.575323,-6.077861 13.575323,-13.575322 0,-7.497454 -6.077862,-13.57532 -13.575323,-13.57532 z m 0,7.757327 a 5.8179944,5.8179944 0 0 1 5.817997,5.817993 5.8179944,5.8179944 0 0 1 -5.817997,5.817992 5.8179944,5.8179944 0 0 1 -5.817994,-5.817992 5.8179944,5.8179944 0 0 1 5.817994,-5.817993 z"
       id="path2072" />
    <circle
       style="fill:#414141;fill-opacity:1;stroke:#dfdfdf;stroke-width:1.08705;stroke-dasharray:none;stroke-opacity:1"
       id="path1-6"
       cx="48.320271"
       cy="48.287033"
       r="12.17483" />
    <path
       style="fill:#dfdfdf;fill-opacity:1;stroke:none;stroke-width:0.215468;stroke-dasharray:none;stroke-opacity:0.6"
       d="m 43.125119,55.130881 c -0.287798,-0.116426 -0.529842,-0.491659 -0.579599,-0.898538 -0.02593,-0.211857 -0.03657,-1.637346 -0.02369,-3.167767 0.0214,-2.540521 0.03496,-2.799539 0.155866,-2.977632 0.196847,-0.289933 0.552227,-0.427355 1.105165,-0.427355 h 0.483208 l 7.3e-4,-1.482819 c 0.0011,-1.984469 0.154215,-2.533757 0.9275,-3.328649 0.711479,-0.73136 1.832471,-1.117263 3.245491,-1.117263 1.324493,0 2.352234,0.324296 3.041633,0.959762 0.481651,0.443971 0.731104,0.83518 0.956823,1.500544 0.178305,0.525604 0.198613,0.702573 0.232047,2.022219 l 0.03666,1.446206 0.484249,2.73e-4 c 0.356447,2.02e-4 0.548208,0.03927 0.72663,0.148054 0.445109,0.271376 0.453255,0.336586 0.453255,3.627679 0,3.293387 -0.0067,3.345606 -0.470108,3.628149 -0.215256,0.131281 -0.462524,0.137336 -5.424554,0.133174 -2.859466,-0.0023 -5.267615,-0.03212 -5.351448,-0.06602 z m 7.87773,-8.786606 c 0,-1.148733 -0.01909,-1.366368 -0.150825,-1.718429 -0.184746,-0.493777 -0.647717,-0.928182 -1.191365,-1.117857 -0.456684,-0.159336 -1.822454,-0.182893 -2.294002,-0.03957 -0.549363,0.166974 -0.988443,0.523575 -1.231668,1.000308 -0.219656,0.430536 -0.221503,0.444196 -0.245335,1.812333 l -0.02401,1.378528 h 2.568605 2.568599 z"
       id="path53" />
  </g>
</svg>
