<?xml version="1.0" encoding="UTF-8" standalone="no"?>
<svg
   width="64"
   height="64"
   version="1.1"
   id="svg73"
   sodipodi:docname="preferences-desktop-touchscreen.svg"
   inkscape:version="1.4.2 (ebf0e940d0, 2025-05-08)"
   xmlns:inkscape="http://www.inkscape.org/namespaces/inkscape"
   xmlns:sodipodi="http://sodipodi.sourceforge.net/DTD/sodipodi-0.dtd"
   xmlns="http://www.w3.org/2000/svg"
   xmlns:svg="http://www.w3.org/2000/svg"
   xmlns:rdf="http://www.w3.org/1999/02/22-rdf-syntax-ns#"
   xmlns:cc="http://creativecommons.org/ns#"
   xmlns:dc="http://purl.org/dc/elements/1.1/">
  <metadata
     id="metadata77">
    <rdf:RDF>
      <cc:Work
         rdf:about="">
        <dc:format>image/svg+xml</dc:format>
        <dc:type
           rdf:resource="http://purl.org/dc/dcmitype/StillImage" />
      </cc:Work>
    </rdf:RDF>
  </metadata>
  <sodipodi:namedview
     pagecolor="#f5f7fa"
     bordercolor="#666666"
     borderopacity="1"
     objecttolerance="10"
     gridtolerance="10"
     guidetolerance="10"
     inkscape:pageopacity="0"
     inkscape:pageshadow="2"
     inkscape:window-width="1377"
     inkscape:window-height="689"
     id="namedview75"
     showgrid="false"
     inkscape:zoom="6.2890624"
     inkscape:cx="47.622361"
     inkscape:cy="35.617392"
     inkscape:window-x="16"
     inkscape:window-y="162"
     inkscape:window-maximized="0"
     inkscape:current-layer="g877"
     inkscape:document-rotation="0"
     inkscape:pagecheckerboard="0"
     inkscape:showpageshadow="2"
     inkscape:deskcolor="#d1d1d1" />
  <defs
     id="defs29" />
  <circle
     cx="32.516094"
     cy="31.877844"
     r="0"
     fill="url(#b)"
     stroke-width="1.5715"
     id="circle41"
     style="fill:url(#b)" />
  <g
     aria-label="GZ"
     transform="matrix(1.2212657,0,0,0.81882264,0.4960938,-0.1661539)"
     id="text93"
     style="font-weight:bold;font-size:11.5263px;line-height:1.25;font-family:sans-serif;-inkscape-font-specification:'sans-serif Bold';fill:#f2f2f2;stroke-width:0.288159" />
  <g
     id="g877"
     transform="matrix(1.1,0,0,1.1,-3.1845928,-3.2065454)">
    <circle
       style="opacity:1;fill:#414141;stroke:#dfdfdf;stroke-width:2.27272727;stroke-dasharray:none;fill-opacity:1;stroke-opacity:1"
       id="path1"
       cx="31.985994"
       cy="32.005951"
       r="25.454546" />
    <path
       id="path12"
       style="fill:#dfdfdf;fill-opacity:1;stroke-width:0.125342;stroke-opacity:0.6"
       d="m 32.014631,20.057737 c -0.82172,0.01354 -1.702398,0.646413 -1.859765,1.433257 l -0.07987,0.403904 h 1.911007 1.911008 l -0.07987,-0.403904 c -0.106085,-0.530422 -0.764489,-1.196689 -1.3579,-1.374478 -0.143249,-0.04292 -0.292426,-0.06129 -0.444596,-0.05877 z m -0.02865,4.007393 c -2.687378,0 -5.374275,0.922414 -7.62896,2.767042 -2.363878,1.933968 -4.026842,5.097603 -4.240986,8.06753 l -0.07536,1.033875 H 31.985994 43.9313 L 43.85594,34.899702 C 43.641803,31.929775 41.978838,28.76614 39.614955,26.832172 37.360272,24.987544 34.673373,24.06513 31.985997,24.06513 Z m 0,13.999492 c -12.342603,0 -12.440985,0.0021 -12.893274,0.259222 -0.911659,0.518409 -0.952645,0.652244 -0.996196,3.280965 l -0.03919,2.349577 H 31.98598 45.914641 l -0.03919,-2.349577 C 45.831922,38.976088 45.7909,38.842253 44.879258,38.323844 44.426971,38.06669 44.328587,38.064622 31.985976,38.064622 Z" />
  </g>
</svg>
