<?xml version="1.0" encoding="UTF-8" standalone="no"?>
<svg
   width="64"
   height="64"
   version="1.1"
   id="svg73"
   sodipodi:docname="preferences-desktop-emoticons.svg"
   inkscape:version="1.4.2 (ebf0e940d0, 2025-05-08)"
   xmlns:inkscape="http://www.inkscape.org/namespaces/inkscape"
   xmlns:sodipodi="http://sodipodi.sourceforge.net/DTD/sodipodi-0.dtd"
   xmlns="http://www.w3.org/2000/svg"
   xmlns:svg="http://www.w3.org/2000/svg"
   xmlns:rdf="http://www.w3.org/1999/02/22-rdf-syntax-ns#"
   xmlns:cc="http://creativecommons.org/ns#"
   xmlns:dc="http://purl.org/dc/elements/1.1/">
  <metadata
     id="metadata77">
    <rdf:RDF>
      <cc:Work
         rdf:about="">
        <dc:format>image/svg+xml</dc:format>
        <dc:type
           rdf:resource="http://purl.org/dc/dcmitype/StillImage" />
      </cc:Work>
    </rdf:RDF>
  </metadata>
  <sodipodi:namedview
     pagecolor="#f5f7fa"
     bordercolor="#666666"
     borderopacity="1"
     objecttolerance="10"
     gridtolerance="10"
     guidetolerance="10"
     inkscape:pageopacity="0"
     inkscape:pageshadow="2"
     inkscape:window-width="1377"
     inkscape:window-height="689"
     id="namedview75"
     showgrid="false"
     inkscape:zoom="6.2890624"
     inkscape:cx="47.622361"
     inkscape:cy="35.776398"
     inkscape:window-x="16"
     inkscape:window-y="162"
     inkscape:window-maximized="0"
     inkscape:current-layer="g877"
     inkscape:document-rotation="0"
     inkscape:pagecheckerboard="0"
     inkscape:showpageshadow="2"
     inkscape:deskcolor="#d1d1d1" />
  <defs
     id="defs29" />
  <circle
     cx="32.516094"
     cy="31.877844"
     r="0"
     fill="url(#b)"
     stroke-width="1.5715"
     id="circle41"
     style="fill:url(#b)" />
  <g
     aria-label="GZ"
     transform="matrix(1.2212657,0,0,0.81882264,0.4960938,-0.1661539)"
     id="text93"
     style="font-weight:bold;font-size:11.5263px;line-height:1.25;font-family:sans-serif;-inkscape-font-specification:'sans-serif Bold';fill:#f2f2f2;stroke-width:0.288159" />
  <g
     id="g877"
     transform="matrix(1.1,0,0,1.1,-3.1845928,-3.2065454)">
    <circle
       style="opacity:1;fill:#414141;stroke:#dfdfdf;stroke-width:2.27272727;stroke-dasharray:none;fill-opacity:1;stroke-opacity:1"
       id="path1"
       cx="31.985994"
       cy="32.005951"
       r="25.454546" />
    <path
       style="color:#6e6e6e;fill:#dfdfdf;fill-opacity:1;stroke:none;stroke-width:0.882806;stroke-dasharray:none;stroke-opacity:0.3"
       class="ColorScheme-Text"
       d="m 25.511006,18.261791 c -3.237495,0 -3.237495,3.665109 -3.237495,3.665109 v 20.158101 c 0,3.665109 3.064775,3.658518 3.237495,3.665109 h 12.949969 c 0,0 3.2375,-0.0076 3.2375,-3.665109 V 21.9269 c 0,-3.665109 -3.2375,-3.665109 -3.2375,-3.665109 z m 6.474988,3.665109 c 0.896899,0 1.618747,0.823641 1.618747,1.832554 0,1.009078 -0.721848,1.832556 -1.618747,1.832556 -0.897172,0 -1.618746,-0.823478 -1.618746,-1.832556 0,-1.008913 0.721574,-1.832554 1.618746,-1.832554 z m 0,5.497665 c 3.575974,0 6.474981,3.281919 6.474981,7.330217 0,4.048302 -2.899007,7.330219 -6.474981,7.330219 -3.575973,0 -6.474988,-3.281917 -6.474988,-7.330219 0,-4.048297 2.899015,-7.330217 6.474988,-7.330217 z m 0,3.665107 c -1.788069,0 -3.237494,1.640927 -3.237494,3.66511 0,2.024188 1.449475,3.665112 3.237494,3.665112 1.788019,0 3.237496,-1.640924 3.237496,-3.665112 0,-2.024183 -1.449477,-3.665109 -3.237496,-3.66511 z"
       id="path5" />
  </g>
</svg>
