<?xml version="1.0" encoding="UTF-8" standalone="no"?>
<svg
   width="64"
   height="64"
   version="1.1"
   id="svg73"
   sodipodi:docname="preferences-desktop-touchscreen.svg"
   inkscape:version="1.4.2 (ebf0e940d0, 2025-05-08)"
   xmlns:inkscape="http://www.inkscape.org/namespaces/inkscape"
   xmlns:sodipodi="http://sodipodi.sourceforge.net/DTD/sodipodi-0.dtd"
   xmlns="http://www.w3.org/2000/svg"
   xmlns:svg="http://www.w3.org/2000/svg"
   xmlns:rdf="http://www.w3.org/1999/02/22-rdf-syntax-ns#"
   xmlns:cc="http://creativecommons.org/ns#"
   xmlns:dc="http://purl.org/dc/elements/1.1/">
  <metadata
     id="metadata77">
    <rdf:RDF>
      <cc:Work
         rdf:about="">
        <dc:format>image/svg+xml</dc:format>
        <dc:type
           rdf:resource="http://purl.org/dc/dcmitype/StillImage" />
      </cc:Work>
    </rdf:RDF>
  </metadata>
  <sodipodi:namedview
     pagecolor="#f5f7fa"
     bordercolor="#666666"
     borderopacity="1"
     objecttolerance="10"
     gridtolerance="10"
     guidetolerance="10"
     inkscape:pageopacity="0"
     inkscape:pageshadow="2"
     inkscape:window-width="1377"
     inkscape:window-height="689"
     id="namedview75"
     showgrid="false"
     inkscape:zoom="6.2890624"
     inkscape:cx="47.622361"
     inkscape:cy="35.617392"
     inkscape:window-x="16"
     inkscape:window-y="162"
     inkscape:window-maximized="0"
     inkscape:current-layer="g877"
     inkscape:document-rotation="0"
     inkscape:pagecheckerboard="0"
     inkscape:showpageshadow="2"
     inkscape:deskcolor="#d1d1d1" />
  <defs
     id="defs29" />
  <circle
     cx="32.516094"
     cy="31.877844"
     r="0"
     fill="url(#b)"
     stroke-width="1.5715"
     id="circle41"
     style="fill:url(#b)" />
  <g
     aria-label="GZ"
     transform="matrix(1.2212657,0,0,0.81882264,0.4960938,-0.1661539)"
     id="text93"
     style="font-weight:bold;font-size:11.5263px;line-height:1.25;font-family:sans-serif;-inkscape-font-specification:'sans-serif Bold';fill:#f2f2f2;stroke-width:0.288159" />
  <g
     id="g877"
     transform="matrix(1.1,0,0,1.1,-3.1845928,-3.2065454)">
    <circle
       style="opacity:1;fill:#414141;stroke:#dfdfdf;stroke-width:2.27272727;stroke-dasharray:none;fill-opacity:1;stroke-opacity:1"
       id="path1"
       cx="31.985994"
       cy="32.005951"
       r="25.454546" />
    <path
       id="path17"
       style="fill:#dfdfdf;fill-opacity:1;stroke:none;stroke-width:0.848801;stroke-dasharray:none;stroke-dashoffset:2.2;stroke-opacity:0.3"
       d="m 31.513687,17.796013 c -0.189344,0.0254 -0.379921,0.185054 -0.512263,0.440978 -0.126497,0.244624 -0.147546,1.101544 -0.147546,6.089155 0,3.193126 -0.03273,5.806206 -0.07294,5.805667 -0.04021,-5.37e-4 -1.575239,-1.268517 -3.410124,-2.816627 -1.834884,-1.54811 -3.408359,-2.841915 -3.497989,-2.876309 -0.08963,-0.03439 -0.268987,0.0068 -0.397875,0.09118 -0.396806,0.259996 -0.533204,0.862277 -0.306697,1.359409 0.06303,0.138328 1.653715,1.54989 3.534459,3.136584 1.880744,1.586699 3.429299,2.935271 3.441625,2.995672 0.01229,0.06042 -1.491733,1.337441 -3.343814,2.838179 -1.852081,1.500741 -3.435993,2.803886 -3.519541,2.896206 -0.249404,0.275579 -0.268968,0.953538 -0.03812,1.321278 0.377529,0.601424 0.428362,0.572322 4.101434,-2.412122 1.847826,-1.501394 3.393724,-2.730422 3.434991,-2.730422 0.04127,0 0.07461,2.585823 0.07461,5.745989 0,3.755467 0.03453,5.840143 0.101126,6.019523 0.05603,0.150915 0.175327,0.32919 0.263591,0.396223 0.08826,0.06702 0.254438,0.122678 0.369692,0.122678 0.216347,0 8.540351,-6.289174 9.040064,-6.830198 0.358687,-0.388348 0.382759,-1.175936 0.0481,-1.566639 -0.120396,-0.140548 -1.820992,-1.474626 -3.77817,-2.964175 -1.957174,-1.489548 -3.592696,-2.737646 -3.635587,-2.77518 -0.04288,-0.03754 1.569339,-1.331679 3.584198,-2.874651 2.014858,-1.542971 3.750221,-2.915809 3.856076,-3.050379 0.221122,-0.281115 0.258321,-1.0157 0.06798,-1.356095 -0.123262,-0.220398 -8.7595,-6.869527 -9.071561,-6.984372 -0.06076,-0.02235 -0.122557,-0.03002 -0.185672,-0.02155 z m 0.858748,2.879625 c 0.09994,0 6.183647,4.690821 6.183647,4.767875 0,0.04124 -1.367965,1.125 -3.040429,2.407146 -1.672464,1.282149 -3.076591,2.344513 -3.120008,2.362386 -0.04342,0.01787 -0.07958,-2.119385 -0.07958,-4.751297 0,-2.631909 0.02573,-4.78611 0.05637,-4.78611 z m 0.0166,13.163051 c 0.141128,0.0027 6.117337,4.644476 6.117337,4.751299 0,0.05942 -1.376478,1.164305 -3.060325,2.455222 -1.683846,1.290914 -3.076507,2.345807 -3.095139,2.345807 -0.01861,0 -0.03481,-2.148722 -0.03481,-4.776168 0,-2.627438 0.03272,-4.77695 0.07294,-4.77616 z" />
  </g>
</svg>
