<?xml version="1.0" encoding="UTF-8" standalone="no"?>
<svg
   width="64"
   height="64"
   version="1.1"
   id="svg73"
   sodipodi:docname="preferences-desktop-emoticons.svg"
   inkscape:version="1.4.2 (ebf0e940d0, 2025-05-08)"
   xmlns:inkscape="http://www.inkscape.org/namespaces/inkscape"
   xmlns:sodipodi="http://sodipodi.sourceforge.net/DTD/sodipodi-0.dtd"
   xmlns="http://www.w3.org/2000/svg"
   xmlns:svg="http://www.w3.org/2000/svg"
   xmlns:rdf="http://www.w3.org/1999/02/22-rdf-syntax-ns#"
   xmlns:cc="http://creativecommons.org/ns#"
   xmlns:dc="http://purl.org/dc/elements/1.1/">
  <metadata
     id="metadata77">
    <rdf:RDF>
      <cc:Work
         rdf:about="">
        <dc:format>image/svg+xml</dc:format>
        <dc:type
           rdf:resource="http://purl.org/dc/dcmitype/StillImage" />
      </cc:Work>
    </rdf:RDF>
  </metadata>
  <sodipodi:namedview
     pagecolor="#f5f7fa"
     bordercolor="#666666"
     borderopacity="1"
     objecttolerance="10"
     gridtolerance="10"
     guidetolerance="10"
     inkscape:pageopacity="0"
     inkscape:pageshadow="2"
     inkscape:window-width="1377"
     inkscape:window-height="689"
     id="namedview75"
     showgrid="false"
     inkscape:zoom="6.2890624"
     inkscape:cx="47.622361"
     inkscape:cy="35.776398"
     inkscape:window-x="16"
     inkscape:window-y="162"
     inkscape:window-maximized="0"
     inkscape:current-layer="g877"
     inkscape:document-rotation="0"
     inkscape:pagecheckerboard="0"
     inkscape:showpageshadow="2"
     inkscape:deskcolor="#d1d1d1" />
  <defs
     id="defs29" />
  <circle
     cx="32.516094"
     cy="31.877844"
     r="0"
     fill="url(#b)"
     stroke-width="1.5715"
     id="circle41"
     style="fill:url(#b)" />
  <g
     aria-label="GZ"
     transform="matrix(1.2212657,0,0,0.81882264,0.4960938,-0.1661539)"
     id="text93"
     style="font-weight:bold;font-size:11.5263px;line-height:1.25;font-family:sans-serif;-inkscape-font-specification:'sans-serif Bold';fill:#f2f2f2;stroke-width:0.288159" />
  <g
     id="g877"
     transform="matrix(1.1,0,0,1.1,-3.1845928,-3.2065454)">
    <circle
       style="opacity:1;fill:#414141;stroke:#dfdfdf;stroke-width:2.27272727;stroke-dasharray:none;fill-opacity:1;stroke-opacity:1"
       id="path1"
       cx="31.985994"
       cy="32.005951"
       r="25.454546" />
    <path
       style="fill:#dfdfdf;fill-opacity:1;stroke:none;stroke-width:0.945774;stroke-dasharray:none;stroke-dashoffset:2.2;stroke-opacity:0.3"
       d="m 30.59454,46.413389 c -0.149366,-0.02578 -0.613763,-0.10106 -1.03199,-0.167737 -1.751561,-0.279334 -3.854072,-1.138625 -5.544751,-2.266124 -1.069285,-0.713101 -2.963408,-2.612665 -3.688266,-3.698858 -1.105685,-1.656845 -1.884875,-3.532068 -2.301353,-5.53846 -0.264908,-1.276221 -0.266667,-4.144646 -0.0034,-5.451319 0.604857,-3.001397 1.887452,-5.403584 4.028049,-7.544182 1.722155,-1.722152 3.320774,-2.722261 5.535685,-3.463156 5.039875,-1.685859 10.552798,-0.353853 14.360894,3.469817 2.10173,2.110318 3.498373,4.79477 4.016615,7.72026 0.254661,1.437569 0.232408,3.83361 -0.04895,5.278398 -1.140491,5.855431 -5.46257,10.255514 -11.248923,11.451909 -0.826984,0.170989 -3.496243,0.308261 -4.073645,0.209479 z m -2.740022,-9.000014 4.918429,-3.884798 -0.64565,-0.723908 c -0.35511,-0.39815 -0.872824,-0.943884 -1.150477,-1.212745 l -0.504824,-0.488837 -0.19996,0.271577 c -0.109976,0.149368 -1.865626,2.446902 -3.90145,5.105628 -2.035821,2.658726 -3.702527,4.876704 -3.703784,4.928833 -0.0014,0.05214 0.05881,0.0484 0.133499,-0.0079 0.07467,-0.05653 2.34908,-1.85102 5.054216,-3.987663 z m 9.800663,-9.774122 c 2.035196,-2.62207 3.678957,-4.788797 3.652813,-4.814945 -0.0361,-0.03622 -9.057541,6.915215 -9.569103,7.373481 -0.108049,0.09679 1.98614,2.288964 2.136564,2.236532 0.04367,-0.01522 1.744534,-2.172996 3.779726,-4.795068 z"
       id="path68" />
  </g>
</svg>
