<?xml version="1.0" encoding="UTF-8" standalone="no"?>
<svg
   width="64"
   height="64"
   version="1.1"
   id="svg73"
   sodipodi:docname="preferences-desktop-touchscreen.svg"
   inkscape:version="1.4.2 (ebf0e940d0, 2025-05-08)"
   xmlns:inkscape="http://www.inkscape.org/namespaces/inkscape"
   xmlns:sodipodi="http://sodipodi.sourceforge.net/DTD/sodipodi-0.dtd"
   xmlns="http://www.w3.org/2000/svg"
   xmlns:svg="http://www.w3.org/2000/svg"
   xmlns:rdf="http://www.w3.org/1999/02/22-rdf-syntax-ns#"
   xmlns:cc="http://creativecommons.org/ns#"
   xmlns:dc="http://purl.org/dc/elements/1.1/">
  <metadata
     id="metadata77">
    <rdf:RDF>
      <cc:Work
         rdf:about="">
        <dc:format>image/svg+xml</dc:format>
        <dc:type
           rdf:resource="http://purl.org/dc/dcmitype/StillImage" />
      </cc:Work>
    </rdf:RDF>
  </metadata>
  <sodipodi:namedview
     pagecolor="#f5f7fa"
     bordercolor="#666666"
     borderopacity="1"
     objecttolerance="10"
     gridtolerance="10"
     guidetolerance="10"
     inkscape:pageopacity="0"
     inkscape:pageshadow="2"
     inkscape:window-width="1377"
     inkscape:window-height="689"
     id="namedview75"
     showgrid="false"
     inkscape:zoom="6.2890624"
     inkscape:cx="47.622361"
     inkscape:cy="35.617392"
     inkscape:window-x="16"
     inkscape:window-y="162"
     inkscape:window-maximized="0"
     inkscape:current-layer="g877"
     inkscape:document-rotation="0"
     inkscape:pagecheckerboard="0"
     inkscape:showpageshadow="2"
     inkscape:deskcolor="#d1d1d1" />
  <defs
     id="defs29" />
  <circle
     cx="32.516094"
     cy="31.877844"
     r="0"
     fill="url(#b)"
     stroke-width="1.5715"
     id="circle41"
     style="fill:url(#b)" />
  <g
     aria-label="GZ"
     transform="matrix(1.2212657,0,0,0.81882264,0.4960938,-0.1661539)"
     id="text93"
     style="font-weight:bold;font-size:11.5263px;line-height:1.25;font-family:sans-serif;-inkscape-font-specification:'sans-serif Bold';fill:#f2f2f2;stroke-width:0.288159" />
  <g
     id="g877"
     transform="matrix(1.1,0,0,1.1,-3.1845928,-3.2065454)">
    <circle
       style="opacity:1;fill:#414141;stroke:#dfdfdf;stroke-width:2.27272727;stroke-dasharray:none;fill-opacity:1;stroke-opacity:1"
       id="path1"
       cx="31.985994"
       cy="32.005951"
       r="25.454546" />
    <path
       style="fill:#dfdfdf;fill-opacity:1;stroke:none;stroke-width:0.903807;stroke-dasharray:none;stroke-opacity:0.3"
       d="M 22.224656,45.893957 C 20.730401,45.719931 19.477137,44.627968 19.046339,43.124718 18.955052,42.8062 18.944208,42.243325 18.926278,36.894925 l -0.01972,-5.879636 H 31.984576 45.06259 l -0.01883,5.879636 c -0.022,6.557661 0.005,6.125914 -0.437636,7.017627 -0.300313,0.605057 -0.985819,1.290586 -1.590875,1.590883 -0.590957,0.293327 -1.000476,0.387369 -1.880095,0.431891 l -0.743035,0.03765 -0.01564,-3.087327 -0.01565,-3.087338 -0.13498,-0.274033 C 40.053458,39.174519 39.70051,38.821549 39.350803,38.649293 L 39.07677,38.51434 32.076304,38.498968 c -8.043733,-0.01723 -7.345009,-0.0646 -7.944012,0.535435 -0.569903,0.570859 -0.549814,0.427421 -0.549814,3.925604 v 2.995081 l -0.48146,-0.0079 c -0.264808,-0.0048 -0.65847,-0.02858 -0.874821,-0.05345 z m 15.90259,-10.357546 c 0.282843,-0.192183 0.393561,-0.416835 0.393297,-0.797857 -4.01e-4,-0.573477 -0.353054,-0.921611 -0.933522,-0.921611 -0.580481,0 -0.933113,0.348131 -0.933516,0.921611 -3.92e-4,0.587606 0.352903,0.945428 0.933516,0.945428 0.249412,0 0.372568,-0.0337 0.540234,-0.14758 z m 3.705906,0.03116 c 0.284794,-0.173631 0.422132,-0.439582 0.422132,-0.817337 0,-0.585736 -0.347566,-0.933306 -0.933303,-0.933306 -0.585735,0 -0.933298,0.347573 -0.933298,0.933306 0,0.58573 0.34757,0.933299 0.933298,0.933299 0.217596,0 0.382247,-0.03744 0.511182,-0.115971 z m -17.318479,8.986928 v -1.400612 h 7.46991 7.469915 v 1.400612 1.400609 h -7.469915 -7.46991 z M 18.927742,28.403731 c 0.0338,-1.868392 0.06455,-2.06703 0.436171,-2.815808 0.300129,-0.60472 0.985699,-1.290415 1.590882,-1.591161 0.71698,-0.356313 1.043129,-0.415609 2.305168,-0.41912 1.026068,-0.0032 1.126235,0.0063 1.342247,0.122219 0.511428,0.274529 0.748134,0.635762 0.816563,1.246124 0.05307,0.473314 0.158134,0.733117 0.397338,0.982487 0.405434,0.422665 -0.366707,0.385646 8.736256,0.418804 l 8.19939,0.02985 0.345484,0.130902 c 0.490515,0.185844 0.793925,0.376205 1.111158,0.697167 0.564057,0.570669 0.771982,1.111886 0.827712,2.154497 l 0.03844,0.721838 H 31.986082 18.897432 Z m 8.136262,-3.076823 c -0.412503,-0.144538 -0.623497,-0.437411 -0.623497,-0.86545 0,-0.300217 0.172807,-0.595284 0.437891,-0.747727 0.09618,-0.05531 2.288919,-0.840806 4.872751,-1.745536 2.58383,-0.904736 6.193839,-2.168762 8.022237,-2.808951 3.633195,-1.27211 3.570115,-1.257063 3.945419,-0.941269 0.465149,0.391398 0.467484,1.08154 0.0048,1.411016 -0.09259,0.06575 -1.228757,0.490696 -2.525089,0.94429 -1.296368,0.453596 -3.354938,1.173911 -4.574641,1.600704 -7.508723,2.627421 -9.060599,3.167264 -9.191471,3.197383 -0.08025,0.01849 -0.246119,-0.0019 -0.368604,-0.04447 z"
       id="path1-3" />
  </g>
</svg>
