<?xml version="1.0" encoding="UTF-8" standalone="no"?>
<svg
   width="64"
   height="64"
   version="1.1"
   id="svg73"
   sodipodi:docname="smile.svg"
   inkscape:version="1.4.2 (ebf0e940d0, 2025-05-08)"
   xmlns:inkscape="http://www.inkscape.org/namespaces/inkscape"
   xmlns:sodipodi="http://sodipodi.sourceforge.net/DTD/sodipodi-0.dtd"
   xmlns="http://www.w3.org/2000/svg"
   xmlns:svg="http://www.w3.org/2000/svg"
   xmlns:rdf="http://www.w3.org/1999/02/22-rdf-syntax-ns#"
   xmlns:cc="http://creativecommons.org/ns#"
   xmlns:dc="http://purl.org/dc/elements/1.1/">
  <metadata
     id="metadata77">
    <rdf:RDF>
      <cc:Work
         rdf:about="">
        <dc:format>image/svg+xml</dc:format>
        <dc:type
           rdf:resource="http://purl.org/dc/dcmitype/StillImage" />
      </cc:Work>
    </rdf:RDF>
  </metadata>
  <sodipodi:namedview
     pagecolor="#f5f7fa"
     bordercolor="#666666"
     borderopacity="1"
     objecttolerance="10"
     gridtolerance="10"
     guidetolerance="10"
     inkscape:pageopacity="0"
     inkscape:pageshadow="2"
     inkscape:window-width="1377"
     inkscape:window-height="678"
     id="namedview75"
     showgrid="false"
     inkscape:zoom="6.2890624"
     inkscape:cx="47.622361"
     inkscape:cy="35.855901"
     inkscape:window-x="18"
     inkscape:window-y="126"
     inkscape:window-maximized="0"
     inkscape:current-layer="g877"
     inkscape:document-rotation="0"
     inkscape:pagecheckerboard="0"
     inkscape:showpageshadow="2"
     inkscape:deskcolor="#d1d1d1" />
  <defs
     id="defs29" />
  <circle
     cx="32.516094"
     cy="31.877844"
     r="0"
     fill="url(#b)"
     stroke-width="1.5715"
     id="circle41"
     style="fill:url(#b)" />
  <g
     aria-label="GZ"
     transform="matrix(1.2212657,0,0,0.81882264,0.4960938,-0.1661539)"
     id="text93"
     style="font-weight:bold;font-size:11.5263px;line-height:1.25;font-family:sans-serif;-inkscape-font-specification:'sans-serif Bold';fill:#f2f2f2;stroke-width:0.288159" />
  <g
     id="g877"
     transform="matrix(1.1,0,0,1.1,-3.1845928,-3.2065454)">
    <circle
       style="opacity:1;fill:#414141;stroke:#dfdfdf;stroke-width:2.27272727;stroke-dasharray:none;fill-opacity:1;stroke-opacity:1"
       id="path1"
       cx="31.985994"
       cy="32.005951"
       r="25.454546" />
    <path
       id="path6"
       style="fill:#dfdfdf;fill-opacity:1;stroke:none;stroke-width:0.131308;stroke-opacity:1"
       d="m 25.632759,18.320585 c -0.196028,0.01291 -0.35628,0.119063 -0.966859,0.531773 -1.639806,1.108396 -3.156062,2.697071 -4.180662,4.381084 -1.124424,1.848082 -1.778875,3.778233 -2.055583,6.06201 l -0.02921,0.240708 0.123877,-0.113806 c 0.230079,-0.213654 0.823203,-0.600823 1.327418,-0.865139 1.33858,-0.701701 2.913312,-1.118899 5.142487,-1.364682 0.685562,-0.07559 3.386584,-0.102893 4.381085,-0.04433 1.565224,0.09219 3.169184,0.269687 4.801063,0.532778 0.452318,0.07293 0.842373,0.126098 0.867153,0.117838 0.05465,-0.01821 -0.631949,-1.408758 -1.180376,-2.389957 -1.439829,-2.57603 -2.958022,-4.467662 -4.536185,-5.652102 -1.140123,-0.855685 -2.246426,-1.310328 -3.468609,-1.426118 -0.09124,-0.0086 -0.160258,-0.01437 -0.225601,-0.01007 z m 6.712626,0.360558 c -0.798718,-0.02167 -1.604264,0.03061 -2.406071,0.159129 -0.31295,0.05018 -0.595043,0.105989 -0.627451,0.12388 -0.0013,6.28e-4 -0.0031,0.0011 -0.004,0.0022 l -8.55e-4,8.55e-4 c -4.18e-4,4.57e-4 -0.0026,0.0025 -0.0031,0.003 -5.96e-4,8.55e-4 -0.0018,0.004 -0.0021,0.0051 -0.0074,0.03239 0.07138,0.106653 0.250778,0.234664 0.656781,0.46867 1.483427,1.245361 2.139179,2.010265 1.253771,1.462464 2.280175,3.076453 3.47868,5.468801 l 0.634503,1.266988 1.006138,0.204451 c 2.332692,0.474806 4.51246,1.036157 6.785141,1.747397 0.529609,0.165743 1.01142,0.319674 1.071603,0.342431 0.05674,0.02145 0.108979,0.02412 0.121864,0.007 3.41e-4,-5.97e-4 0.0019,-0.0024 0.0021,-0.0031 0.0079,-0.02092 -0.01717,-0.259705 -0.0564,-0.530765 -0.411797,-2.845501 -1.711017,-5.384908 -3.79291,-7.410509 -0.656731,-0.638976 -1.108152,-1.004157 -1.847104,-1.495613 -2.015569,-1.340496 -4.353733,-2.071167 -6.749892,-2.136156 z m -4.601648,8.971655 c -1.544522,-0.01447 -2.94232,0.08822 -4.215912,0.309192 -2.751852,0.477462 -4.69393,1.538008 -5.79411,3.163446 l -0.168194,0.249772 0.02921,0.546881 c 0.04407,0.801866 0.139725,1.558185 0.287037,2.276149 1.186403,5.782254 5.86754,10.305134 11.685911,11.29111 0.437472,0.07413 0.906104,0.129049 1.662798,0.194379 0.325521,0.0281 1.830785,-0.01378 2.276149,-0.06344 2.342059,-0.261236 4.54738,-1.056385 6.449761,-2.325501 3.404095,-2.270934 5.678179,-5.827109 6.287611,-9.832763 0.107019,-0.703415 0.197508,-1.909045 0.149058,-1.975014 l -8.55e-4,-8.55e-4 c -0.05668,-0.05362 -1.349028,-0.517729 -2.376846,-0.853033 -3.56076,-1.161626 -7.671836,-2.111647 -11.176297,-2.583328 -1.859999,-0.250346 -3.550629,-0.382339 -5.09515,-0.396816 z" />
  </g>
</svg>
