<?xml version="1.0" encoding="UTF-8" standalone="no"?>
<svg
   width="64"
   height="64"
   version="1.1"
   id="svg73"
   sodipodi:docname="smile.svg"
   inkscape:version="1.4.2 (ebf0e940d0, 2025-05-08)"
   xmlns:inkscape="http://www.inkscape.org/namespaces/inkscape"
   xmlns:sodipodi="http://sodipodi.sourceforge.net/DTD/sodipodi-0.dtd"
   xmlns="http://www.w3.org/2000/svg"
   xmlns:svg="http://www.w3.org/2000/svg"
   xmlns:rdf="http://www.w3.org/1999/02/22-rdf-syntax-ns#"
   xmlns:cc="http://creativecommons.org/ns#"
   xmlns:dc="http://purl.org/dc/elements/1.1/">
  <metadata
     id="metadata77">
    <rdf:RDF>
      <cc:Work
         rdf:about="">
        <dc:format>image/svg+xml</dc:format>
        <dc:type
           rdf:resource="http://purl.org/dc/dcmitype/StillImage" />
      </cc:Work>
    </rdf:RDF>
  </metadata>
  <sodipodi:namedview
     pagecolor="#f5f7fa"
     bordercolor="#666666"
     borderopacity="1"
     objecttolerance="10"
     gridtolerance="10"
     guidetolerance="10"
     inkscape:pageopacity="0"
     inkscape:pageshadow="2"
     inkscape:window-width="1377"
     inkscape:window-height="678"
     id="namedview75"
     showgrid="false"
     inkscape:zoom="6.2890624"
     inkscape:cx="47.622361"
     inkscape:cy="35.855901"
     inkscape:window-x="18"
     inkscape:window-y="126"
     inkscape:window-maximized="0"
     inkscape:current-layer="g877"
     inkscape:document-rotation="0"
     inkscape:pagecheckerboard="0"
     inkscape:showpageshadow="2"
     inkscape:deskcolor="#d1d1d1" />
  <defs
     id="defs29" />
  <circle
     cx="32.516094"
     cy="31.877844"
     r="0"
     fill="url(#b)"
     stroke-width="1.5715"
     id="circle41"
     style="fill:url(#b)" />
  <g
     aria-label="GZ"
     transform="matrix(1.2212657,0,0,0.81882264,0.4960938,-0.1661539)"
     id="text93"
     style="font-weight:bold;font-size:11.5263px;line-height:1.25;font-family:sans-serif;-inkscape-font-specification:'sans-serif Bold';fill:#f2f2f2;stroke-width:0.288159" />
  <g
     id="g877"
     transform="matrix(1.1,0,0,1.1,-3.1845928,-3.2065454)">
    <circle
       style="opacity:1;fill:#414141;stroke:#dfdfdf;stroke-width:2.27272727;stroke-dasharray:none;fill-opacity:1;stroke-opacity:1"
       id="path1"
       cx="31.985994"
       cy="32.005951"
       r="25.454546" />
    <path
       style="fill:#dfdfdf;fill-opacity:1;stroke-width:0.0339401"
       d="m 31.658366,45.977791 c -1.404506,-0.104253 -2.748545,-0.428982 -3.998248,-0.965989 -0.923263,-0.396729 -2.54576,-1.378144 -3.614607,-2.186394 -1.840899,-1.392077 -3.005179,-2.822514 -3.290501,-4.042704 -0.06094,-0.260589 -0.06463,-0.379547 -0.01706,-0.550745 0.05794,-0.208665 0.357561,-0.618874 0.758735,-1.038848 0.674737,-0.706361 0.707278,-0.765944 0.470008,-0.860642 -0.215815,-0.08613 -0.672689,-0.483046 -1.435162,-1.246797 -1.070786,-1.072577 -1.905265,-2.073683 -2.054707,-2.464998 -0.05628,-0.147334 -0.05604,-0.154718 0.006,-0.201185 0.0354,-0.02656 0.583685,-0.295492 1.21836,-0.597695 0.634672,-0.302201 1.44414,-0.695406 1.798813,-0.873787 l 0.64487,-0.324331 0.780618,-0.766284 c 0.727466,-0.714108 1.15139,-1.091538 1.330446,-1.184532 0.04107,-0.0213 0.247258,-0.06843 0.458192,-0.104682 0.67446,-0.115875 1.436899,-0.372391 1.776136,-0.597564 0.27846,-0.184829 0.734659,-0.593612 1.98441,-1.778135 1.474446,-1.397489 1.640147,-1.543818 1.883668,-1.663418 0.40529,-0.199051 1.08551,-0.278434 2.32254,-0.271051 0.987321,0.0058 1.075135,-0.0091 1.425337,-0.24293 0.114387,-0.0764 0.277776,-0.225161 0.363079,-0.330611 0.08529,-0.105445 0.264343,-0.288965 0.397868,-0.407804 0.88992,-0.792051 3.425214,-2.688087 4.621562,-3.456245 0.09307,-0.05974 0.444086,-0.362789 0.780088,-0.673428 0.894735,-0.827191 1.326855,-1.134359 1.597003,-1.135224 0.146692,-4.69e-4 0.260134,0.128101 0.787467,0.892109 0.656202,0.950744 0.791771,1.267576 0.73975,1.728804 -0.03316,0.294587 -0.114815,0.495763 -0.478666,1.180664 -0.661262,1.244652 -1.477746,2.965522 -1.81935,3.834586 -0.270945,0.689374 -0.330594,1.017269 -0.205546,1.130434 0.180395,0.163239 0.563623,0.231752 1.296436,0.231752 0.948703,0 1.018005,-0.01591 1.867226,-0.429404 0.40135,-0.195402 0.794338,-0.364943 0.87334,-0.376749 0.130434,-0.01948 0.152811,-0.01168 0.243573,0.08553 0.176072,0.188502 0.321316,0.730231 0.360333,1.343929 0.03852,0.602865 -0.08662,0.741083 -0.849387,0.940118 -1.466546,0.382656 -4.243398,2.438018 -5.200974,3.849637 -0.452131,0.666519 -0.753115,1.726038 -1.040102,3.661296 -0.262054,1.767145 -0.527837,4.933791 -0.595378,7.093456 -0.03724,1.189067 -0.07251,1.479501 -0.218728,1.798896 -0.04554,0.09948 -0.121571,0.206245 -0.169008,0.237362 -0.19778,0.12961 -1.610358,0.463253 -2.652338,0.626516 -0.839625,0.131498 -2.34001,0.196989 -3.146115,0.13707 z M 29.494768,30.586369 c 0.06431,-0.04658 0.437629,-0.411286 0.829638,-0.81047 0.755949,-0.76979 1.053536,-1.017435 1.295975,-1.078482 0.375698,-0.09459 0.899608,-0.586106 1.130499,-1.060576 0.07359,-0.151212 0.142252,-0.328387 0.152587,-0.393724 0.03327,-0.21033 0.0071,-0.221205 -0.516187,-0.215628 -0.54319,0.0058 -0.860346,0.07393 -1.262781,0.271322 -0.422779,0.207369 -0.863753,0.71872 -1.26907,1.471606 -0.400979,0.744828 -0.718274,1.813368 -0.557705,1.878158 0.06923,0.02793 0.07521,0.02605 0.197044,-0.06222 z"
       id="path6" />
  </g>
</svg>
