<?xml version="1.0" encoding="UTF-8" standalone="no"?>
<svg
   width="64"
   height="64"
   version="1.1"
   id="svg73"
   sodipodi:docname="accessories-calculator.svg"
   inkscape:version="1.4.2 (ebf0e940d0, 2025-05-08)"
   xmlns:inkscape="http://www.inkscape.org/namespaces/inkscape"
   xmlns:sodipodi="http://sodipodi.sourceforge.net/DTD/sodipodi-0.dtd"
   xmlns="http://www.w3.org/2000/svg"
   xmlns:svg="http://www.w3.org/2000/svg"
   xmlns:rdf="http://www.w3.org/1999/02/22-rdf-syntax-ns#"
   xmlns:cc="http://creativecommons.org/ns#"
   xmlns:dc="http://purl.org/dc/elements/1.1/">
  <metadata
     id="metadata77">
    <rdf:RDF>
      <cc:Work
         rdf:about="">
        <dc:format>image/svg+xml</dc:format>
        <dc:type
           rdf:resource="http://purl.org/dc/dcmitype/StillImage" />
      </cc:Work>
    </rdf:RDF>
  </metadata>
  <sodipodi:namedview
     pagecolor="#f5f7fa"
     bordercolor="#666666"
     borderopacity="1"
     objecttolerance="10"
     gridtolerance="10"
     guidetolerance="10"
     inkscape:pageopacity="0"
     inkscape:pageshadow="2"
     inkscape:window-width="1377"
     inkscape:window-height="886"
     id="namedview75"
     showgrid="false"
     inkscape:zoom="6.2890625"
     inkscape:cx="48.258385"
     inkscape:cy="45.396273"
     inkscape:window-x="0"
     inkscape:window-y="47"
     inkscape:window-maximized="0"
     inkscape:current-layer="g877"
     inkscape:document-rotation="0"
     inkscape:pagecheckerboard="0"
     inkscape:showpageshadow="2"
     inkscape:deskcolor="#d1d1d1" />
  <defs
     id="defs29" />
  <circle
     cx="32.516094"
     cy="31.877844"
     r="0"
     fill="url(#b)"
     stroke-width="1.5715"
     id="circle41"
     style="fill:url(#b)" />
  <g
     aria-label="GZ"
     transform="matrix(1.2212657,0,0,0.81882264,0.4960938,-0.1661539)"
     id="text93"
     style="font-weight:bold;font-size:11.5263px;line-height:1.25;font-family:sans-serif;-inkscape-font-specification:'sans-serif Bold';fill:#f2f2f2;stroke-width:0.288159" />
  <g
     id="g877"
     transform="matrix(1.1,0,0,1.1,-3.1845928,-3.2065454)">
    <circle
       style="opacity:1;fill:#414141;stroke:#dfdfdf;stroke-width:2.27272727;stroke-dasharray:none;fill-opacity:1;stroke-opacity:1"
       id="path1"
       cx="31.985994"
       cy="32.005951"
       r="25.454546" />
    <path
       id="path7"
       style="fill:#dfdfdf;fill-opacity:1;stroke:none;stroke-width:0.464151;stroke-dasharray:none;stroke-opacity:0.6"
       d="m 21.089221,23.691204 c -0.123422,0.0031 -0.238639,0.05396 -0.444194,0.156095 -0.578479,0.287424 -0.906698,0.757908 -0.906698,1.298862 0,0.35981 0.220097,0.773065 1.256465,2.354913 l 1.256467,1.917459 0.991492,-0.794927 c 0.545366,-0.437569 1.0348,-0.795894 1.086881,-0.795894 0.220978,0 0.03187,-0.357765 -1.074357,-2.036937 -1.067136,-1.619831 -1.212844,-1.790974 -1.672719,-1.966601 -0.238479,-0.09108 -0.369914,-0.136043 -0.493337,-0.13297 z m 21.706805,0.07228 c -0.247719,0.0032 -0.491005,0.09129 -0.713027,0.265944 -0.310925,0.244591 -2.485953,3.45057 -2.485953,3.66437 0,0.05656 0.19567,0.233052 0.43456,0.392163 0.238876,0.15911 0.694368,0.505472 1.011727,0.76891 0.317337,0.263435 0.603883,0.477326 0.636907,0.475993 0.03296,-0.0014 0.60779,-0.84818 1.2767,-1.881808 1.067899,-1.650175 1.215994,-1.940424 1.215994,-2.380926 0,-0.431371 -0.06061,-0.55709 -0.432637,-0.898027 -0.299188,-0.274155 -0.625749,-0.410681 -0.944271,-0.406619 z M 31.85494,25.694432 c -1.543116,0.0096 -3.064767,0.278898 -4.535419,0.807453 -5.06797,1.82143 -8.719002,6.373908 -9.493835,11.837183 -0.141546,0.998048 -0.009,1.463876 0.503935,1.777744 0.350845,0.214693 0.749654,0.220288 13.777768,0.191757 l 13.416441,-0.02902 0.338191,-0.378679 c 0.401185,-0.44903 0.43164,-0.89572 0.159977,-2.327936 -1.04659,-5.51698 -5.264101,-10.090111 -10.540265,-11.42852 -1.213394,-0.307802 -2.426591,-0.457448 -3.626793,-0.449979 z m -6.699545,7.808587 c 0.576148,0 1.020676,0.279079 1.297895,0.815162 0.345246,0.667631 0.09394,1.572008 -0.545366,1.961783 -1.053945,0.642571 -2.341829,-0.0984 -2.323113,-1.336439 0.01348,-0.892233 0.611044,-1.440506 1.570584,-1.440506 z m 13.796074,0 c 1.473729,0 1.998651,2.009576 0.727479,2.784654 -0.470366,0.28679 -1.078994,0.28871 -1.544565,0.0049 C 37.61093,35.973349 37.3963,35.607274 37.3963,35.030286 c 0,-0.942203 0.596017,-1.527225 1.555169,-1.527225 z" />
    <circle
       style="fill:#414141;fill-opacity:1;stroke:#dfdfdf;stroke-width:1.08705;stroke-dasharray:none;stroke-opacity:1"
       id="path1-6"
       cx="48.320271"
       cy="48.287033"
       r="12.17483" />
    <path
       style="fill:#dfdfdf;fill-opacity:1;stroke:none;stroke-width:0.422912;stroke-dasharray:none;stroke-opacity:0.6"
       d="m 48.329773,41.41231 a 0.40457954,0.40457955 0 0 0 -0.398221,0.41086 v 0.445628 a 2.0226954,2.0226954 0 0 0 -1.618156,1.98161 2.0226954,2.0226954 0 0 0 0.719003,1.543885 l -3.85576,8.060759 c -0.153612,0.297053 -0.127173,0.649756 0.06953,0.922851 0.19955,0.270553 0.53398,0.419662 0.880188,0.391898 0.346316,-0.03167 0.647998,-0.240182 0.786953,-0.5436 l 2.702194,-5.4597 c 0.130306,-0.253674 0.400065,-0.420745 0.696887,-0.421919 0.0079,-2.7e-5 0.01534,0.0031 0.02398,0.0037 0.0083,-2.31e-4 0.01535,-0.0037 0.02397,-0.0037 0.296831,9e-4 0.566575,0.168222 0.696881,0.421919 l 2.70219,5.4597 c 0.138967,0.303418 0.440639,0.511962 0.786955,0.5436 0.346206,0.0278 0.680624,-0.121322 0.880186,-0.391898 0.196672,-0.273111 0.223109,-0.625806 0.06953,-0.922851 l -3.854458,-8.059184 a 2.0226954,2.0226954 0 0 0 0.717252,-1.54546 2.0226954,2.0226954 0 0 0 -1.618157,-1.978456 V 41.82317 a 0.40457954,0.40457955 0 0 0 -0.410866,-0.41086 z m 0.0064,1.624476 a 1.2136171,1.2136172 0 0 1 1.213613,1.213622 1.2136171,1.2136172 0 0 1 -1.213613,1.213615 1.2136171,1.2136172 0 0 1 -1.213622,-1.213615 1.2136171,1.2136172 0 0 1 1.213622,-1.213622 z"
       id="path13" />
  </g>
</svg>
