<?xml version="1.0" encoding="UTF-8" standalone="no"?>
<svg
   width="64"
   height="64"
   version="1.1"
   id="svg73"
   sodipodi:docname="smile.svg"
   inkscape:version="1.4.2 (ebf0e940d0, 2025-05-08)"
   xmlns:inkscape="http://www.inkscape.org/namespaces/inkscape"
   xmlns:sodipodi="http://sodipodi.sourceforge.net/DTD/sodipodi-0.dtd"
   xmlns="http://www.w3.org/2000/svg"
   xmlns:svg="http://www.w3.org/2000/svg"
   xmlns:rdf="http://www.w3.org/1999/02/22-rdf-syntax-ns#"
   xmlns:cc="http://creativecommons.org/ns#"
   xmlns:dc="http://purl.org/dc/elements/1.1/">
  <metadata
     id="metadata77">
    <rdf:RDF>
      <cc:Work
         rdf:about="">
        <dc:format>image/svg+xml</dc:format>
        <dc:type
           rdf:resource="http://purl.org/dc/dcmitype/StillImage" />
      </cc:Work>
    </rdf:RDF>
  </metadata>
  <sodipodi:namedview
     pagecolor="#f5f7fa"
     bordercolor="#666666"
     borderopacity="1"
     objecttolerance="10"
     gridtolerance="10"
     guidetolerance="10"
     inkscape:pageopacity="0"
     inkscape:pageshadow="2"
     inkscape:window-width="1377"
     inkscape:window-height="678"
     id="namedview75"
     showgrid="false"
     inkscape:zoom="4.4470387"
     inkscape:cx="47.559739"
     inkscape:cy="37.440646"
     inkscape:window-x="18"
     inkscape:window-y="126"
     inkscape:window-maximized="0"
     inkscape:current-layer="g877"
     inkscape:document-rotation="0"
     inkscape:pagecheckerboard="0"
     inkscape:showpageshadow="2"
     inkscape:deskcolor="#d1d1d1" />
  <defs
     id="defs29" />
  <circle
     cx="32.516094"
     cy="31.877844"
     r="0"
     fill="url(#b)"
     stroke-width="1.5715"
     id="circle41"
     style="fill:url(#b)" />
  <g
     aria-label="GZ"
     transform="matrix(1.2212657,0,0,0.81882264,0.4960938,-0.1661539)"
     id="text93"
     style="font-weight:bold;font-size:11.5263px;line-height:1.25;font-family:sans-serif;-inkscape-font-specification:'sans-serif Bold';fill:#f2f2f2;stroke-width:0.288159" />
  <g
     id="g877"
     transform="matrix(1.1,0,0,1.1,-3.1845928,-3.2065454)">
    <circle
       style="opacity:1;fill:#414141;stroke:#dfdfdf;stroke-width:2.27272727;stroke-dasharray:none;fill-opacity:1;stroke-opacity:1"
       id="path1"
       cx="31.985994"
       cy="32.005951"
       r="25.454546" />
    <path
       d="m 33.736542,28.506619 h 0.93498 c 1.208363,2.094132 3.471992,3.499329 6.063688,3.499329 0.601449,0 1.191959,-0.07654 1.749666,-0.218707 v 0.218707 1.749669 10.498001 c 0,0.967784 -0.78188,1.749667 -1.749666,1.749667 -0.967784,0 -1.749671,-0.781883 -1.749671,-1.749667 v -7.698533 l -7.436081,5.948866 h 3.06192 c 0.967782,0 1.749665,0.781883 1.749665,1.749667 0,0.967784 -0.781883,1.749667 -1.749665,1.749667 h -7.873501 c -2.897887,0 -5.249003,-2.351118 -5.249003,-5.249 v -12.22033 c 0,-0.8803 -0.656123,-1.629376 -1.530956,-1.73873 l -0.431951,-0.05467 c -0.962316,-0.114823 -1.640311,-0.989658 -1.52549,-1.951974 0.114821,-0.962316 0.995124,-1.640313 1.951973,-1.520024 l 0.431949,0.05467 c 2.624499,0.328062 4.598342,2.558888 4.598342,5.210728 v 4.663952 c 1.88089,-2.826806 5.095906,-4.691294 8.748334,-4.691294 z m 8.748334,1.448941 v 0 c -0.546774,0.191367 -1.137283,0.300722 -1.749666,0.300722 -1.552829,0 -2.952561,-0.677996 -3.914879,-1.749666 v 0 c -0.202306,-0.224176 -0.38274,-0.464755 -0.541304,-0.721735 -0.503029,-0.80922 -0.792818,-1.760605 -0.792818,-2.777599 v 0 -5.248999 -1.093541 -0.07108 c 0,-0.322596 0.256984,-0.579577 0.579578,-0.585045 h 0.01093 c 0.180437,0 0.349932,0.08749 0.459287,0.229645 v 0.0054 l 0.699864,0.92951 1.487221,1.984778 0.262455,0.349932 h 3.499333 l 0.262458,-0.349932 1.487209,-1.984778 0.699869,-0.92951 v -0.0054 c 0.109372,-0.142162 0.278831,-0.229645 0.459288,-0.229645 h 0.01129 c 0.322594,0.0054 0.579579,0.262451 0.579579,0.585045 v 0.07108 1.09354 5.249 c 0,0.945916 -0.251528,1.83715 -0.688939,2.602631 -0.617854,1.082604 -1.618441,1.924633 -2.810403,2.345646 z m -2.624497,-4.948278 c 0,-0.481157 -0.393678,-0.874831 -0.87484,-0.874831 -0.481155,0 -0.87483,0.393674 -0.87483,0.874831 0,0.481161 0.393675,0.874835 0.87483,0.874835 0.481162,0 0.87484,-0.393674 0.87484,-0.874835 z m 2.624497,0.874835 c 0.481157,0 0.874837,-0.393674 0.874837,-0.874835 0,-0.481157 -0.39368,-0.874831 -0.874837,-0.874831 -0.481157,0 -0.874831,0.393674 -0.874831,0.874831 0,0.481161 0.393674,0.874835 0.874831,0.874835 z"
       id="path1-2"
       style="fill:#dfdfdf;fill-opacity:1;stroke-width:0.054677" />
  </g>
</svg>
