<?xml version="1.0" encoding="UTF-8" standalone="no"?>
<svg
   width="64"
   height="64"
   version="1.1"
   id="svg73"
   sodipodi:docname="accessories-text-editor.svg"
   inkscape:version="1.4.2 (ebf0e940d0, 2025-05-08)"
   xmlns:inkscape="http://www.inkscape.org/namespaces/inkscape"
   xmlns:sodipodi="http://sodipodi.sourceforge.net/DTD/sodipodi-0.dtd"
   xmlns="http://www.w3.org/2000/svg"
   xmlns:svg="http://www.w3.org/2000/svg"
   xmlns:rdf="http://www.w3.org/1999/02/22-rdf-syntax-ns#"
   xmlns:cc="http://creativecommons.org/ns#"
   xmlns:dc="http://purl.org/dc/elements/1.1/">
  <metadata
     id="metadata77">
    <rdf:RDF>
      <cc:Work
         rdf:about="">
        <dc:format>image/svg+xml</dc:format>
        <dc:type
           rdf:resource="http://purl.org/dc/dcmitype/StillImage" />
      </cc:Work>
    </rdf:RDF>
  </metadata>
  <sodipodi:namedview
     pagecolor="#f5f7fa"
     bordercolor="#666666"
     borderopacity="1"
     objecttolerance="10"
     gridtolerance="10"
     guidetolerance="10"
     inkscape:pageopacity="0"
     inkscape:pageshadow="2"
     inkscape:window-width="1377"
     inkscape:window-height="886"
     id="namedview75"
     showgrid="false"
     inkscape:zoom="6.2890624"
     inkscape:cx="47.622361"
     inkscape:cy="45.396274"
     inkscape:window-x="324"
     inkscape:window-y="75"
     inkscape:window-maximized="0"
     inkscape:current-layer="g877"
     inkscape:document-rotation="0"
     inkscape:pagecheckerboard="0"
     inkscape:showpageshadow="2"
     inkscape:deskcolor="#d1d1d1" />
  <defs
     id="defs29" />
  <circle
     cx="32.516094"
     cy="31.877844"
     r="0"
     fill="url(#b)"
     stroke-width="1.5715"
     id="circle41"
     style="fill:url(#b)" />
  <g
     aria-label="GZ"
     transform="matrix(1.2212657,0,0,0.81882264,0.4960938,-0.1661539)"
     id="text93"
     style="font-weight:bold;font-size:11.5263px;line-height:1.25;font-family:sans-serif;-inkscape-font-specification:'sans-serif Bold';fill:#f2f2f2;stroke-width:0.288159" />
  <g
     id="g877"
     transform="matrix(1.1,0,0,1.1,-3.1845928,-3.2065454)">
    <circle
       style="opacity:1;fill:#414141;stroke:#dfdfdf;stroke-width:2.27272727;stroke-dasharray:none;fill-opacity:1;stroke-opacity:1"
       id="path1"
       cx="31.985994"
       cy="32.005951"
       r="25.454546" />
    <path
       style="color:#000000;clip-rule:nonzero;display:inline;overflow:visible;visibility:visible;isolation:auto;mix-blend-mode:normal;color-interpolation:sRGB;color-interpolation-filters:linearRGB;solid-color:#000000;solid-opacity:1;fill:#dfdfdf;fill-opacity:1;fill-rule:nonzero;stroke:none;stroke-width:0.433251;stroke-linecap:butt;stroke-linejoin:miter;stroke-miterlimit:4;stroke-dasharray:none;stroke-dashoffset:0;stroke-opacity:0.6;marker:none;color-rendering:auto;image-rendering:auto;shape-rendering:auto;text-rendering:auto;enable-background:accumulate"
       d="m 30.069268,18.184831 c -0.344946,0 -0.6324,1.372424 -0.801136,3.333809 a 10.541997,10.859454 0 0 0 -2.547523,1.102913 c -1.471611,-1.270505 -2.621154,-2.037429 -2.865728,-1.785488 l -2.712244,2.79392 c -0.244577,0.251936 0.499928,1.4361 1.733288,2.952026 a 10.541997,10.859454 0 0 0 -1.061313,2.624241 c -1.909379,0.173647 -3.245705,0.469327 -3.245705,0.825258 v 3.948887 c 0,0.355333 1.332302,0.651446 3.236348,0.825262 a 10.541997,10.859454 0 0 0 1.066927,2.630018 c -1.230557,1.513208 -1.973828,2.694601 -1.729545,2.946238 l 2.712244,2.793913 c 0.244044,0.251416 1.389461,-0.512412 2.856371,-1.777766 a 10.541997,10.859454 0 0 0 2.55688,1.085558 c 0.168571,1.966885 0.455614,3.34345 0.801136,3.34345 h 3.833451 c 0.344946,0 0.632402,-1.372425 0.801134,-3.333807 a 10.541997,10.859454 0 0 0 2.547525,-1.10291 c 1.471616,1.270504 2.621153,2.037421 2.865732,1.785475 l 2.712247,-2.793913 c 0.24459,-0.25188 -0.499934,-1.436096 -1.733293,-2.952024 a 10.541997,10.859454 0 0 0 1.06131,-2.624232 c 1.909379,-0.173654 3.245709,-0.469331 3.245709,-0.825263 v -3.948888 c 0,-0.355333 -1.332305,-0.651445 -3.236344,-0.825256 a 10.541997,10.859454 0 0 0 -1.066937,-2.630023 c 1.230558,-1.513216 1.973835,-2.694608 1.729555,-2.946244 l -2.712247,-2.79392 c -0.24407,-0.251395 -1.389464,0.512425 -2.856378,1.777772 a 10.541997,10.859454 0 0 0 -2.556879,-1.085558 c -0.168571,-1.966877 -0.45561,-3.343444 -0.801134,-3.343444 z m 1.916725,8.885007 a 4.791817,4.936115 0 0 1 4.791817,4.936117 4.791817,4.936115 0 0 1 -4.791817,4.936112 4.791817,4.936115 0 0 1 -4.791815,-4.936112 4.791817,4.936115 0 0 1 4.791815,-4.936117 z"
       id="path4690"
       inkscape:connector-curvature="0" />
  </g>
</svg>
