<?xml version="1.0" encoding="UTF-8" standalone="no"?>
<svg
   width="64"
   height="64"
   version="1.1"
   id="svg73"
   sodipodi:docname="smile.svg"
   inkscape:version="1.4.2 (ebf0e940d0, 2025-05-08)"
   xmlns:inkscape="http://www.inkscape.org/namespaces/inkscape"
   xmlns:sodipodi="http://sodipodi.sourceforge.net/DTD/sodipodi-0.dtd"
   xmlns="http://www.w3.org/2000/svg"
   xmlns:svg="http://www.w3.org/2000/svg"
   xmlns:rdf="http://www.w3.org/1999/02/22-rdf-syntax-ns#"
   xmlns:cc="http://creativecommons.org/ns#"
   xmlns:dc="http://purl.org/dc/elements/1.1/">
  <metadata
     id="metadata77">
    <rdf:RDF>
      <cc:Work
         rdf:about="">
        <dc:format>image/svg+xml</dc:format>
        <dc:type
           rdf:resource="http://purl.org/dc/dcmitype/StillImage" />
      </cc:Work>
    </rdf:RDF>
  </metadata>
  <sodipodi:namedview
     pagecolor="#f5f7fa"
     bordercolor="#666666"
     borderopacity="1"
     objecttolerance="10"
     gridtolerance="10"
     guidetolerance="10"
     inkscape:pageopacity="0"
     inkscape:pageshadow="2"
     inkscape:window-width="1377"
     inkscape:window-height="678"
     id="namedview75"
     showgrid="false"
     inkscape:zoom="4.4470387"
     inkscape:cx="47.559739"
     inkscape:cy="37.440646"
     inkscape:window-x="18"
     inkscape:window-y="126"
     inkscape:window-maximized="0"
     inkscape:current-layer="g877"
     inkscape:document-rotation="0"
     inkscape:pagecheckerboard="0"
     inkscape:showpageshadow="2"
     inkscape:deskcolor="#d1d1d1" />
  <defs
     id="defs29" />
  <circle
     cx="32.516094"
     cy="31.877844"
     r="0"
     fill="url(#b)"
     stroke-width="1.5715"
     id="circle41"
     style="fill:url(#b)" />
  <g
     aria-label="GZ"
     transform="matrix(1.2212657,0,0,0.81882264,0.4960938,-0.1661539)"
     id="text93"
     style="font-weight:bold;font-size:11.5263px;line-height:1.25;font-family:sans-serif;-inkscape-font-specification:'sans-serif Bold';fill:#f2f2f2;stroke-width:0.288159" />
  <g
     id="g877"
     transform="matrix(1.1,0,0,1.1,-3.1845928,-3.2065454)">
    <circle
       style="opacity:1;fill:#414141;stroke:#dfdfdf;stroke-width:2.27272727;stroke-dasharray:none;fill-opacity:1;stroke-opacity:1"
       id="path1"
       cx="31.985994"
       cy="32.005951"
       r="25.454546" />
    <path
       d="m 34.689712,30.045143 q 0,2.898586 -1.047388,5.04208 -1.023032,2.143494 -3.215241,3.142163 l 4.213914,4.676717 h -4.798503 l -3.093452,-3.897257 q -0.07308,0 -0.170509,0 -0.09743,0 -0.17051,0 -2.825514,0 -4.676712,-1.120465 -1.826834,-1.120463 -2.728075,-3.142169 -0.876886,-2.021703 -0.876886,-4.725428 0,-2.679368 0.876886,-4.676716 0.901241,-2.021701 2.728083,-3.117809 1.851198,-1.120461 4.701072,-1.120461 2.825514,0 4.652354,1.120461 1.8512,1.096108 2.728084,3.117809 0.876883,1.997348 0.876883,4.701075 z m -12.641742,0 q 0,2.72808 1.023032,4.286986 1.047388,1.534547 3.337031,1.534547 2.338356,0 3.337028,-1.534547 1.023031,-1.558906 1.023031,-4.286986 0,-2.728086 -1.023031,-4.286988 -0.998672,-1.558907 -3.31267,-1.558907 -2.314001,0 -3.361389,1.558907 -1.023032,1.558902 -1.023032,4.286988 z m 21.508023,6.065114 q 0.608948,0 1.169175,-0.121804 0.560232,-0.121788 1.120469,-0.292296 v 2.703731 q -0.584593,0.243627 -1.461476,0.414084 -0.852531,0.194829 -1.875557,0.194829 -1.193539,0 -2.143496,-0.389721 -0.925599,-0.389697 -1.485828,-1.339654 -0.535875,-0.974319 -0.535875,-2.679371 v -6.406113 h -1.729412 v -1.534547 l 1.997345,-1.217894 1.047394,-2.801156 h 2.314 v 2.825513 h 3.726749 v 2.728084 h -3.726749 v 6.406124 q 0,0.755094 0.43844,1.144821 0.438436,0.365369 1.144821,0.36537 z"
       id="text3"
       style="font-weight:bold;font-size:7.51258px;-inkscape-font-specification:'sans-serif Bold';fill:#dfdfdf;fill-opacity:1;stroke:none;stroke-width:0.354369;stroke-dasharray:none;stroke-opacity:0.6"
       aria-label="Qt" />
  </g>
</svg>
