<?xml version="1.0" encoding="UTF-8" standalone="no"?>
<svg
   width="64"
   height="64"
   version="1.1"
   id="svg73"
   sodipodi:docname="smile.svg"
   inkscape:version="1.4.2 (ebf0e940d0, 2025-05-08)"
   xmlns:inkscape="http://www.inkscape.org/namespaces/inkscape"
   xmlns:sodipodi="http://sodipodi.sourceforge.net/DTD/sodipodi-0.dtd"
   xmlns="http://www.w3.org/2000/svg"
   xmlns:svg="http://www.w3.org/2000/svg"
   xmlns:rdf="http://www.w3.org/1999/02/22-rdf-syntax-ns#"
   xmlns:cc="http://creativecommons.org/ns#"
   xmlns:dc="http://purl.org/dc/elements/1.1/">
  <metadata
     id="metadata77">
    <rdf:RDF>
      <cc:Work
         rdf:about="">
        <dc:format>image/svg+xml</dc:format>
        <dc:type
           rdf:resource="http://purl.org/dc/dcmitype/StillImage" />
      </cc:Work>
    </rdf:RDF>
  </metadata>
  <sodipodi:namedview
     pagecolor="#f5f7fa"
     bordercolor="#666666"
     borderopacity="1"
     objecttolerance="10"
     gridtolerance="10"
     guidetolerance="10"
     inkscape:pageopacity="0"
     inkscape:pageshadow="2"
     inkscape:window-width="1377"
     inkscape:window-height="678"
     id="namedview75"
     showgrid="false"
     inkscape:zoom="4.4470387"
     inkscape:cx="47.559739"
     inkscape:cy="37.440646"
     inkscape:window-x="18"
     inkscape:window-y="126"
     inkscape:window-maximized="0"
     inkscape:current-layer="g877"
     inkscape:document-rotation="0"
     inkscape:pagecheckerboard="0"
     inkscape:showpageshadow="2"
     inkscape:deskcolor="#d1d1d1" />
  <defs
     id="defs29" />
  <circle
     cx="32.516094"
     cy="31.877844"
     r="0"
     fill="url(#b)"
     stroke-width="1.5715"
     id="circle41"
     style="fill:url(#b)" />
  <g
     aria-label="GZ"
     transform="matrix(1.2212657,0,0,0.81882264,0.4960938,-0.1661539)"
     id="text93"
     style="font-weight:bold;font-size:11.5263px;line-height:1.25;font-family:sans-serif;-inkscape-font-specification:'sans-serif Bold';fill:#f2f2f2;stroke-width:0.288159" />
  <g
     id="g877"
     transform="matrix(1.1,0,0,1.1,-3.1845928,-3.2065454)">
    <circle
       style="opacity:1;fill:#414141;stroke:#dfdfdf;stroke-width:2.27272727;stroke-dasharray:none;fill-opacity:1;stroke-opacity:1"
       id="path1"
       cx="31.985994"
       cy="32.005951"
       r="25.454546" />
    <path
       id="path5"
       style="fill:#dfdfdf;fill-opacity:1;stroke:none;stroke-width:0.0221056;stroke-opacity:0.5"
       d="m 31.933521,18.440253 c -0.292386,0.0037 -0.585026,0.02469 -0.763681,0.06269 -0.670201,0.14256 -0.843354,0.226503 -2.541803,1.231959 l -0.995444,0.588907 v 5.723808 5.722855 l 0.11778,0.321049 c 0.402352,1.100943 1.502896,2.122985 2.756469,2.559852 0.328868,0.114606 0.401961,0.123454 1.039139,0.122529 0.629199,-7.67e-4 0.715941,-0.01117 1.060983,-0.124428 1.350436,-0.443286 2.299687,-1.438915 2.63584,-2.76407 0.120949,-0.476796 0.146242,-1.169621 0.05983,-1.646093 -0.129039,-0.711593 -0.486534,-1.402599 -1.006845,-1.947202 -0.678639,-0.710324 -1.48491,-1.097776 -2.518058,-1.209162 l -0.276409,-0.02943 V 25.614486 24.17546 l 0.409386,0.02566 c 0.46606,0.02913 1.051357,0.185296 1.460872,0.390391 0.150844,0.07555 0.903839,0.505991 1.673639,0.9565 1.489123,0.871473 1.874142,1.154011 2.291043,1.681238 0.452171,0.571824 0.747821,1.199377 0.890011,1.888305 0.07175,0.347592 0.08215,0.614801 0.08265,2.091573 4.73e-4,1.374987 -0.01228,1.756859 -0.06935,2.033632 -0.198029,0.962065 -0.627888,1.736452 -1.333582,2.402168 -0.403765,0.380892 -0.45644,0.415572 -2.067825,1.355439 -1.477981,0.862053 -1.845509,1.034271 -2.496212,1.169267 -0.819408,0.169996 -1.872388,0.05211 -2.632039,-0.293503 -0.270731,-0.123189 -2.713851,-1.55153 -3.12596,-1.827525 -0.346709,-0.232197 -0.912384,-0.807554 -1.15502,-1.174969 -0.232325,-0.351794 -0.487912,-0.910388 -0.610756,-1.334538 l -0.102582,-0.354296 -0.01235,-5.55948 c -0.0068,-3.057763 -0.02205,-5.559482 -0.03419,-5.559482 -0.08775,0 -3.053133,1.797425 -3.284586,1.990889 -0.727841,0.60837 -1.220784,1.419713 -1.448526,2.386028 -0.07166,0.304038 -0.07981,0.733895 -0.09498,5.171943 -0.01685,4.926532 -8.92e-4,5.569162 0.148176,6.146491 0.229736,0.888709 0.793308,1.754684 1.492218,2.293893 0.214948,0.165841 2.020967,1.234685 6.991857,4.1366 2.03697,1.189149 2.323348,1.315816 3.126912,1.389634 0.201179,0.01842 0.415087,0.02854 0.475878,0.0218 0.06079,-0.0068 0.240744,-0.02364 0.399886,-0.03705 0.400149,-0.0338 0.887343,-0.175757 1.280402,-0.373291 0.372118,-0.187023 8.270049,-4.804624 8.571461,-5.011418 0.327929,-0.224998 0.779597,-0.680737 1.020139,-1.028691 0.450163,-0.651184 0.68102,-1.299553 0.754182,-2.121017 0.05538,-0.621596 0.05538,-9.39076 0,-10.004789 C 43.985385,25.732518 43.334184,24.580981 42.310658,23.85726 42.031246,23.659693 34.114665,19.01792 33.734442,18.828744 33.460646,18.69252 33.01653,18.544812 32.695305,18.48395 32.518133,18.45039 32.22591,18.43661 31.933525,18.44026 Z m -0.918508,5.832089 v 1.412427 c 0,1.519016 0.0079,1.465623 -0.223212,1.465623 -0.04572,0 -0.232738,0.04724 -0.416035,0.105433 l -0.3334,0.106385 v -1.454224 c 0,-0.79985 0.0084,-1.454225 0.01897,-1.454222 0.01057,0 0.155329,-0.028 0.321052,-0.06174 0.165725,-0.03374 0.375191,-0.07425 0.466378,-0.09024 z m -1.458972,0.497723 v 1.421928 1.422878 l -0.207067,0.131078 c -0.114006,0.07204 -0.33354,0.248482 -0.487274,0.39229 l -0.279257,0.261209 0.01141,-1.623296 0.01138,-1.623298 0.475876,-0.191867 z" />
  </g>
</svg>
