<?xml version="1.0" encoding="UTF-8" standalone="no"?>
<svg
   width="64"
   height="64"
   version="1.1"
   id="svg73"
   sodipodi:docname="smile.svg"
   inkscape:version="1.4.2 (ebf0e940d0, 2025-05-08)"
   xmlns:inkscape="http://www.inkscape.org/namespaces/inkscape"
   xmlns:sodipodi="http://sodipodi.sourceforge.net/DTD/sodipodi-0.dtd"
   xmlns="http://www.w3.org/2000/svg"
   xmlns:svg="http://www.w3.org/2000/svg"
   xmlns:rdf="http://www.w3.org/1999/02/22-rdf-syntax-ns#"
   xmlns:cc="http://creativecommons.org/ns#"
   xmlns:dc="http://purl.org/dc/elements/1.1/">
  <metadata
     id="metadata77">
    <rdf:RDF>
      <cc:Work
         rdf:about="">
        <dc:format>image/svg+xml</dc:format>
        <dc:type
           rdf:resource="http://purl.org/dc/dcmitype/StillImage" />
      </cc:Work>
    </rdf:RDF>
  </metadata>
  <sodipodi:namedview
     pagecolor="#f5f7fa"
     bordercolor="#666666"
     borderopacity="1"
     objecttolerance="10"
     gridtolerance="10"
     guidetolerance="10"
     inkscape:pageopacity="0"
     inkscape:pageshadow="2"
     inkscape:window-width="1377"
     inkscape:window-height="678"
     id="namedview75"
     showgrid="false"
     inkscape:zoom="4.4470387"
     inkscape:cx="47.559739"
     inkscape:cy="37.440646"
     inkscape:window-x="18"
     inkscape:window-y="126"
     inkscape:window-maximized="0"
     inkscape:current-layer="g877"
     inkscape:document-rotation="0"
     inkscape:pagecheckerboard="0"
     inkscape:showpageshadow="2"
     inkscape:deskcolor="#d1d1d1" />
  <defs
     id="defs29" />
  <circle
     cx="32.516094"
     cy="31.877844"
     r="0"
     fill="url(#b)"
     stroke-width="1.5715"
     id="circle41"
     style="fill:url(#b)" />
  <g
     aria-label="GZ"
     transform="matrix(1.2212657,0,0,0.81882264,0.4960938,-0.1661539)"
     id="text93"
     style="font-weight:bold;font-size:11.5263px;line-height:1.25;font-family:sans-serif;-inkscape-font-specification:'sans-serif Bold';fill:#f2f2f2;stroke-width:0.288159" />
  <g
     id="g877"
     transform="matrix(1.1,0,0,1.1,-3.1845928,-3.2065454)">
    <circle
       style="opacity:1;fill:#414141;stroke:#dfdfdf;stroke-width:2.27272727;stroke-dasharray:none;fill-opacity:1;stroke-opacity:1"
       id="path1"
       cx="31.985994"
       cy="32.005951"
       r="25.454546" />
    <path
       d="m 24.694488,25.322117 c -1.000235,0 -1.82303,0.822794 -1.82303,1.82303 6.08e-4,0.999627 0.823403,1.821813 1.82303,1.821813 0.999627,0 1.82242,-0.822186 1.823029,-1.821813 0,-1.000236 -0.822794,-1.82303 -1.823029,-1.82303 z m 4.861409,0 c -1.000236,0 -1.823029,0.822794 -1.823029,1.82303 6.06e-4,0.999627 0.823403,1.821813 1.823029,1.821813 0.999628,0 1.822421,-0.822186 1.82303,-1.821813 0,-1.000236 -0.822795,-1.82303 -1.82303,-1.82303 z m 4.861409,0 c -1.000234,0 -1.823028,0.822794 -1.823028,1.82303 6.08e-4,0.999627 0.823402,1.821813 1.823028,1.821813 0.999628,0 1.822423,-0.822186 1.823033,-1.821813 0,-1.000236 -0.822797,-1.82303 -1.823033,-1.82303 z m 4.860192,0 c -1.000232,0 -1.823027,0.822794 -1.823027,1.82303 6.11e-4,0.999627 0.8234,1.821813 1.823027,1.821813 0.999637,0 1.822424,-0.822186 1.823029,-1.821813 0,-1.000236 -0.822787,-1.82303 -1.823029,-1.82303 z m -19.444419,4.860196 c -1.000236,0 -1.823029,0.822792 -1.823029,1.823029 0,1.000234 0.822793,1.823028 1.823029,1.823028 1.000233,0 1.823026,-0.822794 1.823026,-1.823028 0,-1.000237 -0.822793,-1.823029 -1.823026,-1.823029 z m 4.861409,0 c -1.000235,0 -1.82303,0.822792 -1.82303,1.823029 0,1.000234 0.822795,1.823028 1.82303,1.823028 1.000235,0 1.823029,-0.822794 1.823029,-1.823028 0,-1.000237 -0.822794,-1.823029 -1.823029,-1.823029 z m 4.861409,0 c -1.000236,0 -1.823029,0.822792 -1.823029,1.823029 0,1.000234 0.822793,1.823028 1.823029,1.823028 1.000235,0 1.82303,-0.822794 1.82303,-1.823028 0,-1.000237 -0.822795,-1.823029 -1.82303,-1.823029 z m 4.861409,0 c -1.000234,0 -1.823028,0.822792 -1.823028,1.823029 0,1.000234 0.822794,1.823028 1.823028,1.823028 1.000236,0 1.823033,-0.822794 1.823033,-1.823028 0,-1.000237 -0.822797,-1.823029 -1.823033,-1.823029 z m 4.860192,0 c -1.000232,0 -1.823027,0.822792 -1.823027,1.823029 0,1.000234 0.822795,1.823028 1.823027,1.823028 1.000234,0 1.823029,-0.822794 1.823029,-1.823028 0,-1.000237 -0.822787,-1.823029 -1.823029,-1.823029 z m 4.861412,0 c -1.000236,0 -1.823028,0.822792 -1.823028,1.823029 0,1.000234 0.822792,1.823028 1.823028,1.823028 1.000233,0 1.823027,-0.822794 1.823027,-1.823028 0,-1.000237 -0.822794,-1.823029 -1.823027,-1.823029 z m -24.305831,4.861411 c -1.000236,0 -1.823029,0.822793 -1.823029,1.823029 0,1.000235 0.822793,1.82303 1.823029,1.82303 1.000233,0 1.823026,-0.822795 1.823026,-1.82303 0,-1.000236 -0.822793,-1.823029 -1.823026,-1.823029 z m 4.861409,0 c -1.000235,0 -1.82303,0.822793 -1.82303,1.823029 0,1.000235 0.822795,1.82303 1.82303,1.82303 1.000235,0 1.823029,-0.822795 1.823029,-1.82303 0,-1.000236 -0.822794,-1.823029 -1.823029,-1.823029 z m 14.58301,0 c -1.000232,0 -1.823027,0.822793 -1.823027,1.823029 0,1.000235 0.822795,1.82303 1.823027,1.82303 1.000234,0 1.823029,-0.822795 1.823029,-1.82303 0,-1.000236 -0.822787,-1.823029 -1.823029,-1.823029 z m 4.861412,0 c -1.000236,0 -1.823028,0.822793 -1.823028,1.823029 0,1.000235 0.822792,1.82303 1.823028,1.82303 1.000233,0 1.823027,-0.822795 1.823027,-1.82303 0,-1.000236 -0.822794,-1.823029 -1.823027,-1.823029 z"
       fill="#ffffff"
       fill-rule="nonzero"
       id="path16"
       style="fill:#dfdfdf;fill-opacity:1;stroke:none;stroke-width:0.416787;stroke-dasharray:none;stroke-opacity:0.6" />
  </g>
</svg>
