<?xml version="1.0" encoding="UTF-8" standalone="no"?>
<svg
   width="64"
   height="64"
   version="1.1"
   id="svg73"
   sodipodi:docname="brasero.svg"
   inkscape:version="1.4.2 (ebf0e940d0, 2025-05-08)"
   xmlns:inkscape="http://www.inkscape.org/namespaces/inkscape"
   xmlns:sodipodi="http://sodipodi.sourceforge.net/DTD/sodipodi-0.dtd"
   xmlns="http://www.w3.org/2000/svg"
   xmlns:svg="http://www.w3.org/2000/svg"
   xmlns:rdf="http://www.w3.org/1999/02/22-rdf-syntax-ns#"
   xmlns:cc="http://creativecommons.org/ns#"
   xmlns:dc="http://purl.org/dc/elements/1.1/">
  <metadata
     id="metadata77">
    <rdf:RDF>
      <cc:Work
         rdf:about="">
        <dc:format>image/svg+xml</dc:format>
        <dc:type
           rdf:resource="http://purl.org/dc/dcmitype/StillImage" />
      </cc:Work>
    </rdf:RDF>
  </metadata>
  <sodipodi:namedview
     pagecolor="#f5f7fa"
     bordercolor="#666666"
     borderopacity="1"
     objecttolerance="10"
     gridtolerance="10"
     guidetolerance="10"
     inkscape:pageopacity="0"
     inkscape:pageshadow="2"
     inkscape:window-width="1377"
     inkscape:window-height="886"
     id="namedview75"
     showgrid="false"
     inkscape:zoom="6.2890625"
     inkscape:cx="48.258385"
     inkscape:cy="45.396273"
     inkscape:window-x="0"
     inkscape:window-y="47"
     inkscape:window-maximized="0"
     inkscape:current-layer="g877"
     inkscape:document-rotation="0"
     inkscape:pagecheckerboard="0"
     inkscape:showpageshadow="2"
     inkscape:deskcolor="#d1d1d1" />
  <defs
     id="defs29" />
  <circle
     cx="32.516094"
     cy="31.877844"
     r="0"
     fill="url(#b)"
     stroke-width="1.5715"
     id="circle41"
     style="fill:url(#b)" />
  <g
     aria-label="GZ"
     transform="matrix(1.2212657,0,0,0.81882264,0.4960938,-0.1661539)"
     id="text93"
     style="font-weight:bold;font-size:11.5263px;line-height:1.25;font-family:sans-serif;-inkscape-font-specification:'sans-serif Bold';fill:#f2f2f2;stroke-width:0.288159" />
  <g
     id="g877"
     transform="matrix(1.1,0,0,1.1,-3.1845928,-3.2065454)">
    <circle
       style="opacity:1;fill:#414141;stroke:#dfdfdf;stroke-width:2.27272727;stroke-dasharray:none;fill-opacity:1;stroke-opacity:1"
       id="path1"
       cx="31.985994"
       cy="32.005951"
       r="25.454546" />
    <path
       d="m 31.985991,18.339565 c -0.654261,0 -1.307348,0.169449 -1.894535,0.508346 l -8.946678,5.165846 a 3.7855407,3.7855406 0 0 0 -1.894536,3.280722 v 10.331696 c 0,1.354416 0.720159,2.602926 1.894536,3.280721 l 8.946678,5.165844 a 3.7855407,3.7855406 0 0 0 3.789072,0 l 8.94668,-5.165844 a 3.7855407,3.7855406 0 0 0 1.894529,-3.280721 V 27.294479 a 3.7855407,3.7855406 0 0 0 -1.894529,-3.280722 l -8.94668,-5.165846 a 3.7867176,3.7867175 0 0 0 -1.894537,-0.508346 z m 0,2.77473 c 0.176516,0 0.351845,0.04589 0.507171,0.135324 l 8.947854,5.165844 c 0.155261,0.09061 0.282418,0.22005 0.370647,0.371851 l -9.825672,5.673011 v 11.346034 a 1.0155181,1.0155181 0 0 1 -0.507169,-0.136501 l -8.947857,-5.165841 a 1.0190482,1.0190483 0 0 1 -0.50717,-0.877842 V 27.294479 c 0,-0.18004 0.04826,-0.35537 0.1365,-0.505992 l 9.825696,5.671838 z"
       fill="#000000"
       stroke-width="1.1979"
       id="path719"
       style="fill:#dfdfdf;fill-opacity:1;stroke:none;stroke-width:0.446513;stroke-dasharray:none;stroke-opacity:0.6" />
    <circle
       style="fill:#414141;fill-opacity:1;stroke:#dfdfdf;stroke-width:1.08705;stroke-dasharray:none;stroke-opacity:1"
       id="path1-6"
       cx="48.320271"
       cy="48.287033"
       r="12.17483" />
    <path
       style="fill:#dfdfdf;fill-opacity:1;stroke:none;stroke-width:0.216067;stroke-dasharray:none;stroke-opacity:0.6"
       d="m 42.834138,54.781617 c -0.288597,-0.116749 -0.531313,-0.493025 -0.581209,-0.901033 -0.02599,-0.212446 -0.03667,-1.641895 -0.02375,-3.176566 0.02146,-2.547579 0.03505,-2.807316 0.156299,-2.985903 0.197394,-0.29074 0.553761,-0.428542 1.108235,-0.428542 h 0.484549 l 7.34e-4,-1.486939 c 9.9e-4,-1.989982 0.154642,-2.540796 0.930076,-3.337896 0.713453,-0.733392 1.837561,-1.120366 3.254505,-1.120366 1.328173,0 2.358769,0.325196 3.050083,0.962428 0.482988,0.445204 0.733135,0.837499 0.95948,1.504712 0.178801,0.527065 0.199164,0.704525 0.232693,2.027837 l 0.03677,1.450224 0.485594,2.72e-4 c 0.357437,2.04e-4 0.549731,0.03937 0.728647,0.148466 0.446346,0.272129 0.454514,0.337522 0.454514,3.637755 0,3.302536 -0.0067,3.354899 -0.471413,3.638228 -0.215854,0.131644 -0.463809,0.137717 -5.439622,0.133543 -2.867409,-0.0024 -5.282247,-0.03222 -5.366313,-0.0662 z m 7.899612,-8.811013 c 0,-1.151924 -0.01914,-1.370163 -0.151244,-1.723202 -0.185258,-0.495148 -0.649517,-0.930761 -1.194674,-1.120962 -0.457952,-0.159779 -1.827517,-0.183402 -2.300374,-0.03969 -0.550889,0.167438 -0.991189,0.525029 -1.23509,1.003086 -0.220265,0.431732 -0.222118,0.445429 -0.246016,1.817367 l -0.02408,1.382357 h 2.57574 2.575734 z"
       id="path53" />
  </g>
</svg>
