<?xml version="1.0" encoding="UTF-8" standalone="no"?>
<svg
   width="64"
   height="64"
   version="1.1"
   id="svg73"
   sodipodi:docname="accessories-text-editor.svg"
   inkscape:version="1.4.2 (ebf0e940d0, 2025-05-08)"
   xmlns:inkscape="http://www.inkscape.org/namespaces/inkscape"
   xmlns:sodipodi="http://sodipodi.sourceforge.net/DTD/sodipodi-0.dtd"
   xmlns="http://www.w3.org/2000/svg"
   xmlns:svg="http://www.w3.org/2000/svg"
   xmlns:rdf="http://www.w3.org/1999/02/22-rdf-syntax-ns#"
   xmlns:cc="http://creativecommons.org/ns#"
   xmlns:dc="http://purl.org/dc/elements/1.1/">
  <metadata
     id="metadata77">
    <rdf:RDF>
      <cc:Work
         rdf:about="">
        <dc:format>image/svg+xml</dc:format>
        <dc:type
           rdf:resource="http://purl.org/dc/dcmitype/StillImage" />
      </cc:Work>
    </rdf:RDF>
  </metadata>
  <sodipodi:namedview
     pagecolor="#f5f7fa"
     bordercolor="#666666"
     borderopacity="1"
     objecttolerance="10"
     gridtolerance="10"
     guidetolerance="10"
     inkscape:pageopacity="0"
     inkscape:pageshadow="2"
     inkscape:window-width="1377"
     inkscape:window-height="886"
     id="namedview75"
     showgrid="false"
     inkscape:zoom="6.2890624"
     inkscape:cx="47.622361"
     inkscape:cy="45.396274"
     inkscape:window-x="324"
     inkscape:window-y="75"
     inkscape:window-maximized="0"
     inkscape:current-layer="g877"
     inkscape:document-rotation="0"
     inkscape:pagecheckerboard="0"
     inkscape:showpageshadow="2"
     inkscape:deskcolor="#d1d1d1" />
  <defs
     id="defs29" />
  <circle
     cx="32.516094"
     cy="31.877844"
     r="0"
     fill="url(#b)"
     stroke-width="1.5715"
     id="circle41"
     style="fill:url(#b)" />
  <g
     aria-label="GZ"
     transform="matrix(1.2212657,0,0,0.81882264,0.4960938,-0.1661539)"
     id="text93"
     style="font-weight:bold;font-size:11.5263px;line-height:1.25;font-family:sans-serif;-inkscape-font-specification:'sans-serif Bold';fill:#f2f2f2;stroke-width:0.288159" />
  <g
     id="g877"
     transform="matrix(1.1,0,0,1.1,-3.1845928,-3.2065454)">
    <circle
       style="opacity:1;fill:#414141;stroke:#dfdfdf;stroke-width:2.27272727;stroke-dasharray:none;fill-opacity:1;stroke-opacity:1"
       id="path1"
       cx="31.985994"
       cy="32.005951"
       r="25.454546" />
    <path
       style="fill:#dfdfdf;fill-opacity:1;stroke:none;stroke-width:0.459508;stroke-dasharray:none;stroke-opacity:0.6"
       d="M 30.651851,46.038054 C 27.71735,45.739901 25.063171,44.616893 22.832759,42.72972 22.622165,42.551535 22.171193,42.117788 21.8306,41.765832 18.757834,38.590613 17.388164,34.150278 18.10558,29.689716 c 0.281885,-1.752624 0.909825,-3.455635 1.854729,-5.030132 1.004705,-1.674148 2.692473,-3.406322 4.379241,-4.494471 1.92986,-1.244969 4.109741,-1.982504 6.4786,-2.191953 0.749479,-0.06629 2.435422,-0.02892 3.163629,0.07014 2.695751,0.366587 5.0572,1.307229 7.072718,2.817297 2.391705,1.791919 4.055172,4.231258 4.699955,6.892123 0.249371,1.029061 0.297912,1.453411 0.29887,2.612699 8.13e-4,0.931779 -0.01103,1.120652 -0.103927,1.576626 -0.5999,2.965921 -2.567789,5.253735 -5.306787,6.16951 -0.999166,0.334088 -1.338309,0.370829 -3.620223,0.392405 -1.970152,0.01856 -2.010858,0.02059 -2.370665,0.129239 -0.860738,0.259346 -1.433113,0.896598 -1.548032,1.723448 -0.08219,0.591346 0.117717,1.187615 0.629751,1.878515 0.344723,0.465145 0.371301,0.547088 0.395063,1.218357 0.01589,0.449096 0.0035,0.65628 -0.05247,0.878415 -0.183225,0.726887 -0.607533,1.267454 -1.227015,1.56325 l -0.353808,0.168965 -0.720744,0.0072 c -0.396411,0.004 -0.901602,-0.01101 -1.122647,-0.03334 z M 22.718268,31.963161 c 0.703337,-0.183194 1.288705,-0.700595 1.559744,-1.378649 0.147355,-0.368628 0.168216,-0.93754 0.04881,-1.330711 -0.413255,-1.360548 -1.940843,-1.999357 -3.145788,-1.315512 -0.547315,0.310622 -1.000339,0.957733 -1.107193,1.581542 -0.24837,1.449976 1.226482,2.812665 2.64445,2.44333 z m 18.363456,0.02368 c 0.393787,-0.07348 0.795111,-0.29727 1.124148,-0.626836 0.693897,-0.695009 0.85183,-1.603544 0.42787,-2.461364 -0.552853,-1.118614 -1.84521,-1.551642 -2.952303,-0.989224 -0.373109,0.189537 -0.780442,0.623143 -0.979832,1.043004 -0.146666,0.308783 -0.169023,0.401488 -0.18497,0.766669 -0.01392,0.331279 9e-4,0.478668 0.07673,0.727722 0.324967,1.069878 1.409885,1.74132 2.4884,1.540037 z M 28.24143,25.4286 c 0.796365,-0.23363 1.427978,-0.943121 1.575757,-1.770041 0.202182,-1.131331 -0.654222,-2.292142 -1.837861,-2.491126 -1.031091,-0.173339 -2.123874,0.536399 -2.426983,1.576274 -0.149809,0.513926 -0.05782,1.219936 0.217406,1.66885 0.142383,0.232217 0.474258,0.579411 0.706978,0.739592 0.47155,0.324562 1.207643,0.439879 1.764703,0.276451 z m 7.932554,-0.140799 c 0.488501,-0.242062 0.828743,-0.587718 1.062008,-1.078914 0.145738,-0.306945 0.16818,-0.400216 0.184157,-0.764979 0.01421,-0.33128 -9e-4,-0.478669 -0.07673,-0.727721 -0.313086,-1.030885 -1.385157,-1.722441 -2.400283,-1.548367 -1.181636,0.202629 -2.035459,1.341738 -1.849024,2.46684 0.102925,0.6211 0.54005,1.266004 1.06775,1.575256 0.379051,0.222133 0.67348,0.291785 1.176528,0.278317 0.432877,-0.01157 0.474739,-0.02166 0.835568,-0.200434 z"
       id="path7" />
  </g>
</svg>
