<?xml version="1.0" encoding="UTF-8" standalone="no"?>
<svg
   width="64"
   height="64"
   version="1.1"
   id="svg73"
   sodipodi:docname="ca.desrt.dconf-editor.svg"
   inkscape:version="1.4.2 (ebf0e940d0, 2025-05-08)"
   xmlns:inkscape="http://www.inkscape.org/namespaces/inkscape"
   xmlns:sodipodi="http://sodipodi.sourceforge.net/DTD/sodipodi-0.dtd"
   xmlns="http://www.w3.org/2000/svg"
   xmlns:svg="http://www.w3.org/2000/svg"
   xmlns:rdf="http://www.w3.org/1999/02/22-rdf-syntax-ns#"
   xmlns:cc="http://creativecommons.org/ns#"
   xmlns:dc="http://purl.org/dc/elements/1.1/">
  <metadata
     id="metadata77">
    <rdf:RDF>
      <cc:Work
         rdf:about="">
        <dc:format>image/svg+xml</dc:format>
        <dc:type
           rdf:resource="http://purl.org/dc/dcmitype/StillImage" />
      </cc:Work>
    </rdf:RDF>
  </metadata>
  <sodipodi:namedview
     pagecolor="#f5f7fa"
     bordercolor="#666666"
     borderopacity="1"
     objecttolerance="10"
     gridtolerance="10"
     guidetolerance="10"
     inkscape:pageopacity="0"
     inkscape:pageshadow="2"
     inkscape:window-width="1377"
     inkscape:window-height="886"
     id="namedview75"
     showgrid="false"
     inkscape:zoom="6.2890625"
     inkscape:cx="48.258385"
     inkscape:cy="45.396273"
     inkscape:window-x="0"
     inkscape:window-y="47"
     inkscape:window-maximized="0"
     inkscape:current-layer="g877"
     inkscape:document-rotation="0"
     inkscape:pagecheckerboard="0"
     inkscape:showpageshadow="2"
     inkscape:deskcolor="#d1d1d1" />
  <defs
     id="defs29" />
  <circle
     cx="32.516094"
     cy="31.877844"
     r="0"
     fill="url(#b)"
     stroke-width="1.5715"
     id="circle41"
     style="fill:url(#b)" />
  <g
     aria-label="GZ"
     transform="matrix(1.2212657,0,0,0.81882264,0.4960938,-0.1661539)"
     id="text93"
     style="font-weight:bold;font-size:11.5263px;line-height:1.25;font-family:sans-serif;-inkscape-font-specification:'sans-serif Bold';fill:#f2f2f2;stroke-width:0.288159" />
  <g
     id="g877"
     transform="matrix(1.1,0,0,1.1,-3.1845928,-3.2065454)">
    <circle
       style="opacity:1;fill:#414141;stroke:#dfdfdf;stroke-width:2.27272727;stroke-dasharray:none;fill-opacity:1;stroke-opacity:1"
       id="path1"
       cx="31.985994"
       cy="32.005951"
       r="25.454546" />
    <path
       style="fill:#dfdfdf;fill-opacity:1;stroke-width:0.0213435"
       d="m 23.346018,45.917844 c -1.33126,-0.170959 -2.469046,-1.106954 -2.908233,-2.392444 -0.03586,-0.104924 -0.08855,-0.29705 -0.117121,-0.426878 -0.04978,-0.22625 -0.05194,-0.687779 -0.05194,-11.09281 0,-10.405032 0.0022,-10.866552 0.05194,-11.092819 0.165232,-0.751024 0.461789,-1.286114 1.012617,-1.827113 0.373376,-0.366718 0.668747,-0.56737 1.091298,-0.74135 0.498054,-0.205067 0.902655,-0.280794 1.508109,-0.28226 l 0.362836,-8.94e-4 v 11.122943 11.122944 l -0.419752,0.01661 c -0.299355,0.012 -0.479579,0.03358 -0.628315,0.07603 -0.908221,0.259173 -1.513153,1.055496 -1.513153,1.991854 0,0.603173 0.182517,1.041723 0.612256,1.471138 0.22082,0.220648 0.301319,0.280126 0.52846,0.390287 0.363035,0.176064 0.554429,0.216433 1.029209,0.216956 l 0.391295,6.76e-4 v 0.739905 0.739908 l -0.377065,-0.004 c -0.207388,-0.002 -0.464987,-0.01477 -0.572443,-0.0286 z m 2.429325,-0.707436 v -0.740093 h 8.237364 8.237369 l 0.0083,-1.131201 c 0.009,-1.247335 0.0024,-1.2 0.196494,-1.396727 0.363151,-0.36836 0.962117,-0.262649 1.182035,0.208587 l 0.06643,0.142279 -6.76e-4,1.536736 c -6.77e-4,1.484113 -0.0023,1.541114 -0.05824,1.664791 -0.07086,0.156771 -0.202217,0.297787 -0.353488,0.379559 l -0.113846,0.06154 -8.70103,0.0071 -8.701037,0.0071 z m 0,-16.021903 V 18.060928 l 8.701035,0.0072 8.70103,0.0072 0.115787,0.06197 c 0.152,0.08134 0.305665,0.254331 0.364611,0.41033 0.04387,0.116169 0.04678,0.896228 0.03956,10.683238 l -0.0077,10.557921 -0.06237,0.116524 c -0.07277,0.135971 -0.22311,0.275541 -0.372687,0.34598 -0.09972,0.04695 -0.591611,0.05019 -8.792462,0.05714 l -8.686811,0.0074 z"
       id="path1-4" />
    <circle
       style="fill:#414141;fill-opacity:1;stroke:#dfdfdf;stroke-width:1.08705;stroke-dasharray:none;stroke-opacity:1"
       id="path1-6"
       cx="48.320271"
       cy="48.287033"
       r="12.17483" />
    <path
       style="color:#000000;clip-rule:nonzero;display:inline;overflow:visible;visibility:visible;isolation:auto;mix-blend-mode:normal;color-interpolation:sRGB;color-interpolation-filters:linearRGB;solid-color:#000000;solid-opacity:1;fill:#dfdfdf;fill-opacity:1;fill-rule:nonzero;stroke:none;stroke-width:0.40909;stroke-linecap:butt;stroke-linejoin:miter;stroke-miterlimit:4;stroke-dasharray:none;stroke-dashoffset:0;stroke-opacity:0.6;marker:none;color-rendering:auto;image-rendering:auto;shape-rendering:auto;text-rendering:auto;enable-background:accumulate"
       d="m 47.246199,41.501585 c -0.17135,0 -0.314167,0.681803 -0.397993,1.656195 a 5.2371346,5.3948437 0 0 0 -1.265581,0.547914 c -0.731077,-0.631171 -1.302154,-1.012168 -1.423658,-0.887008 l -1.347408,1.387987 c -0.121501,0.125149 0.24835,0.713435 0.861075,1.466528 a 5.2371346,5.3948437 0 0 0 -0.527245,1.303692 c -0.948557,0.08627 -1.612427,0.233166 -1.612427,0.409978 v 1.961757 c 0,0.176515 0.66187,0.323632 1.607776,0.409982 a 5.2371346,5.3948437 0 0 0 0.530038,1.306561 c -0.611324,0.751744 -0.980573,1.338645 -0.859217,1.463659 l 1.347408,1.387981 c 0.121253,0.124871 0.690271,-0.254566 1.419011,-0.883178 a 5.2371346,5.3948437 0 0 0 1.270228,0.539297 c 0.08375,0.977124 0.226333,1.660984 0.397993,1.660984 h 1.904411 c 0.171351,0 0.31417,-0.681803 0.397996,-1.656195 a 5.2371346,5.3948437 0 0 0 1.265578,-0.547911 c 0.731081,0.631169 1.302154,1.012165 1.42366,0.887003 l 1.347409,-1.387981 c 0.121501,-0.125119 -0.24835,-0.713439 -0.861076,-1.466535 a 5.2371346,5.3948437 0 0 0 0.527246,-1.303685 c 0.948554,-0.08627 1.612427,-0.233168 1.612427,-0.409982 v -1.961757 c 0,-0.176515 -0.661873,-0.32363 -1.607776,-0.409978 A 5.2371346,5.3948437 0 0 0 52.72603,45.670328 c 0.611331,-0.751744 0.980579,-1.338645 0.859223,-1.463655 l -1.347408,-1.387987 c -0.121253,-0.124902 -0.690271,0.254566 -1.419013,0.883177 a 5.2371346,5.3948437 0 0 0 -1.270226,-0.539294 c -0.08375,-0.977121 -0.226333,-1.66098 -0.397996,-1.66098 z m 0.952205,4.413965 a 2.3805158,2.4522014 0 0 1 2.380515,2.452203 2.3805158,2.4522014 0 0 1 -2.380515,2.452197 2.3805158,2.4522014 0 0 1 -2.380515,-2.452197 2.3805158,2.4522014 0 0 1 2.380515,-2.452203 z"
       id="path4690"
       inkscape:connector-curvature="0" />
  </g>
</svg>
