<?xml version="1.0" encoding="UTF-8" standalone="no"?>
<svg
   width="64"
   height="64"
   version="1.1"
   id="svg73"
   sodipodi:docname="smile.svg"
   inkscape:version="1.4.2 (ebf0e940d0, 2025-05-08)"
   xmlns:inkscape="http://www.inkscape.org/namespaces/inkscape"
   xmlns:sodipodi="http://sodipodi.sourceforge.net/DTD/sodipodi-0.dtd"
   xmlns="http://www.w3.org/2000/svg"
   xmlns:svg="http://www.w3.org/2000/svg"
   xmlns:rdf="http://www.w3.org/1999/02/22-rdf-syntax-ns#"
   xmlns:cc="http://creativecommons.org/ns#"
   xmlns:dc="http://purl.org/dc/elements/1.1/">
  <metadata
     id="metadata77">
    <rdf:RDF>
      <cc:Work
         rdf:about="">
        <dc:format>image/svg+xml</dc:format>
        <dc:type
           rdf:resource="http://purl.org/dc/dcmitype/StillImage" />
      </cc:Work>
    </rdf:RDF>
  </metadata>
  <sodipodi:namedview
     pagecolor="#f5f7fa"
     bordercolor="#666666"
     borderopacity="1"
     objecttolerance="10"
     gridtolerance="10"
     guidetolerance="10"
     inkscape:pageopacity="0"
     inkscape:pageshadow="2"
     inkscape:window-width="1377"
     inkscape:window-height="678"
     id="namedview75"
     showgrid="false"
     inkscape:zoom="4.4470387"
     inkscape:cx="47.559739"
     inkscape:cy="37.440646"
     inkscape:window-x="18"
     inkscape:window-y="126"
     inkscape:window-maximized="0"
     inkscape:current-layer="g877"
     inkscape:document-rotation="0"
     inkscape:pagecheckerboard="0"
     inkscape:showpageshadow="2"
     inkscape:deskcolor="#d1d1d1" />
  <defs
     id="defs29">
    <inkscape:path-effect
       effect="fillet_chamfer"
       id="path-effect14"
       is_visible="true"
       lpeversion="1"
       nodesatellites_param="F,0,0,1,0,0,0,1 @ F,0,0,1,0,0,0,1 @ F,0,0,1,0,0,0,1 @ F,0,0,1,0,0,0,1 @ F,0,0,1,0,0,0,1 @ F,0,0,1,0,0,0,1 @ F,0,0,1,0,0,0,1 @ F,0,0,1,0,0,0,1 @ F,0,0,1,0,0,0,1 @ F,0,0,1,0,0,0,1 @ F,0,0,1,0,0,0,1 @ F,0,0,1,0,0,0,1 @ F,0,0,1,0,0,0,1 @ F,0,0,1,0,0,0,1 @ F,0,0,1,0,0,0,1 @ F,0,0,1,0,0,0,1 @ F,0,0,1,0,0,0,1 | F,0,0,1,0,0,0,1 @ F,0,0,1,0,0,0,1 @ F,0,0,1,0,0,0,1 @ F,0,0,1,0,0,0,1"
       radius="0"
       unit="px"
       method="auto"
       mode="F"
       chamfer_steps="1"
       flexible="false"
       use_knot_distance="true"
       apply_no_radius="true"
       apply_with_radius="true"
       only_selected="false"
       hide_knots="false" />
  </defs>
  <circle
     cx="32.516094"
     cy="31.877844"
     r="0"
     fill="url(#b)"
     stroke-width="1.5715"
     id="circle41"
     style="fill:url(#b)" />
  <g
     aria-label="GZ"
     transform="matrix(1.2212657,0,0,0.81882264,0.4960938,-0.1661539)"
     id="text93"
     style="font-weight:bold;font-size:11.5263px;line-height:1.25;font-family:sans-serif;-inkscape-font-specification:'sans-serif Bold';fill:#f2f2f2;stroke-width:0.288159" />
  <g
     id="g877"
     transform="matrix(1.1,0,0,1.1,-3.1845928,-3.2065454)">
    <circle
       style="opacity:1;fill:#414141;stroke:#dfdfdf;stroke-width:2.27272727;stroke-dasharray:none;fill-opacity:1;stroke-opacity:1"
       id="path1"
       cx="31.985994"
       cy="32.005951"
       r="25.454546" />
    <path
       style="fill:#dfdfdf;fill-opacity:1;stroke:none;stroke-width:0.416787;stroke-dasharray:none;stroke-opacity:0.6"
       d="m 28.216547,45.240509 c -1.921716,-0.868076 -3.996224,-2.817392 -4.982467,-4.681776 -0.582708,-1.101548 -0.768353,-2.19171 -0.882215,-5.180644 l -0.144206,-3.785523 0.824576,0.254719 c 2.525534,0.780156 2.742861,1.061671 2.742861,3.55298 0,3.111757 0.922094,5.02624 3.010244,6.249977 1.811164,1.061411 4.299852,1.212796 5.945748,0.361667 1.075981,-0.556409 3.046163,-2.581701 3.324902,-3.417899 0.122193,-0.366634 0.456733,-0.326415 1.609827,0.193522 0.800567,0.361005 1.455582,0.797279 1.455582,0.969497 0,0.679461 -1.054647,2.260219 -2.325524,3.485621 -1.937251,1.867933 -4.026908,2.706805 -6.742747,2.706805 -1.531986,0 -2.775973,-0.229843 -3.836575,-0.708983 z M 40.075059,35.851766 38.50555,35.238773 38.331157,30.399991 c -0.200809,-5.571895 -0.641623,-6.706664 -3.153682,-8.118525 -4.298893,-2.416109 -9.402383,0.654394 -9.402383,5.656927 0,0.898579 -0.153777,1.633781 -0.341722,1.633781 -0.187946,0 -0.972702,-0.252465 -1.743898,-0.561041 l -1.402177,-0.561039 v -5.193822 -5.193826 l 6.016447,0.0035 c 5.57333,0.0032 6.144888,0.06349 7.760345,0.819102 2.251326,1.053038 4.455612,3.467736 5.193467,5.689217 0.457581,1.377636 0.560152,2.823314 0.483846,6.819419 l -0.09681,5.071163 z"
       id="path1-7" />
  </g>
</svg>
