<?xml version="1.0" encoding="UTF-8" standalone="no"?>
<svg
   width="64"
   height="64"
   version="1.1"
   id="svg73"
   sodipodi:docname="calibre-ebook-edit.svg"
   inkscape:version="1.4.2 (ebf0e940d0, 2025-05-08)"
   xmlns:inkscape="http://www.inkscape.org/namespaces/inkscape"
   xmlns:sodipodi="http://sodipodi.sourceforge.net/DTD/sodipodi-0.dtd"
   xmlns="http://www.w3.org/2000/svg"
   xmlns:svg="http://www.w3.org/2000/svg"
   xmlns:rdf="http://www.w3.org/1999/02/22-rdf-syntax-ns#"
   xmlns:cc="http://creativecommons.org/ns#"
   xmlns:dc="http://purl.org/dc/elements/1.1/">
  <metadata
     id="metadata77">
    <rdf:RDF>
      <cc:Work
         rdf:about="">
        <dc:format>image/svg+xml</dc:format>
        <dc:type
           rdf:resource="http://purl.org/dc/dcmitype/StillImage" />
      </cc:Work>
    </rdf:RDF>
  </metadata>
  <sodipodi:namedview
     pagecolor="#f5f7fa"
     bordercolor="#666666"
     borderopacity="1"
     objecttolerance="10"
     gridtolerance="10"
     guidetolerance="10"
     inkscape:pageopacity="0"
     inkscape:pageshadow="2"
     inkscape:window-width="1377"
     inkscape:window-height="886"
     id="namedview75"
     showgrid="false"
     inkscape:zoom="6.2890625"
     inkscape:cx="48.258385"
     inkscape:cy="45.396273"
     inkscape:window-x="0"
     inkscape:window-y="47"
     inkscape:window-maximized="0"
     inkscape:current-layer="g877"
     inkscape:document-rotation="0"
     inkscape:pagecheckerboard="0"
     inkscape:showpageshadow="2"
     inkscape:deskcolor="#d1d1d1" />
  <defs
     id="defs29" />
  <circle
     cx="32.516094"
     cy="31.877844"
     r="0"
     fill="url(#b)"
     stroke-width="1.5715"
     id="circle41"
     style="fill:url(#b)" />
  <g
     aria-label="GZ"
     transform="matrix(1.2212657,0,0,0.81882264,0.4960938,-0.1661539)"
     id="text93"
     style="font-weight:bold;font-size:11.5263px;line-height:1.25;font-family:sans-serif;-inkscape-font-specification:'sans-serif Bold';fill:#f2f2f2;stroke-width:0.288159" />
  <g
     id="g877"
     transform="matrix(1.1,0,0,1.1,-3.1845928,-3.2065454)">
    <circle
       style="opacity:1;fill:#414141;stroke:#dfdfdf;stroke-width:2.27272727;stroke-dasharray:none;fill-opacity:1;stroke-opacity:1"
       id="path1"
       cx="31.985994"
       cy="32.005951"
       r="25.454546" />
    <path
       id="path2-1"
       style="fill:#dfdfdf;fill-opacity:1;stroke:none;stroke-width:0.446513;stroke-dasharray:none;stroke-opacity:0.6"
       d="m 42.260099,17.639676 -0.198898,0.769126 c -0.399269,1.535055 -1.398791,3.32445 -2.526402,4.524124 l -0.582825,0.61933 -1.07501,-0.56772 c -1.921034,-1.014889 -3.829796,-1.500487 -5.89244,-1.500487 -2.23582,0 -4.373096,0.580511 -6.338054,1.722036 l -0.600445,0.348687 -0.458205,-0.446874 c -0.593796,-0.579204 -1.351946,-1.605949 -1.806375,-2.444588 -0.388612,-0.717172 -0.98899,-2.335936 -1.000745,-2.698864 -0.0068,-0.215232 -0.01039,-0.215969 -0.09567,-0.01765 -0.140257,0.326405 -0.11474,1.763053 0.0491,2.773133 0.207002,1.27628 0.473063,2.084278 1.075013,3.266583 l 0.513589,1.008322 -0.629396,0.6722 c -2.928923,3.131024 -3.948433,8.039916 -2.542775,12.235524 1.431315,4.272192 5.177449,7.521389 9.589531,8.318148 1.103879,0.199295 3.282624,0.202547 4.408313,0.0064 6.576197,-1.146866 11.102325,-7.391965 10.177387,-14.04198 -0.323807,-2.32812 -1.530222,-4.89364 -3.082793,-6.553339 l -0.59542,-0.635694 0.508555,-1.013332 c 0.279321,-0.55762 0.627235,-1.428758 0.772907,-1.936032 0.322001,-1.121323 0.519314,-2.948703 0.410372,-3.791503 z m -1.467755,15.218878 c 0.12295,0 0.484826,0.977349 0.581559,1.570982 0.329023,2.01888 -1.183563,4.141556 -3.291756,4.62105 -1.801094,0.409652 -3.405353,-0.04273 -4.556854,-1.286489 -0.319977,-0.345618 -0.543372,-0.665993 -0.497225,-0.711227 0.107352,-0.105217 2.656603,-1.516857 3.92745,-2.175201 0.53546,-0.277386 1.602954,-0.844694 2.37284,-1.261316 0.769883,-0.416623 1.428664,-0.757799 1.463986,-0.757799 z m -17.66599,0.04658 c 0.05258,-0.03251 0.891881,0.371654 1.864281,0.897524 0.972404,0.525871 1.905412,1.016391 2.074502,1.090121 0.169096,0.07371 0.815025,0.423793 1.435031,0.777936 0.620004,0.354143 1.439686,0.814919 1.821482,1.023401 l 0.694858,0.378899 -0.210219,0.29328 c -0.547132,0.768392 -1.540032,1.421637 -2.58809,1.700648 -1.039375,0.276711 -2.39092,0.125592 -3.377358,-0.377638 -0.633594,-0.323221 -1.546886,-1.242959 -1.846659,-1.85924 -0.35385,-0.727443 -0.522917,-1.608705 -0.434286,-2.262057 0.07899,-0.582357 0.415101,-1.56933 0.566458,-1.662874 z m 13.837977,2.100936 c -0.08901,0.0031 -0.24575,0.08765 -0.582822,0.274416 l -0.624367,0.344911 0.198898,0.589113 c 0.147959,0.438254 0.18937,0.791656 0.162386,1.385941 -0.03146,0.693169 -0.01814,0.774075 0.104478,0.61556 0.530573,-0.686327 1.08994,-2.644573 0.879905,-3.081545 -0.04045,-0.0841 -0.06923,-0.130862 -0.138447,-0.128399 z m -10.048991,0.0039 c -0.155589,0 -0.129209,0.792233 0.05035,1.4816 0.08631,0.331347 0.305729,0.882369 0.487156,1.223559 l 0.329806,0.620594 0.06042,-0.970543 c 0.03342,-0.533857 0.135827,-1.145075 0.226587,-1.356971 l 0.164895,-0.38517 -0.606739,-0.305888 c -0.333918,-0.168597 -0.654502,-0.30718 -0.712476,-0.30718 z" />
    <circle
       style="fill:#414141;fill-opacity:1;stroke:#dfdfdf;stroke-width:1.08705;stroke-dasharray:none;stroke-opacity:1"
       id="path1-6"
       cx="48.320271"
       cy="48.287033"
       r="12.17483" />
    <path
       style="fill:#dfdfdf;fill-opacity:1;stroke:none;stroke-width:0.402773;stroke-dasharray:none;stroke-opacity:0.6"
       d="m 49.651327,41.494102 c -2.969711,0 -5.423291,2.431821 -5.423291,5.404921 0,1.13002 0.381619,2.169633 0.980491,3.040313 l -3.615561,3.623759 a 0.98588358,0.98811738 0 0 0 1.378866,1.412646 l 3.615562,-3.623752 c 0.869977,0.600348 1.934505,0.952 3.064031,0.952 2.969807,0 5.392692,-2.431816 5.392692,-5.40492 0,-2.973098 -2.422885,-5.404915 -5.392692,-5.404915 z m 0,1.965426 c 1.909406,0 3.431719,1.527923 3.431719,3.439495 0,1.911472 -1.522313,3.439492 -3.431719,3.439492 -1.909409,0 -3.431718,-1.52802 -3.431718,-3.439492 0,-1.911572 1.522309,-3.439495 3.431718,-3.439495 z"
       id="path8" />
  </g>
</svg>
