<?xml version="1.0" encoding="UTF-8" standalone="no"?>
<svg
   width="64"
   height="64"
   version="1.1"
   id="svg73"
   sodipodi:docname="abcd.svg"
   inkscape:version="1.4.2 (ebf0e940d0, 2025-05-08)"
   xmlns:inkscape="http://www.inkscape.org/namespaces/inkscape"
   xmlns:sodipodi="http://sodipodi.sourceforge.net/DTD/sodipodi-0.dtd"
   xmlns="http://www.w3.org/2000/svg"
   xmlns:svg="http://www.w3.org/2000/svg"
   xmlns:rdf="http://www.w3.org/1999/02/22-rdf-syntax-ns#"
   xmlns:cc="http://creativecommons.org/ns#"
   xmlns:dc="http://purl.org/dc/elements/1.1/">
  <metadata
     id="metadata77">
    <rdf:RDF>
      <cc:Work
         rdf:about="">
        <dc:format>image/svg+xml</dc:format>
        <dc:type
           rdf:resource="http://purl.org/dc/dcmitype/StillImage" />
      </cc:Work>
    </rdf:RDF>
  </metadata>
  <sodipodi:namedview
     pagecolor="#f5f7fa"
     bordercolor="#666666"
     borderopacity="1"
     objecttolerance="10"
     gridtolerance="10"
     guidetolerance="10"
     inkscape:pageopacity="0"
     inkscape:pageshadow="2"
     inkscape:window-width="1377"
     inkscape:window-height="688"
     id="namedview75"
     showgrid="false"
     inkscape:zoom="6.2890624"
     inkscape:cx="47.622361"
     inkscape:cy="37.445963"
     inkscape:window-x="33"
     inkscape:window-y="125"
     inkscape:window-maximized="0"
     inkscape:current-layer="g877"
     inkscape:document-rotation="0"
     inkscape:pagecheckerboard="0"
     inkscape:showpageshadow="2"
     inkscape:deskcolor="#d1d1d1" />
  <defs
     id="defs29" />
  <circle
     cx="32.516094"
     cy="31.877844"
     r="0"
     fill="url(#b)"
     stroke-width="1.5715"
     id="circle41"
     style="fill:url(#b)" />
  <g
     aria-label="GZ"
     transform="matrix(1.2212657,0,0,0.81882264,0.4960938,-0.1661539)"
     id="text93"
     style="font-weight:bold;font-size:11.5263px;line-height:1.25;font-family:sans-serif;-inkscape-font-specification:'sans-serif Bold';fill:#f2f2f2;stroke-width:0.288159" />
  <g
     id="g877"
     transform="matrix(1.1,0,0,1.1,-3.1845928,-3.2065454)">
    <circle
       style="opacity:1;fill:#414141;stroke:#dfdfdf;stroke-width:2.27272727;stroke-dasharray:none;fill-opacity:1;stroke-opacity:1"
       id="path1"
       cx="31.985994"
       cy="32.005951"
       r="25.454546" />
    <path
       id="path205"
       style="fill:#dfdfdf;stroke:none;stroke-width:0.301552;stroke-dasharray:none;stroke-opacity:0.6;fill-opacity:1"
       d="m 31.94313,20.33442 c -0.41166,0.01265 -0.810248,0.249029 -1.005995,0.680108 -0.07388,0.162749 -0.07706,0.394256 -0.07792,6.533304 v 6.364691 l 0.104841,0.209699 c 0.121425,0.243667 0.280556,0.391347 0.568175,0.52567 0.533358,0.249085 1.192882,0.01157 1.47924,-0.531337 l 0.110516,-0.209698 0.01135,-6.276844 c 0.01216,-7.05671 0.03447,-6.539805 -0.294725,-6.905948 -0.246711,-0.2744 -0.5753,-0.3995 -0.895477,-0.389645 z m 6.295266,4.314444 c -0.399591,0.01464 -0.775446,0.241918 -0.963494,0.624851 l -0.114767,0.232374 v 3.059077 3.059075 l 0.110519,0.208284 c 0.136474,0.25876 0.397566,0.488618 0.641855,0.563924 0.442105,0.136286 0.846891,0.03867 1.167521,-0.281961 0.362568,-0.362565 0.347636,-0.198299 0.334385,-3.655589 l -0.01147,-2.9939 -0.08925,-0.167193 c -0.144506,-0.270113 -0.28619,-0.411402 -0.531324,-0.531334 -0.175888,-0.08604 -0.362446,-0.124275 -0.544077,-0.117605 z m -12.55936,0.0071 c -0.151197,1.93e-4 -0.329325,0.02822 -0.41515,0.06518 -0.21449,0.09238 -0.499314,0.369661 -0.610682,0.593678 l -0.09493,0.191282 -0.01135,2.887632 c -0.0077,1.892763 0.0016,2.968142 0.02973,3.120003 0.02354,0.127447 0.09378,0.314213 0.155859,0.41515 0.118821,0.193198 0.420751,0.423555 0.636186,0.485994 0.3839,0.111264 0.840326,-0.0084 1.113676,-0.291881 0.343954,-0.356553 0.317556,-0.08 0.330171,-3.494078 0.01256,-3.397472 0.02212,-3.262527 -0.277711,-3.603165 -0.213963,-0.243073 -0.507668,-0.370248 -0.855804,-0.369809 z m 18.857457,3.154019 c -0.401726,0.0086 -0.777305,0.232767 -0.970572,0.620599 l -0.104875,0.211119 v 1.493412 1.493409 l 0.106302,0.212535 c 0.121187,0.243291 0.326971,0.432603 0.589424,0.542669 0.134025,0.0562 0.254715,0.07285 0.46616,0.06236 0.460488,-0.02289 0.791992,-0.244957 0.984741,-0.658876 0.09434,-0.202608 0.09545,-0.219588 0.09492,-1.652102 -4.6e-4,-1.366823 -0.0056,-1.458689 -0.08361,-1.630852 -0.133436,-0.29417 -0.264856,-0.434305 -0.532753,-0.568175 -0.179114,-0.08951 -0.367148,-0.130063 -0.549757,-0.126102 z m -25.137134,0.02121 c -0.410146,0 -0.58235,0.074 -0.845888,0.35989 -0.280016,0.303786 -0.296129,0.411794 -0.296129,1.943979 0,1.583207 0.01033,1.648178 0.340056,1.977987 0.128017,0.128015 0.285082,0.237392 0.395313,0.276296 0.437555,0.154432 0.878139,0.05276 1.208611,-0.277715 0.328937,-0.328927 0.340054,-0.394011 0.340054,-1.976564 0,-1.532184 -0.01749,-1.640192 -0.297548,-1.943978 -0.263536,-0.285885 -0.434326,-0.359872 -0.84447,-0.359872 z m 10.758484,9.691575 c -0.338067,0.0099 -0.644545,0.04658 -0.810464,0.106271 -0.347849,0.125125 -0.533446,0.231365 -0.755208,0.430737 -0.755171,0.678962 -0.716535,2.023931 0.07511,2.601422 0.256072,0.186804 0.566152,0.331294 1.089592,0.508662 0.380242,0.128815 0.500169,0.190122 0.641855,0.325886 0.14766,0.141499 0.174276,0.190929 0.174276,0.327307 0,0.200758 -0.0805,0.320782 -0.290464,0.427896 -0.344219,0.17561 -1.165614,0.17564 -1.91989,0 L 28.045261,42.1759 v 0.682947 0.681526 l 0.376894,0.05101 c 0.207484,0.02729 0.404174,0.05554 0.437821,0.06236 0.209245,0.04265 1.305653,0.01396 1.582673,-0.04109 0.688345,-0.136847 1.285295,-0.549716 1.517494,-1.048498 0.335324,-0.720305 0.22185,-1.518097 -0.28763,-2.02758 -0.269482,-0.269507 -0.55532,-0.423797 -1.130681,-0.610694 -0.268245,-0.08713 -0.540377,-0.185997 -0.605014,-0.219581 -0.412748,-0.214682 -0.426509,-0.632516 -0.02691,-0.811877 0.337009,-0.151266 1.165633,-0.135204 1.73428,0.03399 0.01033,0.0027 0.01938,0.0049 0.02691,0.0027 7.29e-4,-2.73e-4 0.0035,-0.0011 0.0043,-0.0014 6.64e-4,-4.22e-4 0.0035,-0.0023 0.0043,-0.0027 0.03106,-0.02853 0.03543,-0.162709 0.03543,-0.607851 0,-0.464494 -0.01075,-0.616516 -0.04818,-0.647521 l -0.0014,-0.0015 h -0.0014 v -0.0014 h -0.0014 -0.0013 l -0.0014,-0.0014 c -0.03067,-0.01179 -0.255317,-0.05253 -0.498769,-0.09071 -0.295088,-0.04627 -0.665097,-0.06366 -1.003162,-0.05384 z m 6.26976,0.0044 c -0.138644,0.0096 -0.250394,0.03008 -0.409485,0.068 -1.150453,0.274098 -1.971581,1.065094 -2.268448,2.184851 -0.114488,0.431856 -0.122507,1.178481 -0.01702,1.591174 0.297724,1.164574 1.141818,1.968755 2.354878,2.244365 0.356651,0.08103 1.414499,0.05207 1.806542,-0.04962 l 0.284795,-0.07364 0.01147,-0.790626 c 0.0078,-0.54523 0.0078,-0.714962 -0.01985,-0.755209 -0.0013,-0.0014 -0.0041,-0.0044 -0.0059,-0.0059 -6.62e-4,-4.26e-4 -0.0029,-0.0023 -0.0041,-0.0027 -7.33e-4,-2.43e-4 -0.0029,-0.0013 -0.0041,-0.0014 -0.0074,-6.62e-4 -0.01737,0.0016 -0.02667,0.0059 -0.439831,0.184105 -0.699794,0.238589 -1.153351,0.239489 -0.528534,10e-4 -0.697919,-0.04574 -1.047135,-0.284795 -0.230301,-0.157624 -0.460663,-0.46292 -0.568175,-0.750948 -0.09617,-0.257724 -0.09754,-0.814945 -0.0029,-1.086765 0.221836,-0.636745 0.736966,-1.01181 1.457993,-1.062669 0.344267,-0.02419 0.850003,0.0604 1.161848,0.194152 0.103294,0.04432 0.195611,0.07935 0.20544,0.07935 0.0096,0 0.01334,-0.353172 0.0074,-0.784961 L 38.179365,37.70026 37.89457,37.62518 c -0.190525,-0.05058 -0.488679,-0.08276 -0.896894,-0.09635 -0.265107,-0.0086 -0.430952,-0.01116 -0.569594,-0.0014 z m 6.564479,0.01147 c -0.571952,-8.61e-4 -0.691139,0.01147 -0.959241,0.09492 -0.545281,0.170338 -0.920995,0.394124 -1.304959,0.779301 -0.396605,0.397845 -0.567876,0.666675 -0.748122,1.173186 -0.121961,0.342806 -0.126862,0.384203 -0.127512,1.010243 -6.63e-4,0.628948 0.0041,0.665858 0.127512,1.010242 0.16578,0.463306 0.340597,0.754394 0.66169,1.098102 0.426731,0.456772 0.897554,0.730692 1.534495,0.892639 0.62236,0.158212 1.566221,0.07765 2.155102,-0.182742 0.848968,-0.375431 1.509086,-1.18358 1.718691,-2.104059 0.09756,-0.428319 0.09017,-1.071179 -0.01706,-1.489157 -0.260608,-1.01585 -0.988515,-1.798149 -2.000685,-2.148031 -0.374308,-0.129374 -0.409583,-0.133622 -1.039999,-0.134614 z m -21.942041,0.0014 c -0.727947,-0.0023 -0.736569,-2.41e-4 -1.120765,0.133189 -1.081565,0.375631 -1.79378,1.169991 -2.026159,2.262784 -0.0882,0.414782 -0.05394,1.211948 0.06802,1.598257 0.25314,0.801792 0.748933,1.398519 1.46932,1.769698 0.328313,0.169191 0.502609,0.23273 0.855806,0.314553 0.324359,0.07511 1.361136,0.04868 1.764034,-0.0454 l 0.315965,-0.07368 v -0.789221 c 0,-0.433937 -0.0072,-0.789213 -0.0156,-0.789213 -0.0083,0 -0.09593,0.03625 -0.194113,0.07935 -0.229132,0.100534 -0.748607,0.206866 -1.010246,0.206866 -0.687207,0 -1.277225,-0.354889 -1.547248,-0.930901 -0.09687,-0.206619 -0.107692,-0.279556 -0.107692,-0.680114 0,-0.406217 0.01048,-0.472875 0.114771,-0.698525 0.202237,-0.437594 0.63037,-0.768042 1.132097,-0.87564 0.41529,-0.08906 1.048539,0.0027 1.55717,0.226714 0.0095,0.0041 0.01835,0.0065 0.02549,0.0059 0.0015,-2.66e-4 0.0057,-7.94e-4 0.007,-0.0014 6.63e-4,-4.03e-4 0.0035,-0.0023 0.0044,-0.0027 l 0.0014,-0.0014 c 0.02921,-0.03483 0.03049,-0.20082 0.02267,-0.75804 l -0.0099,-0.790856 -0.286213,-0.07796 c -0.230846,-0.06363 -0.426561,-0.08013 -1.020164,-0.08217 z m 3.447306,0.05811 v 2.998148 2.996733 h 0.753787 0.755207 v -2.996867 -2.998147 h -0.755207 z m 18.374293,1.428227 c 0.268267,-0.01147 0.554557,0.0333 0.759458,0.128908 0.468624,0.218776 0.796353,0.651398 0.894065,1.181692 0.125622,0.681747 -0.252452,1.400281 -0.894065,1.70028 -0.190339,0.08903 -0.300579,0.109651 -0.619181,0.118985 -0.335866,0.0096 -0.418851,-0.0017 -0.627685,-0.08927 -0.619832,-0.259677 -0.970576,-0.789984 -0.970576,-1.470739 0,-0.695632 0.378318,-1.250099 1.01591,-1.489158 0.126582,-0.04744 0.281136,-0.07405 0.442074,-0.08078 z" />
  </g>
</svg>
