<?xml version="1.0" encoding="UTF-8" standalone="no"?>
<svg
   width="64"
   height="64"
   version="1.1"
   id="svg73"
   sodipodi:docname="com.valvesoftware.Steam.svg"
   inkscape:version="1.4.2 (ebf0e940d0, 2025-05-08)"
   xmlns:inkscape="http://www.inkscape.org/namespaces/inkscape"
   xmlns:sodipodi="http://sodipodi.sourceforge.net/DTD/sodipodi-0.dtd"
   xmlns="http://www.w3.org/2000/svg"
   xmlns:svg="http://www.w3.org/2000/svg"
   xmlns:rdf="http://www.w3.org/1999/02/22-rdf-syntax-ns#"
   xmlns:cc="http://creativecommons.org/ns#"
   xmlns:dc="http://purl.org/dc/elements/1.1/">
  <metadata
     id="metadata77">
    <rdf:RDF>
      <cc:Work
         rdf:about="">
        <dc:format>image/svg+xml</dc:format>
        <dc:type
           rdf:resource="http://purl.org/dc/dcmitype/StillImage" />
      </cc:Work>
    </rdf:RDF>
  </metadata>
  <sodipodi:namedview
     pagecolor="#f5f7fa"
     bordercolor="#666666"
     borderopacity="1"
     objecttolerance="10"
     gridtolerance="10"
     guidetolerance="10"
     inkscape:pageopacity="0"
     inkscape:pageshadow="2"
     inkscape:window-width="1377"
     inkscape:window-height="886"
     id="namedview75"
     showgrid="false"
     inkscape:zoom="4.4470387"
     inkscape:cx="48.009477"
     inkscape:cy="45.311052"
     inkscape:window-x="142"
     inkscape:window-y="75"
     inkscape:window-maximized="0"
     inkscape:current-layer="g877"
     inkscape:document-rotation="0"
     inkscape:pagecheckerboard="0"
     inkscape:showpageshadow="2"
     inkscape:deskcolor="#d1d1d1" />
  <defs
     id="defs29" />
  <circle
     cx="32.516094"
     cy="31.877844"
     r="0"
     fill="url(#b)"
     stroke-width="1.5715"
     id="circle41"
     style="fill:url(#b)" />
  <g
     aria-label="GZ"
     transform="matrix(1.2212657,0,0,0.81882264,0.4960938,-0.1661539)"
     id="text93"
     style="font-weight:bold;font-size:11.5263px;line-height:1.25;font-family:sans-serif;-inkscape-font-specification:'sans-serif Bold';fill:#f2f2f2;stroke-width:0.288159" />
  <g
     id="g877"
     transform="matrix(1.1,0,0,1.1,-3.1845928,-3.2065454)">
    <circle
       style="opacity:1;fill:#414141;stroke:#dfdfdf;stroke-width:2.27272727;stroke-dasharray:none;fill-opacity:1;stroke-opacity:1"
       id="path1"
       cx="31.985994"
       cy="32.005951"
       r="25.454546" />
    <path
       id="path1-7"
       style="fill:#dfdfdf;fill-opacity:1;stroke:none;stroke-width:0.37511;stroke-dasharray:none;stroke-dashoffset:2.2;stroke-opacity:0.6"
       d="m 39.685029,20.44696 c -0.463221,-1.93e-4 -0.95905,0.186333 -1.579599,0.549929 -1.476687,0.865219 -3.407917,1.273268 -6.060012,1.273268 -2.651837,0 -4.647492,-0.416732 -6.115384,-1.276959 -1.177057,-0.689771 -1.879776,-0.698912 -2.867615,-0.03286 -2.536116,1.709084 -4.447484,7.188714 -5.008198,14.349197 -0.336244,4.293827 -0.02217,6.55756 1.088734,7.83152 0.53579,0.614212 1.851087,0.51008 3.037393,-0.24357 1.00561,-0.638876 2.203786,-2.04864 3.635278,-4.277467 1.293553,-2.014076 2.858188,-2.677427 6.318369,-2.683097 3.453294,-0.0054 4.810409,0.647987 6.40325,3.096439 2.672422,4.107908 5.142571,5.538033 6.591473,3.816107 0.802686,-0.95392 0.9496,-1.875578 0.911582,-5.713082 -0.06926,-6.971063 -1.891481,-13.312755 -4.517331,-15.733186 -0.699342,-0.644632 -1.242332,-0.955625 -1.83794,-0.955876 z m -15.002426,4.107676 h 1.601734 1.601736 v 1.372914 1.372921 h 1.372918 1.372913 v 1.716148 1.716142 h -1.372913 -1.372918 v 1.487326 1.487325 h -1.450415 c -0.796826,0 -1.514171,-0.07142 -1.598053,-0.154982 -0.08385,-0.08385 -0.154983,-0.74971 -0.154983,-1.483631 v -1.336038 h -1.372938 -1.372919 v -1.716142 -1.716148 h 1.372919 1.372919 V 25.92755 Z m 13.057463,0 c 1.444981,0 2.063792,1.600999 1.022312,2.642501 -0.662346,0.66227 -1.266842,0.714331 -1.919133,0.162404 -1.131411,-0.957362 -0.540858,-2.80488 0.896821,-2.80488 z m -2.779042,2.934055 c 0.360808,2.51e-4 0.7241,0.144063 1.011228,0.461298 0.447584,0.494582 0.495931,1.626931 0.0923,2.155335 -0.789951,1.034152 -2.686778,0.368958 -2.686778,-0.941108 0,-0.99429 0.789489,-1.676096 1.583284,-1.675551 z m 5.672506,0.05573 c 0.415918,0.0078 0.81964,0.145335 1.055517,0.405948 0.447572,0.494583 0.495915,1.626923 0.09229,2.155336 -0.840238,1.099954 -2.686785,0.363738 -2.686785,-1.070288 0,-0.434663 0.174218,-0.905799 0.417024,-1.125644 0.277595,-0.251256 0.70613,-0.372954 1.121962,-0.365374 z M 37.839717,30.5043 c 1.281046,0 1.904366,1.35882 1.129328,2.465347 -0.264963,0.378238 -0.588065,0.509297 -1.25482,0.509297 -0.76763,0 -0.94576,-0.09991 -1.254803,-0.697558 -0.609354,-1.178383 0.05572,-2.277126 1.380295,-2.277126 z" />
  </g>
</svg>
