<?xml version="1.0" encoding="UTF-8" standalone="no"?>
<svg
   width="64"
   height="64"
   version="1.1"
   id="svg73"
   sodipodi:docname="abcd.svg"
   inkscape:version="1.4.2 (ebf0e940d0, 2025-05-08)"
   xmlns:inkscape="http://www.inkscape.org/namespaces/inkscape"
   xmlns:sodipodi="http://sodipodi.sourceforge.net/DTD/sodipodi-0.dtd"
   xmlns="http://www.w3.org/2000/svg"
   xmlns:svg="http://www.w3.org/2000/svg"
   xmlns:rdf="http://www.w3.org/1999/02/22-rdf-syntax-ns#"
   xmlns:cc="http://creativecommons.org/ns#"
   xmlns:dc="http://purl.org/dc/elements/1.1/">
  <metadata
     id="metadata77">
    <rdf:RDF>
      <cc:Work
         rdf:about="">
        <dc:format>image/svg+xml</dc:format>
        <dc:type
           rdf:resource="http://purl.org/dc/dcmitype/StillImage" />
      </cc:Work>
    </rdf:RDF>
  </metadata>
  <sodipodi:namedview
     pagecolor="#f5f7fa"
     bordercolor="#666666"
     borderopacity="1"
     objecttolerance="10"
     gridtolerance="10"
     guidetolerance="10"
     inkscape:pageopacity="0"
     inkscape:pageshadow="2"
     inkscape:window-width="1377"
     inkscape:window-height="619"
     id="namedview75"
     showgrid="false"
     inkscape:zoom="6.2890624"
     inkscape:cx="47.622361"
     inkscape:cy="35.617392"
     inkscape:window-x="39"
     inkscape:window-y="180"
     inkscape:window-maximized="0"
     inkscape:current-layer="g877"
     inkscape:document-rotation="0"
     inkscape:pagecheckerboard="0"
     inkscape:showpageshadow="2"
     inkscape:deskcolor="#d1d1d1" />
  <defs
     id="defs29" />
  <circle
     cx="32.516094"
     cy="31.877844"
     r="0"
     fill="url(#b)"
     stroke-width="1.5715"
     id="circle41"
     style="fill:url(#b)" />
  <g
     aria-label="GZ"
     transform="matrix(1.2212657,0,0,0.81882264,0.4960938,-0.1661539)"
     id="text93"
     style="font-weight:bold;font-size:11.5263px;line-height:1.25;font-family:sans-serif;-inkscape-font-specification:'sans-serif Bold';fill:#f2f2f2;stroke-width:0.288159" />
  <g
     id="g877"
     transform="matrix(1.1,0,0,1.1,-3.1845928,-3.2065454)">
    <circle
       style="opacity:1;fill:#414141;stroke:#dfdfdf;stroke-width:2.27272727;stroke-dasharray:none;fill-opacity:1;stroke-opacity:1"
       id="path1"
       cx="31.985994"
       cy="32.005951"
       r="25.454546" />
    <path
       id="path8"
       style="fill:#dfdfdf;fill-opacity:1;stroke:none;stroke-width:0.40592;stroke-dasharray:none;stroke-opacity:0.6"
       d="m 42.065276,18.160433 -9.659695,3.018575 c -5.313021,1.660174 -9.67926,3.02534 -9.701652,3.03256 -0.0224,0.0073 2.263437,0.879081 5.079699,1.937786 2.816261,1.058707 5.170293,1.913714 5.229737,1.900915 0.05944,-0.01282 2.113942,-0.649617 4.566006,-1.416468 l 4.457931,-1.39485 0.01412,-3.538624 z m -20.157315,6.535581 v 3.527179 3.52591 l 10.010631,3.758599 c 5.506008,2.067247 10.040867,3.76026 10.078021,3.762407 0.05339,0.0034 0.06742,-0.730839 0.06742,-3.501747 v -3.505568 l -0.148758,-0.06104 C 41.8335,32.168816 37.298642,30.466685 31.837216,28.418998 Z m 9.123113,11.237643 -4.548205,1.421556 -4.548207,1.42155 -0.01399,3.537352 -0.01396,3.537353 9.659694,-3.018576 c 5.31303,-1.66018 9.679303,-3.025359 9.701654,-3.03256 0.02239,-0.0071 -2.272487,-0.879217 -5.098776,-1.939061 z" />
  </g>
</svg>
