<?xml version="1.0" encoding="UTF-8" standalone="no"?>
<svg
   width="64"
   height="64"
   version="1.1"
   id="svg73"
   sodipodi:docname="abcd.svg"
   inkscape:version="1.4.2 (ebf0e940d0, 2025-05-08)"
   xmlns:inkscape="http://www.inkscape.org/namespaces/inkscape"
   xmlns:sodipodi="http://sodipodi.sourceforge.net/DTD/sodipodi-0.dtd"
   xmlns="http://www.w3.org/2000/svg"
   xmlns:svg="http://www.w3.org/2000/svg"
   xmlns:rdf="http://www.w3.org/1999/02/22-rdf-syntax-ns#"
   xmlns:cc="http://creativecommons.org/ns#"
   xmlns:dc="http://purl.org/dc/elements/1.1/">
  <metadata
     id="metadata77">
    <rdf:RDF>
      <cc:Work
         rdf:about="">
        <dc:format>image/svg+xml</dc:format>
        <dc:type
           rdf:resource="http://purl.org/dc/dcmitype/StillImage" />
      </cc:Work>
    </rdf:RDF>
  </metadata>
  <sodipodi:namedview
     pagecolor="#f5f7fa"
     bordercolor="#666666"
     borderopacity="1"
     objecttolerance="10"
     gridtolerance="10"
     guidetolerance="10"
     inkscape:pageopacity="0"
     inkscape:pageshadow="2"
     inkscape:window-width="1377"
     inkscape:window-height="619"
     id="namedview75"
     showgrid="false"
     inkscape:zoom="6.2890624"
     inkscape:cx="47.622361"
     inkscape:cy="35.617392"
     inkscape:window-x="39"
     inkscape:window-y="180"
     inkscape:window-maximized="0"
     inkscape:current-layer="g877"
     inkscape:document-rotation="0"
     inkscape:pagecheckerboard="0"
     inkscape:showpageshadow="2"
     inkscape:deskcolor="#d1d1d1" />
  <defs
     id="defs29" />
  <circle
     cx="32.516094"
     cy="31.877844"
     r="0"
     fill="url(#b)"
     stroke-width="1.5715"
     id="circle41"
     style="fill:url(#b)" />
  <g
     aria-label="GZ"
     transform="matrix(1.2212657,0,0,0.81882264,0.4960938,-0.1661539)"
     id="text93"
     style="font-weight:bold;font-size:11.5263px;line-height:1.25;font-family:sans-serif;-inkscape-font-specification:'sans-serif Bold';fill:#f2f2f2;stroke-width:0.288159" />
  <g
     id="g877"
     transform="matrix(1.1,0,0,1.1,-3.1845928,-3.2065454)">
    <circle
       style="opacity:1;fill:#414141;stroke:#dfdfdf;stroke-width:2.27272727;stroke-dasharray:none;fill-opacity:1;stroke-opacity:1"
       id="path1"
       cx="31.985994"
       cy="32.005951"
       r="25.454546" />
    <path
       d="m 18.596496,23.245765 11.187916,21.687298 c 0,0 0.606493,1.162459 2.130875,1.162459 1.520304,0 2.126799,-1.162459 2.126799,-1.162459 0,0 7.775333,-13.066599 10.949392,-20.036847 0.319452,-0.70103 0.663099,-1.410923 0.808684,-2.174103 a 3.3761204,3.7046792 0 0 0 0.02775,-1.597239 3.1214659,3.4252416 0 0 0 -0.836966,-1.721508 3.3278243,3.6516839 0 0 0 -1.876119,-0.896246 3.8939062,4.2728554 0 0 0 -2.163201,0.479162 2.830343,3.1057874 0 0 0 -1.120013,1.189098 3.4369006,3.7713748 0 0 0 -0.351757,1.65052 4.0999028,4.4988995 0 0 0 0.230448,1.544024 c 0.105107,0.315099 0.242556,0.621139 0.351759,0.931759 0.08494,0.26642 0.210284,0.519074 0.234472,0.798621 a 2.5877461,2.8395812 0 0 1 -0.113295,1.335463 c -0.727111,2.032131 -1.984616,3.979754 -3.646491,5.17343 -0.687388,0.492466 -1.568835,0.6167 -2.385597,0.656648 -0.938059,0.04435 -2.021697,-0.03606 -2.77781,-0.492505 -0.760148,-0.452556 -1.115962,-1.242307 -1.593074,-1.934468 -2.183412,-3.181242 -5.753801,-10.147128 -5.753801,-10.147128 0,0 -1.552666,-3.012631 -4.34664,-1.18906 -2.789932,1.827968 -1.087678,4.747295 -1.087678,4.747295 z"
       fill="url(#linearGradient984)"
       fill-rule="evenodd"
       id="path20-7"
       style="fill:#dfdfdf;fill-opacity:1;stroke:none;stroke-width:0.447527;stroke-dasharray:none;stroke-opacity:0.6" />
  </g>
</svg>
