<?xml version="1.0" encoding="UTF-8" standalone="no"?>
<svg
   width="64"
   height="64"
   version="1.1"
   id="svg73"
   sodipodi:docname="smile.svg"
   inkscape:version="1.4.2 (ebf0e940d0, 2025-05-08)"
   xmlns:inkscape="http://www.inkscape.org/namespaces/inkscape"
   xmlns:sodipodi="http://sodipodi.sourceforge.net/DTD/sodipodi-0.dtd"
   xmlns="http://www.w3.org/2000/svg"
   xmlns:svg="http://www.w3.org/2000/svg"
   xmlns:rdf="http://www.w3.org/1999/02/22-rdf-syntax-ns#"
   xmlns:cc="http://creativecommons.org/ns#"
   xmlns:dc="http://purl.org/dc/elements/1.1/">
  <metadata
     id="metadata77">
    <rdf:RDF>
      <cc:Work
         rdf:about="">
        <dc:format>image/svg+xml</dc:format>
        <dc:type
           rdf:resource="http://purl.org/dc/dcmitype/StillImage" />
      </cc:Work>
    </rdf:RDF>
  </metadata>
  <sodipodi:namedview
     pagecolor="#f5f7fa"
     bordercolor="#666666"
     borderopacity="1"
     objecttolerance="10"
     gridtolerance="10"
     guidetolerance="10"
     inkscape:pageopacity="0"
     inkscape:pageshadow="2"
     inkscape:window-width="1377"
     inkscape:window-height="678"
     id="namedview75"
     showgrid="false"
     inkscape:zoom="4.4470387"
     inkscape:cx="47.559739"
     inkscape:cy="37.440646"
     inkscape:window-x="18"
     inkscape:window-y="126"
     inkscape:window-maximized="0"
     inkscape:current-layer="g877"
     inkscape:document-rotation="0"
     inkscape:pagecheckerboard="0"
     inkscape:showpageshadow="2"
     inkscape:deskcolor="#d1d1d1" />
  <defs
     id="defs29">
    <inkscape:path-effect
       effect="fillet_chamfer"
       id="path-effect14"
       is_visible="true"
       lpeversion="1"
       nodesatellites_param="F,0,0,1,0,0,0,1 @ F,0,0,1,0,0,0,1 @ F,0,0,1,0,0,0,1 @ F,0,0,1,0,0,0,1 @ F,0,0,1,0,0,0,1 @ F,0,0,1,0,0,0,1 @ F,0,0,1,0,0,0,1 @ F,0,0,1,0,0,0,1 @ F,0,0,1,0,0,0,1 @ F,0,0,1,0,0,0,1 @ F,0,0,1,0,0,0,1 @ F,0,0,1,0,0,0,1 @ F,0,0,1,0,0,0,1 @ F,0,0,1,0,0,0,1 @ F,0,0,1,0,0,0,1 @ F,0,0,1,0,0,0,1 @ F,0,0,1,0,0,0,1 | F,0,0,1,0,0,0,1 @ F,0,0,1,0,0,0,1 @ F,0,0,1,0,0,0,1 @ F,0,0,1,0,0,0,1"
       radius="0"
       unit="px"
       method="auto"
       mode="F"
       chamfer_steps="1"
       flexible="false"
       use_knot_distance="true"
       apply_no_radius="true"
       apply_with_radius="true"
       only_selected="false"
       hide_knots="false" />
  </defs>
  <circle
     cx="32.516094"
     cy="31.877844"
     r="0"
     fill="url(#b)"
     stroke-width="1.5715"
     id="circle41"
     style="fill:url(#b)" />
  <g
     aria-label="GZ"
     transform="matrix(1.2212657,0,0,0.81882264,0.4960938,-0.1661539)"
     id="text93"
     style="font-weight:bold;font-size:11.5263px;line-height:1.25;font-family:sans-serif;-inkscape-font-specification:'sans-serif Bold';fill:#f2f2f2;stroke-width:0.288159" />
  <g
     id="g877"
     transform="matrix(1.1,0,0,1.1,-3.1845928,-3.2065454)">
    <circle
       style="opacity:1;fill:#414141;stroke:#dfdfdf;stroke-width:2.27272727;stroke-dasharray:none;fill-opacity:1;stroke-opacity:1"
       id="path1"
       cx="31.985994"
       cy="32.005951"
       r="25.454546" />
    <path
       style="fill:#dfdfdf;fill-opacity:1;stroke:none;stroke-width:0.429895;stroke-dasharray:none;stroke-dashoffset:2.2;stroke-opacity:0.6"
       d="M 19.433466,45.774342 C 18.934359,45.51123 18.616823,45.186134 18.399974,44.716287 18.218827,44.323802 18.201226,43.949235 18.199071,40.441401 l -0.0023,-3.844703 0.457061,0.0024 c 0.308834,0.0017 0.631458,0.105085 0.994785,0.318783 1.638079,0.96345 2.252533,1.081664 3.023616,0.581686 0.985069,-0.638734 1.489883,-1.911251 1.419977,-3.579439 -0.06493,-1.548952 -0.620491,-2.62857 -1.616275,-3.140775 -0.701839,-0.361009 -1.294704,-0.235372 -2.494277,0.528578 -0.661412,0.421219 -1.182532,0.596251 -1.521737,0.511113 l -0.263152,-0.06604 v -3.014541 c 0,-3.272346 0.01061,-3.340444 0.630656,-4.008234 0.615518,-0.663023 0.592095,-0.659456 4.5708,-0.696007 l 3.642066,-0.03346 -0.04483,-0.619592 c -0.03616,-0.499914 -0.142298,-0.783394 -0.54949,-1.467615 -0.82102,-1.3796 -0.816969,-2.008268 0.01834,-2.843575 0.736303,-0.736299 1.500427,-1.011373 2.809498,-1.011373 1.309069,0 2.073195,0.275074 2.809495,1.011373 0.835305,0.835307 0.839359,1.463975 0.01831,2.843575 -0.409038,0.687365 -0.513227,0.96665 -0.549939,1.47419 l -0.0453,0.626163 h 3.112185 c 3.505969,0 3.93983,0.06434 4.512451,0.669204 0.635942,0.671744 0.624017,0.591322 0.682121,4.600464 l 0.05377,3.71027 0.256042,0.0362 c 0.470598,0.06655 0.920015,-0.0856 1.823413,-0.61731 0.493074,-0.290205 1.061823,-0.558666 1.263896,-0.596574 0.762804,-0.143106 1.760982,0.594959 2.204737,1.630205 0.886818,2.068874 0.05569,4.810925 -1.609498,5.309819 -0.404562,0.121173 -0.477337,0.105501 -1.216559,-0.262233 -0.432443,-0.21511 -1.003658,-0.51443 -1.269364,-0.665129 C 40.95835,37.62395 40.714146,37.56282 40.351671,37.586513 l -0.484786,0.03182 -0.05379,3.441414 c -0.05794,3.704778 -0.06894,3.776653 -0.66193,4.316069 -0.593082,0.539469 -0.798971,0.577183 -3.150548,0.577183 H 33.790665 V 45.54108 c 0,-0.239576 0.118613,-0.633347 0.283462,-0.941011 0.155902,-0.290931 0.422076,-0.789951 0.591493,-1.108825 0.925669,-1.74225 -0.406592,-3.354052 -2.918295,-3.530627 -1.923509,-0.135227 -3.659064,0.862913 -3.839498,2.208145 -0.0706,0.526229 0.07725,0.989257 0.576891,1.806743 0.448551,0.733912 0.691054,1.433999 0.607453,1.753679 -0.05819,0.222507 -0.08672,0.223874 -4.697278,0.219519 -4.016315,-0.0036 -4.682031,-0.02773 -4.961375,-0.174413 z"
       id="path1-1" />
  </g>
</svg>
