<?xml version="1.0" encoding="UTF-8" standalone="no"?>
<svg
   width="64"
   height="64"
   version="1.1"
   id="svg73"
   sodipodi:docname="accessories-text-editor.svg"
   inkscape:version="1.4.2 (ebf0e940d0, 2025-05-08)"
   xmlns:inkscape="http://www.inkscape.org/namespaces/inkscape"
   xmlns:sodipodi="http://sodipodi.sourceforge.net/DTD/sodipodi-0.dtd"
   xmlns="http://www.w3.org/2000/svg"
   xmlns:svg="http://www.w3.org/2000/svg"
   xmlns:rdf="http://www.w3.org/1999/02/22-rdf-syntax-ns#"
   xmlns:cc="http://creativecommons.org/ns#"
   xmlns:dc="http://purl.org/dc/elements/1.1/">
  <metadata
     id="metadata77">
    <rdf:RDF>
      <cc:Work
         rdf:about="">
        <dc:format>image/svg+xml</dc:format>
        <dc:type
           rdf:resource="http://purl.org/dc/dcmitype/StillImage" />
      </cc:Work>
    </rdf:RDF>
  </metadata>
  <sodipodi:namedview
     pagecolor="#f5f7fa"
     bordercolor="#666666"
     borderopacity="1"
     objecttolerance="10"
     gridtolerance="10"
     guidetolerance="10"
     inkscape:pageopacity="0"
     inkscape:pageshadow="2"
     inkscape:window-width="1377"
     inkscape:window-height="678"
     id="namedview75"
     showgrid="false"
     inkscape:zoom="6.2890624"
     inkscape:cx="47.622361"
     inkscape:cy="35.855901"
     inkscape:window-x="21"
     inkscape:window-y="79"
     inkscape:window-maximized="0"
     inkscape:current-layer="g877"
     inkscape:document-rotation="0"
     inkscape:pagecheckerboard="0"
     inkscape:showpageshadow="2"
     inkscape:deskcolor="#d1d1d1" />
  <defs
     id="defs29" />
  <circle
     cx="32.516094"
     cy="31.877844"
     r="0"
     fill="url(#b)"
     stroke-width="1.5715"
     id="circle41"
     style="fill:url(#b)" />
  <g
     aria-label="GZ"
     transform="matrix(1.2212657,0,0,0.81882264,0.4960938,-0.1661539)"
     id="text93"
     style="font-weight:bold;font-size:11.5263px;line-height:1.25;font-family:sans-serif;-inkscape-font-specification:'sans-serif Bold';fill:#f2f2f2;stroke-width:0.288159" />
  <g
     id="g877"
     transform="matrix(1.1,0,0,1.1,-3.1845928,-3.2065454)">
    <circle
       style="opacity:1;fill:#414141;stroke:#dfdfdf;stroke-width:2.27272727;stroke-dasharray:none;fill-opacity:1;stroke-opacity:1"
       id="path1"
       cx="31.985994"
       cy="32.005951"
       r="25.454546" />
    <path
       id="path10"
       style="fill:#dfdfdf;fill-opacity:1;stroke:none;stroke-width:0.379759;stroke-dasharray:none;stroke-opacity:0.6"
       d="m 38.235921,20.062225 c -0.138575,-3e-5 -2.472316,0.853947 -6.937179,2.537398 l -6.727749,2.536464 0.167353,0.190726 c 0.09492,0.108105 0.208218,0.337084 0.260851,0.526362 l 0.09349,0.33471 h 0.29357 c 0.250046,0 1.246923,-0.359558 6.720269,-2.422404 3.534521,-1.332124 6.481187,-2.471935 6.548243,-2.53366 0.312647,-0.287818 0.30712,-0.715469 -0.0133,-0.996634 -0.144238,-0.126648 -0.252853,-0.172924 -0.405765,-0.172962 z m -14.616689,4.784032 c -0.335425,-0.0023 -0.675987,0.111759 -0.948017,0.350602 -0.211493,0.185694 -0.461879,0.653276 -0.46279,0.86481 v 0.126216 h 1.404265 c 0.772664,0 1.40537,-0.01886 1.405198,-0.04208 -0.0013,-0.151385 -0.149923,-0.526328 -0.288893,-0.728313 -0.255972,-0.372041 -0.678497,-0.568068 -1.109763,-0.571243 z m 12.469154,1.393983 v 8.854714 8.85472 l 3.975316,-0.01801 c 3.63481,-0.01644 3.997504,-0.02612 4.228686,-0.115974 0.374265,-0.146302 0.770472,-0.459161 0.960173,-0.758231 0.349465,-0.550931 0.331898,-0.137138 0.331898,-7.999257 0,-7.139304 -4.39e-4,-7.182267 -0.116889,-7.493462 -0.212091,-0.566937 -0.682162,-1.03656 -1.221,-1.219206 -0.155279,-0.05262 -1.195841,-0.07468 -4.182875,-0.08788 z m -0.05609,0.0019 -8.077787,0.01498 -8.078723,0.01497 -0.353406,0.163589 c -0.443938,0.205008 -0.856276,0.640065 -1.019076,1.075181 -0.115472,0.308641 -0.115928,0.366223 -0.115928,7.584149 0,7.198719 7.6e-4,7.276033 0.114999,7.581343 0.223967,0.598596 0.834892,1.100476 1.465032,1.205126 0.166445,0.02755 3.848799,0.05342 8.183437,0.05701 l 7.881458,0.0064 v -8.85089 z m -8.956624,2.371913 c 0.963053,-0.01873 1.930512,0.171754 2.811333,0.578719 0.395581,0.182773 1.368738,0.782359 1.368738,0.843308 -10e-7,0.01609 -1.838738,0.02896 -4.085644,0.02896 -2.368854,0 -4.062371,-0.02076 -4.031414,-0.04955 0.02933,-0.02733 0.224322,-0.165668 0.433804,-0.307588 1.033264,-0.699987 2.264969,-1.069743 3.503183,-1.093851 z m 13.833214,1.916602 c 0.681372,0.02687 1.345198,0.40933 1.679141,1.09761 0.134112,0.276459 0.15499,0.388274 0.155172,0.825541 1.6e-4,0.398109 -0.02612,0.561722 -0.120594,0.770383 -0.167699,0.367913 -0.589801,0.80043 -0.956436,0.979805 -0.523505,0.256126 -1.237815,0.235721 -1.788527,-0.05142 -0.278282,-0.145122 -0.649204,-0.55224 -0.805901,-0.884443 -0.123257,-0.261461 -0.146092,-0.386479 -0.145832,-0.814325 3.47e-4,-0.60789 0.110078,-0.892167 0.508602,-1.31825 0.403816,-0.431713 0.944433,-0.625805 1.47439,-0.604897 z M 39.98518,31.40762 c -0.05515,0.0021 -0.111591,0.02228 -0.163653,0.06545 -0.113288,0.094 -0.101905,0.372498 0.01774,0.442223 0.151102,0.08802 0.267345,0.07179 0.380508,-0.0533 0.177042,-0.195626 -0.01827,-0.462026 -0.234612,-0.454376 z m -18.217101,0.06266 h 5.405762 5.406699 l 0.177634,0.294507 c 0.218697,0.36213 0.519822,1.020857 0.519822,1.136875 0,0.07604 -0.675478,0.086 -6.096675,0.086 -5.051559,0 -6.096675,-0.01352 -6.096675,-0.07574 0,-0.04131 0.15332,-0.382308 0.341249,-0.758228 z m -1.005982,2.865565 h 6.420161 6.420161 l 0.03366,0.126215 c 0.04428,0.165319 0.0459,1.187639 0.0019,1.302357 -0.0308,0.08034 -0.651918,0.08882 -6.454755,0.08882 H 20.76219 L 20.72667,35.592393 C 20.70698,35.449 20.69116,35.225461 20.69116,35.09501 c 0,-0.130451 0.01587,-0.354923 0.03551,-0.498318 z m 18.885572,1.461275 c 0.691165,0 0.711481,0.02096 0.711481,0.740464 0,0.446696 -0.01696,0.549655 -0.102853,0.627341 -0.07985,0.07232 -0.217309,0.0935 -0.617988,0.0935 -0.698468,0 -0.740463,-0.04172 -0.740463,-0.731114 0,-0.691201 0.04027,-0.730181 0.749813,-0.730181 z m 2.377527,0 c 0.709544,0 0.749816,0.03897 0.749816,0.730182 0,0.430816 -0.01644,0.52225 -0.112219,0.617989 -0.09635,0.09637 -0.187453,0.113106 -0.637623,0.113106 -0.6972,0 -0.739526,-0.04212 -0.739526,-0.731117 0,-0.688985 0.04231,-0.730179 0.739526,-0.730179 z m -14.843873,1.404263 c 3.87095,0 6.096675,0.02009 6.096675,0.05422 0,0.115114 -0.24175,0.667456 -0.46279,1.056479 l -0.230926,0.406702 H 27.20376 21.822305 l -0.118737,-0.167386 c -0.139016,-0.195207 -0.618923,-1.191899 -0.618923,-1.285524 0,-0.04711 1.588211,-0.06451 6.096674,-0.06451 z m 12.429889,0.955493 c 0.400496,0 0.616363,0.059 0.704935,0.191683 0.02298,0.03406 0.0416,0.29563 0.04202,0.581537 7.6e-4,0.445559 -0.01487,0.535673 -0.111252,0.632014 -0.09446,0.09447 -0.187299,0.112218 -0.582464,0.112218 -0.390465,0 -0.495935,-0.01931 -0.618919,-0.115976 -0.141054,-0.110937 -0.147683,-0.141341 -0.147683,-0.642294 0,-0.500976 0.0067,-0.531313 0.147683,-0.642301 0.119604,-0.0941 0.228272,-0.116889 0.565633,-0.116889 z m 2.658002,9e-4 c 0.216109,3.86e-4 0.26084,0.02988 0.362752,0.131843 0.132442,0.132442 0.143037,0.182261 0.143037,0.647913 0,0.477781 -0.0072,0.510427 -0.147735,0.620787 -0.122605,0.09649 -0.228192,0.115975 -0.612381,0.115975 -0.677612,0 -0.729245,-0.05319 -0.729245,-0.751681 0,-0.703224 0.02612,-0.730934 0.702133,-0.757299 0.118743,-0.0046 0.209404,-0.0072 0.281441,-0.0072 z m -15.087899,1.910092 c 2.494415,0 4.074425,0.0201 4.074425,0.05236 0,0.09611 -0.957473,0.691542 -1.461299,0.908748 -0.560058,0.24145 -1.169843,0.40834 -1.816566,0.49645 -1.174937,0.160079 -2.525221,-0.06384 -3.606023,-0.597409 -0.438585,-0.216536 -1.264958,-0.750245 -1.264958,-0.81713 0,-0.02376 1.8337,-0.04304 4.074421,-0.04304 z" />
  </g>
</svg>
