<?xml version="1.0" encoding="UTF-8" standalone="no"?>
<svg
   width="64"
   height="64"
   version="1.1"
   id="svg73"
   sodipodi:docname="accessories-text-editor.svg"
   inkscape:version="1.4.2 (ebf0e940d0, 2025-05-08)"
   xmlns:inkscape="http://www.inkscape.org/namespaces/inkscape"
   xmlns:sodipodi="http://sodipodi.sourceforge.net/DTD/sodipodi-0.dtd"
   xmlns="http://www.w3.org/2000/svg"
   xmlns:svg="http://www.w3.org/2000/svg"
   xmlns:rdf="http://www.w3.org/1999/02/22-rdf-syntax-ns#"
   xmlns:cc="http://creativecommons.org/ns#"
   xmlns:dc="http://purl.org/dc/elements/1.1/">
  <metadata
     id="metadata77">
    <rdf:RDF>
      <cc:Work
         rdf:about="">
        <dc:format>image/svg+xml</dc:format>
        <dc:type
           rdf:resource="http://purl.org/dc/dcmitype/StillImage" />
      </cc:Work>
    </rdf:RDF>
  </metadata>
  <sodipodi:namedview
     pagecolor="#f5f7fa"
     bordercolor="#666666"
     borderopacity="1"
     objecttolerance="10"
     gridtolerance="10"
     guidetolerance="10"
     inkscape:pageopacity="0"
     inkscape:pageshadow="2"
     inkscape:window-width="1377"
     inkscape:window-height="886"
     id="namedview75"
     showgrid="false"
     inkscape:zoom="6.2890624"
     inkscape:cx="47.622361"
     inkscape:cy="45.396274"
     inkscape:window-x="324"
     inkscape:window-y="75"
     inkscape:window-maximized="0"
     inkscape:current-layer="g877"
     inkscape:document-rotation="0"
     inkscape:pagecheckerboard="0"
     inkscape:showpageshadow="2"
     inkscape:deskcolor="#d1d1d1" />
  <defs
     id="defs29" />
  <circle
     cx="32.516094"
     cy="31.877844"
     r="0"
     fill="url(#b)"
     stroke-width="1.5715"
     id="circle41"
     style="fill:url(#b)" />
  <g
     aria-label="GZ"
     transform="matrix(1.2212657,0,0,0.81882264,0.4960938,-0.1661539)"
     id="text93"
     style="font-weight:bold;font-size:11.5263px;line-height:1.25;font-family:sans-serif;-inkscape-font-specification:'sans-serif Bold';fill:#f2f2f2;stroke-width:0.288159" />
  <g
     id="g877"
     transform="matrix(1.1,0,0,1.1,-3.1845928,-3.2065454)">
    <circle
       style="opacity:1;fill:#414141;stroke:#dfdfdf;stroke-width:2.27272727;stroke-dasharray:none;fill-opacity:1;stroke-opacity:1"
       id="path1"
       cx="31.985994"
       cy="32.005951"
       r="25.454546" />
    <path
       style="fill:#dfdfdf;fill-opacity:1;stroke-width:0.787728"
       d="m 31.985998,18.614579 c -3.160605,0.0056 -6.217412,1.128688 -8.629625,3.170914 l 4.53713,7.857283 6.25567,-10.835881 c -0.714661,-0.122567 -1.438099,-0.186882 -2.163175,-0.192316 z m 4.535593,0.809267 -4.535593,7.855744 h 12.522111 c -1.386368,-3.659796 -4.30433,-6.529981 -7.986518,-7.855744 z m -14.888376,4.101725 c -1.961791,2.39108 -3.03544,5.387514 -3.038603,8.480389 0.0018,0.79255 0.07382,1.583384 0.215405,2.363187 h 9.083494 z m 14.445275,6.117205 6.260286,10.843579 c 1.961794,-2.391077 3.035443,-5.387519 3.0386,-8.480395 -0.0018,-0.792549 -0.07382,-1.583382 -0.215432,-2.363184 z m 0,4.726371 -6.255669,10.835888 c 0.714663,0.122532 1.4381,0.186848 2.163177,0.192289 3.160603,-0.0058 6.217416,-1.12869 8.629628,-3.17092 z m -16.614605,2.363188 c 1.386372,3.659797 4.304337,6.529984 7.986519,7.855744 l 4.535594,-7.855744 z"
       id="path3-7" />
  </g>
</svg>
