<?xml version="1.0" encoding="UTF-8" standalone="no"?>
<svg
   width="64"
   height="64"
   version="1.1"
   id="svg73"
   sodipodi:docname="abcd.svg"
   inkscape:version="1.4.2 (ebf0e940d0, 2025-05-08)"
   xmlns:inkscape="http://www.inkscape.org/namespaces/inkscape"
   xmlns:sodipodi="http://sodipodi.sourceforge.net/DTD/sodipodi-0.dtd"
   xmlns="http://www.w3.org/2000/svg"
   xmlns:svg="http://www.w3.org/2000/svg"
   xmlns:rdf="http://www.w3.org/1999/02/22-rdf-syntax-ns#"
   xmlns:cc="http://creativecommons.org/ns#"
   xmlns:dc="http://purl.org/dc/elements/1.1/">
  <metadata
     id="metadata77">
    <rdf:RDF>
      <cc:Work
         rdf:about="">
        <dc:format>image/svg+xml</dc:format>
        <dc:type
           rdf:resource="http://purl.org/dc/dcmitype/StillImage" />
      </cc:Work>
    </rdf:RDF>
  </metadata>
  <sodipodi:namedview
     pagecolor="#f5f7fa"
     bordercolor="#666666"
     borderopacity="1"
     objecttolerance="10"
     gridtolerance="10"
     guidetolerance="10"
     inkscape:pageopacity="0"
     inkscape:pageshadow="2"
     inkscape:window-width="1377"
     inkscape:window-height="726"
     id="namedview75"
     showgrid="false"
     inkscape:zoom="6.2890624"
     inkscape:cx="47.622361"
     inkscape:cy="45.396274"
     inkscape:window-x="22"
     inkscape:window-y="80"
     inkscape:window-maximized="0"
     inkscape:current-layer="g877"
     inkscape:document-rotation="0"
     inkscape:pagecheckerboard="0"
     inkscape:showpageshadow="2"
     inkscape:deskcolor="#d1d1d1" />
  <defs
     id="defs29" />
  <circle
     cx="32.516094"
     cy="31.877844"
     r="0"
     fill="url(#b)"
     stroke-width="1.5715"
     id="circle41"
     style="fill:url(#b)" />
  <g
     aria-label="GZ"
     transform="matrix(1.2212657,0,0,0.81882264,0.4960938,-0.1661539)"
     id="text93"
     style="font-weight:bold;font-size:11.5263px;line-height:1.25;font-family:sans-serif;-inkscape-font-specification:'sans-serif Bold';fill:#f2f2f2;stroke-width:0.288159" />
  <g
     id="g877"
     transform="matrix(1.1,0,0,1.1,-3.1845928,-3.2065454)">
    <circle
       style="opacity:1;fill:#414141;stroke:#dfdfdf;stroke-width:2.27272727;stroke-dasharray:none;fill-opacity:1;stroke-opacity:1"
       id="path1"
       cx="31.985994"
       cy="32.005951"
       r="25.454546" />
    <path
       style="fill:#dfdfdf;fill-opacity:1;stroke-width:0.699546"
       d="m 19.122343,18.027427 c -0.453773,0.03768 -0.765051,0.20908 -0.959044,0.516408 -0.276528,0.438164 -0.203549,1.560242 0.174868,2.677673 0.376082,1.110579 1.274485,2.864893 2.114817,4.289743 1.388185,-2.02025 3.296687,-3.649139 5.524749,-4.715984 -1.98274,-1.251707 -4.114505,-2.277951 -5.524749,-2.617564 -0.307461,-0.07772 -0.582455,-0.123662 -0.827893,-0.144812 -0.184084,-0.01685 -0.351489,-0.01804 -0.502748,-0.0055 z m 25.727522,0 c -0.151251,-0.01256 -0.318665,-0.01139 -0.502745,0.0055 -0.245389,0.02114 -0.520441,0.06709 -0.827894,0.144812 -1.563245,0.376455 -4.023707,1.579461 -6.172311,3.019209 -1.093531,0.732722 -1.164296,0.828474 -1.163967,1.571083 2.58e-4,0.530746 0.04356,0.706683 0.311483,1.262332 0.741557,1.537777 2.398905,3.108947 3.817051,3.617589 0.62912,0.225773 1.434162,0.218369 1.732291,-0.0164 0.748663,-0.587001 2.948238,-4.514027 3.590267,-6.410022 0.378416,-1.117374 0.451343,-2.239453 0.174869,-2.67767 -0.194033,-0.307327 -0.505287,-0.478723 -0.959044,-0.516407 z M 31.986104,20.817125 A 12.590527,12.590527 0 0 0 19.395576,33.407654 12.590527,12.590527 0 0 0 31.986104,45.998183 12.590527,12.590527 0 0 0 44.576632,33.407654 12.590527,12.590527 0 0 0 43.434524,28.202585 c -0.146027,0.17861 -0.299664,0.350567 -0.524605,0.527338 -0.624928,0.49208 -1.108121,0.476551 -1.595674,0.480887 -0.487556,0.0042 -0.978004,-0.06739 -1.475455,-0.245907 -1.953897,-0.700802 -3.670119,-2.391481 -4.603957,-4.327995 -0.292758,-0.607172 -0.450538,-1.263519 -0.450834,-1.868907 -1.71e-4,-0.392092 0.06108,-1.01274 0.393454,-1.524634 a 12.590527,12.590527 0 0 0 -3.191349,-0.426242 z"
       id="path4" />
  </g>
</svg>
