<?xml version="1.0" encoding="UTF-8" standalone="no"?>
<svg
   width="64"
   height="64"
   version="1.1"
   id="svg73"
   sodipodi:docname="dev.edfloreshz.CosmicTweaks.svg"
   inkscape:version="1.4.2 (ebf0e940d0, 2025-05-08)"
   xmlns:inkscape="http://www.inkscape.org/namespaces/inkscape"
   xmlns:sodipodi="http://sodipodi.sourceforge.net/DTD/sodipodi-0.dtd"
   xmlns="http://www.w3.org/2000/svg"
   xmlns:svg="http://www.w3.org/2000/svg"
   xmlns:rdf="http://www.w3.org/1999/02/22-rdf-syntax-ns#"
   xmlns:cc="http://creativecommons.org/ns#"
   xmlns:dc="http://purl.org/dc/elements/1.1/">
  <metadata
     id="metadata77">
    <rdf:RDF>
      <cc:Work
         rdf:about="">
        <dc:format>image/svg+xml</dc:format>
        <dc:type
           rdf:resource="http://purl.org/dc/dcmitype/StillImage" />
      </cc:Work>
    </rdf:RDF>
  </metadata>
  <sodipodi:namedview
     pagecolor="#f5f7fa"
     bordercolor="#666666"
     borderopacity="1"
     objecttolerance="10"
     gridtolerance="10"
     guidetolerance="10"
     inkscape:pageopacity="0"
     inkscape:pageshadow="2"
     inkscape:window-width="1377"
     inkscape:window-height="886"
     id="namedview75"
     showgrid="false"
     inkscape:zoom="6.2890625"
     inkscape:cx="48.417391"
     inkscape:cy="45.396273"
     inkscape:window-x="0"
     inkscape:window-y="47"
     inkscape:window-maximized="0"
     inkscape:current-layer="g877"
     inkscape:document-rotation="0"
     inkscape:pagecheckerboard="0"
     inkscape:showpageshadow="2"
     inkscape:deskcolor="#d1d1d1" />
  <defs
     id="defs29" />
  <circle
     cx="32.516094"
     cy="31.877844"
     r="0"
     fill="url(#b)"
     stroke-width="1.5715"
     id="circle41"
     style="fill:url(#b)" />
  <g
     aria-label="GZ"
     transform="matrix(1.2212657,0,0,0.81882264,0.4960938,-0.1661539)"
     id="text93"
     style="font-weight:bold;font-size:11.5263px;line-height:1.25;font-family:sans-serif;-inkscape-font-specification:'sans-serif Bold';fill:#f2f2f2;stroke-width:0.288159" />
  <g
     id="g877"
     transform="matrix(1.1,0,0,1.1,-3.1845928,-3.2065454)">
    <circle
       style="opacity:1;fill:#414141;stroke:#dfdfdf;stroke-width:2.27272727;stroke-dasharray:none;fill-opacity:1;stroke-opacity:1"
       id="path1"
       cx="31.985994"
       cy="32.005951"
       r="25.454546" />
    <path
       style="color:#444444;fill:#dfdfdf;fill-opacity:1;stroke:none;stroke-width:0.434234;stroke-dasharray:none;stroke-opacity:0.6"
       class="ColorScheme-Text"
       d="m 24.075587,19.151544 v 3.955202 h 15.820808 v -3.955202 z m -3.955204,5.932803 c -0.988802,0 -1.9776,0.9888 -1.9776,1.977601 v 7.910409 c 0,0.988794 0.988798,1.9776 1.9776,1.9776 h 1.977604 v -3.955204 h 19.776008 v 3.955204 h 1.977611 c 0.9888,0 1.977598,-0.988806 1.977598,-1.9776 v -7.910409 c 0,-0.988801 -0.988798,-1.977601 -1.977598,-1.977601 z m 3.955204,9.88801 v 9.888 h 15.820808 v -9.888 z"
       id="path5" />
    <circle
       style="fill:#414141;fill-opacity:1;stroke:#dfdfdf;stroke-width:1.08705;stroke-dasharray:none;stroke-opacity:1"
       id="path1-6"
       cx="48.320271"
       cy="48.287033"
       r="12.17483" />
    <path
       style="fill:#dfdfdf;fill-opacity:1;fill-rule:evenodd;stroke:none;stroke-width:0.40909;stroke-dasharray:none;stroke-opacity:0.6"
       d="m 48.314682,44.480122 v 0.0013 c -1.346513,0.01237 -2.701664,0.301539 -3.874566,0.9273 -0.467479,0.286634 -1.028694,0.656739 -1.451607,1.029748 -0.665427,0.613334 -1.235019,1.328356 -1.619828,2.130008 1.054874,2.190612 3.373321,3.79662 5.92445,4.03385 1.673429,0.178308 3.425089,-0.0946 4.896114,-0.874089 0.467462,-0.286635 1.028687,-0.656743 1.451601,-1.029751 0.665432,-0.614668 1.235025,-1.329693 1.619833,-2.130037 -1.054403,-2.190484 -3.373881,-3.795818 -5.92445,-4.03252 -0.338965,-0.03794 -0.681198,-0.05588 -1.021547,-0.05588 z m 0.0028,1.362354 c 1.486239,-0.03228 2.8023,1.272181 2.774333,2.72205 0.04774,1.602433 -1.579868,2.985364 -3.189367,2.686122 -1.625478,-0.187184 -2.767653,-1.976104 -2.233026,-3.491034 0.341812,-1.114532 1.458335,-1.92887 2.64952,-1.915808 z m -0.0028,1.362352 a 1.3891991,1.3615703 0 0 0 -1.389203,1.363687 1.3891991,1.3615703 0 0 0 1.389203,1.361021 1.3891991,1.3615703 0 0 0 1.389199,-1.361021 1.3891991,1.3615703 0 0 0 -1.389199,-1.359692 z"
       id="path24" />
  </g>
</svg>
