<?xml version="1.0" encoding="UTF-8" standalone="no"?>
<svg
   width="64"
   height="64"
   version="1.1"
   id="svg73"
   sodipodi:docname="abcd.svg"
   inkscape:version="1.4.2 (ebf0e940d0, 2025-05-08)"
   xmlns:inkscape="http://www.inkscape.org/namespaces/inkscape"
   xmlns:sodipodi="http://sodipodi.sourceforge.net/DTD/sodipodi-0.dtd"
   xmlns="http://www.w3.org/2000/svg"
   xmlns:svg="http://www.w3.org/2000/svg"
   xmlns:rdf="http://www.w3.org/1999/02/22-rdf-syntax-ns#"
   xmlns:cc="http://creativecommons.org/ns#"
   xmlns:dc="http://purl.org/dc/elements/1.1/">
  <metadata
     id="metadata77">
    <rdf:RDF>
      <cc:Work
         rdf:about="">
        <dc:format>image/svg+xml</dc:format>
        <dc:type
           rdf:resource="http://purl.org/dc/dcmitype/StillImage" />
      </cc:Work>
    </rdf:RDF>
  </metadata>
  <sodipodi:namedview
     pagecolor="#f5f7fa"
     bordercolor="#666666"
     borderopacity="1"
     objecttolerance="10"
     gridtolerance="10"
     guidetolerance="10"
     inkscape:pageopacity="0"
     inkscape:pageshadow="2"
     inkscape:window-width="1377"
     inkscape:window-height="726"
     id="namedview75"
     showgrid="false"
     inkscape:zoom="6.2890624"
     inkscape:cx="47.622361"
     inkscape:cy="45.396274"
     inkscape:window-x="22"
     inkscape:window-y="80"
     inkscape:window-maximized="0"
     inkscape:current-layer="g877"
     inkscape:document-rotation="0"
     inkscape:pagecheckerboard="0"
     inkscape:showpageshadow="2"
     inkscape:deskcolor="#d1d1d1" />
  <defs
     id="defs29" />
  <circle
     cx="32.516094"
     cy="31.877844"
     r="0"
     fill="url(#b)"
     stroke-width="1.5715"
     id="circle41"
     style="fill:url(#b)" />
  <g
     aria-label="GZ"
     transform="matrix(1.2212657,0,0,0.81882264,0.4960938,-0.1661539)"
     id="text93"
     style="font-weight:bold;font-size:11.5263px;line-height:1.25;font-family:sans-serif;-inkscape-font-specification:'sans-serif Bold';fill:#f2f2f2;stroke-width:0.288159" />
  <g
     id="g877"
     transform="matrix(1.1,0,0,1.1,-3.1845928,-3.2065454)">
    <circle
       style="opacity:1;fill:#414141;stroke:#dfdfdf;stroke-width:2.27272727;stroke-dasharray:none;fill-opacity:1;stroke-opacity:1"
       id="path1"
       cx="31.985994"
       cy="32.005951"
       r="25.454546" />
    <path
       style="fill:#dfdfdf;fill-opacity:1;stroke:none;stroke-width:0.345235;stroke-dasharray:none;stroke-opacity:0.6"
       d="m 32.780152,45.383913 c 0.11888,-0.01774 0.216143,-0.05561 0.216143,-0.08487 0,-0.02935 -0.276827,-0.187899 -0.615172,-0.352466 -1.105612,-0.537757 -1.666422,-1.046437 -2.020068,-1.832305 -0.142759,-0.317231 -0.212933,-0.746285 -0.122073,-0.746285 0.01973,0 0.146937,0.05564 0.28265,0.123701 0.287193,0.143923 0.726365,0.217622 0.899277,0.15097 0.109681,-0.04231 0.102457,-0.06918 -0.08056,-0.299478 -0.344052,-0.432917 -0.472209,-0.885278 -0.472209,-1.66674 0,-0.684018 0.0022,-0.693428 0.300073,-1.288477 0.638774,-1.276012 1.871131,-2.263083 3.291199,-2.636127 0.54821,-0.144004 2.095472,-0.206037 2.89297,-0.115922 0.329206,0.03722 0.610895,0.05538 0.625975,0.04043 0.182145,-0.180635 -1.29338,-1.707517 -2.32188,-2.402746 -0.365418,-0.247011 -2.065294,-1.101873 -2.414231,-1.214114 -0.139061,-0.04474 -0.242733,-0.115904 -0.230389,-0.158164 0.04664,-0.159596 0.904126,-0.513181 1.647064,-0.679161 0.420646,-0.09398 0.788791,-0.194459 0.818103,-0.223294 0.09147,-0.08997 -0.73547,-0.544982 -1.548786,-0.852166 -0.506128,-0.191164 -2.305298,-0.616177 -2.614663,-0.617661 -0.24136,-0.0014 -0.434757,-0.09827 -0.354978,-0.178254 0.02936,-0.02942 0.594456,-0.06348 1.2558,-0.07565 0.901042,-0.01663 1.370612,0.0058 1.873361,0.0894 1.201242,0.199733 2.473054,0.678797 3.40137,1.28122 0.420214,0.272697 1.293108,1.051095 1.293108,1.153125 0,0.03239 -0.09925,0.0589 -0.220572,0.0589 -0.438527,0 -1.578055,0.261173 -1.726523,0.395709 -0.02841,0.02574 0.300773,0.175354 0.731553,0.332434 1.532081,0.558665 2.690305,1.241493 3.942229,2.324142 l 0.698302,0.603882 0.04465,-1.060901 c 0.07096,-1.685447 0.184324,-2.054746 0.812817,-2.649199 0.567812,-0.537008 0.949028,-0.682475 1.994464,-0.761062 0.47978,-0.03607 0.902258,-0.09428 0.938832,-0.129382 0.09912,-0.09504 -0.455103,-0.558206 -1.529575,-1.278351 -0.887402,-0.594771 -1.223324,-0.795649 -2.593692,-1.551028 -0.780602,-0.430286 -0.918191,-0.619631 -0.885465,-1.218537 0.04527,-0.828675 0.589277,-1.653006 1.493535,-2.26319 0.269127,-0.181577 0.489256,-0.355921 0.489256,-0.387418 0,-0.111578 -0.378145,-0.150844 -1.394702,-0.144808 -1.104923,0.0064 -1.322411,0.02874 -1.81847,0.185177 -0.176103,0.05557 -0.33594,0.08527 -0.355169,0.06604 -0.01904,-0.01923 0.07178,-0.271411 0.202304,-0.560405 0.270102,-0.598255 0.400387,-1.152166 0.516468,-2.196089 0.05287,-0.475627 0.05939,-0.803261 0.01879,-0.944573 l -0.06232,-0.216347 -0.443688,0.559955 c -0.564706,0.712841 -1.547985,1.65227 -2.186034,2.088674 -0.272744,0.186542 -1.061184,0.645794 -1.752098,1.020557 -1.989134,1.078951 -2.747152,1.600926 -3.88975,2.678511 -0.468658,0.441994 -0.713325,0.632021 -0.726831,0.564511 -0.02893,-0.144686 0.450807,-1.071527 0.799406,-1.544386 0.382366,-0.518665 1.324758,-1.504993 1.841905,-1.927778 0.507608,-0.414984 0.639657,-0.685863 0.742224,-1.522536 0.156923,-1.280092 -0.02067,-2.618378 -0.53658,-4.043086 -0.268841,-0.742431 -0.374556,-0.842089 -0.432207,-0.407441 -0.184961,1.394387 -0.446696,2.04691 -1.252959,3.123703 -0.48617,0.649295 -1.18496,1.339927 -3.936637,3.890691 -1.634715,1.515353 -2.91576,2.905133 -3.645281,3.954696 -0.206509,0.297101 -0.425593,0.581411 -0.486848,0.631796 -0.101458,0.08343 -0.107343,0.07124 -0.06607,-0.137016 0.07098,-0.358184 0.657616,-1.524482 0.9955,-1.97915 0.517187,-0.695947 1.200602,-1.437924 3.141734,-3.410955 1.849013,-1.879397 2.197864,-2.283854 2.346842,-2.720952 0.105259,-0.308807 0.09496,-1.208196 -0.02006,-1.750911 -0.179118,-0.845183 -0.501436,-1.333574 -0.501436,-0.759787 0,0.327693 -0.379523,1.47046 -0.698835,2.104223 -0.156839,0.31132 -0.477341,0.79049 -0.712213,1.064824 -0.434266,0.507226 -2.056205,2.077638 -4.499143,4.356213 -1.497168,1.396436 -2.038878,2.044106 -2.507499,2.997962 -0.382791,0.779155 -0.49138,1.307981 -0.49282,2.400007 -6.36e-4,0.481664 -0.01929,0.923092 -0.04152,0.980949 -0.02267,0.05912 -0.117386,0.105308 -0.216141,0.105447 -0.444486,6.29e-4 -0.937559,0.563152 -0.992215,1.131973 -0.02386,0.248226 -0.05876,0.330731 -0.139711,0.330251 -0.230828,-0.0014 -0.985653,-0.65938 -1.333332,-1.162313 -0.190769,-0.275949 -0.374662,-0.484538 -0.40866,-0.463525 -0.03398,0.02101 -0.06144,0.388086 -0.06094,0.815715 0.0023,2.149684 0.82403,3.829887 2.459812,5.030328 l 0.432285,0.31723 0.03551,-0.655646 c 0.04218,-0.778939 0.183688,-1.145347 0.597352,-1.546798 0.598723,-0.581043 1.593931,-0.883879 2.845505,-0.865877 0.376831,0.0056 0.700757,-0.0058 0.719831,-0.02479 0.01904,-0.01904 -0.01241,-0.125761 -0.06998,-0.237039 -0.128898,-0.249279 -0.135342,-0.738389 -0.01355,-1.029863 0.204701,-0.489915 0.883679,-0.878522 1.904046,-1.08976 0.747278,-0.154705 2.88474,-0.152019 3.447,0.0043 0.543522,0.151135 1.14185,0.416292 1.14185,0.506021 0,0.04287 -0.190545,0.07017 -0.489712,0.07017 -0.585206,0 -1.011523,0.07447 -1.524301,0.266346 -0.444318,0.166245 -0.471276,0.257868 -0.179883,0.611381 0.256103,0.310705 0.516186,0.871692 0.569761,1.228951 0.03282,0.218823 0.0053,0.358686 -0.128731,0.651182 -0.194349,0.42451 -0.429303,0.567398 -0.933014,0.567398 -0.509269,0 -0.528697,0.02904 -0.296021,0.441224 0.17709,0.313785 0.20061,0.411637 0.174536,0.72604 -0.05179,0.624563 -0.46346,0.932987 -1.169632,0.876305 l -0.427458,-0.03435 0.04513,0.242311 c 0.123035,0.66071 0.11857,0.768682 -0.04165,1.007147 -0.250536,0.372913 -0.581815,0.499659 -1.285218,0.49174 -0.458085,-0.0056 -0.711692,-0.04647 -1.080709,-0.176051 -0.357184,-0.125422 -0.482158,-0.146641 -0.482158,-0.08178 0,0.164645 0.652699,1.062515 1.074768,1.478539 0.575034,0.566785 0.969731,0.841312 1.751698,1.218357 1.239845,0.59783 2.946481,0.978168 4.588846,1.022667 0.51209,0.01409 1.028335,0.01149 1.147212,-0.0064 z M 24.336033,33.014852 c -0.0661,-0.04066 0.155967,-0.584687 0.42378,-1.038157 0.600881,-1.017423 1.777,-2.056748 2.50042,-2.209596 l 0.216139,-0.04568 V 30.0938 c 0,0.620886 -0.521432,1.657441 -1.208991,2.403355 -0.332676,0.360913 -0.580187,0.503228 -0.985676,0.566761 -0.282537,0.04425 -0.841094,0.01529 -0.945672,-0.0491 z"
       id="path2-65" />
  </g>
</svg>
