<?xml version="1.0" encoding="UTF-8" standalone="no"?>
<svg
   width="64"
   height="64"
   version="1.1"
   id="svg73"
   sodipodi:docname="engrampa.svg"
   inkscape:version="1.4.2 (ebf0e940d0, 2025-05-08)"
   xmlns:inkscape="http://www.inkscape.org/namespaces/inkscape"
   xmlns:sodipodi="http://sodipodi.sourceforge.net/DTD/sodipodi-0.dtd"
   xmlns="http://www.w3.org/2000/svg"
   xmlns:svg="http://www.w3.org/2000/svg"
   xmlns:rdf="http://www.w3.org/1999/02/22-rdf-syntax-ns#"
   xmlns:cc="http://creativecommons.org/ns#"
   xmlns:dc="http://purl.org/dc/elements/1.1/">
  <metadata
     id="metadata77">
    <rdf:RDF>
      <cc:Work
         rdf:about="">
        <dc:format>image/svg+xml</dc:format>
        <dc:type
           rdf:resource="http://purl.org/dc/dcmitype/StillImage" />
      </cc:Work>
    </rdf:RDF>
  </metadata>
  <sodipodi:namedview
     pagecolor="#f5f7fa"
     bordercolor="#666666"
     borderopacity="1"
     objecttolerance="10"
     gridtolerance="10"
     guidetolerance="10"
     inkscape:pageopacity="0"
     inkscape:pageshadow="2"
     inkscape:window-width="1377"
     inkscape:window-height="886"
     id="namedview75"
     showgrid="false"
     inkscape:zoom="6.2890624"
     inkscape:cx="47.622361"
     inkscape:cy="45.396274"
     inkscape:window-x="105"
     inkscape:window-y="88"
     inkscape:window-maximized="0"
     inkscape:current-layer="g877"
     inkscape:document-rotation="0"
     inkscape:pagecheckerboard="0"
     inkscape:showpageshadow="2"
     inkscape:deskcolor="#d1d1d1" />
  <defs
     id="defs29" />
  <circle
     cx="32.516094"
     cy="31.877844"
     r="0"
     fill="url(#b)"
     stroke-width="1.5715"
     id="circle41"
     style="fill:url(#b)" />
  <g
     aria-label="GZ"
     transform="matrix(1.2212657,0,0,0.81882264,0.4960938,-0.1661539)"
     id="text93"
     style="font-weight:bold;font-size:11.5263px;line-height:1.25;font-family:sans-serif;-inkscape-font-specification:'sans-serif Bold';fill:#f2f2f2;stroke-width:0.288159" />
  <g
     id="g877"
     transform="matrix(1.1,0,0,1.1,-3.1845928,-3.2065454)">
    <circle
       style="opacity:1;fill:#414141;stroke:#dfdfdf;stroke-width:2.27272727;stroke-dasharray:none;fill-opacity:1;stroke-opacity:1"
       id="path1"
       cx="31.985994"
       cy="32.005951"
       r="25.454546" />
    <circle
       style="fill:#414141;fill-opacity:1;stroke:#dfdfdf;stroke-width:1.08705;stroke-dasharray:none;stroke-opacity:1"
       id="path1-6"
       cx="48.320271"
       cy="48.287033"
       r="12.17483" />
    <path
       style="fill:#dfdfdf;fill-opacity:1;stroke:none;stroke-width:0.40095;stroke-dasharray:none;stroke-opacity:0.6"
       d="m 47.998188,54.474203 c -0.194141,-0.111537 -4.809919,-4.354239 -5.539499,-5.091759 -0.513744,-0.519338 -0.549223,-0.774462 -0.167166,-1.202242 l 0.265917,-0.297812 2.01368,-0.03051 2.013675,-0.03051 v -2.215907 -2.215912 l 0.254785,-0.48773 c 0.781611,-1.496169 2.689368,-1.321018 3.261083,0.299389 0.10021,0.283992 0.131566,0.880485 0.131566,2.504192 v 2.131389 l 1.800906,0.0051 c 1.954278,0.0059 2.307732,0.06847 2.59988,0.462645 0.355652,0.479832 0.267817,0.588186 -2.733384,3.371457 -1.535615,1.424114 -2.898029,2.660839 -3.02759,2.748275 -0.270022,0.182209 -0.609699,0.201606 -0.873847,0.04985 z"
       id="path5" />
    <g
       id="g8737"
       style="fill:#dfdfdf;fill-opacity:1;stroke:none;stroke-width:0.446152;stroke-dasharray:none;stroke-opacity:0.6"
       transform="matrix(0.93630672,0,0,0.93630681,1.8719437,-0.14956029)">
      <path
         style="fill:#dfdfdf;fill-opacity:1;stroke:none;stroke-width:0.446152;stroke-dasharray:none;stroke-opacity:0.6"
         d="m 32.877806,16.65545 c -2.43174,0 -4.4,1.98 -4.4,4.4 v 8.8 c 0,2.42 1.969,4.4 4.4,4.4 2.430997,0 4.399997,-1.98 4.399997,-4.4 v -8.8 c 0,-2.42 -1.968267,-4.4 -4.399997,-4.4 z m 0,2.2 c 1.214397,0 2.199997,0.88 2.199997,2.2 0,1.099998 -0.9856,2.2 -2.199997,2.2 -1.2144,0 -2.2,-1.100002 -2.2,-2.2 0,-1.32 0.9856,-2.2 2.2,-2.2 z m 0,6.6 c 1.215024,0 2.199997,0.984973 2.199997,2.2 v 2.2 c 0,1.215027 -0.984973,2.2 -2.199997,2.2 -1.21503,0 -2.2,-0.984973 -2.2,-2.2 v -2.2 c 0,-1.215027 0.98497,-2.2 2.2,-2.2 z"
         id="path20-1" />
      <path
         style="fill:#dfdfdf;fill-opacity:1;stroke:none;stroke-width:0.446152;stroke-dasharray:none;stroke-opacity:0.6"
         d="m 31.838426,9.51125 h 1.1 c 0.0454,-0.404282 0,-1.1 0,-1.1 h -1.1 z m 1.1,0 v 1.1 h 1.1 v -1.1 z m 0,1.1 h -1.1 v 1.1 h 1.1 z m 0,1.1 v 1.1 h 1.1 v -1.1 z m 0,1.1 h -1.1 v 1.1 h 1.1 z m 0,1.1 v 1.1 h 1.1 v -1.1 z m 0,1.1 h -1.1 v 1.1 h 1.1 z m 0,1.1 c -0.13647,1.751109 1.101015,0.886361 1.1,0 z"
         id="path16"
         sodipodi:nodetypes="cccccccccccccccccccccccccccccccccccccc" />
    </g>
  </g>
</svg>
