<?xml version="1.0" encoding="UTF-8" standalone="no"?>
<svg
   width="64"
   height="64"
   version="1.1"
   id="svg73"
   sodipodi:docname="abcd.svg"
   inkscape:version="1.4.2 (ebf0e940d0, 2025-05-08)"
   xmlns:inkscape="http://www.inkscape.org/namespaces/inkscape"
   xmlns:sodipodi="http://sodipodi.sourceforge.net/DTD/sodipodi-0.dtd"
   xmlns="http://www.w3.org/2000/svg"
   xmlns:svg="http://www.w3.org/2000/svg"
   xmlns:rdf="http://www.w3.org/1999/02/22-rdf-syntax-ns#"
   xmlns:cc="http://creativecommons.org/ns#"
   xmlns:dc="http://purl.org/dc/elements/1.1/">
  <metadata
     id="metadata77">
    <rdf:RDF>
      <cc:Work
         rdf:about="">
        <dc:format>image/svg+xml</dc:format>
        <dc:type
           rdf:resource="http://purl.org/dc/dcmitype/StillImage" />
      </cc:Work>
    </rdf:RDF>
  </metadata>
  <sodipodi:namedview
     pagecolor="#f5f7fa"
     bordercolor="#666666"
     borderopacity="1"
     objecttolerance="10"
     gridtolerance="10"
     guidetolerance="10"
     inkscape:pageopacity="0"
     inkscape:pageshadow="2"
     inkscape:window-width="1377"
     inkscape:window-height="688"
     id="namedview75"
     showgrid="false"
     inkscape:zoom="6.2890624"
     inkscape:cx="47.622361"
     inkscape:cy="37.445963"
     inkscape:window-x="33"
     inkscape:window-y="125"
     inkscape:window-maximized="0"
     inkscape:current-layer="g877"
     inkscape:document-rotation="0"
     inkscape:pagecheckerboard="0"
     inkscape:showpageshadow="2"
     inkscape:deskcolor="#d1d1d1" />
  <defs
     id="defs29" />
  <circle
     cx="32.516094"
     cy="31.877844"
     r="0"
     fill="url(#b)"
     stroke-width="1.5715"
     id="circle41"
     style="fill:url(#b)" />
  <g
     aria-label="GZ"
     transform="matrix(1.2212657,0,0,0.81882264,0.4960938,-0.1661539)"
     id="text93"
     style="font-weight:bold;font-size:11.5263px;line-height:1.25;font-family:sans-serif;-inkscape-font-specification:'sans-serif Bold';fill:#f2f2f2;stroke-width:0.288159" />
  <g
     id="g877"
     transform="matrix(1.1,0,0,1.1,-3.1845928,-3.2065454)">
    <circle
       style="opacity:1;fill:#414141;stroke:#dfdfdf;stroke-width:2.27272727;stroke-dasharray:none;fill-opacity:1;stroke-opacity:1"
       id="path1"
       cx="31.985994"
       cy="32.005951"
       r="25.454546" />
    <path
       style="fill:#dfdfdf;fill-opacity:1;stroke:none;stroke-width:0.42525;stroke-dasharray:none;stroke-dashoffset:2.2;stroke-opacity:0.6"
       d="m 31.535892,45.989892 c -1.287001,-0.480378 -3.130341,-1.63038 -4.364658,-2.722968 -4.171462,-3.692489 -6.518522,-10.721258 -6.321472,-18.930995 0.05354,-2.231334 0.136868,-2.674893 0.543267,-2.892391 0.532157,-0.284802 10.296402,-3.513911 10.615818,-3.510731 0.199562,0.0021 2.582692,0.758429 5.48057,1.739616 6.038979,2.044727 5.496491,1.710325 5.606105,3.45571 0.104092,1.657874 -0.01519,5.17289 -0.229491,6.765255 -0.461218,3.426197 -1.191651,5.956197 -2.453532,8.498306 -1.623962,3.271526 -3.895004,5.599468 -6.905583,7.078602 -1.326524,0.65174 -1.496775,0.69662 -1.971053,0.519596 z m 1.537521,-10.991037 c 1.703438,-2.335906 3.169572,-4.398955 3.258079,-4.584553 0.237327,-0.497685 0.210517,-1.049667 -0.06433,-1.324519 -0.338514,-0.338512 -0.826176,-0.429673 -2.301612,-0.430255 l -1.339948,-5.29e-4 0.71109,-1.922803 c 0.845523,-2.286309 0.907377,-2.613051 0.560359,-2.960067 -0.238932,-0.238929 -0.274636,-0.244602 -1.540173,-0.244602 -1.452815,0 -1.785669,0.09326 -2.180572,0.611016 -0.306368,0.401664 -2.514536,6.887029 -2.514536,7.385154 0,0.287112 0.06467,0.438977 0.277553,0.65187 l 0.277554,0.277553 h 1.228752 1.228746 l -0.559362,3.295612 c -0.307646,1.812585 -0.536957,3.353984 -0.50958,3.425335 0.02739,0.07137 0.122017,0.115812 0.210299,0.09877 0.08829,-0.01696 1.554245,-1.942109 3.257683,-4.278016 z"
       id="path83" />
  </g>
</svg>
