<?xml version="1.0" encoding="UTF-8" standalone="no"?>
<svg
   width="64"
   height="64"
   version="1.1"
   id="svg73"
   sodipodi:docname="abcd.svg"
   inkscape:version="1.4.2 (ebf0e940d0, 2025-05-08)"
   xmlns:inkscape="http://www.inkscape.org/namespaces/inkscape"
   xmlns:sodipodi="http://sodipodi.sourceforge.net/DTD/sodipodi-0.dtd"
   xmlns="http://www.w3.org/2000/svg"
   xmlns:svg="http://www.w3.org/2000/svg"
   xmlns:rdf="http://www.w3.org/1999/02/22-rdf-syntax-ns#"
   xmlns:cc="http://creativecommons.org/ns#"
   xmlns:dc="http://purl.org/dc/elements/1.1/">
  <metadata
     id="metadata77">
    <rdf:RDF>
      <cc:Work
         rdf:about="">
        <dc:format>image/svg+xml</dc:format>
        <dc:type
           rdf:resource="http://purl.org/dc/dcmitype/StillImage" />
      </cc:Work>
    </rdf:RDF>
  </metadata>
  <sodipodi:namedview
     pagecolor="#f5f7fa"
     bordercolor="#666666"
     borderopacity="1"
     objecttolerance="10"
     gridtolerance="10"
     guidetolerance="10"
     inkscape:pageopacity="0"
     inkscape:pageshadow="2"
     inkscape:window-width="1377"
     inkscape:window-height="688"
     id="namedview75"
     showgrid="false"
     inkscape:zoom="6.2890624"
     inkscape:cx="47.622361"
     inkscape:cy="37.445963"
     inkscape:window-x="33"
     inkscape:window-y="125"
     inkscape:window-maximized="0"
     inkscape:current-layer="g877"
     inkscape:document-rotation="0"
     inkscape:pagecheckerboard="0"
     inkscape:showpageshadow="2"
     inkscape:deskcolor="#d1d1d1" />
  <defs
     id="defs29" />
  <circle
     cx="32.516094"
     cy="31.877844"
     r="0"
     fill="url(#b)"
     stroke-width="1.5715"
     id="circle41"
     style="fill:url(#b)" />
  <g
     aria-label="GZ"
     transform="matrix(1.2212657,0,0,0.81882264,0.4960938,-0.1661539)"
     id="text93"
     style="font-weight:bold;font-size:11.5263px;line-height:1.25;font-family:sans-serif;-inkscape-font-specification:'sans-serif Bold';fill:#f2f2f2;stroke-width:0.288159" />
  <g
     id="g877"
     transform="matrix(1.1,0,0,1.1,-3.1845928,-3.2065454)">
    <circle
       style="opacity:1;fill:#414141;stroke:#dfdfdf;stroke-width:2.27272727;stroke-dasharray:none;fill-opacity:1;stroke-opacity:1"
       id="path1"
       cx="31.985994"
       cy="32.005951"
       r="25.454546" />
    <path
       d="m 34.620367,17.979051 c -3.864896,0.02353 -8.227918,0.889558 -12.482128,1.989824 -0.210331,2.064705 0.134863,4.174604 0.849996,6.315887 4.637707,-5.244398 17.510297,-7.129227 23.148854,-2.09015 -1.859934,-4.697324 -6.220409,-6.24779 -11.516782,-6.215561 z m -13.993091,2.182967 -2.286987,0.579303 c 0.341876,4.726889 1.72943,8.020902 3.661699,10.570097 -1.002061,0.626922 -2.465347,1.19187 -4.16709,1.626257 0.343148,0.399673 0.863321,0.98025 1.849631,1.122623 1.505271,-0.26233 2.418027,-0.90767 3.25639,-1.611112 4.618927,5.158429 11.524289,7.206778 15.335391,13.584154 l 2.995033,-0.0077 C 34.279342,33.119609 21.557545,38.541155 20.627335,20.162018 Z"
       fill="#ffffff"
       fill-rule="evenodd"
       id="path2-2"
       style="fill:#dfdfdf;fill-opacity:1;stroke:none;stroke-width:0.468838;stroke-dasharray:none;stroke-opacity:0.6" />
  </g>
</svg>
