<?xml version="1.0" encoding="UTF-8" standalone="no"?>
<svg
   width="64"
   height="64"
   version="1.1"
   id="svg73"
   sodipodi:docname="abcd.svg"
   inkscape:version="1.4.2 (ebf0e940d0, 2025-05-08)"
   xmlns:inkscape="http://www.inkscape.org/namespaces/inkscape"
   xmlns:sodipodi="http://sodipodi.sourceforge.net/DTD/sodipodi-0.dtd"
   xmlns="http://www.w3.org/2000/svg"
   xmlns:svg="http://www.w3.org/2000/svg"
   xmlns:rdf="http://www.w3.org/1999/02/22-rdf-syntax-ns#"
   xmlns:cc="http://creativecommons.org/ns#"
   xmlns:dc="http://purl.org/dc/elements/1.1/">
  <metadata
     id="metadata77">
    <rdf:RDF>
      <cc:Work
         rdf:about="">
        <dc:format>image/svg+xml</dc:format>
        <dc:type
           rdf:resource="http://purl.org/dc/dcmitype/StillImage" />
      </cc:Work>
    </rdf:RDF>
  </metadata>
  <sodipodi:namedview
     pagecolor="#f5f7fa"
     bordercolor="#666666"
     borderopacity="1"
     objecttolerance="10"
     gridtolerance="10"
     guidetolerance="10"
     inkscape:pageopacity="0"
     inkscape:pageshadow="2"
     inkscape:window-width="1377"
     inkscape:window-height="688"
     id="namedview75"
     showgrid="false"
     inkscape:zoom="6.2890624"
     inkscape:cx="47.622361"
     inkscape:cy="37.445963"
     inkscape:window-x="33"
     inkscape:window-y="125"
     inkscape:window-maximized="0"
     inkscape:current-layer="g877"
     inkscape:document-rotation="0"
     inkscape:pagecheckerboard="0"
     inkscape:showpageshadow="2"
     inkscape:deskcolor="#d1d1d1" />
  <defs
     id="defs29" />
  <circle
     cx="32.516094"
     cy="31.877844"
     r="0"
     fill="url(#b)"
     stroke-width="1.5715"
     id="circle41"
     style="fill:url(#b)" />
  <g
     aria-label="GZ"
     transform="matrix(1.2212657,0,0,0.81882264,0.4960938,-0.1661539)"
     id="text93"
     style="font-weight:bold;font-size:11.5263px;line-height:1.25;font-family:sans-serif;-inkscape-font-specification:'sans-serif Bold';fill:#f2f2f2;stroke-width:0.288159" />
  <g
     id="g877"
     transform="matrix(1.1,0,0,1.1,-3.1845928,-3.2065454)">
    <circle
       style="opacity:1;fill:#414141;stroke:#dfdfdf;stroke-width:2.27272727;stroke-dasharray:none;fill-opacity:1;stroke-opacity:1"
       id="path1"
       cx="31.985994"
       cy="32.005951"
       r="25.454546" />
    <path
       style="fill:#dfdfdf;fill-opacity:1;stroke-width:0.286741"
       d="m 21.043386,44.700145 c -0.240314,-0.240329 -0.344088,-1.796914 -0.344088,-5.161347 v -4.817252 h 10.752801 10.752798 v 4.864514 c 0,4.515936 -0.03974,4.88578 -0.554635,5.161347 -0.835532,0.447162 -20.156761,0.402847 -20.606876,-0.04726 z m -1.723418,-11.627364 0.08899,-1.075278 11.971449,-0.07483 11.971448,-0.07484 v 1.150111 1.150112 H 31.291419 19.230974 Z m 3.870377,-2.185585 c -0.08302,-0.216399 -0.237774,-0.972207 -0.343849,-1.679572 l -0.192867,-1.286122 1.190793,-0.190415 c 0.654936,-0.10473 1.297106,-0.124706 1.427047,-0.0444 0.129944,0.08032 0.326042,0.744751 0.435782,1.476537 0.109742,0.731787 0.267467,1.507574 0.350505,1.723973 0.115549,0.301113 -0.185496,0.393455 -1.282724,0.393455 -0.95052,0 -1.484591,-0.132603 -1.584687,-0.393455 z m 6.684675,0.151601 c 0,-0.133021 0.255222,-0.983655 0.567149,-1.890304 0.512844,-1.490604 0.526573,-1.72692 0.143374,-2.467948 -0.233079,-0.450727 -0.423782,-1.184298 -0.423782,-1.630165 0,-1.271524 1.318566,-2.917048 2.352897,-2.936332 0.450826,-0.0083 0.455869,0.085 0.06446,1.194348 -0.396417,1.123575 -0.387788,1.240291 0.130003,1.758081 0.872655,0.872652 1.869529,0.460252 2.291437,-0.94795 0.400966,-1.338291 0.673507,-1.439714 1.136741,-0.423029 0.737896,1.619506 -0.08222,3.949616 -1.516886,4.309693 -0.5667,0.142232 -0.824581,0.511083 -1.208225,1.728144 L 32.924439,31.28065 H 31.39973 c -0.838593,0 -1.524714,-0.108832 -1.524713,-0.241853 z m 8.736564,-1.883977 c 0.901223,-1.218645 1.685507,-2.630479 1.837824,-3.308379 0.195849,-0.871675 0.62331,-1.500054 1.626039,-2.390345 0.748183,-0.664288 1.53577,-1.311414 1.750194,-1.438057 0.45081,-0.26626 2.106893,0.608316 2.106893,1.112646 0,0.180739 -0.387872,1.184062 -0.861939,2.229592 -0.650886,1.435507 -1.135536,2.073678 -1.979319,2.606339 -0.614564,0.387954 -1.538898,1.292323 -2.054081,2.009703 -0.910645,1.268044 -0.979286,1.304331 -2.467221,1.304331 H 37.039452 Z M 22.572608,25.939276 c -0.261202,-1.741811 -0.419689,-2.113901 -0.900395,-2.113901 -0.219685,0 -0.399433,-0.129035 -0.399433,-0.286742 0,-0.42638 -0.796562,-0.346945 -1.061032,0.10581 -0.126119,0.215903 -0.515331,0.4813 -0.864921,0.589773 -0.681411,0.211435 -0.632293,0.308197 -1.199683,-2.363397 -0.296552,-1.396326 -0.01706,-1.689569 1.296179,-1.359966 0.480509,0.120601 0.918091,0.03953 1.218008,-0.225618 0.511227,-0.451987 4.415561,-1.334463 5.904046,-1.334463 1.812059,0 3.765301,1.016151 4.472137,2.326578 0.221952,0.411488 0.0999,0.433318 -1.101611,0.19703 -1.298453,-0.255354 -3.818829,-0.133371 -4.767718,0.230755 -0.249978,0.09593 -0.45451,0.472435 -0.45451,0.83669 0,0.364255 -0.143854,0.710231 -0.319668,0.76884 -0.23307,0.07767 -0.225465,0.560376 0.02816,1.781742 0.378258,1.822192 0.216418,2.160485 -1.037912,2.169474 -0.509715,0.0038 -0.646054,-0.218528 -0.81162,-1.322605 z"
       id="path423" />
  </g>
</svg>
