<?xml version="1.0" encoding="UTF-8" standalone="no"?>
<svg
   width="64"
   height="64"
   version="1.1"
   id="svg73"
   sodipodi:docname="abcd.svg"
   inkscape:version="1.4.2 (ebf0e940d0, 2025-05-08)"
   xmlns:inkscape="http://www.inkscape.org/namespaces/inkscape"
   xmlns:sodipodi="http://sodipodi.sourceforge.net/DTD/sodipodi-0.dtd"
   xmlns="http://www.w3.org/2000/svg"
   xmlns:svg="http://www.w3.org/2000/svg"
   xmlns:rdf="http://www.w3.org/1999/02/22-rdf-syntax-ns#"
   xmlns:cc="http://creativecommons.org/ns#"
   xmlns:dc="http://purl.org/dc/elements/1.1/">
  <metadata
     id="metadata77">
    <rdf:RDF>
      <cc:Work
         rdf:about="">
        <dc:format>image/svg+xml</dc:format>
        <dc:type
           rdf:resource="http://purl.org/dc/dcmitype/StillImage" />
      </cc:Work>
    </rdf:RDF>
  </metadata>
  <sodipodi:namedview
     pagecolor="#f5f7fa"
     bordercolor="#666666"
     borderopacity="1"
     objecttolerance="10"
     gridtolerance="10"
     guidetolerance="10"
     inkscape:pageopacity="0"
     inkscape:pageshadow="2"
     inkscape:window-width="1377"
     inkscape:window-height="688"
     id="namedview75"
     showgrid="false"
     inkscape:zoom="6.2890624"
     inkscape:cx="47.622361"
     inkscape:cy="37.445963"
     inkscape:window-x="33"
     inkscape:window-y="125"
     inkscape:window-maximized="0"
     inkscape:current-layer="g877"
     inkscape:document-rotation="0"
     inkscape:pagecheckerboard="0"
     inkscape:showpageshadow="2"
     inkscape:deskcolor="#d1d1d1" />
  <defs
     id="defs29" />
  <circle
     cx="32.516094"
     cy="31.877844"
     r="0"
     fill="url(#b)"
     stroke-width="1.5715"
     id="circle41"
     style="fill:url(#b)" />
  <g
     aria-label="GZ"
     transform="matrix(1.2212657,0,0,0.81882264,0.4960938,-0.1661539)"
     id="text93"
     style="font-weight:bold;font-size:11.5263px;line-height:1.25;font-family:sans-serif;-inkscape-font-specification:'sans-serif Bold';fill:#f2f2f2;stroke-width:0.288159" />
  <g
     id="g877"
     transform="matrix(1.1,0,0,1.1,-3.1845928,-3.2065454)">
    <circle
       style="opacity:1;fill:#414141;stroke:#dfdfdf;stroke-width:2.27272727;stroke-dasharray:none;fill-opacity:1;stroke-opacity:1"
       id="path1"
       cx="31.985994"
       cy="32.005951"
       r="25.454546" />
    <path
       id="path83"
       style="fill:#dfdfdf;fill-opacity:1;stroke:none;stroke-width:0.487358;stroke-dasharray:none;stroke-opacity:0.6"
       d="m 40.381481,17.969614 -1.928481,0.06281 -1.926588,0.0628 -4.184419,8.106121 -4.184419,8.104218 0.637753,1.21078 c 0.351371,0.665834 0.782355,1.441739 0.957581,1.724789 0.303652,0.490496 0.330474,0.496458 0.590159,0.11043 0.149852,-0.222778 1.486535,-2.772323 2.969834,-5.665534 1.483297,-2.893215 3.680912,-7.162758 4.883092,-9.488238 z m 2.219763,0.0171 -5.992972,11.616616 c -3.296367,6.389185 -6.053648,11.616623 -6.128136,11.616623 -0.07447,0 -0.77279,-1.184426 -1.551547,-2.630969 L 27.512207,35.95994 h -1.901835 -1.901836 l 1.081323,2.027483 c 0.595512,1.115092 1.798199,3.382841 2.670947,5.039199 l 1.585817,3.011717 1.433513,0.002 1.431613,0.002 7.171383,-13.889679 c 3.943661,-7.638996 7.169484,-13.950509 7.169484,-14.026751 v -0.002 -0.002 l -0.002,-0.002 v -0.002 l -0.002,-0.002 c -0.07205,-0.07132 -0.865009,-0.129452 -1.821877,-0.129452 z m -24.881873,17.973224 0.862395,1.589619 c 0.47417,0.873995 1.686767,3.14243 2.693791,5.041106 l 1.829493,3.451478 h 1.376404 c 1.357294,0 1.381853,-0.0101 1.778092,-0.78244 l 0.40169,-0.784336 -0.889047,-1.738117 c -0.531644,-1.038268 -0.997397,-1.695408 -1.157474,-1.63531 -0.163202,0.06128 -0.806577,-0.924103 -1.644829,-2.518646 l -1.374501,-2.615738 -1.938007,-0.004 z" />
  </g>
</svg>
