<?xml version="1.0" encoding="UTF-8" standalone="no"?>
<svg
   width="64"
   height="64"
   version="1.1"
   id="svg73"
   sodipodi:docname="abcd.svg"
   inkscape:version="1.4.2 (ebf0e940d0, 2025-05-08)"
   xmlns:inkscape="http://www.inkscape.org/namespaces/inkscape"
   xmlns:sodipodi="http://sodipodi.sourceforge.net/DTD/sodipodi-0.dtd"
   xmlns="http://www.w3.org/2000/svg"
   xmlns:svg="http://www.w3.org/2000/svg"
   xmlns:rdf="http://www.w3.org/1999/02/22-rdf-syntax-ns#"
   xmlns:cc="http://creativecommons.org/ns#"
   xmlns:dc="http://purl.org/dc/elements/1.1/">
  <metadata
     id="metadata77">
    <rdf:RDF>
      <cc:Work
         rdf:about="">
        <dc:format>image/svg+xml</dc:format>
        <dc:type
           rdf:resource="http://purl.org/dc/dcmitype/StillImage" />
      </cc:Work>
    </rdf:RDF>
  </metadata>
  <sodipodi:namedview
     pagecolor="#f5f7fa"
     bordercolor="#666666"
     borderopacity="1"
     objecttolerance="10"
     gridtolerance="10"
     guidetolerance="10"
     inkscape:pageopacity="0"
     inkscape:pageshadow="2"
     inkscape:window-width="1377"
     inkscape:window-height="688"
     id="namedview75"
     showgrid="false"
     inkscape:zoom="6.2890624"
     inkscape:cx="47.622361"
     inkscape:cy="37.445963"
     inkscape:window-x="33"
     inkscape:window-y="125"
     inkscape:window-maximized="0"
     inkscape:current-layer="g877"
     inkscape:document-rotation="0"
     inkscape:pagecheckerboard="0"
     inkscape:showpageshadow="2"
     inkscape:deskcolor="#d1d1d1" />
  <defs
     id="defs29" />
  <circle
     cx="32.516094"
     cy="31.877844"
     r="0"
     fill="url(#b)"
     stroke-width="1.5715"
     id="circle41"
     style="fill:url(#b)" />
  <g
     aria-label="GZ"
     transform="matrix(1.2212657,0,0,0.81882264,0.4960938,-0.1661539)"
     id="text93"
     style="font-weight:bold;font-size:11.5263px;line-height:1.25;font-family:sans-serif;-inkscape-font-specification:'sans-serif Bold';fill:#f2f2f2;stroke-width:0.288159" />
  <g
     id="g877"
     transform="matrix(1.1,0,0,1.1,-3.1845928,-3.2065454)">
    <circle
       style="opacity:1;fill:#414141;stroke:#dfdfdf;stroke-width:2.27272727;stroke-dasharray:none;fill-opacity:1;stroke-opacity:1"
       id="path1"
       cx="31.985994"
       cy="32.005951"
       r="25.454546" />
    <path
       style="fill:#dfdfdf;fill-opacity:1;stroke:none;stroke-width:0.42525;stroke-dasharray:none;stroke-dashoffset:2.2;stroke-opacity:0.6"
       d="m 22.103797,42.145719 c -1.244542,-0.292241 -2.753507,-1.594179 -3.396057,-2.9301 -0.524881,-1.091272 -0.674559,-1.780554 -0.673974,-3.103708 4.15e-4,-0.9394 0.04323,-1.298751 0.224648,-1.885876 0.70948,-2.296005 2.319985,-3.847723 4.326999,-4.16905 0.562849,-0.09012 0.816893,-0.08321 1.402319,0.0381 0.393217,0.08148 0.791104,0.178528 0.884189,0.215665 0.152151,0.06071 0.169242,-0.0058 0.169242,-0.659651 0,-2.185376 0.88131,-4.323736 2.417844,-5.866507 1.295683,-1.300939 2.539188,-1.901664 4.152881,-2.006209 3.789672,-0.245525 7.015609,3.119304 7.32105,7.636262 0.03507,0.518614 0.07352,0.942936 0.08542,0.942936 0.01198,0 0.212132,-0.07142 0.444841,-0.158696 0.635454,-0.238299 2.0092,-0.213534 2.736455,0.04934 1.679256,0.606971 3.045568,2.204064 3.54364,4.142184 0.244218,0.950329 0.261285,2.469586 0.03805,3.391718 -0.493962,2.040708 -1.963028,3.743106 -3.690483,4.276663 -0.612953,0.189337 -0.873231,0.194071 -10.120861,0.184602 -5.318969,-0.0056 -9.656366,-0.04839 -9.866233,-0.09766 z"
       id="path99" />
  </g>
</svg>
