<?xml version="1.0" encoding="UTF-8" standalone="no"?>
<svg
   width="64"
   height="64"
   version="1.1"
   id="svg73"
   sodipodi:docname="gnome-tweak-tool.svg"
   inkscape:version="1.4.2 (ebf0e940d0, 2025-05-08)"
   xmlns:inkscape="http://www.inkscape.org/namespaces/inkscape"
   xmlns:sodipodi="http://sodipodi.sourceforge.net/DTD/sodipodi-0.dtd"
   xmlns="http://www.w3.org/2000/svg"
   xmlns:svg="http://www.w3.org/2000/svg"
   xmlns:rdf="http://www.w3.org/1999/02/22-rdf-syntax-ns#"
   xmlns:cc="http://creativecommons.org/ns#"
   xmlns:dc="http://purl.org/dc/elements/1.1/">
  <metadata
     id="metadata77">
    <rdf:RDF>
      <cc:Work
         rdf:about="">
        <dc:format>image/svg+xml</dc:format>
        <dc:type
           rdf:resource="http://purl.org/dc/dcmitype/StillImage" />
      </cc:Work>
    </rdf:RDF>
  </metadata>
  <sodipodi:namedview
     pagecolor="#f5f7fa"
     bordercolor="#666666"
     borderopacity="1"
     objecttolerance="10"
     gridtolerance="10"
     guidetolerance="10"
     inkscape:pageopacity="0"
     inkscape:pageshadow="2"
     inkscape:window-width="1377"
     inkscape:window-height="886"
     id="namedview75"
     showgrid="false"
     inkscape:zoom="6.2890625"
     inkscape:cx="48.417391"
     inkscape:cy="45.396273"
     inkscape:window-x="0"
     inkscape:window-y="47"
     inkscape:window-maximized="0"
     inkscape:current-layer="g877"
     inkscape:document-rotation="0"
     inkscape:pagecheckerboard="0"
     inkscape:showpageshadow="2"
     inkscape:deskcolor="#d1d1d1" />
  <defs
     id="defs29" />
  <circle
     cx="32.516094"
     cy="31.877844"
     r="0"
     fill="url(#b)"
     stroke-width="1.5715"
     id="circle41"
     style="fill:url(#b)" />
  <g
     aria-label="GZ"
     transform="matrix(1.2212657,0,0,0.81882264,0.4960938,-0.1661539)"
     id="text93"
     style="font-weight:bold;font-size:11.5263px;line-height:1.25;font-family:sans-serif;-inkscape-font-specification:'sans-serif Bold';fill:#f2f2f2;stroke-width:0.288159" />
  <g
     id="g877"
     transform="matrix(1.1,0,0,1.1,-3.1845928,-3.2065454)">
    <circle
       style="opacity:1;fill:#414141;stroke:#dfdfdf;stroke-width:2.27272727;stroke-dasharray:none;fill-opacity:1;stroke-opacity:1"
       id="path1"
       cx="31.985994"
       cy="32.005951"
       r="25.454546" />
    <path
       style="fill:#dfdfdf;fill-opacity:1;stroke:none;stroke-width:0.446513;stroke-dasharray:none;stroke-opacity:0.6"
       d="M 17.611334,32.00595 V 21.798004 H 31.985992 46.360653 V 32.00595 42.213896 H 31.985992 17.611334 Z m 13.204086,6.142842 v -2.077731 h -5.40806 -5.408053 v 2.077731 2.07772 h 5.408053 5.40806 z m 13.204086,-1.86e-4 v -2.077914 l -5.419765,0.0112 -5.419761,0.0112 -0.01218,2.066431 -0.01218,2.066433 h 5.431926 5.431935 V 38.148114 Z M 30.81542,32.00595 v -2.077723 h -5.40806 -5.408053 v 2.077724 2.077725 h 5.408053 5.40806 z m 13.204086,-1.79e-4 v -2.077913 l -5.419765,0.01154 -5.419761,0.01148 -0.01218,2.066433 -0.01218,2.06643 h 5.431955 5.431935 V 32.005766 Z M 30.81542,25.863116 v -2.077725 h -5.40806 -5.408053 v 2.077725 2.077726 h 5.408053 5.40806 z m 13.204086,-1.88e-4 v -2.077911 l -5.419765,0.01148 -5.419761,0.01148 -0.01218,2.066432 -0.01218,2.066433 h 5.431955 5.431935 v -2.077861 z"
       id="path2224" />
    <circle
       style="fill:#414141;fill-opacity:1;stroke:#dfdfdf;stroke-width:1.08705;stroke-dasharray:none;stroke-opacity:1"
       id="path1-6"
       cx="48.320271"
       cy="48.287033"
       r="12.17483" />
    <path
       id="path915"
       style="fill:#dfdfdf;fill-opacity:1;stroke:none;stroke-width:0.40909;stroke-dasharray:none;stroke-opacity:0.6;stop-color:#000000"
       d="m 48.271097,41.599775 c -0.74709,-1.14e-4 -0.917366,0.01268 -1.306898,0.09627 -0.545067,0.116831 -1.14455,0.32114 -1.644712,0.560504 -1.297265,0.620846 -2.51411,1.849247 -3.137502,3.166759 -1.382061,2.920934 -0.541837,6.343193 2.040083,8.307535 0.202459,0.154064 0.377523,0.279708 0.388767,0.279306 0.01144,-3.93e-4 0.774329,-1.310677 1.696613,-2.911035 0.922286,-1.600355 1.704389,-2.941325 1.738127,-2.980862 0.04227,-0.04954 1.08483,-0.346952 3.352643,-0.955877 1.809908,-0.485971 3.299082,-0.891932 3.309244,-0.902091 0.0099,-0.0099 -0.03396,-0.151929 -0.09723,-0.315164 -0.775234,-2.000209 -2.372481,-3.488038 -4.396267,-4.094325 -0.696303,-0.208582 -1.02108,-0.250855 -1.942888,-0.25101 z m 6.626974,5.305919 c -0.0068,-0.0084 -5.968496,1.576518 -6.208012,1.650374 -0.06736,0.02072 -0.07171,0.212479 -0.07171,3.276211 v 3.254509 l 0.317052,-0.02722 c 2.795627,-0.247578 5.205201,-2.319262 5.900395,-5.071901 0.164083,-0.649794 0.219128,-1.202019 0.191543,-1.925907 -0.01886,-0.497295 -0.08681,-1.104266 -0.129293,-1.155922 z m -6.933644,2.63173 -1.355968,2.349587 c -0.745798,1.292445 -1.363604,2.379384 -1.372953,2.414699 -0.04432,0.167423 1.333771,0.630516 2.217484,0.745451 0.06747,0.0086 0.210222,0.01886 0.317052,0.02257 l 0.194419,0.0059 v -2.76854 z" />
  </g>
</svg>
