<?xml version="1.0" encoding="UTF-8" standalone="no"?>
<svg
   width="64"
   height="64"
   version="1.1"
   id="svg73"
   sodipodi:docname="google-chrome.svg"
   inkscape:version="1.4.2 (ebf0e940d0, 2025-05-08)"
   xmlns:inkscape="http://www.inkscape.org/namespaces/inkscape"
   xmlns:sodipodi="http://sodipodi.sourceforge.net/DTD/sodipodi-0.dtd"
   xmlns="http://www.w3.org/2000/svg"
   xmlns:svg="http://www.w3.org/2000/svg"
   xmlns:rdf="http://www.w3.org/1999/02/22-rdf-syntax-ns#"
   xmlns:cc="http://creativecommons.org/ns#"
   xmlns:dc="http://purl.org/dc/elements/1.1/">
  <metadata
     id="metadata77">
    <rdf:RDF>
      <cc:Work
         rdf:about="">
        <dc:format>image/svg+xml</dc:format>
        <dc:type
           rdf:resource="http://purl.org/dc/dcmitype/StillImage" />
      </cc:Work>
    </rdf:RDF>
  </metadata>
  <sodipodi:namedview
     pagecolor="#f5f7fa"
     bordercolor="#666666"
     borderopacity="1"
     objecttolerance="10"
     gridtolerance="10"
     guidetolerance="10"
     inkscape:pageopacity="0"
     inkscape:pageshadow="2"
     inkscape:window-width="1377"
     inkscape:window-height="886"
     id="namedview75"
     showgrid="false"
     inkscape:zoom="4.4470387"
     inkscape:cx="48.009477"
     inkscape:cy="45.311052"
     inkscape:window-x="142"
     inkscape:window-y="75"
     inkscape:window-maximized="0"
     inkscape:current-layer="g877"
     inkscape:document-rotation="0"
     inkscape:pagecheckerboard="0"
     inkscape:showpageshadow="2"
     inkscape:deskcolor="#d1d1d1" />
  <defs
     id="defs29" />
  <circle
     cx="32.516094"
     cy="31.877844"
     r="0"
     fill="url(#b)"
     stroke-width="1.5715"
     id="circle41"
     style="fill:url(#b)" />
  <g
     aria-label="GZ"
     transform="matrix(1.2212657,0,0,0.81882264,0.4960938,-0.1661539)"
     id="text93"
     style="font-weight:bold;font-size:11.5263px;line-height:1.25;font-family:sans-serif;-inkscape-font-specification:'sans-serif Bold';fill:#f2f2f2;stroke-width:0.288159" />
  <g
     id="g877"
     transform="matrix(1.1,0,0,1.1,-3.1845928,-3.2065454)">
    <circle
       style="opacity:1;fill:#414141;stroke:#dfdfdf;stroke-width:2.27272727;stroke-dasharray:none;fill-opacity:1;stroke-opacity:1"
       id="path1"
       cx="31.985994"
       cy="32.005951"
       r="25.454546" />
    <path
       style="fill:#dfdfdf;fill-opacity:1;stroke:none;stroke-width:0.360854;stroke-dasharray:none;stroke-opacity:0.6"
       d="M 31.986043,17.687959 A 14.301056,14.317992 0 0 0 20.71502,23.200386 l 4.263505,7.391661 a 7.1505286,7.1589956 0 0 1 7.007518,-5.745093 H 44.356449 A 14.301056,14.317992 0 0 0 31.986043,17.687959 Z M 19.61205,24.864853 a 14.301056,14.317992 0 0 0 -1.927065,7.141096 14.301056,14.317992 0 0 0 12.325723,14.15691 l 4.261713,-7.37376 a 7.1505286,7.1589956 0 0 1 -2.286379,0.37584 7.1505286,7.1589956 0 0 1 -6.18342,-3.579494 h -0.0108 z m 12.373992,1.771848 a 5.3628963,5.3692465 0 0 0 -5.362897,5.369248 5.3628963,5.3692465 0 0 0 5.362897,5.369243 5.3628963,5.3692465 0 0 0 5.362901,-5.369243 5.3628963,5.3692465 0 0 0 -5.362901,-5.369248 z m 4.717563,0 a 7.1505286,7.1589956 0 0 1 2.43296,5.369248 7.1505286,7.1589956 0 0 1 -0.963531,3.579496 h 0.0068 l -6.19038,10.738494 a 14.301056,14.317992 0 0 0 14.297517,-14.31799 14.301056,14.317992 0 0 0 -1.054708,-5.369248 z"
       id="path2-50" />
  </g>
</svg>
