<?xml version="1.0" encoding="UTF-8" standalone="no"?>
<svg
   width="64"
   height="64"
   version="1.1"
   id="svg73"
   sodipodi:docname="fr.handbrake.ghb.svg"
   inkscape:version="1.4.2 (ebf0e940d0, 2025-05-08)"
   xmlns:inkscape="http://www.inkscape.org/namespaces/inkscape"
   xmlns:sodipodi="http://sodipodi.sourceforge.net/DTD/sodipodi-0.dtd"
   xmlns="http://www.w3.org/2000/svg"
   xmlns:svg="http://www.w3.org/2000/svg"
   xmlns:rdf="http://www.w3.org/1999/02/22-rdf-syntax-ns#"
   xmlns:cc="http://creativecommons.org/ns#"
   xmlns:dc="http://purl.org/dc/elements/1.1/">
  <metadata
     id="metadata77">
    <rdf:RDF>
      <cc:Work
         rdf:about="">
        <dc:format>image/svg+xml</dc:format>
        <dc:type
           rdf:resource="http://purl.org/dc/dcmitype/StillImage" />
      </cc:Work>
    </rdf:RDF>
  </metadata>
  <sodipodi:namedview
     pagecolor="#f5f7fa"
     bordercolor="#666666"
     borderopacity="1"
     objecttolerance="10"
     gridtolerance="10"
     guidetolerance="10"
     inkscape:pageopacity="0"
     inkscape:pageshadow="2"
     inkscape:window-width="1377"
     inkscape:window-height="886"
     id="namedview75"
     showgrid="false"
     inkscape:zoom="6.2890625"
     inkscape:cx="48.099379"
     inkscape:cy="45.396273"
     inkscape:window-x="0"
     inkscape:window-y="47"
     inkscape:window-maximized="0"
     inkscape:current-layer="g877"
     inkscape:document-rotation="0"
     inkscape:pagecheckerboard="0"
     inkscape:showpageshadow="2"
     inkscape:deskcolor="#d1d1d1" />
  <defs
     id="defs29" />
  <circle
     cx="32.516094"
     cy="31.877844"
     r="0"
     fill="url(#b)"
     stroke-width="1.5715"
     id="circle41"
     style="fill:url(#b)" />
  <g
     aria-label="GZ"
     transform="matrix(1.2212657,0,0,0.81882264,0.4960938,-0.1661539)"
     id="text93"
     style="font-weight:bold;font-size:11.5263px;line-height:1.25;font-family:sans-serif;-inkscape-font-specification:'sans-serif Bold';fill:#f2f2f2;stroke-width:0.288159" />
  <g
     id="g877"
     transform="matrix(1.1,0,0,1.1,-3.1845928,-3.2065454)">
    <circle
       style="opacity:1;fill:#414141;stroke:#dfdfdf;stroke-width:2.27272727;stroke-dasharray:none;fill-opacity:1;stroke-opacity:1"
       id="path1"
       cx="31.985994"
       cy="32.005951"
       r="25.454546" />
    <path
       style="fill:#dfdfdf;fill-opacity:1;stroke:none;stroke-width:0.434234;stroke-dasharray:none;stroke-opacity:0.6"
       d="m 31.985993,18.43063 c -7.497455,0 -13.57532,6.077866 -13.57532,13.57532 v 13.575322 h 13.57532 c 7.497461,0 13.575323,-6.077861 13.575323,-13.575322 0,-7.497454 -6.077862,-13.57532 -13.575323,-13.57532 z m 0,7.757327 a 5.8179944,5.8179944 0 0 1 5.817997,5.817993 5.8179944,5.8179944 0 0 1 -5.817997,5.817992 5.8179944,5.8179944 0 0 1 -5.817994,-5.817992 5.8179944,5.8179944 0 0 1 5.817994,-5.817993 z"
       id="path2072" />
    <circle
       style="fill:#414141;fill-opacity:1;stroke:#dfdfdf;stroke-width:1.08705;stroke-dasharray:none;stroke-opacity:1"
       id="path1-6"
       cx="48.320271"
       cy="48.287033"
       r="12.17483" />
    <path
       style="color:#000000;clip-rule:nonzero;display:inline;overflow:visible;visibility:visible;isolation:auto;mix-blend-mode:normal;color-interpolation:sRGB;color-interpolation-filters:linearRGB;solid-color:#000000;solid-opacity:1;fill:#dfdfdf;fill-opacity:1;fill-rule:nonzero;stroke:none;stroke-width:0.40909;stroke-linecap:butt;stroke-linejoin:miter;stroke-miterlimit:4;stroke-dasharray:none;stroke-dashoffset:0;stroke-opacity:0.6;marker:none;color-rendering:auto;image-rendering:auto;shape-rendering:auto;text-rendering:auto;enable-background:accumulate"
       d="m 47.246199,41.592494 c -0.17135,0 -0.314167,0.681803 -0.397993,1.656195 a 5.2371346,5.3948437 0 0 0 -1.265581,0.547914 c -0.731077,-0.631171 -1.302154,-1.012168 -1.423657,-0.887008 l -1.347409,1.387987 c -0.121501,0.125149 0.24835,0.713435 0.861075,1.466528 a 5.2371346,5.3948437 0 0 0 -0.527245,1.303692 c -0.948557,0.08627 -1.612427,0.233166 -1.612427,0.409978 v 1.961757 c 0,0.176515 0.66187,0.323632 1.607776,0.409982 a 5.2371346,5.3948437 0 0 0 0.530038,1.306561 c -0.611324,0.751744 -0.980573,1.338645 -0.859217,1.463659 l 1.347408,1.387981 c 0.121253,0.124871 0.690271,-0.254566 1.419011,-0.883178 a 5.2371346,5.3948437 0 0 0 1.270228,0.539297 c 0.08375,0.977124 0.226333,1.660984 0.397993,1.660984 h 1.904411 c 0.171351,0 0.31417,-0.681803 0.397996,-1.656195 a 5.2371346,5.3948437 0 0 0 1.265578,-0.547911 c 0.731081,0.631169 1.302154,1.012165 1.423661,0.887003 l 1.347408,-1.387981 C 53.706754,52.49462 53.336903,51.9063 52.724178,51.153204 a 5.2371346,5.3948437 0 0 0 0.527245,-1.303685 c 0.948554,-0.08627 1.612427,-0.233168 1.612427,-0.409982 V 47.47778 c 0,-0.176515 -0.661872,-0.32363 -1.607776,-0.409978 A 5.2371346,5.3948437 0 0 0 52.72603,45.761237 c 0.611331,-0.751744 0.980579,-1.338645 0.859223,-1.463655 l -1.347408,-1.387987 c -0.121253,-0.124902 -0.690271,0.254566 -1.419013,0.883177 a 5.2371346,5.3948437 0 0 0 -1.270226,-0.539294 c -0.08375,-0.977121 -0.226333,-1.66098 -0.397995,-1.66098 z m 0.952205,4.413965 a 2.3805158,2.4522014 0 0 1 2.380515,2.452203 2.3805158,2.4522014 0 0 1 -2.380515,2.452197 2.3805158,2.4522014 0 0 1 -2.380515,-2.452197 2.3805158,2.4522014 0 0 1 2.380515,-2.452203 z"
       id="path4690"
       inkscape:connector-curvature="0" />
  </g>
</svg>
