<?xml version="1.0" encoding="UTF-8" standalone="no"?>
<svg
   width="64"
   height="64"
   version="1.1"
   id="svg73"
   sodipodi:docname="accessories-text-editor.svg"
   inkscape:version="1.4.2 (ebf0e940d0, 2025-05-08)"
   xmlns:inkscape="http://www.inkscape.org/namespaces/inkscape"
   xmlns:sodipodi="http://sodipodi.sourceforge.net/DTD/sodipodi-0.dtd"
   xmlns="http://www.w3.org/2000/svg"
   xmlns:svg="http://www.w3.org/2000/svg"
   xmlns:rdf="http://www.w3.org/1999/02/22-rdf-syntax-ns#"
   xmlns:cc="http://creativecommons.org/ns#"
   xmlns:dc="http://purl.org/dc/elements/1.1/">
  <metadata
     id="metadata77">
    <rdf:RDF>
      <cc:Work
         rdf:about="">
        <dc:format>image/svg+xml</dc:format>
        <dc:type
           rdf:resource="http://purl.org/dc/dcmitype/StillImage" />
      </cc:Work>
    </rdf:RDF>
  </metadata>
  <sodipodi:namedview
     pagecolor="#f5f7fa"
     bordercolor="#666666"
     borderopacity="1"
     objecttolerance="10"
     gridtolerance="10"
     guidetolerance="10"
     inkscape:pageopacity="0"
     inkscape:pageshadow="2"
     inkscape:window-width="1377"
     inkscape:window-height="678"
     id="namedview75"
     showgrid="false"
     inkscape:zoom="6.2890624"
     inkscape:cx="47.622361"
     inkscape:cy="35.855901"
     inkscape:window-x="21"
     inkscape:window-y="79"
     inkscape:window-maximized="0"
     inkscape:current-layer="g877"
     inkscape:document-rotation="0"
     inkscape:pagecheckerboard="0"
     inkscape:showpageshadow="2"
     inkscape:deskcolor="#d1d1d1" />
  <defs
     id="defs29" />
  <circle
     cx="32.516094"
     cy="31.877844"
     r="0"
     fill="url(#b)"
     stroke-width="1.5715"
     id="circle41"
     style="fill:url(#b)" />
  <g
     aria-label="GZ"
     transform="matrix(1.2212657,0,0,0.81882264,0.4960938,-0.1661539)"
     id="text93"
     style="font-weight:bold;font-size:11.5263px;line-height:1.25;font-family:sans-serif;-inkscape-font-specification:'sans-serif Bold';fill:#f2f2f2;stroke-width:0.288159" />
  <g
     id="g877"
     transform="matrix(1.1,0,0,1.1,-3.1845928,-3.2065454)">
    <circle
       style="opacity:1;fill:#414141;stroke:#dfdfdf;stroke-width:2.27272727;stroke-dasharray:none;fill-opacity:1;stroke-opacity:1"
       id="path1"
       cx="31.985994"
       cy="32.005951"
       r="25.454546" />
    <path
       style="fill:#dfdfdf;fill-opacity:1;stroke:none;stroke-width:0.342057;stroke-dasharray:none;stroke-opacity:0.6"
       d="m 19.239964,32.005944 v -13.88485 h 2.890854 2.89085 v 5.803601 5.803604 h 6.964324 6.964316 v -5.803604 -5.803601 h 2.890862 2.890851 v 13.88485 13.88484 H 41.84117 38.950308 v -5.212292 -5.212289 h -6.965515 -6.965525 l 0.01216,5.212306 0.01216,5.212298 -2.901806,-3e-6 -2.901802,-2e-5 z m 4.642881,8.694458 v -1.773933 h -1.752027 -1.752032 v 1.773933 1.773932 h 1.752032 1.752027 z m 19.710358,0 V 38.926469 H 41.84117 40.089138 v 1.773933 1.773932 h 1.752032 1.752033 z M 23.882845,32.575351 v -1.752032 h -1.752027 -1.752032 v 1.752032 1.752032 h 1.752032 1.752027 z m 19.710358,0 V 30.823319 H 41.84117 40.089138 v 1.752032 1.752032 h 1.752032 1.752033 z M 23.882845,23.311487 v -1.773934 h -1.752027 -1.752032 v 1.773934 1.773932 h 1.752032 1.752027 z m 19.710358,0 V 21.537553 H 41.84117 40.089138 v 1.773934 1.773932 h 1.752032 1.752033 z"
       id="path7" />
  </g>
</svg>
