<?xml version="1.0" encoding="UTF-8" standalone="no"?>
<svg
   width="64"
   height="64"
   version="1.1"
   id="svg73"
   sodipodi:docname="abcd.svg"
   inkscape:version="1.4.2 (ebf0e940d0, 2025-05-08)"
   xmlns:inkscape="http://www.inkscape.org/namespaces/inkscape"
   xmlns:sodipodi="http://sodipodi.sourceforge.net/DTD/sodipodi-0.dtd"
   xmlns="http://www.w3.org/2000/svg"
   xmlns:svg="http://www.w3.org/2000/svg"
   xmlns:rdf="http://www.w3.org/1999/02/22-rdf-syntax-ns#"
   xmlns:cc="http://creativecommons.org/ns#"
   xmlns:dc="http://purl.org/dc/elements/1.1/">
  <metadata
     id="metadata77">
    <rdf:RDF>
      <cc:Work
         rdf:about="">
        <dc:format>image/svg+xml</dc:format>
        <dc:type
           rdf:resource="http://purl.org/dc/dcmitype/StillImage" />
      </cc:Work>
    </rdf:RDF>
  </metadata>
  <sodipodi:namedview
     pagecolor="#f5f7fa"
     bordercolor="#666666"
     borderopacity="1"
     objecttolerance="10"
     gridtolerance="10"
     guidetolerance="10"
     inkscape:pageopacity="0"
     inkscape:pageshadow="2"
     inkscape:window-width="1377"
     inkscape:window-height="688"
     id="namedview75"
     showgrid="false"
     inkscape:zoom="6.2890624"
     inkscape:cx="47.622361"
     inkscape:cy="37.445963"
     inkscape:window-x="33"
     inkscape:window-y="125"
     inkscape:window-maximized="0"
     inkscape:current-layer="g877"
     inkscape:document-rotation="0"
     inkscape:pagecheckerboard="0"
     inkscape:showpageshadow="2"
     inkscape:deskcolor="#d1d1d1" />
  <defs
     id="defs29" />
  <circle
     cx="32.516094"
     cy="31.877844"
     r="0"
     fill="url(#b)"
     stroke-width="1.5715"
     id="circle41"
     style="fill:url(#b)" />
  <g
     aria-label="GZ"
     transform="matrix(1.2212657,0,0,0.81882264,0.4960938,-0.1661539)"
     id="text93"
     style="font-weight:bold;font-size:11.5263px;line-height:1.25;font-family:sans-serif;-inkscape-font-specification:'sans-serif Bold';fill:#f2f2f2;stroke-width:0.288159" />
  <g
     id="g877"
     transform="matrix(1.1,0,0,1.1,-3.1845928,-3.2065454)">
    <circle
       style="opacity:1;fill:#414141;stroke:#dfdfdf;stroke-width:2.27272727;stroke-dasharray:none;fill-opacity:1;stroke-opacity:1"
       id="path1"
       cx="31.985994"
       cy="32.005951"
       r="25.454546" />
    <path
       id="path71"
       style="fill:#dfdfdf;fill-opacity:1;stroke:none;stroke-width:0.447753;stroke-dasharray:none;stroke-opacity:0.6"
       d="m 32.037698,17.878924 c -2.29689,0 -2.815695,0.06672 -4.229165,0.536952 -2.222746,0.739448 -3.960455,1.8045 -5.649381,3.464837 -2.321352,2.28206 -3.688811,5.091591 -4.145211,8.519547 -0.198168,1.488399 -0.182355,2.07497 0.0962,3.723695 0.386355,2.286791 1.034783,3.945257 2.277244,5.82079 1.801368,2.719216 4.948453,4.95181 8.17149,5.796296 0.898378,0.235389 2.165608,0.38713 3.27769,0.391784 3.968069,0.01661 7.260383,-1.32091 10.049948,-4.080499 1.376317,-1.361526 1.825033,-1.973897 2.602562,-3.557535 1.224621,-2.494263 1.602124,-4.036818 1.602124,-6.544885 0,-2.434359 -0.378611,-4.052913 -1.460445,-6.242305 -1.78966,-3.621864 -4.552975,-6.029804 -8.365634,-7.293474 -1.411045,-0.467673 -1.934465,-0.535203 -4.227418,-0.535203 z m 0.264105,2.738985 c 2.800045,0.06991 5.57257,1.199731 7.713241,3.375638 2.178764,2.214621 3.19101,4.728155 3.195488,7.928373 0.0043,3.282134 -0.991352,5.761385 -3.212981,7.99484 -1.606242,1.614791 -3.09622,2.485887 -5.152652,3.011834 -1.939421,0.49603 -3.775563,0.49268 -5.68961,-0.009 -2.058684,-0.53916 -3.329999,-1.282394 -4.993492,-2.915483 -2.333006,-2.290369 -3.346779,-4.758865 -3.333659,-8.124267 0.01293,-3.320874 1.217806,-6.093528 3.594265,-8.274681 2.251268,-2.066253 5.079355,-3.057261 7.8794,-2.987352 z m -0.271101,4.38658 -3.417614,3.42286 -3.417612,3.422861 h 0.953225 0.954972 v 3.623999 3.623999 h 4.934025 4.932277 V 35.474209 31.85021 h 0.949726 0.949727 l -0.949727,-0.963719 -0.949726,-0.963718 v -1.957169 -1.95542 h -0.906002 -0.905996 v 1.051169 1.052918 l -1.563638,-1.554889 z" />
  </g>
</svg>
