<?xml version="1.0" encoding="UTF-8" standalone="no"?>
<svg
   width="64"
   height="64"
   version="1.1"
   id="svg73"
   sodipodi:docname="accessories-text-editor.svg"
   inkscape:version="1.4.2 (ebf0e940d0, 2025-05-08)"
   xmlns:inkscape="http://www.inkscape.org/namespaces/inkscape"
   xmlns:sodipodi="http://sodipodi.sourceforge.net/DTD/sodipodi-0.dtd"
   xmlns="http://www.w3.org/2000/svg"
   xmlns:svg="http://www.w3.org/2000/svg"
   xmlns:rdf="http://www.w3.org/1999/02/22-rdf-syntax-ns#"
   xmlns:cc="http://creativecommons.org/ns#"
   xmlns:dc="http://purl.org/dc/elements/1.1/">
  <metadata
     id="metadata77">
    <rdf:RDF>
      <cc:Work
         rdf:about="">
        <dc:format>image/svg+xml</dc:format>
        <dc:type
           rdf:resource="http://purl.org/dc/dcmitype/StillImage" />
      </cc:Work>
    </rdf:RDF>
  </metadata>
  <sodipodi:namedview
     pagecolor="#f5f7fa"
     bordercolor="#666666"
     borderopacity="1"
     objecttolerance="10"
     gridtolerance="10"
     guidetolerance="10"
     inkscape:pageopacity="0"
     inkscape:pageshadow="2"
     inkscape:window-width="1377"
     inkscape:window-height="886"
     id="namedview75"
     showgrid="false"
     inkscape:zoom="6.2890624"
     inkscape:cx="47.622361"
     inkscape:cy="45.396274"
     inkscape:window-x="324"
     inkscape:window-y="75"
     inkscape:window-maximized="0"
     inkscape:current-layer="g877"
     inkscape:document-rotation="0"
     inkscape:pagecheckerboard="0"
     inkscape:showpageshadow="2"
     inkscape:deskcolor="#d1d1d1" />
  <defs
     id="defs29" />
  <circle
     cx="32.516094"
     cy="31.877844"
     r="0"
     fill="url(#b)"
     stroke-width="1.5715"
     id="circle41"
     style="fill:url(#b)" />
  <g
     aria-label="GZ"
     transform="matrix(1.2212657,0,0,0.81882264,0.4960938,-0.1661539)"
     id="text93"
     style="font-weight:bold;font-size:11.5263px;line-height:1.25;font-family:sans-serif;-inkscape-font-specification:'sans-serif Bold';fill:#f2f2f2;stroke-width:0.288159" />
  <g
     id="g877"
     transform="matrix(1.1,0,0,1.1,-3.1845928,-3.2065454)">
    <circle
       style="opacity:1;fill:#414141;stroke:#dfdfdf;stroke-width:2.27272727;stroke-dasharray:none;fill-opacity:1;stroke-opacity:1"
       id="path1"
       cx="31.985994"
       cy="32.005951"
       r="25.454546" />
    <path
       id="path72"
       style="fill:#dfdfdf;fill-opacity:1;stroke:none;stroke-width:0.429895;stroke-dasharray:none;stroke-dashoffset:2.2;stroke-opacity:0.6"
       d="m 31.957601,19.18689 c -8.673779,0 -8.709697,0.0014 -8.985607,0.218248 -0.620046,0.487737 -0.587331,-0.244431 -0.587331,12.552173 0,7.061901 0.04046,11.84177 0.09936,11.996787 0.132072,0.347395 0.504524,0.679509 0.888976,0.793166 0.17736,0.05242 4.052382,0.08649 8.820591,0.07628 8.164285,-0.0178 8.516928,-0.02685 8.797528,-0.216446 0.628834,-0.426221 0.594426,0.299069 0.594426,-12.642675 0,-10.790577 -0.01535,-11.884713 -0.17033,-12.147607 -0.392643,-0.664739 0.124184,-0.629968 -9.457596,-0.629966 z m -14.058645,2.086707 v 1.30419 1.305965 h 1.355649 1.357423 v -1.305965 -1.30419 h -1.357423 z m 25.356308,0 v 1.30419 1.305965 h 1.408886 1.40888 v -1.305965 -1.30419 h -1.40888 z m -16.173739,1.043352 h 0.626366 0.624593 v 1.61826 1.616488 h -0.624593 -0.626366 v -1.616488 z m 4.2781,0 h 0.626367 0.626368 v 4.331332 4.32956 h -0.557167 c -0.306091,0 -0.588099,-0.03089 -0.626367,-0.06919 -0.03826,-0.03827 -0.0692,-1.986066 -0.0692,-4.329561 z m 4.382793,0 h 0.573133 0.574914 v 3.234748 3.236522 h -0.574914 -0.573133 v -3.236522 z m -17.843462,3.756423 v 1.305967 1.304192 h 1.355649 1.357423 v -1.304192 -1.305967 h -1.357423 z m 25.356308,0 v 1.305967 1.304192 h 1.408886 1.40888 v -1.304192 -1.305967 h -1.40888 z m -16.173739,0.523451 h 0.62814 0.628141 l -0.02841,1.643105 -0.02841,1.643101 -0.525227,0.03016 c -0.289045,0.01694 -0.55879,-0.0016 -0.599625,-0.04254 -0.04083,-0.04083 -0.07454,-0.795032 -0.07454,-1.675043 z m 8.660893,3.234749 h 0.573133 0.574914 v 1.616488 1.618261 H 36.315551 35.742418 V 31.44806 Z m -8.660893,1.043352 h 0.626366 0.624593 v 3.234751 3.234742 h -0.624593 -0.626366 v -3.234742 z m -9.182569,0.102915 v 1.252734 1.25273 h 1.355649 1.357423 v -1.252734 -1.252733 h -1.357423 z m 25.356308,0 v 1.252735 1.252733 h 1.408886 1.40888 v -1.252736 -1.252733 h -1.40888 z m -10.642904,0.92979 v 4.334882 4.336654 h -0.628141 -0.626368 l 0.02661,-4.304715 0.02659,-4.304716 0.59975,-0.03011 z m 3.130058,2.202043 h 0.573133 0.574914 v 3.807876 3.809665 h -0.574914 -0.573133 v -3.809661 z m -17.843462,1.66972 v 1.304193 1.304194 h 1.355649 1.357423 v -1.304194 -1.304193 h -1.357423 z m 25.356308,0 v 1.304193 1.304194 h 1.408886 1.40888 v -1.304194 -1.304193 h -1.40888 z m -25.356308,4.799777 v 1.304194 1.304189 h 1.355649 1.357423 v -1.304189 -1.304194 h -1.357423 z m 25.356308,0 v 1.304194 1.304189 h 1.408886 1.40888 v -1.304189 -1.304194 h -1.40888 z" />
  </g>
</svg>
