<?xml version="1.0" encoding="UTF-8" standalone="no"?>
<svg
   width="64"
   height="64"
   version="1.1"
   id="svg73"
   sodipodi:docname="abcd.svg"
   inkscape:version="1.4.2 (ebf0e940d0, 2025-05-08)"
   xmlns:inkscape="http://www.inkscape.org/namespaces/inkscape"
   xmlns:sodipodi="http://sodipodi.sourceforge.net/DTD/sodipodi-0.dtd"
   xmlns="http://www.w3.org/2000/svg"
   xmlns:svg="http://www.w3.org/2000/svg"
   xmlns:rdf="http://www.w3.org/1999/02/22-rdf-syntax-ns#"
   xmlns:cc="http://creativecommons.org/ns#"
   xmlns:dc="http://purl.org/dc/elements/1.1/">
  <metadata
     id="metadata77">
    <rdf:RDF>
      <cc:Work
         rdf:about="">
        <dc:format>image/svg+xml</dc:format>
        <dc:type
           rdf:resource="http://purl.org/dc/dcmitype/StillImage" />
      </cc:Work>
    </rdf:RDF>
  </metadata>
  <sodipodi:namedview
     pagecolor="#f5f7fa"
     bordercolor="#666666"
     borderopacity="1"
     objecttolerance="10"
     gridtolerance="10"
     guidetolerance="10"
     inkscape:pageopacity="0"
     inkscape:pageshadow="2"
     inkscape:window-width="1377"
     inkscape:window-height="726"
     id="namedview75"
     showgrid="false"
     inkscape:zoom="6.2890624"
     inkscape:cx="47.622361"
     inkscape:cy="45.396274"
     inkscape:window-x="22"
     inkscape:window-y="80"
     inkscape:window-maximized="0"
     inkscape:current-layer="g877"
     inkscape:document-rotation="0"
     inkscape:pagecheckerboard="0"
     inkscape:showpageshadow="2"
     inkscape:deskcolor="#d1d1d1" />
  <defs
     id="defs29" />
  <circle
     cx="32.516094"
     cy="31.877844"
     r="0"
     fill="url(#b)"
     stroke-width="1.5715"
     id="circle41"
     style="fill:url(#b)" />
  <g
     aria-label="GZ"
     transform="matrix(1.2212657,0,0,0.81882264,0.4960938,-0.1661539)"
     id="text93"
     style="font-weight:bold;font-size:11.5263px;line-height:1.25;font-family:sans-serif;-inkscape-font-specification:'sans-serif Bold';fill:#f2f2f2;stroke-width:0.288159" />
  <g
     id="g877"
     transform="matrix(1.1,0,0,1.1,-3.1845928,-3.2065454)">
    <circle
       style="opacity:1;fill:#414141;stroke:#dfdfdf;stroke-width:2.27272727;stroke-dasharray:none;fill-opacity:1;stroke-opacity:1"
       id="path1"
       cx="31.985994"
       cy="32.005951"
       r="25.454546" />
    <path
       style="fill:#dfdfdf;stroke-width:0.0204682;stroke-opacity:0.5"
       d="M 30.817892,45.699501 C 28.36899,45.46784 26.201638,44.692542 24.206669,43.334561 23.481742,42.841099 23.023524,42.45513 22.280438,41.712044 21.478329,40.909933 21.102834,40.454169 20.50877,39.561648 c -1.137271,-1.70864 -1.884868,-3.743188 -2.163018,-5.88656 -0.10209,-0.786688 -0.10209,-2.547686 0,-3.334373 0.293331,-2.260354 1.04693,-4.252003 2.31217,-6.110724 0.493462,-0.724927 0.879432,-1.183145 1.622516,-1.92623 0.717838,-0.717838 1.186803,-1.11596 1.864828,-1.583122 1.910223,-1.316153 3.918175,-2.066842 6.345137,-2.37218 0.645088,-0.08116 2.500109,-0.06801 3.172568,0.0225 2.642179,0.355582 4.89709,1.306511 6.938716,2.926155 0.500819,0.397305 1.696385,1.59287 2.093689,2.09369 1.656823,2.088491 2.60608,4.381905 2.948223,7.122929 0.07074,0.566709 0.07074,2.421645 0,2.988357 -0.342143,2.741022 -1.2914,5.034438 -2.948223,7.122926 -0.396622,0.499961 -1.592012,1.695584 -2.093689,2.094104 -0.838044,0.665717 -1.675381,1.189753 -2.669358,1.670574 -1.331681,0.644184 -2.726673,1.055206 -4.24889,1.251897 -0.601254,0.07769 -2.294709,0.11192 -2.865547,0.05791 z m 1.806074,-2.924014 c 0.849551,-0.148783 1.554973,-0.511353 2.147254,-1.103635 1.540256,-1.540255 1.539284,-4.045385 -0.0022,-5.573832 -1.557363,-1.544228 -4.038971,-1.543021 -5.571668,0.0027 -1.545088,1.55823 -1.544844,4.025727 5.4e-4,5.571121 0.904844,0.904843 2.192546,1.319652 3.426027,1.103632 z m -6.866184,-6.878995 c 0.840393,-0.146553 1.543372,-0.509192 2.136128,-1.101949 2.097783,-2.097783 1.218508,-5.655543 -1.61883,-6.550188 -2.025644,-0.638709 -4.210803,0.473671 -4.900236,2.49452 -0.780909,2.28897 0.662556,4.723318 3.057634,5.156577 0.414763,0.07502 0.898837,0.0754 1.325304,8.58e-4 z m 13.754619,0 c 0.840395,-0.146553 1.543374,-0.509192 2.13613,-1.101949 1.540254,-1.540255 1.539284,-4.045385 -0.0023,-5.573834 -1.554133,-1.541021 -4.042153,-1.539812 -5.571669,0.0027 -1.545087,1.558231 -1.544842,4.025728 5.41e-4,5.57112 0.908181,0.90818 2.190612,1.319329 3.437152,1.10195 z m -6.45884,-2.242309 c 0.289256,-0.265083 0.204248,-0.703711 -0.163511,-0.843684 -0.215938,-0.08219 -0.453766,-0.0015 -0.590492,0.200344 -0.222192,0.328005 0.02176,0.77779 0.421877,0.77779 0.152514,0 0.211449,-0.02387 0.332126,-0.13445 z m -2.067743,-0.491164 c 0.197497,-0.132672 0.277704,-0.372636 0.196164,-0.586878 -0.139972,-0.36776 -0.5786,-0.452768 -0.843684,-0.163511 -0.401043,0.437613 0.154598,1.081522 0.64752,0.750389 z m 2.645045,-1.559846 c 0.11059,-0.120677 0.134449,-0.17961 0.134449,-0.332127 0,-0.152513 -0.02386,-0.211448 -0.134449,-0.332124 -0.265084,-0.289258 -0.703713,-0.20425 -0.843685,0.163508 -0.05222,0.137218 -0.0524,0.179267 -0.0015,0.325506 0.131713,0.377975 0.575091,0.469908 0.845139,0.175237 z m -2.178037,-0.411536 c 0.493558,-0.20622 0.332311,-0.964466 -0.2051,-0.964466 -0.531482,0 -0.698736,0.752035 -0.21411,0.962716 0.169812,0.07381 0.245957,0.07414 0.41921,0.0019 z m 1.17114,-2.170771 c 0.849551,-0.148783 1.554973,-0.511351 2.147254,-1.103634 1.539833,-1.539832 1.539833,-4.033449 0,-5.57328 -1.540755,-1.540755 -4.030794,-1.540258 -5.572166,9.5e-4 -1.545841,1.545838 -1.546336,4.026942 -9.5e-4,5.572166 0.903119,0.903116 2.194901,1.319244 3.426027,1.103633 z"
       id="path6" />
  </g>
</svg>
