<?xml version="1.0" encoding="UTF-8" standalone="no"?>
<svg
   width="64"
   height="64"
   version="1.1"
   id="svg73"
   sodipodi:docname="inkscape.svg"
   inkscape:version="1.4.2 (ebf0e940d0, 2025-05-08)"
   xmlns:inkscape="http://www.inkscape.org/namespaces/inkscape"
   xmlns:sodipodi="http://sodipodi.sourceforge.net/DTD/sodipodi-0.dtd"
   xmlns="http://www.w3.org/2000/svg"
   xmlns:svg="http://www.w3.org/2000/svg"
   xmlns:rdf="http://www.w3.org/1999/02/22-rdf-syntax-ns#"
   xmlns:cc="http://creativecommons.org/ns#"
   xmlns:dc="http://purl.org/dc/elements/1.1/">
  <metadata
     id="metadata77">
    <rdf:RDF>
      <cc:Work
         rdf:about="">
        <dc:format>image/svg+xml</dc:format>
        <dc:type
           rdf:resource="http://purl.org/dc/dcmitype/StillImage" />
      </cc:Work>
    </rdf:RDF>
  </metadata>
  <sodipodi:namedview
     pagecolor="#f5f7fa"
     bordercolor="#666666"
     borderopacity="1"
     objecttolerance="10"
     gridtolerance="10"
     guidetolerance="10"
     inkscape:pageopacity="0"
     inkscape:pageshadow="2"
     inkscape:window-width="1377"
     inkscape:window-height="886"
     id="namedview75"
     showgrid="false"
     inkscape:zoom="4.4470387"
     inkscape:cx="48.009477"
     inkscape:cy="45.311052"
     inkscape:window-x="142"
     inkscape:window-y="75"
     inkscape:window-maximized="0"
     inkscape:current-layer="g877"
     inkscape:document-rotation="0"
     inkscape:pagecheckerboard="0"
     inkscape:showpageshadow="2"
     inkscape:deskcolor="#d1d1d1" />
  <defs
     id="defs29" />
  <circle
     cx="32.516094"
     cy="31.877844"
     r="0"
     fill="url(#b)"
     stroke-width="1.5715"
     id="circle41"
     style="fill:url(#b)" />
  <g
     aria-label="GZ"
     transform="matrix(1.2212657,0,0,0.81882264,0.4960938,-0.1661539)"
     id="text93"
     style="font-weight:bold;font-size:11.5263px;line-height:1.25;font-family:sans-serif;-inkscape-font-specification:'sans-serif Bold';fill:#f2f2f2;stroke-width:0.288159" />
  <g
     id="g877"
     transform="matrix(1.1,0,0,1.1,-3.1845928,-3.2065454)">
    <circle
       style="opacity:1;fill:#414141;stroke:#dfdfdf;stroke-width:2.27272727;stroke-dasharray:none;fill-opacity:1;stroke-opacity:1"
       id="path1"
       cx="31.985994"
       cy="32.005951"
       r="25.454546" />
    <path
       d="m 31.766399,17.939565 c -0.80892,-0.0018 -1.613167,0.318763 -2.193659,0.966295 l -9.656352,10.769148 c -3.263206,4.403799 2.220893,3.892555 4.571851,5.161105 0.843315,0.939399 -3.231735,1.629143 -2.388418,2.569333 0.843317,0.939393 5.095454,1.808679 5.940083,2.748084 0.843316,0.939391 -1.724823,1.9372 -0.881582,2.876514 0.843317,0.939392 2.792043,0.04879 3.157247,2.217413 0.260246,1.549719 3.518292,0.665963 5.109841,-0.603233 0.843318,-0.940117 -1.612142,-0.847958 -0.768827,-1.787357 2.097044,-2.337107 4.04912,-0.853121 4.766687,-3.194929 0.354429,-1.157132 -3.089693,-1.78075 -2.244929,-2.720145 2.426413,-1.544222 10.811645,-2.550387 6.832258,-6.886932 L 34.000801,18.906098 c -0.612172,-0.640484 -1.425704,-0.964543 -2.234696,-0.966292 z m 0.08201,1.022164 c 0.577572,0.0034 1.153899,0.240644 1.568325,0.69818 l 3.823553,4.228233 c 0.362333,0.403489 0.356499,1.182685 0.1537,1.407506 l -1.896305,-1.653334 -0.374148,2.452029 -1.583732,-0.91043 -2.542214,1.742704 -0.840542,-3.680867 -1.363337,2.569335 h -2.080905 c -0.849811,0 -0.951543,-1.174884 -0.179384,-2.016313 1.348729,-1.586482 2.895293,-3.201858 3.736419,-4.138863 0.422722,-0.470862 1.001053,-0.701533 1.578622,-0.69818 z m -4.587184,16.454547 c 0.258093,0.174705 4.161075,1.039665 5.114954,1.212043 0.330702,0.07598 0.09702,0.447474 -0.358774,0.69818 -1.028076,0.29773 -6.014575,-1.910223 -4.756466,-1.910223 z m 15.181561,2.960327 c -0.785398,0.02948 -1.559846,0.464764 -1.773378,1.284701 0,0.534323 3.608261,0.887832 3.608261,-0.122904 -0.257403,-0.811672 -1.049468,-1.19128 -1.834883,-1.161762 z m -16.565422,2.312355 c -1.132207,-0.01203 -2.457867,0.893466 -1.481208,1.815279 0.855515,0.806176 2.17679,-0.204284 2.57296,-1.329345 -0.233132,-0.33758 -0.648677,-0.481459 -1.091752,-0.485943 z m 14.335183,0.07262 c -1.102772,1.078027 0.122482,2.171098 1.209555,1.474591 0.242304,-0.267931 -0.0055,-1.206643 -1.209555,-1.474591 z"
       fill="url(#b)"
       stroke-width="0.837773"
       id="path42"
       style="fill:#dfdfdf;fill-opacity:1;stroke:none;stroke-width:0.35806;stroke-dasharray:none;stroke-opacity:0.6" />
  </g>
</svg>
