<?xml version="1.0" encoding="UTF-8" standalone="no"?>
<svg
   width="64"
   height="64"
   version="1.1"
   id="svg73"
   sodipodi:docname="internet-chat.svg"
   inkscape:version="1.4.2 (ebf0e940d0, 2025-05-08)"
   xmlns:inkscape="http://www.inkscape.org/namespaces/inkscape"
   xmlns:sodipodi="http://sodipodi.sourceforge.net/DTD/sodipodi-0.dtd"
   xmlns="http://www.w3.org/2000/svg"
   xmlns:svg="http://www.w3.org/2000/svg"
   xmlns:rdf="http://www.w3.org/1999/02/22-rdf-syntax-ns#"
   xmlns:cc="http://creativecommons.org/ns#"
   xmlns:dc="http://purl.org/dc/elements/1.1/">
  <metadata
     id="metadata77">
    <rdf:RDF>
      <cc:Work
         rdf:about="">
        <dc:format>image/svg+xml</dc:format>
        <dc:type
           rdf:resource="http://purl.org/dc/dcmitype/StillImage" />
      </cc:Work>
    </rdf:RDF>
  </metadata>
  <sodipodi:namedview
     pagecolor="#f5f7fa"
     bordercolor="#666666"
     borderopacity="1"
     objecttolerance="10"
     gridtolerance="10"
     guidetolerance="10"
     inkscape:pageopacity="0"
     inkscape:pageshadow="2"
     inkscape:window-width="1283"
     inkscape:window-height="950"
     id="namedview75"
     showgrid="false"
     inkscape:zoom="6.2890624"
     inkscape:cx="47.701864"
     inkscape:cy="45.237268"
     inkscape:window-x="47"
     inkscape:window-y="37"
     inkscape:window-maximized="0"
     inkscape:current-layer="g877"
     inkscape:document-rotation="0"
     inkscape:pagecheckerboard="0"
     inkscape:showpageshadow="2"
     inkscape:deskcolor="#d1d1d1" />
  <defs
     id="defs29" />
  <circle
     cx="32.516094"
     cy="31.877844"
     r="0"
     fill="url(#b)"
     stroke-width="1.5715"
     id="circle41"
     style="fill:url(#b)" />
  <g
     aria-label="GZ"
     transform="matrix(1.2212657,0,0,0.81882264,0.4960938,-0.1661539)"
     id="text93"
     style="font-weight:bold;font-size:11.5263px;line-height:1.25;font-family:sans-serif;-inkscape-font-specification:'sans-serif Bold';fill:#f2f2f2;stroke-width:0.288159" />
  <g
     id="g877"
     transform="matrix(1.1,0,0,1.1,-3.1845928,-3.2065454)">
    <circle
       style="opacity:1;fill:#414141;stroke:#dfdfdf;stroke-width:2.27272727;stroke-dasharray:none;fill-opacity:1;stroke-opacity:1"
       id="path1"
       cx="31.985994"
       cy="32.005951"
       r="25.454546" />
    <path
       id="path11-6"
       style="fill:#dfdfdf;fill-opacity:1;stroke:none;stroke-width:0.44822;stroke-dasharray:none;stroke-opacity:0.6"
       d="m 31.278764,18.233097 c -1.72722,-0.0021 -2.027933,0.01692 -2.768171,0.17772 -2.673113,0.580673 -4.922757,1.743736 -6.737586,3.482779 -1.901334,1.821933 -3.045468,3.840411 -3.595366,6.343062 -0.117007,0.532523 -0.145796,0.996666 -0.144222,2.288974 0.0018,1.478082 0.02064,1.700409 0.213078,2.51136 0.590348,2.487141 2.040761,4.873276 3.929403,6.4631 l 0.561078,0.471745 v 2.368068 c 0,2.247528 0.0073,2.361761 0.138642,2.248963 0.07613,-0.06535 0.857083,-0.693146 1.73534,-1.394784 l 1.596699,-1.275688 0.340555,0.121914 c 0.518648,0.185363 2.106401,0.586203 2.321541,0.586203 0.180815,0 0.168605,-0.03116 -0.244716,-0.638312 -0.797065,-1.170589 -1.313089,-2.410361 -1.545519,-3.711689 -0.140246,-0.785102 -0.140723,-2.658136 -9e-4,-3.360885 0.765373,-3.847603 3.849913,-6.815447 7.903475,-7.604794 0.843637,-0.164282 2.978961,-0.191504 3.74331,-0.04746 2.051435,0.386616 3.982766,1.331378 5.356758,2.620226 l 0.503385,0.472681 -0.05489,-0.646681 C 44.053777,24.150356 40.013461,19.75225 34.190226,18.452687 33.275629,18.248577 33.098637,18.23527 31.278761,18.233092 Z m 5.647068,9.962621 c -0.709966,5.26e-4 -1.415244,0.04909 -1.837693,0.144223 -3.484788,0.784674 -6.06551,3.148989 -6.864131,6.289095 -0.959301,3.771875 0.946998,7.801247 4.531423,9.577409 1.458243,0.722583 2.589003,0.984878 4.217857,0.979791 1.136442,-0.004 1.638432,-0.0726 2.770958,-0.38429 l 0.515484,-0.142363 0.987242,0.559218 0.986302,0.560144 0.02126,-1.096104 0.02247,-1.09703 0.503385,-0.400106 c 1.458921,-1.160897 2.462092,-2.727013 2.991489,-4.669134 0.131029,-0.48063 0.163308,-0.839813 0.166574,-1.860956 0.0043,-1.383679 -0.07283,-1.842367 -0.498739,-2.944962 -1.044086,-2.702703 -3.522254,-4.705621 -6.647293,-5.373513 -0.442159,-0.0945 -1.156573,-0.141942 -1.866541,-0.141431 z" />
  </g>
</svg>
