<?xml version="1.0" encoding="UTF-8" standalone="no"?>
<svg
   width="64"
   height="64"
   version="1.1"
   id="svg73"
   sodipodi:docname="info.smplayer.SMPlayer.svg"
   inkscape:version="1.4.2 (ebf0e940d0, 2025-05-08)"
   xmlns:inkscape="http://www.inkscape.org/namespaces/inkscape"
   xmlns:sodipodi="http://sodipodi.sourceforge.net/DTD/sodipodi-0.dtd"
   xmlns="http://www.w3.org/2000/svg"
   xmlns:svg="http://www.w3.org/2000/svg"
   xmlns:rdf="http://www.w3.org/1999/02/22-rdf-syntax-ns#"
   xmlns:cc="http://creativecommons.org/ns#"
   xmlns:dc="http://purl.org/dc/elements/1.1/">
  <metadata
     id="metadata77">
    <rdf:RDF>
      <cc:Work
         rdf:about="">
        <dc:format>image/svg+xml</dc:format>
        <dc:type
           rdf:resource="http://purl.org/dc/dcmitype/StillImage" />
      </cc:Work>
    </rdf:RDF>
  </metadata>
  <sodipodi:namedview
     pagecolor="#f5f7fa"
     bordercolor="#666666"
     borderopacity="1"
     objecttolerance="10"
     gridtolerance="10"
     guidetolerance="10"
     inkscape:pageopacity="0"
     inkscape:pageshadow="2"
     inkscape:window-width="1377"
     inkscape:window-height="726"
     id="namedview75"
     showgrid="false"
     inkscape:zoom="6.2890624"
     inkscape:cx="47.622361"
     inkscape:cy="45.396274"
     inkscape:window-x="22"
     inkscape:window-y="80"
     inkscape:window-maximized="0"
     inkscape:current-layer="g877"
     inkscape:document-rotation="0"
     inkscape:pagecheckerboard="0"
     inkscape:showpageshadow="2"
     inkscape:deskcolor="#d1d1d1" />
  <defs
     id="defs29" />
  <circle
     cx="32.516094"
     cy="31.877844"
     r="0"
     fill="url(#b)"
     stroke-width="1.5715"
     id="circle41"
     style="fill:url(#b)" />
  <g
     aria-label="GZ"
     transform="matrix(1.2212657,0,0,0.81882264,0.4960938,-0.1661539)"
     id="text93"
     style="font-weight:bold;font-size:11.5263px;line-height:1.25;font-family:sans-serif;-inkscape-font-specification:'sans-serif Bold';fill:#f2f2f2;stroke-width:0.288159" />
  <g
     id="g877"
     transform="matrix(1.1,0,0,1.1,-3.1845928,-3.2065454)">
    <circle
       style="opacity:1;fill:#414141;stroke:#dfdfdf;stroke-width:2.27272727;stroke-dasharray:none;fill-opacity:1;stroke-opacity:1"
       id="path1"
       cx="31.985994"
       cy="32.005951"
       r="25.454546" />
    <path
       style="fill:#dfdfdf;fill-opacity:1;stroke-width:0.0694084"
       d="m 34.290715,42.885909 c -3.653969,-0.187531 -7.14195,-1.438815 -9.994737,-3.585522 -0.925124,-0.696151 -1.808656,-1.512672 -2.509788,-2.319421 -0.07331,-0.08433 -0.167709,-0.192314 -0.209814,-0.239941 -0.250297,-0.283164 -0.805185,-1.019971 -1.106439,-1.469181 -1.137781,-1.696594 -1.924043,-3.538006 -2.336346,-5.471702 -0.129763,-0.608581 -0.202854,-1.10115 -0.294047,-1.981563 -0.0397,-0.383405 -0.0393,-2.084075 7.67e-4,-2.487576 0.119783,-1.211081 0.264478,-1.981949 0.602023,-3.207285 0.07371,-0.267572 0.139141,-0.491622 0.145406,-0.497884 0.0062,-0.0062 0.01221,0.01277 0.01319,0.04229 8.12e-4,0.02954 0.0056,0.07866 0.0099,0.109201 0.0044,0.03055 0.02435,0.225436 0.04419,0.433104 0.160524,1.679539 0.417045,2.933109 0.897037,4.383669 0.436586,1.319374 1.076322,2.695399 1.816842,3.907896 0.34187,0.559764 1.008309,1.504733 1.436117,2.036324 1.241165,1.542268 2.774478,2.956275 4.400643,4.058233 1.769914,1.199364 3.596788,2.082229 5.636456,2.723895 0.488018,0.153509 1.356454,0.396937 1.593073,0.446509 0.06719,0.01416 0.287068,0.06027 0.488629,0.102679 1.750757,0.368293 3.818123,0.540702 5.441573,0.453798 1.897968,-0.1016 3.180717,-0.302156 5.029232,-0.786275 0.353465,-0.09259 0.648305,-0.162126 0.655212,-0.154556 0.0067,0.0074 0.0025,0.01753 -0.0095,0.02216 -0.0123,0.0046 -0.262065,0.166278 -0.555256,0.35917 -0.854911,0.562513 -1.384976,0.871585 -2.143316,1.249735 -1.770039,0.882638 -3.701666,1.469791 -5.697,1.731706 -0.817599,0.107325 -1.253243,0.134863 -2.243262,0.141816 -0.525281,0.0037 -1.025017,0.003 -1.110525,-0.0017 z m 4.797763,-3.042375 c 0.05802,-0.130556 0.170061,-0.500609 0.193171,-0.638154 0.04451,-0.265234 0.03173,-0.746296 -0.02646,-0.988938 -0.06197,-0.259019 -0.167694,-0.530717 -0.287049,-0.737695 -0.05082,-0.08819 -0.07754,-0.153633 -0.05997,-0.146864 0.278065,0.10671 1.579304,0.483806 2.23436,0.647526 1.389685,0.347324 2.646964,0.56196 4.447655,0.759278 0.314559,0.0345 0.571923,0.06889 0.571923,0.07649 0,0.01661 -0.782143,0.248712 -1.266001,0.375869 -0.630257,0.165632 -1.698001,0.382874 -2.232155,0.454147 -0.154895,0.02062 -0.245634,0.03345 -0.399789,0.05631 -0.0733,0.01077 -0.238219,0.03046 -0.366475,0.04375 -0.12828,0.01324 -0.278188,0.02861 -0.333158,0.03431 -0.451142,0.04648 -1.086345,0.08034 -1.730588,0.09225 -0.746631,0.01385 -0.763995,0.01324 -0.745591,-0.02831 z m -0.944243,-9e-4 c -0.01847,-0.0034 -0.188217,-0.01693 -0.377576,-0.02984 -0.189356,-0.01291 -0.36925,-0.02768 -0.399792,-0.03273 -0.03046,-0.0052 -0.16548,-0.02031 -0.29985,-0.03413 -0.241264,-0.02461 -0.580287,-0.07126 -1.12163,-0.154156 -0.299273,-0.04586 -1.115167,-0.198833 -1.127846,-0.211509 -0.0042,-0.0043 0.03862,-0.07542 0.09526,-0.158157 0.211107,-0.308357 0.357762,-0.67105 0.421588,-1.042647 0.04253,-0.247633 0.04825,-0.603996 0.01258,-0.785719 -0.03896,-0.198586 -0.03512,-0.210494 0.101434,-0.313603 0.866436,-0.654163 2.104013,-0.547039 2.837749,0.245633 0.612316,0.661494 0.743906,1.614009 0.334574,2.421785 l -0.05589,0.110279 -0.193663,-0.0043 c -0.106525,-0.0024 -0.208649,-0.0074 -0.226989,-0.01077 z m -3.920153,-0.601103 c -0.653511,-0.152595 -1.8512,-0.539384 -2.71674,-0.877354 l -0.406844,-0.158863 0.200869,-0.186188 c 0.427994,-0.396696 0.705931,-0.89506 0.812346,-1.4566 0.04511,-0.238068 0.05984,-0.495101 0.03872,-0.676188 l -0.01879,-0.161263 0.0822,-0.02212 c 0.225949,-0.06085 0.554165,-0.08848 0.767815,-0.06466 1.060739,0.11828 1.837443,0.913815 1.928487,1.975241 0.02972,0.346466 -0.0669,0.789723 -0.24697,1.133096 -0.09308,0.17751 -0.344879,0.513597 -0.380508,0.507908 -0.0088,-0.0015 -0.03611,-0.0074 -0.06055,-0.01291 z m -3.997894,-1.434498 c -0.304577,-0.147623 -0.774432,-0.389454 -1.110526,-0.571576 -0.431432,-0.233782 -1.765738,-1.062241 -1.765738,-1.096328 0,-0.0055 0.07246,-0.03722 0.16103,-0.07066 0.68133,-0.257161 1.225655,-0.73781 1.533413,-1.35403 0.08139,-0.16296 0.181688,-0.46673 0.2063,-0.624803 l 0.01438,-0.0923 0.169626,-0.01455 c 0.189606,-0.01624 0.482171,0.01164 0.691666,0.06591 0.634821,0.1645 1.218194,0.694444 1.440367,1.308447 0.298775,0.825711 0.07669,1.73284 -0.569204,2.324985 -0.126779,0.116216 -0.373745,0.286247 -0.41594,0.286311 -0.01218,2.7e-5 -0.17213,-0.07262 -0.355367,-0.161418 z m -3.738591,-2.297989 c -0.584336,-0.458978 -0.760114,-0.60719 -1.247671,-1.051997 -0.488144,-0.445346 -0.614797,-0.568619 -0.598064,-0.582103 0.0052,-0.0042 0.102796,-0.03975 0.216842,-0.07903 0.692561,-0.238395 1.323267,-0.792946 1.602668,-1.409157 0.08448,-0.186301 0.168894,-0.476615 0.188478,-0.648178 0.02627,-0.230128 0.01477,-0.218924 0.208374,-0.203191 0.468649,0.03807 0.941653,0.242153 1.281758,0.552992 0.48159,0.440145 0.747252,1.139237 0.675309,1.77708 -0.02829,0.250818 -0.0484,0.332983 -0.137016,0.559988 -0.260059,0.666139 -0.847751,1.161344 -1.55746,1.312354 -0.27295,0.0581 -0.263845,0.06135 -0.633218,-0.228763 z M 24.16224,33.410157 c -0.03297,-0.0397 -0.101366,-0.11716 -0.151982,-0.172131 -0.620298,-0.673673 -1.26917,-1.497932 -1.813321,-2.303468 l -0.266907,-0.39511 0.28345,-0.01495 c 0.534139,-0.02821 0.935477,-0.164423 1.374826,-0.466663 0.253026,-0.174063 0.468887,-0.400503 0.725568,-0.761118 0.03025,-0.04247 0.03461,-0.04259 0.211719,-0.0044 0.4113,0.08838 0.792602,0.296639 1.072216,0.585613 0.262984,0.271788 0.409033,0.50921 0.516303,0.83933 0.375656,1.156067 -0.315652,2.413615 -1.490686,2.71169 -0.298881,0.07582 -0.385632,0.07231 -0.461187,-0.01865 z m -2.2761,-3.350612 c -0.244612,-0.02761 -0.261151,-0.03444 -0.323462,-0.133133 -0.167522,-0.265367 -0.695007,-1.281312 -0.852195,-1.641339 -0.02933,-0.06718 -0.08747,-0.19712 -0.129177,-0.288739 -0.132438,-0.290879 -0.383167,-0.928571 -0.383167,-0.974528 0,-0.07035 0.248633,-0.421695 0.415352,-0.586947 0.373401,-0.370122 0.848337,-0.57857 1.386226,-0.60841 0.468631,-0.026 0.99123,0.125599 1.27267,0.369183 0.05636,0.04879 0.1648,0.133339 0.240981,0.18791 0.373671,0.267672 0.637182,0.776916 0.705321,1.363056 0.04288,0.368859 -0.03612,0.788804 -0.216088,1.148334 -0.263212,0.525888 -0.741774,0.92518 -1.304192,1.088162 -0.14523,0.04209 -0.623601,0.115164 -0.642492,0.09815 -0.0018,-0.0017 -0.07817,-0.01136 -0.169779,-0.02169 z M 19.947585,26.341153 C 19.433367,24.734472 19.14264,23.090817 19.077494,21.421966 l -0.0117,-0.299841 0.05478,0.06663 c 0.03012,0.03666 0.267711,0.351479 0.527956,0.69963 1.054508,1.41071 1.811416,2.360119 2.621124,3.28775 l 0.165304,0.189381 -0.302171,-3.95e-4 c -0.320843,-3.95e-4 -0.503556,0.02574 -0.79082,0.113506 -0.472017,0.144193 -0.940592,0.46285 -1.268346,0.862535 l -0.09067,0.11057 z"
       id="path1-5" />
  </g>
</svg>
