<?xml version="1.0" encoding="UTF-8" standalone="no"?>
<svg
   width="64"
   height="64"
   version="1.1"
   id="svg73"
   sodipodi:docname="info.smplayer.SMPlayer.svg"
   inkscape:version="1.4.2 (ebf0e940d0, 2025-05-08)"
   xmlns:inkscape="http://www.inkscape.org/namespaces/inkscape"
   xmlns:sodipodi="http://sodipodi.sourceforge.net/DTD/sodipodi-0.dtd"
   xmlns="http://www.w3.org/2000/svg"
   xmlns:svg="http://www.w3.org/2000/svg"
   xmlns:rdf="http://www.w3.org/1999/02/22-rdf-syntax-ns#"
   xmlns:cc="http://creativecommons.org/ns#"
   xmlns:dc="http://purl.org/dc/elements/1.1/">
  <metadata
     id="metadata77">
    <rdf:RDF>
      <cc:Work
         rdf:about="">
        <dc:format>image/svg+xml</dc:format>
        <dc:type
           rdf:resource="http://purl.org/dc/dcmitype/StillImage" />
      </cc:Work>
    </rdf:RDF>
  </metadata>
  <sodipodi:namedview
     pagecolor="#f5f7fa"
     bordercolor="#666666"
     borderopacity="1"
     objecttolerance="10"
     gridtolerance="10"
     guidetolerance="10"
     inkscape:pageopacity="0"
     inkscape:pageshadow="2"
     inkscape:window-width="1377"
     inkscape:window-height="726"
     id="namedview75"
     showgrid="false"
     inkscape:zoom="6.2890624"
     inkscape:cx="47.622361"
     inkscape:cy="45.396274"
     inkscape:window-x="22"
     inkscape:window-y="80"
     inkscape:window-maximized="0"
     inkscape:current-layer="g877"
     inkscape:document-rotation="0"
     inkscape:pagecheckerboard="0"
     inkscape:showpageshadow="2"
     inkscape:deskcolor="#d1d1d1" />
  <defs
     id="defs29" />
  <circle
     cx="32.516094"
     cy="31.877844"
     r="0"
     fill="url(#b)"
     stroke-width="1.5715"
     id="circle41"
     style="fill:url(#b)" />
  <g
     aria-label="GZ"
     transform="matrix(1.2212657,0,0,0.81882264,0.4960938,-0.1661539)"
     id="text93"
     style="font-weight:bold;font-size:11.5263px;line-height:1.25;font-family:sans-serif;-inkscape-font-specification:'sans-serif Bold';fill:#f2f2f2;stroke-width:0.288159" />
  <g
     id="g877"
     transform="matrix(1.1,0,0,1.1,-3.1845928,-3.2065454)">
    <circle
       style="opacity:1;fill:#414141;stroke:#dfdfdf;stroke-width:2.27272727;stroke-dasharray:none;fill-opacity:1;stroke-opacity:1"
       id="path1"
       cx="31.985994"
       cy="32.005951"
       r="25.454546" />
    <path
       style="fill:#dfdfdf;fill-opacity:1;stroke-width:0.486213"
       d="m 26.198413,42.002869 c -3.26141,-1.285204 -6.42999,-4.373723 -7.228361,-7.045716 -0.328878,-1.100688 -0.59796,-3.233939 -0.59796,-4.740556 v -2.7393 h 1.701738 1.701736 v 2.446672 c 0,3.161525 0.886072,5.21546 3.081564,7.143127 2.999668,2.633742 5.278111,2.885981 16.301169,1.804629 3.762476,-0.369092 3.844881,0.271021 0.316362,2.457427 -2.16729,1.342936 -2.737503,1.463195 -7.497368,1.581246 -4.310294,0.106924 -5.580751,-0.04133 -7.77888,-0.907529 z m 3.113422,-5.446112 c -2.79716,-1.094546 -3.567499,-1.789817 -4.400897,-3.972034 -0.963992,-2.524182 -0.728308,-6.44429 0.500164,-8.319175 1.562176,-2.384182 3.312619,-2.842439 11.554371,-3.024867 l 7.653644,-0.169411 0.49039,1.28982 c 0.269696,0.709404 0.490389,1.475152 0.490389,1.701664 0,0.226511 -3.520371,0.485764 -7.823051,0.57611 -7.539641,0.158324 -7.85669,0.205856 -8.751791,1.312112 -1.263785,1.561911 -1.246017,4.892095 0.03342,6.26542 1.032019,1.107738 5.137073,2.004777 5.846924,1.27767 0.228389,-0.233941 0.563851,-1.027032 0.745474,-1.762427 0.324508,-1.313961 0.291215,-1.337078 -1.925699,-1.337078 -2.434902,0 -3.317422,-0.87214 -2.220259,-2.19414 0.786582,-0.947774 8.555262,-1.048793 8.871573,-0.11536 0.395786,1.167945 -2.326481,8.2919 -3.316746,8.679654 -1.430657,0.560195 -6.105521,0.434728 -7.747915,-0.207958 z"
       id="path1714" />
  </g>
</svg>
