<?xml version="1.0" encoding="UTF-8" standalone="no"?>
<svg
   width="64"
   height="64"
   version="1.1"
   id="svg73"
   sodipodi:docname="smile.svg"
   inkscape:version="1.4.2 (ebf0e940d0, 2025-05-08)"
   xmlns:inkscape="http://www.inkscape.org/namespaces/inkscape"
   xmlns:sodipodi="http://sodipodi.sourceforge.net/DTD/sodipodi-0.dtd"
   xmlns="http://www.w3.org/2000/svg"
   xmlns:svg="http://www.w3.org/2000/svg"
   xmlns:rdf="http://www.w3.org/1999/02/22-rdf-syntax-ns#"
   xmlns:cc="http://creativecommons.org/ns#"
   xmlns:dc="http://purl.org/dc/elements/1.1/">
  <metadata
     id="metadata77">
    <rdf:RDF>
      <cc:Work
         rdf:about="">
        <dc:format>image/svg+xml</dc:format>
        <dc:type
           rdf:resource="http://purl.org/dc/dcmitype/StillImage" />
      </cc:Work>
    </rdf:RDF>
  </metadata>
  <sodipodi:namedview
     pagecolor="#f5f7fa"
     bordercolor="#666666"
     borderopacity="1"
     objecttolerance="10"
     gridtolerance="10"
     guidetolerance="10"
     inkscape:pageopacity="0"
     inkscape:pageshadow="2"
     inkscape:window-width="1377"
     inkscape:window-height="678"
     id="namedview75"
     showgrid="false"
     inkscape:zoom="4.4470387"
     inkscape:cx="47.559739"
     inkscape:cy="37.440646"
     inkscape:window-x="18"
     inkscape:window-y="126"
     inkscape:window-maximized="0"
     inkscape:current-layer="g877"
     inkscape:document-rotation="0"
     inkscape:pagecheckerboard="0"
     inkscape:showpageshadow="2"
     inkscape:deskcolor="#d1d1d1" />
  <defs
     id="defs29">
    <inkscape:path-effect
       effect="fillet_chamfer"
       id="path-effect14"
       is_visible="true"
       lpeversion="1"
       nodesatellites_param="F,0,0,1,0,0,0,1 @ F,0,0,1,0,0,0,1 @ F,0,0,1,0,0,0,1 @ F,0,0,1,0,0,0,1 @ F,0,0,1,0,0,0,1 @ F,0,0,1,0,0,0,1 @ F,0,0,1,0,0,0,1 @ F,0,0,1,0,0,0,1 @ F,0,0,1,0,0,0,1 @ F,0,0,1,0,0,0,1 @ F,0,0,1,0,0,0,1 @ F,0,0,1,0,0,0,1 @ F,0,0,1,0,0,0,1 @ F,0,0,1,0,0,0,1 @ F,0,0,1,0,0,0,1 @ F,0,0,1,0,0,0,1 @ F,0,0,1,0,0,0,1 | F,0,0,1,0,0,0,1 @ F,0,0,1,0,0,0,1 @ F,0,0,1,0,0,0,1 @ F,0,0,1,0,0,0,1"
       radius="0"
       unit="px"
       method="auto"
       mode="F"
       chamfer_steps="1"
       flexible="false"
       use_knot_distance="true"
       apply_no_radius="true"
       apply_with_radius="true"
       only_selected="false"
       hide_knots="false" />
  </defs>
  <circle
     cx="32.516094"
     cy="31.877844"
     r="0"
     fill="url(#b)"
     stroke-width="1.5715"
     id="circle41"
     style="fill:url(#b)" />
  <g
     aria-label="GZ"
     transform="matrix(1.2212657,0,0,0.81882264,0.4960938,-0.1661539)"
     id="text93"
     style="font-weight:bold;font-size:11.5263px;line-height:1.25;font-family:sans-serif;-inkscape-font-specification:'sans-serif Bold';fill:#f2f2f2;stroke-width:0.288159" />
  <g
     id="g877"
     transform="matrix(1.1,0,0,1.1,-3.1845928,-3.2065454)">
    <circle
       style="opacity:1;fill:#414141;stroke:#dfdfdf;stroke-width:2.27272727;stroke-dasharray:none;fill-opacity:1;stroke-opacity:1"
       id="path1"
       cx="31.985994"
       cy="32.005951"
       r="25.454546" />
    <path
       style="fill:#dfdfdf;fill-opacity:1;stroke:none;stroke-width:0.403893;stroke-dasharray:none;stroke-opacity:0.6"
       d="m 21.243856,44.921561 c -1.443063,-0.503002 -2.502394,-1.571174 -2.856827,-2.880647 -0.246842,-0.911978 -0.07888,-2.192804 0.399329,-3.045175 0.920777,-1.641199 3.132012,-2.585129 4.8809,-2.083549 l 0.435313,0.12483 0.08931,-0.854593 c 0.22816,-2.18291 1.834602,-4.105098 4.003751,-4.790679 0.423118,-0.133731 0.7976,-0.266838 0.832176,-0.295794 0.03459,-0.02894 -0.584876,-0.702596 -1.376561,-1.496986 l -1.439426,-1.444346 1.411529,-1.369689 1.41153,-1.369687 V 23.47813 21.541015 h 2.005239 2.005242 l 1.422072,-1.341513 1.422072,-1.341506 0.664021,0.561158 c 0.36521,0.308633 1.008057,0.912314 1.428546,1.341508 l 0.764535,0.780353 h 1.997992 1.997989 v 1.931545 1.931548 l 1.477722,1.374151 1.477734,1.374151 -1.477734,1.39174 -1.477722,1.391738 v 1.876667 1.876667 H 40.843814 38.94505 l -1.118649,1.014091 -1.118645,1.01409 0.960766,0.08812 c 1.235787,0.113355 2.184797,0.592244 3.02458,1.526282 1.441193,1.602954 1.421637,3.743983 -0.04892,5.352966 -0.42777,0.46805 -0.975941,0.886445 -1.430644,1.091943 l -0.737153,0.333155 -8.252598,0.03262 c -7.657376,0.03016 -8.305063,0.01446 -8.979971,-0.220956 z m 15.904718,-11.13954 c 1.926247,-0.240966 3.856533,-1.948949 4.478537,-3.962762 1.042272,-3.374495 -1.158434,-6.721434 -4.818298,-7.327891 -1.814837,-0.300728 -3.678886,0.286502 -5.062335,1.594788 -1.777259,1.6807 -2.31252,4.346932 -1.28138,6.382779 0.282903,0.558548 0.403619,0.6542 1.087535,0.8617 1.395,0.423238 2.682939,1.27616 3.168642,2.098389 0.165594,0.280325 0.373943,0.422335 0.66901,0.455987 0.434608,0.04956 0.630436,0.03811 1.758289,-0.10299 z"
       id="path53290" />
  </g>
</svg>
