<?xml version="1.0" encoding="UTF-8" standalone="no"?>
<svg
   width="64"
   height="64"
   version="1.1"
   id="svg73"
   sodipodi:docname="smile.svg"
   inkscape:version="1.4.2 (ebf0e940d0, 2025-05-08)"
   xmlns:inkscape="http://www.inkscape.org/namespaces/inkscape"
   xmlns:sodipodi="http://sodipodi.sourceforge.net/DTD/sodipodi-0.dtd"
   xmlns="http://www.w3.org/2000/svg"
   xmlns:svg="http://www.w3.org/2000/svg"
   xmlns:rdf="http://www.w3.org/1999/02/22-rdf-syntax-ns#"
   xmlns:cc="http://creativecommons.org/ns#"
   xmlns:dc="http://purl.org/dc/elements/1.1/">
  <metadata
     id="metadata77">
    <rdf:RDF>
      <cc:Work
         rdf:about="">
        <dc:format>image/svg+xml</dc:format>
        <dc:type
           rdf:resource="http://purl.org/dc/dcmitype/StillImage" />
      </cc:Work>
    </rdf:RDF>
  </metadata>
  <sodipodi:namedview
     pagecolor="#f5f7fa"
     bordercolor="#666666"
     borderopacity="1"
     objecttolerance="10"
     gridtolerance="10"
     guidetolerance="10"
     inkscape:pageopacity="0"
     inkscape:pageshadow="2"
     inkscape:window-width="1377"
     inkscape:window-height="678"
     id="namedview75"
     showgrid="false"
     inkscape:zoom="4.4470387"
     inkscape:cx="47.559739"
     inkscape:cy="37.440646"
     inkscape:window-x="18"
     inkscape:window-y="126"
     inkscape:window-maximized="0"
     inkscape:current-layer="g877"
     inkscape:document-rotation="0"
     inkscape:pagecheckerboard="0"
     inkscape:showpageshadow="2"
     inkscape:deskcolor="#d1d1d1" />
  <defs
     id="defs29" />
  <circle
     cx="32.516094"
     cy="31.877844"
     r="0"
     fill="url(#b)"
     stroke-width="1.5715"
     id="circle41"
     style="fill:url(#b)" />
  <g
     aria-label="GZ"
     transform="matrix(1.2212657,0,0,0.81882264,0.4960938,-0.1661539)"
     id="text93"
     style="font-weight:bold;font-size:11.5263px;line-height:1.25;font-family:sans-serif;-inkscape-font-specification:'sans-serif Bold';fill:#f2f2f2;stroke-width:0.288159" />
  <g
     id="g877"
     transform="matrix(1.1,0,0,1.1,-3.1845928,-3.2065454)">
    <circle
       style="opacity:1;fill:#414141;stroke:#dfdfdf;stroke-width:2.27272727;stroke-dasharray:none;fill-opacity:1;stroke-opacity:1"
       id="path1"
       cx="31.985994"
       cy="32.005951"
       r="25.454546" />
    <path
       style="fill:#dfdfdf;fill-opacity:1;stroke-width:0.203342"
       d="m 32.288695,45.542665 c -1.438528,-0.731335 -1.684461,-2.118437 -0.769672,-4.341067 0.867151,-2.106886 0.558998,-2.809231 -1.694864,-3.862922 -0.579147,-0.270751 -1.053042,-0.545262 -1.053094,-0.610023 -5.8e-5,-0.06477 0.800602,-0.09024 1.779243,-0.05664 1.625817,0.05583 2.311935,-0.05215 4.23032,-0.665778 0.350456,-0.1121 0.505672,0.04059 0.965874,0.950166 0.627991,1.241202 0.695431,2.300664 0.187948,2.952659 -0.193228,0.248238 -1.010774,0.771301 -1.816767,1.162329 -2.156556,1.046242 -2.702049,2.383771 -1.473308,3.612512 0.5535,0.553499 0.717715,0.608689 1.536486,0.516404 0.845177,-0.09526 0.883927,-0.08033 0.496316,0.191138 -0.65198,0.456662 -1.661885,0.520595 -2.38848,0.151196 z M 28.12336,35.052926 c -0.797466,-0.175469 -0.988101,-0.310864 -1.169217,-0.830411 -0.246144,-0.70609 -0.285408,-2.586573 -0.06079,-2.910773 0.08216,-0.118588 0.789921,-0.312743 1.572786,-0.431457 0.782867,-0.118718 1.860672,-0.421896 2.395119,-0.673734 l 0.971725,-0.45789 1.174416,0.527046 c 0.645928,0.289874 1.690279,0.587675 2.32078,0.661777 l 1.146366,0.134733 -0.5825,0.735924 c -0.320376,0.404758 -0.684587,1.124745 -0.809359,1.59997 -0.34064,1.297385 -1.320103,1.742588 -3.973102,1.805927 -1.118379,0.0267 -2.462187,-0.04582 -2.986239,-0.161112 z m -2.873303,-5.132001 c -1.55845,-0.575692 -1.939115,-1.433558 -1.184908,-2.670316 0.505694,-0.829244 2.409971,-1.803813 4.362649,-2.23271 2.292437,-0.503521 6.407619,-0.347546 8.36264,0.31696 3.346422,1.137443 4.552626,3.29242 2.441766,4.362418 -1.091942,0.553506 -4.034127,0.571943 -5.428323,0.034 -0.531234,-0.204966 -0.965876,-0.448437 -0.965876,-0.541051 0,-0.15224 0.87151,-0.606262 2.236765,-1.165266 0.49066,-0.200901 0.476505,-0.217072 -0.406687,-0.464644 -1.092359,-0.306205 -4.164128,-0.325123 -4.880207,-0.03006 -0.408711,0.168415 -0.169569,0.212609 1.220053,0.225476 0.950623,0.0088 1.844132,0.08946 1.985568,0.179242 0.169868,0.107829 -0.406137,0.503657 -1.696902,1.166101 -1.813838,0.930898 -2.073071,1.006583 -3.612308,1.054674 -1.047172,0.03272 -1.944194,-0.05383 -2.43423,-0.234845 z m 5.525259,-6.112417 c -0.624215,-0.352443 -0.999785,-1.249266 -0.776235,-1.853581 0.425131,-1.149239 2.365529,-1.475109 3.43335,-0.576596 0.751434,0.632291 0.802937,1.278174 0.161396,2.024009 -0.574059,0.667386 -1.993563,0.871949 -2.818511,0.406168 z m 3.189487,-2.947305 c -0.8362,-0.923994 -2.6209,-1.031051 -3.752731,-0.225115 -0.764632,0.544466 -0.993131,0.528474 -1.274562,-0.08921 -0.33802,-0.741874 0.03681,-1.390255 1.101712,-1.905768 1.468934,-0.711101 3.569196,-0.476612 4.672255,0.521645 0.470664,0.425945 0.465329,1.330419 -0.0104,1.760937 -0.349665,0.316444 -0.39698,0.312426 -0.736286,-0.0625 z"
       id="path1-6" />
  </g>
</svg>
