<?xml version="1.0" encoding="UTF-8" standalone="no"?>
<svg
   width="64"
   height="64"
   version="1.1"
   id="svg73"
   sodipodi:docname="com.github.robertsanseries.ciano.svg"
   inkscape:version="1.4.2 (ebf0e940d0, 2025-05-08)"
   xmlns:inkscape="http://www.inkscape.org/namespaces/inkscape"
   xmlns:sodipodi="http://sodipodi.sourceforge.net/DTD/sodipodi-0.dtd"
   xmlns="http://www.w3.org/2000/svg"
   xmlns:svg="http://www.w3.org/2000/svg"
   xmlns:rdf="http://www.w3.org/1999/02/22-rdf-syntax-ns#"
   xmlns:cc="http://creativecommons.org/ns#"
   xmlns:dc="http://purl.org/dc/elements/1.1/">
  <metadata
     id="metadata77">
    <rdf:RDF>
      <cc:Work
         rdf:about="">
        <dc:format>image/svg+xml</dc:format>
        <dc:type
           rdf:resource="http://purl.org/dc/dcmitype/StillImage" />
      </cc:Work>
    </rdf:RDF>
  </metadata>
  <sodipodi:namedview
     pagecolor="#f5f7fa"
     bordercolor="#666666"
     borderopacity="1"
     objecttolerance="10"
     gridtolerance="10"
     guidetolerance="10"
     inkscape:pageopacity="0"
     inkscape:pageshadow="2"
     inkscape:window-width="1377"
     inkscape:window-height="886"
     id="namedview75"
     showgrid="false"
     inkscape:zoom="6.2890625"
     inkscape:cx="48.099379"
     inkscape:cy="45.396273"
     inkscape:window-x="0"
     inkscape:window-y="47"
     inkscape:window-maximized="0"
     inkscape:current-layer="g877"
     inkscape:document-rotation="0"
     inkscape:pagecheckerboard="0"
     inkscape:showpageshadow="2"
     inkscape:deskcolor="#d1d1d1" />
  <defs
     id="defs29" />
  <circle
     cx="32.516094"
     cy="31.877844"
     r="0"
     fill="url(#b)"
     stroke-width="1.5715"
     id="circle41"
     style="fill:url(#b)" />
  <g
     aria-label="GZ"
     transform="matrix(1.2212657,0,0,0.81882264,0.4960938,-0.1661539)"
     id="text93"
     style="font-weight:bold;font-size:11.5263px;line-height:1.25;font-family:sans-serif;-inkscape-font-specification:'sans-serif Bold';fill:#f2f2f2;stroke-width:0.288159" />
  <g
     id="g877"
     transform="matrix(1.1,0,0,1.1,-3.1845928,-3.2065454)">
    <circle
       style="opacity:1;fill:#414141;stroke:#dfdfdf;stroke-width:2.27272727;stroke-dasharray:none;fill-opacity:1;stroke-opacity:1"
       id="path1"
       cx="31.985994"
       cy="32.005951"
       r="25.454546" />
    <path
       fill="#f5f7fa"
       d="m 31.985999,45.6845 c -7.669159,0 -13.886235,-6.124093 -13.886235,-13.678546 0,-7.554456 6.217076,-13.67855 13.886235,-13.67855 7.669149,0 13.886226,6.124094 13.886226,13.67855 0,7.554453 -6.217077,13.678546 -13.886226,13.678546 z m 0,-24.317426 c -5.964903,0 -10.800407,4.763194 -10.800407,10.63888 0,0.41969 0.345393,0.759914 0.771457,0.759914 0.426065,0 0.771457,-0.340218 0.771457,-0.759914 0,-5.036306 4.14472,-9.119039 9.257493,-9.119039 0.426063,0 0.771457,-0.340228 0.771457,-0.759916 0,-0.419693 -0.345395,-0.759925 -0.771457,-0.759925 z m 0,16.718235 c 3.408512,0 6.171661,-2.721828 6.171661,-6.079355 0,-3.357535 -2.763149,-6.079361 -6.171661,-6.079361 -3.408515,0 -6.17166,2.721826 -6.17166,6.079361 0,3.357527 2.763145,6.079355 6.17166,6.079355 z m 0,-1.519841 c -2.556387,0 -4.628745,-2.041362 -4.628745,-4.559513 0,-2.518156 2.072358,-4.559522 4.628745,-4.559522 2.556384,0 4.628745,2.041366 4.628745,4.559522 0,2.518151 -2.072361,4.559513 -4.628745,4.559513 z m 0,-1.519842 c 1.704252,0 3.085828,-1.360904 3.085828,-3.039671 0,-1.678775 -1.381576,-3.039683 -3.085828,-3.039683 -1.704258,0 -3.085828,1.360908 -3.085828,3.039683 0,1.678767 1.38157,3.039671 3.085828,3.039671 z"
       id="path42"
       style="fill:#dfdfdf;fill-opacity:1;stroke:none;stroke-width:0.416787;stroke-dasharray:none;stroke-opacity:0.6" />
    <circle
       style="fill:#414141;fill-opacity:1;stroke:#dfdfdf;stroke-width:1.08705;stroke-dasharray:none;stroke-opacity:1"
       id="path1-6"
       cx="48.320271"
       cy="48.287033"
       r="12.17483" />
    <path
       style="fill:#dfdfdf;fill-opacity:1;stroke:none;stroke-width:0.40592;stroke-dasharray:none;stroke-opacity:0.6"
       d="m 49.900966,41.37501 c -4.252788,1.733 -6.805497,5.795161 -6.805497,8.665017 0,2.837617 2.2328,5.14008 5.006122,5.19398 -1.38585,-0.02761 -2.502281,-1.176193 -2.502281,-2.594479 0,-1.435669 1.276027,-3.466004 3.402749,-4.332507 0,3.032758 2.283408,3.471204 1.701356,5.199009 -0.33001,0.97972 -1.134994,1.723316 -2.530526,1.731303 0.0083,4.8e-5 0.0178,9.9e-4 0.0264,9.9e-4 2.818902,0 4.440469,-1.495926 5.104036,-3.466007 1.164153,-3.455726 -3.402656,-4.332451 -3.402656,-10.397963 z"
       id="path12447"
       inkscape:transform-center-x="0.16719057"
       inkscape:transform-center-y="3.968992" />
  </g>
</svg>
