<?xml version="1.0" encoding="UTF-8" standalone="no"?>
<svg
   width="64"
   height="64"
   version="1.1"
   id="svg73"
   sodipodi:docname="fr.handbrake.ghb.svg"
   inkscape:version="1.4.2 (ebf0e940d0, 2025-05-08)"
   xmlns:inkscape="http://www.inkscape.org/namespaces/inkscape"
   xmlns:sodipodi="http://sodipodi.sourceforge.net/DTD/sodipodi-0.dtd"
   xmlns="http://www.w3.org/2000/svg"
   xmlns:svg="http://www.w3.org/2000/svg"
   xmlns:rdf="http://www.w3.org/1999/02/22-rdf-syntax-ns#"
   xmlns:cc="http://creativecommons.org/ns#"
   xmlns:dc="http://purl.org/dc/elements/1.1/">
  <metadata
     id="metadata77">
    <rdf:RDF>
      <cc:Work
         rdf:about="">
        <dc:format>image/svg+xml</dc:format>
        <dc:type
           rdf:resource="http://purl.org/dc/dcmitype/StillImage" />
      </cc:Work>
    </rdf:RDF>
  </metadata>
  <sodipodi:namedview
     pagecolor="#f5f7fa"
     bordercolor="#666666"
     borderopacity="1"
     objecttolerance="10"
     gridtolerance="10"
     guidetolerance="10"
     inkscape:pageopacity="0"
     inkscape:pageshadow="2"
     inkscape:window-width="1377"
     inkscape:window-height="886"
     id="namedview75"
     showgrid="false"
     inkscape:zoom="6.2890625"
     inkscape:cx="48.099379"
     inkscape:cy="45.396273"
     inkscape:window-x="0"
     inkscape:window-y="47"
     inkscape:window-maximized="0"
     inkscape:current-layer="g877"
     inkscape:document-rotation="0"
     inkscape:pagecheckerboard="0"
     inkscape:showpageshadow="2"
     inkscape:deskcolor="#d1d1d1" />
  <defs
     id="defs29" />
  <circle
     cx="32.516094"
     cy="31.877844"
     r="0"
     fill="url(#b)"
     stroke-width="1.5715"
     id="circle41"
     style="fill:url(#b)" />
  <g
     aria-label="GZ"
     transform="matrix(1.2212657,0,0,0.81882264,0.4960938,-0.1661539)"
     id="text93"
     style="font-weight:bold;font-size:11.5263px;line-height:1.25;font-family:sans-serif;-inkscape-font-specification:'sans-serif Bold';fill:#f2f2f2;stroke-width:0.288159" />
  <g
     id="g877"
     transform="matrix(1.1,0,0,1.1,-3.1845928,-3.2065454)">
    <circle
       style="opacity:1;fill:#414141;stroke:#dfdfdf;stroke-width:2.27272727;stroke-dasharray:none;fill-opacity:1;stroke-opacity:1"
       id="path1"
       cx="31.985994"
       cy="32.005951"
       r="25.454546" />
    <path
       style="fill:#dfdfdf;fill-opacity:1;stroke:none;stroke-width:0.370531;stroke-dasharray:none;stroke-opacity:0.6"
       d="m 19.696888,43.373012 c -0.510279,-0.159138 -1.055272,-0.642448 -1.333844,-1.182907 -0.186395,-0.361634 -0.193109,-0.720596 -0.190983,-10.203519 0.0022,-9.351324 0.01132,-9.848329 0.189323,-10.232798 0.102883,-0.222259 0.317839,-0.526711 0.477651,-0.676561 0.59727,-0.560074 0.777652,-0.586254 4.038772,-0.586254 1.92331,0 3.132564,0.04063 3.375384,0.113367 0.263886,0.07906 0.663992,0.401058 1.32225,1.0641 0.640375,0.645027 1.136756,1.047116 1.543706,1.250474 l 0.599824,0.299738 7.484967,1.55e-4 c 6.926396,1.5e-4 7.510823,0.01332 7.831373,0.176795 0.19051,0.09715 0.440563,0.304981 0.555643,0.461851 0.207819,0.283297 0.209232,0.344194 0.209232,9.041733 0,6.952224 -0.02732,8.833286 -0.131948,9.129122 -0.07262,0.204966 -0.305054,0.550855 -0.51644,0.768698 -0.750409,0.773228 0.06851,0.728462 -13.184663,0.720885 -9.705265,-0.0056 -11.906649,-0.0315 -12.270126,-0.1449 z m 21.34133,-2.438262 0.266321,-0.26632 -0.0018,-4.355541 -0.0017,-4.355573 -1.386915,-1.490127 -1.386916,-1.490117 h -2.960314 -2.960307 l -0.247731,0.267319 -0.247735,0.267312 v 5.549389 5.5494 l 0.295301,0.295263 0.295303,0.295295 h 4.034993 4.034995 z"
       id="path10-0" />
    <circle
       style="fill:#414141;fill-opacity:1;stroke:#dfdfdf;stroke-width:1.08705;stroke-dasharray:none;stroke-opacity:1"
       id="path1-6"
       cx="48.320271"
       cy="48.287033"
       r="12.17483" />
    <path
       style="fill:#dfdfdf;fill-opacity:1;stroke-width:0.483129"
       d="m 44.355782,41.840812 c 0.13254,0.0031 0.259607,0.05205 0.358514,0.138137 l 8.543746,6.758209 c 0.354633,0.308096 0.177782,0.879711 -0.292479,0.945298 l -3.312908,0.465276 1.552672,2.675002 c 0.34698,0.597878 0.141385,1.357694 -0.459602,1.702883 l -0.332909,0.191729 c -0.60098,0.345186 -1.364732,0.140643 -1.711712,-0.45723 l -1.611976,-2.778248 -2.362703,1.90535 c -0.363741,0.294335 -0.914711,0.04246 -0.915163,-0.418344 l -0.02845,-10.582321 c -8.75e-4,-0.306736 0.258246,-0.553618 0.572821,-0.545726 z"
       id="path6" />
  </g>
</svg>
