<?xml version="1.0" encoding="UTF-8" standalone="no"?>
<svg
   width="64"
   height="64"
   version="1.1"
   id="svg73"
   sodipodi:docname="info.smplayer.SMPlayer.svg"
   inkscape:version="1.4.2 (ebf0e940d0, 2025-05-08)"
   xmlns:inkscape="http://www.inkscape.org/namespaces/inkscape"
   xmlns:sodipodi="http://sodipodi.sourceforge.net/DTD/sodipodi-0.dtd"
   xmlns="http://www.w3.org/2000/svg"
   xmlns:svg="http://www.w3.org/2000/svg"
   xmlns:rdf="http://www.w3.org/1999/02/22-rdf-syntax-ns#"
   xmlns:cc="http://creativecommons.org/ns#"
   xmlns:dc="http://purl.org/dc/elements/1.1/">
  <metadata
     id="metadata77">
    <rdf:RDF>
      <cc:Work
         rdf:about="">
        <dc:format>image/svg+xml</dc:format>
        <dc:type
           rdf:resource="http://purl.org/dc/dcmitype/StillImage" />
      </cc:Work>
    </rdf:RDF>
  </metadata>
  <sodipodi:namedview
     pagecolor="#f5f7fa"
     bordercolor="#666666"
     borderopacity="1"
     objecttolerance="10"
     gridtolerance="10"
     guidetolerance="10"
     inkscape:pageopacity="0"
     inkscape:pageshadow="2"
     inkscape:window-width="1377"
     inkscape:window-height="726"
     id="namedview75"
     showgrid="false"
     inkscape:zoom="6.2890624"
     inkscape:cx="47.622361"
     inkscape:cy="45.396274"
     inkscape:window-x="22"
     inkscape:window-y="80"
     inkscape:window-maximized="0"
     inkscape:current-layer="g877"
     inkscape:document-rotation="0"
     inkscape:pagecheckerboard="0"
     inkscape:showpageshadow="2"
     inkscape:deskcolor="#d1d1d1" />
  <defs
     id="defs29" />
  <circle
     cx="32.516094"
     cy="31.877844"
     r="0"
     fill="url(#b)"
     stroke-width="1.5715"
     id="circle41"
     style="fill:url(#b)" />
  <g
     aria-label="GZ"
     transform="matrix(1.2212657,0,0,0.81882264,0.4960938,-0.1661539)"
     id="text93"
     style="font-weight:bold;font-size:11.5263px;line-height:1.25;font-family:sans-serif;-inkscape-font-specification:'sans-serif Bold';fill:#f2f2f2;stroke-width:0.288159" />
  <g
     id="g877"
     transform="matrix(1.1,0,0,1.1,-3.1845928,-3.2065454)">
    <circle
       style="opacity:1;fill:#414141;stroke:#dfdfdf;stroke-width:2.27272727;stroke-dasharray:none;fill-opacity:1;stroke-opacity:1"
       id="path1"
       cx="31.985994"
       cy="32.005951"
       r="25.454546" />
    <path
       id="path4"
       style="fill:#dfdfdf;fill-opacity:1;stroke:none;stroke-width:0.92178;stroke-dasharray:none;stroke-dashoffset:2.2;stroke-opacity:0.3"
       d="m 29.217976,17.841244 -0.323396,0.124379 c -0.788941,0.304069 -1.356481,0.87691 -1.64184,1.658106 l -0.104288,0.286078 -0.01046,4.109391 c -0.0066,2.563018 0.0027,4.10939 0.02582,4.10939 0.07833,0 0.292344,0.218812 0.360707,0.369321 0.08775,0.193191 0.09218,0.406562 0.01337,0.595119 -0.101045,0.241841 -0.129442,0.258516 -0.259288,0.149263 -0.06292,-0.05294 -0.183621,-0.114829 -0.26886,-0.137777 -0.436558,-0.117559 -0.87482,0.238369 -0.86876,0.706108 0.0055,0.421471 0.37805,0.739228 0.80083,0.683145 l 0.187527,-0.02491 v 0.972093 0.972092 l 0.177004,0.0201 c 0.108645,0.01228 0.266404,0.07551 0.407592,0.162651 0.261054,0.161134 0.508438,0.257376 0.661137,0.257376 0.106997,0 0.414976,0.277894 0.50614,0.456386 0.104036,0.203696 0.03002,0.418366 -0.173175,0.503268 -0.277189,0.115854 -0.599491,0.05433 -1.012246,-0.192289 -0.226966,-0.135635 -0.305394,-0.162187 -0.468797,-0.159784 -0.366587,0.0054 -0.727109,0.251081 -1.487803,1.01132 -0.542462,0.542143 -0.820349,0.719274 -1.181628,0.752033 -0.386598,0.03506 -0.788386,-0.203876 -0.900335,-0.535798 -0.02536,-0.07515 -0.06396,-0.391868 -0.08611,-0.703238 -0.06064,-0.853014 -0.169676,-1.290942 -0.421943,-1.688724 -0.173924,-0.27425 -0.390074,-0.399937 -0.686014,-0.399937 -0.199052,0 -0.273208,0.02062 -0.432467,0.118633 -0.105936,0.0652 -0.246571,0.19947 -0.313826,0.299472 -0.28705,0.426827 -0.189713,0.700045 0.449687,1.258173 0.223342,0.194951 0.423039,0.392213 0.443951,0.439162 0.06588,0.147902 0.0026,0.274665 -0.196138,0.391329 -0.163067,0.09572 -0.225209,0.108919 -0.517622,0.109068 -0.541071,2.83e-4 -0.834536,-0.163282 -1.094564,-0.608511 -0.23857,-0.408475 -0.442296,-0.525645 -0.715675,-0.411419 -0.238666,0.09972 -0.393519,0.462445 -0.289907,0.679318 0.0473,0.09903 0.07769,0.109397 0.406635,0.150214 0.198626,0.02461 0.398864,0.07391 0.455429,0.11099 0.05558,0.03642 0.21111,0.218406 0.345401,0.404722 0.94646,1.313059 2.737527,3.612992 3.836707,4.926479 1.906461,2.278174 3.821698,4.229436 5.1188,5.216396 0.741202,0.563978 1.286225,0.880235 1.845639,1.069684 0.602325,0.20397 1.063579,0.154762 1.785359,-0.190368 0.924938,-0.4423 2.068582,-1.350604 3.47504,-2.758409 1.930942,-1.932793 4.390785,-4.878207 6.584597,-7.88582 0.281998,-0.386532 0.587685,-0.781698 0.679315,-0.87833 0.211843,-0.223348 0.369299,-0.458723 0.369299,-0.552066 0,-0.186879 -0.611141,-0.01551 -1.005571,0.282255 -0.289459,0.218548 -0.628942,0.350207 -0.970178,0.376015 -0.347022,0.02623 -0.475125,-0.0039 -0.530064,-0.124379 -0.03484,-0.07616 -0.02674,-0.118358 0.03828,-0.223885 0.08875,-0.143174 0.252267,-0.271746 0.873537,-0.6908 0.44099,-0.297446 0.643898,-0.492428 0.767346,-0.734809 0.217395,-0.426804 0.268777,-1.004035 0.112899,-1.279222 -0.199153,-0.351627 -0.561017,-0.431751 -0.988357,-0.218151 -0.433197,0.21653 -0.9062,0.719472 -1.014194,1.078295 -0.02938,0.09703 -0.07248,0.443772 -0.09565,0.770213 -0.04333,0.608873 -0.116189,0.995872 -0.21528,1.147184 -0.174064,0.265669 -0.60025,0.411639 -0.765428,0.262159 -0.04466,-0.04038 -0.105848,-0.120875 -0.135872,-0.178922 -0.104144,-0.201371 -0.07015,-0.311108 0.201914,-0.656354 0.300523,-0.381462 0.357771,-0.482644 0.392267,-0.698452 0.05282,-0.330398 -0.19454,-0.792691 -0.510924,-0.955829 -0.298417,-0.153859 -0.784159,-0.05269 -1.127095,0.234414 -0.336396,0.281666 -0.339064,0.440709 -0.02115,1.140486 0.131319,0.288934 0.247244,0.592175 0.258319,0.674536 0.02614,0.198294 -0.06228,0.330365 -0.295623,0.438206 -0.16008,0.07398 -0.25068,0.0842 -0.748203,0.0842 -0.710383,0 -0.932734,-0.05828 -1.157712,-0.302349 -0.180467,-0.195667 -0.262492,-0.356453 -0.49959,-0.981685 -0.177472,-0.468079 -0.269337,-0.648701 -0.330108,-0.648701 -0.01821,0 -0.167218,0.08731 -0.331052,0.194229 -0.458902,0.299605 -0.603414,0.362488 -0.884961,0.3827 -0.34427,0.02468 -0.644954,-0.097 -0.727159,-0.293735 -0.0512,-0.122513 -0.0476,-0.14833 0.04305,-0.34636 0.05387,-0.117716 0.134426,-0.264726 0.178914,-0.327221 0.07007,-0.09839 0.09354,-0.108997 0.178916,-0.07655 0.281149,0.106891 0.63001,0.0078 1.122309,-0.318611 0.190309,-0.12624 0.378851,-0.22963 0.419072,-0.22963 0.103116,0 0.160814,0.104504 0.384626,0.698453 0.196274,0.520777 0.314795,0.760611 0.466904,0.943388 l 0.08035,0.09567 9e-4,-1.001752 9e-4,-1.001753 0.243953,-0.456386 c 0.134198,-0.251007 0.335797,-0.561371 0.44681,-0.689844 0.243189,-0.281372 0.308097,-0.492828 0.248772,-0.802742 -0.0582,-0.303957 -0.200857,-0.554775 -0.391322,-0.686014 -0.319451,-0.220186 -0.547535,0.10876 -0.70515,1.01802 -0.118246,0.682131 -0.156437,0.828575 -0.21625,0.828575 -0.0936,0 -0.144421,-0.156915 -0.119655,-0.367404 0.01264,-0.109318 0.07506,-0.426952 0.138781,-0.706108 0.06372,-0.279159 0.145508,-0.674329 0.18176,-0.878327 0.0364,-0.204002 0.09036,-0.439182 0.119597,-0.522406 0.04348,-0.123628 0.05258,-0.8237 0.05258,-3.827139 0,-3.862987 -0.01,-4.128318 -0.175092,-4.604047 -0.263726,-0.760968 -0.895848,-1.387906 -1.666388,-1.652348 l -0.324347,-0.110992 h -3.240632 z m 3.76495,6.79987 c 0.128572,0.0029 0.257481,0.02515 0.364535,0.06601 0.222096,0.08482 0.501348,0.380484 0.567372,0.600859 0.148109,0.494332 -0.09718,1.049391 -0.547279,1.237122 -0.178309,0.07438 -0.629423,0.07788 -0.795089,0.0058 -0.178447,-0.07771 -0.400731,-0.28685 -0.496572,-0.467866 -0.11916,-0.225044 -0.118884,-0.680623 0,-0.90512 0.108704,-0.205262 0.351465,-0.42319 0.543456,-0.487958 0.106721,-0.03601 0.235008,-0.05173 0.363577,-0.04881 z m -4.409823,2.941156 c 0.329999,0 0.618258,0.28494 0.93191,0.920427 0.341354,0.691612 0.583376,1.604124 0.539625,2.035082 -0.0354,0.348586 -0.08404,0.368638 -0.15978,0.06507 -0.150307,-0.602441 -0.516626,-1.377378 -0.807528,-1.707861 -0.289258,-0.328612 -0.553137,-0.389066 -0.790305,-0.180833 l -0.133948,0.117681 -0.04305,-0.174134 c -0.06228,-0.24732 -0.05557,-0.667431 0.01337,-0.800828 0.09563,-0.184939 0.243042,-0.274595 0.449692,-0.274595 z m -7.359589,0.04111 c -0.143861,9.1e-5 -0.287577,0.02368 -0.391323,0.0708 -0.198644,0.09023 -0.459472,0.383168 -0.519534,0.58364 -0.151565,0.505879 0.126628,1.044337 0.618084,1.196938 0.228706,0.071 0.338285,0.07106 0.561632,0.0039 0.52063,-0.156681 0.816638,-0.729086 0.629562,-1.21894 -0.08821,-0.230946 -0.306892,-0.473842 -0.508051,-0.565458 -0.103187,-0.04699 -0.246509,-0.07088 -0.39037,-0.0708 z m 14.197731,0.898423 c 0.1018,-0.0131 0.196367,0.01128 0.279387,0.07654 0.151941,0.119522 0.197973,0.311647 0.17317,0.727157 -0.0119,0.199363 -0.03229,0.378496 -0.04496,0.39898 -0.0126,0.02042 -0.0742,-0.01393 -0.136829,-0.07654 -0.147078,-0.147063 -0.287518,-0.146439 -0.521453,0.0019 -0.227311,0.144162 -0.490263,0.49817 -0.716624,0.963485 -0.164167,0.337465 -0.175508,0.384688 -0.211451,0.840059 -0.0684,0.866818 -0.107485,1.09331 -0.222927,1.320364 -0.242083,0.476096 -1.021787,0.798034 -1.475365,0.608515 -0.173184,-0.07235 -0.198112,-0.14403 -0.114815,-0.319565 0.113813,-0.239833 -0.0322,-0.641079 -0.304261,-0.838145 -0.537424,-0.389307 -1.315405,0.271956 -0.999839,0.849624 0.08701,0.159275 0.08906,0.178335 0.03352,0.277469 -0.03281,0.05856 -0.109737,0.131157 -0.171263,0.160741 -0.138957,0.0668 -0.53458,0.08972 -0.750122,0.04402 -0.422255,-0.08956 -0.77556,-0.388107 -0.896524,-0.757779 -0.237947,-0.727153 -0.954196,-1.603628 -1.379685,-1.688725 -0.105026,-0.02101 -0.140532,-0.0568 -0.204755,-0.204752 -0.100134,-0.230688 -0.130805,-0.577333 -0.06218,-0.707063 0.06747,-0.127588 0.249556,-0.146601 0.44682,-0.04593 0.19572,0.0999 0.249091,0.165171 0.423852,0.514751 0.177092,0.354246 0.467409,0.788555 0.654442,0.979747 0.07565,0.07735 0.174037,0.211088 0.218154,0.297556 0.235011,0.460653 0.902514,0.732158 1.426567,0.579811 0.287451,-0.08355 0.338479,-0.177303 0.221979,-0.405677 -0.141583,-0.277518 -0.09875,-0.545881 0.12534,-0.78265 0.158805,-0.1678 0.327618,-0.239194 0.563545,-0.239194 0.262115,0 0.434911,0.103236 0.584596,0.350183 0.157662,0.260113 0.197865,0.493015 0.112903,0.65731 -0.08679,0.167839 -0.0821,0.181376 0.09281,0.260246 0.472413,0.213026 1.321381,-0.215876 1.495456,-0.755859 0.03849,-0.119374 0.08438,-0.456375 0.107153,-0.780737 0.05175,-0.737106 0.08645,-0.895822 0.273636,-1.27348 0.305799,-0.616927 0.674334,-0.993028 0.97975,-1.032369 z m -10.509326,0.07655 c -0.09311,-4e-4 -0.190009,0.03413 -0.268859,0.100476 -0.181781,0.152961 -0.163265,0.282326 0.09471,0.658267 0.276924,0.403539 0.408425,0.768569 0.409504,1.140487 7.35e-4,0.246222 -0.01201,0.295364 -0.102378,0.402809 -0.08139,0.09673 -0.128537,0.119409 -0.224841,0.110036 -0.186413,-0.01814 -0.255045,-0.19933 -0.30617,-0.810399 -0.04974,-0.594694 -0.09187,-0.690691 -0.367402,-0.824738 -0.224129,-0.109044 -0.639516,-0.14619 -0.853453,-0.07559 -0.329147,0.108635 -0.563892,0.443209 -0.565457,0.805613 -0.0015,0.370764 0.199783,0.676282 0.557805,0.845797 0.286363,0.135587 0.416299,0.300659 0.607558,0.773082 0.210509,0.519978 0.259574,0.581571 0.54154,0.682188 0.28396,0.101324 0.841722,0.05117 1.147185,-0.103343 0.331343,-0.167576 0.520017,-0.576685 0.493701,-1.07064 -0.01866,-0.350435 -0.113642,-0.581453 -0.361665,-0.878327 -0.263951,-0.315926 -0.40689,-0.677018 -0.470738,-1.190239 -0.03983,-0.320242 -0.09363,-0.485123 -0.172221,-0.527189 -0.04865,-0.02603 -0.102969,-0.03807 -0.158825,-0.03828 z m 16.857593,9e-4 c -0.09113,0.0013 -0.184463,0.0151 -0.278413,0.04112 -0.205086,0.05693 -0.537693,0.39185 -0.600859,0.605645 -0.149328,0.505487 0.113722,1.033491 0.601811,1.207462 0.754034,0.268783 1.501797,-0.528556 1.185462,-1.263913 -0.162165,-0.376954 -0.513245,-0.596037 -0.908006,-0.590329 z m -23.280489,2.442668 c -0.03656,9e-4 -0.07198,0.0047 -0.106198,0.01239 -0.29465,0.06725 -0.572256,0.389026 -0.574068,0.665928 -0.0019,0.278741 0.191029,0.575438 0.447776,0.687929 0.269221,0.117958 0.583445,0.04193 0.787432,-0.1904 0.21747,-0.247685 0.254421,-0.531366 0.107165,-0.81614 -0.10993,-0.212585 -0.406261,-0.366334 -0.662094,-0.359748 z m 26.939232,0.996012 c -0.228177,0.0053 -0.393216,0.09288 -0.526227,0.276511 -0.261639,0.361201 -0.143452,0.849699 0.252619,1.045764 0.586711,0.290425 1.230764,-0.31265 0.968264,-0.906074 -0.112164,-0.253625 -0.312651,-0.393036 -0.593208,-0.413333 -0.03529,-0.0025 -0.06883,-0.0036 -0.101412,-0.0028 z" />
  </g>
</svg>
