<?xml version="1.0" encoding="UTF-8" standalone="no"?>
<svg
   width="64"
   height="64"
   version="1.1"
   id="svg73"
   sodipodi:docname="info.smplayer.SMPlayer.svg"
   inkscape:version="1.4.2 (ebf0e940d0, 2025-05-08)"
   xmlns:inkscape="http://www.inkscape.org/namespaces/inkscape"
   xmlns:sodipodi="http://sodipodi.sourceforge.net/DTD/sodipodi-0.dtd"
   xmlns="http://www.w3.org/2000/svg"
   xmlns:svg="http://www.w3.org/2000/svg"
   xmlns:rdf="http://www.w3.org/1999/02/22-rdf-syntax-ns#"
   xmlns:cc="http://creativecommons.org/ns#"
   xmlns:dc="http://purl.org/dc/elements/1.1/">
  <metadata
     id="metadata77">
    <rdf:RDF>
      <cc:Work
         rdf:about="">
        <dc:format>image/svg+xml</dc:format>
        <dc:type
           rdf:resource="http://purl.org/dc/dcmitype/StillImage" />
      </cc:Work>
    </rdf:RDF>
  </metadata>
  <sodipodi:namedview
     pagecolor="#f5f7fa"
     bordercolor="#666666"
     borderopacity="1"
     objecttolerance="10"
     gridtolerance="10"
     guidetolerance="10"
     inkscape:pageopacity="0"
     inkscape:pageshadow="2"
     inkscape:window-width="1377"
     inkscape:window-height="726"
     id="namedview75"
     showgrid="false"
     inkscape:zoom="6.2890624"
     inkscape:cx="47.622361"
     inkscape:cy="45.396274"
     inkscape:window-x="22"
     inkscape:window-y="80"
     inkscape:window-maximized="0"
     inkscape:current-layer="g877"
     inkscape:document-rotation="0"
     inkscape:pagecheckerboard="0"
     inkscape:showpageshadow="2"
     inkscape:deskcolor="#d1d1d1" />
  <defs
     id="defs29" />
  <circle
     cx="32.516094"
     cy="31.877844"
     r="0"
     fill="url(#b)"
     stroke-width="1.5715"
     id="circle41"
     style="fill:url(#b)" />
  <g
     aria-label="GZ"
     transform="matrix(1.2212657,0,0,0.81882264,0.4960938,-0.1661539)"
     id="text93"
     style="font-weight:bold;font-size:11.5263px;line-height:1.25;font-family:sans-serif;-inkscape-font-specification:'sans-serif Bold';fill:#f2f2f2;stroke-width:0.288159" />
  <g
     id="g877"
     transform="matrix(1.1,0,0,1.1,-3.1845928,-3.2065454)">
    <circle
       style="opacity:1;fill:#414141;stroke:#dfdfdf;stroke-width:2.27272727;stroke-dasharray:none;fill-opacity:1;stroke-opacity:1"
       id="path1"
       cx="31.985994"
       cy="32.005951"
       r="25.454546" />
    <path
       d="m 31.985994,18.15495 c -7.649696,0 -13.851001,6.201305 -13.851001,13.851 0,7.649695 6.201305,13.851 13.851001,13.851 7.649695,0 13.851,-6.201305 13.851,-13.851 0,-7.649695 -6.201305,-13.851 -13.851,-13.851 z m 0,1.888772 c 6.693483,0 11.962228,5.268744 11.962228,11.962228 -0.0051,5.564455 -3.641683,10.095834 -9.042224,11.436487 -0.07678,-0.193882 0.01724,-0.400791 0.03773,-0.468352 0.103811,-0.342309 0.177666,-0.489521 0.202897,-0.963695 0.03997,-0.751227 0.215837,-1.942918 0.692206,-2.48547 0.41901,-0.477231 0.498993,-0.85779 0.507238,-2.407693 0.0068,-1.283047 0.02109,-1.433375 0.185988,-2.008666 0.280699,-0.979307 0.744678,-1.670158 1.084288,-2.16591 0.172592,-0.251946 0.447711,-0.701684 0.612068,-0.99926 0.164352,-0.297584 0.403659,-0.698805 0.53091,-0.891049 0.332424,-0.502216 1.388553,-1.196155 1.739431,-1.361091 0.392129,-0.18432 0.698215,-0.680439 0.841177,-1.110852 0.146953,-0.442436 0.102395,-1.140412 -0.08961,-1.396599 -0.113148,-0.150966 -0.05925,-0.177534 -0.349156,-0.177534 -0.265515,0 -0.380293,-0.03513 -0.512312,-0.158933 -0.18159,-0.170306 -0.314487,-0.147503 -0.314487,0.05412 0,0.158118 -0.586905,0.459054 -0.657321,0.388883 -0.02932,-0.02922 4.06e-4,-0.196619 0.06763,-0.371976 0.246303,-0.642676 0.326765,-1.052361 0.287435,-1.46761 -0.06485,-0.684673 -0.491244,-1.606456 -0.723661,-1.651238 -0.05589,-0.01076 -0.359544,0.196462 -0.674629,0.461587 -1.643098,1.382597 -2.89258,1.985741 -3.762019,2.511297 -0.414892,0.250776 -0.416208,0.250204 -1.115926,0.235022 -0.82845,-0.01797 -0.684612,-0.01265 -2.066447,0.825069 -0.478603,0.290149 -1.018298,0.906579 -1.198775,0.975154 -0.18139,0.06892 -0.756225,-0.02073 -1.286695,0.03381 -1.089473,0.111974 -1.129345,0.178787 -1.536979,0.414245 -0.403125,0.232851 -0.505081,0.406283 -0.419318,0.716898 0.08398,0.304137 0.278395,0.902984 0.81501,1.430414 l 0.404099,0.523491 -0.311106,0.481878 c -0.171754,0.265171 -0.430879,0.755298 -0.57487,1.088872 -0.286168,0.662951 -0.364566,0.787427 -0.93501,1.489591 -0.494175,0.608273 -1.300687,1.483268 -1.812239,2.485471 -0.437456,0.85704 -0.64767,1.079179 -1.450702,1.538624 -0.200871,0.114927 -0.448477,0.308055 -0.703371,0.427772 -1.653012,-2.125219 -2.393898,-4.740354 -2.395711,-7.432744 0,-6.693483 5.268744,-11.962227 11.962228,-11.962227 z m 1.910179,7.724714 -0.560672,0.799747 -1.006024,0.140335 0.625596,-0.799745 z"
       style="fill:#dfdfdf;fill-opacity:1;stroke-width:0.629591"
       id="path4" />
  </g>
</svg>
