<?xml version="1.0" encoding="UTF-8" standalone="no"?>
<svg
   width="64"
   height="64"
   version="1.1"
   id="svg73"
   sodipodi:docname="info.smplayer.SMPlayer.svg"
   inkscape:version="1.4.2 (ebf0e940d0, 2025-05-08)"
   xmlns:inkscape="http://www.inkscape.org/namespaces/inkscape"
   xmlns:sodipodi="http://sodipodi.sourceforge.net/DTD/sodipodi-0.dtd"
   xmlns="http://www.w3.org/2000/svg"
   xmlns:svg="http://www.w3.org/2000/svg"
   xmlns:rdf="http://www.w3.org/1999/02/22-rdf-syntax-ns#"
   xmlns:cc="http://creativecommons.org/ns#"
   xmlns:dc="http://purl.org/dc/elements/1.1/">
  <metadata
     id="metadata77">
    <rdf:RDF>
      <cc:Work
         rdf:about="">
        <dc:format>image/svg+xml</dc:format>
        <dc:type
           rdf:resource="http://purl.org/dc/dcmitype/StillImage" />
      </cc:Work>
    </rdf:RDF>
  </metadata>
  <sodipodi:namedview
     pagecolor="#f5f7fa"
     bordercolor="#666666"
     borderopacity="1"
     objecttolerance="10"
     gridtolerance="10"
     guidetolerance="10"
     inkscape:pageopacity="0"
     inkscape:pageshadow="2"
     inkscape:window-width="1377"
     inkscape:window-height="726"
     id="namedview75"
     showgrid="false"
     inkscape:zoom="6.2890624"
     inkscape:cx="47.622361"
     inkscape:cy="45.396274"
     inkscape:window-x="22"
     inkscape:window-y="80"
     inkscape:window-maximized="0"
     inkscape:current-layer="g877"
     inkscape:document-rotation="0"
     inkscape:pagecheckerboard="0"
     inkscape:showpageshadow="2"
     inkscape:deskcolor="#d1d1d1" />
  <defs
     id="defs29" />
  <circle
     cx="32.516094"
     cy="31.877844"
     r="0"
     fill="url(#b)"
     stroke-width="1.5715"
     id="circle41"
     style="fill:url(#b)" />
  <g
     aria-label="GZ"
     transform="matrix(1.2212657,0,0,0.81882264,0.4960938,-0.1661539)"
     id="text93"
     style="font-weight:bold;font-size:11.5263px;line-height:1.25;font-family:sans-serif;-inkscape-font-specification:'sans-serif Bold';fill:#f2f2f2;stroke-width:0.288159" />
  <g
     id="g877"
     transform="matrix(1.1,0,0,1.1,-3.1845928,-3.2065454)">
    <circle
       style="opacity:1;fill:#414141;stroke:#dfdfdf;stroke-width:2.27272727;stroke-dasharray:none;fill-opacity:1;stroke-opacity:1"
       id="path1"
       cx="31.985994"
       cy="32.005951"
       r="25.454546" />
    <path
       id="path2"
       style="fill:#dfdfdf;fill-opacity:1;stroke-width:0.140382;stroke-opacity:0.3"
       d="m 38.8875,19.592853 c -1.791773,-1.34e-4 -4.116963,0.005 -7.14509,0.01354 l -12.948248,0.03542 -0.459122,0.459121 -0.459123,0.45912 -0.03714,9.474448 c -0.03325,8.29991 -0.01177,9.525733 0.177237,9.891363 0.424312,0.820521 0.577607,0.843978 5.701889,0.843978 2.564639,0 4.617847,0.04678 4.560835,0.104642 -0.05701,0.05789 -0.302373,0.173887 -0.543521,0.256586 -0.752616,0.258028 -1.007284,0.765223 -1.063407,2.106554 l -0.05063,1.181562 h 5.279904 5.278216 v -1.115731 c 0,-1.444061 -0.168998,-1.794401 -1.051593,-2.196019 l -0.703876,-0.320723 4.731322,-0.0085 c 5.033406,-0.0085 5.239752,-0.03444 5.690068,-0.697123 0.229479,-0.33772 0.25103,-1.047206 0.285247,-9.698938 0.0414,-10.450775 0.07661,-10.049382 -0.950312,-10.564858 C 44.835401,19.644251 44.262773,19.593199 38.887488,19.5928 Z M 21.175854,23.08184 h 10.738727 10.738724 v 7.158583 7.160268 H 31.914581 21.175854 v -7.160268 z m 5.107734,5.335601 c -2.100116,0.0018 -2.876867,2.311696 -1.1343,3.374204 0.535738,0.326663 1.492137,0.359007 2.052545,0.06921 1.898117,-0.981559 1.241449,-3.445055 -0.918245,-3.443416 z m 11.456105,0 c -1.136908,0 -2.188369,1.014818 -2.060989,1.988402 0.109593,0.837478 0.689357,1.455222 1.569789,1.671066 1.24478,0.305166 2.597757,-0.635868 2.597757,-1.807791 0,-0.907594 -1.074765,-1.851677 -2.106557,-1.851677 z m -5.674885,0.02533 c -0.327705,0.0063 -0.673651,0.09007 -1.033022,0.253178 -0.778188,0.353182 -1.220244,1.221383 -1.009393,1.985025 0.159628,0.578124 0.775581,1.208567 1.345294,1.379054 0.62115,0.185878 0.917603,0.16333 1.541094,-0.119843 1.205896,-0.547695 1.571339,-1.776021 0.801779,-2.690592 -0.461778,-0.548783 -1.020134,-0.819087 -1.645752,-0.806834 z" />
  </g>
</svg>
