<?xml version="1.0" encoding="UTF-8" standalone="no"?>
<svg
   width="64"
   height="64"
   version="1.1"
   id="svg73"
   sodipodi:docname="accessories-text-editor.svg"
   inkscape:version="1.4.2 (ebf0e940d0, 2025-05-08)"
   xmlns:inkscape="http://www.inkscape.org/namespaces/inkscape"
   xmlns:sodipodi="http://sodipodi.sourceforge.net/DTD/sodipodi-0.dtd"
   xmlns="http://www.w3.org/2000/svg"
   xmlns:svg="http://www.w3.org/2000/svg"
   xmlns:rdf="http://www.w3.org/1999/02/22-rdf-syntax-ns#"
   xmlns:cc="http://creativecommons.org/ns#"
   xmlns:dc="http://purl.org/dc/elements/1.1/">
  <metadata
     id="metadata77">
    <rdf:RDF>
      <cc:Work
         rdf:about="">
        <dc:format>image/svg+xml</dc:format>
        <dc:type
           rdf:resource="http://purl.org/dc/dcmitype/StillImage" />
      </cc:Work>
    </rdf:RDF>
  </metadata>
  <sodipodi:namedview
     pagecolor="#f5f7fa"
     bordercolor="#666666"
     borderopacity="1"
     objecttolerance="10"
     gridtolerance="10"
     guidetolerance="10"
     inkscape:pageopacity="0"
     inkscape:pageshadow="2"
     inkscape:window-width="1377"
     inkscape:window-height="886"
     id="namedview75"
     showgrid="false"
     inkscape:zoom="6.2890624"
     inkscape:cx="47.622361"
     inkscape:cy="45.396274"
     inkscape:window-x="324"
     inkscape:window-y="75"
     inkscape:window-maximized="0"
     inkscape:current-layer="g877"
     inkscape:document-rotation="0"
     inkscape:pagecheckerboard="0"
     inkscape:showpageshadow="2"
     inkscape:deskcolor="#d1d1d1" />
  <defs
     id="defs29" />
  <circle
     cx="32.516094"
     cy="31.877844"
     r="0"
     fill="url(#b)"
     stroke-width="1.5715"
     id="circle41"
     style="fill:url(#b)" />
  <g
     aria-label="GZ"
     transform="matrix(1.2212657,0,0,0.81882264,0.4960938,-0.1661539)"
     id="text93"
     style="font-weight:bold;font-size:11.5263px;line-height:1.25;font-family:sans-serif;-inkscape-font-specification:'sans-serif Bold';fill:#f2f2f2;stroke-width:0.288159" />
  <g
     id="g877"
     transform="matrix(1.1,0,0,1.1,-3.1845928,-3.2065454)">
    <circle
       style="opacity:1;fill:#414141;stroke:#dfdfdf;stroke-width:2.27272727;stroke-dasharray:none;fill-opacity:1;stroke-opacity:1"
       id="path1"
       cx="31.985994"
       cy="32.005951"
       r="25.454546" />
    <path
       style="fill:#dfdfdf;fill-opacity:1;fill-rule:evenodd;stroke:none;stroke-width:0.397844;stroke-dasharray:none;stroke-opacity:0.6"
       d="m 31.985996,23.695343 v 0.0027 c -2.737816,0.02527 -5.4932,0.613142 -7.878022,1.885449 -0.950506,0.582828 -2.091601,1.335327 -2.951498,2.093752 -1.352983,1.247071 -2.51112,2.700905 -3.293538,4.330875 2.14484,4.454093 6.858855,7.719533 12.045976,8.201883 3.402526,0.362592 6.964111,-0.192289 9.955101,-1.777255 0.950472,-0.582824 2.091589,-1.335325 2.951486,-2.093757 1.35299,-1.24978 2.51113,-2.703617 3.293548,-4.330928 -2.14388,-4.453835 -6.859988,-7.717901 -12.045977,-8.199178 -0.689202,-0.07712 -1.385055,-0.113614 -2.077076,-0.113614 z m 0.0055,2.770028 c 3.021977,-0.06566 5.697868,2.586681 5.641004,5.534649 0.09706,3.25817 -3.212287,6.07004 -6.484821,5.461605 -3.305025,-0.380589 -5.627377,-4.017952 -4.540341,-7.098198 0.695005,-2.266147 2.965189,-3.921908 5.387175,-3.895348 z m -0.0055,2.770026 a 2.8246096,2.7684327 0 0 0 -2.824612,2.772736 2.8246096,2.7684327 0 0 0 2.824612,2.767322 2.8246096,2.7684327 0 0 0 2.824611,-2.767322 2.8246096,2.7684327 0 0 0 -2.824611,-2.76462 z"
       id="path24" />
  </g>
</svg>
