<?xml version="1.0" encoding="UTF-8" standalone="no"?>
<svg
   width="64"
   height="64"
   version="1.1"
   id="svg73"
   sodipodi:docname="accessories-text-editor.svg"
   inkscape:version="1.4.2 (ebf0e940d0, 2025-05-08)"
   xmlns:inkscape="http://www.inkscape.org/namespaces/inkscape"
   xmlns:sodipodi="http://sodipodi.sourceforge.net/DTD/sodipodi-0.dtd"
   xmlns="http://www.w3.org/2000/svg"
   xmlns:svg="http://www.w3.org/2000/svg"
   xmlns:rdf="http://www.w3.org/1999/02/22-rdf-syntax-ns#"
   xmlns:cc="http://creativecommons.org/ns#"
   xmlns:dc="http://purl.org/dc/elements/1.1/">
  <metadata
     id="metadata77">
    <rdf:RDF>
      <cc:Work
         rdf:about="">
        <dc:format>image/svg+xml</dc:format>
        <dc:type
           rdf:resource="http://purl.org/dc/dcmitype/StillImage" />
      </cc:Work>
    </rdf:RDF>
  </metadata>
  <sodipodi:namedview
     pagecolor="#f5f7fa"
     bordercolor="#666666"
     borderopacity="1"
     objecttolerance="10"
     gridtolerance="10"
     guidetolerance="10"
     inkscape:pageopacity="0"
     inkscape:pageshadow="2"
     inkscape:window-width="1377"
     inkscape:window-height="886"
     id="namedview75"
     showgrid="false"
     inkscape:zoom="6.2890624"
     inkscape:cx="47.622361"
     inkscape:cy="45.396274"
     inkscape:window-x="324"
     inkscape:window-y="75"
     inkscape:window-maximized="0"
     inkscape:current-layer="g877"
     inkscape:document-rotation="0"
     inkscape:pagecheckerboard="0"
     inkscape:showpageshadow="2"
     inkscape:deskcolor="#d1d1d1" />
  <defs
     id="defs29" />
  <circle
     cx="32.516094"
     cy="31.877844"
     r="0"
     fill="url(#b)"
     stroke-width="1.5715"
     id="circle41"
     style="fill:url(#b)" />
  <g
     aria-label="GZ"
     transform="matrix(1.2212657,0,0,0.81882264,0.4960938,-0.1661539)"
     id="text93"
     style="font-weight:bold;font-size:11.5263px;line-height:1.25;font-family:sans-serif;-inkscape-font-specification:'sans-serif Bold';fill:#f2f2f2;stroke-width:0.288159" />
  <g
     id="g877"
     transform="matrix(1.1,0,0,1.1,-3.1845928,-3.2065454)">
    <circle
       style="opacity:1;fill:#414141;stroke:#dfdfdf;stroke-width:2.27272727;stroke-dasharray:none;fill-opacity:1;stroke-opacity:1"
       id="path1"
       cx="31.985994"
       cy="32.005951"
       r="25.454546" />
    <path
       d="m 24.82598,39.448527 h -6.898032 l 5.59448,-13.744461 c 0.403292,-0.629548 0.828811,-0.441397 1.335308,0.58906 0.717668,1.461535 2.64521,6.399475 2.573762,6.593976 -0.213552,0.58112 -2.601547,6.551901 -2.605518,6.561425 z m 21.218058,0 H 39.12378 c 0,0 -1.37262,-3.368437 -1.37262,-3.576433 0,-0.188149 1.916427,-0.964566 4.095628,-1.659211 0.915346,-0.291354 1.113816,-0.316759 1.518697,-0.192915 0.25644,0.0786 0.521581,0.212757 0.588268,0.298501 0.17623,0.224666 2.087905,5.122121 2.090285,5.130058 z m -8.728724,-4.162316 c -2.861939,1.030457 -5.240406,1.906108 -5.487303,1.945008 -0.453306,0.07305 -0.753393,-0.08653 -0.753393,-0.399323 0,-0.269132 2.861941,-6.98139 3.065174,-7.191768 0.107969,-0.111143 0.858185,-0.490618 1.871178,-0.843102 2.092669,-0.727988 2.730158,-0.796262 3.343035,-0.359628 0.517607,0.369949 4.262345,4.602128 4.262345,4.812507 0,0.109556 -0.178651,0.162745 -0.548572,0.162745 -0.393762,0 -2.011692,0.527137 -5.752464,1.873561 z m -6.724169,1.217812 c 0.398528,-0.631929 3.04612,-6.799591 3.043738,-7.088564 -0.0016,-0.171477 -0.373917,-1.169386 -0.827223,-2.216515 -0.828812,-1.915635 -1.197173,-2.441184 -1.816399,-2.595992 -0.146074,-0.03652 -1.689379,-0.05001 -3.430359,-0.03095 l -3.164411,0.03493 0.323903,0.392178 c 0.405674,0.492999 0.83675,1.440099 2.439597,5.35314 2.364177,5.774689 2.684905,6.432815 3.129478,6.432815 0.06907,0 0.204818,-0.127023 0.301675,-0.281029 z"
       fill="#ffffff"
       id="path3-7"
       style="fill:#dfdfdf;fill-opacity:1;stroke:none;stroke-width:0.405;stroke-dasharray:none;stroke-opacity:0.6" />
  </g>
</svg>
