<?xml version="1.0" encoding="UTF-8" standalone="no"?>
<svg
   width="64"
   height="64"
   version="1.1"
   id="svg73"
   sodipodi:docname="smile.svg"
   inkscape:version="1.4.2 (ebf0e940d0, 2025-05-08)"
   xmlns:inkscape="http://www.inkscape.org/namespaces/inkscape"
   xmlns:sodipodi="http://sodipodi.sourceforge.net/DTD/sodipodi-0.dtd"
   xmlns="http://www.w3.org/2000/svg"
   xmlns:svg="http://www.w3.org/2000/svg"
   xmlns:rdf="http://www.w3.org/1999/02/22-rdf-syntax-ns#"
   xmlns:cc="http://creativecommons.org/ns#"
   xmlns:dc="http://purl.org/dc/elements/1.1/">
  <metadata
     id="metadata77">
    <rdf:RDF>
      <cc:Work
         rdf:about="">
        <dc:format>image/svg+xml</dc:format>
        <dc:type
           rdf:resource="http://purl.org/dc/dcmitype/StillImage" />
      </cc:Work>
    </rdf:RDF>
  </metadata>
  <sodipodi:namedview
     pagecolor="#f5f7fa"
     bordercolor="#666666"
     borderopacity="1"
     objecttolerance="10"
     gridtolerance="10"
     guidetolerance="10"
     inkscape:pageopacity="0"
     inkscape:pageshadow="2"
     inkscape:window-width="1377"
     inkscape:window-height="678"
     id="namedview75"
     showgrid="false"
     inkscape:zoom="4.4470387"
     inkscape:cx="47.559739"
     inkscape:cy="37.440646"
     inkscape:window-x="18"
     inkscape:window-y="126"
     inkscape:window-maximized="0"
     inkscape:current-layer="g877"
     inkscape:document-rotation="0"
     inkscape:pagecheckerboard="0"
     inkscape:showpageshadow="2"
     inkscape:deskcolor="#d1d1d1" />
  <defs
     id="defs29">
    <inkscape:path-effect
       effect="fillet_chamfer"
       id="path-effect14"
       is_visible="true"
       lpeversion="1"
       nodesatellites_param="F,0,0,1,0,0,0,1 @ F,0,0,1,0,0,0,1 @ F,0,0,1,0,0,0,1 @ F,0,0,1,0,0,0,1 @ F,0,0,1,0,0,0,1 @ F,0,0,1,0,0,0,1 @ F,0,0,1,0,0,0,1 @ F,0,0,1,0,0,0,1 @ F,0,0,1,0,0,0,1 @ F,0,0,1,0,0,0,1 @ F,0,0,1,0,0,0,1 @ F,0,0,1,0,0,0,1 @ F,0,0,1,0,0,0,1 @ F,0,0,1,0,0,0,1 @ F,0,0,1,0,0,0,1 @ F,0,0,1,0,0,0,1 @ F,0,0,1,0,0,0,1 | F,0,0,1,0,0,0,1 @ F,0,0,1,0,0,0,1 @ F,0,0,1,0,0,0,1 @ F,0,0,1,0,0,0,1"
       radius="0"
       unit="px"
       method="auto"
       mode="F"
       chamfer_steps="1"
       flexible="false"
       use_knot_distance="true"
       apply_no_radius="true"
       apply_with_radius="true"
       only_selected="false"
       hide_knots="false" />
  </defs>
  <circle
     cx="32.516094"
     cy="31.877844"
     r="0"
     fill="url(#b)"
     stroke-width="1.5715"
     id="circle41"
     style="fill:url(#b)" />
  <g
     aria-label="GZ"
     transform="matrix(1.2212657,0,0,0.81882264,0.4960938,-0.1661539)"
     id="text93"
     style="font-weight:bold;font-size:11.5263px;line-height:1.25;font-family:sans-serif;-inkscape-font-specification:'sans-serif Bold';fill:#f2f2f2;stroke-width:0.288159" />
  <g
     id="g877"
     transform="matrix(1.1,0,0,1.1,-3.1845928,-3.2065454)">
    <circle
       style="opacity:1;fill:#414141;stroke:#dfdfdf;stroke-width:2.27272727;stroke-dasharray:none;fill-opacity:1;stroke-opacity:1"
       id="path1"
       cx="31.985994"
       cy="32.005951"
       r="25.454546" />
    <path
       style="fill:#dfdfdf;fill-opacity:1;stroke:none;stroke-width:0.437627;stroke-dasharray:none;stroke-opacity:0.6"
       d="M 31.969545,17.969315 A 14.037321,14.037321 0 0 0 17.948673,32.005263 14.037321,14.037321 0 0 0 31.985997,46.042586 14.037321,14.037321 0 0 0 46.023314,32.005263 14.037321,14.037321 0 0 0 38.937485,19.830905 a 3.5096813,3.5096813 0 0 1 0.03976,0.505837 v 2.669008 a 9.8261244,9.8261244 0 0 1 2.83487,6.893916 9.8261244,9.8261244 0 0 1 -9.826125,9.826124 9.8261244,9.8261244 0 0 1 -9.826127,-9.826124 9.8261244,9.8261244 0 0 1 7.943972,-9.635581 c 0.448712,-0.557656 0.952503,-1.183501 1.176174,-1.468158 0.20582,-0.261941 0.404217,-0.504484 0.597684,-0.726541 0.02825,-0.03245 0.06354,-0.06818 0.09184,-0.100072 z m 2.998009,2.105597 c -0.06729,-0.005 -0.126992,6.94e-4 -0.167243,0.0192 -0.07133,0.03278 -0.412132,0.426739 -0.760812,0.870494 -0.348675,0.443738 -1.109671,1.391194 -1.691603,2.109698 -0.581938,0.7185 -1.687574,2.094914 -2.453791,3.055583 -1.505289,1.8873 -1.745221,2.267501 -1.993188,3.16388 -0.154865,0.559845 -0.168501,1.463868 -0.03017,1.989079 0.379266,1.439805 1.646795,2.519222 3.281771,2.796496 0.07433,0.01265 0.331113,0.02813 0.568896,0.03155 0.990693,0.01482 1.834185,-0.333654 2.548375,-1.054171 0.376409,-0.379745 0.480089,-0.529271 0.71146,-1.014417 0.149089,-0.31259 0.311059,-0.72903 0.361901,-0.923939 0.13043,-0.499938 0.192583,-1.53222 0.124746,-3.895907 v -6.885704 c -0.02665,-0.139545 -0.298447,-0.247553 -0.500357,-0.26183 z"
       id="path3-3" />
  </g>
</svg>
