<?xml version="1.0" encoding="UTF-8" standalone="no"?>
<svg
   width="64"
   height="64"
   version="1.1"
   id="svg73"
   sodipodi:docname="accessories-text-editor.svg"
   inkscape:version="1.4.2 (ebf0e940d0, 2025-05-08)"
   xmlns:inkscape="http://www.inkscape.org/namespaces/inkscape"
   xmlns:sodipodi="http://sodipodi.sourceforge.net/DTD/sodipodi-0.dtd"
   xmlns="http://www.w3.org/2000/svg"
   xmlns:svg="http://www.w3.org/2000/svg"
   xmlns:rdf="http://www.w3.org/1999/02/22-rdf-syntax-ns#"
   xmlns:cc="http://creativecommons.org/ns#"
   xmlns:dc="http://purl.org/dc/elements/1.1/">
  <metadata
     id="metadata77">
    <rdf:RDF>
      <cc:Work
         rdf:about="">
        <dc:format>image/svg+xml</dc:format>
        <dc:type
           rdf:resource="http://purl.org/dc/dcmitype/StillImage" />
      </cc:Work>
    </rdf:RDF>
  </metadata>
  <sodipodi:namedview
     pagecolor="#f5f7fa"
     bordercolor="#666666"
     borderopacity="1"
     objecttolerance="10"
     gridtolerance="10"
     guidetolerance="10"
     inkscape:pageopacity="0"
     inkscape:pageshadow="2"
     inkscape:window-width="1377"
     inkscape:window-height="886"
     id="namedview75"
     showgrid="false"
     inkscape:zoom="6.2890624"
     inkscape:cx="47.622361"
     inkscape:cy="45.396274"
     inkscape:window-x="324"
     inkscape:window-y="75"
     inkscape:window-maximized="0"
     inkscape:current-layer="g877"
     inkscape:document-rotation="0"
     inkscape:pagecheckerboard="0"
     inkscape:showpageshadow="2"
     inkscape:deskcolor="#d1d1d1" />
  <defs
     id="defs29" />
  <circle
     cx="32.516094"
     cy="31.877844"
     r="0"
     fill="url(#b)"
     stroke-width="1.5715"
     id="circle41"
     style="fill:url(#b)" />
  <g
     aria-label="GZ"
     transform="matrix(1.2212657,0,0,0.81882264,0.4960938,-0.1661539)"
     id="text93"
     style="font-weight:bold;font-size:11.5263px;line-height:1.25;font-family:sans-serif;-inkscape-font-specification:'sans-serif Bold';fill:#f2f2f2;stroke-width:0.288159" />
  <g
     id="g877"
     transform="matrix(1.1,0,0,1.1,-3.1845928,-3.2065454)">
    <circle
       style="opacity:1;fill:#414141;stroke:#dfdfdf;stroke-width:2.27272727;stroke-dasharray:none;fill-opacity:1;stroke-opacity:1"
       id="path1"
       cx="31.985994"
       cy="32.005951"
       r="25.454546" />
    <path
       style="fill:#dfdfdf;fill-opacity:1;stroke:none;stroke-width:0.425595;stroke-dasharray:none;stroke-dashoffset:2.2;stroke-opacity:0.6"
       d="m 24.68806,43.974943 -1.280693,-1.619986 -1.228098,-3.95e-4 c -1.457746,-4.64e-4 -1.819917,-0.145385 -2.01156,-0.804738 -0.08184,-0.281536 -0.106289,-3.600095 -0.0841,-11.407147 l 0.03131,-11.010147 0.390465,-0.357812 0.390461,-0.357813 h 11.034961 c 12.116625,0 11.466472,-0.03437 11.806802,0.623778 0.138844,0.26846 0.158521,1.693227 0.158521,11.442939 v 11.136305 l -0.305039,0.341389 -0.305043,0.341362 -7.322103,0.02836 -7.322121,0.02836 -1.276999,1.618182 c -0.702339,0.889808 -1.303807,1.617867 -1.336588,1.617723 -0.03266,-1.51e-4 -0.635913,-0.729269 -1.340297,-1.62026 z m 0.921702,-5.491384 c 0.182305,-0.09755 0.202192,-0.229163 0.202192,-1.338025 0,-0.817143 -0.04209,-1.271906 -0.125442,-1.35525 -0.172988,-0.172988 -2.503057,-0.172988 -2.676041,0 -0.08266,0.0827 -0.125445,0.525653 -0.125445,1.299193 0,1.521104 -0.01787,1.502289 1.425534,1.502289 0.603353,0 1.187989,-0.04873 1.299199,-0.108215 z m 14.805605,-0.09656 c 0.774742,-0.472399 0.923427,-1.599666 0.300641,-2.279365 l -0.357788,-0.390478 -5.3391,-0.0289 c -4.692132,-0.02538 -5.37769,-0.009 -5.657498,0.13574 -0.978902,0.506213 -0.968314,2.10361 0.01723,2.589081 0.314844,0.15515 0.914714,0.174193 5.527548,0.175976 4.949933,0.0021 5.188898,-0.0068 5.509039,-0.20209 z M 25.579629,31.73893 c 0.216394,-0.151558 0.232324,-0.242451 0.232324,-1.324564 0,-1.547906 0.0036,-1.544165 -1.4453,-1.544165 -1.488064,0 -1.481629,-0.0065 -1.481629,1.526003 0,1.488293 0.01687,1.505453 1.463462,1.505453 0.73482,0 1.060221,-0.04303 1.231143,-0.162727 z M 40.285187,31.6948 c 0.531877,-0.257476 0.806016,-0.704773 0.806016,-1.315184 0,-0.583443 -0.27087,-1.059799 -0.747534,-1.314669 -0.340893,-0.182272 -0.687921,-0.194757 -5.412937,-0.194757 -5.445743,0 -5.458244,0.0014 -5.971668,0.558045 -0.320381,0.347515 -0.416865,1.155734 -0.190253,1.593951 0.205905,0.398177 0.503356,0.661055 0.873505,0.771977 0.164282,0.04924 2.530001,0.09356 5.257147,0.0985 4.737098,0.0086 4.977513,-2.5e-4 5.385724,-0.197857 z M 25.686514,24.98158 c 0.172987,-0.172989 0.172987,-2.503055 0,-2.676044 -0.17299,-0.17299 -2.503055,-0.17299 -2.676043,0 -0.172989,0.172992 -0.172989,2.503055 0,2.676044 0.172988,0.17299 2.503055,0.17299 2.676043,0 z m 14.652475,-0.02981 c 1.019287,-0.527095 1.019287,-2.089383 0,-2.61648 -0.459056,-0.237391 -10.522588,-0.23129 -10.982725,0.0067 -0.932679,0.482306 -0.970506,2.007189 -0.06349,2.560213 0.320076,0.195157 0.561651,0.204065 5.540368,0.204441 4.399869,3.31e-4 5.252166,-0.02358 5.505867,-0.154831 z"
       id="path79" />
  </g>
</svg>
