<?xml version="1.0" encoding="UTF-8" standalone="no"?>
<svg
   width="64"
   height="64"
   version="1.1"
   id="svg73"
   sodipodi:docname="com.github.wwmm.easyeffects.svg"
   inkscape:version="1.4.2 (ebf0e940d0, 2025-05-08)"
   xmlns:inkscape="http://www.inkscape.org/namespaces/inkscape"
   xmlns:sodipodi="http://sodipodi.sourceforge.net/DTD/sodipodi-0.dtd"
   xmlns="http://www.w3.org/2000/svg"
   xmlns:svg="http://www.w3.org/2000/svg"
   xmlns:rdf="http://www.w3.org/1999/02/22-rdf-syntax-ns#"
   xmlns:cc="http://creativecommons.org/ns#"
   xmlns:dc="http://purl.org/dc/elements/1.1/">
  <metadata
     id="metadata77">
    <rdf:RDF>
      <cc:Work
         rdf:about="">
        <dc:format>image/svg+xml</dc:format>
        <dc:type
           rdf:resource="http://purl.org/dc/dcmitype/StillImage" />
      </cc:Work>
    </rdf:RDF>
  </metadata>
  <sodipodi:namedview
     pagecolor="#f5f7fa"
     bordercolor="#666666"
     borderopacity="1"
     objecttolerance="10"
     gridtolerance="10"
     guidetolerance="10"
     inkscape:pageopacity="0"
     inkscape:pageshadow="2"
     inkscape:window-width="1377"
     inkscape:window-height="678"
     id="namedview75"
     showgrid="false"
     inkscape:zoom="4.4470387"
     inkscape:cx="47.559739"
     inkscape:cy="37.440646"
     inkscape:window-x="18"
     inkscape:window-y="126"
     inkscape:window-maximized="0"
     inkscape:current-layer="g877"
     inkscape:document-rotation="0"
     inkscape:pagecheckerboard="0"
     inkscape:showpageshadow="2"
     inkscape:deskcolor="#d1d1d1" />
  <defs
     id="defs29">
    <inkscape:path-effect
       effect="fillet_chamfer"
       id="path-effect14"
       is_visible="true"
       lpeversion="1"
       nodesatellites_param="F,0,0,1,0,0,0,1 @ F,0,0,1,0,0,0,1 @ F,0,0,1,0,0,0,1 @ F,0,0,1,0,0,0,1 @ F,0,0,1,0,0,0,1 @ F,0,0,1,0,0,0,1 @ F,0,0,1,0,0,0,1 @ F,0,0,1,0,0,0,1 @ F,0,0,1,0,0,0,1 @ F,0,0,1,0,0,0,1 @ F,0,0,1,0,0,0,1 @ F,0,0,1,0,0,0,1 @ F,0,0,1,0,0,0,1 @ F,0,0,1,0,0,0,1 @ F,0,0,1,0,0,0,1 @ F,0,0,1,0,0,0,1 @ F,0,0,1,0,0,0,1 | F,0,0,1,0,0,0,1 @ F,0,0,1,0,0,0,1 @ F,0,0,1,0,0,0,1 @ F,0,0,1,0,0,0,1"
       radius="0"
       unit="px"
       method="auto"
       mode="F"
       chamfer_steps="1"
       flexible="false"
       use_knot_distance="true"
       apply_no_radius="true"
       apply_with_radius="true"
       only_selected="false"
       hide_knots="false" />
  </defs>
  <circle
     cx="32.516094"
     cy="31.877844"
     r="0"
     fill="url(#b)"
     stroke-width="1.5715"
     id="circle41"
     style="fill:url(#b)" />
  <g
     aria-label="GZ"
     transform="matrix(1.2212657,0,0,0.81882264,0.4960938,-0.1661539)"
     id="text93"
     style="font-weight:bold;font-size:11.5263px;line-height:1.25;font-family:sans-serif;-inkscape-font-specification:'sans-serif Bold';fill:#f2f2f2;stroke-width:0.288159" />
  <g
     id="g877"
     transform="matrix(1.1,0,0,1.1,-3.1845928,-3.2065454)">
    <circle
       style="opacity:1;fill:#414141;stroke:#dfdfdf;stroke-width:2.27272727;stroke-dasharray:none;fill-opacity:1;stroke-opacity:1"
       id="path1"
       cx="31.985994"
       cy="32.005951"
       r="25.454546" />
    <path
       d="m 34.909123,20.383679 -10.228344,2.766728 c -0.768068,0.216224 -1.387598,1.0736 -1.387598,1.906534 v 13.203772 c -0.779344,-0.427742 -1.778677,-0.599789 -2.816553,-0.317751 -1.871749,0.509536 -3.045001,2.155656 -2.643576,3.675804 0.400485,1.52016 2.24591,2.370956 4.117661,1.861414 1.492887,-0.40612 2.52136,-1.557756 2.684938,-2.769549 l 0.04514,-12.477074 9.169787,-2.574007 v 9.464977 c -0.679696,-0.241605 -1.466562,-0.307413 -2.280696,-0.08556 -1.871749,0.508596 -3.04312,2.15472 -2.641695,3.675809 0.401427,1.520149 2.24403,2.370009 4.115781,1.860474 1.329309,-0.361008 2.286335,-1.312391 2.597511,-2.371892 0.334673,-0.618591 0.486977,-1.31521 0.486977,-1.593476 0,-0.08745 0.01105,-0.295199 0.01211,-0.387325 v -0.345962 c 0.04605,-0.341259 0.213353,-0.616705 0.66088,-0.616705 0.454071,0 0.629872,0.277324 0.696613,0.616705 h 0.01604 v 1.541772 c 0,0.511421 0.307389,0.924128 0.687224,0.924128 0.378864,0 0.687216,-0.412707 0.687216,-0.924128 v -3.391893 c 0,-0.271688 0.253854,-1.23248 0.457834,-1.23248 0.203018,0 0.457829,0.960787 0.457829,1.23248 v 0.309296 c 0,0.511415 0.309328,0.92412 0.689102,0.92412 0.378861,0 0.686273,-0.412705 0.686273,-0.92412 v -2.775191 c 0,-0.272631 0.254803,-0.61671 0.458773,-0.61671 0.203017,0 0.45783,0.344079 0.45783,0.61671 v 0.309296 c 0,0.510477 0.307389,0.924123 0.686272,0.924123 0.379803,0 0.687218,-0.413646 0.687218,-0.924123 v -0.925996 h 2.060716 c 0.3798,0 0.687215,-0.412709 0.687215,-0.923184 0,-0.511417 -0.307421,-0.926004 -0.687215,-0.926004 h -2.060765 v -0.924123 c 0,-0.510477 -0.307419,-0.925065 -0.687216,-0.925065 -0.378862,0 -0.68628,0.414588 -0.68628,0.925065 v 0.307411 c 0,0.272634 -0.254803,0.61671 -0.457825,0.61671 -0.204015,0 -0.458772,-0.344079 -0.458772,-0.61671 v -2.773302 c 0,-0.510478 -0.307388,-0.926007 -0.686281,-0.926007 -0.379798,0 -0.689092,0.415529 -0.689092,0.926007 v 0.307414 c 0,0.27263 -0.254802,1.233416 -0.457837,1.233416 -0.203936,0 -0.457833,-0.960788 -0.457833,-1.233416 v -3.390022 c 0,-0.510475 -0.308342,-0.926003 -0.687212,-0.926003 -0.379806,0 -0.687221,0.415528 -0.687221,0.926003 V 24.1629 c -0.04703,0.340318 -0.220926,0.615767 -0.712599,0.615767 -0.447491,0 -0.593205,-0.275454 -0.64021,-0.615767 l -0.136212,-0.627048 c -8.42e-4,-0.09119 -0.110922,-1.399816 -0.13912,-1.483483 -0.07331,-0.214346 -0.09307,-0.442791 -0.135372,-0.657133 -0.06205,-0.535861 -0.391088,-0.932587 -0.841401,-1.011556 z"
       fill="url(#d)"
       fill-rule="nonzero"
       id="path11"
       style="fill:#dfdfdf;fill-opacity:1;stroke:none;stroke-width:0.458467;stroke-dasharray:none;stroke-opacity:0.6" />
    <circle
       style="fill:#414141;fill-opacity:1;stroke:#dfdfdf;stroke-width:1.08705;stroke-dasharray:none;stroke-opacity:1"
       id="path1-6"
       cx="48.320271"
       cy="48.287033"
       r="12.17483" />
    <path
       style="color:#000000;clip-rule:nonzero;display:inline;overflow:visible;visibility:visible;isolation:auto;mix-blend-mode:normal;color-interpolation:sRGB;color-interpolation-filters:linearRGB;solid-color:#000000;solid-opacity:1;fill:#dfdfdf;fill-opacity:1;fill-rule:nonzero;stroke:none;stroke-width:0.40909;stroke-linecap:butt;stroke-linejoin:miter;stroke-miterlimit:4;stroke-dasharray:none;stroke-dashoffset:0;stroke-opacity:0.6;marker:none;color-rendering:auto;image-rendering:auto;shape-rendering:auto;text-rendering:auto;enable-background:accumulate"
       d="m 47.246199,41.592494 c -0.17135,0 -0.314167,0.681803 -0.397993,1.656195 a 5.2371346,5.3948437 0 0 0 -1.265581,0.547914 c -0.731077,-0.631171 -1.302154,-1.012168 -1.423657,-0.887008 l -1.347409,1.387987 c -0.121501,0.125149 0.24835,0.713435 0.861075,1.466528 a 5.2371346,5.3948437 0 0 0 -0.527245,1.303692 c -0.948557,0.08627 -1.612427,0.233166 -1.612427,0.409978 v 1.961757 c 0,0.176515 0.66187,0.323632 1.607776,0.409982 a 5.2371346,5.3948437 0 0 0 0.530038,1.306561 c -0.611324,0.751744 -0.980573,1.338645 -0.859217,1.463659 l 1.347408,1.387981 c 0.121253,0.124871 0.690271,-0.254566 1.419011,-0.883178 a 5.2371346,5.3948437 0 0 0 1.270228,0.539297 c 0.08375,0.977124 0.226333,1.660984 0.397993,1.660984 h 1.904411 c 0.171351,0 0.31417,-0.681803 0.397996,-1.656195 a 5.2371346,5.3948437 0 0 0 1.265578,-0.547911 c 0.731081,0.631169 1.302154,1.012165 1.423661,0.887003 l 1.347408,-1.387981 C 53.706754,52.49462 53.336903,51.9063 52.724178,51.153204 a 5.2371346,5.3948437 0 0 0 0.527245,-1.303685 c 0.948554,-0.08627 1.612427,-0.233168 1.612427,-0.409982 V 47.47778 c 0,-0.176515 -0.661872,-0.32363 -1.607776,-0.409978 A 5.2371346,5.3948437 0 0 0 52.72603,45.761237 c 0.611331,-0.751744 0.980579,-1.338645 0.859223,-1.463655 l -1.347408,-1.387987 c -0.121253,-0.124902 -0.690271,0.254566 -1.419013,0.883177 a 5.2371346,5.3948437 0 0 0 -1.270226,-0.539294 c -0.08375,-0.977121 -0.226333,-1.66098 -0.397995,-1.66098 z m 0.952205,4.413965 a 2.3805158,2.4522014 0 0 1 2.380515,2.452203 2.3805158,2.4522014 0 0 1 -2.380515,2.452197 2.3805158,2.4522014 0 0 1 -2.380515,-2.452197 2.3805158,2.4522014 0 0 1 2.380515,-2.452203 z"
       id="path4690"
       inkscape:connector-curvature="0" />
  </g>
</svg>
