<?xml version="1.0" encoding="UTF-8" standalone="no"?>
<svg
   width="64"
   height="64"
   version="1.1"
   id="svg73"
   sodipodi:docname="abcd.svg"
   inkscape:version="1.4.2 (ebf0e940d0, 2025-05-08)"
   xmlns:inkscape="http://www.inkscape.org/namespaces/inkscape"
   xmlns:sodipodi="http://sodipodi.sourceforge.net/DTD/sodipodi-0.dtd"
   xmlns="http://www.w3.org/2000/svg"
   xmlns:svg="http://www.w3.org/2000/svg"
   xmlns:rdf="http://www.w3.org/1999/02/22-rdf-syntax-ns#"
   xmlns:cc="http://creativecommons.org/ns#"
   xmlns:dc="http://purl.org/dc/elements/1.1/">
  <metadata
     id="metadata77">
    <rdf:RDF>
      <cc:Work
         rdf:about="">
        <dc:format>image/svg+xml</dc:format>
        <dc:type
           rdf:resource="http://purl.org/dc/dcmitype/StillImage" />
      </cc:Work>
    </rdf:RDF>
  </metadata>
  <sodipodi:namedview
     pagecolor="#f5f7fa"
     bordercolor="#666666"
     borderopacity="1"
     objecttolerance="10"
     gridtolerance="10"
     guidetolerance="10"
     inkscape:pageopacity="0"
     inkscape:pageshadow="2"
     inkscape:window-width="1377"
     inkscape:window-height="688"
     id="namedview75"
     showgrid="false"
     inkscape:zoom="6.2890624"
     inkscape:cx="47.622361"
     inkscape:cy="37.445963"
     inkscape:window-x="33"
     inkscape:window-y="125"
     inkscape:window-maximized="0"
     inkscape:current-layer="g877"
     inkscape:document-rotation="0"
     inkscape:pagecheckerboard="0"
     inkscape:showpageshadow="2"
     inkscape:deskcolor="#d1d1d1" />
  <defs
     id="defs29" />
  <circle
     cx="32.516094"
     cy="31.877844"
     r="0"
     fill="url(#b)"
     stroke-width="1.5715"
     id="circle41"
     style="fill:url(#b)" />
  <g
     aria-label="GZ"
     transform="matrix(1.2212657,0,0,0.81882264,0.4960938,-0.1661539)"
     id="text93"
     style="font-weight:bold;font-size:11.5263px;line-height:1.25;font-family:sans-serif;-inkscape-font-specification:'sans-serif Bold';fill:#f2f2f2;stroke-width:0.288159" />
  <g
     id="g877"
     transform="matrix(1.1,0,0,1.1,-3.1845928,-3.2065454)">
    <circle
       style="opacity:1;fill:#414141;stroke:#dfdfdf;stroke-width:2.27272727;stroke-dasharray:none;fill-opacity:1;stroke-opacity:1"
       id="path1"
       cx="31.985994"
       cy="32.005951"
       r="25.454546" />
    <path
       style="fill:#dfdfdf;fill-opacity:1;stroke:none;stroke-width:0.447753;stroke-dasharray:none;stroke-opacity:0.6"
       d="m 39.702982,21.064398 c -0.351401,-0.587946 -0.719659,-1.069114 -0.723415,-1.069114 -0.004,0 -0.0067,0.555287 -0.0067,1.233971 v 9.460459 c 0,0.678683 -0.210865,0.753464 -0.563631,0.166255 L 32.6275,21.062999 c -0.352764,-0.587206 -1.217109,-1.067715 -1.92076,-1.067715 h -4.61921 c -0.703651,0 -1.566886,0.481084 -1.918285,1.069114 l -5.900115,9.87244 c -0.3514,0.587945 -0.3514,1.550199 0,2.138225 l 6.000266,9.872448 c 0.351402,0.588023 0.71937,1.069106 0.723038,1.069106 0.0038,0 0.0067,-0.555287 0.0067,-1.233972 v -9.624987 c 0,-0.678685 0.208172,-0.751982 0.557268,-0.162637 l 5.794841,9.95018 c 0.349197,0.589427 1.210553,1.071416 1.914208,1.071416 h 4.619118 c 0.703652,0 1.566887,-0.481083 1.918291,-1.069029 l 5.900081,-9.872608 c 0.351401,-0.587944 0.351401,-1.550115 0,-2.138144 z"
       id="path8" />
  </g>
</svg>
