<?xml version="1.0" encoding="UTF-8" standalone="no"?>
<svg
   width="64"
   height="64"
   version="1.1"
   id="svg73"
   sodipodi:docname="accessories-text-editor.svg"
   inkscape:version="1.4.2 (ebf0e940d0, 2025-05-08)"
   xmlns:inkscape="http://www.inkscape.org/namespaces/inkscape"
   xmlns:sodipodi="http://sodipodi.sourceforge.net/DTD/sodipodi-0.dtd"
   xmlns="http://www.w3.org/2000/svg"
   xmlns:svg="http://www.w3.org/2000/svg"
   xmlns:rdf="http://www.w3.org/1999/02/22-rdf-syntax-ns#"
   xmlns:cc="http://creativecommons.org/ns#"
   xmlns:dc="http://purl.org/dc/elements/1.1/">
  <metadata
     id="metadata77">
    <rdf:RDF>
      <cc:Work
         rdf:about="">
        <dc:format>image/svg+xml</dc:format>
        <dc:type
           rdf:resource="http://purl.org/dc/dcmitype/StillImage" />
      </cc:Work>
    </rdf:RDF>
  </metadata>
  <sodipodi:namedview
     pagecolor="#f5f7fa"
     bordercolor="#666666"
     borderopacity="1"
     objecttolerance="10"
     gridtolerance="10"
     guidetolerance="10"
     inkscape:pageopacity="0"
     inkscape:pageshadow="2"
     inkscape:window-width="1377"
     inkscape:window-height="886"
     id="namedview75"
     showgrid="false"
     inkscape:zoom="6.2890624"
     inkscape:cx="47.622361"
     inkscape:cy="45.396274"
     inkscape:window-x="324"
     inkscape:window-y="75"
     inkscape:window-maximized="0"
     inkscape:current-layer="g877"
     inkscape:document-rotation="0"
     inkscape:pagecheckerboard="0"
     inkscape:showpageshadow="2"
     inkscape:deskcolor="#d1d1d1" />
  <defs
     id="defs29" />
  <circle
     cx="32.516094"
     cy="31.877844"
     r="0"
     fill="url(#b)"
     stroke-width="1.5715"
     id="circle41"
     style="fill:url(#b)" />
  <g
     aria-label="GZ"
     transform="matrix(1.2212657,0,0,0.81882264,0.4960938,-0.1661539)"
     id="text93"
     style="font-weight:bold;font-size:11.5263px;line-height:1.25;font-family:sans-serif;-inkscape-font-specification:'sans-serif Bold';fill:#f2f2f2;stroke-width:0.288159" />
  <g
     id="g877"
     transform="matrix(1.1,0,0,1.1,-3.1845928,-3.2065454)">
    <circle
       style="opacity:1;fill:#414141;stroke:#dfdfdf;stroke-width:2.27272727;stroke-dasharray:none;fill-opacity:1;stroke-opacity:1"
       id="path1"
       cx="31.985994"
       cy="32.005951"
       r="25.454546" />
    <path
       id="path7"
       style="fill:#dfdfdf;fill-opacity:1;stroke:none;stroke-width:0.0600848;stroke-dasharray:none;stroke-opacity:1"
       d="m 31.986412,18.329942 c -0.39673,6.04e-4 -0.517549,0.02059 -0.726352,0.120088 -0.202238,0.09636 -1.439892,1.308682 -6.442749,6.305171 -4.217084,4.211717 -6.233667,6.257759 -6.317997,6.413599 -0.487175,0.900296 -0.09952,2.003142 0.860433,2.448386 0.233346,0.108229 0.355441,0.131593 0.684382,0.13058 0.765312,-0.0023 0.38771,0.325802 5.533347,-4.810491 2.520165,-2.51559 4.598976,-4.573816 4.619283,-4.573816 0.02026,0 0.0373,2.292257 0.0373,5.093805 v 5.093806 l 0.437212,0.438376 0.437211,0.439543 0.858101,-0.856934 c 0.743081,-0.742172 0.870866,-0.849664 0.952537,-0.804469 0.05185,0.0287 0.251434,0.213578 0.444208,0.410396 l 0.350935,0.357928 0.01283,-5.086807 c 0.007,-2.79748 0.02878,-5.085645 0.04898,-5.085645 0.0202,0 2.099115,2.058226 4.619285,4.573816 5.145633,5.136294 4.768034,4.808163 5.533345,4.810492 0.32894,9e-4 0.451031,-0.02237 0.684381,-0.130581 0.943232,-0.437489 1.334126,-1.509307 0.882587,-2.418071 -0.06589,-0.132598 -2.215388,-2.319353 -6.286521,-6.39378 C 34.05044,19.642456 32.975242,18.58926 32.741916,18.471016 32.492585,18.34466 32.410234,18.329298 31.986414,18.329942 Z M 32.862,34.777251 32.010896,35.629523 c -0.467639,0.468246 -0.866025,0.845239 -0.886081,0.83828 -0.02005,-0.007 -0.41596,-0.389398 -0.879087,-0.849938 l -0.841778,-0.837115 -0.898906,0.900072 -0.898908,0.900074 0.336944,0.336941 0.338113,0.336949 0.538641,-0.537478 c 0.296602,-0.295689 0.556665,-0.537482 0.578286,-0.537482 0.02165,0 0.414345,0.372231 0.872093,0.826625 0.457747,0.454389 0.845402,0.82545 0.861598,0.82545 0.01621,0 0.400833,-0.371061 0.854601,-0.82545 0.453767,-0.454394 0.848034,-0.826625 0.875588,-0.826625 0.02756,0 0.427903,0.377203 0.889579,0.838278 l 0.839446,0.838282 0.887247,-0.888413 0.888416,-0.888414 -0.336948,-0.336944 -0.33811,-0.33811 -0.5503,0.550305 -0.551471,0.549135 -0.86393,-0.862763 z m 0.0023,2.453048 -0.863927,0.863933 -0.865095,0.862765 -0.45004,-0.448875 -0.4512,-0.448873 0.0023,3.103623 c 0.0019,2.798238 0.01031,3.126807 0.08745,3.33913 0.18259,0.502619 0.592003,0.912501 1.101772,1.104104 0.173169,0.06506 0.340828,0.08489 0.635414,0.07228 0.674023,-0.02884 1.1963,-0.369407 1.512167,-0.986347 l 0.141077,-0.275129 0.014,-3.152585 0.014,-3.151418 -0.439543,-0.440707 z" />
  </g>
</svg>
