<?xml version="1.0" encoding="UTF-8" standalone="no"?>
<svg
   width="64"
   height="64"
   version="1.1"
   id="svg73"
   sodipodi:docname="com.calibre_ebook.calibre.ebook-edit.svg"
   inkscape:version="1.4.2 (ebf0e940d0, 2025-05-08)"
   xmlns:inkscape="http://www.inkscape.org/namespaces/inkscape"
   xmlns:sodipodi="http://sodipodi.sourceforge.net/DTD/sodipodi-0.dtd"
   xmlns="http://www.w3.org/2000/svg"
   xmlns:svg="http://www.w3.org/2000/svg"
   xmlns:rdf="http://www.w3.org/1999/02/22-rdf-syntax-ns#"
   xmlns:cc="http://creativecommons.org/ns#"
   xmlns:dc="http://purl.org/dc/elements/1.1/">
  <metadata
     id="metadata77">
    <rdf:RDF>
      <cc:Work
         rdf:about="">
        <dc:format>image/svg+xml</dc:format>
        <dc:type
           rdf:resource="http://purl.org/dc/dcmitype/StillImage" />
      </cc:Work>
    </rdf:RDF>
  </metadata>
  <sodipodi:namedview
     pagecolor="#f5f7fa"
     bordercolor="#666666"
     borderopacity="1"
     objecttolerance="10"
     gridtolerance="10"
     guidetolerance="10"
     inkscape:pageopacity="0"
     inkscape:pageshadow="2"
     inkscape:window-width="1377"
     inkscape:window-height="886"
     id="namedview75"
     showgrid="false"
     inkscape:zoom="6.2890625"
     inkscape:cx="48.258385"
     inkscape:cy="45.396273"
     inkscape:window-x="0"
     inkscape:window-y="47"
     inkscape:window-maximized="0"
     inkscape:current-layer="g877"
     inkscape:document-rotation="0"
     inkscape:pagecheckerboard="0"
     inkscape:showpageshadow="2"
     inkscape:deskcolor="#d1d1d1" />
  <defs
     id="defs29" />
  <circle
     cx="32.516094"
     cy="31.877844"
     r="0"
     fill="url(#b)"
     stroke-width="1.5715"
     id="circle41"
     style="fill:url(#b)" />
  <g
     aria-label="GZ"
     transform="matrix(1.2212657,0,0,0.81882264,0.4960938,-0.1661539)"
     id="text93"
     style="font-weight:bold;font-size:11.5263px;line-height:1.25;font-family:sans-serif;-inkscape-font-specification:'sans-serif Bold';fill:#f2f2f2;stroke-width:0.288159" />
  <g
     id="g877"
     transform="matrix(1.1,0,0,1.1,-3.1845928,-3.2065454)">
    <circle
       style="opacity:1;fill:#414141;stroke:#dfdfdf;stroke-width:2.27272727;stroke-dasharray:none;fill-opacity:1;stroke-opacity:1"
       id="path1"
       cx="31.985994"
       cy="32.005951"
       r="25.454546" />
    <path
       d="m 20.188774,17.819483 v 1.891528 h 4.728822 v -1.891528 z m 6.620351,0 v 1.891528 h 7.566115 v -1.891528 z m -6.620351,3.783057 v 1.89153 h 5.674587 v -1.89153 z m 7.566118,0 v 1.89153 h 4.72882 v -1.89153 z m 6.620348,0 v 1.89153 h 1.891529 v -1.89153 z m -14.186466,3.783059 v 1.891529 h 2.837293 v -1.891529 z m 4.728822,0 v 1.891529 h 3.783058 v -1.891529 z m 5.674587,0 v 1.891529 h 3.783057 v -1.891529 z m -10.403409,3.783059 v 1.891528 h 4.728822 v -1.891528 z m 6.620351,0 v 1.891528 h 7.566115 v -1.891528 z m 9.457644,0 v 1.891528 h 4.728822 v -1.891528 z m -16.077995,3.783057 v 1.891527 h 4.728822 v -1.891527 z m 6.620351,0 v 1.891527 h 2.837294 v -1.891527 z m 4.728822,0 v 1.891527 h 4.728822 v -1.891527 z m -11.349173,3.783059 v 1.89153 h 3.783057 v -1.89153 z m 5.674587,0 v 1.89153 h 8.511879 v -1.89153 z m -5.674587,3.783055 v 1.891531 h 7.566118 v -1.891531 z m 9.457645,0 v 1.891531 h 3.783056 v -1.891531 z m -9.457645,3.783057 v 1.891532 h 4.728822 v -1.891532 z m 6.620351,0 v 1.891532 h 5.674587 v -1.891532 z"
       fill="#707070"
       id="path3-5"
       style="fill:#dfdfdf;fill-opacity:1;stroke:none;stroke-width:0.443052;stroke-dasharray:none;stroke-opacity:0.6" />
    <circle
       style="fill:#414141;fill-opacity:1;stroke:#dfdfdf;stroke-width:1.08705;stroke-dasharray:none;stroke-opacity:1"
       id="path1-6"
       cx="48.320271"
       cy="48.287033"
       r="12.17483" />
    <path
       d="m 47.078077,47.035303 v -4.22639 c 0,-0.633775 0.514792,-1.147353 1.148569,-1.147353 0.633775,0 1.147356,0.513578 1.147356,1.147353 v 4.22639 h 4.227605 c 0.63377,0 1.147351,0.514792 1.147351,1.14857 0,0.633774 -0.513581,1.147355 -1.147351,1.147355 h -4.227605 v 4.227605 c 0,0.633771 -0.513581,1.147353 -1.147356,1.147353 -0.633777,0 -1.148569,-0.513582 -1.148569,-1.147353 v -4.227605 h -4.226391 c -0.633774,0 -1.147355,-0.513581 -1.147355,-1.147355 0,-0.633778 0.513581,-1.14857 1.147355,-1.14857 z"
       fill="#dfdfdf"
       id="path5"
       style="fill:#dfdfdf;fill-opacity:1;stroke:none;stroke-width:0.426216;stroke-dasharray:none;stroke-opacity:0.6" />
  </g>
</svg>
