<?xml version="1.0" encoding="UTF-8" standalone="no"?>
<svg
   width="64"
   height="64"
   version="1.1"
   id="svg73"
   sodipodi:docname="smile.svg"
   inkscape:version="1.4.2 (ebf0e940d0, 2025-05-08)"
   xmlns:inkscape="http://www.inkscape.org/namespaces/inkscape"
   xmlns:sodipodi="http://sodipodi.sourceforge.net/DTD/sodipodi-0.dtd"
   xmlns="http://www.w3.org/2000/svg"
   xmlns:svg="http://www.w3.org/2000/svg"
   xmlns:rdf="http://www.w3.org/1999/02/22-rdf-syntax-ns#"
   xmlns:cc="http://creativecommons.org/ns#"
   xmlns:dc="http://purl.org/dc/elements/1.1/">
  <metadata
     id="metadata77">
    <rdf:RDF>
      <cc:Work
         rdf:about="">
        <dc:format>image/svg+xml</dc:format>
        <dc:type
           rdf:resource="http://purl.org/dc/dcmitype/StillImage" />
      </cc:Work>
    </rdf:RDF>
  </metadata>
  <sodipodi:namedview
     pagecolor="#f5f7fa"
     bordercolor="#666666"
     borderopacity="1"
     objecttolerance="10"
     gridtolerance="10"
     guidetolerance="10"
     inkscape:pageopacity="0"
     inkscape:pageshadow="2"
     inkscape:window-width="1377"
     inkscape:window-height="678"
     id="namedview75"
     showgrid="false"
     inkscape:zoom="4.4470387"
     inkscape:cx="47.559739"
     inkscape:cy="37.440646"
     inkscape:window-x="18"
     inkscape:window-y="126"
     inkscape:window-maximized="0"
     inkscape:current-layer="g877"
     inkscape:document-rotation="0"
     inkscape:pagecheckerboard="0"
     inkscape:showpageshadow="2"
     inkscape:deskcolor="#d1d1d1" />
  <defs
     id="defs29" />
  <circle
     cx="32.516094"
     cy="31.877844"
     r="0"
     fill="url(#b)"
     stroke-width="1.5715"
     id="circle41"
     style="fill:url(#b)" />
  <g
     aria-label="GZ"
     transform="matrix(1.2212657,0,0,0.81882264,0.4960938,-0.1661539)"
     id="text93"
     style="font-weight:bold;font-size:11.5263px;line-height:1.25;font-family:sans-serif;-inkscape-font-specification:'sans-serif Bold';fill:#f2f2f2;stroke-width:0.288159" />
  <g
     id="g877"
     transform="matrix(1.1,0,0,1.1,-3.1845928,-3.2065454)">
    <circle
       style="opacity:1;fill:#414141;stroke:#dfdfdf;stroke-width:2.27272727;stroke-dasharray:none;fill-opacity:1;stroke-opacity:1"
       id="path1"
       cx="31.985994"
       cy="32.005951"
       r="25.454546" />
    <path
       id="path12"
       style="fill:#dfdfdf;fill-opacity:1;stroke:none;stroke-width:0.437627;stroke-dasharray:none;stroke-opacity:0.6"
       d="m 32.161764,22.116609 c -3.846081,-0.02843 -7.032562,-0.01225 -7.080666,0.03591 -0.0481,0.0481 1.491847,2.26083 3.422378,4.916466 1.930534,2.655637 3.571726,4.764706 3.646322,4.687395 0.07461,-0.07732 1.680339,-2.265486 3.569395,-4.863472 l 3.434343,-4.7233 z m -11.07401,10.232949 -3.548882,0.05471 3.473662,4.781416 c 1.910864,2.629945 3.552605,4.755244 3.648031,4.72329 0.09543,-0.0321 1.718868,-2.183425 3.608712,-4.781416 l 3.436055,-4.72329 -3.533494,-0.05471 c -1.943516,-0.0295 -5.131469,-0.0295 -7.084084,0 z m 18.279469,0.0018 -6.983227,0.05299 3.536915,4.860044 c 3.494118,4.802618 3.540595,4.856838 3.870258,4.429266 1.496461,-1.940869 6.706727,-9.244432 6.641336,-9.309823 -0.04559,-0.04561 -3.224899,-0.06092 -7.065282,-0.03248 z" />
  </g>
</svg>
