<?xml version="1.0" encoding="UTF-8" standalone="no"?>
<svg
   width="64"
   height="64"
   version="1.1"
   id="svg73"
   sodipodi:docname="abcd.svg"
   inkscape:version="1.4.2 (ebf0e940d0, 2025-05-08)"
   xmlns:inkscape="http://www.inkscape.org/namespaces/inkscape"
   xmlns:sodipodi="http://sodipodi.sourceforge.net/DTD/sodipodi-0.dtd"
   xmlns="http://www.w3.org/2000/svg"
   xmlns:svg="http://www.w3.org/2000/svg"
   xmlns:rdf="http://www.w3.org/1999/02/22-rdf-syntax-ns#"
   xmlns:cc="http://creativecommons.org/ns#"
   xmlns:dc="http://purl.org/dc/elements/1.1/">
  <metadata
     id="metadata77">
    <rdf:RDF>
      <cc:Work
         rdf:about="">
        <dc:format>image/svg+xml</dc:format>
        <dc:type
           rdf:resource="http://purl.org/dc/dcmitype/StillImage" />
      </cc:Work>
    </rdf:RDF>
  </metadata>
  <sodipodi:namedview
     pagecolor="#f5f7fa"
     bordercolor="#666666"
     borderopacity="1"
     objecttolerance="10"
     gridtolerance="10"
     guidetolerance="10"
     inkscape:pageopacity="0"
     inkscape:pageshadow="2"
     inkscape:window-width="1377"
     inkscape:window-height="679"
     id="namedview75"
     showgrid="false"
     inkscape:zoom="6.2890624"
     inkscape:cx="47.622361"
     inkscape:cy="45.316771"
     inkscape:window-x="13"
     inkscape:window-y="130"
     inkscape:window-maximized="0"
     inkscape:current-layer="g2"
     inkscape:document-rotation="0"
     inkscape:pagecheckerboard="0"
     inkscape:showpageshadow="2"
     inkscape:deskcolor="#d1d1d1" />
  <defs
     id="defs29" />
  <circle
     cx="32.516094"
     cy="31.877844"
     r="0"
     fill="url(#b)"
     stroke-width="1.5715"
     id="circle41"
     style="fill:url(#b)" />
  <g
     aria-label="GZ"
     transform="matrix(1.2212657,0,0,0.81882264,0.4960938,-0.1661539)"
     id="text93"
     style="font-weight:bold;font-size:11.5263px;line-height:1.25;font-family:sans-serif;-inkscape-font-specification:'sans-serif Bold';fill:#f2f2f2;stroke-width:0.288159" />
  <g
     id="g877"
     transform="matrix(1.1,0,0,1.1,-3.1845928,-3.2065454)">
    <circle
       style="opacity:1;fill:#414141;stroke:#dfdfdf;stroke-width:2.27272727;stroke-dasharray:none;fill-opacity:1;stroke-opacity:1"
       id="path1"
       cx="31.985994"
       cy="32.005951"
       r="25.454546" />
    <g
       id="g2"
       style="fill:#dfdfdf;fill-opacity:1;stroke:none;stroke-opacity:0.6"
       transform="translate(-1.8181818e-7,1.7274047)">
      <g
         id="g7"
         transform="matrix(0.6627273,0,0,0.6627273,11.044442,7.373546)"
         style="fill:#dfdfdf;fill-opacity:1;stroke:none;stroke-width:0.685871;stroke-dasharray:none;stroke-opacity:0.6">
        <path
           style="fill:#dfdfdf;fill-opacity:1;stroke:none;stroke-width:0.685871;stroke-dasharray:none;stroke-opacity:0.6"
           d="m 46.850865,13.25458 c 1.561594,1.89222 2.50861,4.310714 2.50861,6.955706 0,6.045478 -4.900896,10.946626 -10.946628,10.946626 -2.644992,0 -5.063436,-0.94699 -6.955704,-2.508584 1.32363,5.64203 6.383412,9.80633 12.428892,9.80633 7.053228,0 12.771108,-5.717882 12.771108,-12.771108 0,-6.045734 -4.1643,-11.10539 -9.806328,-12.428892 z"
           id="path3-7" />
        <path
           style="fill:#dfdfdf;fill-opacity:1;stroke:none;stroke-width:0.685871;stroke-dasharray:none;stroke-opacity:0.6"
           d="M 16.5,26.5 14.761467,21.238532 9.5,19.5 14.761467,17.761467 16.5,12.499999 18.238533,17.761467 23.5,19.5 18.238533,21.238532 Z"
           id="path4" />
        <path
           style="fill:#dfdfdf;fill-opacity:1;stroke:none;stroke-width:0.685871;stroke-dasharray:none;stroke-opacity:0.6"
           d="M 29.5,22.5 28.506552,19.493446 25.5,18.5 28.506552,17.506553 29.5,14.499999 30.493446,17.506553 33.5,18.5 30.493446,19.493446 Z"
           id="path5" />
        <path
           style="fill:#dfdfdf;fill-opacity:1;stroke:none;stroke-width:0.685871;stroke-dasharray:none;stroke-opacity:0.6"
           d="M 39.5,22.5 39.003278,20.996722 37.5,20.5 39.003278,20.003278 39.5,18.499999 39.996722,20.003278 41.5,20.5 39.996722,20.996722 Z"
           id="path6-9" />
      </g>
      <path
         style="fill:#dfdfdf;fill-opacity:1;stroke:none;stroke-width:0.368181;stroke-dasharray:none;stroke-opacity:0.6"
         d="m 34.651769,38.373087 c -3.335718,0.0072 -6.410642,1.099204 -8.054242,2.866035 -0.667144,-0.188105 -1.394936,-0.284021 -2.134859,-0.284021 -2.462367,0.0036 -4.579031,1.066003 -5.046031,2.534062 -2.62612,0.649189 -4.348564,2.935002 -4.354629,4.657572 1.363042,4.586312 2.818117,3.505271 2.818117,3.505271 11.104455,4.374182 15.816035,4.674769 27.419575,0 0,0 3.36163,-0.244119 3.72598,-3.247544 0.226103,-1.863826 -2.518769,-4.464184 -5.458447,-4.498492 0,-3.319726 -4.027121,-5.532883 -8.915464,-5.532883 z"
         id="path2"
         sodipodi:nodetypes="cccccssscc" />
    </g>
  </g>
</svg>
