<?xml version="1.0" encoding="UTF-8" standalone="no"?>
<svg
   width="64"
   height="64"
   version="1.1"
   id="svg73"
   sodipodi:docname="abcd.svg"
   inkscape:version="1.4.2 (ebf0e940d0, 2025-05-08)"
   xmlns:inkscape="http://www.inkscape.org/namespaces/inkscape"
   xmlns:sodipodi="http://sodipodi.sourceforge.net/DTD/sodipodi-0.dtd"
   xmlns="http://www.w3.org/2000/svg"
   xmlns:svg="http://www.w3.org/2000/svg"
   xmlns:rdf="http://www.w3.org/1999/02/22-rdf-syntax-ns#"
   xmlns:cc="http://creativecommons.org/ns#"
   xmlns:dc="http://purl.org/dc/elements/1.1/">
  <metadata
     id="metadata77">
    <rdf:RDF>
      <cc:Work
         rdf:about="">
        <dc:format>image/svg+xml</dc:format>
        <dc:type
           rdf:resource="http://purl.org/dc/dcmitype/StillImage" />
      </cc:Work>
    </rdf:RDF>
  </metadata>
  <sodipodi:namedview
     pagecolor="#f5f7fa"
     bordercolor="#666666"
     borderopacity="1"
     objecttolerance="10"
     gridtolerance="10"
     guidetolerance="10"
     inkscape:pageopacity="0"
     inkscape:pageshadow="2"
     inkscape:window-width="1377"
     inkscape:window-height="679"
     id="namedview75"
     showgrid="false"
     inkscape:zoom="6.2890624"
     inkscape:cx="47.622361"
     inkscape:cy="45.316771"
     inkscape:window-x="13"
     inkscape:window-y="130"
     inkscape:window-maximized="0"
     inkscape:current-layer="g877"
     inkscape:document-rotation="0"
     inkscape:pagecheckerboard="0"
     inkscape:showpageshadow="2"
     inkscape:deskcolor="#d1d1d1" />
  <defs
     id="defs29" />
  <circle
     cx="32.516094"
     cy="31.877844"
     r="0"
     fill="url(#b)"
     stroke-width="1.5715"
     id="circle41"
     style="fill:url(#b)" />
  <g
     aria-label="GZ"
     transform="matrix(1.2212657,0,0,0.81882264,0.4960938,-0.1661539)"
     id="text93"
     style="font-weight:bold;font-size:11.5263px;line-height:1.25;font-family:sans-serif;-inkscape-font-specification:'sans-serif Bold';fill:#f2f2f2;stroke-width:0.288159" />
  <g
     id="g877"
     transform="matrix(1.1,0,0,1.1,-3.1845928,-3.2065454)">
    <circle
       style="opacity:1;fill:#414141;stroke:#dfdfdf;stroke-width:2.27272727;stroke-dasharray:none;fill-opacity:1;stroke-opacity:1"
       id="path1"
       cx="31.985994"
       cy="32.005951"
       r="25.454546" />
    <path
       id="path1-0"
       style="fill:#dfdfdf;fill-opacity:1;stroke:none;stroke-width:0.350744;stroke-dasharray:none;stroke-opacity:0.6"
       d="m 16.71523,23.943627 c -0.0098,0 -0.01847,0.0014 -0.02686,0.0035 -0.08497,0.02133 -0.110874,0.116984 -0.05571,0.20616 0.05312,0.08612 0.27556,0.257945 0.580554,0.448905 0.743676,0.465458 1.980239,1.069755 3.517772,1.719009 1.65146,0.697363 3.753828,2.001376 5.242353,3.251702 0.491925,0.41319 0.937176,0.899004 0.937168,1.02284 0,0.01912 -0.0352,0.08311 -0.07801,0.142084 -0.115662,0.159371 -0.341106,0.541082 -0.462837,0.783588 -0.303465,0.604531 -0.502334,1.283987 -0.597615,2.042889 -0.04885,0.389124 -0.03958,1.544376 0.01601,2.0018 0.02477,0.203656 0.04528,0.411913 0.04527,0.462835 0,0.12921 -0.0893,0.250337 -0.499752,0.677017 -0.568466,0.590968 -0.721613,0.830741 -0.724383,1.135676 -0.0014,0.166863 -1.5e-4,0.170868 0.08497,0.249012 0.07816,0.07192 0.09931,0.07944 0.224285,0.0794 0.164645,3e-6 0.404712,-0.07214 0.783931,-0.235075 0.334491,-0.14371 0.555577,-0.22811 0.597615,-0.228107 0.07109,6e-6 0.01802,0.23857 -0.210698,0.949007 -0.297533,0.924178 -0.337639,1.257685 -0.165771,1.378062 0.175194,0.122692 0.406176,-0.03815 1.763587,-1.229006 0.432099,-0.379073 0.834246,-0.726554 0.893987,-0.772091 0.05976,-0.0455 0.109338,-0.09396 0.110039,-0.107621 l 3e-6,-3.66e-4 -2e-6,-3.65e-4 h 3.67e-4 l -1e-6,-3.67e-4 v -3.63e-4 l 3.66e-4,-2e-6 3.63e-4,-3.64e-4 3.68e-4,-3.63e-4 c 0.01802,-0.0086 0.164137,0.02098 0.371588,0.07627 0.642871,0.171316 1.373585,0.304012 2.139359,0.388657 1.766318,0.195237 4.108065,0.132464 6.0531,-0.162638 l 0.40573,-0.06163 0.647068,0.290104 c 2.249302,1.008748 3.122192,1.311664 3.32379,1.153086 0.09134,-0.07184 0.184726,-0.268119 0.198167,-0.416166 0.03027,-0.333801 -0.161605,-0.672041 -0.723334,-1.275327 -0.455305,-0.488984 -0.589259,-0.671075 -0.589261,-0.799604 0,-0.06044 0.0018,-0.06106 0.12154,-0.04493 0.161485,0.02172 0.544359,0.13265 1.276722,0.369853 0.740086,0.239705 0.995264,0.308952 1.206367,0.327364 0.263623,0.02299 0.357665,-0.0514 0.357674,-0.283126 -8e-6,-0.317354 -0.26908,-0.720617 -1.040954,-1.560204 -0.225697,-0.245489 -0.394833,-0.450823 -0.429735,-0.521695 -0.14034,-0.284896 -0.111299,-0.623909 0.07211,-0.841447 0.100954,-0.119728 0.249481,-0.204386 0.854624,-0.487215 2.203415,-1.029829 3.288554,-1.671127 3.934638,-2.325679 0.367336,-0.372172 0.495194,-0.611119 0.496625,-0.927416 0.0024,-0.613168 -0.457894,-1.271923 -1.220301,-1.744783 -0.892086,-0.553291 -2.04793,-0.897249 -4.163445,-1.239106 -0.354265,-0.05726 -0.682119,-0.11072 -0.728211,-0.118773 l -0.08359,-0.01462 -0.0122,-0.62826 c -0.0241,-1.245815 -0.196978,-1.92732 -0.587549,-2.315537 -0.19179,-0.190641 -0.49906,-0.264814 -0.78915,-0.190498 -0.523479,0.134108 -0.748599,0.492402 -0.748063,1.191049 7.65e-4,0.455502 0.07731,0.903755 0.269902,1.57483 0.05614,0.195604 0.102043,0.375028 0.102044,0.398758 0,0.02698 -0.02219,0.04882 -0.05921,0.05817 -0.07837,0.01966 -0.256397,-0.0014 -0.297051,-0.03516 -0.01789,-0.01471 -0.0873,-0.149001 -0.154275,-0.298112 -0.505719,-1.125671 -0.708797,-1.480309 -1.013101,-1.769865 -0.350148,-0.333156 -0.681267,-0.332128 -1.020056,0.0039 -0.258891,0.256728 -0.358375,0.54057 -0.357664,1.020751 7.62e-4,0.342536 0.02509,0.500017 0.17239,1.110601 0.05066,0.210026 0.09581,0.402902 0.100648,0.42836 0.0063,0.03321 -0.02155,0.06961 -0.09891,0.129201 -0.122661,0.09451 -0.251485,0.298247 -0.341992,0.541195 -0.213729,0.573666 -0.332617,0.779772 -0.496966,0.8609 -0.247637,0.122229 -0.813951,0.155377 -1.515978,0.08845 -0.635949,-0.06061 -1.28419,-0.164399 -3.018019,-0.482687 -1.657082,-0.304199 -1.905027,-0.313216 -2.565977,-0.09368 -0.132046,0.04386 -0.440777,0.180558 -0.686071,0.303683 l -0.446181,0.223683 -0.3204,-0.302288 c -1.360103,-1.28254 -2.78758,-2.309473 -4.208673,-3.02821 -0.798121,-0.403661 -1.319278,-0.609217 -2.143538,-0.845227 -0.968559,-0.277329 -1.781212,-0.600803 -3.364885,-1.340103 -0.649079,-0.303008 -0.787779,-0.36477 -0.856719,-0.364281 z m 29.27472,2.362942 c -0.0052,2.54e-4 -0.01,0.0011 -0.01499,0.0031 -0.115548,0.04433 -0.367728,1.318738 -0.373684,1.888615 -0.0024,0.211884 0.0024,0.252954 0.04144,0.294975 0.07639,0.08454 0.130336,0.05954 0.196071,-0.0909 0.170509,-0.390198 0.333613,-1.914868 0.219752,-2.054384 -0.02341,-0.02902 -0.0464,-0.04284 -0.06861,-0.04144 z m 1.324774,0.485823 c -0.03041,0.01017 -0.307582,0.388429 -0.450303,0.61607 -0.276442,0.44101 -0.489709,0.889578 -0.52274,1.099107 l -0.01457,0.09263 0.08182,-0.09162 c 0.116844,-0.130156 0.327558,-0.489033 0.577444,-0.984502 0.220503,-0.437205 0.346245,-0.715606 0.33049,-0.731345 l -0.0012,-3.29e-4 h -0.0012 -0.0012 -0.0012 -0.0012 z m -1.36762,0.03623 0.0012,-1e-6 c 8.1e-5,-10e-7 0.0018,0 0.0025,0 l 0.0012,1e-6 0.0012,-1e-6 0.0012,3.29e-4 0.0012,3.29e-4 0.0012,3.29e-4 c 0.0025,0.0038 0.0045,0.01542 0.005,0.03483 0.0031,0.168422 -0.06088,0.695055 -0.127117,1.036073 -0.0425,0.219145 -0.07054,0.336316 -0.08427,0.35139 -1.8e-4,1.74e-4 -0.0025,8.28e-4 -0.0023,0.0011 l -0.0012,3.31e-4 h -0.0012 -0.0012 -0.0012 -0.0012 -0.0012 -0.0012 l -0.0012,-3.29e-4 -0.0012,-3.29e-4 c -0.0064,-0.009 -0.0069,-0.06317 -0.0025,-0.161604 0.02344,-0.372553 0.169003,-1.224464 0.207493,-1.261356 l 0.0012,-3.28e-4 c 1.63e-4,-9.8e-5 0.0025,-7.01e-4 0.0025,-8.28e-4 z m -4.143232,2.002842 c 0.146695,6.24e-4 0.293605,0.06009 0.393531,0.178306 0.270995,0.320647 0.174298,0.848718 -0.185976,1.015874 -0.170754,0.07922 -0.408721,0.04201 -0.557563,-0.08741 -0.149758,-0.130221 -0.235121,-0.389096 -0.19676,-0.596569 0.02672,-0.144355 0.06594,-0.229311 0.154621,-0.334679 0.09878,-0.117509 0.24542,-0.176102 0.39214,-0.175526 z m -1.078559,0.289403 0.02575,0.09821 c 0.111982,0.427254 0.207678,0.64159 0.359398,0.803783 0.208969,0.223402 0.47835,0.306457 0.989405,0.304727 l 0.297066,-0.0011 -0.100209,0.09168 c -0.165663,0.151408 -0.431642,0.320349 -0.558946,0.355231 -0.432205,0.118365 -0.762807,-0.01365 -1.02807,-0.41025 -0.158664,-0.237183 -0.22582,-0.455073 -0.22574,-0.733157 7.5e-5,-0.248737 0.04279,-0.363475 0.170299,-0.457266 z m 2.628306,2.430504 c 0.08854,-0.0043 0.158022,0.01138 0.214186,0.04562 0.107171,0.06535 0.104502,0.164005 -0.0074,0.266421 -0.203773,0.186514 -1.119199,0.583712 -1.787272,0.775224 -0.364814,0.104595 -0.516183,0.08767 -0.442987,-0.0491 0.05632,-0.10526 0.588682,-0.443462 1.109557,-0.704875 0.433111,-0.217399 0.719042,-0.323655 0.913831,-0.333288 z m 0.337808,0.600399 c 0.06696,7.58e-4 0.116937,0.03229 0.149398,0.09508 0.04812,0.09308 0.04188,0.238851 -0.01494,0.350343 -0.132103,0.258949 -0.586128,0.629505 -1.223438,0.998464 h -0.0011 c -0.146046,0.08456 -0.28187,0.153936 -0.301931,0.153937 -0.0489,-6e-6 -0.09195,-0.04615 -0.09195,-0.09819 -5e-6,-0.130928 0.285694,-0.530052 0.64706,-0.904431 0.383157,-0.39703 0.665096,-0.597001 0.836164,-0.595179 z m -6.11439,5.925639 c 0.0011,-3.7e-5 0.0013,0 0.0024,0 0.01275,0 0.02341,0.01033 0.02334,0.02297 0,0.01275 -0.01059,0.02335 -0.02335,0.02334 -0.01274,-6e-6 -0.02304,-0.0107 -0.02298,-0.02332 0,-0.01196 0.009,-0.02175 0.02057,-0.02298 z" />
    <g
       id="g2"
       style="fill:#dfdfdf;fill-opacity:1;stroke:none;stroke-opacity:0.6"
       transform="translate(-1.8181818e-7,1.7274047)" />
  </g>
</svg>
