<?xml version="1.0" encoding="UTF-8" standalone="no"?>
<svg
   width="64"
   height="64"
   version="1.1"
   id="svg73"
   sodipodi:docname="info.smplayer.SMPlayer.svg"
   inkscape:version="1.4.2 (ebf0e940d0, 2025-05-08)"
   xmlns:inkscape="http://www.inkscape.org/namespaces/inkscape"
   xmlns:sodipodi="http://sodipodi.sourceforge.net/DTD/sodipodi-0.dtd"
   xmlns="http://www.w3.org/2000/svg"
   xmlns:svg="http://www.w3.org/2000/svg"
   xmlns:rdf="http://www.w3.org/1999/02/22-rdf-syntax-ns#"
   xmlns:cc="http://creativecommons.org/ns#"
   xmlns:dc="http://purl.org/dc/elements/1.1/">
  <metadata
     id="metadata77">
    <rdf:RDF>
      <cc:Work
         rdf:about="">
        <dc:format>image/svg+xml</dc:format>
        <dc:type
           rdf:resource="http://purl.org/dc/dcmitype/StillImage" />
      </cc:Work>
    </rdf:RDF>
  </metadata>
  <sodipodi:namedview
     pagecolor="#f5f7fa"
     bordercolor="#666666"
     borderopacity="1"
     objecttolerance="10"
     gridtolerance="10"
     guidetolerance="10"
     inkscape:pageopacity="0"
     inkscape:pageshadow="2"
     inkscape:window-width="1377"
     inkscape:window-height="726"
     id="namedview75"
     showgrid="false"
     inkscape:zoom="6.2890624"
     inkscape:cx="47.622361"
     inkscape:cy="45.396274"
     inkscape:window-x="22"
     inkscape:window-y="80"
     inkscape:window-maximized="0"
     inkscape:current-layer="g877"
     inkscape:document-rotation="0"
     inkscape:pagecheckerboard="0"
     inkscape:showpageshadow="2"
     inkscape:deskcolor="#d1d1d1" />
  <defs
     id="defs29" />
  <circle
     cx="32.516094"
     cy="31.877844"
     r="0"
     fill="url(#b)"
     stroke-width="1.5715"
     id="circle41"
     style="fill:url(#b)" />
  <g
     aria-label="GZ"
     transform="matrix(1.2212657,0,0,0.81882264,0.4960938,-0.1661539)"
     id="text93"
     style="font-weight:bold;font-size:11.5263px;line-height:1.25;font-family:sans-serif;-inkscape-font-specification:'sans-serif Bold';fill:#f2f2f2;stroke-width:0.288159" />
  <g
     id="g877"
     transform="matrix(1.1,0,0,1.1,-3.1845928,-3.2065454)">
    <circle
       style="opacity:1;fill:#414141;stroke:#dfdfdf;stroke-width:2.27272727;stroke-dasharray:none;fill-opacity:1;stroke-opacity:1"
       id="path1"
       cx="31.985994"
       cy="32.005951"
       r="25.454546" />
    <path
       style="fill:#dfdfdf;fill-opacity:1;stroke:none;stroke-width:0.450364;stroke-dasharray:none;stroke-opacity:0.6"
       d="M 30.6784,45.758812 C 27.802295,45.466593 25.200935,44.365932 23.014909,42.516314 22.808505,42.341675 22.366508,41.91656 22.032692,41.571608 19.021075,38.459575 17.678661,34.107603 18.3818,29.735807 c 0.276276,-1.717746 0.89172,-3.386868 1.81782,-4.930033 0.984712,-1.640833 2.638893,-3.338535 4.292094,-4.405032 1.891455,-1.220194 4.027957,-1.943051 6.349675,-2.148331 0.734566,-0.06497 2.386958,-0.02834 3.100675,0.06874 2.642104,0.359291 4.956562,1.281214 6.93197,2.761231 2.34411,1.75626 3.974475,4.147057 4.606425,6.75497 0.244409,1.008583 0.291984,1.424489 0.292923,2.560707 7.97e-4,0.913236 -0.01078,1.098351 -0.101854,1.545251 -0.587962,2.9069 -2.51669,5.149186 -5.201182,6.046737 -0.979283,0.327439 -1.311676,0.363449 -3.54818,0.384596 -1.930947,0.01819 -1.970843,0.02018 -2.32349,0.126668 -0.84361,0.254184 -1.404593,0.878754 -1.517225,1.68915 -0.08056,0.579578 0.115373,1.163982 0.61722,1.841133 0.337861,0.455888 0.36391,0.536201 0.387199,1.194111 0.01557,0.440159 0.0033,0.643221 -0.05142,0.860936 -0.179578,0.712422 -0.595442,1.242232 -1.202597,1.53214 l -0.346767,0.165603 -0.706401,0.0071 c -0.388523,0.004 -0.88366,-0.01078 -1.100306,-0.03268 z M 22.902696,31.964011 c 0.68934,-0.179549 1.263059,-0.686654 1.528705,-1.351214 0.144423,-0.361294 0.164869,-0.918883 0.04783,-1.304231 -0.40503,-1.333473 -1.90222,-1.95957 -3.083186,-1.289333 -0.536424,0.304441 -0.980433,0.938674 -1.085161,1.550069 -0.243428,1.421122 1.202075,2.756693 2.591825,2.394709 z m 17.998023,0.0232 c 0.385951,-0.07201 0.779288,-0.291356 1.101777,-0.614364 0.68009,-0.681177 0.834879,-1.571632 0.419355,-2.412381 -0.541849,-1.096355 -1.80849,-1.520765 -2.893551,-0.969539 -0.365685,0.185765 -0.764912,0.610742 -0.960333,1.022248 -0.143748,0.302638 -0.165661,0.393499 -0.181289,0.751413 -0.01364,0.324686 8.82e-4,0.469142 0.07521,0.71324 0.318499,1.048587 1.381828,1.706668 2.43888,1.50939 z M 28.315946,25.559486 c 0.780518,-0.228979 1.399562,-0.924353 1.5444,-1.734816 0.198159,-1.108817 -0.641203,-2.246529 -1.801287,-2.441553 -1.010572,-0.16989 -2.08161,0.525725 -2.378687,1.544906 -0.146827,0.503699 -0.05666,1.195659 0.213081,1.63564 0.139549,0.227596 0.464819,0.567881 0.692909,0.724875 0.462166,0.318102 1.18361,0.431125 1.729584,0.270948 z m 7.774697,-0.137997 c 0.47878,-0.237244 0.812252,-0.576022 1.040874,-1.057443 0.142837,-0.300837 0.164833,-0.392251 0.180493,-0.749756 0.01393,-0.324687 -8.82e-4,-0.469143 -0.07521,-0.71324 -0.306856,-1.010369 -1.357593,-1.688164 -2.352518,-1.517554 -1.158122,0.198597 -1.994953,1.315037 -1.812229,2.41775 0.100874,0.608741 0.529304,1.240811 1.046502,1.543909 0.371508,0.217713 0.660078,0.285978 1.153114,0.272777 0.424264,-0.01133 0.465294,-0.02122 0.818943,-0.196444 z"
       id="path7" />
  </g>
</svg>
