<?xml version="1.0" encoding="UTF-8" standalone="no"?>
<svg
   width="64"
   height="64"
   version="1.1"
   id="svg73"
   sodipodi:docname="smile.svg"
   inkscape:version="1.4.2 (ebf0e940d0, 2025-05-08)"
   xmlns:inkscape="http://www.inkscape.org/namespaces/inkscape"
   xmlns:sodipodi="http://sodipodi.sourceforge.net/DTD/sodipodi-0.dtd"
   xmlns="http://www.w3.org/2000/svg"
   xmlns:svg="http://www.w3.org/2000/svg"
   xmlns:rdf="http://www.w3.org/1999/02/22-rdf-syntax-ns#"
   xmlns:cc="http://creativecommons.org/ns#"
   xmlns:dc="http://purl.org/dc/elements/1.1/">
  <metadata
     id="metadata77">
    <rdf:RDF>
      <cc:Work
         rdf:about="">
        <dc:format>image/svg+xml</dc:format>
        <dc:type
           rdf:resource="http://purl.org/dc/dcmitype/StillImage" />
      </cc:Work>
    </rdf:RDF>
  </metadata>
  <sodipodi:namedview
     pagecolor="#f5f7fa"
     bordercolor="#666666"
     borderopacity="1"
     objecttolerance="10"
     gridtolerance="10"
     guidetolerance="10"
     inkscape:pageopacity="0"
     inkscape:pageshadow="2"
     inkscape:window-width="1377"
     inkscape:window-height="678"
     id="namedview75"
     showgrid="false"
     inkscape:zoom="4.4470387"
     inkscape:cx="47.559739"
     inkscape:cy="37.440646"
     inkscape:window-x="18"
     inkscape:window-y="126"
     inkscape:window-maximized="0"
     inkscape:current-layer="g877"
     inkscape:document-rotation="0"
     inkscape:pagecheckerboard="0"
     inkscape:showpageshadow="2"
     inkscape:deskcolor="#d1d1d1" />
  <defs
     id="defs29" />
  <circle
     cx="32.516094"
     cy="31.877844"
     r="0"
     fill="url(#b)"
     stroke-width="1.5715"
     id="circle41"
     style="fill:url(#b)" />
  <g
     aria-label="GZ"
     transform="matrix(1.2212657,0,0,0.81882264,0.4960938,-0.1661539)"
     id="text93"
     style="font-weight:bold;font-size:11.5263px;line-height:1.25;font-family:sans-serif;-inkscape-font-specification:'sans-serif Bold';fill:#f2f2f2;stroke-width:0.288159" />
  <g
     id="g877"
     transform="matrix(1.1,0,0,1.1,-3.1845928,-3.2065454)">
    <circle
       style="opacity:1;fill:#414141;stroke:#dfdfdf;stroke-width:2.27272727;stroke-dasharray:none;fill-opacity:1;stroke-opacity:1"
       id="path1"
       cx="31.985994"
       cy="32.005951"
       r="25.454546" />
    <path
       style="fill:#dfdfdf;fill-opacity:1;stroke:none;stroke-width:0.459508;stroke-dasharray:none;stroke-opacity:0.6"
       d="m 20.986154,45.539276 c -0.773672,-0.222637 -1.61785,-0.842989 -2.063386,-1.516232 -0.990109,-1.496165 -0.805809,-3.308401 0.46577,-4.57998 0.380627,-0.380625 0.856856,-0.733421 1.058286,-0.783972 l 0.366238,-0.09192 v -6.548339 -6.548335 l -0.436741,-0.180905 c -0.57623,-0.238682 -1.335957,-0.993626 -1.681464,-1.670874 -0.882203,-1.729259 -0.25304,-3.783738 1.468647,-4.795758 0.611684,-0.359548 0.891083,-0.425666 1.784575,-0.422297 1.514296,0.0058 2.617184,0.655013 3.270654,1.925536 l 0.291882,0.567509 h 6.508102 6.508104 l 0.137473,-0.361527 c 0.415899,-1.093875 2.067391,-2.206831 3.278925,-2.209701 2.021754,-0.0048 3.714056,1.6324 3.726066,3.604725 0.0029,0.477338 -0.108216,1.126842 -0.250387,1.46354 -0.304515,0.721168 -1.173253,1.65108 -1.775631,1.900589 l -0.432525,0.179162 v 6.546382 6.546381 l 0.436733,0.180854 c 0.641202,0.265609 1.384138,1.047772 1.727014,1.818212 1.225124,2.752914 -1.41595,5.789213 -4.301191,4.944873 -0.976275,-0.285645 -1.84797,-0.97127 -2.258765,-1.776488 L 38.513176,43.140035 H 32.023205 25.53323 l -0.396095,0.675881 c -0.48854,0.833628 -1.213224,1.401573 -2.146934,1.682581 -0.805065,0.242354 -1.270913,0.251807 -2.004047,0.04081 z m 17.792307,-5.20239 0.254245,-0.533133 -0.878668,-0.887922 c -0.840084,-0.848935 -0.905467,-0.884327 -1.488913,-0.80608 -0.719046,0.09645 -1.486574,-0.251894 -1.785413,-0.810254 -0.194303,-0.363069 -0.203091,-0.364212 -2.799913,-0.364212 h -2.604995 l -0.62447,0.624474 c -0.59516,0.595158 -0.659447,0.621109 -1.369679,0.552862 -0.739896,-0.0711 -0.751417,-0.0653 -1.617376,0.80977 l -0.87217,0.881362 0.254227,0.533133 0.254236,0.533136 h 6.512335 6.512327 z M 25.07736,38.195016 c 0.836738,-0.827998 0.86492,-0.881631 0.781828,-1.487848 -0.100727,-0.734918 0.20647,-1.452841 0.783448,-1.830889 l 0.375189,-0.245833 v -2.627482 -2.627482 l -0.386074,-0.252965 c -0.582969,-0.381976 -0.873723,-1.05787 -0.772563,-1.795924 0.08318,-0.606801 0.05539,-0.659374 -0.79103,-1.496967 l -0.877234,-0.868074 -0.553912,0.264139 -0.553915,0.264146 v 6.465473 6.46547 l 0.491841,0.304068 c 0.270516,0.167253 0.523918,0.309712 0.563121,0.316571 0.03922,0.0072 0.461889,-0.373996 0.939301,-0.846425 z m 15.71105,-6.16833 -9e-4,-6.517238 -0.478717,-0.272534 -0.478721,-0.272528 -0.888541,0.877874 c -0.83862,0.828556 -0.883271,0.909215 -0.79501,1.435743 0.115117,0.686793 -0.275121,1.593462 -0.786103,1.826289 -0.352216,0.160477 -0.354384,0.177874 -0.354384,2.843807 v 2.682345 l 0.390977,0.256184 c 0.529222,0.346757 0.870295,1.201871 0.745251,1.868414 -0.09201,0.490764 -0.03883,0.588325 0.765272,1.400839 l 0.864216,0.87334 0.508838,-0.242616 0.50884,-0.242674 -9e-4,-6.517234 z m -5.932316,3.478921 c 0.09281,-0.203684 0.34209,-0.483923 0.553967,-0.622749 l 0.385231,-0.252415 v -2.620662 -2.620664 l -0.445056,-0.31691 c -0.24478,-0.174298 -0.487725,-0.45134 -0.539875,-0.615646 -0.0897,-0.282619 -0.239489,-0.29874 -2.776028,-0.29874 h -2.681216 l -0.262746,0.444797 c -0.144513,0.244646 -0.397548,0.487584 -0.562302,0.539875 -0.283752,0.09005 -0.299557,0.237339 -0.299557,2.791512 v 2.69644 l 0.38523,0.252418 c 0.211877,0.13883 0.461162,0.419062 0.553967,0.622745 l 0.168742,0.370332 h 2.675456 2.675459 z m -0.04571,-8.705875 c 0.05215,-0.164302 0.300073,-0.444896 0.550949,-0.623531 0.36277,-0.258314 0.606665,-0.31033 1.191586,-0.254126 0.72782,0.06993 0.744511,0.06152 1.60763,-0.810699 l 0.87217,-0.881371 -0.254215,-0.533131 -0.254244,-0.533128 h -6.49494 -6.494932 l -0.302069,0.511968 -0.30207,0.511968 0.889945,0.880654 c 0.843018,0.834226 0.925291,0.878485 1.56043,0.839425 0.79426,-0.04886 1.457182,0.254179 1.749009,0.79946 l 0.209392,0.391252 h 2.688271 c 2.543566,0 2.693376,-0.01604 2.783085,-0.29874 z"
       id="path2647" />
  </g>
</svg>
