<?xml version="1.0" encoding="UTF-8" standalone="no"?>
<svg
   width="64"
   height="64"
   version="1.1"
   id="svg73"
   sodipodi:docname="abcd.svg"
   inkscape:version="1.4.2 (ebf0e940d0, 2025-05-08)"
   xmlns:inkscape="http://www.inkscape.org/namespaces/inkscape"
   xmlns:sodipodi="http://sodipodi.sourceforge.net/DTD/sodipodi-0.dtd"
   xmlns="http://www.w3.org/2000/svg"
   xmlns:svg="http://www.w3.org/2000/svg"
   xmlns:rdf="http://www.w3.org/1999/02/22-rdf-syntax-ns#"
   xmlns:cc="http://creativecommons.org/ns#"
   xmlns:dc="http://purl.org/dc/elements/1.1/">
  <metadata
     id="metadata77">
    <rdf:RDF>
      <cc:Work
         rdf:about="">
        <dc:format>image/svg+xml</dc:format>
        <dc:type
           rdf:resource="http://purl.org/dc/dcmitype/StillImage" />
      </cc:Work>
    </rdf:RDF>
  </metadata>
  <sodipodi:namedview
     pagecolor="#f5f7fa"
     bordercolor="#666666"
     borderopacity="1"
     objecttolerance="10"
     gridtolerance="10"
     guidetolerance="10"
     inkscape:pageopacity="0"
     inkscape:pageshadow="2"
     inkscape:window-width="1377"
     inkscape:window-height="652"
     id="namedview75"
     showgrid="false"
     inkscape:zoom="6.2890624"
     inkscape:cx="47.701864"
     inkscape:cy="35.855901"
     inkscape:window-x="0"
     inkscape:window-y="134"
     inkscape:window-maximized="0"
     inkscape:current-layer="g877"
     inkscape:document-rotation="0"
     inkscape:pagecheckerboard="0"
     inkscape:showpageshadow="2"
     inkscape:deskcolor="#d1d1d1" />
  <defs
     id="defs29" />
  <circle
     cx="32.516094"
     cy="31.877844"
     r="0"
     fill="url(#b)"
     stroke-width="1.5715"
     id="circle41"
     style="fill:url(#b)" />
  <g
     aria-label="GZ"
     transform="matrix(1.2212657,0,0,0.81882264,0.4960938,-0.1661539)"
     id="text93"
     style="font-weight:bold;font-size:11.5263px;line-height:1.25;font-family:sans-serif;-inkscape-font-specification:'sans-serif Bold';fill:#f2f2f2;stroke-width:0.288159" />
  <g
     id="g877"
     transform="matrix(1.1,0,0,1.1,-3.1845928,-3.2065454)">
    <circle
       style="opacity:1;fill:#414141;stroke:#dfdfdf;stroke-width:2.27272727;stroke-dasharray:none;fill-opacity:1;stroke-opacity:1"
       id="path1"
       cx="31.985994"
       cy="32.005951"
       r="25.454546" />
    <path
       style="fill:#dfdfdf;fill-opacity:1;stroke:none;stroke-width:0.0707215"
       d="m 31.326106,46.049276 c -3.425358,-0.185669 -6.579352,-1.942627 -8.404522,-4.681804 -0.631551,-0.947823 -1.185475,-2.265915 -1.40244,-3.337174 -0.282631,-1.395506 -0.245831,-3.015263 0.09944,-4.376836 0.271996,-1.072613 0.818955,-2.356216 1.393611,-3.270525 0.531572,-0.845763 8.16202,-11.798389 8.398383,-12.054905 0.276391,-0.299961 0.421951,-0.38708 0.646743,-0.38708 0.138986,0 0.198192,0.03776 0.433153,0.276255 0.185113,0.187895 1.511112,2.064721 4.145581,5.867681 2.130377,3.075281 4.016721,5.810218 4.191869,6.077636 0.408966,0.624403 1.007169,1.840754 1.238609,2.518516 0.414158,1.212854 0.574516,2.150544 0.574819,3.361371 3.08e-4,1.199168 -0.118555,1.96685 -0.468636,3.026607 -1.063545,3.219559 -3.78957,5.702166 -7.278733,6.628781 -0.625662,0.166157 -1.471365,0.304528 -2.042942,0.334253 -0.243105,0.01263 -0.551407,0.02923 -0.685116,0.03628 -0.13371,0.0071 -0.511625,-0.0013 -0.839818,-0.01907 z m 1.547035,-3.95126 c 0.474955,-0.105446 1.180108,-0.346859 1.534701,-0.525429 0.547818,-0.275881 1.533136,-0.997498 1.460788,-1.069848 -0.01283,-0.01291 -0.249501,0.03674 -0.525937,0.110156 -0.628513,0.166925 -1.464571,0.303942 -2.070807,0.339421 -0.681712,0.03989 -1.79045,-0.04548 -2.312381,-0.178001 -1.638631,-0.416149 -2.961767,-1.615348 -3.493533,-3.166322 -0.698393,-2.03697 0.100719,-4.296801 1.948377,-5.509851 0.627803,-0.412174 1.211989,-0.632684 2.149705,-0.811438 0.473093,-0.09018 0.516987,-0.106339 0.442008,-0.162668 -0.163058,-0.122509 -0.57513,-0.312096 -0.945163,-0.434855 -0.351463,-0.116598 -0.424194,-0.124776 -1.127124,-0.126746 -0.655484,-0.0019 -0.796559,0.01084 -1.105025,0.09936 -1.571027,0.450782 -2.811815,1.778184 -3.375779,3.61142 -0.35848,1.165279 -0.368643,2.456431 -0.02818,3.580279 0.373737,1.233695 1.304016,2.44233 2.512938,3.264856 0.795253,0.541074 1.572274,0.838842 2.769565,1.061349 0.26609,0.04947 1.843056,-0.01015 2.165849,-0.08166 z m 0.399738,-2.915969 c 0.9862,-0.131305 2.304251,-0.49932 3.216344,-0.898038 1.26375,-0.552443 2.382832,-1.544316 2.903284,-2.573269 0.414764,-0.820008 0.469155,-1.656531 0.174501,-2.683729 -0.136063,-0.474314 -0.566788,-1.376358 -0.95623,-2.002569 -0.498991,-0.802361 -6.580925,-10.099466 -6.613107,-10.109079 -0.03099,-0.0093 -6.196689,9.40705 -6.196689,9.46358 0,0.01678 0.134262,-0.07742 0.298359,-0.209322 0.91761,-0.737579 2.003278,-1.224745 3.117524,-1.398911 0.456727,-0.07139 1.410183,-0.06136 1.877555,0.01971 1.01633,0.176352 2.148688,0.716201 2.616109,1.247219 0.655473,0.744655 0.608627,1.85209 -0.106973,2.528873 -0.369233,0.34921 -0.698806,0.483786 -1.365798,0.557702 -0.304556,0.03375 -0.651382,0.09036 -0.77072,0.125802 -1.798587,0.534123 -2.688403,2.560512 -1.866177,4.249862 0.350982,0.721126 1.019034,1.307674 1.761849,1.54689 0.5897,0.189909 1.183815,0.231971 1.910169,0.135265 z"
       id="path10" />
  </g>
</svg>
