<?xml version="1.0" encoding="UTF-8" standalone="no"?>
<svg
   width="64"
   height="64"
   version="1.1"
   id="svg73"
   sodipodi:docname="abcd.svg"
   inkscape:version="1.4.2 (ebf0e940d0, 2025-05-08)"
   xmlns:inkscape="http://www.inkscape.org/namespaces/inkscape"
   xmlns:sodipodi="http://sodipodi.sourceforge.net/DTD/sodipodi-0.dtd"
   xmlns="http://www.w3.org/2000/svg"
   xmlns:svg="http://www.w3.org/2000/svg"
   xmlns:rdf="http://www.w3.org/1999/02/22-rdf-syntax-ns#"
   xmlns:cc="http://creativecommons.org/ns#"
   xmlns:dc="http://purl.org/dc/elements/1.1/">
  <metadata
     id="metadata77">
    <rdf:RDF>
      <cc:Work
         rdf:about="">
        <dc:format>image/svg+xml</dc:format>
        <dc:type
           rdf:resource="http://purl.org/dc/dcmitype/StillImage" />
      </cc:Work>
    </rdf:RDF>
  </metadata>
  <sodipodi:namedview
     pagecolor="#f5f7fa"
     bordercolor="#666666"
     borderopacity="1"
     objecttolerance="10"
     gridtolerance="10"
     guidetolerance="10"
     inkscape:pageopacity="0"
     inkscape:pageshadow="2"
     inkscape:window-width="1377"
     inkscape:window-height="679"
     id="namedview75"
     showgrid="false"
     inkscape:zoom="6.2890624"
     inkscape:cx="47.622361"
     inkscape:cy="45.316771"
     inkscape:window-x="13"
     inkscape:window-y="130"
     inkscape:window-maximized="0"
     inkscape:current-layer="g877"
     inkscape:document-rotation="0"
     inkscape:pagecheckerboard="0"
     inkscape:showpageshadow="2"
     inkscape:deskcolor="#d1d1d1" />
  <defs
     id="defs29" />
  <circle
     cx="32.516094"
     cy="31.877844"
     r="0"
     fill="url(#b)"
     stroke-width="1.5715"
     id="circle41"
     style="fill:url(#b)" />
  <g
     aria-label="GZ"
     transform="matrix(1.2212657,0,0,0.81882264,0.4960938,-0.1661539)"
     id="text93"
     style="font-weight:bold;font-size:11.5263px;line-height:1.25;font-family:sans-serif;-inkscape-font-specification:'sans-serif Bold';fill:#f2f2f2;stroke-width:0.288159" />
  <g
     id="g877"
     transform="matrix(1.1,0,0,1.1,-3.1845928,-3.2065454)">
    <circle
       style="opacity:1;fill:#414141;stroke:#dfdfdf;stroke-width:2.27272727;stroke-dasharray:none;fill-opacity:1;stroke-opacity:1"
       id="path1"
       cx="31.985994"
       cy="32.005951"
       r="25.454546" />
    <path
       style="fill:#dfdfdf;fill-opacity:1;stroke:none;stroke-width:0.45;stroke-dasharray:none;stroke-opacity:0.6"
       d="m 43.330449,17.68065 a 2.7668742,3.0158552 0 0 0 -2.766875,3.015855 2.7668742,3.0158552 0 0 0 0.129665,0.907113 l -4.75013,5.67829 A 5.5337491,6.0317102 0 0 0 33.64639,26.728215 5.5337491,6.0317102 0 0 0 28.118045,32.562599 L 21.40351,33.60519 c -0.374353,-0.520186 -0.947117,-0.824195 -1.553663,-0.824649 -1.091653,7.15e-4 -1.976034,0.965979 -1.975182,2.155866 6.14e-4,1.188734 0.884582,2.152223 1.975182,2.152921 0.805847,-4.79e-4 1.530724,-0.534204 1.831972,-1.348892 l 6.728043,-1.048479 a 5.5337491,6.0317102 0 0 0 5.236528,4.09968 5.5337491,6.0317102 0 0 0 5.533749,-6.031712 5.5337491,6.0317102 0 0 0 -0.967328,-3.404616 l 4.744759,-5.675345 a 2.7668742,3.0158552 0 0 0 0.372879,0.03238 2.7668742,3.0158552 0 0 0 2.766874,-3.015855 2.7668742,3.0158552 0 0 0 -2.766874,-3.015848 z m -15.909527,1.507928 a 2.0751556,2.2618912 0 0 0 -2.075155,2.261891 2.0751556,2.2618912 0 0 0 2.075155,2.261891 2.0751556,2.2618912 0 0 0 2.075156,-2.261891 2.0751556,2.2618912 0 0 0 -2.075156,-2.261891 z m 15.909527,0 a 1.3834372,1.5079275 0 0 1 1.383438,1.507927 1.3834372,1.5079275 0 0 1 -1.383438,1.507928 1.3834372,1.5079275 0 0 1 -1.383436,-1.507928 1.3834372,1.5079275 0 0 1 1.383436,-1.507927 z m -14.028918,4.179196 -1.024065,0.821702 0.686314,1.069099 1.024067,-0.824646 z m 1.024069,1.596284 -1.021367,0.824648 0.899775,1.404846 1.024069,-0.824646 z m 3.32079,4.780011 a 2.7668742,3.0158552 0 0 1 2.766871,3.015856 2.7668742,3.0158552 0 0 1 -2.766871,3.015856 2.7668742,3.0158552 0 0 1 -2.766875,-3.015856 2.7668742,3.0158552 0 0 1 2.766875,-3.015856 z m -13.796543,4.114405 c 0.546352,-4.66e-4 0.989366,0.482414 0.988941,1.077933 4.27e-4,0.595517 -0.442589,1.078396 -0.988941,1.077931 -0.5453,-0.0012 -0.986668,-0.483563 -0.98624,-1.077931 -4.27e-4,-0.594368 0.440941,-1.076772 0.98624,-1.077933 z m 18.592641,2.827367 -0.964623,1.051423 1.245632,1.363616 0.970028,-1.05732 z m 1.699574,1.849566 -0.967325,1.054367 1.445581,1.572724 0.964628,-1.051426 z m -8.927495,0.16198 -0.861946,2.347303 1.237528,0.471226 0.859243,-2.344353 z m 11.770025,1.602173 a 2.4210149,2.6388729 0 0 0 -2.421018,2.63887 2.4210149,2.6388729 0 0 0 2.421018,2.638877 2.4210149,2.6388729 0 0 0 2.421013,-2.638877 2.4210149,2.6388729 0 0 0 -2.421013,-2.63887 z m -12.796796,1.507917 a 2.0751556,2.2618912 0 0 0 -2.075155,2.26189 2.0751556,2.2618912 0 0 0 2.075155,2.261891 2.0751556,2.2618912 0 0 0 2.075156,-2.261891 2.0751556,2.2618912 0 0 0 -2.075156,-2.26189 z"
       id="path8" />
    <g
       id="g2"
       style="fill:#dfdfdf;fill-opacity:1;stroke:none;stroke-opacity:0.6"
       transform="translate(-1.8181818e-7,1.7274047)" />
  </g>
</svg>
