<?xml version="1.0" encoding="UTF-8" standalone="no"?>
<svg
   width="64"
   height="64"
   version="1.1"
   id="svg73"
   sodipodi:docname="abcd.svg"
   inkscape:version="1.4.2 (ebf0e940d0, 2025-05-08)"
   xmlns:inkscape="http://www.inkscape.org/namespaces/inkscape"
   xmlns:sodipodi="http://sodipodi.sourceforge.net/DTD/sodipodi-0.dtd"
   xmlns="http://www.w3.org/2000/svg"
   xmlns:svg="http://www.w3.org/2000/svg"
   xmlns:rdf="http://www.w3.org/1999/02/22-rdf-syntax-ns#"
   xmlns:cc="http://creativecommons.org/ns#"
   xmlns:dc="http://purl.org/dc/elements/1.1/">
  <metadata
     id="metadata77">
    <rdf:RDF>
      <cc:Work
         rdf:about="">
        <dc:format>image/svg+xml</dc:format>
        <dc:type
           rdf:resource="http://purl.org/dc/dcmitype/StillImage" />
      </cc:Work>
    </rdf:RDF>
  </metadata>
  <sodipodi:namedview
     pagecolor="#f5f7fa"
     bordercolor="#666666"
     borderopacity="1"
     objecttolerance="10"
     gridtolerance="10"
     guidetolerance="10"
     inkscape:pageopacity="0"
     inkscape:pageshadow="2"
     inkscape:window-width="1377"
     inkscape:window-height="679"
     id="namedview75"
     showgrid="false"
     inkscape:zoom="6.2890624"
     inkscape:cx="47.622361"
     inkscape:cy="45.316771"
     inkscape:window-x="13"
     inkscape:window-y="130"
     inkscape:window-maximized="0"
     inkscape:current-layer="g877"
     inkscape:document-rotation="0"
     inkscape:pagecheckerboard="0"
     inkscape:showpageshadow="2"
     inkscape:deskcolor="#d1d1d1" />
  <defs
     id="defs29" />
  <circle
     cx="32.516094"
     cy="31.877844"
     r="0"
     fill="url(#b)"
     stroke-width="1.5715"
     id="circle41"
     style="fill:url(#b)" />
  <g
     aria-label="GZ"
     transform="matrix(1.2212657,0,0,0.81882264,0.4960938,-0.1661539)"
     id="text93"
     style="font-weight:bold;font-size:11.5263px;line-height:1.25;font-family:sans-serif;-inkscape-font-specification:'sans-serif Bold';fill:#f2f2f2;stroke-width:0.288159" />
  <g
     id="g877"
     transform="matrix(1.1,0,0,1.1,-3.1845928,-3.2065454)">
    <circle
       style="opacity:1;fill:#414141;stroke:#dfdfdf;stroke-width:2.27272727;stroke-dasharray:none;fill-opacity:1;stroke-opacity:1"
       id="path1"
       cx="31.985994"
       cy="32.005951"
       r="25.454546" />
    <path
       d="M 31.985992,17.814574 A 13.840277,14.191375 0 0 0 18.144864,32.005077 13.840277,14.191375 0 0 0 31.985992,46.197327 13.840277,14.191375 0 0 0 45.827123,32.005077 13.840277,14.191375 0 0 0 31.985992,17.814574 Z m 0,1.805367 a 12.079915,12.386359 0 0 1 5.549643,1.39618 l -1.825476,3.199803 a 8.4673481,8.6821469 0 0 0 -3.724167,-0.893257 8.4673481,8.6821469 0 0 0 -3.672666,0.871131 l -1.898688,-3.172569 a 12.079915,12.386359 0 0 1 5.571271,-1.401334 z m 0,5.416008 a 6.7967936,6.9692148 0 0 1 6.796625,6.969042 6.7967936,6.9692148 0 0 1 -6.796625,6.969035 6.7967936,6.9692148 0 0 1 -6.796624,-6.969035 6.7967936,6.9692148 0 0 1 6.796624,-6.969042 z m 10.70517,1.244486 a 12.079915,12.386359 0 0 1 1.3733,5.724556 12.079915,12.386359 0 0 1 -1.369982,5.709191 L 39.578778,35.835587 A 8.4673481,8.6821469 0 0 0 40.453254,32.004991 8.4673481,8.6821469 0 0 0 39.55384,28.1352 l 3.137234,-1.854765 z m -21.450345,0.09375 3.147281,1.808771 a 8.4673481,8.6821469 0 0 0 -0.86954,3.822042 8.4673481,8.6821469 0 0 0 0.894483,3.86298 l -3.143964,1.842812 a 12.079915,12.386359 0 0 1 -1.363341,-5.705792 12.079915,12.386359 0 0 1 1.335081,-5.630813 z m 7.016072,13.419789 a 8.4673481,8.6821469 0 0 0 3.729189,0.893259 8.4673481,8.6821469 0 0 0 3.664323,-0.867717 l 1.928568,3.157205 a 12.079915,12.386359 0 0 1 -5.592891,1.41495 12.079915,12.386359 0 0 1 -5.63111,-1.435374 l 1.902007,-3.162271 z"
       fill="url(#linearGradient898)"
       stroke-width="2.23747"
       id="path27"
       style="fill:#dfdfdf;fill-opacity:1;stroke:none;stroke-width:0.446513;stroke-dasharray:none;stroke-opacity:0.6" />
  </g>
</svg>
