<?xml version="1.0" encoding="UTF-8" standalone="no"?>
<svg
   width="64"
   height="64"
   version="1.1"
   id="svg73"
   sodipodi:docname="abcd.svg"
   inkscape:version="1.4.2 (ebf0e940d0, 2025-05-08)"
   xmlns:inkscape="http://www.inkscape.org/namespaces/inkscape"
   xmlns:sodipodi="http://sodipodi.sourceforge.net/DTD/sodipodi-0.dtd"
   xmlns="http://www.w3.org/2000/svg"
   xmlns:svg="http://www.w3.org/2000/svg"
   xmlns:rdf="http://www.w3.org/1999/02/22-rdf-syntax-ns#"
   xmlns:cc="http://creativecommons.org/ns#"
   xmlns:dc="http://purl.org/dc/elements/1.1/">
  <metadata
     id="metadata77">
    <rdf:RDF>
      <cc:Work
         rdf:about="">
        <dc:format>image/svg+xml</dc:format>
        <dc:type
           rdf:resource="http://purl.org/dc/dcmitype/StillImage" />
      </cc:Work>
    </rdf:RDF>
  </metadata>
  <sodipodi:namedview
     pagecolor="#f5f7fa"
     bordercolor="#666666"
     borderopacity="1"
     objecttolerance="10"
     gridtolerance="10"
     guidetolerance="10"
     inkscape:pageopacity="0"
     inkscape:pageshadow="2"
     inkscape:window-width="1377"
     inkscape:window-height="679"
     id="namedview75"
     showgrid="false"
     inkscape:zoom="6.2890624"
     inkscape:cx="47.622361"
     inkscape:cy="45.316771"
     inkscape:window-x="13"
     inkscape:window-y="130"
     inkscape:window-maximized="0"
     inkscape:current-layer="g877"
     inkscape:document-rotation="0"
     inkscape:pagecheckerboard="0"
     inkscape:showpageshadow="2"
     inkscape:deskcolor="#d1d1d1" />
  <defs
     id="defs29" />
  <circle
     cx="32.516094"
     cy="31.877844"
     r="0"
     fill="url(#b)"
     stroke-width="1.5715"
     id="circle41"
     style="fill:url(#b)" />
  <g
     aria-label="GZ"
     transform="matrix(1.2212657,0,0,0.81882264,0.4960938,-0.1661539)"
     id="text93"
     style="font-weight:bold;font-size:11.5263px;line-height:1.25;font-family:sans-serif;-inkscape-font-specification:'sans-serif Bold';fill:#f2f2f2;stroke-width:0.288159" />
  <g
     id="g877"
     transform="matrix(1.1,0,0,1.1,-3.1845928,-3.2065454)">
    <circle
       style="opacity:1;fill:#414141;stroke:#dfdfdf;stroke-width:2.27272727;stroke-dasharray:none;fill-opacity:1;stroke-opacity:1"
       id="path1"
       cx="31.985994"
       cy="32.005951"
       r="25.454546" />
    <path
       id="path40"
       style="fill:#dfdfdf;fill-opacity:1;stroke:none;stroke-width:0.42525;stroke-dasharray:none;stroke-opacity:0.6"
       d="m 32.239574,19.057225 c -2.443413,-0.0347 -4.939616,0.479231 -7.24132,1.613606 -7.411365,3.652624 -9.301252,12.170221 -3.958033,17.840097 l 0.714542,0.757956 -0.457669,2.286545 c -0.251471,1.257974 -0.459066,2.421464 -0.461288,2.585023 -0.0024,0.177998 0.102388,0.402684 0.258686,0.558977 0.14362,0.143602 0.370396,0.258653 0.504705,0.25687 0.134307,-0.0018 1.365857,-0.615057 2.736977,-1.363966 l 2.492764,-1.362152 0.848409,0.247813 c 2.908545,0.845594 6.697002,0.729326 9.61289,-0.294839 2.863984,-1.005961 5.400838,-2.899733 6.895803,-5.146532 0.696135,-1.046223 1.120438,-1.952859 1.505062,-3.216355 0.256755,-0.84352 0.285161,-1.105481 0.293038,-2.689947 0.01052,-2.093814 -0.170166,-2.923451 -1.003974,-4.641844 -2.243236,-4.622994 -7.365078,-7.354916 -12.740592,-7.431252 z m 3.380973,6.112523 3.111437,0.02895 c 3.031371,0.0275 3.111437,0.03332 3.111437,0.240595 0,0.178238 -0.09579,0.22439 -0.5843,0.284006 -0.445335,0.05436 -0.638846,0.136746 -0.823086,0.350941 l -0.242406,0.280394 v 4.03038 4.032204 l 0.242406,0.280393 c 0.184222,0.214197 0.377751,0.296594 0.823086,0.350943 0.488536,0.05962 0.5843,0.10577 0.5843,0.284005 0,0.207271 -0.08008,0.213122 -3.111437,0.240595 l -3.111437,0.02895 v -0.267729 c 0,-0.22082 0.04981,-0.267238 0.291244,-0.267729 0.490232,-0.0011 1.082011,-0.210811 1.195733,-0.423301 0.143048,-0.267231 0.146437,-8.242589 0.0035,-8.509412 -0.124782,-0.233151 -0.643117,-0.428725 -1.134228,-0.428725 -0.309875,0 -0.356366,-0.03513 -0.356366,-0.267731 z m -13.511224,0.0037 h 2.97938 2.97757 v 0.265919 c 0,0.233737 -0.0462,0.26592 -0.378075,0.26592 -0.532624,0 -0.961456,0.254216 -1.099856,0.65123 -0.06581,0.188817 -0.117584,1.035617 -0.117584,1.917512 v 1.579275 h 2.074893 2.074893 v -1.749306 c 0,-1.674009 -0.01099,-1.761846 -0.246019,-2.035095 -0.190642,-0.221634 -0.369125,-0.297091 -0.797758,-0.338279 -0.495336,-0.0476 -0.553546,-0.07932 -0.553546,-0.305716 V 25.17345 h 3.033649 3.031839 v 0.265916 c 0,0.233736 -0.04621,0.26592 -0.378075,0.26592 -0.532622,0 -0.961456,0.254216 -1.099857,0.65123 -0.0776,0.22255 -0.119394,1.606911 -0.119394,4.048483 0,4.23904 0.01949,4.355757 0.710926,4.54776 0.224087,0.06222 0.514155,0.11364 0.645805,0.113964 0.184243,4.59e-4 0.240594,0.06121 0.240594,0.265919 v 0.265917 H 32.05687 29.023221 v -0.251445 c 0,-0.222984 0.06384,-0.262097 0.54269,-0.325616 0.362887,-0.04813 0.626163,-0.15583 0.797759,-0.327428 0.251709,-0.251693 0.256875,-0.289919 0.256875,-2.176194 v -1.919373 h -2.074894 -2.074892 v 1.675109 c 8.41e-4,2.395893 0.0897,2.614873 1.112519,2.755066 0.418213,0.05732 0.482995,0.100621 0.482995,0.318382 v 0.251445 h -2.97757 -2.97938 V 35.34706 c 0,-0.222029 0.06298,-0.260522 0.526411,-0.321997 0.390286,-0.05178 0.583576,-0.141728 0.745297,-0.347323 0.211127,-0.268427 0.21708,-0.406353 0.21708,-4.260133 0,-2.648981 -0.03751,-4.053941 -0.113968,-4.196819 -0.131845,-0.246357 -0.70946,-0.515558 -1.105283,-0.515558 -0.216409,0 -0.269537,-0.05224 -0.269537,-0.265919 z" />
  </g>
</svg>
