<?xml version="1.0" encoding="UTF-8" standalone="no"?>
<svg
   width="64"
   height="64"
   version="1.1"
   id="svg73"
   sodipodi:docname="abcd.svg"
   inkscape:version="1.4.2 (ebf0e940d0, 2025-05-08)"
   xmlns:inkscape="http://www.inkscape.org/namespaces/inkscape"
   xmlns:sodipodi="http://sodipodi.sourceforge.net/DTD/sodipodi-0.dtd"
   xmlns="http://www.w3.org/2000/svg"
   xmlns:svg="http://www.w3.org/2000/svg"
   xmlns:rdf="http://www.w3.org/1999/02/22-rdf-syntax-ns#"
   xmlns:cc="http://creativecommons.org/ns#"
   xmlns:dc="http://purl.org/dc/elements/1.1/">
  <metadata
     id="metadata77">
    <rdf:RDF>
      <cc:Work
         rdf:about="">
        <dc:format>image/svg+xml</dc:format>
        <dc:type
           rdf:resource="http://purl.org/dc/dcmitype/StillImage" />
      </cc:Work>
    </rdf:RDF>
  </metadata>
  <sodipodi:namedview
     pagecolor="#f5f7fa"
     bordercolor="#666666"
     borderopacity="1"
     objecttolerance="10"
     gridtolerance="10"
     guidetolerance="10"
     inkscape:pageopacity="0"
     inkscape:pageshadow="2"
     inkscape:window-width="1377"
     inkscape:window-height="679"
     id="namedview75"
     showgrid="false"
     inkscape:zoom="6.2890624"
     inkscape:cx="47.622361"
     inkscape:cy="45.316771"
     inkscape:window-x="13"
     inkscape:window-y="130"
     inkscape:window-maximized="0"
     inkscape:current-layer="g877"
     inkscape:document-rotation="0"
     inkscape:pagecheckerboard="0"
     inkscape:showpageshadow="2"
     inkscape:deskcolor="#d1d1d1" />
  <defs
     id="defs29" />
  <circle
     cx="32.516094"
     cy="31.877844"
     r="0"
     fill="url(#b)"
     stroke-width="1.5715"
     id="circle41"
     style="fill:url(#b)" />
  <g
     aria-label="GZ"
     transform="matrix(1.2212657,0,0,0.81882264,0.4960938,-0.1661539)"
     id="text93"
     style="font-weight:bold;font-size:11.5263px;line-height:1.25;font-family:sans-serif;-inkscape-font-specification:'sans-serif Bold';fill:#f2f2f2;stroke-width:0.288159" />
  <g
     id="g877"
     transform="matrix(1.1,0,0,1.1,-3.1845928,-3.2065454)">
    <circle
       style="opacity:1;fill:#414141;stroke:#dfdfdf;stroke-width:2.27272727;stroke-dasharray:none;fill-opacity:1;stroke-opacity:1"
       id="path1"
       cx="31.985994"
       cy="32.005951"
       r="25.454546" />
    <path
       id="path6"
       style="fill:#dfdfdf;fill-opacity:1;stroke:none;stroke-width:0.4725;stroke-dasharray:none;stroke-opacity:0.6"
       d="m 31.985989,20.673344 c -6.380413,0 -12.760681,0.02205 -12.90899,0.06649 -0.291778,0.08743 -0.63351,0.409213 -0.780609,0.734746 l -0.125282,0.276413 V 32.007577 42.26415 l 0.136975,0.292135 c 0.148039,0.315675 0.448302,0.605556 0.733823,0.708883 0.251286,0.09095 25.550269,0.100852 25.853071,0.01006 0.291777,-0.08741 0.633501,-0.40921 0.7806,-0.734737 l 0.125302,-0.276419 V 32.007595 21.751015 l -0.125302,-0.276423 c -0.14709,-0.325535 -0.488827,-0.647329 -0.780598,-0.734747 -0.148291,-0.04443 -6.528581,-0.06649 -12.90899,-0.06649 z m 0,1.207239 c 5.810829,0 11.621679,0.01766 11.743614,0.05263 0.291486,0.08359 0.555855,0.301872 0.716587,0.591921 l 0.151148,0.272717 v 8.581782 c 0,8.266357 -0.0036,8.588514 -0.09761,8.764931 -0.168327,0.31678 -0.455074,0.5727 -0.73536,0.655936 C 43.38934,40.911874 20.54916,40.910088 20.191875,40.7983 19.925642,40.71528 19.649118,40.468559 19.487907,40.17037 L 19.37465,39.961002 V 31.37917 22.797391 l 0.151133,-0.27272 c 0.16073,-0.29005 0.42509,-0.508321 0.716584,-0.591921 0.121933,-0.03496 5.932789,-0.05264 11.743617,-0.05264 z m 5.669879,2.100196 c -0.819025,-1.5e-4 -1.788347,0.0017 -2.922665,0.0043 l -6.357838,0.01633 -0.209928,0.112348 c -0.279527,0.149726 -0.490592,0.36512 -0.60762,0.620238 -0.08446,0.184087 -0.09596,0.358872 -0.09698,1.450723 l -0.0022,1.241708 4.094516,0.01416 4.094805,0.01449 0.250875,0.124355 c 0.331314,0.164542 0.663495,0.494426 0.823398,0.817555 l 0.129264,0.261635 0.01494,2.995613 0.01494,2.995937 2.261478,-0.0022 c 2.07712,-0.0022 2.278737,-0.0088 2.472036,-0.09665 0.259534,-0.117899 0.501187,-0.353883 0.63225,-0.617785 0.09514,-0.191561 0.09939,-0.38487 0.09939,-4.621782 V 24.890718 L 42.199098,24.63986 c -0.18586,-0.315806 -0.489482,-0.537719 -0.838102,-0.612856 -0.14498,-0.0312 -1.248948,-0.046 -3.706047,-0.04646 z m -8.757227,4.442643 c -6.36863,0 -6.438447,0.0022 -6.610246,0.105876 -0.104866,0.06394 -0.214016,0.197379 -0.2758,0.337063 -0.09917,0.224174 -0.101872,0.361137 -0.08804,4.485727 0.0139,4.12458 0.01741,4.259364 0.116663,4.406019 0.05632,0.08316 0.174063,0.194984 0.261638,0.248365 0.152827,0.09319 0.41971,0.09709 6.637022,0.09725 h 6.477582 l 0.220402,-0.205309 0.220378,-0.205601 0.01355,-4.360144 c 0.01328,-4.278053 0.01144,-4.363277 -0.0911,-4.530609 -0.05741,-0.09383 -0.181332,-0.217392 -0.275136,-0.274583 -0.167738,-0.102277 -0.27645,-0.104041 -6.606861,-0.104041 z" />
    <g
       id="g2"
       style="fill:#dfdfdf;fill-opacity:1;stroke:none;stroke-opacity:0.6"
       transform="translate(-1.8181818e-7,1.7274047)" />
  </g>
</svg>
