<?xml version="1.0" encoding="UTF-8" standalone="no"?>
<svg
   width="64"
   height="64"
   version="1.1"
   id="svg73"
   sodipodi:docname="info.smplayer.SMPlayer.svg"
   inkscape:version="1.4.2 (ebf0e940d0, 2025-05-08)"
   xmlns:inkscape="http://www.inkscape.org/namespaces/inkscape"
   xmlns:sodipodi="http://sodipodi.sourceforge.net/DTD/sodipodi-0.dtd"
   xmlns="http://www.w3.org/2000/svg"
   xmlns:svg="http://www.w3.org/2000/svg"
   xmlns:rdf="http://www.w3.org/1999/02/22-rdf-syntax-ns#"
   xmlns:cc="http://creativecommons.org/ns#"
   xmlns:dc="http://purl.org/dc/elements/1.1/">
  <metadata
     id="metadata77">
    <rdf:RDF>
      <cc:Work
         rdf:about="">
        <dc:format>image/svg+xml</dc:format>
        <dc:type
           rdf:resource="http://purl.org/dc/dcmitype/StillImage" />
      </cc:Work>
    </rdf:RDF>
  </metadata>
  <sodipodi:namedview
     pagecolor="#f5f7fa"
     bordercolor="#666666"
     borderopacity="1"
     objecttolerance="10"
     gridtolerance="10"
     guidetolerance="10"
     inkscape:pageopacity="0"
     inkscape:pageshadow="2"
     inkscape:window-width="1377"
     inkscape:window-height="726"
     id="namedview75"
     showgrid="false"
     inkscape:zoom="6.2890624"
     inkscape:cx="47.622361"
     inkscape:cy="45.396274"
     inkscape:window-x="22"
     inkscape:window-y="80"
     inkscape:window-maximized="0"
     inkscape:current-layer="g877"
     inkscape:document-rotation="0"
     inkscape:pagecheckerboard="0"
     inkscape:showpageshadow="2"
     inkscape:deskcolor="#d1d1d1" />
  <defs
     id="defs29" />
  <circle
     cx="32.516094"
     cy="31.877844"
     r="0"
     fill="url(#b)"
     stroke-width="1.5715"
     id="circle41"
     style="fill:url(#b)" />
  <g
     aria-label="GZ"
     transform="matrix(1.2212657,0,0,0.81882264,0.4960938,-0.1661539)"
     id="text93"
     style="font-weight:bold;font-size:11.5263px;line-height:1.25;font-family:sans-serif;-inkscape-font-specification:'sans-serif Bold';fill:#f2f2f2;stroke-width:0.288159" />
  <g
     id="g877"
     transform="matrix(1.1,0,0,1.1,-3.1845928,-3.2065454)">
    <circle
       style="opacity:1;fill:#414141;stroke:#dfdfdf;stroke-width:2.27272727;stroke-dasharray:none;fill-opacity:1;stroke-opacity:1"
       id="path1"
       cx="31.985994"
       cy="32.005951"
       r="25.454546" />
    <path
       style="fill:#dfdfdf;fill-opacity:1;stroke:none;stroke-width:0.446513;stroke-dasharray:none;stroke-opacity:0.6"
       d="M 17.611334,32.00595 V 21.798004 H 31.985992 46.360653 V 32.00595 42.213896 H 31.985992 17.611334 Z m 13.204086,6.142842 v -2.077731 h -5.40806 -5.408053 v 2.077731 2.077721 h 5.408053 5.40806 z m 13.204086,-1.86e-4 v -2.077913 l -5.419765,0.0112 -5.419761,0.0112 -0.01219,2.06643 -0.01218,2.066433 h 5.431926 5.431935 V 38.148114 Z M 30.81542,32.00595 v -2.077723 h -5.40806 -5.408053 v 2.077724 2.077725 h 5.408053 5.40806 z m 13.204086,-1.8e-4 v -2.077912 l -5.419765,0.01154 -5.419761,0.01148 -0.01219,2.066433 -0.01218,2.06643 H 38.587565 44.0195 V 32.005766 Z M 30.81542,25.863116 v -2.077725 h -5.40806 -5.408053 v 2.077725 2.077726 h 5.408053 5.40806 z m 13.204086,-1.88e-4 v -2.077911 l -5.419765,0.01148 -5.419761,0.01148 -0.01219,2.066432 -0.01218,2.066433 h 5.431955 5.431935 v -2.077861 z"
       id="path2224" />
  </g>
</svg>
