<?xml version="1.0" encoding="UTF-8" standalone="no"?>
<svg
   width="64"
   height="64"
   version="1.1"
   id="svg73"
   sodipodi:docname="org.kde.dolphin.svg"
   inkscape:version="1.4.2 (ebf0e940d0, 2025-05-08)"
   xmlns:inkscape="http://www.inkscape.org/namespaces/inkscape"
   xmlns:sodipodi="http://sodipodi.sourceforge.net/DTD/sodipodi-0.dtd"
   xmlns="http://www.w3.org/2000/svg"
   xmlns:svg="http://www.w3.org/2000/svg"
   xmlns:rdf="http://www.w3.org/1999/02/22-rdf-syntax-ns#"
   xmlns:cc="http://creativecommons.org/ns#"
   xmlns:dc="http://purl.org/dc/elements/1.1/">
  <metadata
     id="metadata77">
    <rdf:RDF>
      <cc:Work
         rdf:about="">
        <dc:format>image/svg+xml</dc:format>
        <dc:type
           rdf:resource="http://purl.org/dc/dcmitype/StillImage" />
      </cc:Work>
    </rdf:RDF>
  </metadata>
  <sodipodi:namedview
     pagecolor="#f5f7fa"
     bordercolor="#666666"
     borderopacity="1"
     objecttolerance="10"
     gridtolerance="10"
     guidetolerance="10"
     inkscape:pageopacity="0"
     inkscape:pageshadow="2"
     inkscape:window-width="1377"
     inkscape:window-height="886"
     id="namedview75"
     showgrid="false"
     inkscape:zoom="6.2890624"
     inkscape:cx="47.622361"
     inkscape:cy="45.396274"
     inkscape:window-x="334"
     inkscape:window-y="75"
     inkscape:window-maximized="0"
     inkscape:current-layer="g877"
     inkscape:document-rotation="0"
     inkscape:pagecheckerboard="0"
     inkscape:showpageshadow="2"
     inkscape:deskcolor="#d1d1d1" />
  <defs
     id="defs29" />
  <circle
     cx="32.516094"
     cy="31.877844"
     r="0"
     fill="url(#b)"
     stroke-width="1.5715"
     id="circle41"
     style="fill:url(#b)" />
  <g
     aria-label="GZ"
     transform="matrix(1.2212657,0,0,0.81882264,0.4960938,-0.1661539)"
     id="text93"
     style="font-weight:bold;font-size:11.5263px;line-height:1.25;font-family:sans-serif;-inkscape-font-specification:'sans-serif Bold';fill:#f2f2f2;stroke-width:0.288159" />
  <g
     id="g877"
     transform="matrix(1.1,0,0,1.1,-3.1845928,-3.2065454)">
    <circle
       style="opacity:1;fill:#414141;stroke:#dfdfdf;stroke-width:2.27272727;stroke-dasharray:none;fill-opacity:1;stroke-opacity:1"
       id="path1"
       cx="31.985994"
       cy="32.005951"
       r="25.454546" />
    <path
       style="fill:#dfdfdf;fill-opacity:1;stroke:none;stroke-width:0.392972;stroke-dasharray:none;stroke-opacity:0.6"
       d="m 18.952586,44.06147 c -0.541184,-0.168777 -1.119185,-0.681361 -1.414629,-1.254553 -0.197685,-0.383535 -0.204804,-0.76424 -0.20255,-10.821504 0.0023,-9.917695 0.01201,-10.444803 0.200788,-10.852558 0.109122,-0.235718 0.33709,-0.55861 0.506581,-0.717536 0.633446,-0.593994 0.824751,-0.621762 4.283384,-0.621762 2.039797,0 3.322293,0.04308 3.579818,0.120232 0.279869,0.08384 0.704208,0.425349 1.402333,1.12855 0.679161,0.684094 1.205605,1.110536 1.637202,1.326209 l 0.636154,0.317891 7.938299,1.64e-4 c 7.345899,1.57e-4 7.965725,0.01414 8.305692,0.187505 0.202047,0.103041 0.467245,0.323453 0.589293,0.489823 0.220402,0.300454 0.221904,0.365038 0.221904,9.589353 0,7.373293 -0.0291,9.368283 -0.139936,9.68204 -0.07703,0.217378 -0.323528,0.584216 -0.54772,0.815254 -0.795857,0.82006 0.07264,0.772578 -13.983203,0.764546 -10.293072,-0.0059 -12.627787,-0.03339 -13.013279,-0.15371 z m 22.633889,-2.585939 0.28247,-0.282471 -0.0019,-4.619336 -0.0018,-4.619363 -1.470923,-1.580367 -1.470917,-1.580368 h -3.139608 -3.139601 l -0.262734,0.28351 -0.262739,0.283502 v 5.885494 5.885503 l 0.313186,0.313162 0.313188,0.313163 h 4.279377 4.279377 z"
       id="path10-0" />
  </g>
</svg>
