<?xml version="1.0" encoding="UTF-8" standalone="no"?>
<svg
   width="64"
   height="64"
   version="1.1"
   id="svg73"
   sodipodi:docname="accessories-text-editor.svg"
   inkscape:version="1.4.2 (ebf0e940d0, 2025-05-08)"
   xmlns:inkscape="http://www.inkscape.org/namespaces/inkscape"
   xmlns:sodipodi="http://sodipodi.sourceforge.net/DTD/sodipodi-0.dtd"
   xmlns="http://www.w3.org/2000/svg"
   xmlns:svg="http://www.w3.org/2000/svg"
   xmlns:rdf="http://www.w3.org/1999/02/22-rdf-syntax-ns#"
   xmlns:cc="http://creativecommons.org/ns#"
   xmlns:dc="http://purl.org/dc/elements/1.1/">
  <metadata
     id="metadata77">
    <rdf:RDF>
      <cc:Work
         rdf:about="">
        <dc:format>image/svg+xml</dc:format>
        <dc:type
           rdf:resource="http://purl.org/dc/dcmitype/StillImage" />
      </cc:Work>
    </rdf:RDF>
  </metadata>
  <sodipodi:namedview
     pagecolor="#f5f7fa"
     bordercolor="#666666"
     borderopacity="1"
     objecttolerance="10"
     gridtolerance="10"
     guidetolerance="10"
     inkscape:pageopacity="0"
     inkscape:pageshadow="2"
     inkscape:window-width="1377"
     inkscape:window-height="678"
     id="namedview75"
     showgrid="false"
     inkscape:zoom="6.2890624"
     inkscape:cx="47.622361"
     inkscape:cy="35.855901"
     inkscape:window-x="21"
     inkscape:window-y="79"
     inkscape:window-maximized="0"
     inkscape:current-layer="g877"
     inkscape:document-rotation="0"
     inkscape:pagecheckerboard="0"
     inkscape:showpageshadow="2"
     inkscape:deskcolor="#d1d1d1" />
  <defs
     id="defs29" />
  <circle
     cx="32.516094"
     cy="31.877844"
     r="0"
     fill="url(#b)"
     stroke-width="1.5715"
     id="circle41"
     style="fill:url(#b)" />
  <g
     aria-label="GZ"
     transform="matrix(1.2212657,0,0,0.81882264,0.4960938,-0.1661539)"
     id="text93"
     style="font-weight:bold;font-size:11.5263px;line-height:1.25;font-family:sans-serif;-inkscape-font-specification:'sans-serif Bold';fill:#f2f2f2;stroke-width:0.288159" />
  <g
     id="g877"
     transform="matrix(1.1,0,0,1.1,-3.1845928,-3.2065454)">
    <circle
       style="opacity:1;fill:#414141;stroke:#dfdfdf;stroke-width:2.27272727;stroke-dasharray:none;fill-opacity:1;stroke-opacity:1"
       id="path1"
       cx="31.985994"
       cy="32.005951"
       r="25.454546" />
    <path
       id="path52"
       style="fill:#dfdfdf;fill-opacity:1;stroke:none;stroke-width:0.379759;stroke-dasharray:none;stroke-dashoffset:2.2;stroke-opacity:0.6"
       d="m 32.327393,17.976452 c -0.284312,-0.0048 -0.572223,-3.83e-4 -0.864029,0.01149 -7.142202,0.290801 -12.819982,5.722697 -13.45279,12.870396 -0.66452,7.505933 4.908099,14.23685 12.498717,15.096555 3.991026,0.452021 8.184072,-0.979173 11.119349,-3.795216 3.313667,-3.179067 4.846536,-7.4739 4.266496,-11.948883 C 45.278732,25.45528 42.344196,21.404737 38.025002,19.348166 36.140228,18.450739 34.31757,18.00907 32.327393,17.976448 Z m -0.206911,7.440993 c 1.788171,-0.0014 2.960307,0.428104 3.952312,1.446433 0.594903,0.610693 1.034869,1.394748 1.302757,2.323874 0.179782,0.623464 0.198416,0.868668 0.19544,2.427328 -0.0028,1.476029 -0.03035,1.856112 -0.193482,2.553768 -0.23631,1.010365 -0.237823,1.09469 -0.0077,1.615025 0.225374,0.509477 0.23751,0.968841 0.03265,1.281672 -0.207576,0.316894 -1.494314,1.232661 -1.835289,1.306583 -0.391964,0.08498 -0.911694,-0.08071 -1.383211,-0.440635 -0.597275,-0.455914 -0.931379,-0.473325 -1.523066,-0.08049 -0.261876,0.173909 -0.688423,0.39772 -0.946409,0.496194 -0.68659,0.262033 -1.956219,0.304023 -2.613158,0.08617 -1.80158,-0.597352 -2.826638,-2.208027 -2.737889,-4.302848 0.02766,-0.6528 0.07883,-0.875578 0.308447,-1.365969 0.32522,-0.694575 0.92428,-1.308441 1.664834,-1.703154 0.772379,-0.41167 1.129612,-0.513012 2.314293,-0.659039 0.596999,-0.07357 1.213562,-0.187605 1.369802,-0.252882 0.591441,-0.247123 0.824342,-0.737933 0.492361,-1.038369 -0.326688,-0.295646 -0.719308,-0.329066 -2.109302,-0.17817 -1.548598,0.168109 -2.322291,0.142708 -2.57101,-0.08238 -0.445453,-0.403125 -0.608751,-1.413547 -0.333351,-2.063324 0.380806,-0.898474 1.96505,-1.368036 4.620924,-1.3698 z m 0.134108,7.370108 c -0.739286,-0.01172 -1.450373,0.666669 -1.235695,1.383211 0.119049,0.397341 0.46355,0.757768 0.825712,0.864031 0.510036,0.149647 1.125234,-0.08055 1.383214,-0.517269 0.328561,-0.556211 0.11122,-1.304285 -0.467457,-1.60353 -0.162428,-0.08399 -0.335167,-0.123739 -0.505774,-0.126443 z" />
  </g>
</svg>
