<?xml version="1.0" encoding="UTF-8" standalone="no"?>
<svg
   width="64"
   height="64"
   version="1.1"
   id="svg73"
   sodipodi:docname="accessories-text-editor.svg"
   inkscape:version="1.4.2 (ebf0e940d0, 2025-05-08)"
   xmlns:inkscape="http://www.inkscape.org/namespaces/inkscape"
   xmlns:sodipodi="http://sodipodi.sourceforge.net/DTD/sodipodi-0.dtd"
   xmlns="http://www.w3.org/2000/svg"
   xmlns:svg="http://www.w3.org/2000/svg"
   xmlns:rdf="http://www.w3.org/1999/02/22-rdf-syntax-ns#"
   xmlns:cc="http://creativecommons.org/ns#"
   xmlns:dc="http://purl.org/dc/elements/1.1/">
  <metadata
     id="metadata77">
    <rdf:RDF>
      <cc:Work
         rdf:about="">
        <dc:format>image/svg+xml</dc:format>
        <dc:type
           rdf:resource="http://purl.org/dc/dcmitype/StillImage" />
      </cc:Work>
    </rdf:RDF>
  </metadata>
  <sodipodi:namedview
     pagecolor="#f5f7fa"
     bordercolor="#666666"
     borderopacity="1"
     objecttolerance="10"
     gridtolerance="10"
     guidetolerance="10"
     inkscape:pageopacity="0"
     inkscape:pageshadow="2"
     inkscape:window-width="1377"
     inkscape:window-height="886"
     id="namedview75"
     showgrid="false"
     inkscape:zoom="6.2890624"
     inkscape:cx="47.622361"
     inkscape:cy="45.396274"
     inkscape:window-x="324"
     inkscape:window-y="75"
     inkscape:window-maximized="0"
     inkscape:current-layer="g877"
     inkscape:document-rotation="0"
     inkscape:pagecheckerboard="0"
     inkscape:showpageshadow="2"
     inkscape:deskcolor="#d1d1d1" />
  <defs
     id="defs29" />
  <circle
     cx="32.516094"
     cy="31.877844"
     r="0"
     fill="url(#b)"
     stroke-width="1.5715"
     id="circle41"
     style="fill:url(#b)" />
  <g
     aria-label="GZ"
     transform="matrix(1.2212657,0,0,0.81882264,0.4960938,-0.1661539)"
     id="text93"
     style="font-weight:bold;font-size:11.5263px;line-height:1.25;font-family:sans-serif;-inkscape-font-specification:'sans-serif Bold';fill:#f2f2f2;stroke-width:0.288159" />
  <g
     id="g877"
     transform="matrix(1.1,0,0,1.1,-3.1845928,-3.2065454)">
    <circle
       style="opacity:1;fill:#414141;stroke:#dfdfdf;stroke-width:2.27272727;stroke-dasharray:none;fill-opacity:1;stroke-opacity:1"
       id="path1"
       cx="31.985994"
       cy="32.005951"
       r="25.454546" />
    <path
       style="color:#444444;fill:#dfdfdf;fill-opacity:1;stroke:none;stroke-width:0.434234;stroke-dasharray:none;stroke-opacity:0.6"
       class="ColorScheme-Text"
       d="m 21.998107,21.110073 c 0,0 -3.631962,0 -3.631962,3.631958 v 14.527835 c 0,3.63196 3.631962,3.63196 3.631962,3.63196 h 19.975776 c 0,0 3.631959,0 3.631959,-3.63196 V 24.742031 c 0,-3.631958 -3.631959,-3.631958 -3.631959,-3.631958 z m 0.453995,3.631958 h 2.72397 c 0.251509,0 0.453991,0.202484 0.453991,0.453997 v 2.723968 c 0,0.25151 -0.202481,0.453996 -0.453991,0.453996 h -2.72397 c -0.251511,0 -0.453995,-0.202487 -0.453995,-0.453996 v -2.723968 c 0,-0.251503 0.20248,-0.453997 0.453995,-0.453997 z m 5.447938,0 h 2.723969 c 0.251507,0 0.453996,0.202484 0.453996,0.453997 v 2.723968 c 0,0.25151 -0.202484,0.453996 -0.453996,0.453996 H 27.90004 c -0.251513,0 -0.453996,-0.202487 -0.453996,-0.453996 v -2.723968 c 0,-0.251503 0.202484,-0.453997 0.453996,-0.453997 z m 5.447937,0 h 2.723969 c 0.251524,0 0.454,0.202484 0.454,0.453997 v 2.723968 c 0,0.25151 -0.202499,0.453996 -0.454,0.453996 h -2.723969 c -0.251502,0 -0.453994,-0.202487 -0.453994,-0.453996 v -2.723968 c 0,-0.251503 0.202484,-0.453997 0.453994,-0.453997 z m 5.447943,0 h 2.723967 c 0.251549,0 0.453996,0.202484 0.453996,0.453997 v 2.723968 c 0,0.25151 -0.2025,0.453996 -0.453996,0.453996 H 38.79592 c -0.251522,0 -0.453995,-0.202487 -0.453995,-0.453996 v -2.723968 c 0,-0.251503 0.202502,-0.453997 0.453995,-0.453997 z M 22.4521,30.189974 h 2.723972 c 0.251509,0 0.453991,0.202482 0.453991,0.453991 v 2.723968 c 0,0.25151 -0.202481,0.453996 -0.453991,0.453996 H 22.4521 c -0.25151,0 -0.453993,-0.202484 -0.453993,-0.453996 v -2.723968 c 0,-0.251511 0.20248,-0.453991 0.453993,-0.453991 z m 5.44794,0 h 2.723969 c 0.251507,0 0.453996,0.202482 0.453996,0.453991 v 2.723968 c 0,0.25151 -0.202484,0.453996 -0.453996,0.453996 H 27.90004 c -0.251513,0 -0.453996,-0.202484 -0.453996,-0.453996 v -2.723968 c 0,-0.251511 0.202484,-0.453991 0.453996,-0.453991 z m 5.447937,0 h 2.723969 c 0.251524,0 0.454,0.202482 0.454,0.453991 v 2.723968 c 0,0.25151 -0.202499,0.453996 -0.454,0.453996 h -2.723969 c -0.251502,0 -0.453994,-0.202484 -0.453994,-0.453996 v -2.723968 c 0,-0.251511 0.202484,-0.453991 0.453994,-0.453991 z m 5.447943,0 h 2.723967 c 0.251549,0 0.453996,0.202482 0.453996,0.453991 v 2.723968 c 0,0.25151 -0.2025,0.453996 -0.453996,0.453996 H 38.79592 c -0.251522,0 -0.453995,-0.202484 -0.453995,-0.453996 v -2.723968 c 0,-0.251511 0.202502,-0.453991 0.453995,-0.453991 z m -12.711863,5.447933 h 11.803871 c 0.251466,0 0.453997,0.202468 0.453997,0.453993 v 2.723969 c 0,0.251467 -0.202499,0.453997 -0.453997,0.453997 H 26.084057 c -0.251506,0 -0.453994,-0.202499 -0.453994,-0.453997 V 36.0919 c 0,-0.251498 0.202488,-0.453993 0.453994,-0.453993 z"
       id="path5" />
  </g>
</svg>
