<?xml version="1.0" encoding="UTF-8" standalone="no"?>
<svg
   width="64"
   height="64"
   version="1.1"
   id="svg73"
   sodipodi:docname="abcd.svg"
   inkscape:version="1.4.2 (ebf0e940d0, 2025-05-08)"
   xmlns:inkscape="http://www.inkscape.org/namespaces/inkscape"
   xmlns:sodipodi="http://sodipodi.sourceforge.net/DTD/sodipodi-0.dtd"
   xmlns="http://www.w3.org/2000/svg"
   xmlns:svg="http://www.w3.org/2000/svg"
   xmlns:rdf="http://www.w3.org/1999/02/22-rdf-syntax-ns#"
   xmlns:cc="http://creativecommons.org/ns#"
   xmlns:dc="http://purl.org/dc/elements/1.1/">
  <metadata
     id="metadata77">
    <rdf:RDF>
      <cc:Work
         rdf:about="">
        <dc:format>image/svg+xml</dc:format>
        <dc:type
           rdf:resource="http://purl.org/dc/dcmitype/StillImage" />
      </cc:Work>
    </rdf:RDF>
  </metadata>
  <sodipodi:namedview
     pagecolor="#f5f7fa"
     bordercolor="#666666"
     borderopacity="1"
     objecttolerance="10"
     gridtolerance="10"
     guidetolerance="10"
     inkscape:pageopacity="0"
     inkscape:pageshadow="2"
     inkscape:window-width="1377"
     inkscape:window-height="678"
     id="namedview75"
     showgrid="false"
     inkscape:zoom="4.4470387"
     inkscape:cx="47.559739"
     inkscape:cy="37.440646"
     inkscape:window-x="18"
     inkscape:window-y="126"
     inkscape:window-maximized="0"
     inkscape:current-layer="g877"
     inkscape:document-rotation="0"
     inkscape:pagecheckerboard="0"
     inkscape:showpageshadow="2"
     inkscape:deskcolor="#d1d1d1" />
  <defs
     id="defs29" />
  <circle
     cx="32.516094"
     cy="31.877844"
     r="0"
     fill="url(#b)"
     stroke-width="1.5715"
     id="circle41"
     style="fill:url(#b)" />
  <g
     aria-label="GZ"
     transform="matrix(1.2212657,0,0,0.81882264,0.4960938,-0.1661539)"
     id="text93"
     style="font-weight:bold;font-size:11.5263px;line-height:1.25;font-family:sans-serif;-inkscape-font-specification:'sans-serif Bold';fill:#f2f2f2;stroke-width:0.288159" />
  <g
     id="g877"
     transform="matrix(1.1,0,0,1.1,-3.1845928,-3.2065454)">
    <circle
       style="opacity:1;fill:#414141;stroke:#dfdfdf;stroke-width:2.27272727;stroke-dasharray:none;fill-opacity:1;stroke-opacity:1"
       id="path1"
       cx="31.985994"
       cy="32.005951"
       r="25.454546" />
    <path
       id="path51393"
       style="fill:#dfdfdf;fill-opacity:1;stroke:none;stroke-width:0.446513;stroke-dasharray:none;stroke-opacity:0.6"
       d="m 39.341717,23.625061 c -3.28829,-0.0057 -5.270747,1.843898 -6.070364,5.661796 -0.41554,1.984098 -0.410664,5.506431 0.01025,7.0687 0.595677,2.210901 1.864425,3.630613 3.536917,3.96087 1.361059,0.268764 3.025823,-0.25244 3.866844,-1.210314 1.057659,-1.204604 1.565615,-3.322765 1.27527,-5.314775 -0.196294,-1.347008 -0.642672,-2.269757 -1.468428,-3.030908 -0.70237,-0.647422 -1.342959,-0.873452 -2.461656,-0.870126 -1.035046,0.0032 -1.760137,0.361952 -2.547124,1.261596 l -0.654732,0.747043 V 31.25276 c 0,-0.968468 0.366001,-2.692441 0.743625,-3.502725 0.417515,-0.895878 1.088589,-1.581309 1.900942,-1.943679 0.7393,-0.329782 2.35439,-0.466282 3.095872,-0.261549 l 0.523091,0.143595 v -0.947051 c 0,-1.117528 0.005,-1.113316 -1.750506,-1.11629 z m -13.036493,0.01368 c -0.116663,5.74e-4 -0.236359,0.0041 -0.358991,0.01025 -1.029904,0.04987 -1.330679,0.123873 -2.042829,0.505993 -0.459261,0.246429 -1.080802,0.657684 -1.38297,0.912861 l -0.550453,0.463281 0.459851,0.716271 c 0.252741,0.393857 0.501039,0.716272 0.552161,0.716272 0.05114,0 0.322962,-0.189334 0.603448,-0.420531 0.801963,-0.661048 1.60439,-0.965861 2.559091,-0.969276 1.549231,-0.0057 2.304853,0.853423 2.29925,2.613795 -0.0062,2.007064 -0.375934,2.613224 -5.012194,8.239696 l -1.545372,1.877008 v 0.940219 0.940211 h 4.523287 4.523283 v -1.044489 -1.042779 h -3.35229 c -1.938269,0 -3.332961,-0.05377 -3.306135,-0.126513 0.02549,-0.06916 0.861428,-1.078371 1.856495,-2.242829 3.70111,-4.331153 4.333561,-5.549726 4.218997,-8.123454 -0.04776,-1.073054 -0.11732,-1.381275 -0.45985,-2.008639 -0.745882,-1.366113 -1.834869,-1.965995 -3.584779,-1.957352 z M 16.08595,27.803018 c -0.217289,-0.0019 -0.4492,0.109017 -0.676953,0.336767 L 15.0671,28.481681 v 3.466825 c 0,3.29655 0.01295,3.483967 0.287196,3.832654 0.443932,0.564367 1.108401,0.4731 1.456478,-0.20001 0.296797,-0.573946 0.296797,-6.641767 0,-7.215715 -0.191602,-0.3705 -0.445446,-0.560075 -0.724824,-0.562406 z m 31.869836,0 c -0.217277,-0.0019 -0.449192,0.109014 -0.676953,0.336767 l -0.341894,0.341895 v 3.466825 c 0,3.296561 0.01443,3.483967 0.288893,3.832654 0.443935,0.564371 1.108393,0.4731 1.456471,-0.20001 0.296778,-0.573949 0.296778,-6.641765 0,-7.215715 -0.191595,-0.370513 -0.447137,-0.560086 -0.726521,-0.562418 z m -10.246621,3.892486 c 1.011264,0 1.61204,0.347463 2.04796,1.182963 0.245353,0.470291 0.290611,0.805274 0.290611,2.157362 0,1.493348 -0.02608,1.643627 -0.381216,2.247961 -0.264407,0.449797 -0.564485,0.735934 -0.982946,0.938515 -0.68616,0.332161 -1.369067,0.365549 -1.976164,0.09573 -1.53741,-0.683306 -2.348796,-3.685636 -1.422288,-5.261778 0.538547,-0.916157 1.330792,-1.360746 2.424043,-1.360746 z" />
  </g>
</svg>
