<?xml version="1.0" encoding="UTF-8" standalone="no"?>
<svg
   width="64"
   height="64"
   version="1.1"
   id="svg73"
   sodipodi:docname="abcd.svg"
   inkscape:version="1.4.2 (ebf0e940d0, 2025-05-08)"
   xmlns:inkscape="http://www.inkscape.org/namespaces/inkscape"
   xmlns:sodipodi="http://sodipodi.sourceforge.net/DTD/sodipodi-0.dtd"
   xmlns="http://www.w3.org/2000/svg"
   xmlns:svg="http://www.w3.org/2000/svg"
   xmlns:rdf="http://www.w3.org/1999/02/22-rdf-syntax-ns#"
   xmlns:cc="http://creativecommons.org/ns#"
   xmlns:dc="http://purl.org/dc/elements/1.1/">
  <metadata
     id="metadata77">
    <rdf:RDF>
      <cc:Work
         rdf:about="">
        <dc:format>image/svg+xml</dc:format>
        <dc:type
           rdf:resource="http://purl.org/dc/dcmitype/StillImage" />
      </cc:Work>
    </rdf:RDF>
  </metadata>
  <sodipodi:namedview
     pagecolor="#f5f7fa"
     bordercolor="#666666"
     borderopacity="1"
     objecttolerance="10"
     gridtolerance="10"
     guidetolerance="10"
     inkscape:pageopacity="0"
     inkscape:pageshadow="2"
     inkscape:window-width="1377"
     inkscape:window-height="679"
     id="namedview75"
     showgrid="false"
     inkscape:zoom="6.2890624"
     inkscape:cx="47.622361"
     inkscape:cy="45.316771"
     inkscape:window-x="13"
     inkscape:window-y="130"
     inkscape:window-maximized="0"
     inkscape:current-layer="g877"
     inkscape:document-rotation="0"
     inkscape:pagecheckerboard="0"
     inkscape:showpageshadow="2"
     inkscape:deskcolor="#d1d1d1" />
  <defs
     id="defs29" />
  <circle
     cx="32.516094"
     cy="31.877844"
     r="0"
     fill="url(#b)"
     stroke-width="1.5715"
     id="circle41"
     style="fill:url(#b)" />
  <g
     aria-label="GZ"
     transform="matrix(1.2212657,0,0,0.81882264,0.4960938,-0.1661539)"
     id="text93"
     style="font-weight:bold;font-size:11.5263px;line-height:1.25;font-family:sans-serif;-inkscape-font-specification:'sans-serif Bold';fill:#f2f2f2;stroke-width:0.288159" />
  <g
     id="g877"
     transform="matrix(1.1,0,0,1.1,-3.1845928,-3.2065454)">
    <circle
       style="opacity:1;fill:#414141;stroke:#dfdfdf;stroke-width:2.27272727;stroke-dasharray:none;fill-opacity:1;stroke-opacity:1"
       id="path1"
       cx="31.985994"
       cy="32.005951"
       r="25.454546" />
    <path
       style="fill:#dfdfdf;fill-opacity:1;stroke-width:0.818182"
       d="m 28.552103,43.818508 c -5.718355,-1.55114 -10.578355,-2.970756 -10.8,-3.154706 -0.221644,-0.183948 -0.402989,-0.544054 -0.402989,-0.800236 0,-0.540701 2.233224,-9.00813 2.481989,-9.410641 0.275498,-0.445763 1.416136,-0.312409 4.587101,0.536291 3.382929,0.90543 4.023513,1.300958 3.794643,2.342997 -0.09784,0.445473 -0.01598,0.807452 0.228473,1.010333 0.498957,0.414098 5.033716,1.624915 5.462941,1.45865 0.18267,-0.07076 0.532827,-0.480263 0.778129,-0.910009 0.264428,-0.463251 0.661884,-0.781356 0.976264,-0.781356 0.976355,0 7.16451,1.79673 7.384866,2.144194 0.119667,0.188694 0.219379,0.478745 0.221584,0.644559 0.0086,0.650225 -2.346503,9.063271 -2.634225,9.409954 -0.168235,0.202711 -0.615456,0.359938 -0.993824,0.349394 -0.378367,-0.01055 -5.366596,-1.288286 -11.084952,-2.839424 z M 39.60366,33.14599 c -1.8,-0.506339 -3.42,-1.041223 -3.6,-1.188627 -0.18,-0.147407 -0.327274,-0.651523 -0.327274,-1.120258 0,-1.095334 -0.225037,-1.252031 -2.76692,-1.926647 -2.759166,-0.732285 -3.207468,-0.719467 -3.519266,0.100629 -0.138276,0.36369 -0.455213,0.739461 -0.704308,0.835047 -0.450779,0.17298 -5.460621,-0.993649 -7.082232,-1.649221 -0.614902,-0.248587 -0.850434,-0.511094 -0.849193,-0.94645 0.0026,-0.90563 2.251029,-9.063945 2.620853,-9.509554 0.17685,-0.213092 0.467394,-0.387441 0.645651,-0.387441 0.695139,0 21.955295,5.769722 22.293054,6.050037 0.510527,0.4237 0.488458,0.569599 -0.840095,5.554058 -1.122315,4.210694 -1.564993,5.189538 -2.320312,5.130657 -0.152477,-0.01189 -1.749958,-0.43589 -3.549958,-0.94223 z"
       id="path1-8" />
    <g
       id="g2"
       style="fill:#dfdfdf;fill-opacity:1;stroke:none;stroke-opacity:0.6"
       transform="translate(-1.8181818e-7,1.7274047)" />
  </g>
</svg>
