<?xml version="1.0" encoding="UTF-8" standalone="no"?>
<svg
   width="64"
   height="64"
   version="1.1"
   id="svg73"
   sodipodi:docname="abcd.svg"
   inkscape:version="1.4.2 (ebf0e940d0, 2025-05-08)"
   xmlns:inkscape="http://www.inkscape.org/namespaces/inkscape"
   xmlns:sodipodi="http://sodipodi.sourceforge.net/DTD/sodipodi-0.dtd"
   xmlns="http://www.w3.org/2000/svg"
   xmlns:svg="http://www.w3.org/2000/svg"
   xmlns:rdf="http://www.w3.org/1999/02/22-rdf-syntax-ns#"
   xmlns:cc="http://creativecommons.org/ns#"
   xmlns:dc="http://purl.org/dc/elements/1.1/">
  <metadata
     id="metadata77">
    <rdf:RDF>
      <cc:Work
         rdf:about="">
        <dc:format>image/svg+xml</dc:format>
        <dc:type
           rdf:resource="http://purl.org/dc/dcmitype/StillImage" />
      </cc:Work>
    </rdf:RDF>
  </metadata>
  <sodipodi:namedview
     pagecolor="#f5f7fa"
     bordercolor="#666666"
     borderopacity="1"
     objecttolerance="10"
     gridtolerance="10"
     guidetolerance="10"
     inkscape:pageopacity="0"
     inkscape:pageshadow="2"
     inkscape:window-width="1377"
     inkscape:window-height="678"
     id="namedview75"
     showgrid="false"
     inkscape:zoom="4.4470387"
     inkscape:cx="47.559739"
     inkscape:cy="37.440646"
     inkscape:window-x="18"
     inkscape:window-y="126"
     inkscape:window-maximized="0"
     inkscape:current-layer="g877"
     inkscape:document-rotation="0"
     inkscape:pagecheckerboard="0"
     inkscape:showpageshadow="2"
     inkscape:deskcolor="#d1d1d1" />
  <defs
     id="defs29" />
  <circle
     cx="32.516094"
     cy="31.877844"
     r="0"
     fill="url(#b)"
     stroke-width="1.5715"
     id="circle41"
     style="fill:url(#b)" />
  <g
     aria-label="GZ"
     transform="matrix(1.2212657,0,0,0.81882264,0.4960938,-0.1661539)"
     id="text93"
     style="font-weight:bold;font-size:11.5263px;line-height:1.25;font-family:sans-serif;-inkscape-font-specification:'sans-serif Bold';fill:#f2f2f2;stroke-width:0.288159" />
  <g
     id="g877"
     transform="matrix(1.1,0,0,1.1,-3.1845928,-3.2065454)">
    <circle
       style="opacity:1;fill:#414141;stroke:#dfdfdf;stroke-width:2.27272727;stroke-dasharray:none;fill-opacity:1;stroke-opacity:1"
       id="path1"
       cx="31.985994"
       cy="32.005951"
       r="25.454546" />
    <path
       style="fill:#dfdfdf;fill-opacity:1;stroke-width:0.777272"
       d="m 28.25025,18.015179 c -2.141746,0 -3.878008,1.740004 -3.878008,3.886365 0,2.146363 1.736262,3.886368 3.878008,3.886368 2.141749,0 3.878011,-1.740005 3.878011,-3.886368 0,-2.146361 -1.736262,-3.886365 -3.878011,-3.886365 z m -3.102407,9.327277 c -0.626578,-4.66e-4 -1.191929,0.376839 -1.433048,0.956404 l -3.878009,7.772731 c -0.85746,1.937898 2.092884,3.170654 2.863056,1.196287 l 1.720906,-4.135404 -0.0546,0.428107 v 10.881823 c 0,0.861219 0.691837,1.554547 1.551204,1.554547 h 0.0062 c 0.859367,0 1.551204,-0.693328 1.551204,-1.554547 l -0.0062,-6.218184 h 1.551204 l 0.0062,6.218184 c 8.55e-4,0.861219 0.691837,1.554547 1.551203,1.554547 0.859367,0 1.551205,-0.693328 1.551205,-1.554547 l -0.0062,-10.881823 -0.05755,-0.464547 1.733004,4.171782 c 0.346013,0.884584 1.395867,1.253959 2.217758,0.780304 l 2.372256,-0.127473 c -0.02063,0.101358 -0.06065,0.195966 -0.06065,0.303618 v 6.995459 c 0,0.430609 0.345917,0.777274 0.775601,0.777274 0.429684,0 0.775602,-0.346665 0.775602,-0.777274 l -0.0062,-3.886364 h 1.557253 l 0.0062,3.886364 c 6.67e-4,0.430609 0.345919,0.777274 0.775604,0.777274 0.429682,0 0.775602,-0.346665 0.775602,-0.777274 v -5.893285 l 1.772404,1.779178 c 0.73102,0.762925 1.858032,-0.366531 1.096764,-1.099127 l -3.096362,-3.109092 c -0.145503,-0.145816 -0.342677,-0.227663 -0.548366,-0.22771 h -2.893306 l -2.523808,0.03342 c 1.39e-4,-0.217527 -0.0453,-0.432676 -0.13325,-0.631534 L 32.78271,28.29884 c -0.2407,-0.578538 -0.804531,-0.955642 -1.430008,-0.956403 z m 15.505989,2.720456 c -1.494646,0 -2.714607,1.22259 -2.714607,2.720457 0,1.497867 1.219961,2.720457 2.714607,2.720457 1.494647,0 2.714606,-1.22259 2.714606,-2.720457 0,-1.497867 -1.219959,-2.720457 -2.714606,-2.720457 z"
       id="path1-9" />
  </g>
</svg>
