<?xml version="1.0" encoding="UTF-8" standalone="no"?>
<svg
   width="64"
   height="64"
   version="1.1"
   id="svg73"
   sodipodi:docname="org.xfce.appfinder.svg"
   inkscape:version="1.4.2 (ebf0e940d0, 2025-05-08)"
   xmlns:inkscape="http://www.inkscape.org/namespaces/inkscape"
   xmlns:sodipodi="http://sodipodi.sourceforge.net/DTD/sodipodi-0.dtd"
   xmlns="http://www.w3.org/2000/svg"
   xmlns:svg="http://www.w3.org/2000/svg"
   xmlns:rdf="http://www.w3.org/1999/02/22-rdf-syntax-ns#"
   xmlns:cc="http://creativecommons.org/ns#"
   xmlns:dc="http://purl.org/dc/elements/1.1/">
  <metadata
     id="metadata77">
    <rdf:RDF>
      <cc:Work
         rdf:about="">
        <dc:format>image/svg+xml</dc:format>
        <dc:type
           rdf:resource="http://purl.org/dc/dcmitype/StillImage" />
      </cc:Work>
    </rdf:RDF>
  </metadata>
  <sodipodi:namedview
     pagecolor="#f5f7fa"
     bordercolor="#666666"
     borderopacity="1"
     objecttolerance="10"
     gridtolerance="10"
     guidetolerance="10"
     inkscape:pageopacity="0"
     inkscape:pageshadow="2"
     inkscape:window-width="1377"
     inkscape:window-height="886"
     id="namedview75"
     showgrid="false"
     inkscape:zoom="6.2890625"
     inkscape:cx="48.258385"
     inkscape:cy="45.396273"
     inkscape:window-x="0"
     inkscape:window-y="47"
     inkscape:window-maximized="0"
     inkscape:current-layer="g877"
     inkscape:document-rotation="0"
     inkscape:pagecheckerboard="0"
     inkscape:showpageshadow="2"
     inkscape:deskcolor="#d1d1d1" />
  <defs
     id="defs29" />
  <circle
     cx="32.516094"
     cy="31.877844"
     r="0"
     fill="url(#b)"
     stroke-width="1.5715"
     id="circle41"
     style="fill:url(#b)" />
  <g
     aria-label="GZ"
     transform="matrix(1.2212657,0,0,0.81882264,0.4960938,-0.1661539)"
     id="text93"
     style="font-weight:bold;font-size:11.5263px;line-height:1.25;font-family:sans-serif;-inkscape-font-specification:'sans-serif Bold';fill:#f2f2f2;stroke-width:0.288159" />
  <g
     id="g877"
     transform="matrix(1.1,0,0,1.1,-3.1845928,-3.2065454)">
    <circle
       style="opacity:1;fill:#414141;stroke:#dfdfdf;stroke-width:2.27272727;stroke-dasharray:none;fill-opacity:1;stroke-opacity:1"
       id="path1"
       cx="31.985994"
       cy="32.005951"
       r="25.454546" />
    <path
       style="fill:#dfdfdf;fill-opacity:1;stroke:none;stroke-width:0.495001;stroke-dasharray:none;stroke-dashoffset:2.2;stroke-opacity:0.6"
       d="m 18.978844,44.091005 c -0.135831,-0.02567 -0.371095,-0.135292 -0.522826,-0.243248 -0.604117,-0.430169 -0.570782,0.258895 -0.570782,-11.797981 0,-10.652397 0.0064,-11.043912 0.189153,-11.39968 0.104031,-0.202636 0.33863,-0.457794 0.521329,-0.567026 0.327694,-0.195922 0.509103,-0.198603 13.439862,-0.198603 h 13.107681 l 0.324177,0.23125 c 0.660431,0.47106 0.619132,-0.319901 0.619132,11.855216 0,10.592926 -0.0077,11.068105 -0.185049,11.399678 -0.10174,0.190245 -0.336354,0.435379 -0.521323,0.54461 -0.331388,0.195687 -0.525727,0.198748 -13.245406,0.210654 -7.099994,0.0068 -13.02021,-0.0096 -13.156035,-0.03479 z m 24.172097,-2.518152 c 0.540858,-0.136251 1.09356,-0.587024 1.360042,-1.109356 0.164577,-0.322543 0.198346,-0.539504 0.167917,-1.078423 -0.04651,-0.822022 -0.392148,-1.387505 -1.065565,-1.743025 L 43.175683,37.410994 H 32.11607 c -9.757684,0 -11.102893,0.01824 -11.427425,0.153723 -1.335944,0.558204 -1.686302,2.247981 -0.698719,3.369935 0.682229,0.775055 -0.0244,0.73161 12.026505,0.739397 7.408828,0.0047 10.837481,-0.02629 11.13451,-0.101153 z"
       id="path90" />
    <circle
       style="fill:#414141;fill-opacity:1;stroke:#dfdfdf;stroke-width:1.08705;stroke-dasharray:none;stroke-opacity:1"
       id="path1-6"
       cx="48.320271"
       cy="48.287033"
       r="12.17483" />
    <path
       d="m 51.53908,46.486703 2.527032,-2.527026 -0.922835,-0.92284 -2.527039,2.527028 z m 3.855231,-2.527026 q 0,0.232906 -0.155257,0.388108 L 44.147715,55.439119 q -0.155259,0.155258 -0.388113,0.155258 -0.232904,0 -0.388112,-0.155258 l -1.707688,-1.70768 q -0.155258,-0.155258 -0.155258,-0.388109 0,-0.232869 0.155258,-0.388108 l 11.09134,-11.09134 q 0.155259,-0.155258 0.388116,-0.155258 0.232905,0 0.388104,0.155258 l 1.70769,1.707679 q 0.155257,0.155259 0.155257,0.388116 z m -11.651942,-1.63869 0.845222,0.258787 -0.845222,0.258787 -0.258785,0.845213 -0.258753,-0.845213 -0.845222,-0.258787 0.845222,-0.258787 0.258753,-0.845215 z m 3.018639,1.397194 1.690434,0.517485 -1.690434,0.517484 -0.517478,1.690433 -0.517487,-1.690433 -1.690432,-0.517484 1.690432,-0.517485 0.517487,-1.690429 z m 8.020954,4.1226 0.845215,0.258787 -0.845215,0.25875 -0.258751,0.845218 -0.258786,-0.845218 -0.845218,-0.25875 0.845218,-0.258787 0.258786,-0.84522 z m -5.519797,-5.519794 0.845215,0.258787 -0.845215,0.258787 -0.258786,0.845213 -0.258787,-0.845213 -0.845218,-0.258787 0.845218,-0.258787 0.258787,-0.845215 z"
       id="path1-3-3"
       style="overflow:hidden;fill:#dfdfdf;fill-opacity:1;stroke:none;stroke-width:0.473574;stroke-dasharray:none;stroke-opacity:0.6" />
  </g>
</svg>
