<?xml version="1.0" encoding="UTF-8" standalone="no"?>
<svg
   width="64"
   height="64"
   version="1.1"
   id="svg73"
   sodipodi:docname="accessories-text-editor.svg"
   inkscape:version="1.4.2 (ebf0e940d0, 2025-05-08)"
   xmlns:inkscape="http://www.inkscape.org/namespaces/inkscape"
   xmlns:sodipodi="http://sodipodi.sourceforge.net/DTD/sodipodi-0.dtd"
   xmlns="http://www.w3.org/2000/svg"
   xmlns:svg="http://www.w3.org/2000/svg"
   xmlns:rdf="http://www.w3.org/1999/02/22-rdf-syntax-ns#"
   xmlns:cc="http://creativecommons.org/ns#"
   xmlns:dc="http://purl.org/dc/elements/1.1/">
  <metadata
     id="metadata77">
    <rdf:RDF>
      <cc:Work
         rdf:about="">
        <dc:format>image/svg+xml</dc:format>
        <dc:type
           rdf:resource="http://purl.org/dc/dcmitype/StillImage" />
      </cc:Work>
    </rdf:RDF>
  </metadata>
  <sodipodi:namedview
     pagecolor="#f5f7fa"
     bordercolor="#666666"
     borderopacity="1"
     objecttolerance="10"
     gridtolerance="10"
     guidetolerance="10"
     inkscape:pageopacity="0"
     inkscape:pageshadow="2"
     inkscape:window-width="1377"
     inkscape:window-height="886"
     id="namedview75"
     showgrid="false"
     inkscape:zoom="6.2890624"
     inkscape:cx="47.622361"
     inkscape:cy="45.396274"
     inkscape:window-x="324"
     inkscape:window-y="75"
     inkscape:window-maximized="0"
     inkscape:current-layer="g877"
     inkscape:document-rotation="0"
     inkscape:pagecheckerboard="0"
     inkscape:showpageshadow="2"
     inkscape:deskcolor="#d1d1d1" />
  <defs
     id="defs29" />
  <circle
     cx="32.516094"
     cy="31.877844"
     r="0"
     fill="url(#b)"
     stroke-width="1.5715"
     id="circle41"
     style="fill:url(#b)" />
  <g
     aria-label="GZ"
     transform="matrix(1.2212657,0,0,0.81882264,0.4960938,-0.1661539)"
     id="text93"
     style="font-weight:bold;font-size:11.5263px;line-height:1.25;font-family:sans-serif;-inkscape-font-specification:'sans-serif Bold';fill:#f2f2f2;stroke-width:0.288159" />
  <g
     id="g877"
     transform="matrix(1.1,0,0,1.1,-3.1845928,-3.2065454)">
    <circle
       style="opacity:1;fill:#414141;stroke:#dfdfdf;stroke-width:2.27272727;stroke-dasharray:none;fill-opacity:1;stroke-opacity:1"
       id="path1"
       cx="31.985994"
       cy="32.005951"
       r="25.454546" />
    <path
       id="path8"
       style="fill:#dfdfdf;fill-opacity:1;stroke:none;stroke-width:0.39694;stroke-dasharray:none;stroke-opacity:0.6"
       d="m 31.842699,18.006029 c -0.280218,0.0091 -0.461103,0.09031 -0.692181,0.284748 -0.538003,0.4527 -0.536442,0.436953 -0.538363,4.40121 l -0.0018,3.561621 0.330526,-0.0595 c 0.411975,-0.07385 1.711281,-0.07712 2.102179,-0.0054 l 0.291156,0.0531 V 22.62527 c 0,-3.44971 -0.007,-3.63101 -0.153814,-3.918698 -0.206187,-0.404086 -0.560149,-0.642577 -1.019075,-0.686675 -0.121,-0.01162 -0.225217,-0.01678 -0.318623,-0.01374 z m 0.05219,8.770377 c -0.91113,-0.0012 -1.685026,0.218553 -2.529757,0.717818 -1.651498,0.976088 -2.575207,2.583595 -2.573707,4.478118 8.91e-4,0.937162 0.131234,1.486617 0.563084,2.373193 0.641212,1.316392 2.083144,2.45665 3.489289,2.758655 1.734343,0.372494 3.544609,-0.16179 4.812308,-1.420987 0.436338,-0.433407 0.69017,-0.769049 0.92291,-1.220473 0.494547,-0.959229 0.603221,-1.407369 0.601542,-2.490388 -0.0017,-1.051725 -0.07203,-1.367567 -0.499,-2.256915 -0.503269,-1.048274 -1.300195,-1.846578 -2.374107,-2.376853 -0.838336,-0.413954 -1.469179,-0.560996 -2.412565,-0.562168 z m -1.245194,2.657023 0.02012,2.396997 c 0.0113,1.318279 0.0042,2.441043 -0.01648,2.494966 -0.02069,0.05392 -0.07006,0.09797 -0.108953,0.09797 -0.03888,0 -0.451091,-0.266672 -0.916499,-0.592382 -1.819077,-1.273089 -2.364004,-1.693497 -2.364004,-1.825671 0,-0.139277 0.577365,-0.590552 2.374109,-1.857719 z m 2.712874,0.120854 c 0.308193,0.05955 3.305918,2.211082 3.376669,2.433623 0.02912,0.09191 -0.989604,0.877928 -2.482144,1.914486 -0.745306,0.51761 -0.84891,0.569326 -0.948543,0.469692 -0.09293,-0.09293 -0.06103,-4.758804 0.03297,-4.816884 0.0042,-0.0025 0.0111,-0.0028 0.02102,-9.9e-4 z m -2.756822,8.197225 0.022,3.653177 0.022,3.654093 0.218826,0.330528 c 0.137849,0.208252 0.339969,0.385866 0.544774,0.478851 0.535082,0.242945 1.074573,0.163515 1.475004,-0.21697 0.458588,-0.435793 0.445889,-0.319453 0.445889,-4.267541 v -3.631201 l -0.344259,0.05128 c -0.444264,0.06663 -1.591931,0.06674 -2.037174,0 z" />
  </g>
</svg>
