<?xml version="1.0" encoding="UTF-8" standalone="no"?>
<svg
   width="64"
   height="64"
   version="1.1"
   id="svg73"
   sodipodi:docname="abcd.svg"
   inkscape:version="1.4.2 (ebf0e940d0, 2025-05-08)"
   xmlns:inkscape="http://www.inkscape.org/namespaces/inkscape"
   xmlns:sodipodi="http://sodipodi.sourceforge.net/DTD/sodipodi-0.dtd"
   xmlns="http://www.w3.org/2000/svg"
   xmlns:svg="http://www.w3.org/2000/svg"
   xmlns:rdf="http://www.w3.org/1999/02/22-rdf-syntax-ns#"
   xmlns:cc="http://creativecommons.org/ns#"
   xmlns:dc="http://purl.org/dc/elements/1.1/">
  <metadata
     id="metadata77">
    <rdf:RDF>
      <cc:Work
         rdf:about="">
        <dc:format>image/svg+xml</dc:format>
        <dc:type
           rdf:resource="http://purl.org/dc/dcmitype/StillImage" />
      </cc:Work>
    </rdf:RDF>
  </metadata>
  <sodipodi:namedview
     pagecolor="#f5f7fa"
     bordercolor="#666666"
     borderopacity="1"
     objecttolerance="10"
     gridtolerance="10"
     guidetolerance="10"
     inkscape:pageopacity="0"
     inkscape:pageshadow="2"
     inkscape:window-width="1377"
     inkscape:window-height="679"
     id="namedview75"
     showgrid="false"
     inkscape:zoom="6.2890624"
     inkscape:cx="47.622361"
     inkscape:cy="45.316771"
     inkscape:window-x="13"
     inkscape:window-y="130"
     inkscape:window-maximized="0"
     inkscape:current-layer="g877"
     inkscape:document-rotation="0"
     inkscape:pagecheckerboard="0"
     inkscape:showpageshadow="2"
     inkscape:deskcolor="#d1d1d1" />
  <defs
     id="defs29" />
  <circle
     cx="32.516094"
     cy="31.877844"
     r="0"
     fill="url(#b)"
     stroke-width="1.5715"
     id="circle41"
     style="fill:url(#b)" />
  <g
     aria-label="GZ"
     transform="matrix(1.2212657,0,0,0.81882264,0.4960938,-0.1661539)"
     id="text93"
     style="font-weight:bold;font-size:11.5263px;line-height:1.25;font-family:sans-serif;-inkscape-font-specification:'sans-serif Bold';fill:#f2f2f2;stroke-width:0.288159" />
  <g
     id="g877"
     transform="matrix(1.1,0,0,1.1,-3.1845928,-3.2065454)">
    <circle
       style="opacity:1;fill:#414141;stroke:#dfdfdf;stroke-width:2.27272727;stroke-dasharray:none;fill-opacity:1;stroke-opacity:1"
       id="path1"
       cx="31.985994"
       cy="32.005951"
       r="25.454546" />
    <path
       id="path5"
       style="fill:#dfdfdf;fill-opacity:1;stroke:none;stroke-width:0.495001;stroke-dasharray:none;stroke-opacity:0.6"
       d="m 30.886523,17.432545 -5.544881,3.077635 c -4.08544,2.267308 -5.681506,3.215885 -6.064841,3.605816 -0.908513,0.924143 -0.912652,0.958714 -0.872425,8.136466 l 0.03495,6.275504 0.370959,0.668963 c 0.203557,0.367931 0.581227,0.822864 0.839542,1.010122 0.476131,0.345142 10.63826,6.038108 11.194576,6.271383 0.166324,0.06973 0.747479,0.113646 1.291681,0.09763 l 0.989571,-0.02907 5.30237,-2.947127 c 2.916231,-1.620882 5.545143,-3.120339 5.842886,-3.331456 0.319414,-0.226518 0.699313,-0.661107 0.925856,-1.061498 L 45.580058,38.52768 V 31.989396 25.451861 L 45.21628,24.793176 c -0.200447,-0.361833 -0.507871,-0.778208 -0.683352,-0.925858 -0.175491,-0.147653 -2.812417,-1.656311 -5.85932,-3.352004 L 33.133877,17.432543 H 32.00969 Z m -6.83348,5.612702 h 7.475726 7.475724 l 0.413092,0.413091 c 0.226703,0.226692 0.44888,0.560034 0.494273,0.740893 0.21047,0.83859 0.138045,0.938486 -5.332173,7.32878 l -5.253044,6.136779 5.319839,0.03198 5.320862,0.03198 v 1.603037 1.602011 H 32.49162 25.014868 l -0.412065,-0.412297 c -0.226693,-0.22671 -0.448875,-0.560034 -0.49427,-0.740892 -0.211972,-0.844563 -0.143556,-0.938767 5.332171,-7.332894 l 5.252017,-6.132663 -5.319837,-0.03186 -5.319841,-0.03289 v -1.602011 z" />
    <g
       id="g2"
       style="fill:#dfdfdf;fill-opacity:1;stroke:none;stroke-opacity:0.6"
       transform="translate(-1.8181818e-7,1.7274047)" />
  </g>
</svg>
