<?xml version="1.0" encoding="UTF-8" standalone="no"?>
<svg
   width="64"
   height="64"
   version="1.1"
   id="svg73"
   sodipodi:docname="pinentry.svg"
   inkscape:version="1.4.2 (ebf0e940d0, 2025-05-08)"
   xmlns:inkscape="http://www.inkscape.org/namespaces/inkscape"
   xmlns:sodipodi="http://sodipodi.sourceforge.net/DTD/sodipodi-0.dtd"
   xmlns="http://www.w3.org/2000/svg"
   xmlns:svg="http://www.w3.org/2000/svg"
   xmlns:rdf="http://www.w3.org/1999/02/22-rdf-syntax-ns#"
   xmlns:cc="http://creativecommons.org/ns#"
   xmlns:dc="http://purl.org/dc/elements/1.1/">
  <metadata
     id="metadata77">
    <rdf:RDF>
      <cc:Work
         rdf:about="">
        <dc:format>image/svg+xml</dc:format>
        <dc:type
           rdf:resource="http://purl.org/dc/dcmitype/StillImage" />
      </cc:Work>
    </rdf:RDF>
  </metadata>
  <sodipodi:namedview
     pagecolor="#f5f7fa"
     bordercolor="#666666"
     borderopacity="1"
     objecttolerance="10"
     gridtolerance="10"
     guidetolerance="10"
     inkscape:pageopacity="0"
     inkscape:pageshadow="2"
     inkscape:window-width="1377"
     inkscape:window-height="679"
     id="namedview75"
     showgrid="false"
     inkscape:zoom="6.2890624"
     inkscape:cx="47.622361"
     inkscape:cy="45.316771"
     inkscape:window-x="13"
     inkscape:window-y="130"
     inkscape:window-maximized="0"
     inkscape:current-layer="g877"
     inkscape:document-rotation="0"
     inkscape:pagecheckerboard="0"
     inkscape:showpageshadow="2"
     inkscape:deskcolor="#d1d1d1" />
  <defs
     id="defs29" />
  <circle
     cx="32.516094"
     cy="31.877844"
     r="0"
     fill="url(#b)"
     stroke-width="1.5715"
     id="circle41"
     style="fill:url(#b)" />
  <g
     aria-label="GZ"
     transform="matrix(1.2212657,0,0,0.81882264,0.4960938,-0.1661539)"
     id="text93"
     style="font-weight:bold;font-size:11.5263px;line-height:1.25;font-family:sans-serif;-inkscape-font-specification:'sans-serif Bold';fill:#f2f2f2;stroke-width:0.288159" />
  <g
     id="g877"
     transform="matrix(1.1,0,0,1.1,-3.1845928,-3.2065454)">
    <circle
       style="opacity:1;fill:#414141;stroke:#dfdfdf;stroke-width:2.27272727;stroke-dasharray:none;fill-opacity:1;stroke-opacity:1"
       id="path1"
       cx="31.985994"
       cy="32.005951"
       r="25.454546" />
    <path
       id="path11"
       style="fill:#dfdfdf;fill-opacity:1;stroke:none;stroke-width:0.45;stroke-dasharray:none;stroke-dashoffset:2.2;stroke-opacity:0.6"
       d="m 32.031074,17.835779 c -0.410083,0.0014 -0.815423,0.07689 -1.101094,0.227811 -0.61369,0.324221 -1.190947,0.906529 -1.477617,1.490273 -0.2172,0.442286 -0.257825,0.641599 -0.256285,1.26879 0.0014,0.621743 0.04231,0.821665 0.246798,1.210253 0.30672,0.582888 0.822866,1.101641 1.347889,1.355801 l 0.403418,0.196173 v 0.781524 0.783106 h -1.999691 -1.999687 v 0.884355 0.882773 h 1.999687 1.999687 v 3.855411 c 0,2.50474 -0.03361,3.946272 -0.09809,4.116445 -0.248337,0.655445 -0.972544,1.088115 -1.80826,1.078946 -0.666521,-0.0073 -2.607087,-0.393202 -3.689295,-0.732481 C 24.683087,34.94796 23.494029,34.35393 23.19068,34.031034 l -0.215158,-0.229395 h 0.84797 0.849552 l -1.43332,-1.354218 c -0.788176,-0.744523 -1.465316,-1.361392 -1.504512,-1.371623 -0.207335,-0.05413 -0.595727,1.649433 -0.727734,3.190957 l -0.06011,0.697677 0.469862,-0.45879 c 0.258234,-0.25276 0.482675,-0.441739 0.498341,-0.419238 0.01568,0.02251 0.08947,0.163916 0.164534,0.313243 0.07506,0.149329 0.343231,0.435526 0.596426,0.635976 0.799551,0.632994 1.828078,1.087319 4.608457,2.040817 0.894424,0.306736 1.833628,0.662776 2.086699,0.791018 0.25307,0.128242 0.94545,0.668045 1.537734,1.199181 0.592288,0.531129 1.099162,0.965868 1.126407,0.96662 0.02724,7.48e-4 0.550418,-0.440206 1.162793,-0.980858 0.612376,-0.540653 1.258971,-1.058977 1.438066,-1.151715 0.179096,-0.09277 1.247308,-0.492298 2.373048,-0.887526 3.168045,-1.112232 4.862285,-2.024159 5.034021,-2.708435 0.03095,-0.123443 0.08123,-0.223067 0.112316,-0.223067 0.03095,0 0.258247,0.197091 0.503085,0.438222 l 0.44455,0.438222 v -0.427147 c 0,-0.553715 -0.218385,-1.779973 -0.495173,-2.776465 l -0.219931,-0.791015 -1.38744,1.396934 -1.38586,1.395351 0.789431,0.04588 0.791015,0.04746 -0.583765,0.400254 c -1.069529,0.733646 -2.528509,1.224626 -4.74448,1.597848 -0.932757,0.157103 -1.215992,0.173711 -1.536151,0.0886 -0.539469,-0.143424 -0.981747,-0.431589 -1.19127,-0.775195 -0.165561,-0.271512 -0.17686,-0.528283 -0.177188,-4.266738 V 26.91664 h 1.953809 1.95381 V 26.033865 25.14951 H 34.916701 32.962893 V 24.367986 23.58488 l 0.504668,-0.284764 c 1.280363,-0.722593 1.822395,-2.4408 1.183359,-3.75416 -0.26784,-0.550466 -0.930988,-1.212337 -1.491856,-1.488694 -0.302528,-0.14906 -0.717902,-0.22278 -1.12799,-0.221483 z m -0.03955,1.941152 c 0.558602,-0.03525 1.064707,0.39745 1.064707,1.015664 0,0.301636 -0.0615,0.436437 -0.316407,0.691348 -0.254913,0.254912 -0.389709,0.316407 -0.691348,0.316407 -1.071644,0 -1.410835,-1.460551 -0.446133,-1.920587 0.129056,-0.06154 0.260269,-0.0947 0.389181,-0.102832 z m 8.460706,22.203811 c -1.230198,0 -2.461246,0.04076 -2.540742,0.120201 -0.07951,0.07948 -0.110708,0.653641 -0.110708,1.994937 0,1.696151 0.01639,1.893749 0.162939,1.979121 0.221106,0.128799 4.719765,0.133128 4.959668,0.005 0.168813,-0.09036 0.180348,-0.21353 0.180348,-1.982285 0,-1.342347 -0.03299,-1.917036 -0.112316,-1.996523 -0.07951,-0.07951 -1.308961,-0.120201 -2.539155,-0.120201 z m -16.8518,0.0077 c -2.094328,0 -2.461144,0.02164 -2.586622,0.147136 -0.122845,0.122861 -0.145547,0.433082 -0.145547,1.947481 0,1.756966 0.004,1.80629 0.205664,1.94748 0.17373,0.121717 0.577845,0.145559 2.528085,0.145559 2.02929,0 2.342953,-0.02041 2.4917,-0.155053 0.153825,-0.139189 0.170857,-0.328191 0.170857,-1.980702 0,-1.297498 -0.03307,-1.860311 -0.112325,-1.939567 -0.08115,-0.08117 -0.777919,-0.112315 -2.551812,-0.112315 z m 8.389512,0 c -1.767846,0 -2.462766,0.03129 -2.543906,0.112316 -0.07929,0.07929 -0.112325,0.643937 -0.112325,1.94748 0,1.544562 0.02409,1.857673 0.147127,1.980702 0.12524,0.125242 0.485606,0.147136 2.512265,0.147136 2.241731,0 2.3755,-0.01051 2.551816,-0.186688 0.172791,-0.172803 0.185096,-0.310706 0.185096,-1.923752 0,-1.485831 -0.02177,-1.760816 -0.153457,-1.906348 -0.141682,-0.156578 -0.348269,-0.170864 -2.586616,-0.170864 z" />
    <g
       id="g2"
       style="fill:#dfdfdf;fill-opacity:1;stroke:none;stroke-opacity:0.6"
       transform="translate(-1.8181818e-7,1.7274047)" />
  </g>
</svg>
