<?xml version="1.0" encoding="UTF-8" standalone="no"?>
<svg
   width="64"
   height="64"
   version="1.1"
   id="svg73"
   sodipodi:docname="pop-shop.svg"
   inkscape:version="1.4.2 (ebf0e940d0, 2025-05-08)"
   xmlns:inkscape="http://www.inkscape.org/namespaces/inkscape"
   xmlns:sodipodi="http://sodipodi.sourceforge.net/DTD/sodipodi-0.dtd"
   xmlns="http://www.w3.org/2000/svg"
   xmlns:svg="http://www.w3.org/2000/svg"
   xmlns:rdf="http://www.w3.org/1999/02/22-rdf-syntax-ns#"
   xmlns:cc="http://creativecommons.org/ns#"
   xmlns:dc="http://purl.org/dc/elements/1.1/">
  <metadata
     id="metadata77">
    <rdf:RDF>
      <cc:Work
         rdf:about="">
        <dc:format>image/svg+xml</dc:format>
        <dc:type
           rdf:resource="http://purl.org/dc/dcmitype/StillImage" />
      </cc:Work>
    </rdf:RDF>
  </metadata>
  <sodipodi:namedview
     pagecolor="#f5f7fa"
     bordercolor="#666666"
     borderopacity="1"
     objecttolerance="10"
     gridtolerance="10"
     guidetolerance="10"
     inkscape:pageopacity="0"
     inkscape:pageshadow="2"
     inkscape:window-width="1377"
     inkscape:window-height="886"
     id="namedview75"
     showgrid="false"
     inkscape:zoom="12.578125"
     inkscape:cx="47.821118"
     inkscape:cy="45.356522"
     inkscape:window-x="142"
     inkscape:window-y="75"
     inkscape:window-maximized="0"
     inkscape:current-layer="g877"
     inkscape:document-rotation="0"
     inkscape:pagecheckerboard="0"
     inkscape:showpageshadow="2"
     inkscape:deskcolor="#d1d1d1" />
  <defs
     id="defs29" />
  <circle
     cx="32.516094"
     cy="31.877844"
     r="0"
     fill="url(#b)"
     stroke-width="1.5715"
     id="circle41"
     style="fill:url(#b)" />
  <g
     aria-label="GZ"
     transform="matrix(1.2212657,0,0,0.81882264,0.4960938,-0.1661539)"
     id="text93"
     style="font-weight:bold;font-size:11.5263px;line-height:1.25;font-family:sans-serif;-inkscape-font-specification:'sans-serif Bold';fill:#f2f2f2;stroke-width:0.288159" />
  <g
     id="g877"
     transform="matrix(1.1,0,0,1.1,-3.1845928,-3.2065454)">
    <circle
       style="opacity:1;fill:#414141;stroke:#dfdfdf;stroke-width:2.27272727;stroke-dasharray:none;fill-opacity:1;stroke-opacity:1"
       id="path1"
       cx="31.985994"
       cy="32.005951"
       r="25.454546" />
    <path
       style="fill:#dfdfdf;fill-opacity:1;stroke:none;stroke-width:0.47074;stroke-dasharray:none;stroke-opacity:0.6"
       d="m 27.670308,18.428515 -2.157847,2.157845 v 3.236765 h -8.631374 v 19.960059 c 0,0.896593 0.7218,1.618382 1.618383,1.618382 h 26.97305 c 0.89658,0 1.618384,-0.721789 1.618384,-1.618382 V 23.823125 h -8.63137 V 20.58636 l -2.157851,-2.157844 z m 0,2.157845 h 8.631375 v 3.236765 h -8.631375 z"
       id="path4" />
    <circle
       style="fill:#414141;fill-opacity:1;stroke:#dfdfdf;stroke-width:1.08705;stroke-dasharray:none;stroke-opacity:1"
       id="path1-6"
       cx="48.320271"
       cy="48.287033"
       r="12.17483" />
    <path
       style="fill:#dfdfdf;fill-opacity:1;stroke:none;stroke-width:0.4455;stroke-dasharray:none;stroke-opacity:0.6"
       d="m 47.770991,55.259365 c -0.215712,-0.123929 -5.344354,-4.838043 -6.154999,-5.65751 -0.570827,-0.577042 -0.610248,-0.860513 -0.18574,-1.335824 l 0.295463,-0.330902 2.237423,-0.0339 2.237416,-0.0339 V 45.40521 42.943085 l 0.283095,-0.541922 c 0.868456,-1.66241 2.988187,-1.467797 3.623425,0.332655 0.111345,0.315546 0.146185,0.978316 0.146185,2.782435 v 2.36821 l 2.001006,0.0057 c 2.171421,0.0065 2.564147,0.07608 2.888756,0.51405 0.395169,0.533147 0.297575,0.65354 -3.037093,3.746064 -1.706239,1.582349 -3.220032,2.956487 -3.363989,3.053638 -0.300025,0.202455 -0.677444,0.224007 -0.970941,0.05539 z"
       id="path5" />
  </g>
</svg>
