<?xml version="1.0" encoding="UTF-8" standalone="no"?>
<svg
   width="64"
   height="64"
   version="1.1"
   id="svg73"
   sodipodi:docname="accessories-text-editor.svg"
   inkscape:version="1.4.2 (ebf0e940d0, 2025-05-08)"
   xmlns:inkscape="http://www.inkscape.org/namespaces/inkscape"
   xmlns:sodipodi="http://sodipodi.sourceforge.net/DTD/sodipodi-0.dtd"
   xmlns="http://www.w3.org/2000/svg"
   xmlns:svg="http://www.w3.org/2000/svg"
   xmlns:rdf="http://www.w3.org/1999/02/22-rdf-syntax-ns#"
   xmlns:cc="http://creativecommons.org/ns#"
   xmlns:dc="http://purl.org/dc/elements/1.1/">
  <metadata
     id="metadata77">
    <rdf:RDF>
      <cc:Work
         rdf:about="">
        <dc:format>image/svg+xml</dc:format>
        <dc:type
           rdf:resource="http://purl.org/dc/dcmitype/StillImage" />
      </cc:Work>
    </rdf:RDF>
  </metadata>
  <sodipodi:namedview
     pagecolor="#f5f7fa"
     bordercolor="#666666"
     borderopacity="1"
     objecttolerance="10"
     gridtolerance="10"
     guidetolerance="10"
     inkscape:pageopacity="0"
     inkscape:pageshadow="2"
     inkscape:window-width="1377"
     inkscape:window-height="886"
     id="namedview75"
     showgrid="false"
     inkscape:zoom="6.2890624"
     inkscape:cx="47.622361"
     inkscape:cy="45.396274"
     inkscape:window-x="324"
     inkscape:window-y="75"
     inkscape:window-maximized="0"
     inkscape:current-layer="g877"
     inkscape:document-rotation="0"
     inkscape:pagecheckerboard="0"
     inkscape:showpageshadow="2"
     inkscape:deskcolor="#d1d1d1" />
  <defs
     id="defs29" />
  <circle
     cx="32.516094"
     cy="31.877844"
     r="0"
     fill="url(#b)"
     stroke-width="1.5715"
     id="circle41"
     style="fill:url(#b)" />
  <g
     aria-label="GZ"
     transform="matrix(1.2212657,0,0,0.81882264,0.4960938,-0.1661539)"
     id="text93"
     style="font-weight:bold;font-size:11.5263px;line-height:1.25;font-family:sans-serif;-inkscape-font-specification:'sans-serif Bold';fill:#f2f2f2;stroke-width:0.288159" />
  <g
     id="g877"
     transform="matrix(1.1,0,0,1.1,-3.1845928,-3.2065454)">
    <circle
       style="opacity:1;fill:#414141;stroke:#dfdfdf;stroke-width:2.27272727;stroke-dasharray:none;fill-opacity:1;stroke-opacity:1"
       id="path1"
       cx="31.985994"
       cy="32.005951"
       r="25.454546" />
    <path
       id="path19"
       style="fill:#dfdfdf;fill-opacity:1;stroke:none;stroke-width:0.413556;stroke-dasharray:none;stroke-dashoffset:2.2;stroke-opacity:0.6"
       d="m 28.399561,20.522633 c -0.723222,0.0088 -1.455774,0.171342 -2.155324,0.506491 -3.322474,1.591751 -4.06196,5.863415 -1.45753,8.424526 0.78663,0.773544 1.607979,1.226531 2.61991,1.446599 0.830772,0.180671 1.158352,0.188968 1.949447,0.04553 1.925471,-0.349064 3.613979,-1.863279 4.163071,-3.734922 0.258956,-0.882662 0.221952,-2.258433 -0.08378,-3.12458 -0.788112,-2.232535 -2.866115,-3.590135 -5.035768,-3.563654 z m 8.859965,3.44888 c -0.396909,0.0061 -0.796699,0.06494 -1.191537,0.182194 l -0.553857,0.163978 0.06557,0.938286 c 0.122882,1.730845 -0.522935,3.787047 -1.559553,4.964708 -0.240896,0.27367 -0.439081,0.540218 -0.439081,0.592121 0,0.123965 1.046099,1.126961 1.408335,1.350037 0.155559,0.0958 0.565617,0.273211 0.910964,0.395357 0.969819,0.343019 2.317742,0.267145 3.281263,-0.184009 0.961458,-0.450196 1.809714,-1.264523 2.250057,-2.15897 0.32412,-0.658349 0.346155,-0.776217 0.346155,-1.832841 0,-1.054058 -0.0227,-1.175932 -0.342524,-1.823735 -0.806607,-1.63573 -2.455878,-2.613301 -4.175803,-2.587123 z m -0.714197,10.73289 0.524711,0.346162 c 1.211845,0.802688 2.305128,2.042069 2.977012,3.370531 0.362684,0.717124 0.819859,2.295948 0.819859,2.831251 v 0.415405 h 2.63631 2.636301 l -0.03638,-1.264419 c -0.03642,-1.209331 -0.05711,-1.300421 -0.440928,-2.076968 -1.142041,-2.310389 -4.058611,-3.621962 -8.051056,-3.621962 z m -7.907097,0.02006 c -0.257446,2.39e-4 -0.520066,0.0049 -0.788889,0.0127 -2.248961,0.06602 -3.329629,0.246457 -4.868151,0.812558 -3.345161,1.230883 -5.145181,3.735286 -5.148729,7.16378 v 0.776136 H 28.43964 39.046821 v -1.102255 c 0,-2.063101 -0.583952,-3.474932 -2.024153,-4.900933 -1.921456,-1.902532 -4.522723,-2.765725 -8.384436,-2.762028 z" />
  </g>
</svg>
