<?xml version="1.0" encoding="UTF-8" standalone="no"?>
<svg
   width="64"
   height="64"
   version="1.1"
   id="svg73"
   sodipodi:docname="abcd.svg"
   inkscape:version="1.4.2 (ebf0e940d0, 2025-05-08)"
   xmlns:inkscape="http://www.inkscape.org/namespaces/inkscape"
   xmlns:sodipodi="http://sodipodi.sourceforge.net/DTD/sodipodi-0.dtd"
   xmlns="http://www.w3.org/2000/svg"
   xmlns:svg="http://www.w3.org/2000/svg"
   xmlns:rdf="http://www.w3.org/1999/02/22-rdf-syntax-ns#"
   xmlns:cc="http://creativecommons.org/ns#"
   xmlns:dc="http://purl.org/dc/elements/1.1/">
  <metadata
     id="metadata77">
    <rdf:RDF>
      <cc:Work
         rdf:about="">
        <dc:format>image/svg+xml</dc:format>
        <dc:type
           rdf:resource="http://purl.org/dc/dcmitype/StillImage" />
      </cc:Work>
    </rdf:RDF>
  </metadata>
  <sodipodi:namedview
     pagecolor="#f5f7fa"
     bordercolor="#666666"
     borderopacity="1"
     objecttolerance="10"
     gridtolerance="10"
     guidetolerance="10"
     inkscape:pageopacity="0"
     inkscape:pageshadow="2"
     inkscape:window-width="1377"
     inkscape:window-height="679"
     id="namedview75"
     showgrid="false"
     inkscape:zoom="6.2890624"
     inkscape:cx="47.622361"
     inkscape:cy="45.316771"
     inkscape:window-x="13"
     inkscape:window-y="130"
     inkscape:window-maximized="0"
     inkscape:current-layer="g877"
     inkscape:document-rotation="0"
     inkscape:pagecheckerboard="0"
     inkscape:showpageshadow="2"
     inkscape:deskcolor="#d1d1d1" />
  <defs
     id="defs29" />
  <circle
     cx="32.516094"
     cy="31.877844"
     r="0"
     fill="url(#b)"
     stroke-width="1.5715"
     id="circle41"
     style="fill:url(#b)" />
  <g
     aria-label="GZ"
     transform="matrix(1.2212657,0,0,0.81882264,0.4960938,-0.1661539)"
     id="text93"
     style="font-weight:bold;font-size:11.5263px;line-height:1.25;font-family:sans-serif;-inkscape-font-specification:'sans-serif Bold';fill:#f2f2f2;stroke-width:0.288159" />
  <g
     id="g877"
     transform="matrix(1.1,0,0,1.1,-3.1845928,-3.2065454)">
    <circle
       style="opacity:1;fill:#414141;stroke:#dfdfdf;stroke-width:2.27272727;stroke-dasharray:none;fill-opacity:1;stroke-opacity:1"
       id="path1"
       cx="31.985994"
       cy="32.005951"
       r="25.454546" />
    <path
       style="fill:#dfdfdf;fill-opacity:1;stroke:none;stroke-width:0.841995;stroke-dasharray:none;stroke-dashoffset:2.2;stroke-opacity:0.3"
       d="m 18.92716,43.605863 c -0.716358,-0.436785 -0.675974,0.298694 -0.64494,-11.746027 0.0276,-10.724704 0.0314,-10.899243 0.240841,-11.134098 0.488797,-0.548138 -0.0154,-0.528378 13.482248,-0.528378 11.985113,0 12.602108,0.0093 12.947293,0.194392 0.199334,0.106911 0.449933,0.357498 0.556848,0.556848 0.184625,0.344205 0.194366,0.903817 0.194009,11.108773 -3.87e-4,10.470699 -0.0061,10.755051 -0.208102,11.086893 -0.43615,0.715312 0.477767,0.670095 -13.536222,0.669663 -12.399872,-3.93e-4 -12.699243,-0.005 -13.031997,-0.208102 z M 43.448915,26.447225 c 1.075427,-0.711747 1.243922,-2.39494 0.323566,-3.23211 -0.663993,-0.603972 0.01234,-0.570954 -11.699929,-0.570954 -10.757143,0 -10.770074,2.62e-4 -11.235674,0.225651 -0.812312,0.393232 -1.236237,1.357209 -1.045043,2.376352 0.09079,0.483905 0.626435,1.09803 1.177136,1.349581 0.4056,0.185275 0.954551,0.193552 11.232093,0.169475 l 10.805659,-0.02535 z"
       id="path15" />
    <g
       id="g2"
       style="fill:#dfdfdf;fill-opacity:1;stroke:none;stroke-opacity:0.6"
       transform="translate(-1.8181818e-7,1.7274047)" />
  </g>
</svg>
