<?xml version="1.0" encoding="UTF-8" standalone="no"?>
<svg
   width="64"
   height="64"
   version="1.1"
   id="svg73"
   sodipodi:docname="abcd.svg"
   inkscape:version="1.4.2 (ebf0e940d0, 2025-05-08)"
   xmlns:inkscape="http://www.inkscape.org/namespaces/inkscape"
   xmlns:sodipodi="http://sodipodi.sourceforge.net/DTD/sodipodi-0.dtd"
   xmlns="http://www.w3.org/2000/svg"
   xmlns:svg="http://www.w3.org/2000/svg"
   xmlns:rdf="http://www.w3.org/1999/02/22-rdf-syntax-ns#"
   xmlns:cc="http://creativecommons.org/ns#"
   xmlns:dc="http://purl.org/dc/elements/1.1/">
  <metadata
     id="metadata77">
    <rdf:RDF>
      <cc:Work
         rdf:about="">
        <dc:format>image/svg+xml</dc:format>
        <dc:type
           rdf:resource="http://purl.org/dc/dcmitype/StillImage" />
      </cc:Work>
    </rdf:RDF>
  </metadata>
  <sodipodi:namedview
     pagecolor="#f5f7fa"
     bordercolor="#666666"
     borderopacity="1"
     objecttolerance="10"
     gridtolerance="10"
     guidetolerance="10"
     inkscape:pageopacity="0"
     inkscape:pageshadow="2"
     inkscape:window-width="1377"
     inkscape:window-height="679"
     id="namedview75"
     showgrid="false"
     inkscape:zoom="6.2890624"
     inkscape:cx="47.622361"
     inkscape:cy="45.316771"
     inkscape:window-x="13"
     inkscape:window-y="130"
     inkscape:window-maximized="0"
     inkscape:current-layer="g877"
     inkscape:document-rotation="0"
     inkscape:pagecheckerboard="0"
     inkscape:showpageshadow="2"
     inkscape:deskcolor="#d1d1d1" />
  <defs
     id="defs29" />
  <circle
     cx="32.516094"
     cy="31.877844"
     r="0"
     fill="url(#b)"
     stroke-width="1.5715"
     id="circle41"
     style="fill:url(#b)" />
  <g
     aria-label="GZ"
     transform="matrix(1.2212657,0,0,0.81882264,0.4960938,-0.1661539)"
     id="text93"
     style="font-weight:bold;font-size:11.5263px;line-height:1.25;font-family:sans-serif;-inkscape-font-specification:'sans-serif Bold';fill:#f2f2f2;stroke-width:0.288159" />
  <g
     id="g877"
     transform="matrix(1.1,0,0,1.1,-3.1845928,-3.2065454)">
    <circle
       style="opacity:1;fill:#414141;stroke:#dfdfdf;stroke-width:2.27272727;stroke-dasharray:none;fill-opacity:1;stroke-opacity:1"
       id="path1"
       cx="31.985994"
       cy="32.005951"
       r="25.454546" />
    <path
       style="fill:#dfdfdf;fill-opacity:1;stroke:none;stroke-width:0.495001;stroke-dasharray:none;stroke-dashoffset:2.2;stroke-opacity:0.6"
       d="m 18.978844,44.091005 c -0.135831,-0.02567 -0.371095,-0.135292 -0.522826,-0.243248 -0.604117,-0.430169 -0.570782,0.258895 -0.570782,-11.797981 0,-10.652397 0.0064,-11.043912 0.189153,-11.39968 0.104031,-0.202636 0.33863,-0.457794 0.521329,-0.567026 0.327694,-0.195922 0.509103,-0.198603 13.439862,-0.198603 h 13.107681 l 0.324177,0.23125 c 0.660431,0.47106 0.619132,-0.319901 0.619132,11.855216 0,10.592926 -0.0077,11.068105 -0.185049,11.399678 -0.10174,0.190245 -0.336354,0.435379 -0.521323,0.54461 -0.331388,0.195687 -0.525727,0.198748 -13.245406,0.210654 -7.099994,0.0068 -13.02021,-0.0096 -13.156035,-0.03479 z m 24.172097,-2.518152 c 0.540858,-0.136251 1.09356,-0.587024 1.360042,-1.109356 0.164577,-0.322543 0.198346,-0.539504 0.167917,-1.078423 -0.04651,-0.822022 -0.392148,-1.387505 -1.065565,-1.743025 L 43.175683,37.410994 H 32.11607 c -9.757684,0 -11.102893,0.01824 -11.427425,0.153723 -1.335944,0.558204 -1.686302,2.247981 -0.698719,3.369935 0.682229,0.775055 -0.0244,0.73161 12.026505,0.739397 7.408828,0.0047 10.837481,-0.02629 11.13451,-0.101153 z"
       id="path90" />
    <g
       id="g2"
       style="fill:#dfdfdf;fill-opacity:1;stroke:none;stroke-opacity:0.6"
       transform="translate(-1.8181818e-7,1.7274047)" />
  </g>
</svg>
