<?xml version="1.0" encoding="UTF-8" standalone="no"?>
<svg
   width="64"
   height="64"
   version="1.1"
   id="svg73"
   sodipodi:docname="abcd.svg"
   inkscape:version="1.4.2 (ebf0e940d0, 2025-05-08)"
   xmlns:inkscape="http://www.inkscape.org/namespaces/inkscape"
   xmlns:sodipodi="http://sodipodi.sourceforge.net/DTD/sodipodi-0.dtd"
   xmlns="http://www.w3.org/2000/svg"
   xmlns:svg="http://www.w3.org/2000/svg"
   xmlns:rdf="http://www.w3.org/1999/02/22-rdf-syntax-ns#"
   xmlns:cc="http://creativecommons.org/ns#"
   xmlns:dc="http://purl.org/dc/elements/1.1/">
  <metadata
     id="metadata77">
    <rdf:RDF>
      <cc:Work
         rdf:about="">
        <dc:format>image/svg+xml</dc:format>
        <dc:type
           rdf:resource="http://purl.org/dc/dcmitype/StillImage" />
      </cc:Work>
    </rdf:RDF>
  </metadata>
  <sodipodi:namedview
     pagecolor="#f5f7fa"
     bordercolor="#666666"
     borderopacity="1"
     objecttolerance="10"
     gridtolerance="10"
     guidetolerance="10"
     inkscape:pageopacity="0"
     inkscape:pageshadow="2"
     inkscape:window-width="1377"
     inkscape:window-height="679"
     id="namedview75"
     showgrid="false"
     inkscape:zoom="6.2890624"
     inkscape:cx="47.622361"
     inkscape:cy="45.316771"
     inkscape:window-x="13"
     inkscape:window-y="130"
     inkscape:window-maximized="0"
     inkscape:current-layer="g877"
     inkscape:document-rotation="0"
     inkscape:pagecheckerboard="0"
     inkscape:showpageshadow="2"
     inkscape:deskcolor="#d1d1d1" />
  <defs
     id="defs29" />
  <circle
     cx="32.516094"
     cy="31.877844"
     r="0"
     fill="url(#b)"
     stroke-width="1.5715"
     id="circle41"
     style="fill:url(#b)" />
  <g
     aria-label="GZ"
     transform="matrix(1.2212657,0,0,0.81882264,0.4960938,-0.1661539)"
     id="text93"
     style="font-weight:bold;font-size:11.5263px;line-height:1.25;font-family:sans-serif;-inkscape-font-specification:'sans-serif Bold';fill:#f2f2f2;stroke-width:0.288159" />
  <g
     id="g877"
     transform="matrix(1.1,0,0,1.1,-3.1845928,-3.2065454)">
    <circle
       style="opacity:1;fill:#414141;stroke:#dfdfdf;stroke-width:2.27272727;stroke-dasharray:none;fill-opacity:1;stroke-opacity:1"
       id="path1"
       cx="31.985994"
       cy="32.005951"
       r="25.454546" />
    <path
       id="path5"
       style="fill:#dfdfdf;fill-opacity:1;stroke:none;stroke-width:0.4725;stroke-dasharray:none;stroke-opacity:0.6"
       d="m 46.106754,32.005951 c 0,2.230009 -1.808429,4.034503 -4.034503,4.034503 -2.230005,0 -4.034502,-1.804493 -4.034502,-4.034503 0,-2.23001 1.804497,-4.034504 4.034502,-4.034504 2.226074,0 4.034503,1.804494 4.034503,4.034504 z m 0,0 m -10.086255,0 c 0,2.230009 -1.808434,4.034503 -4.034503,4.034503 -2.230009,0 -4.034504,-1.804493 -4.034504,-4.034503 0,-2.23001 1.804495,-4.034504 4.034504,-4.034504 2.226069,0 4.034503,1.804494 4.034503,4.034504 z m 0,0 m -10.086258,0 c 0,2.230009 -1.808435,4.034503 -4.034503,4.034503 -2.23001,0 -4.034505,-1.804493 -4.034505,-4.034503 0,-2.23001 1.804495,-4.034504 4.034505,-4.034504 2.226068,0 4.034503,1.804494 4.034503,4.034504 z m 0,0" />
    <g
       id="g2"
       style="fill:#dfdfdf;fill-opacity:1;stroke:none;stroke-opacity:0.6"
       transform="translate(-1.8181818e-7,1.7274047)" />
  </g>
</svg>
