<?xml version="1.0" encoding="UTF-8" standalone="no"?>
<svg
   width="64"
   height="64"
   version="1.1"
   id="svg73"
   sodipodi:docname="abcd.svg"
   inkscape:version="1.4.2 (ebf0e940d0, 2025-05-08)"
   xmlns:inkscape="http://www.inkscape.org/namespaces/inkscape"
   xmlns:sodipodi="http://sodipodi.sourceforge.net/DTD/sodipodi-0.dtd"
   xmlns="http://www.w3.org/2000/svg"
   xmlns:svg="http://www.w3.org/2000/svg"
   xmlns:rdf="http://www.w3.org/1999/02/22-rdf-syntax-ns#"
   xmlns:cc="http://creativecommons.org/ns#"
   xmlns:dc="http://purl.org/dc/elements/1.1/">
  <metadata
     id="metadata77">
    <rdf:RDF>
      <cc:Work
         rdf:about="">
        <dc:format>image/svg+xml</dc:format>
        <dc:type
           rdf:resource="http://purl.org/dc/dcmitype/StillImage" />
      </cc:Work>
    </rdf:RDF>
  </metadata>
  <sodipodi:namedview
     pagecolor="#f5f7fa"
     bordercolor="#666666"
     borderopacity="1"
     objecttolerance="10"
     gridtolerance="10"
     guidetolerance="10"
     inkscape:pageopacity="0"
     inkscape:pageshadow="2"
     inkscape:window-width="1377"
     inkscape:window-height="679"
     id="namedview75"
     showgrid="false"
     inkscape:zoom="6.2890624"
     inkscape:cx="47.622361"
     inkscape:cy="45.316771"
     inkscape:window-x="13"
     inkscape:window-y="130"
     inkscape:window-maximized="0"
     inkscape:current-layer="g877"
     inkscape:document-rotation="0"
     inkscape:pagecheckerboard="0"
     inkscape:showpageshadow="2"
     inkscape:deskcolor="#d1d1d1" />
  <defs
     id="defs29" />
  <circle
     cx="32.516094"
     cy="31.877844"
     r="0"
     fill="url(#b)"
     stroke-width="1.5715"
     id="circle41"
     style="fill:url(#b)" />
  <g
     aria-label="GZ"
     transform="matrix(1.2212657,0,0,0.81882264,0.4960938,-0.1661539)"
     id="text93"
     style="font-weight:bold;font-size:11.5263px;line-height:1.25;font-family:sans-serif;-inkscape-font-specification:'sans-serif Bold';fill:#f2f2f2;stroke-width:0.288159" />
  <g
     id="g877"
     transform="matrix(1.1,0,0,1.1,-3.1845928,-3.2065454)">
    <circle
       style="opacity:1;fill:#414141;stroke:#dfdfdf;stroke-width:2.27272727;stroke-dasharray:none;fill-opacity:1;stroke-opacity:1"
       id="path1"
       cx="31.985994"
       cy="32.005951"
       r="25.454546" />
    <path
       style="fill:#dfdfdf;fill-opacity:1;stroke:none;stroke-width:0.45;stroke-dasharray:none;stroke-dashoffset:2.2;stroke-opacity:0.6"
       d="m 20.892446,44.073351 c -0.312665,-0.131474 -0.412078,-0.305876 -0.412078,-0.722905 0,-0.28546 0.71766,-3.749049 0.872088,-4.208892 0.08185,-0.243681 0.03526,-0.316182 -0.593661,-0.923338 -3.13498,-3.026568 -4.065597,-7.075237 -2.471712,-10.753248 1.410244,-3.254251 4.840641,-5.928202 9.025861,-7.035536 1.720342,-0.455173 2.640629,-0.570279 4.603063,-0.575732 3.020308,-0.0084 5.226586,0.475015 7.688647,1.684643 4.472581,2.197413 7.039899,5.94831 6.833855,9.984385 -0.254597,4.987431 -4.596629,9.210418 -10.817402,10.520866 -0.936208,0.197171 -1.559907,0.258123 -3.07249,0.299901 -2.079633,0.05746 -3.366703,-0.06809 -5.012219,-0.489128 l -0.875921,-0.224107 -2.519079,1.239132 c -1.385501,0.681519 -2.619042,1.258233 -2.741207,1.28159 -0.12218,0.0235 -0.350647,-0.01144 -0.507745,-0.07765 z m 19.495223,-7.290672 c 0.343352,-0.34336 0.343492,-1.177027 2.25e-4,-1.547406 l -0.238671,-0.257526 h -8.025268 -8.025276 l -0.251981,0.299444 c -0.178543,0.212182 -0.251976,0.412114 -0.251976,0.686107 0,0.411466 0.206913,0.910793 0.411582,0.993132 0.06803,0.02722 3.727923,0.05325 8.133077,0.05746 l 8.009372,0.0077 z m -0.04559,-5.009152 c 0.240804,-0.24083 0.284469,-0.361453 0.284469,-0.786082 0,-0.424631 -0.04363,-0.545249 -0.284469,-0.786084 l -0.284471,-0.284488 h -7.946956 -7.94693 l -0.284486,0.284488 c -0.240833,0.240833 -0.284482,0.361453 -0.284482,0.786084 0,0.424629 0.04365,0.545247 0.284482,0.786082 l 0.284486,0.284485 h 7.94693 7.946926 z m 0.04586,-5.033913 c 0.343243,-0.370378 0.343138,-1.204045 -2.17e-4,-1.547406 L 40.148873,24.953317 H 32.17173 c -4.387393,0 -8.047979,0.02718 -8.134629,0.06045 -0.472739,0.181407 -0.589029,1.210122 -0.190361,1.683918 l 0.251972,0.299441 h 8.025274 8.025277 z"
       id="path52-7" />
    <g
       id="g2"
       style="fill:#dfdfdf;fill-opacity:1;stroke:none;stroke-opacity:0.6"
       transform="translate(-1.8181818e-7,1.7274047)" />
  </g>
</svg>
