<?xml version="1.0" encoding="UTF-8" standalone="no"?>
<svg
   width="64"
   height="64"
   version="1.1"
   id="svg73"
   sodipodi:docname="abcd.svg"
   inkscape:version="1.4.2 (ebf0e940d0, 2025-05-08)"
   xmlns:inkscape="http://www.inkscape.org/namespaces/inkscape"
   xmlns:sodipodi="http://sodipodi.sourceforge.net/DTD/sodipodi-0.dtd"
   xmlns="http://www.w3.org/2000/svg"
   xmlns:svg="http://www.w3.org/2000/svg"
   xmlns:rdf="http://www.w3.org/1999/02/22-rdf-syntax-ns#"
   xmlns:cc="http://creativecommons.org/ns#"
   xmlns:dc="http://purl.org/dc/elements/1.1/">
  <metadata
     id="metadata77">
    <rdf:RDF>
      <cc:Work
         rdf:about="">
        <dc:format>image/svg+xml</dc:format>
        <dc:type
           rdf:resource="http://purl.org/dc/dcmitype/StillImage" />
      </cc:Work>
    </rdf:RDF>
  </metadata>
  <sodipodi:namedview
     pagecolor="#f5f7fa"
     bordercolor="#666666"
     borderopacity="1"
     objecttolerance="10"
     gridtolerance="10"
     guidetolerance="10"
     inkscape:pageopacity="0"
     inkscape:pageshadow="2"
     inkscape:window-width="1377"
     inkscape:window-height="679"
     id="namedview75"
     showgrid="false"
     inkscape:zoom="6.2890624"
     inkscape:cx="47.622361"
     inkscape:cy="45.316771"
     inkscape:window-x="13"
     inkscape:window-y="130"
     inkscape:window-maximized="0"
     inkscape:current-layer="g877"
     inkscape:document-rotation="0"
     inkscape:pagecheckerboard="0"
     inkscape:showpageshadow="2"
     inkscape:deskcolor="#d1d1d1" />
  <defs
     id="defs29">
    <clipPath
       id="clip0_2648_607">
      <rect
         width="16"
         height="16"
         fill="#ffffff"
         id="rect1"
         x="0"
         y="0" />
    </clipPath>
  </defs>
  <circle
     cx="32.516094"
     cy="31.877844"
     r="0"
     fill="url(#b)"
     stroke-width="1.5715"
     id="circle41"
     style="fill:url(#b)" />
  <g
     aria-label="GZ"
     transform="matrix(1.2212657,0,0,0.81882264,0.4960938,-0.1661539)"
     id="text93"
     style="font-weight:bold;font-size:11.5263px;line-height:1.25;font-family:sans-serif;-inkscape-font-specification:'sans-serif Bold';fill:#f2f2f2;stroke-width:0.288159" />
  <g
     id="g877"
     transform="matrix(1.1,0,0,1.1,-3.1845928,-3.2065454)">
    <circle
       style="opacity:1;fill:#414141;stroke:#dfdfdf;stroke-width:2.27272727;stroke-dasharray:none;fill-opacity:1;stroke-opacity:1"
       id="path1"
       cx="31.985994"
       cy="32.005951"
       r="25.454546" />
    <path
       d="m 30.629961,31.57281 q 0,2.095687 -0.57773,3.681612 -0.566401,1.574597 -1.653893,2.639435 -1.076162,1.053504 -2.650759,1.585923 -1.563271,0.532415 -3.568332,0.532415 H 17.817954 V 23.45061 h 4.848398 q 1.823814,0 3.28513,0.521088 1.472646,0.52109 2.514825,1.551942 1.042179,1.019523 1.597251,2.537481 0.566403,1.517955 0.566403,3.511689 z m -3.557004,0.09063 q 0,-1.38202 -0.283203,-2.378886 -0.27187,-1.008197 -0.804287,-1.665224 -0.52109,-0.657027 -1.291398,-0.974211 -0.758977,-0.317185 -1.744516,-0.317185 h -1.61991 v 10.784289 h 1.291397 q 2.220295,0 3.330442,-1.359365 1.121475,-1.359363 1.121475,-4.089421 z m 15.281524,-8.212824 h 3.545672 L 40.73457,40.012197 H 36.905694 L 31.751436,23.450612 h 3.545677 l 2.809351,9.968671 q 0.05665,0.192575 0.147271,0.645698 0.101978,0.45312 0.20388,0.996866 0.113291,0.543746 0.215231,1.087491 0.101977,0.543747 0.158584,0.917572 0.05665,-0.373827 0.158587,-0.917572 0.101977,-0.543745 0.215267,-1.076162 0.113292,-0.543746 0.215269,-0.996868 0.113292,-0.453121 0.169937,-0.657025 z"
       id="text6"
       style="font-weight:bold;font-size:8.4665px;font-family:'Droid Sans';-inkscape-font-specification:'Droid Sans Bold';text-align:end;letter-spacing:0px;text-anchor:end;fill:#dfdfdf;fill-opacity:1;stroke:none;stroke-width:0.362497;stroke-opacity:0.6"
       aria-label="DV" />
    <g
       id="g2"
       style="fill:#dfdfdf;fill-opacity:1;stroke:none;stroke-opacity:0.6"
       transform="translate(-1.8181818e-7,1.7274047)" />
  </g>
</svg>
