<?xml version="1.0" encoding="UTF-8" standalone="no"?>
<svg
   width="64"
   height="64"
   version="1.1"
   id="svg73"
   sodipodi:docname="abcd.svg"
   inkscape:version="1.4.2 (ebf0e940d0, 2025-05-08)"
   xmlns:inkscape="http://www.inkscape.org/namespaces/inkscape"
   xmlns:sodipodi="http://sodipodi.sourceforge.net/DTD/sodipodi-0.dtd"
   xmlns="http://www.w3.org/2000/svg"
   xmlns:svg="http://www.w3.org/2000/svg"
   xmlns:rdf="http://www.w3.org/1999/02/22-rdf-syntax-ns#"
   xmlns:cc="http://creativecommons.org/ns#"
   xmlns:dc="http://purl.org/dc/elements/1.1/">
  <metadata
     id="metadata77">
    <rdf:RDF>
      <cc:Work
         rdf:about="">
        <dc:format>image/svg+xml</dc:format>
        <dc:type
           rdf:resource="http://purl.org/dc/dcmitype/StillImage" />
      </cc:Work>
    </rdf:RDF>
  </metadata>
  <sodipodi:namedview
     pagecolor="#f5f7fa"
     bordercolor="#666666"
     borderopacity="1"
     objecttolerance="10"
     gridtolerance="10"
     guidetolerance="10"
     inkscape:pageopacity="0"
     inkscape:pageshadow="2"
     inkscape:window-width="1377"
     inkscape:window-height="679"
     id="namedview75"
     showgrid="false"
     inkscape:zoom="6.2890624"
     inkscape:cx="47.622361"
     inkscape:cy="45.316771"
     inkscape:window-x="13"
     inkscape:window-y="130"
     inkscape:window-maximized="0"
     inkscape:current-layer="g877"
     inkscape:document-rotation="0"
     inkscape:pagecheckerboard="0"
     inkscape:showpageshadow="2"
     inkscape:deskcolor="#d1d1d1" />
  <defs
     id="defs29">
    <clipPath
       id="clip0_2648_607">
      <rect
         width="16"
         height="16"
         fill="#ffffff"
         id="rect1"
         x="0"
         y="0" />
    </clipPath>
  </defs>
  <circle
     cx="32.516094"
     cy="31.877844"
     r="0"
     fill="url(#b)"
     stroke-width="1.5715"
     id="circle41"
     style="fill:url(#b)" />
  <g
     aria-label="GZ"
     transform="matrix(1.2212657,0,0,0.81882264,0.4960938,-0.1661539)"
     id="text93"
     style="font-weight:bold;font-size:11.5263px;line-height:1.25;font-family:sans-serif;-inkscape-font-specification:'sans-serif Bold';fill:#f2f2f2;stroke-width:0.288159" />
  <g
     id="g877"
     transform="matrix(1.1,0,0,1.1,-3.1845928,-3.2065454)">
    <circle
       style="opacity:1;fill:#414141;stroke:#dfdfdf;stroke-width:2.27272727;stroke-dasharray:none;fill-opacity:1;stroke-opacity:1"
       id="path1"
       cx="31.985994"
       cy="32.005951"
       r="25.454546" />
    <path
       d="m 18.949887,18.210444 v 2.301884 H 22.9695 v 22.985665 h -4.019613 v 2.303463 H 29.780419 V 43.497993 H 25.419786 V 33.156892 h 3.528607 c 2.548171,0 3.332835,1.274087 5.243174,4.264322 0.686777,1.078317 3.18601,5.09635 4.704808,8.380242 h 6.125724 v -2.303463 h -4.311691 c -1.911917,-3.186007 -5.244754,-8.722838 -7.008265,-10.390044 5.68524,-0.587311 7.497695,-4.606923 7.497695,-7.497695 0,-2.401346 -1.274085,-4.900575 -2.988659,-6.076779 -1.716149,-1.176202 -3.528607,-1.323031 -6.665669,-1.323031 z m 12.497736,2.301884 c 3.528607,0 4.311688,0.344175 5.047407,0.833604 1.274089,0.882543 2.058745,2.499229 2.058745,4.117496 0,5.487886 -5.978892,5.390003 -8.576009,5.390003 h -4.55798 V 20.512328 Z"
       fill="#ffffff"
       fill-rule="nonzero"
       id="path2"
       style="fill:#dfdfdf;fill-opacity:1;stroke:none;stroke-width:0.4725;stroke-dasharray:none;stroke-opacity:0.6" />
    <g
       id="g2"
       style="fill:#dfdfdf;fill-opacity:1;stroke:none;stroke-opacity:0.6"
       transform="translate(-1.8181818e-7,1.7274047)" />
  </g>
</svg>
