<?xml version="1.0" encoding="UTF-8" standalone="no"?>
<svg
   width="64"
   height="64"
   version="1.1"
   id="svg73"
   sodipodi:docname="abcd.svg"
   inkscape:version="1.4.2 (ebf0e940d0, 2025-05-08)"
   xmlns:inkscape="http://www.inkscape.org/namespaces/inkscape"
   xmlns:sodipodi="http://sodipodi.sourceforge.net/DTD/sodipodi-0.dtd"
   xmlns="http://www.w3.org/2000/svg"
   xmlns:svg="http://www.w3.org/2000/svg"
   xmlns:rdf="http://www.w3.org/1999/02/22-rdf-syntax-ns#"
   xmlns:cc="http://creativecommons.org/ns#"
   xmlns:dc="http://purl.org/dc/elements/1.1/">
  <metadata
     id="metadata77">
    <rdf:RDF>
      <cc:Work
         rdf:about="">
        <dc:format>image/svg+xml</dc:format>
        <dc:type
           rdf:resource="http://purl.org/dc/dcmitype/StillImage" />
      </cc:Work>
    </rdf:RDF>
  </metadata>
  <sodipodi:namedview
     pagecolor="#f5f7fa"
     bordercolor="#666666"
     borderopacity="1"
     objecttolerance="10"
     gridtolerance="10"
     guidetolerance="10"
     inkscape:pageopacity="0"
     inkscape:pageshadow="2"
     inkscape:window-width="1377"
     inkscape:window-height="679"
     id="namedview75"
     showgrid="false"
     inkscape:zoom="6.2890624"
     inkscape:cx="47.622361"
     inkscape:cy="45.316771"
     inkscape:window-x="13"
     inkscape:window-y="130"
     inkscape:window-maximized="0"
     inkscape:current-layer="g877"
     inkscape:document-rotation="0"
     inkscape:pagecheckerboard="0"
     inkscape:showpageshadow="2"
     inkscape:deskcolor="#d1d1d1" />
  <defs
     id="defs29">
    <clipPath
       id="clip0_2648_607">
      <rect
         width="16"
         height="16"
         fill="#ffffff"
         id="rect1"
         x="0"
         y="0" />
    </clipPath>
  </defs>
  <circle
     cx="32.516094"
     cy="31.877844"
     r="0"
     fill="url(#b)"
     stroke-width="1.5715"
     id="circle41"
     style="fill:url(#b)" />
  <g
     aria-label="GZ"
     transform="matrix(1.2212657,0,0,0.81882264,0.4960938,-0.1661539)"
     id="text93"
     style="font-weight:bold;font-size:11.5263px;line-height:1.25;font-family:sans-serif;-inkscape-font-specification:'sans-serif Bold';fill:#f2f2f2;stroke-width:0.288159" />
  <g
     id="g877"
     transform="matrix(1.1,0,0,1.1,-3.1845928,-3.2065454)">
    <circle
       style="opacity:1;fill:#414141;stroke:#dfdfdf;stroke-width:2.27272727;stroke-dasharray:none;fill-opacity:1;stroke-opacity:1"
       id="path1"
       cx="31.985994"
       cy="32.005951"
       r="25.454546" />
    <path
       style="fill:#dfdfdf;fill-opacity:1;stroke-width:0.135207"
       d="m 20.752902,45.744995 c -0.938481,-0.33799 -1.351498,-0.630442 -1.894317,-1.341345 -0.572012,-0.749145 -0.866606,-1.704889 -0.866606,-2.811515 0,-1.035452 0.181202,-1.576006 0.507425,-1.513742 0.194897,0.03721 0.250129,0.245879 0.315742,1.192908 0.08986,1.297034 0.287,1.770268 1.108937,2.661966 0.799989,0.867882 1.435048,1.150303 2.80017,1.245263 1.036908,0.07214 1.153259,0.107907 1.190075,0.365872 0.03226,0.226044 -0.04914,0.303902 -0.388723,0.371821 -0.79061,0.158123 -2.079168,0.07854 -2.772703,-0.171228 z M 37.70588,41.574071 c -3.160849,-3.109463 -4.056211,-4.123982 -3.938956,-4.463173 0.04472,-0.129411 0.543341,-0.707041 1.108003,-1.283618 l 1.026661,-1.048321 -0.470512,-0.466027 -0.470515,-0.466027 -1.027603,0.983124 -1.027603,0.983127 -0.455352,-0.936708 c -0.739179,-1.520563 -1.849199,-2.595742 -3.55819,-3.446494 l -0.770797,-0.383713 0.82827,-0.790034 0.82827,-0.790035 -0.483643,-0.483644 -0.483648,-0.483645 -0.849515,0.841964 c -0.645935,0.640195 -0.942658,0.841968 -1.238179,0.841968 -0.327089,0 -0.910221,-0.520478 -3.680776,-3.285278 -2.83204,-2.826159 -3.292112,-3.341744 -3.292112,-3.689334 0,-0.343849 0.358894,-0.760948 2.408464,-2.799078 1.796438,-1.78641 2.492019,-2.395017 2.737273,-2.395017 0.475664,0 7.023239,6.562948 7.022349,7.038832 -4.17e-4,0.226807 -0.321662,0.663386 -1.027297,1.396168 l -1.026679,1.06617 0.480851,0.480853 0.480854,0.480852 0.806003,-0.768798 c 0.856521,-0.816985 1.27166,-1.040775 1.930657,-1.040775 0.225111,0 0.563734,-0.121481 0.752495,-0.269959 0.750916,-0.590671 1.957682,-0.606131 2.722811,-0.03487 0.648947,0.484506 0.882333,0.939717 0.936888,1.827383 0.04659,0.758105 0.0109,0.904172 -0.352357,1.441431 -0.222312,0.328808 -0.374155,0.676149 -0.337428,0.771868 0.125313,0.326556 -0.263166,1.175525 -0.808756,1.76742 l -0.544701,0.590928 0.44917,0.463425 0.449172,0.463425 0.862002,-0.806363 c 0.607896,-0.568651 0.968488,-0.806366 1.223197,-0.806366 0.291587,0 1.007074,0.645889 3.713267,3.352083 2.53783,2.537829 3.352082,3.431797 3.352082,3.680247 0,0.24497 -0.609472,0.937634 -2.404108,2.732268 -1.961781,1.961784 -2.473231,2.404104 -2.779817,2.404104 -0.3065,0 -0.875757,-0.491913 -3.090195,-2.670353 z m 3.715941,-1.279827 -0.637587,-0.64732 -0.647326,0.63759 -0.647323,0.637587 0.637591,0.647325 0.637588,0.64732 0.647327,-0.637587 0.647319,-0.63759 z m -1.794671,-0.581235 0.599052,-0.610388 -0.638505,-0.638501 -0.638506,-0.638505 -0.638503,0.638505 -0.638503,0.638501 0.599051,0.610388 c 0.32948,0.335718 0.63456,0.610392 0.677955,0.610392 0.04341,0 0.348479,-0.274674 0.677959,-0.610392 z m 3.615066,-1.244984 -0.638505,-0.638504 -0.610893,0.599547 -0.610893,0.599547 0.639299,0.649056 0.639297,0.649057 0.610098,-0.6101 0.610102,-0.610099 z m -5.507976,-0.647923 0.599049,-0.610392 -0.638501,-0.638501 -0.638506,-0.638505 -0.638503,0.638505 -0.638503,0.638501 0.599052,0.610392 c 0.329478,0.335715 0.634556,0.610389 0.677954,0.610389 0.04341,0 0.348481,-0.274674 0.677958,-0.610389 z m 3.755732,0.03064 0.568965,-0.579735 -0.647373,-0.637641 -0.647379,-0.637639 -0.597627,0.608935 -0.597632,0.608943 0.597138,0.608434 c 0.328423,0.334638 0.63264,0.608435 0.676038,0.608435 0.04341,0 0.33494,-0.260882 0.64787,-0.579732 z m -1.892625,-1.893202 0.56925,-0.58002 -0.593277,-0.582256 c -0.664573,-0.652231 -0.782576,-0.64272 -1.488818,0.119998 l -0.391464,0.422771 0.588623,0.599767 c 0.323746,0.32987 0.624135,0.599765 0.66753,0.599765 0.04341,0 0.335069,-0.261007 0.648156,-0.580025 z m -12.184558,-8.445092 0.573577,-0.642239 -0.563487,-0.574633 c -0.309917,-0.316047 -0.638008,-0.574632 -0.729094,-0.574632 -0.09108,0 -0.392392,0.27676 -0.669572,0.615023 l -0.503966,0.615024 0.59067,0.601846 c 0.324864,0.331017 0.621633,0.601847 0.659482,0.601847 0.03786,0 0.326928,-0.289006 0.64239,-0.642236 z m -1.847253,-1.861062 0.599051,-0.61039 -0.638503,-0.638501 -0.638504,-0.638505 -0.638506,0.638505 -0.638504,0.638501 0.599053,0.61039 c 0.329477,0.335714 0.634559,0.610389 0.677957,0.610389 0.0434,0 0.348477,-0.274675 0.677956,-0.610389 z m 3.755734,0.03064 0.568964,-0.579734 -0.647376,-0.637643 -0.647375,-0.637639 -0.597629,0.608939 -0.59763,0.60894 0.597136,0.608435 c 0.328422,0.334638 0.632642,0.608433 0.676039,0.608433 0.04342,0 0.334938,-0.260881 0.647871,-0.579731 z m -5.611673,-3.100032 -0.63759,-0.647324 -0.647322,0.63759 -0.647324,0.637589 0.637589,0.647324 0.637591,0.647323 0.647323,-0.637592 0.647325,-0.637587 z m 3.718762,1.207123 0.568966,-0.579732 -0.647377,-0.637644 -0.647376,-0.637639 -0.597628,0.608936 -0.597628,0.608942 0.597133,0.608434 c 0.328425,0.33464 0.632643,0.608436 0.676042,0.608436 0.04341,0 0.334937,-0.260881 0.647868,-0.579733 z m -1.898368,-3.033348 -0.638506,-0.638503 -0.61089,0.599546 -0.610894,0.599545 0.639297,0.64906 0.639299,0.649056 0.610098,-0.610098 0.6101,-0.610103 z M 22.11582,43.99019 c -1.061207,-0.277756 -1.767718,-0.93906 -2.095616,-1.961522 -0.179872,-0.560883 -0.10327,-1.791413 0.125778,-2.020462 0.250294,-0.250295 0.516002,0.171938 0.577899,0.91833 0.112658,1.358473 1.180408,2.371418 2.499733,2.371418 0.582669,0 1.006517,0.305904 0.762271,0.550152 -0.181743,0.181743 -1.372795,0.272235 -1.870065,0.142084 z m 7.931608,-1.772866 c -1.059891,-0.381303 -3.131731,-1.629726 -3.131731,-1.887071 0,-0.06345 0.214984,-0.242204 0.477743,-0.397235 l 0.477746,-0.281874 0.975741,0.667876 c 1.18748,0.812812 1.500117,0.890347 1.558361,0.386466 0.08537,-0.738615 -0.880591,-2.227936 -2.598106,-4.005737 -1.386079,-1.43473 -2.672873,-2.43602 -3.784855,-2.945103 -0.615236,-0.281664 -0.806784,-0.318848 -0.965214,-0.187363 -0.108708,0.09022 -0.197652,0.215078 -0.197652,0.277466 0,0.06238 0.325966,0.592135 0.724367,1.177226 l 0.724366,1.063802 -0.299966,0.587982 -0.299963,0.58798 -0.488242,-0.666299 c -0.845784,-1.154248 -1.615471,-2.809009 -1.682493,-3.617228 -0.0581,-0.700415 -0.04195,-0.744241 0.394069,-1.070094 0.677097,-0.506021 1.412544,-0.701278 2.617961,-0.695051 1.219814,0.0063 2.289206,0.278268 3.508335,0.892229 2.818287,1.419308 4.686704,4.357366 4.710282,7.406847 0.0088,1.142232 -0.189063,1.890364 -0.670596,2.535148 -0.394991,0.528908 -0.929412,0.573233 -2.050153,0.170033 z m -7.280942,-0.981276 c -0.383832,-0.424118 -0.46522,-0.879782 -0.249402,-1.396302 0.23207,-0.555428 0.621262,-0.766572 1.308673,-0.709984 l 0.53897,0.04437 0.777366,-1.284474 c 0.920363,-1.520746 1.144167,-1.627212 1.849188,-0.87967 0.255887,0.271316 0.465247,0.605815 0.465247,0.74333 0,0.169013 -0.431793,0.524537 -1.332628,1.097239 l -1.332629,0.847213 0.06458,0.572951 c 0.05452,0.483682 0.01031,0.627217 -0.283717,0.92125 -0.469375,0.469373 -1.400189,0.492097 -1.805648,0.04407 z"
       id="path1880" />
    <g
       id="g2"
       style="fill:#dfdfdf;fill-opacity:1;stroke:none;stroke-opacity:0.6"
       transform="translate(-1.8181818e-7,1.7274047)" />
  </g>
</svg>
