<?xml version="1.0" encoding="UTF-8" standalone="no"?>
<svg
   width="64"
   height="64"
   version="1.1"
   id="svg73"
   sodipodi:docname="spotify-client.svg"
   inkscape:version="1.4.2 (ebf0e940d0, 2025-05-08)"
   xmlns:inkscape="http://www.inkscape.org/namespaces/inkscape"
   xmlns:sodipodi="http://sodipodi.sourceforge.net/DTD/sodipodi-0.dtd"
   xmlns="http://www.w3.org/2000/svg"
   xmlns:svg="http://www.w3.org/2000/svg"
   xmlns:rdf="http://www.w3.org/1999/02/22-rdf-syntax-ns#"
   xmlns:cc="http://creativecommons.org/ns#"
   xmlns:dc="http://purl.org/dc/elements/1.1/">
  <metadata
     id="metadata77">
    <rdf:RDF>
      <cc:Work
         rdf:about="">
        <dc:format>image/svg+xml</dc:format>
        <dc:type
           rdf:resource="http://purl.org/dc/dcmitype/StillImage" />
      </cc:Work>
    </rdf:RDF>
  </metadata>
  <sodipodi:namedview
     pagecolor="#f5f7fa"
     bordercolor="#666666"
     borderopacity="1"
     objecttolerance="10"
     gridtolerance="10"
     guidetolerance="10"
     inkscape:pageopacity="0"
     inkscape:pageshadow="2"
     inkscape:window-width="1377"
     inkscape:window-height="886"
     id="namedview75"
     showgrid="false"
     inkscape:zoom="4.4470387"
     inkscape:cx="48.009477"
     inkscape:cy="45.311052"
     inkscape:window-x="142"
     inkscape:window-y="75"
     inkscape:window-maximized="0"
     inkscape:current-layer="g877"
     inkscape:document-rotation="0"
     inkscape:pagecheckerboard="0"
     inkscape:showpageshadow="2"
     inkscape:deskcolor="#d1d1d1" />
  <defs
     id="defs29" />
  <circle
     cx="32.516094"
     cy="31.877844"
     r="0"
     fill="url(#b)"
     stroke-width="1.5715"
     id="circle41"
     style="fill:url(#b)" />
  <g
     aria-label="GZ"
     transform="matrix(1.2212657,0,0,0.81882264,0.4960938,-0.1661539)"
     id="text93"
     style="font-weight:bold;font-size:11.5263px;line-height:1.25;font-family:sans-serif;-inkscape-font-specification:'sans-serif Bold';fill:#f2f2f2;stroke-width:0.288159" />
  <g
     id="g877"
     transform="matrix(1.1,0,0,1.1,-3.1845928,-3.2065454)">
    <circle
       style="opacity:1;fill:#414141;stroke:#dfdfdf;stroke-width:2.27272727;stroke-dasharray:none;fill-opacity:1;stroke-opacity:1"
       id="path1"
       cx="31.985994"
       cy="32.005951"
       r="25.454546" />
    <path
       id="path16"
       style="fill:#dfdfdf;fill-opacity:1;stroke:none;stroke-width:0.37511;stroke-dasharray:none;stroke-opacity:0.6"
       d="m 24.622572,18.742526 c -1.168792,-9.1e-5 -2.231973,0.07327 -2.728929,0.22084 -1.021793,0.303439 -1.522893,0.955109 -1.601951,2.085691 -0.04794,0.685638 0.0011,0.910977 0.289176,1.335545 l 0.34528,0.510029 2.983063,0.08412 c 2.54154,0.07189 3.23882,0.143798 4.714719,0.485493 5.315374,1.230607 9.341235,3.406704 13.160888,7.117638 1.843907,1.791418 2.117687,2.005072 2.567678,2.005072 0.641138,0 1.227302,-0.456021 1.577413,-1.226879 0.534078,-1.175894 0.339123,-1.769186 -1.144483,-3.477326 C 40.973484,23.49385 34.371663,19.988951 27.98597,18.963356 27.066397,18.815663 25.791361,18.742612 24.622572,18.742523 Z m -2.690371,8.328742 c -0.393817,-0.01285 -0.741919,0.002 -1.032328,0.04558 -1.367395,0.205057 -1.971455,1.932641 -1.034085,2.956776 0.242402,0.264833 0.456684,0.32728 1.112955,0.32775 2.740481,0.002 7.749687,1.380013 11.134793,3.063685 2.433838,1.210534 4.017148,2.311591 5.81014,4.038181 0.855689,0.823993 1.642812,1.497091 1.749172,1.496798 0.414084,-0.0012 1.167822,-0.611907 1.379366,-1.118214 0.307117,-0.735176 0.160004,-1.326204 -0.583651,-2.336328 C 39.224815,33.855988 36.588965,31.936072 33.294844,30.32075 29.713112,28.56439 24.68895,27.161173 21.932201,27.071277 Z m -2.401175,8.149973 c -0.404579,0.0086 -0.600268,0.07137 -0.832523,0.20857 -0.926952,0.54756 -1.226,1.882813 -0.587151,2.625513 0.300474,0.349307 0.468174,0.395637 1.931455,0.522305 2.880264,0.249339 6.276528,1.220978 9.336545,2.67284 1.834845,0.870563 3.326203,1.842125 4.802349,3.128535 0.770524,0.671478 1.128543,0.889989 1.465246,0.890371 1.153411,0.0014 1.777463,-1.575562 1.074395,-2.713159 -0.440765,-0.713176 -1.905356,-1.99321 -3.498354,-3.056677 -3.560568,-2.376986 -8.310333,-3.965142 -12.685922,-4.241491 -0.444749,-0.02809 -0.763288,-0.04201 -1.00604,-0.03681 z" />
  </g>
</svg>
