<?xml version="1.0" encoding="UTF-8" standalone="no"?>
<svg
   width="64"
   height="64"
   version="1.1"
   id="svg73"
   sodipodi:docname="fr.handbrake.ghb.svg"
   inkscape:version="1.4.2 (ebf0e940d0, 2025-05-08)"
   xmlns:inkscape="http://www.inkscape.org/namespaces/inkscape"
   xmlns:sodipodi="http://sodipodi.sourceforge.net/DTD/sodipodi-0.dtd"
   xmlns="http://www.w3.org/2000/svg"
   xmlns:svg="http://www.w3.org/2000/svg"
   xmlns:rdf="http://www.w3.org/1999/02/22-rdf-syntax-ns#"
   xmlns:cc="http://creativecommons.org/ns#"
   xmlns:dc="http://purl.org/dc/elements/1.1/">
  <metadata
     id="metadata77">
    <rdf:RDF>
      <cc:Work
         rdf:about="">
        <dc:format>image/svg+xml</dc:format>
        <dc:type
           rdf:resource="http://purl.org/dc/dcmitype/StillImage" />
      </cc:Work>
    </rdf:RDF>
  </metadata>
  <sodipodi:namedview
     pagecolor="#f5f7fa"
     bordercolor="#666666"
     borderopacity="1"
     objecttolerance="10"
     gridtolerance="10"
     guidetolerance="10"
     inkscape:pageopacity="0"
     inkscape:pageshadow="2"
     inkscape:window-width="1377"
     inkscape:window-height="886"
     id="namedview75"
     showgrid="false"
     inkscape:zoom="6.2890625"
     inkscape:cx="48.099379"
     inkscape:cy="45.396273"
     inkscape:window-x="0"
     inkscape:window-y="47"
     inkscape:window-maximized="0"
     inkscape:current-layer="g877"
     inkscape:document-rotation="0"
     inkscape:pagecheckerboard="0"
     inkscape:showpageshadow="2"
     inkscape:deskcolor="#d1d1d1" />
  <defs
     id="defs29" />
  <circle
     cx="32.516094"
     cy="31.877844"
     r="0"
     fill="url(#b)"
     stroke-width="1.5715"
     id="circle41"
     style="fill:url(#b)" />
  <g
     aria-label="GZ"
     transform="matrix(1.2212657,0,0,0.81882264,0.4960938,-0.1661539)"
     id="text93"
     style="font-weight:bold;font-size:11.5263px;line-height:1.25;font-family:sans-serif;-inkscape-font-specification:'sans-serif Bold';fill:#f2f2f2;stroke-width:0.288159" />
  <g
     id="g877"
     transform="matrix(1.1,0,0,1.1,-3.1845928,-3.2065454)">
    <circle
       style="opacity:1;fill:#414141;stroke:#dfdfdf;stroke-width:2.27272727;stroke-dasharray:none;fill-opacity:1;stroke-opacity:1"
       id="path1"
       cx="31.985994"
       cy="32.005951"
       r="25.454546" />
    <path
       style="fill:#dfdfdf;fill-opacity:1;stroke:none;stroke-width:0.437627;stroke-dasharray:none;stroke-opacity:0.6"
       d="m 31.535871,46.284086 c -0.170126,-0.09069 -0.299385,-0.216869 -0.393875,-0.384307 -0.131603,-0.233244 -0.142048,-0.310762 -0.162442,-1.20591 l -0.02182,-0.956639 -0.836396,-0.616512 -0.836396,-0.616506 v -5.618507 c 0,-4.829171 -0.01164,-5.64095 -0.08259,-5.778222 -0.0454,-0.08786 -0.681487,-1.180417 -1.413482,-2.427944 -1.004495,-1.711952 -1.318002,-2.289684 -1.278336,-2.355705 0.0289,-0.0481 1.087049,-1.932008 2.351429,-4.186437 1.264379,-2.254432 2.371919,-4.172013 2.461204,-4.2613 0.410494,-0.410488 1.138159,-0.325936 1.474854,0.171377 0.07378,0.108973 1.127355,1.970733 2.341278,4.13724 1.213928,2.166503 2.244636,4.00418 2.290468,4.083723 0.08111,0.140771 0.0479,0.205013 -1.24706,2.41198 -0.731708,1.247042 -1.367545,2.339225 -1.412971,2.427066 -0.07099,0.137273 -0.08259,0.949051 -0.08259,5.778222 v 5.618507 l -0.836397,0.616506 -0.836395,0.616512 -0.02344,0.956639 c -0.02079,0.848563 -0.03737,0.983017 -0.146629,1.190123 -0.248276,0.470608 -0.837992,0.650936 -1.308409,0.400094 z M 30.273702,26.825714 c 0.08359,-0.03178 0.306816,-0.187661 0.496053,-0.346396 0.902311,-0.756878 1.60812,-0.75496 2.462289,0.0068 0.174621,0.15571 0.38518,0.308838 0.467915,0.340292 0.535696,0.203684 1.192462,-0.183361 1.302009,-0.767288 0.0695,-0.370473 -0.06723,-0.659199 -0.512367,-1.082046 -0.749319,-0.711777 -1.533596,-1.041362 -2.475408,-1.040269 -0.980622,0.0013 -1.819779,0.356697 -2.56967,1.088783 -0.385434,0.376282 -0.437499,0.452036 -0.470889,0.685163 -0.05053,0.35302 8.84e-4,0.549195 0.210726,0.803788 0.276788,0.335796 0.703874,0.457836 1.089341,0.311283 z m -8.518443,16.28265 C 21.652905,43.05791 21.498222,42.912886 21.4115,42.786075 21.225319,42.513806 19.652105,39.9614 19.508268,39.698246 c -0.09108,-0.166662 -0.100526,-0.456801 -0.115369,-3.544074 -0.01096,-2.275879 0.0033,-3.435365 0.04449,-3.587797 0.120165,-0.446273 0.654787,-0.789433 1.099809,-0.705946 0.22422,0.04207 0.511224,0.232692 0.667428,0.4433 0.11066,0.149198 0.119409,0.248731 0.145857,1.658974 l 0.02813,1.50025 1.965587,-3.501909 c 1.081094,-1.926044 1.980051,-3.500756 1.997708,-3.499357 0.01764,0.0013 0.468915,0.752405 1.002802,1.668894 l 0.970708,1.666348 v 5.332615 5.332602 l -0.15475,0.03107 c -0.611869,0.123444 -4.681435,0.709005 -4.920484,0.707984 -0.16435,-7.27e-4 -0.382563,-0.04254 -0.48491,-0.09298 z m 17.23677,-0.274999 C 37.723076,42.635553 36.67851,42.47313 36.670773,42.47242 c -0.008,-8.04e-4 -0.01435,-2.402969 -0.01435,-5.338363 v -5.337128 l 0.970781,-1.666348 c 0.53389,-0.916489 0.985148,-1.667492 1.002806,-1.668894 0.0174,-0.0014 0.91661,1.573313 1.997686,3.499363 l 1.965588,3.501908 0.02826,-1.50025 c 0.02651,-1.410246 0.03518,-1.509774 0.145868,-1.658972 0.156223,-0.210613 0.44321,-0.401234 0.667427,-0.443301 0.445026,-0.08349 0.979644,0.259676 1.099809,0.705946 0.04104,0.152433 0.05545,1.311918 0.04446,3.587797 -0.01464,3.087273 -0.02402,3.377445 -0.115353,3.544076 -0.144154,0.263705 -1.717245,2.815838 -1.90389,3.088791 -0.208417,0.30478 -0.454861,0.416824 -0.903468,0.410763 -0.196515,-0.0024 -1.395497,-0.166718 -2.664451,-0.364489 z"
       id="path1-3-9" />
    <circle
       style="fill:#414141;fill-opacity:1;stroke:#dfdfdf;stroke-width:1.08705;stroke-dasharray:none;stroke-opacity:1"
       id="path1-6"
       cx="48.320271"
       cy="48.287033"
       r="12.17483" />
    <path
       id="path1-3"
       style="fill:#dfdfdf;fill-opacity:1;stroke:none;stroke-width:0.20182;stroke-dasharray:none;stroke-dashoffset:2.2;stroke-opacity:0.6"
       d="m 51.761355,43.058253 c -0.20805,-8.7e-5 -0.430751,0.08369 -0.709468,0.246992 -0.663244,0.38861 -1.530643,0.57188 -2.721813,0.57188 -1.191057,0 -2.087392,-0.187174 -2.746686,-0.573538 -0.528668,-0.309806 -0.844291,-0.313912 -1.287974,-0.01478 -1.13908,0.767625 -1.997557,3.228765 -2.249396,6.444848 -0.151015,1.928547 -0.0099,2.945286 0.488995,3.517478 0.240643,0.275876 0.831407,0.229104 1.364229,-0.109404 0.451661,-0.286952 0.989814,-0.920136 1.632759,-1.921198 0.580993,-0.90461 1.283736,-1.202549 2.837856,-1.205094 1.551025,-0.0023 2.160562,0.291041 2.875977,1.390747 1.200302,1.845038 2.309754,2.487372 2.960519,1.713978 0.360522,-0.428447 0.426509,-0.842406 0.409431,-2.565996 -0.03111,-3.131006 -0.849546,-5.979338 -2.02893,-7.066455 -0.314103,-0.289533 -0.557986,-0.429217 -0.825499,-0.42933 z m -6.738245,1.844933 h 0.719412 0.719406 v 0.616637 0.61664 h 0.61664 0.616633 v 0.770797 0.770791 h -0.616633 -0.61664 v 0.668023 0.668026 h -0.651444 c -0.357887,0 -0.68008,-0.03211 -0.717752,-0.06961 -0.03766,-0.03766 -0.06959,-0.336727 -0.06959,-0.666363 v -0.60007 h -0.616645 -0.616641 v -0.770793 -0.770795 h 0.616641 0.616634 v -0.616642 z m 5.86468,0 c 0.649001,0 0.926941,0.71908 0.459164,1.186861 -0.29749,0.297457 -0.568995,0.320837 -0.861967,0.07295 -0.508167,-0.429995 -0.242935,-1.259794 0.402803,-1.259794 z M 49.639599,46.221 c 0.162065,1.09e-4 0.325226,0.06468 0.454185,0.207182 0.201035,0.222143 0.222754,0.730724 0.04146,0.968054 -0.354805,0.464484 -1.20675,0.165717 -1.20675,-0.422693 0,-0.446577 0.354591,-0.752808 0.711121,-0.75256 z m 2.54777,0.02495 c 0.186795,0.0035 0.368135,0.06527 0.474076,0.18233 0.201035,0.222143 0.222724,0.730722 0.04144,0.968055 -0.377384,0.494038 -1.206751,0.163367 -1.206751,-0.480712 0,-0.195235 0.07823,-0.406835 0.18729,-0.505575 0.124687,-0.112856 0.317151,-0.167515 0.503922,-0.164093 z m -1.254823,1.329411 c 0.575374,0 0.855333,0.610306 0.507229,1.107293 -0.119001,0.169891 -0.264129,0.228754 -0.563593,0.228754 -0.344776,0 -0.424785,-0.04487 -0.563588,-0.313304 -0.273699,-0.529262 0.02495,-1.022754 0.619952,-1.022754 z" />
  </g>
</svg>
