<?xml version="1.0" encoding="UTF-8" standalone="no"?>
<svg
   width="64"
   height="64"
   version="1.1"
   id="svg73"
   sodipodi:docname="fr.handbrake.ghb.svg"
   inkscape:version="1.4.2 (ebf0e940d0, 2025-05-08)"
   xmlns:inkscape="http://www.inkscape.org/namespaces/inkscape"
   xmlns:sodipodi="http://sodipodi.sourceforge.net/DTD/sodipodi-0.dtd"
   xmlns="http://www.w3.org/2000/svg"
   xmlns:svg="http://www.w3.org/2000/svg"
   xmlns:rdf="http://www.w3.org/1999/02/22-rdf-syntax-ns#"
   xmlns:cc="http://creativecommons.org/ns#"
   xmlns:dc="http://purl.org/dc/elements/1.1/">
  <metadata
     id="metadata77">
    <rdf:RDF>
      <cc:Work
         rdf:about="">
        <dc:format>image/svg+xml</dc:format>
        <dc:type
           rdf:resource="http://purl.org/dc/dcmitype/StillImage" />
      </cc:Work>
    </rdf:RDF>
  </metadata>
  <sodipodi:namedview
     pagecolor="#f5f7fa"
     bordercolor="#666666"
     borderopacity="1"
     objecttolerance="10"
     gridtolerance="10"
     guidetolerance="10"
     inkscape:pageopacity="0"
     inkscape:pageshadow="2"
     inkscape:window-width="1377"
     inkscape:window-height="886"
     id="namedview75"
     showgrid="false"
     inkscape:zoom="6.2890625"
     inkscape:cx="48.099379"
     inkscape:cy="45.396273"
     inkscape:window-x="0"
     inkscape:window-y="47"
     inkscape:window-maximized="0"
     inkscape:current-layer="g877"
     inkscape:document-rotation="0"
     inkscape:pagecheckerboard="0"
     inkscape:showpageshadow="2"
     inkscape:deskcolor="#d1d1d1" />
  <defs
     id="defs29" />
  <circle
     cx="32.516094"
     cy="31.877844"
     r="0"
     fill="url(#b)"
     stroke-width="1.5715"
     id="circle41"
     style="fill:url(#b)" />
  <g
     aria-label="GZ"
     transform="matrix(1.2212657,0,0,0.81882264,0.4960938,-0.1661539)"
     id="text93"
     style="font-weight:bold;font-size:11.5263px;line-height:1.25;font-family:sans-serif;-inkscape-font-specification:'sans-serif Bold';fill:#f2f2f2;stroke-width:0.288159" />
  <g
     id="g877"
     transform="matrix(1.1,0,0,1.1,-3.1845928,-3.2065454)">
    <circle
       style="opacity:1;fill:#414141;stroke:#dfdfdf;stroke-width:2.27272727;stroke-dasharray:none;fill-opacity:1;stroke-opacity:1"
       id="path1"
       cx="31.985994"
       cy="32.005951"
       r="25.454546" />
    <path
       style="fill:#dfdfdf;fill-opacity:1;stroke-width:0.0529061"
       d="M 30.996249,45.273288 C 25.148618,41.7393 22.82798,39.569028 21.5917,36.478104 21.210672,35.525468 20.803734,33.919037 20.680359,32.88049 c -0.01728,-0.145491 -0.05372,-0.419281 -0.08098,-0.608418 -0.201038,-1.394853 -0.317308,-4.173717 -0.331314,-7.91837 l -0.01044,-2.793147 0.52906,-0.150893 c 0.290978,-0.08298 0.636192,-0.182402 0.767133,-0.220911 0.614426,-0.180704 4.4404,-1.295017 5.634505,-1.641053 0.929057,-0.269227 2.834119,-0.823431 3.979725,-1.157749 0.903812,-0.263758 0.727816,-0.268237 1.787049,0.04547 0.595337,0.176325 2.233925,0.653109 3.280182,0.954452 0.436473,0.125713 1.09119,0.316901 1.454918,0.42486 0.363725,0.107959 0.732754,0.214706 0.820048,0.237212 0.08727,0.02246 0.367038,0.102874 0.621652,0.178577 0.760129,0.226026 1.344115,0.397159 2.182377,0.639537 0.436475,0.126205 1.150707,0.333235 1.587185,0.460068 l 0.793597,0.23061 0.01696,1.400927 c 0.01827,1.52343 -0.07286,5.766629 -0.149274,6.956076 -0.229028,3.562254 -0.682313,5.661344 -1.617407,7.489442 -0.932223,1.822484 -2.258411,3.254519 -4.687126,5.061229 -1.204498,0.896015 -5.07515,3.34763 -5.285301,3.34763 -0.04311,0 -0.482507,-0.244244 -0.976461,-0.54276 z m 1.590737,-1.634285 c 0.289752,-0.178921 0.741093,-0.45738 1.002979,-0.618772 1.932396,-1.190871 3.577523,-2.408409 4.655745,-3.445673 1.442612,-1.387812 2.136437,-2.376751 2.7106,-3.863589 0.40233,-1.041858 0.767037,-2.784657 0.88569,-4.232496 0.01802,-0.218253 0.05506,-0.611063 0.08265,-0.872946 0.0959,-0.910831 0.209689,-4.151282 0.209689,-5.969868 0,-1.689039 -0.0067,-1.833836 -0.09261,-1.878931 -0.05092,-0.02685 -0.342567,-0.120996 -0.648112,-0.209149 -1.645545,-0.474826 -3.537593,-1.02569 -4.496984,-1.309308 -0.363745,-0.107524 -0.732764,-0.213372 -0.820058,-0.235215 -0.08729,-0.02183 -0.456318,-0.12769 -0.820047,-0.235215 -0.363739,-0.107526 -0.935126,-0.275022 -1.269755,-0.372216 -0.33463,-0.09719 -0.899241,-0.262165 -1.25468,-0.366609 -0.35544,-0.104441 -0.695534,-0.189893 -0.755754,-0.189893 -0.06022,0 -0.400316,0.08545 -0.755758,0.18989 -0.355441,0.10444 -0.920043,0.269487 -1.254681,0.366772 -0.33463,0.09728 -0.822687,0.239831 -1.084573,0.316781 -0.261885,0.07694 -0.833274,0.243565 -1.269746,0.370262 -0.436474,0.126702 -1.007865,0.293104 -1.269746,0.369786 -0.261889,0.07668 -0.928506,0.270471 -1.481377,0.430649 -0.552868,0.160177 -1.290909,0.374931 -1.640091,0.477227 -0.349179,0.102301 -0.765629,0.221896 -0.925442,0.265777 -0.548683,0.150647 -0.495917,-0.153634 -0.460405,2.65485 0.09654,7.63501 0.628095,10.357283 2.501448,12.810636 0.694127,0.909032 2.030475,2.147298 3.460783,3.206796 1.079631,0.799734 4.001161,2.6611 4.181826,2.664327 0.04487,0.0013 0.318669,-0.144996 0.608421,-0.323866 z m -1.192629,-1.942522 c -2.883486,-1.761592 -5.055413,-3.572786 -6.03818,-5.035303 -1.276134,-1.899082 -1.724481,-4.497152 -1.827081,-10.587565 l -0.03446,-2.045319 0.180295,-0.05253 c 0.09917,-0.02891 0.477895,-0.139752 0.841622,-0.246375 0.363735,-0.106627 1.113679,-0.32524 1.666548,-0.485802 0.552871,-0.160563 1.29091,-0.375711 1.640092,-0.478101 0.349183,-0.102393 0.742007,-0.217078 0.872948,-0.254856 0.337469,-0.09736 1.142499,-0.330318 1.454921,-0.421016 0.145472,-0.04224 0.538321,-0.158181 0.872954,-0.25766 0.334629,-0.09948 0.685786,-0.197627 0.780364,-0.218113 l 0.171946,-0.03725 v 10.215091 c 0,5.618306 -0.01779,10.214364 -0.0397,10.213465 -0.0218,-0.0013 -0.265856,-0.139802 -0.542288,-0.3087 z"
       id="path1-1-0" />
    <circle
       style="fill:#414141;fill-opacity:1;stroke:#dfdfdf;stroke-width:1.08705;stroke-dasharray:none;stroke-opacity:1"
       id="path1-6"
       cx="48.320271"
       cy="48.287033"
       r="12.17483" />
    <path
       id="path1-3"
       style="fill:#dfdfdf;fill-opacity:1;stroke:none;stroke-width:0.20182;stroke-dasharray:none;stroke-dashoffset:2.2;stroke-opacity:0.6"
       d="m 51.761355,43.058253 c -0.20805,-8.7e-5 -0.430751,0.08369 -0.709468,0.246992 -0.663244,0.38861 -1.530643,0.57188 -2.721813,0.57188 -1.191057,0 -2.087392,-0.187174 -2.746686,-0.573538 -0.528668,-0.309806 -0.844291,-0.313912 -1.287974,-0.01478 -1.13908,0.767625 -1.997557,3.228765 -2.249396,6.444848 -0.151015,1.928547 -0.0099,2.945286 0.488995,3.517478 0.240643,0.275876 0.831407,0.229104 1.364229,-0.109404 0.451661,-0.286952 0.989814,-0.920136 1.632759,-1.921198 0.580993,-0.90461 1.283736,-1.202549 2.837856,-1.205094 1.551025,-0.0023 2.160562,0.291041 2.875977,1.390747 1.200302,1.845038 2.309754,2.487372 2.960519,1.713978 0.360522,-0.428447 0.426509,-0.842406 0.409431,-2.565996 -0.03111,-3.131006 -0.849546,-5.979338 -2.02893,-7.066455 -0.314103,-0.289533 -0.557986,-0.429217 -0.825499,-0.42933 z m -6.738245,1.844933 h 0.719412 0.719406 v 0.616637 0.61664 h 0.61664 0.616633 v 0.770797 0.770791 h -0.616633 -0.61664 v 0.668023 0.668026 h -0.651444 c -0.357887,0 -0.68008,-0.03211 -0.717752,-0.06961 -0.03766,-0.03766 -0.06959,-0.336727 -0.06959,-0.666363 v -0.60007 h -0.616645 -0.616641 v -0.770793 -0.770795 h 0.616641 0.616634 v -0.616642 z m 5.86468,0 c 0.649001,0 0.926941,0.71908 0.459164,1.186861 -0.29749,0.297457 -0.568995,0.320837 -0.861967,0.07295 -0.508167,-0.429995 -0.242935,-1.259794 0.402803,-1.259794 z M 49.639599,46.221 c 0.162065,1.09e-4 0.325226,0.06468 0.454185,0.207182 0.201035,0.222143 0.222754,0.730724 0.04146,0.968054 -0.354805,0.464484 -1.20675,0.165717 -1.20675,-0.422693 0,-0.446577 0.354591,-0.752808 0.711121,-0.75256 z m 2.54777,0.02495 c 0.186795,0.0035 0.368135,0.06527 0.474076,0.18233 0.201035,0.222143 0.222724,0.730722 0.04144,0.968055 -0.377384,0.494038 -1.206751,0.163367 -1.206751,-0.480712 0,-0.195235 0.07823,-0.406835 0.18729,-0.505575 0.124687,-0.112856 0.317151,-0.167515 0.503922,-0.164093 z m -1.254823,1.329411 c 0.575374,0 0.855333,0.610306 0.507229,1.107293 -0.119001,0.169891 -0.264129,0.228754 -0.563593,0.228754 -0.344776,0 -0.424785,-0.04487 -0.563588,-0.313304 -0.273699,-0.529262 0.02495,-1.022754 0.619952,-1.022754 z" />
  </g>
</svg>
