<?xml version="1.0" encoding="UTF-8" standalone="no"?>
<svg
   width="64"
   height="64"
   version="1.1"
   id="svg73"
   sodipodi:docname="fr.handbrake.ghb.svg"
   inkscape:version="1.4.2 (ebf0e940d0, 2025-05-08)"
   xmlns:inkscape="http://www.inkscape.org/namespaces/inkscape"
   xmlns:sodipodi="http://sodipodi.sourceforge.net/DTD/sodipodi-0.dtd"
   xmlns="http://www.w3.org/2000/svg"
   xmlns:svg="http://www.w3.org/2000/svg"
   xmlns:rdf="http://www.w3.org/1999/02/22-rdf-syntax-ns#"
   xmlns:cc="http://creativecommons.org/ns#"
   xmlns:dc="http://purl.org/dc/elements/1.1/">
  <metadata
     id="metadata77">
    <rdf:RDF>
      <cc:Work
         rdf:about="">
        <dc:format>image/svg+xml</dc:format>
        <dc:type
           rdf:resource="http://purl.org/dc/dcmitype/StillImage" />
      </cc:Work>
    </rdf:RDF>
  </metadata>
  <sodipodi:namedview
     pagecolor="#f5f7fa"
     bordercolor="#666666"
     borderopacity="1"
     objecttolerance="10"
     gridtolerance="10"
     guidetolerance="10"
     inkscape:pageopacity="0"
     inkscape:pageshadow="2"
     inkscape:window-width="1377"
     inkscape:window-height="886"
     id="namedview75"
     showgrid="false"
     inkscape:zoom="6.2890625"
     inkscape:cx="48.099379"
     inkscape:cy="45.396273"
     inkscape:window-x="0"
     inkscape:window-y="47"
     inkscape:window-maximized="0"
     inkscape:current-layer="g877"
     inkscape:document-rotation="0"
     inkscape:pagecheckerboard="0"
     inkscape:showpageshadow="2"
     inkscape:deskcolor="#d1d1d1" />
  <defs
     id="defs29" />
  <circle
     cx="32.516094"
     cy="31.877844"
     r="0"
     fill="url(#b)"
     stroke-width="1.5715"
     id="circle41"
     style="fill:url(#b)" />
  <g
     aria-label="GZ"
     transform="matrix(1.2212657,0,0,0.81882264,0.4960938,-0.1661539)"
     id="text93"
     style="font-weight:bold;font-size:11.5263px;line-height:1.25;font-family:sans-serif;-inkscape-font-specification:'sans-serif Bold';fill:#f2f2f2;stroke-width:0.288159" />
  <g
     id="g877"
     transform="matrix(1.1,0,0,1.1,-3.1845928,-3.2065454)">
    <circle
       style="opacity:1;fill:#414141;stroke:#dfdfdf;stroke-width:2.27272727;stroke-dasharray:none;fill-opacity:1;stroke-opacity:1"
       id="path1"
       cx="31.985994"
       cy="32.005951"
       r="25.454546" />
    <path
       style="fill:#dfdfdf;fill-opacity:1;stroke:none;stroke-width:0.413556;stroke-dasharray:none;stroke-opacity:0.6"
       d="m 31.922561,45.889102 c -3.93e-4,-0.06822 -0.247731,-0.882968 -0.549647,-1.810592 -0.4883,-1.500257 -0.558736,-1.823561 -0.637616,-2.926698 -0.04877,-0.682068 -0.117697,-1.315574 -0.153159,-1.407784 -0.251647,-0.654396 -2.01638,-0.757524 -2.497948,-0.145982 -0.560501,0.711779 -1.090407,0.670455 -0.966932,-0.0754 0.09302,-0.561842 0.20618,-0.747549 0.887207,-1.455888 0.629511,-0.65475 1.298672,-1.032592 2.182624,-1.232418 l 0.496051,-0.112139 0.04959,-2.423275 c 0.02727,-1.332794 0.0371,-3.658048 0.02176,-5.167227 l -0.02779,-2.74394 -0.319444,0.05033 c -0.175683,0.02771 -0.386397,0.08563 -0.468248,0.128838 -0.08185,0.04323 -0.568854,0.21889 -1.082237,0.390392 -2.129874,0.711528 -4.263003,2.226188 -4.576429,3.249556 -0.163248,0.533015 -0.247403,4.433497 -0.106852,4.95255 0.154361,0.57007 0.498336,1.042286 0.9395,1.289748 0.207165,0.116236 0.384417,0.250035 0.393909,0.297457 0.03073,0.153398 -0.739727,0.225583 -2.512608,0.235344 -1.60964,0.0095 -2.952936,-0.05275 -3.249107,-0.148857 -0.206419,-0.06703 -0.137172,-0.183933 0.250695,-0.423125 0.20316,-0.125266 0.480982,-0.393158 0.617396,-0.595258 l 0.24802,-0.367454 0.02791,-4.142958 0.02791,-4.142959 0.31931,0.172597 c 0.692933,0.37449 2.158698,0.142099 2.849235,-0.45176 0.464459,-0.39942 1.833237,-1.238695 2.638808,-1.617984 0.92014,-0.433236 2.667557,-1.03621 3.289004,-1.134921 0.23191,-0.03685 0.421643,-0.121066 0.421643,-0.187183 0,-0.06612 0.110383,-0.170508 0.245289,-0.231977 0.134904,-0.06147 0.26457,-0.213724 0.288141,-0.338356 0.07859,-0.415538 0.652038,-3.787666 0.772439,-4.542243 0.06529,-0.40924 0.149598,-0.780741 0.187343,-0.825552 0.146985,-0.174546 1.083466,4.117723 1.085484,4.97521 5.72e-4,0.233798 0.08758,0.416871 0.298411,0.627695 0.163691,0.163692 0.297629,0.328085 0.297629,0.365309 0,0.03724 0.368317,0.149792 0.818484,0.250154 0.988641,0.220414 2.334763,0.727313 3.289412,1.238678 1.006613,0.539196 2.052387,1.191681 2.340774,1.460466 0.392466,0.365799 0.972492,0.557891 1.731906,0.573591 0.481462,0.0099 0.799016,-0.03703 1.021177,-0.151128 l 0.32245,-0.165564 0.0022,3.98561 c 0.0029,4.542124 -0.0067,4.483332 0.82919,5.182241 0.317361,0.265271 0.425462,0.413737 0.353617,0.485612 -0.150579,0.150554 -5.437954,0.140558 -5.694231,-0.0107 -0.180357,-0.106528 -0.170206,-0.124301 0.14883,-0.260032 0.402898,-0.171431 0.688913,-0.468079 0.97684,-1.013098 0.192152,-0.363712 0.208907,-0.553734 0.208907,-2.372916 0,-2.53462 -0.09095,-3.083919 -0.60797,-3.671266 -0.558232,-0.633986 -1.410074,-1.24547 -2.553058,-1.832582 -1.204947,-0.618938 -3.291245,-1.364534 -3.429979,-1.225801 -0.02902,0.02899 -0.05273,2.343878 -0.0526,5.144074 l 2.2e-4,5.09127 0.419666,0.105953 c 1.490896,0.376538 2.737639,1.32705 3.111137,2.371897 0.18602,0.520361 0.165011,0.780155 -0.07338,0.907743 -0.180906,0.09678 -0.258597,0.0642 -0.570474,-0.239701 -0.440141,-0.428926 -0.964982,-0.659121 -1.502674,-0.659121 -0.404585,0 -1.059882,0.267089 -1.259993,0.5136 -0.05859,0.07224 -0.128955,0.733967 -0.15633,1.470598 -0.04807,1.293898 -0.06864,1.397602 -0.606069,3.056716 -0.305971,0.944545 -0.556311,1.736989 -0.556311,1.76097 0,0.02349 -0.04463,0.04366 -0.0992,0.04366 -0.05457,0 -0.09953,-0.05577 -0.09993,-0.124039 z"
       id="path1-3-6" />
    <circle
       style="fill:#414141;fill-opacity:1;stroke:#dfdfdf;stroke-width:1.08705;stroke-dasharray:none;stroke-opacity:1"
       id="path1-6"
       cx="48.320271"
       cy="48.287033"
       r="12.17483" />
    <path
       id="path1-3"
       style="fill:#dfdfdf;fill-opacity:1;stroke:none;stroke-width:0.20182;stroke-dasharray:none;stroke-dashoffset:2.2;stroke-opacity:0.6"
       d="m 51.761355,43.058253 c -0.20805,-8.7e-5 -0.430751,0.08369 -0.709468,0.246992 -0.663244,0.38861 -1.530643,0.57188 -2.721813,0.57188 -1.191057,0 -2.087392,-0.187174 -2.746686,-0.573538 -0.528668,-0.309806 -0.844291,-0.313912 -1.287974,-0.01478 -1.13908,0.767625 -1.997557,3.228765 -2.249396,6.444848 -0.151015,1.928547 -0.0099,2.945286 0.488995,3.517478 0.240643,0.275876 0.831407,0.229104 1.364229,-0.109404 0.451661,-0.286952 0.989814,-0.920136 1.632759,-1.921198 0.580993,-0.90461 1.283736,-1.202549 2.837856,-1.205094 1.551025,-0.0023 2.160562,0.291041 2.875977,1.390747 1.200302,1.845038 2.309754,2.487372 2.960519,1.713978 0.360522,-0.428447 0.426509,-0.842406 0.409431,-2.565996 -0.03111,-3.131006 -0.849546,-5.979338 -2.02893,-7.066455 -0.314103,-0.289533 -0.557986,-0.429217 -0.825499,-0.42933 z m -6.738245,1.844933 h 0.719412 0.719406 v 0.616637 0.61664 h 0.61664 0.616633 v 0.770797 0.770791 h -0.616633 -0.61664 v 0.668023 0.668026 h -0.651444 c -0.357887,0 -0.68008,-0.03211 -0.717752,-0.06961 -0.03766,-0.03766 -0.06959,-0.336727 -0.06959,-0.666363 v -0.60007 h -0.616645 -0.616641 v -0.770793 -0.770795 h 0.616641 0.616634 v -0.616642 z m 5.86468,0 c 0.649001,0 0.926941,0.71908 0.459164,1.186861 -0.29749,0.297457 -0.568995,0.320837 -0.861967,0.07295 -0.508167,-0.429995 -0.242935,-1.259794 0.402803,-1.259794 z M 49.639599,46.221 c 0.162065,1.09e-4 0.325226,0.06468 0.454185,0.207182 0.201035,0.222143 0.222754,0.730724 0.04146,0.968054 -0.354805,0.464484 -1.20675,0.165717 -1.20675,-0.422693 0,-0.446577 0.354591,-0.752808 0.711121,-0.75256 z m 2.54777,0.02495 c 0.186795,0.0035 0.368135,0.06527 0.474076,0.18233 0.201035,0.222143 0.222724,0.730722 0.04144,0.968055 -0.377384,0.494038 -1.206751,0.163367 -1.206751,-0.480712 0,-0.195235 0.07823,-0.406835 0.18729,-0.505575 0.124687,-0.112856 0.317151,-0.167515 0.503922,-0.164093 z m -1.254823,1.329411 c 0.575374,0 0.855333,0.610306 0.507229,1.107293 -0.119001,0.169891 -0.264129,0.228754 -0.563593,0.228754 -0.344776,0 -0.424785,-0.04487 -0.563588,-0.313304 -0.273699,-0.529262 0.02495,-1.022754 0.619952,-1.022754 z" />
  </g>
</svg>
