<?xml version="1.0" encoding="UTF-8" standalone="no"?>
<svg
   width="64"
   height="64"
   version="1.1"
   id="svg73"
   sodipodi:docname="fr.handbrake.ghb.svg"
   inkscape:version="1.4.2 (ebf0e940d0, 2025-05-08)"
   xmlns:inkscape="http://www.inkscape.org/namespaces/inkscape"
   xmlns:sodipodi="http://sodipodi.sourceforge.net/DTD/sodipodi-0.dtd"
   xmlns="http://www.w3.org/2000/svg"
   xmlns:svg="http://www.w3.org/2000/svg"
   xmlns:rdf="http://www.w3.org/1999/02/22-rdf-syntax-ns#"
   xmlns:cc="http://creativecommons.org/ns#"
   xmlns:dc="http://purl.org/dc/elements/1.1/">
  <metadata
     id="metadata77">
    <rdf:RDF>
      <cc:Work
         rdf:about="">
        <dc:format>image/svg+xml</dc:format>
        <dc:type
           rdf:resource="http://purl.org/dc/dcmitype/StillImage" />
      </cc:Work>
    </rdf:RDF>
  </metadata>
  <sodipodi:namedview
     pagecolor="#f5f7fa"
     bordercolor="#666666"
     borderopacity="1"
     objecttolerance="10"
     gridtolerance="10"
     guidetolerance="10"
     inkscape:pageopacity="0"
     inkscape:pageshadow="2"
     inkscape:window-width="1377"
     inkscape:window-height="886"
     id="namedview75"
     showgrid="false"
     inkscape:zoom="6.2890625"
     inkscape:cx="48.099379"
     inkscape:cy="45.396273"
     inkscape:window-x="0"
     inkscape:window-y="47"
     inkscape:window-maximized="0"
     inkscape:current-layer="g877"
     inkscape:document-rotation="0"
     inkscape:pagecheckerboard="0"
     inkscape:showpageshadow="2"
     inkscape:deskcolor="#d1d1d1" />
  <defs
     id="defs29" />
  <circle
     cx="32.516094"
     cy="31.877844"
     r="0"
     fill="url(#b)"
     stroke-width="1.5715"
     id="circle41"
     style="fill:url(#b)" />
  <g
     aria-label="GZ"
     transform="matrix(1.2212657,0,0,0.81882264,0.4960938,-0.1661539)"
     id="text93"
     style="font-weight:bold;font-size:11.5263px;line-height:1.25;font-family:sans-serif;-inkscape-font-specification:'sans-serif Bold';fill:#f2f2f2;stroke-width:0.288159" />
  <g
     id="g877"
     transform="matrix(1.1,0,0,1.1,-3.1845928,-3.2065454)">
    <circle
       style="opacity:1;fill:#414141;stroke:#dfdfdf;stroke-width:2.27272727;stroke-dasharray:none;fill-opacity:1;stroke-opacity:1"
       id="path1"
       cx="31.985994"
       cy="32.005951"
       r="25.454546" />
    <path
       d="m 39.400349,19.619848 c -0.156346,-0.0046 -0.313026,0.01615 -0.458703,0.06155 -0.283967,0.08997 -0.577917,0.266598 -0.720823,0.527837 -0.289913,0.530059 -0.316521,1.240915 -0.113183,1.809788 0.557862,1.560701 2.171133,2.523749 3.385681,3.64139 0.414121,0.38106 4.318137,3.143455 2.321325,6.165529 -0.07556,0.114506 -0.162296,0.220734 -0.260136,0.319495 0.265768,0.381747 0.517553,0.772178 0.718845,1.188666 0.09335,-0.07213 0.183174,-0.145166 0.270071,-0.218219 1.465824,-1.233198 1.370359,-3.677845 0.770458,-4.909395 -0.532531,-1.093247 -1.358055,-2.03521 -2.214107,-2.89921 C 42.327249,24.527545 39.68478,23.014265 39.3805,22.066735 39.236285,21.61776 39.108996,20.903787 39.511546,20.6578 c 0.215091,-0.131418 0.777545,0.02289 1.054417,0.390928 0.159923,0.212926 0.421781,0.529463 0.385237,-0.0069 -0.03937,-0.576289 -0.686079,-1.217011 -1.092157,-1.345419 -0.145673,-0.04603 -0.302323,-0.07328 -0.458701,-0.07742 z m -1.141794,7.657824 c -0.04901,0.0022 -0.06794,0.0671 -0.06154,0.222336 0.05342,1.292434 -0.915115,1.661911 -1.058407,1.531944 -0.162454,-0.147478 -0.220102,-0.06023 -0.198572,0.116995 0.02841,0.234848 0.05001,0.276765 0.260134,0.644934 0.03515,0.06155 0.05515,0.199671 -0.04369,0.04766 -0.588913,-0.906742 -0.293607,-1.638253 -0.09729,-2.135225 0.112218,-0.284093 -0.01904,-0.311249 -0.17078,-0.128898 -0.73741,0.888795 -1.465966,1.565716 -2.102919,2.764248 -0.09028,0.169917 -0.09273,0.286216 0.146949,0.07742 0.59149,-0.515267 1.051326,-0.104638 0.85985,0.309581 -0.507341,1.097366 -1.399738,1.360075 -1.71965,1.498212 -1.197482,0.517032 -1.329221,0.478222 -1.854677,2.607496 -0.327089,1.325487 0.109244,4.565476 0.510336,6.330269 0.03876,0.170598 0.08035,0.334673 0.125085,0.494131 0.349755,-0.334444 0.70179,-0.690361 1.153716,-0.859255 -0.105417,-0.485134 -0.19817,-1.085697 -0.264108,-1.845508 -0.05287,-2.521625 -0.01686,-4.963918 3.447237,-4.431182 2.700858,0.374722 4.412179,0.136248 5.613675,-0.343282 -0.17095,-0.434896 -0.379124,-0.853008 -0.617529,-1.256116 -1.62133,0.522589 -3.789965,0.325692 -4.602937,-0.121134 -1.458128,-0.801284 -0.325033,-1.370909 -0.03973,-1.36132 0.693742,0.02343 0.99184,0.575125 1.040533,0.694539 0.142803,0.350379 0.228297,0.237744 0.415025,0.05562 1.305531,-1.273937 0.857068,-3.674362 -0.569916,-4.818123 -0.07677,-0.06155 -0.132625,-0.09708 -0.170777,-0.09527 z m 2.492098,8.0904 c -0.546088,0.01849 -1.172875,0.205635 -1.652135,0.775918 -0.797491,0.94883 -1.114946,2.119284 -1.256972,3.171072 0.400604,0.150033 0.81452,0.25082 1.239108,0.299639 0.14246,-1.49915 0.532545,-2.41579 1.062361,-2.897234 0.537553,-0.488482 1.084702,-0.362749 1.197399,-0.305591 0.184036,0.09322 0.301915,0.473335 0.311765,0.730252 0.0267,0.703689 0.525454,0.403607 0.617568,-0.119083 0.04652,-0.264044 0.112454,-1.236638 -0.500409,-1.49027 -0.217622,-0.08996 -0.593945,-0.178836 -1.018685,-0.164637 z m -3.044136,5.709144 c -0.01515,0.274552 -0.03247,0.507893 -0.0655,0.680659 -0.277536,1.449713 -1.007057,3.025378 -2.859462,1.004113 -0.07644,-0.122237 -0.171261,-0.269584 -0.272045,-0.466341 -0.44902,0.136253 -0.845976,0.425737 -1.112011,0.811634 0.275543,0.564398 0.571605,0.982283 0.830038,1.230311 1.265171,1.214261 2.748248,0.927376 3.469076,0.353224 0.54688,-0.435592 1.092079,-1.147502 1.280805,-3.393325 -0.431307,-0.02784 -0.856756,-0.100342 -1.270874,-0.220285 z M 42.017546,22.50518 c -0.464044,0.01379 -0.985761,0.188895 -1.51908,0.652858 0.3211,0.27873 0.674483,0.523761 1.02265,0.771947 0.291396,-0.191647 0.638972,-0.281345 1.032581,-0.238147 1.09871,0.120685 1.482787,0.824795 1.648161,1.583554 0.09127,0.418685 0.413955,0.734945 0.413033,-0.04558 -7.31e-4,-0.594949 -0.01669,-1.279474 -1.020665,-2.149104 -0.262636,-0.227605 -0.807004,-0.566238 -1.485333,-0.575487 -0.03033,-4.56e-4 -0.06036,-9e-4 -0.09131,0 z m -2.410678,1.720462 c -0.03348,0.0522 -0.06794,0.101935 -0.10128,0.156856 -0.33048,0.545379 -0.600147,2.624093 0.345526,4.56018 0.440318,0.90146 1.09934,1.975659 1.965873,3.184952 2.170509,3.029037 2.001979,6.062092 -0.258176,7.187512 0.195205,0.417144 0.33127,0.86397 0.375303,1.321601 1.385083,-0.616836 2.109405,-1.564686 2.460351,-2.58368 0.924305,-2.683763 -0.267019,-4.835919 -0.611603,-5.33806 L 41.544946,29.454552 C 40.53032,27.97598 40.324888,26.298428 40.689102,25.134516 40.325213,24.83472 39.95814,24.538606 39.606868,24.225642 Z M 34.46977,35.844346 c -0.27321,0.0091 -0.277411,0.109722 -0.349491,0.259963 -0.236561,0.493263 -0.261389,1.023411 -0.279987,1.53592 -0.01834,0.504717 0.125242,0.687191 0.287931,0.76598 0.254204,0.123179 1.202855,1.04986 1.944035,1.668891 1.296417,1.082742 2.949972,1.210211 4.156139,1.049752 0.06154,-0.476888 -0.09687,-0.95603 -0.341539,-1.373228 -0.04425,0.005 -0.08794,0.0068 -0.13299,0.0091 -2.026551,0.119265 -4.653753,-1.390075 -4.366672,-3.453106 0.03784,-0.271758 -0.181307,-0.285651 -0.244241,-0.333363 -0.157377,-0.119139 -0.357048,-0.119139 -0.538132,-0.128732 -0.05098,-0.0022 -0.096,-0.0022 -0.135043,-0.0018 z M 21.784897,22.50518 c -0.678323,0.0091 -1.222722,0.34793 -1.485337,0.575488 -1.003706,0.869629 -1.017974,1.554152 -1.01868,2.149102 -9e-4,0.780582 0.319797,0.464318 0.411048,0.04557 0.165344,-0.75876 0.55144,-1.462976 1.650152,-1.583555 2.033228,-0.223252 2.83865,3.093174 1.006767,5.762697 l -1.812982,2.641244 c 0.31452,0.301015 0.708254,0.515906 1.119957,0.666759 0.129083,-0.211349 0.269096,-0.423061 0.420977,-0.634999 0.866535,-1.209296 1.525554,-2.283491 1.965878,-3.18495 0.945665,-1.936088 0.676005,-4.014803 0.345518,-4.56018 -0.894273,-1.475776 -1.834538,-1.887725 -2.603298,-1.877241 z m -2.096939,10.993598 c -0.422412,0.963557 -0.854346,2.621289 -0.188652,4.554206 0.415531,1.206504 1.355039,2.313719 3.294333,2.889297 0.517517,0.153659 1.255802,0.271825 2.061193,0.230177 -0.03248,-0.474187 -0.04333,-0.950913 -0.07944,-1.424809 -0.215395,0.02087 -0.428795,0.02612 -0.635432,0.01356 -3.132798,-0.18444 -4.280497,-2.64064 -3.206962,-5.528399 -0.442314,-0.196233 -0.857867,-0.444834 -1.245056,-0.734236 z m 9.73606,2.345568 c -0.03905,-0.0014 -0.08407,-7.29e-4 -0.135054,0.0018 -0.1811,0.0091 -0.380766,0.0091 -0.538136,0.12889 -0.06294,0.04765 -0.282069,0.06158 -0.244244,0.333368 0.190178,1.36653 -0.898316,2.489727 -2.243884,3.057956 0.06332,0.502372 0.09581,1.007909 0.121133,1.514111 0.499689,-0.173363 0.99019,-0.431924 1.437673,-0.805652 0.741185,-0.61904 1.68983,-1.545759 1.944034,-1.668902 0.162727,-0.07874 0.306248,-0.261261 0.28793,-0.765966 -0.01858,-0.51252 -0.04342,-1.042674 -0.279985,-1.53593 -0.0721,-0.150213 -0.07622,-0.251625 -0.349485,-0.259964 z m 6.384138,-1.218424 c -0.436776,0.0091 -0.862895,0.141727 -1.256972,0.636985 -0.107185,0.134844 -0.307986,0.331974 0.05957,0.375069 0.925848,0.108559 1.19659,0.288936 1.574686,0.565542 0.645133,0.471943 1.313819,0.92635 1.928153,1.420825 0.172058,-0.469193 0.405893,-0.915605 0.698978,-1.319614 -0.300493,-0.260475 -0.702162,-0.595707 -1.330443,-1.117227 -0.02755,-0.02291 -0.05601,-0.143802 -0.04961,-0.214315 0.0159,-0.178603 -0.06556,-0.247972 -0.303837,-0.246052 -0.437227,0.0045 -0.883748,-0.110596 -1.320525,-0.101207 z m 4.038982,2.657106 c -0.272112,0.458158 -0.418945,0.974438 -0.522241,1.496258 0.02584,0.03064 0.05218,0.06206 0.07743,0.09322 0.708572,0.87665 1.609021,2.11395 0.301817,3.403246 -0.239675,0.236414 -0.519872,0.333624 -0.808197,0.341312 -3.4e-5,1.4e-4 -0.0018,-1.11e-4 -0.0018,0 -0.102094,0.438926 -0.241973,0.866495 -0.442824,1.266059 1.002753,0.26281 1.961911,0.12503 2.676773,-0.914815 0.995929,-1.448631 1.129963,-3.247197 -1.058396,-5.461081 -0.08977,-0.0909 -0.147865,-0.149041 -0.222399,-0.224148 z m -5.176808,3.526284 c -0.931321,0.0023 -1.399218,0.663076 -1.842761,1.049759 -0.635984,0.554455 -0.791537,1.69739 -0.460696,2.615447 0.111587,0.309616 0.355579,1.13385 1.104074,1.234296 0.627737,0.0843 0.940666,0.03275 0.420973,-0.315488 -0.350281,-0.23464 -0.519825,-0.517052 -0.675152,-0.752116 -0.466822,-0.706418 -0.02105,-1.670979 0.472608,-2.047902 1.512403,-1.15427 2.234491,0.09593 3.161288,0.60924 0.02728,0.0159 0.05431,0.02874 0.08144,0.04369 0.261806,-0.339887 0.416802,-0.746327 0.512304,-1.168809 -0.02426,-0.01827 -0.04856,-0.03437 -0.07148,-0.05157 -1.210918,-0.912527 -2.065378,-1.218297 -2.7026,-1.216417 z m -6.537038,-6.18339 c -0.436777,-0.0091 -0.885279,0.104628 -1.322503,0.101216 -0.23822,-0.0018 -0.31996,0.06755 -0.303817,0.246053 0.0064,0.07053 -0.022,0.191436 -0.04963,0.214317 -1.712822,1.421739 -1.757137,1.479814 -2.58741,2.319759 -0.614047,0.621212 -1.045869,1.208889 -1.326474,1.766124 0.456055,0.198075 0.946672,0.304534 1.443628,0.351251 0.168149,-0.271594 0.365637,-0.523925 0.550048,-0.752103 0.854714,-1.057455 2.074068,-1.833006 3.216889,-2.669017 0.3781,-0.276604 0.648838,-0.457039 1.574685,-0.565552 0.367558,-0.04303 0.16677,-0.240315 0.05959,-0.375066 -0.394073,-0.495299 -0.818208,-0.627535 -1.254982,-0.636995 z m 1.113995,6.185378 c -0.634767,0.0046 -1.483549,0.312271 -2.680744,1.214457 -0.590643,0.445103 -1.632384,0.939345 -2.331251,0.250036 -0.353105,-0.348253 -0.543309,-0.693317 -0.621533,-1.027915 -0.51176,-0.07375 -1.01152,-0.212692 -1.491291,-0.404814 -0.02104,0.78021 0.250009,1.486676 0.689047,2.125288 1.09357,1.590653 2.759033,1.075071 4.27728,0.234194 0.733092,-0.406039 1.337932,-1.270589 2.307422,-1.043809 0.190592,-0.402567 0.3195,-0.828918 0.41899,-1.262077 -0.16925,-0.05522 -0.35633,-0.0868 -0.56792,-0.08536 z m 1.930133,1.107314 c -0.128683,0.421085 -0.285255,0.834 -0.476573,1.230335 0.239075,0.448042 0.33033,1.025452 0.02176,1.492246 -0.155312,0.235083 -0.324867,0.517433 -0.675146,0.752115 -0.519698,0.348157 -0.206767,0.399751 0.420973,0.31549 0.748485,-0.10053 0.99249,-0.924675 1.104069,-1.2343 0.319412,-0.886294 0.186715,-1.982277 -0.395147,-2.555905 z M 24.572869,19.633725 c -0.156367,0.0046 -0.312993,0.03136 -0.458709,0.07742 -0.406071,0.128461 -1.052821,0.76913 -1.092151,1.345416 -0.03658,0.53542 0.223341,0.2189 0.383247,0.0068 0.276874,-0.36853 0.839298,-0.522402 1.054424,-0.390948 0.402557,0.245981 0.27524,0.959959 0.131072,1.408944 -0.10379,0.323187 -0.48224,0.712268 -0.963079,1.115217 0.272473,0.26644 0.507597,0.56873 0.718836,0.887033 0.654896,-0.593447 1.229706,-1.242275 1.519084,-2.051867 0.203333,-0.568867 0.176748,-1.277735 -0.113187,-1.807791 -0.142897,-0.261241 -0.436842,-0.437783 -0.720817,-0.527856 -0.145682,-0.04625 -0.302337,-0.06571 -0.45871,-0.06161 z m -2.152533,4.484755 c -0.635785,0.461363 -1.240885,0.88971 -1.548878,1.200593 -0.856057,0.863997 -1.681578,1.80795 -2.214097,2.901178 -0.599898,1.23157 -0.693381,3.676218 0.77245,4.909418 1.218907,1.025494 3.002158,2.00835 7.351195,1.404976 3.464159,-0.532761 3.502079,1.911503 3.449218,4.433145 -0.222719,2.567177 -0.754598,3.35105 -1.040523,3.80809 -1.062234,1.159053 -1.753931,1.13385 -2.204171,0.629043 -0.429411,0.227594 -0.874768,0.431182 -1.340369,0.567549 0.195113,0.340453 0.413592,0.556725 0.631466,0.730244 0.720828,0.574161 2.203908,0.863038 3.469082,-0.351226 0.499108,-0.479041 1.136894,-1.587513 1.497243,-3.173059 0.401085,-1.764795 0.839408,-5.004785 0.512318,-6.330269 -0.525454,-2.129305 -0.657195,-2.092461 -1.854682,-2.609491 -0.319907,-0.138082 -1.212306,-0.398853 -1.71964,-1.496245 -0.191469,-0.414174 0.268362,-0.824819 0.85982,-0.309552 0.239685,0.208829 0.235249,0.09252 0.14499,-0.07742 -0.63695,-1.198533 -1.363521,-1.877449 -2.100906,-2.766243 -0.151201,-0.182272 -0.284974,-0.154999 -0.172775,0.1289 0.196295,0.496968 0.491616,1.228482 -0.09728,2.135206 -0.0988,0.152297 -0.07888,0.01352 -0.04368,-0.04765 0.210086,-0.368173 0.233642,-0.410072 0.262122,-0.644934 0.02126,-0.177219 -0.03809,-0.262431 -0.200561,-0.115162 -0.143271,0.130064 -1.109847,-0.24147 -1.056409,-1.533913 0.01119,-0.27592 -0.05683,-0.265704 -0.232331,-0.125041 -1.426979,1.143766 -1.875442,3.544191 -0.569906,4.818147 0.186682,0.182276 0.27218,0.29481 0.415017,-0.05562 0.04867,-0.119514 0.346791,-0.673139 1.040528,-0.69652 0.285324,-0.009 1.416427,0.562026 -0.0417,1.363306 -1.159714,0.637263 -5.078296,0.768579 -6.231241,-0.976336 -1.996811,-3.0221 1.907205,-5.784477 2.321328,-6.16556 0.192275,-0.176994 0.395096,-0.349624 0.601677,-0.521884 -0.133449,-0.39469 -0.339902,-0.769176 -0.659268,-1.033896 z m 0.732728,11.261503 c -0.03743,-2.5e-4 -0.07474,7.6e-4 -0.11119,0.002 -0.34997,0.01118 -0.6514,0.08748 -0.83798,0.164628 -0.612895,0.253667 -0.548916,1.226288 -0.50239,1.490276 0.09211,0.522688 0.592485,0.822782 0.619551,0.11908 0.0098,-0.256925 0.125771,-0.638908 0.309776,-0.73222 0.112668,-0.05729 0.661833,-0.182966 1.199381,0.305598 0.104458,0.09479 0.203163,0.207495 0.295871,0.337328 0.272774,-0.271883 0.550997,-0.537966 0.841954,-0.791768 -0.03145,-0.04006 -0.06225,-0.07971 -0.0953,-0.119079 -0.49922,-0.593954 -1.158519,-0.771847 -1.719642,-0.775901 z m 2.633088,2.438849 c -0.361535,0.299071 -0.70085,0.617421 -1.010742,0.968393 1.28e-4,6.43e-4 -1.24e-4,0.0014 0,0.0019 0.086,0.460082 0.143135,0.993305 0.164827,1.605377 0.03058,0.862695 0.10305,1.544283 0.206513,2.091536 0.443876,-0.02557 0.868336,-0.229993 1.233146,-0.484189 -0.01741,-0.07761 -0.03481,-0.154781 -0.04966,-0.232159 -0.134163,-0.700663 -0.0042,-2.367111 -0.544094,-3.950948 z m 5.649412,-19.550363 c -0.08088,9e-4 -0.162397,0.01364 -0.240283,0.02771 -1.189506,0.211567 -2.319844,0.73865 -3.367811,1.339461 -0.530526,0.304172 -0.672762,0.432719 -0.93131,1.006101 -0.564611,1.25216 -1.032135,2.827149 -1.360224,3.889421 -0.17605,0.570009 -0.05332,0.668266 0.127094,0.906884 1.90352,2.517779 4.327884,5.265222 5.605724,7.451443 0.120022,0.205376 0.276523,0.592523 0.664544,-0.13074 0.04266,-0.10051 0.05165,-0.07074 0.09245,0.0069 0.38531,0.713851 0.541186,0.328483 0.660823,0.123868 1.277841,-2.186212 3.70221,-4.933657 5.605732,-7.451434 0.180383,-0.238626 0.303143,-0.336872 0.127067,-0.906886 -0.328071,-1.062278 -0.795602,-2.637272 -1.360215,-3.889427 -0.258554,-0.573383 -0.400791,-0.701926 -0.931312,-1.006104 -1.047968,-0.600809 -2.178303,-1.127983 -3.367808,-1.339463 -0.155709,-0.02771 -0.328683,-0.04899 -0.474589,0.01177 -0.09184,0.03848 -0.15655,0.139916 -0.252449,0.176537 -0.03193,0.01177 -0.06866,0.02064 -0.10177,0.01177 -0.104091,-0.02681 -0.164939,-0.1486 -0.261362,-0.188892 -0.07297,-0.03043 -0.153457,-0.04076 -0.234324,-0.03961 z"
       id="path339"
       style="fill:#dfdfdf;fill-opacity:1;stroke:none;stroke-width:0.413556;stroke-dasharray:none;stroke-opacity:0.6" />
    <circle
       style="fill:#414141;fill-opacity:1;stroke:#dfdfdf;stroke-width:1.08705;stroke-dasharray:none;stroke-opacity:1"
       id="path1-6"
       cx="48.320271"
       cy="48.287033"
       r="12.17483" />
    <path
       id="path1-3"
       style="fill:#dfdfdf;fill-opacity:1;stroke:none;stroke-width:0.20182;stroke-dasharray:none;stroke-dashoffset:2.2;stroke-opacity:0.6"
       d="m 51.761355,43.058253 c -0.20805,-8.7e-5 -0.430751,0.08369 -0.709468,0.246992 -0.663244,0.38861 -1.530643,0.57188 -2.721813,0.57188 -1.191057,0 -2.087392,-0.187174 -2.746686,-0.573538 -0.528668,-0.309806 -0.844291,-0.313912 -1.287974,-0.01478 -1.13908,0.767625 -1.997557,3.228765 -2.249396,6.444848 -0.151015,1.928547 -0.0099,2.945286 0.488995,3.517478 0.240643,0.275876 0.831407,0.229104 1.364229,-0.109404 0.451661,-0.286952 0.989814,-0.920136 1.632759,-1.921198 0.580993,-0.90461 1.283736,-1.202549 2.837856,-1.205094 1.551025,-0.0023 2.160562,0.291041 2.875977,1.390747 1.200302,1.845038 2.309754,2.487372 2.960519,1.713978 0.360522,-0.428447 0.426509,-0.842406 0.409431,-2.565996 -0.03111,-3.131006 -0.849546,-5.979338 -2.02893,-7.066455 -0.314103,-0.289533 -0.557986,-0.429217 -0.825499,-0.42933 z m -6.738245,1.844933 h 0.719412 0.719406 v 0.616637 0.61664 h 0.61664 0.616633 v 0.770797 0.770791 h -0.616633 -0.61664 v 0.668023 0.668026 h -0.651444 c -0.357887,0 -0.68008,-0.03211 -0.717752,-0.06961 -0.03766,-0.03766 -0.06959,-0.336727 -0.06959,-0.666363 v -0.60007 h -0.616645 -0.616641 v -0.770793 -0.770795 h 0.616641 0.616634 v -0.616642 z m 5.86468,0 c 0.649001,0 0.926941,0.71908 0.459164,1.186861 -0.29749,0.297457 -0.568995,0.320837 -0.861967,0.07295 -0.508167,-0.429995 -0.242935,-1.259794 0.402803,-1.259794 z M 49.639599,46.221 c 0.162065,1.09e-4 0.325226,0.06468 0.454185,0.207182 0.201035,0.222143 0.222754,0.730724 0.04146,0.968054 -0.354805,0.464484 -1.20675,0.165717 -1.20675,-0.422693 0,-0.446577 0.354591,-0.752808 0.711121,-0.75256 z m 2.54777,0.02495 c 0.186795,0.0035 0.368135,0.06527 0.474076,0.18233 0.201035,0.222143 0.222724,0.730722 0.04144,0.968055 -0.377384,0.494038 -1.206751,0.163367 -1.206751,-0.480712 0,-0.195235 0.07823,-0.406835 0.18729,-0.505575 0.124687,-0.112856 0.317151,-0.167515 0.503922,-0.164093 z m -1.254823,1.329411 c 0.575374,0 0.855333,0.610306 0.507229,1.107293 -0.119001,0.169891 -0.264129,0.228754 -0.563593,0.228754 -0.344776,0 -0.424785,-0.04487 -0.563588,-0.313304 -0.273699,-0.529262 0.02495,-1.022754 0.619952,-1.022754 z" />
  </g>
</svg>
