<?xml version="1.0" encoding="UTF-8" standalone="no"?>
<svg
   width="64"
   height="64"
   version="1.1"
   id="svg73"
   sodipodi:docname="fr.handbrake.ghb.svg"
   inkscape:version="1.4.2 (ebf0e940d0, 2025-05-08)"
   xmlns:inkscape="http://www.inkscape.org/namespaces/inkscape"
   xmlns:sodipodi="http://sodipodi.sourceforge.net/DTD/sodipodi-0.dtd"
   xmlns="http://www.w3.org/2000/svg"
   xmlns:svg="http://www.w3.org/2000/svg"
   xmlns:rdf="http://www.w3.org/1999/02/22-rdf-syntax-ns#"
   xmlns:cc="http://creativecommons.org/ns#"
   xmlns:dc="http://purl.org/dc/elements/1.1/">
  <metadata
     id="metadata77">
    <rdf:RDF>
      <cc:Work
         rdf:about="">
        <dc:format>image/svg+xml</dc:format>
        <dc:type
           rdf:resource="http://purl.org/dc/dcmitype/StillImage" />
      </cc:Work>
    </rdf:RDF>
  </metadata>
  <sodipodi:namedview
     pagecolor="#f5f7fa"
     bordercolor="#666666"
     borderopacity="1"
     objecttolerance="10"
     gridtolerance="10"
     guidetolerance="10"
     inkscape:pageopacity="0"
     inkscape:pageshadow="2"
     inkscape:window-width="1377"
     inkscape:window-height="886"
     id="namedview75"
     showgrid="false"
     inkscape:zoom="6.2890625"
     inkscape:cx="48.099379"
     inkscape:cy="45.396273"
     inkscape:window-x="0"
     inkscape:window-y="47"
     inkscape:window-maximized="0"
     inkscape:current-layer="g877"
     inkscape:document-rotation="0"
     inkscape:pagecheckerboard="0"
     inkscape:showpageshadow="2"
     inkscape:deskcolor="#d1d1d1" />
  <defs
     id="defs29" />
  <circle
     cx="32.516094"
     cy="31.877844"
     r="0"
     fill="url(#b)"
     stroke-width="1.5715"
     id="circle41"
     style="fill:url(#b)" />
  <g
     aria-label="GZ"
     transform="matrix(1.2212657,0,0,0.81882264,0.4960938,-0.1661539)"
     id="text93"
     style="font-weight:bold;font-size:11.5263px;line-height:1.25;font-family:sans-serif;-inkscape-font-specification:'sans-serif Bold';fill:#f2f2f2;stroke-width:0.288159" />
  <g
     id="g877"
     transform="matrix(1.1,0,0,1.1,-3.1845928,-3.2065454)">
    <circle
       style="opacity:1;fill:#414141;stroke:#dfdfdf;stroke-width:2.27272727;stroke-dasharray:none;fill-opacity:1;stroke-opacity:1"
       id="path1"
       cx="31.985994"
       cy="32.005951"
       r="25.454546" />
    <path
       d="m 26.507466,20.095469 q -0.07939,0 -0.07939,-0.105871 h 0.05294 v 0.05294 l 0.05294,-0.02646 0.02646,0.05294 z m 0.317613,0.05293 h -0.07939 q -0.05294,0 -0.07939,-0.158806 h 0.02646 q 0.132339,0.05294 0.132339,0.158806 z m -0.582288,0.05294 h -0.05294 q 0,-0.132341 0.05294,-0.132341 h 0.05294 q 0,0.132341 -0.05294,0.132341 z m -0.264677,0.02646 q -0.158806,-0.02646 -0.158806,-0.132341 h 0.10587 q 0.05294,0.02647 0.05294,0.132341 z m -0.291144,0.05293 h -0.07939 q 0,-0.132338 0.07939,-0.132338 0.07939,0 0.07939,0.05294 z m -0.449951,0.185273 -0.02647,-0.05294 q 0.02647,-0.132339 0.105874,-0.238211 0.105871,0.05294 0.23821,0.05294 0,0.07939 -0.23821,0.105869 0,-0.02647 -0.02647,-0.02647 0,0.158805 -0.05294,0.158805 z m 1.746868,-0.158805 h -0.07939 v -0.05294 h 0.07939 z m -2.170351,0.211738 q -0.05294,0 -0.05294,-0.05294 0,-0.132343 0.185272,-0.132343 0.07939,0 0.07939,0.05294 -0.07939,0.132338 -0.211741,0.132338 z m -0.344078,0.238215 -0.13234,-0.07939 v 0.05294 q -0.10587,0 -0.10587,-0.05294 h 0.07939 l -0.02647,-0.02647 q -0.105874,0.05294 -0.238212,0.05294 l -0.02647,-0.05294 q 0.529352,-0.264677 0.608756,-0.264677 0.10587,0.02647 0.10587,0.07939 0,0.07939 -0.264676,0.211743 z m -0.873432,23.132736 h -0.07939 l 0.02647,-0.07941 -0.555822,0.02641 q -0.07939,0 -0.07939,-0.105876 l -0.211745,0.05293 -0.02647,-0.05293 0.02647,-0.05293 -0.264679,0.02641 -0.07939,-0.05293 q 0,0.105875 -0.05293,0.105875 -0.211741,0 -0.423482,-0.158801 l -0.07939,0.05293 q -0.185282,-0.105876 -1.13812,-0.423479 -0.105871,-0.132338 -0.105871,-0.211778 h -0.158808 q -0.05294,0 -0.05294,-0.105875 h 0.158804 v -0.02641 q -0.07939,0 -0.07939,-0.05293 l -0.185272,0.05293 q -0.47648,-0.185133 -0.635285,-0.185133 l 0.02646,0.05293 -0.105871,0.211776 0.105871,-0.02641 -0.02646,0.07943 q 0.07939,0 0.07939,-0.07943 h 0.07939 q 0,0.13234 -0.105874,0.185263 -0.07939,-0.05293 -0.158804,-0.05293 0,0.07943 -0.05294,0.07943 -0.105873,-0.05293 -0.105873,-0.07943 0.05293,-0.07941 0.05293,-0.1588 h -0.02647 Q 19.202338,43.148931 19.07,43.148931 v -0.238213 q -0.05294,0 -0.05294,-0.02641 -0.158806,0.05293 -0.158806,0.1588 h -0.05294 l 0.02646,-0.105877 -0.02646,-0.105876 q 0,-0.05293 0.02646,-0.07943 h -0.02646 l -0.132337,0.132339 q -0.105872,0 -0.185272,-0.211776 l -0.105871,0.02641 0.05294,0.185263 h -0.02647 q -0.291143,-0.185262 -0.291143,-0.423483 l 0.02647,-0.07941 0.13234,0.02641 q 0.05294,-0.105876 0.07939,-0.105876 0.105872,0.132338 0.185273,0.132338 0.105869,0.185263 0.158807,0.185263 v -0.07941 Q 18.593619,42.460557 18.593619,42.3547 l 0.185273,-0.02641 q 0,-0.05293 0.185272,-0.105875 l 0.105871,0.05293 q 0.05294,-0.105875 0.185273,-0.264676 h -0.02646 l -0.132337,0.105876 h -0.07939 q 0,-0.02641 0.132339,-0.105876 L 19.123,41.878331 q 0.05294,-0.07943 0.05294,-0.132338 h -0.07939 v -0.02641 q 0.105874,-0.105875 0.105874,-0.211777 -0.105874,-0.05293 -0.105874,-0.105875 0.185273,-0.185265 0.185273,-0.264678 -0.05294,0 -0.05294,-0.05293 l 0.10587,-0.07941 0.02647,0.05293 -0.05294,0.07943 q 0.05294,0 0.07939,-0.05293 0.02647,-0.07941 -0.02647,-0.132337 0.211743,-0.105875 0.211743,-0.185262 0,-0.07941 0.238212,-0.158801 l -0.02647,-0.132339 q 0,-0.02641 0.158808,-0.132337 v -0.02641 l -0.185274,0.132338 -0.02647,-0.02641 0.238209,-0.264676 h 0.158806 q 0,-0.132337 0.211742,-0.158799 l 0.02647,0.07941 -0.02647,0.05293 q 0,0.02641 0.02647,0.02641 0,-0.105876 0.105873,-0.105876 0.582287,0.423484 0.582287,0.582286 0.34408,0.158801 0.608757,0.397017 0.264678,0.05293 0.846967,0.344088 l 0.105869,-0.02641 q 0.10587,0.02641 0.10587,0.105875 0.05294,0 0.05294,-0.05293 l 0.502884,0.132339 0.132341,-0.07943 q 0.105871,0.07943 0.370549,0.07943 0.238212,0 0.873432,-0.105876 l 0.132339,0.07943 h 0.05294 v -0.02641 h -0.07938 q 0,-0.07943 0.05294,-0.07943 0.132337,0 0.132337,0.13234 h 0.02646 L 24.945924,41.3757 q 0.07939,0 0.07939,0.07941 h 0.02647 q 0,-0.132338 0.264677,-0.185264 0.05294,0.105875 0.105872,0.105875 0.211742,0 0.397013,-0.1588 -0.02646,-0.05293 -0.02646,-0.132338 0.02646,-0.105876 0.264677,-0.105876 0,-0.132338 0.132337,-0.132338 l 0.185275,0.02641 0.291144,-0.07943 -0.02647,-0.05293 0.05294,-0.02641 q 0.02647,0 0.02647,0.02641 0.158804,0 0.291143,-0.185263 l 0.07939,0.02641 q 0.105872,-0.02641 0.105872,-0.07939 v -0.132339 h 0.02646 q 0.105871,0.05293 0.105871,0.132337 h 0.05294 l -0.07939,-0.105881 q 0.05294,0 0.05294,-0.05293 l -0.02646,-0.105873 0.07939,0.02641 q 0,-0.211779 0.370544,-0.238216 0,-0.105875 0.105874,-0.132337 0,-0.105876 0.02647,-0.158801 l 0.05294,0.02641 q 0.05294,0 0.05294,-0.05293 l -0.02647,-0.105876 0.07939,-0.05293 0.05294,0.02641 q 0.423481,-0.449965 0.608755,-0.582304 v -0.10587 h 0.07939 q 0,0.05293 0.211742,0.211779 -0.105875,0 -0.132338,0.02641 l -0.02647,-0.07943 q -0.05293,0 -0.05293,0.05293 l 0.02647,0.07943 -0.185272,0.291141 h 0.02646 l 0.185272,-0.1588 h 0.05294 q 0,0.105876 -0.317612,0.344088 l 0.02646,0.105876 q -0.21175,0.21188 -0.21175,0.317757 l 0.07939,0.02641 q 0,-0.07943 0.476419,-0.608755 l 0.07939,0.02641 q 0.132338,-0.105875 0.291145,-0.397013 l 0.07939,-0.02641 -0.02646,-0.05293 q 0,-0.05293 0.05294,-0.05293 l 0.07939,0.02641 q 0.158805,-0.132339 0.317611,-0.264676 0.158805,-0.1588 0.238211,-0.502886 l -0.02647,-0.02641 q 0,0.264677 -0.397017,0.582289 l -0.02647,-0.07943 q 0.10587,-0.185262 0.264675,-0.185262 v -0.05293 h -0.07939 v -0.211745 l 0.07939,-0.07941 q -0.05294,-0.02641 -0.05294,-0.105875 0.158806,0 0.291145,-0.238214 0.07939,0 0.07939,-0.105875 -0.05294,0 -0.07939,-0.07941 v -0.02641 q 0.105872,-0.185264 0.158805,-0.185264 l -0.02645,-0.07941 q 0.105873,-0.158799 0.105873,-0.317617 0.132338,0 0.132338,-0.105875 l -0.02646,-0.1588 q 0.02645,-0.105851 0.105862,-0.105851 v -0.02641 q -0.211741,0 -0.211741,-0.07941 0.105871,-0.02641 0.105871,-0.158801 l -0.05294,-0.02646 q 0,-0.02646 0.10587,-0.158801 l -0.07939,-0.02646 0.02647,-0.05293 -0.02647,-0.105875 0.158806,-0.07939 -0.02646,-0.07939 0.132337,-0.02647 v 0.05293 h -0.07937 q 0.02647,0.02646 0.02647,0.07939 H 30.61 v 0.02647 q 0.132336,0 0.185274,-0.02647 l 0.105872,0.02647 q 0,0.370548 -0.13234,0.370548 h -0.07939 v 0.02646 q 0.132338,0 0.132338,0.105874 -0.02646,0.132338 -0.185273,0.132338 l 0.02647,0.05293 q 0,0.185263 -0.238213,0.529354 -0.02646,0.344088 -0.105868,0.344088 0,-0.02641 -0.02646,-0.02641 l 0.02646,0.1588 -0.07939,0.317617 q 0,0.02641 0.02647,0.02641 0.185274,-0.449953 0.264676,-0.449953 l -0.158826,0.47643 h 0.02647 q 0.132339,-0.132338 0.344079,-0.582284 l -0.02646,-0.211754 q 0,-0.21175 0.185274,-0.291148 0.05294,-0.105875 0.05294,-0.370549 l -0.05297,-0.07986 q 0,-0.1588 0.132338,-0.423483 l -0.02647,-0.132335 0.02647,-0.132338 -0.185274,0.02647 v -0.05253 h -0.344063 v -0.07939 h 0.05294 l -0.05294,-0.07939 V 35.52625 q 0,-0.05294 0.07939,-0.05294 V 35.340983 Q 30.424676,34.838058 30.424676,34.67925 h -0.07939 q 0,-0.238209 0.132338,-0.317612 l 0.07939,0.105871 q 0,0.07939 -0.07939,0.07939 v 0.02647 l 0.158805,-0.02647 q 0,-0.07939 -0.05294,-0.132338 0,-0.05293 0.05294,-0.05293 0.07939,0 0.07939,0.10587 0.07939,0 0.105874,-0.31761 l -0.05294,0.05294 q -0.07939,0 -0.264681,-0.529353 l -0.397011,-0.502884 q 0,-0.132337 0.05294,-0.132337 0.423483,0.55582 0.502886,0.608754 h 0.02646 l -0.02646,-0.07939 0.02646,-0.07939 -0.07939,0.05294 -0.02647,-0.05294 v -0.105869 q 0,-0.05293 0.07939,-0.05293 0.158805,0.238212 0.185274,0.238212 0.02647,0 0.02647,-0.02647 Q 30.742279,33.25003 30.63641,33.25003 l -0.105873,0.05293 -0.02646,-0.05293 q 0,-0.07939 0.07939,-0.07939 v -0.02647 h -0.05294 l -0.132338,0.05294 q -0.344053,-0.423531 -0.555794,-0.555867 0,-0.02646 0.105871,-0.07939 0.105872,0 0.105872,0.10587 h 0.02647 q -0.02647,-0.185274 -0.476427,-0.423485 h -0.158806 l 0.05294,0.07939 q 0,0.05293 -0.05294,0.05293 Q 29.233626,32.27069 29.18069,32.27069 v 0.02647 q 0.423484,0.264678 0.423484,0.317611 -0.105873,0.264677 -0.211741,0.264677 0,-0.158807 -0.79403,-0.476418 l -0.158805,0.185272 0.05294,0.02647 q -0.05294,0.02647 -0.132338,0.02647 -0.529353,-0.132342 -0.529353,-0.291144 l -0.158807,0.105871 -0.02646,-0.05293 q 0.105872,-0.105872 0.211743,-0.105872 0.07939,0 0.07939,0.105872 l 0.05294,-0.02647 q 0.10587,0 0.291143,0.105871 0.02646,-0.05294 0.05294,-0.05294 l 0.158806,0.02647 0.05294,-0.07939 -0.211744,-0.02647 -0.185272,0.02647 q -0.02647,-0.185272 -0.105872,-0.185272 -0.211741,0 -0.31761,0.05293 -0.661699,-0.132336 -0.84697,-0.132336 l -0.07939,0.02647 v 0.05294 l 0.07939,-0.05294 q 0,0.132339 -0.211742,0.158807 h -0.02647 l -0.132338,-0.07939 -0.02647,0.10587 h -0.132332 q -0.07939,0.07939 -0.158807,0.07939 l 0.02646,0.05293 q 0,0.10587 -0.317612,0.185274 l -0.873432,0.423483 -0.02646,-0.02647 -0.05294,0.02647 L 24.84,33.011806 q 0,0.07939 -0.07939,0.07939 -0.05294,0 -0.05294,-0.05294 0.05294,-0.07939 0.05294,-0.132338 -0.02647,0 -0.185274,0.264679 -0.291142,0.132337 -0.291142,0.23821 0.10587,0.105875 0.10587,0.211743 l 0.07939,-0.05293 q 0,0.02647 0.02646,0.02647 l -0.02646,-0.105873 q 0.05294,0 0.132337,0.10587 l -0.105871,0.132341 0.05294,0.07939 -0.07939,0.05293 q -0.07939,0 -0.07939,-0.132337 h -0.05294 q 0,0.105874 0.07939,0.185273 v 0.158766 h -0.02646 q -0.132332,-0.105873 -0.211735,-0.105873 l 0.02646,0.264677 -0.211741,-0.185273 v 0.02647 q 0.07939,0.105871 0.07939,0.211742 l -0.07939,0.02646 q -0.02647,-0.02647 -0.132339,-0.02647 l -0.02647,0.07939 0.158805,0.02647 q 0,0.07939 -0.264676,0.13234 -0.158805,-0.07939 -0.185273,-0.13234 0,-0.07939 0.05294,-0.07939 -0.05293,-0.105874 -0.05293,-0.15881 l 0.05293,-0.02647 0.07939,0.02647 q 0,-0.07939 0.211741,-0.07939 v -0.02647 q -0.158805,0 -0.238212,-0.05294 l 0.02647,-0.105874 -0.02647,-0.158806 q 0.02647,-0.105872 0.105871,-0.105872 l -0.05294,-0.132338 -0.07939,0.05294 q -0.05294,0 -0.05294,-0.07939 H 23.5431 l 0.02646,0.07939 q 0,0.158807 -0.238209,0.317612 v 0.02646 l 0.185272,-0.02646 q 0,0.05294 -0.34408,0.344079 l -0.02646,-0.05291 q 0,0.07939 -0.05294,0.07939 -0.02647,-0.132339 -0.158807,-0.23821 v -0.132338 q 0,-0.05293 0.07939,-0.05293 -0.13234,-0.211739 -0.13234,-0.264677 h -0.105863 l 0.02646,0.132338 q -0.105871,0 -0.105871,-0.07939 h -0.07939 q -0.158807,0 -0.158807,-0.132337 h 0.05294 q -0.05293,-0.10587 -0.05293,-0.211742 l 0.07939,-0.02647 q 0,-0.05293 -0.05294,-0.05293 0,0.02647 -0.02647,0.02647 -0.07939,-0.105873 -0.07939,-0.132338 -0.02647,0 -0.02647,0.02647 0.05294,0.07939 0.05294,0.158807 h -0.05294 l -0.05294,-0.158807 -0.05294,0.02647 q -0.05294,-0.07939 -0.05294,-0.185273 0.05294,0 0.10587,0.05293 v -0.02648 q -0.05293,-0.158805 -0.291139,-0.449951 h -0.05294 q 0,0.158806 -0.07939,0.158806 -0.105872,-0.05293 -0.105872,-0.158806 l -0.07939,0.05294 q -0.05294,-0.07939 -0.05294,-0.317609 0.264677,-0.661691 0.370547,-0.661691 0.34408,-0.185275 0.397016,-0.264679 0,0.02647 0.02647,0.02647 0,-0.07939 0.449952,-0.23821 l 0.02647,-0.05294 0.132337,0.02646 q 0.264676,-0.105874 0.58229,-0.158805 0,-0.105871 0.07939,-0.105871 l 0.105869,0.07939 q 0.317612,-0.132338 0.317612,-0.185274 0.02646,-0.07939 0.05294,-0.07939 h 0.291145 q 0,-0.07939 0.05294,-0.07939 0.07939,0.05294 0.158806,0.05294 l 0.105871,-0.07939 0.05294,0.02646 q 0,-0.07939 0.370546,-0.185275 0,-0.02647 0.238213,-0.105872 0,-0.132338 0.291143,-0.158807 l 0.741088,-0.555824 q 0.05294,0 0.158806,-0.105873 l 0.10587,0.02647 -0.05294,-0.07939 0.05294,-0.02647 q 0.02647,0.05294 0.05294,0.05294 0.07939,-0.23821 0.185273,-0.23821 0.05293,0.05294 0.132338,0.05294 0.26468,-0.158806 0.26468,-0.291145 -0.05293,0 -0.07939,-0.07939 0.02647,-0.158807 0.211743,-0.158807 l -0.02647,-0.05294 q 0,-0.132337 0.291143,-0.185273 0,-0.05293 0.185275,-0.132339 l -0.02646,-0.07939 q 0.264676,-0.105871 0.264676,-0.238211 0.132338,-0.02647 0.132338,-0.158805 l -0.05294,-0.07939 0.158807,0.02646 -0.02647,-0.05294 0.02647,-0.05294 q -0.02647,0 -0.07939,-0.07939 0.05293,0 0.211745,-0.238212 0.158804,0 0.185271,-0.21174 h 0.05294 l -0.02651,-0.158785 q 0.10587,0 0.10587,-0.05294 -0.07939,0 -0.07939,-0.07939 0.10587,-0.02647 0.423481,-0.635227 0.02647,0 0.02647,-0.02646 l -0.02647,-0.10587 0.05294,-0.02646 q 0,0.02646 0.07939,0.07939 h 0.02646 q -0.07939,-0.105912 -0.07939,-0.185316 l 0.02647,-0.105874 -0.02647,-0.07939 0.05294,-0.02647 -0.02647,-0.07939 q 0,-0.211743 0.185272,-0.211743 l -0.02647,-0.05294 q 0,-0.02647 0.158806,-0.132337 h 0.158806 v 0.07939 H 29.65714 l 0.02647,0.05294 -0.02647,0.05293 q 0.05293,0 0.07939,0.105872 0,0.07939 -0.105871,0.07939 0,0.529353 -0.185272,0.529353 v 0.02647 q 0.105873,0 0.105873,0.07939 h -0.158836 v -0.05294 h -0.02647 v 0.07939 q 0.05293,0 0.05293,0.05294 l -0.07939,0.291153 h 0.05294 q 0.05294,-0.185274 0.13234,-0.185274 -0.05294,0.344078 -0.185273,0.344078 l 0.05294,0.07939 -0.05294,0.264676 q 0,0.07939 0.05294,0.07939 0.132338,-0.608755 0.344082,-0.608755 0.105872,-0.397014 0.211739,-0.397014 l -0.05294,-0.07939 q 0.132339,0 0.370546,-0.370549 l 0.02647,-0.529354 h -0.02647 q 0,0.423482 -0.158805,0.608755 0,0.05294 -0.05294,0.05294 l -0.02646,-0.07939 q 0.02646,-0.238211 0.158804,-0.238211 v -0.05294 q -0.10587,0 -0.10587,-0.211742 l 0.05294,-0.10587 q -0.07939,0 -0.07939,-0.05294 0,-0.07939 0.105871,-0.07939 v -0.211741 q 0,-0.05293 0.07939,-0.05293 v -0.132402 l -0.10587,-0.105873 0.02647,-0.370545 q -0.05294,0 -0.05294,-0.05294 l 0.02647,-0.238212 q -0.105873,-0.185273 -0.105873,-0.264678 0.07939,0 0.07939,-0.05293 0,-0.05294 -0.264678,-0.423482 0,-0.158808 0.07939,-0.158808 0.185273,0 0.291143,0.979307 l 0.105871,0.397015 -0.05294,0.02647 q 0,-0.02647 -0.02647,-0.02647 v 0.05294 q 0.132342,0.158804 0.132342,0.55582 h 0.02647 l 0.02647,-0.608756 q 0.07939,-0.02647 0.07939,0.05294 v 0.608755 h 0.02647 q 0.07939,-0.238211 0.105873,-0.661692 0,-0.132337 -0.211739,-0.714625 l -0.02647,-0.158807 0.05294,-0.105869 q 0,-0.34408 -0.661692,-0.952838 -0.18529,-0.344079 -0.423497,-0.55582 l -0.05294,0.02646 q -0.291145,-0.238217 -0.423485,-0.238217 0,0.13234 -0.05294,0.13234 -0.05294,0 -0.05294,-0.07939 h -0.02646 q -0.238216,0.291144 -0.264684,0.291144 h -0.10587 v -0.07939 q -0.317612,0 -0.423483,-0.158805 l -0.158804,-0.02647 q -0.185274,0 -0.476421,0.05294 -0.07939,0 -0.211743,-0.05294 v 0.05294 q -0.185273,0 -0.264679,-0.158807 0.02647,-0.07939 0.158806,-0.07939 l 0.02647,0.105872 0.05294,-0.132338 -0.05294,-0.07939 -0.05294,0.05294 q -0.07939,0 -0.07939,-0.07939 0,-0.05293 0.132338,-0.05293 -0.05294,-0.07939 -0.21174,-0.185273 l -0.02647,0.02647 0.02647,0.07939 q -0.07939,0.05294 -0.158805,0.05294 h -0.423471 q -0.344081,0.07939 -0.449951,0.07939 -0.105872,0 -0.105872,-0.05294 0.05294,-0.05294 0.661692,-0.185274 v -0.05292 q -0.07939,0 -0.07939,-0.05294 h -0.02646 q 0,0.105873 -0.05294,0.105873 -0.05294,0 -0.105872,-0.105873 0,-0.02647 0.264681,-0.105871 v -0.02647 h -0.15881 q -0.185273,0 -0.185273,0.211744 h -0.02647 q -0.05294,-0.05294 -0.05294,-0.105872 h -0.02647 q 0,0.185273 -0.185274,0.185273 -0.317612,0.02647 -0.423483,0.10587 h -0.05294 l -0.02647,-0.10587 0.105874,-0.05294 v -0.02647 h -0.07942 q -0.449952,0.07939 -0.449952,0.238206 l 0.05293,-0.02646 0.02647,0.02646 0.05294,-0.02646 q 0.05294,0.02646 0.05294,0.132338 l -0.07938,-0.07938 q -0.211744,0.158808 -0.211744,0.211744 0.317613,-0.10587 0.397015,-0.10587 0.05294,0 0.158807,0.185273 l -0.02647,0.132338 -0.05294,-0.02646 q -0.07939,0 -0.68816,0.211742 0,0.132339 0.132337,0.291144 -0.264672,0.158811 -0.555815,0.158811 l -0.07939,-0.02646 q 0,0.105871 -0.07939,0.105871 0,-0.18527 0.07939,-0.18527 l 0.105871,0.02647 q 0,-0.10587 0.291145,-0.10587 l -0.02646,-0.05294 q 0,-0.05294 0.105872,-0.05294 v -0.13235 q -0.05294,0 -0.264675,0.211743 l -0.158812,-0.07941 q -0.344081,0.317611 -0.423482,0.317611 -0.264679,0.105872 -0.397014,0.185273 l 0.05294,0.105874 q -0.05294,0.132338 -0.132338,0.185274 -0.02647,0 -0.02647,-0.02646 l 0.02647,-0.105872 -0.158808,-0.07939 q -0.02647,0.158807 -0.132336,0.158807 v 0.05294 l 0.105869,-0.02647 v 0.05294 h -0.05294 v 0.02647 q 0.10587,0 0.10587,0.05294 l -0.264679,0.132338 0.02647,-0.158807 h -0.02647 q -0.158806,0.132338 -0.185272,0.132338 0,0.02647 0.13234,0.07939 -0.13234,0.158805 -0.13234,0.185274 h -0.05294 l 0.02647,-0.132338 q -0.132338,0 -0.211742,0.211742 l 0.07939,0.02647 q 0,0.185272 -0.264677,0.291143 l -0.02647,0.158806 h -0.05294 v -0.07939 q -0.05294,0 -0.07939,0.132338 l 0.02646,0.07939 -0.05294,0.02647 -0.02646,-0.02647 q 0,0.05293 -0.211741,0.370547 h -0.185275 q 0,0.07939 -0.105867,0.317611 l 0.07939,0.07939 -0.132337,0.370547 h -0.05294 v 0.07939 h 0.02647 v -0.05293 h 0.05294 q 0.132337,0.185271 0.132337,0.264678 l -0.07939,0.264677 q 0.132338,-0.105872 0.185274,-0.105872 0,0.317612 -0.07939,0.317612 l 0.02646,0.05294 q 0,0.02646 -0.07939,0.07939 -0.05294,0 -0.158805,-0.264676 -0.05294,0 -0.07939,0.05294 l 0.02646,0.05294 q -0.05294,0 -0.238212,-0.132341 -0.105869,-0.05294 -0.211739,-0.05294 L 20.764,25.997876 q 0.105871,0.185275 0.105871,0.238212 l 0.185272,-0.02647 q 0.02646,0.05294 0.02646,0.132339 h -0.05294 l 0.264675,0.291142 -0.05294,0.02647 -0.132336,-0.02647 q 0,0.05294 -0.132339,0.132339 h -0.105871 q -0.02646,0 -0.07939,-0.07939 v -0.02647 h 0.158808 q 0,-0.05294 -0.158805,-0.05294 -0.05293,0 -0.05293,0.105871 l 0.132339,0.10587 -0.132339,0.529354 q 0.132339,0.158805 0.158806,0.344079 0.07939,0.05294 0.211741,0.05294 0.10587,-0.07939 0.238213,-0.07939 h 0.344054 q 0.05294,0 0.05294,0.05294 l -0.02647,0.132338 0.397017,-0.132338 q 0,0.02647 0.02646,0.02647 -0.34405,0.502869 -0.952809,0.502869 -1.773332,-0.105871 -2.223281,-1.085174 0,-0.05294 -0.794032,-1.693931 0.926368,-0.688158 0.926368,-0.794031 0.05294,-0.317611 0.238211,-0.317611 v -0.05292 h -0.07939 q 0,-0.105872 0.238211,-0.370548 l -0.02647,-0.105871 q 0.02647,0 0.238212,-0.158807 l -0.02646,-0.05294 q 0.42347,-0.370548 0.42347,-0.502884 0.132338,0 0.132338,-0.05294 0,-0.05294 0.10587,-0.185274 -0.05294,-0.05294 -0.05294,-0.07939 0.185273,-0.158805 0.264676,-0.264675 h 0.132339 l -0.02646,-0.105874 0.05294,-0.02647 q 0,0.05293 0.05294,0.05293 l -0.02647,-0.185271 0.158807,-0.13234 0.02647,0.07939 0.105872,-0.10587 0.05294,0.02647 q 0.105871,-0.05294 0.185274,-0.05294 0,-0.05294 -0.02647,-0.07939 l 0.05294,-0.02646 q 0.07939,0.158807 0.105869,0.158807 l 0.02647,-0.05294 -0.05294,-0.07939 0.02646,-0.105872 0.158809,0.02647 0.07939,-0.02647 q 0,0.05294 0.05294,0.05294 0.02646,-0.105871 0.07939,-0.105871 l 0.07939,0.05294 -0.02647,-0.132338 q 0.05294,-0.02646 0.264676,-0.05294 v -0.02646 h -0.05294 v -0.02647 q 0.794016,-0.582295 0.899888,-0.582295 0.502885,-0.185272 0.794029,-0.317613 h 0.02647 v 0.05294 q -0.158805,0.158805 -0.926367,0.555821 -0.05293,0.07939 -0.132339,0.132338 v 0.05294 q 0.105871,0 0.211744,0.185273 0,-0.10587 0.05294,-0.10587 0.02647,0 0.10587,0.132338 -0.05294,0 -0.05294,0.05294 h 0.05294 q 0.344093,-0.211723 0.449962,-0.211723 l 0.02647,0.02647 q 0,-0.05294 0.07939,-0.07939 0.07939,-0.02647 0.105874,0 0,-0.13234 0.158804,-0.13234 v -0.132337 q -0.10587,0 -0.10587,-0.05294 0,-0.05294 0.07939,-0.05294 l 0.158804,0.105868 q 0.05293,-0.05294 0.05293,-0.105868 l -0.105871,0.02647 q 0,-0.13234 0.05294,-0.13234 0,0.05294 0.158807,0.13234 v -0.02647 q -0.05294,0 -0.105873,-0.211742 0.105873,0 0.158805,0.264676 h 0.05294 l 0.132336,-0.238211 h 0.132339 l -0.02647,0.132338 q 0.291144,0 0.397015,-0.105871 h 0.132338 l 0.02647,-0.105871 q -0.02647,0 -0.02647,-0.02647 l 0.132338,0.05294 q 0.158805,0 0.529352,-0.105872 0.07939,0 0.185273,0.05294 0,-0.07939 0.07939,-0.07939 l 0.105874,0.05294 q 0.02647,0 0.02647,-0.02647 -0.105874,0 -0.105874,-0.10587 h 0.132339 q 0.132339,0.132336 0.185273,0.132336 0,-0.05294 0.05294,-0.05294 l 0.05294,0.02646 q 0.02647,-0.105871 0.132339,-0.105871 v 0.07939 h 0.02647 q 0,-0.05293 0.02647,-0.05293 l 0.185274,0.02647 q 0.05294,-0.07939 0.05294,-0.238211 l -0.05294,0.02647 q 0,-0.02647 -0.02647,-0.07939 0,-0.07939 0.158807,-0.07939 0.105868,0.02646 0.105868,0.07939 l -0.02647,0.185273 0.02647,0.02647 q 0.05294,-0.238212 0.132341,-0.238212 h 0.264678 l 0.07939,-0.05294 q 0.185273,0.105874 0.185273,0.370547 l 0.05294,-0.02647 -0.02647,-0.05294 V 20.49266 q 0,-0.05294 0.07939,-0.05294 0.291143,0.132339 0.370548,0.132339 0.02647,-0.05294 0.05293,-0.05294 0.132338,0.10587 0.502885,0.211743 l 0.211742,-0.02646 q 0.502886,0.07939 1.191044,0.714626 l -0.05294,0.02646 -0.264677,-0.02646 q 0.291145,0.211741 0.423483,0.58229 l 0.05294,0.02647 0.02646,-0.02647 q -0.05295,-0.105906 -0.158823,-0.238245 h 0.105873 q -0.185225,-0.185351 -0.238162,-0.185351 v -0.07939 q 0.238211,0 0.449949,0.344078 0.158805,0 0.211743,0.238212 l -0.05293,0.02644 q 0.55582,0.714627 0.55582,0.952835 0.264678,0.661692 0.370548,1.799802 -0.07939,0 -0.185274,0.211743 -0.07939,0 -0.132339,-0.02647 0.02647,0.07939 0.07939,0.132338 l -0.132339,0.158806 0.05294,0.105871 q -0.02647,0.02647 -0.132338,0.02647 v 0.02646 q -0.0794,0.979302 -0.264685,0.979302 l 0.02647,0.05294 -0.132338,0.370548 q 0.02647,0 0.02647,0.02647 l -0.105871,0.02646 0.02647,0.05294 q 0,0.07939 -0.07939,0.07939 v 0.02647 q 0.10587,0 0.10587,0.07939 -0.05294,0 -0.05294,0.05294 0.07939,0 0.07939,0.05294 0,0.158807 -0.132337,0.317611 0.105869,0 0.105869,0.07939 -0.132338,0.397015 -0.21174,0.397015 l 0.02647,0.07939 q -0.07939,0 -0.158805,0.238212 -0.105871,0 -0.238212,0.291143 -0.211742,0.132337 -0.211742,0.185274 -0.105869,0.370547 -0.291142,0.370547 l 0.02647,0.05294 q 0,0.05294 -0.05294,0.05294 -0.02647,0 -0.264676,-0.185274 h -0.02647 q 0.264676,0.211742 0.264676,0.26468 -0.02647,0.105873 -0.07939,0.105873 -0.05293,0 -0.105874,-0.05294 -0.07939,0.132338 -0.10587,0.34408 -0.05294,0.07939 -0.105873,0.07939 l 0.02647,0.10587 -0.05294,0.02647 -0.185275,-0.132338 q 0.02647,0 0.105871,0.132338 v 0.05294 l -0.07939,0.132338 q 0.02647,0 0.07939,0.07939 -0.264678,0.05293 -0.264678,0.158806 l 0.132338,-0.02646 q 0,0.02646 -0.238211,0.238209 l -0.132339,-0.02647 0.02647,0.158805 q 0.582288,0.211742 0.582288,0.264676 l -0.95284,-0.158793 v 0.05294 h -0.05294 v -0.07939 h -0.132336 q 0.02646,0.05294 0.05293,0.05294 l -0.02647,0.132337 h -0.02647 q 0,0.105871 0.105871,0.132338 l 0.158802,-0.02644 q 0.02647,-0.05294 0.05294,-0.05294 0.02647,0.02646 0.02647,0.07939 0,0.05294 -0.05294,0.07939 h 0.07939 q 0.105873,-0.07939 0.185274,-0.07939 0,0.02647 0.02647,0.02647 l -0.02647,0.105872 0.105872,0.185271 q -0.105872,0 -0.714626,-0.344077 h -0.07939 l 0.02647,0.105872 -0.02647,0.02647 -0.07939,-0.02647 q 0,0.05294 0.370547,0.132337 0.02646,0.05294 0.05294,0.05294 l 0.132338,-0.02646 q 0.05294,0.05294 0.05294,0.132339 0.07939,-0.05294 0.132337,-0.05294 l 0.211744,0.05294 q 0,-0.05294 0.07939,-0.05294 l -0.0794,-0.10587 v -0.02647 h 0.07939 q 0.02647,0 0.105869,0.105869 v 0.07939 l 0.105874,0.02647 q 0,-0.05294 0.05294,-0.05294 0.05294,0 0.05294,0.07939 h 0.02646 q 0.02647,-0.211743 0.105872,-0.211743 l 0.02647,0.07939 -0.132338,0.23821 0.317611,-0.02647 q 0.132339,0.05294 0.132339,0.105872 0,0.05293 -0.05294,0.05293 l -0.07939,-0.02646 v 0.02646 q 0.158805,0.158805 0.476417,0.317612 l 0.05294,0.07939 q 0.105872,0 0.105872,-0.07939 h 0.05294 v 0.132337 q 0,0.02647 0.502884,0.58229 v 0.105871 l -0.02647,0.05293 0.132339,-0.02647 q 0.02646,0 0.02646,0.291142 h 0.02647 q 0,-0.238208 0.05293,-0.238208 0.05294,0.05294 0.05294,0.132337 0.02647,0.07939 -0.02647,0.132339 l 0.02647,0.07939 q -0.02647,0 -0.02647,0.02646 0.07939,0 0.07939,0.132338 l 0.132337,-0.02647 0.02647,0.05294 q 0,0.07939 -0.07939,0.07939 v 0.02648 q 0.105868,0 0.105868,0.05293 0,0.07939 -0.02647,0.07939 0.05294,0.10587 0.105871,0.10587 0.185273,0 0.185273,-0.05293 l -0.02647,-0.07939 q 0.02647,-0.02647 0.10587,0 0.07939,0.02647 0.07939,0.158806 0,0.105872 -0.238212,0.132338 v 0.02647 q 0.291143,0 0.291143,0.132338 0.02647,0.132339 0.13234,0.238211 -0.02647,0.105873 -0.264681,0.291145 h 0.02646 q 0.185273,-0.10587 0.264679,-0.10587 0,0.02647 0.02647,0.02647 -0.05294,0.185273 -0.05294,0.317611 0,0.05293 0.05294,0.05293 l -0.02647,0.370543 q 0.132338,0 0.132338,0.344079 -0.02647,0.317613 -0.07939,0.317613 l -0.158841,-0.10588 q -0.02647,0.185263 -0.158808,0.317612 l 0.05294,0.02646 q 0.05294,-0.05293 0.05294,-0.132339 l 0.07939,0.02646 q 0,-0.158802 0.05294,-0.158802 0.07939,0.105877 0.07939,0.158802 l -0.02646,0.07938 q 0.05294,0 0.05294,0.07938 0,0.05293 -0.05294,0.05293 -0.05294,0 -0.07939,-0.02641 0,0.211752 0.05294,0.370544 -0.132338,0.264676 -0.211743,0.794031 -0.105873,0.211751 -0.158806,0.502885 -0.05294,0 -0.264679,0.132338 h -0.07941 q 0,0.132337 -0.158807,0.238214 0.05294,0 0.05294,0.105876 h -0.158805 q -0.317613,0.873438 -0.555823,0.873438 l 0.02647,0.07943 -0.264679,0.344088 0.02647,0.05293 q 0,0.05293 -0.158805,0.05293 l 0.02647,0.05293 q 0,0.07941 -0.158806,0.07941 v 0.02641 q 0.132338,0 0.132338,0.05293 0,0.05293 -0.105871,0.05293 0.07939,0.05293 0.07939,0.105874 -0.158805,0.291145 -0.264679,0.291145 l -0.132338,-0.02641 -0.07939,0.132338 h 0.105875 v -0.07943 q 0.132335,0 0.132335,0.105875 -0.264678,0.476418 -0.449949,0.502885 l 0.05293,0.07941 q -0.238213,0.02641 -0.238213,0.185263 -0.105872,0 -0.476417,0.291143 l -0.211744,0.05293 q 0,-0.02641 -0.02647,-0.02641 0,0.211777 -0.370547,0.37055 0,-0.02641 -0.02647,-0.02641 0,0.105876 -0.05294,0.105876 -0.02647,0 -0.264678,-0.31762 v 0.02641 q 0.185274,0.264675 0.185274,0.344086 0,0.05293 -0.07939,0.07943 -0.105873,0 -0.105873,-0.07943 -0.23821,0.132339 -0.23821,0.34409 l -0.105866,-0.0264 q 0,0.105875 -0.05294,0.105875 l -0.05294,-0.02641 q 0,0.105876 -0.05294,0.105876 -0.158805,-0.158801 -0.158805,-0.238213 -0.02646,0 -0.02646,0.02641 0.05294,0.07941 0.05294,0.211776 -0.158805,0.07943 -0.158805,0.13234 l 0.02647,0.105876 -0.132338,-0.02641 q -0.185272,0 -0.211739,0.07943 l 0.05294,0.02641 0.07939,-0.02641 v 0.02633 q -0.211743,0.158799 -0.423484,0.158799 l -0.02646,-0.07941 h -0.02647 q -0.02647,0.185263 -0.23821,0.185263 -0.07939,0 -0.07939,-0.132337 -0.211741,0.132337 -0.317609,0.132337 0,-0.05293 0.07939,-0.05293 v -0.02641 q -0.05294,0 -0.158804,-0.07943 h -0.02647 l 0.05293,0.07943 q -0.02647,0 -0.07939,0.07941 0.02647,0 0.02647,0.02641 l -0.05294,0.02641 q 0,-0.02641 -0.02647,-0.02641 0,0.07943 -0.05293,0.07943 h -0.105884 q -0.05294,0 -0.05294,-0.07943 -0.05294,0 -0.05294,0.07943 l 0.02647,0.07941 q -0.07939,0 -0.132337,-0.05293 0,0.105876 -0.05294,0.105876 l -0.02646,-0.07941 h -0.07939 q 0,0.185262 -0.397015,0.185262 -0.05294,-0.158801 -0.238212,-0.158801 l 0.05293,0.07943 q -0.317611,0.05293 -0.397014,0.105877 l -0.264675,-0.0264 z m 2.699701,-23.26508 h -0.07939 q 0,-0.105871 0.05294,-0.105871 z m 0.185272,0 -0.02646,-0.05294 q 0,-0.05293 0.05294,-0.05293 l 0.02646,0.05293 q 0,0.05294 -0.05294,0.05294 z m -1.482188,0.05294 q -0.05294,0 -0.05294,-0.05294 l 0.07939,-0.05294 0.02646,0.05294 q 0,0.05294 -0.05294,0.05294 z m 0.741096,0.05294 h -0.10587 q 0.02646,-0.105871 0.185272,-0.105871 0.07939,0 0.07939,0.05294 -0.10587,0.05294 -0.158807,0.05294 z m 1.032238,0 q -0.07939,0 -0.07939,-0.05293 0.02647,-0.05294 0.05294,-0.05294 z m -2.805572,0.132338 q -0.05294,0 -0.05294,-0.05294 l -0.05294,0.02647 q -0.05294,0 -0.05294,-0.158806 h 0.05294 q 0.05294,0 0.05294,0.07939 l 0.05294,-0.02646 q 0.05293,0 0.05293,0.05294 0,0.07939 -0.05293,0.07939 z m 1.296913,-0.02647 q -0.105871,0 -0.105871,-0.05294 l 0.132341,-0.07939 q 0.05294,0 0.05294,0.05294 0,0.02646 -0.0794,0.07939 z m 0.317612,-0.05294 h -0.07939 v -0.07939 h 0.02646 q 0.05294,0 0.05294,0.07939 z m -0.820498,0.185272 -0.05294,-0.07939 0.05294,-0.02647 h 0.105871 q 0.05293,0 0.05293,0.07939 z m -1.985075,0.05294 q 0,-0.132338 0.05294,-0.132338 h 0.05293 v 0.02647 q -0.05293,0.105871 -0.105871,0.105871 z m -0.185273,0.105871 q -0.07939,0 -0.07939,-0.05294 l 0.21174,-0.132337 q 0,0.132337 -0.132338,0.185273 z m 1.111643,0.13234 h -0.07939 q 0,-0.05294 0.05294,-0.07939 h 0.02646 z m -0.370547,0.291144 h -0.132339 v -0.07939 q 0.185274,0 0.185274,-0.158806 l 0.132337,0.10587 q 0,-0.158807 0.05294,-0.158807 l 0.105875,0.07939 h 0.132337 q 0,0.07939 -0.132337,0.13234 l -0.07939,-0.02646 z M 23.225478,21.3659 h -0.02647 q 0,-0.05294 0.05293,-0.07939 h 0.02647 q 0,0.07939 -0.05294,0.07939 z m 1.799802,0.07939 v -0.02645 q 0.07939,-0.132339 0.10587,-0.132339 0.05294,0.02647 0.05294,0.05294 0,0.10587 -0.158805,0.10587 z m 0.211744,0.211742 q -0.05294,0 -0.05294,-0.07939 0,-0.105873 0.05294,-0.105873 0.05293,0.02647 0.05293,0.105873 0,0.07939 -0.05293,0.07939 z m 0.9793,0 q -0.02646,-0.02647 -0.02646,-0.07939 0,-0.07939 0.158806,-0.105873 h 0.158807 q 0.05294,0.02647 0.05294,0.07939 z m -3.070246,0.02647 -0.02647,-0.07939 h 0.02647 q 0.05294,0 0.05294,0.05294 z m 2.382089,0.34408 q -0.185272,0 -0.185272,-0.05294 0,-0.05294 0.07939,-0.07939 l 0.07939,0.05294 q 0,-0.05294 0.105871,-0.05294 0,-0.07939 -0.105871,-0.132338 l -0.05294,0.02647 q 0,-0.02647 -0.02647,-0.07939 0,-0.07939 0.158805,-0.07939 0.05294,0 0.05294,0.238212 l 0.132337,-0.05294 0.07939,0.02647 v 0.05293 q -0.07939,0 -0.317611,0.132337 z m 0.608757,-0.07939 q -0.05294,0 -0.05294,-0.05294 0,-0.105869 0.211744,-0.132338 0,-0.07939 0.344079,-0.13234 0.105871,0.02646 0.105871,0.07939 0,0.05294 -0.370547,0.158807 0,-0.02647 -0.02646,-0.02647 0,0.02647 -0.211743,0.105869 z M 25.36936,21.789384 h -0.07939 q 0,-0.105873 0.05294,-0.105873 z m -3.837812,0.05294 q -0.132339,0 -0.132339,-0.07939 l 0.264676,-0.02646 v 0.05294 q 0,0.05294 -0.132337,0.05294 z m 3.573136,0.370548 q -0.05294,0 -0.105874,-0.07939 0,-0.07939 0.185274,-0.105874 l -0.05294,-0.07939 0.05294,-0.02647 q 0.05294,0.05294 0.05294,0.105874 l 0.07939,-0.02647 v 0.05294 q -0.02646,0 -0.211742,0.158806 z m 3.626067,-0.132343 h -0.05294 v -0.02646 q 0.02647,-0.105872 0.07939,-0.105872 h 0.05294 v 0.02646 q -0.05294,0.105872 -0.0794,0.105872 z m 0.846969,0.979306 -0.02647,-0.05293 0.02647,-0.105871 q 0,-0.105874 -0.238211,-0.238213 -0.105873,-0.185272 -0.105873,-0.291144 -0.05294,0 -0.05294,0.07939 H 29.12776 L 28.863093,22.29225 q 0,-0.07939 0.291145,-0.317611 h 0.05294 l 0.476416,0.476417 -0.105869,0.105871 0.07939,0.05294 0.07939,-0.02646 q 0.105872,0 0.238211,0.291145 -0.211742,0.185273 -0.397016,0.185273 z m -2.196819,-0.952812 h -0.158807 v -0.05294 h 0.158807 z m 0.449951,0.02647 h -0.05293 q -0.05294,0 -0.05294,-0.07939 l 0.10587,0.02647 z m 1.032237,0.05294 -0.02647,-0.05294 q 0,-0.07939 0.05294,-0.07939 0.05294,0 0.05294,0.05294 0,0.02647 -0.07939,0.07939 z m -2.223282,-0.05294 h -0.07939 v -0.05293 h 0.07939 z m 1.720397,0.10587 q -0.397014,-0.0794 -0.397014,-0.132341 l 0.07939,-0.02647 0.317614,0.10587 z m 2.567365,0.158808 q -0.02647,0 -0.132339,-0.158808 V 22.2129 h 0.02647 q 0.105871,0.05294 0.105871,0.185277 z m -3.308461,0.02646 -0.158805,-0.02646 v -0.05294 l 0.158805,0.02647 z m -3.811343,0.185277 h -0.105872 q 0,-0.07939 0.07939,-0.07939 0.07939,0.02647 0.07939,0.05294 z m 4.578906,0.07939 -0.02646,-0.105871 h 0.07939 q 0,0.105871 -0.05293,0.105871 z m -4.049553,0.05293 q -0.10587,0 -0.10587,-0.05293 l 0.10587,-0.02647 q 0.05294,0.02647 0.05294,0.05294 z m 4.3407,0.105874 q -0.05294,-0.02646 -0.05294,-0.105874 h 0.05294 q 0.05294,0.02647 0.05294,0.05294 0,0.05294 -0.05294,0.05294 z m 0.211739,0.158807 q -0.05294,0 -0.07939,-0.105872 0,-0.05294 0.05294,-0.05294 0.07939,0.02647 0.07939,0.07939 0,0.07939 -0.05294,0.07939 z m 0.714627,0.344076 h -0.05294 q 0,-0.05294 -0.158807,-0.291146 v -0.05292 q 0.07939,0 0.211741,0.344081 z m 0.688159,0.264675 h -0.05294 q -0.05294,-0.211741 -0.05294,-0.291143 0.05294,-0.05294 0.05294,-0.291144 0.05294,0 0.13234,0.291144 l -0.105873,0.105872 z m -0.344078,-0.07939 q -0.105871,0 -0.23821,-0.344079 l 0.05294,-0.02646 q 0.185274,0.264675 0.185274,0.370548 z m -10.295922,-0.02647 -0.02647,-0.05294 0.07939,-0.05294 0.02647,0.05294 z m 9.766568,0.238209 h -0.05294 l -0.02647,-0.158805 h 0.05294 z m 0.238212,1.349851 q -0.02647,-0.02647 -0.105871,-0.02647 0,-0.07939 0.05293,-0.158806 -0.07939,-0.10587 -0.07939,-0.31761 l 0.02647,-0.158807 h 0.07939 l 0.02647,0.185275 0.105871,-0.02646 q 0,0.07939 -0.07939,0.158804 0.02647,0 0.02647,0.02646 l -0.05294,0.02647 q 0,-0.02647 -0.02647,-0.02647 v 0.05294 q 0.07939,0 0.132337,0.10587 -0.05294,0 -0.105872,0.158806 z m 1.746862,0.370555 q -0.10587,0 -0.10587,-0.05294 0,-0.185276 0.211741,-0.397014 h 0.02647 q 0,0.449948 -0.132338,0.449948 z m -1.588059,-0.211746 q -0.07939,0 -0.132342,-0.07939 0.05294,-0.105873 0.07939,-0.105873 l 0.05294,0.07939 q 0,0.02647 -0.02646,0.02647 z m -8.284381,0.158804 q -0.105872,0 -0.105872,-0.07939 h 0.05294 q 0.05294,0.02647 0.05294,0.07939 z m 9.87244,0.264679 q -0.185273,0 -0.211741,-0.07939 0,-0.05294 0.105871,-0.105871 0.05294,0 0.10587,0.07939 z m -0.238212,0.608755 -0.02646,-0.07939 0.05294,-0.291144 -0.02647,-0.211745 h 0.05293 q 0.105871,0 0.105871,0.13234 -0.05294,0.397014 -0.158804,0.449952 z m -0.344079,1.191045 h -0.05294 l 0.02647,-0.105871 -0.02647,-0.264677 q 0,-0.07939 0.132341,-0.344079 l 0.07939,0.02647 v -0.07939 q -0.07939,0 -0.07939,-0.105872 0.07939,0 0.132339,-0.185273 0.10587,-0.05293 0.185274,-0.05293 l 0.02646,0.07939 -0.05294,0.132338 h -0.05294 q -0.05294,-0.05294 -0.105875,-0.05294 0.05294,0.07939 0.05294,0.158805 -0.105869,0.211742 -0.185272,0.608758 -0.05294,0 -0.07939,0.185272 z M 21.108061,27.26821 q -0.158804,0 -0.211741,-0.158806 0.07939,-0.264675 0.158808,-0.264675 0.05294,0 0.05294,0.07939 l -0.05294,0.132339 q 0.185272,0 0.185272,0.05294 0,0.05294 -0.132339,0.158805 z m 7.331547,0.07939 q 0,-0.10587 0.132337,-0.158806 0.02646,0 0.07939,0.07939 0,0.05294 -0.211742,0.07939 z m -0.132341,0.185273 q 0,-0.07939 0.05293,-0.07939 l 0.02647,0.05294 z m 2.24975,0.132338 0.02647,-0.105871 q -0.105871,0 -0.105871,0.05294 v 0.05294 z m -3.387858,1.455721 h -0.05294 q 0,-0.132336 0.05294,-0.132336 0.05293,0 0.05293,0.05294 0,0.07939 -0.05293,0.07939 z m 2.143881,0.397017 q 0,-0.105871 0.105871,-0.132338 v -0.02647 h -0.07939 q -0.05294,0.07939 -0.05294,0.13234 0,0.02647 0.02646,0.02647 z m 0.05294,0.158806 q 0,-0.10587 0.05294,-0.10587 l 0.02647,0.05294 q -0.05294,0.05294 -0.07939,0.05294 z m -6.087564,1.24398 h -0.07939 v -0.05294 h 0.07939 z m 4.975922,0.185273 -0.105869,-0.02647 v -0.05294 h 0.05294 q 0.05294,0.02647 0.05294,0.07939 z m 0.979302,0.07939 q 0,-0.07939 0.105874,-0.158805 0.05294,0.02647 0.05294,0.05294 0,0.105869 -0.158807,0.105874 z m 0.132342,0.105874 q -0.05293,0 -0.05293,-0.105874 h 0.07939 q 0.05294,0.02646 0.05294,0.05293 -0.05294,0.05294 -0.07939,0.05294 z m 0.926364,0.423481 q -0.105869,0 -0.370545,-0.132338 l -0.105871,0.02647 q 0,-0.185274 -0.05294,-0.185274 l 0.02646,0.05294 -0.05294,0.02647 -0.05294,-0.07939 0.02647,-0.07939 q -0.185275,-0.05294 -0.185275,-0.105872 0.02647,-0.05294 0.05294,-0.05294 0.767562,0.317613 0.767562,0.449952 0,0.05294 -0.05294,0.07939 z M 28.704288,31.31774 h -0.02646 q 0,-0.05294 0.05294,-0.07939 h 0.02646 q 0,0.07939 -0.05293,0.07939 z m 0.370547,0.238212 q -0.05294,0 -0.05294,-0.05294 l 0.07939,-0.05294 q 0.05294,0 0.05294,0.05294 z m 1.508657,0.370553 q -0.264679,-0.07939 -0.264679,-0.158805 0,-0.05294 0.07939,-0.07939 h 0.05294 q 0.132338,0.05294 0.185272,0.185273 0,0.05294 -0.05294,0.05294 z m -0.79403,-0.02646 q -0.07939,0 -0.07939,-0.05293 l 0.05294,-0.02647 z m 0.238213,0.211741 -0.13234,-0.158807 v -0.05293 h 0.05294 q 0.132341,0.07939 0.132341,0.185274 z m 0.423481,-0.05295 h -0.132338 v -0.05293 h 0.07939 q 0.05294,0 0.05294,0.05293 z m 0.370547,0.132338 q -0.10587,0 -0.10587,-0.05294 0.07939,-0.05293 0.158805,-0.05293 h 0.02647 q 0,0.05293 -0.07939,0.105873 z m 0.264679,0.211742 -0.211744,-0.211742 0.10587,-0.07939 h 0.05294 q 0,0.158805 0.105873,0.264675 z m -3.414329,-0.02647 q -0.158806,0 -0.185272,-0.105873 l 0.07939,-0.02647 q 0.02646,0 0.105871,0.105872 z m 2.80557,0.05295 q -0.105869,-0.02647 -0.158804,-0.132339 l 0.05294,-0.02647 q 0.158806,0.05293 0.158806,0.105873 0,0.05294 -0.05294,0.05294 z m -3.493731,-0.02647 q -0.07939,0 -0.07939,-0.05293 h 0.07939 z m 2.540898,0.05294 -0.02647,-0.05294 0.07939,-0.02646 q 0,0.07939 -0.05294,0.07939 z m 1.720396,0.10587 q -0.05294,0 -0.105872,-0.07939 0.02646,-0.05294 0.07939,-0.05294 0.05294,0 0.105872,0.07939 0,0.05294 -0.07939,0.05294 z m -1.402784,0 q -0.158806,0 -0.185274,-0.10587 h 0.13234 q 0.05293,0.02647 0.05293,0.10587 z m -1.058709,0.07941 q -0.07939,0 -0.07939,-0.05293 l 0.05294,-0.02646 z m 1.905674,0 h -0.07939 q 0,-0.05293 0.05294,-0.07939 h 0.02646 z M 29.68359,32.79995 q -0.07939,0 -0.07939,-0.07939 0,-0.07939 0.132339,-0.105871 l 0.02646,0.05293 q 0,0.132338 -0.07939,0.132338 z m 1.746869,0.05293 q -0.07939,-0.02647 -0.07939,-0.238208 h 0.05294 q 0.07939,0.02647 0.07939,0.185274 0,0.05293 -0.05294,0.05294 z m -3.493734,-0.105887 q -0.10587,0 -0.10587,-0.05294 l 0.02647,-0.05293 q 0.132338,0.05293 0.132338,0.07939 z m 2.96438,0.185274 q -0.05294,0 -0.158807,-0.21174 v -0.05294 h 0.02647 q 0.05294,0 0.185272,0.211742 0,0.05293 -0.05294,0.05293 z m -2.752636,-0.105871 q -0.07939,0 -0.07939,-0.07939 l 0.05294,-0.02646 z m -1.985077,0.02647 q -0.07939,0 -0.07939,-0.05293 l 0.05294,-0.05293 z m 3.043781,0.158809 q -0.238211,-0.07939 -0.238211,-0.105874 0,-0.07939 0.07939,-0.105872 l 0.211744,0.105872 v -0.05294 h 0.05294 v 0.07939 q 0,0.07939 -0.105874,0.07939 z m 0.37055,-0.07939 -0.02647,-0.05293 0.05293,-0.02647 0.02647,0.05293 z m -0.317613,0.10587 q 0,-0.05293 0.07939,-0.07939 l 0.02647,0.05294 z m 0.555821,0.370554 -0.397016,-0.264677 0.02647,-0.05293 h -0.07939 q 0,-0.05293 0.105871,-0.07939 0.05294,0 0.05294,0.05293 l -0.02646,0.07939 q 0.105872,0 0.185273,0.07939 l 0.02647,-0.158806 q -0.05294,0 -0.05294,-0.05294 0.02647,-0.05293 0.05294,-0.05293 h 0.02647 q 0.185274,0.07939 0.185274,0.132338 0,0.05294 -0.211744,0.158806 0.105874,0.02647 0.105874,0.07939 z M 25.87224,33.249885 h -0.02647 q -0.07939,-0.132337 -0.238207,-0.132337 v -0.07939 q 0.158807,0 0.264677,0.158806 z m 5.743484,-0.07939 q -0.05294,0 -0.05294,-0.07939 0,-0.05294 0.05294,-0.05294 0.05294,0 0.05294,0.05294 0,0.07939 -0.05294,0.07939 z m -6.563982,0.423474 q -0.02646,0 -0.07939,-0.07939 l 0.105874,-0.105871 -0.05293,-0.132338 0.05293,-0.02647 0.05294,0.02647 q 0,-0.07939 0.05294,-0.07939 h 0.05294 l -0.02647,0.105874 q 0.05294,0 0.05294,0.05293 -0.158805,0.02647 -0.158805,0.211744 z m -2.487958,-0.2382 v -0.105871 h -0.02646 v 0.105871 z m 8.62846,-0.02647 q -0.05294,0 -0.05294,-0.05293 l 0.05294,-0.02646 q 0.05294,0 0.05294,0.05293 z m 0.635221,0.07939 q -0.07939,0 -0.07939,-0.07939 0,-0.07939 0.05294,-0.07939 l 0.05293,0.02647 q -0.02647,0.05293 -0.02647,0.132339 z m -6.272835,0 q -0.05294,0 -0.105871,-0.07939 v -0.02647 h 0.158805 q 0,0.105871 -0.05294,0.105871 z m -0.873435,0.132339 -0.07939,-0.132339 0.05294,-0.02647 0.07939,0.132339 z m 6.696322,0.02647 q -0.132337,0 -0.132337,-0.05293 l 0.132337,-0.02647 z m 0.502885,0.158805 q -0.05294,0 -0.05294,-0.05293 0.02646,-0.158805 0.07939,-0.158805 h 0.02647 l -0.02647,0.07939 0.02647,0.105873 z m -7.040398,-0.07939 q -0.05294,0 -0.05294,-0.07939 h 0.05294 z m 5.611145,0.34408 q -0.211744,-0.264685 -0.211744,-0.344089 l 0.05294,-0.02647 q 0.211742,0.132339 0.211742,0.34408 z m -0.02646,0.291145 q -0.07939,0 -0.317613,-0.317614 0.05294,0 0.05294,-0.05293 -0.105873,0 -0.211741,-0.185271 -0.02646,-0.07939 0.05294,-0.07939 h 0.02647 q 0.132343,0.158799 0.185276,0.158799 0.211743,0.264677 0.211743,0.476416 z m 0.8999,-0.370549 -0.07939,-0.07939 q 0.02647,-0.05293 0.07939,-0.05293 0.02646,0 0.07939,0.07939 z m 0.476418,0.02647 h -0.05294 v -0.07939 h 0.05294 z m -2.011542,0.02647 q -0.07939,0 -0.07939,-0.07939 h 0.02646 q 0.05294,0.02647 0.05294,0.07939 z m 0.211741,0.370549 q -0.05294,0 -0.05294,-0.07939 h 0.05294 z m 0.21174,0.714625 h -0.05294 v -0.15882 h 0.05294 z m -0.238211,0.317612 h -0.05293 v -0.132339 h 0.05293 z m 0.317613,0.07939 h -0.05294 v -0.105857 h 0.05294 z m 0.05294,0.397016 q -0.07939,0 -0.07939,-0.05294 v -0.238212 h 0.07939 z m -0.423481,0.211745 -0.02647,-0.05293 0.05294,-0.02647 h 0.02647 q 0,0.07939 -0.05294,0.0794 z m -0.02647,0.185263 -0.05294,-0.05293 0.105869,-0.02646 q 0,0.07938 -0.05294,0.07938 z m 0.07939,0.132337 h -0.13234 q 0,-0.07938 0.07939,-0.07938 h 0.05294 z m 0.23821,0.370543 h -0.05293 q 0.02646,-0.185261 0.07939,-0.185261 h 0.02647 q -0.05294,0.132338 -0.05294,0.185261 z m 1.640996,-0.105874 q 0,-0.07941 0.05293,-0.07941 l 0.02647,0.05293 z m -1.455711,0.291141 h -0.05294 v -0.158801 q 0,-0.05293 0.05294,-0.05293 h 0.02647 z m 0.264676,0.185263 h -0.05294 q 0,-0.211753 0.21174,-0.264676 0,-0.02641 0.07939,-0.07941 h 0.02647 q 0,0.238213 -0.238209,0.238213 z m -0.846975,-0.185262 h -0.05293 q 0,-0.105876 0.05293,-0.105876 z m -0.34408,1.058703 q -0.105868,-0.02641 -0.105868,-0.07941 l 0.105868,-0.05293 q 0,-0.291149 0.13234,-0.397014 h 0.05294 l -0.02646,0.1588 0.10587,-0.02641 v 0.05293 q -0.07939,0.105875 -0.185275,0.105875 0.07939,0.07941 0.07939,0.158801 -0.07939,0 -0.158807,0.07941 z m 0.13234,0.185263 q -0.05293,0 -0.105873,-0.07941 0,-0.05293 0.07939,-0.105875 0.05294,0.02641 0.05294,0.05293 z m -0.608753,0.820494 q -0.105873,0 -0.132338,-0.07941 v -0.158796 q 0,-0.05293 0.07939,-0.07941 l -0.02646,-0.05293 q 0.105879,-0.291153 0.185282,-0.31762 l 0.158806,0.02641 q 0.02647,0 0.02647,-0.02641 -0.07939,0 -0.07939,-0.07941 l 0.317611,-0.05293 q 0.05294,0.02641 0.05294,0.07941 l -0.185272,-0.02641 0.02646,0.05293 -0.02646,0.05293 q 0.02646,0.05293 0.02646,0.132339 -0.185272,0.105877 -0.238211,0.370549 z m 2.170349,-0.370543 q -0.105872,-0.02641 -0.105872,-0.105878 0,-0.105875 0.370547,-0.291147 v 0.02641 q -0.05294,0.211752 -0.264679,0.370547 z m -0.07939,0.158799 q -0.07939,0 -0.158804,-0.105876 l 0.07939,-0.05293 h 0.07939 q 0.05294,0 0.05294,0.07941 0,0.07943 -0.05294,0.07943 z m -0.344079,0.529351 -0.02647,-0.07943 q 0.158806,-0.211778 0.185272,-0.449949 0.07939,0 0.105871,0.07941 -0.158806,0.423482 -0.264676,0.449948 z m -0.846966,1.270449 v -0.02642 l 0.238203,-0.582297 q 0.07939,-0.02641 0.158806,-0.158801 l 0.05294,0.02642 q 0.05294,0 0.05294,-0.105876 -0.07939,0 -0.07939,-0.05293 0.238212,-0.291146 0.449952,-0.291146 l 0.02647,0.05293 q -0.105871,0.185264 -0.211744,0.185264 0,-0.07943 -0.05294,-0.07943 0,0.264675 -0.211743,0.423478 0,0.132338 -0.423481,0.608759 z m -2.408557,-0.582255 v -0.02641 q 0.05294,-0.105876 0.158806,-0.105876 l 0.05294,0.105876 z m -0.158805,0.1588 -0.02647,-0.05293 0.05294,-0.02641 h 0.02646 q 0,0.07941 -0.05294,0.07941 z M 25.52818,41.32251 q -0.07939,0 -0.07939,-0.05293 0,-0.05293 0.105871,-0.105875 0.05294,0.02641 0.05294,0.07943 0,0.02641 -0.07939,0.07941 z m 2.14388,0.979303 q 0,-0.05293 -0.07939,-0.05293 0,0.05293 0.07939,0.05293 z m -0.158806,0.264682 h -0.02646 q 0,-0.05293 0.05293,-0.07943 h 0.02647 q 0,0.07943 -0.05294,0.07943 z m -7.622685,0.608762 H 19.8641 l 0.02647,-0.1588 h 0.05294 q 0,0.1588 -0.05294,0.1588 z m 0.02646,0.185264 H 19.8641 v -0.07941 h 0.05293 z m 0.661693,0.211776 h -0.02646 q -0.132341,-0.07943 -0.185274,-0.07943 -0.132338,0.07943 -0.211741,0.07943 l -0.02647,-0.05293 v -0.105891 l 0.105877,0.05293 q 0,-0.05293 0.05294,-0.05293 l 0.02647,0.02641 0.132337,-0.105876 h 0.05294 v 0.07943 l 0.132337,-0.02641 q 0.05294,0.05293 0.05294,0.105876 h -0.105871 z m 0.66169,0.44995 -0.02647,-0.105875 0.05294,-0.105876 q -0.02647,0 -0.10587,-0.105878 l 0.05294,-0.02641 q 0.105872,0.05293 0.105872,0.211779 0,0.07943 -0.07939,0.132339 z M 20.869863,43.88991 Q 20.763992,43.8635 20.763992,43.8105 v -0.105877 h 0.02647 q 0.158804,0.105877 0.158804,0.132339 0,0.05293 -0.07939,0.05293 z m 1.085175,0.05293 -0.02647,-0.05293 q 0,-0.05293 0.05294,-0.05293 l 0.02646,0.05293 q 0,0.05293 -0.05294,0.05293 z M 40.376521,20.09545 q -0.07943,0 -0.07943,-0.105871 h 0.05293 v 0.05294 l 0.05293,-0.02647 0.02641,0.05294 z m 0.317619,0.05294 h -0.07943 q -0.05293,0 -0.07941,-0.158806 h 0.02641 q 0.132337,0.05293 0.132337,0.158806 z m -0.582288,0.05294 h -0.05293 q 0,-0.132337 0.05293,-0.132337 h 0.05293 q 0,0.132337 -0.05293,0.132337 z m -0.264676,0.02646 q -0.158807,-0.02646 -0.158807,-0.132343 h 0.105876 q 0.05293,0.02647 0.05293,0.132337 z m -0.291145,0.05294 h -0.07943 q 0,-0.132337 0.07943,-0.132337 0.07941,0 0.07941,0.05294 z m -0.449949,0.185274 -0.02641,-0.05294 q 0.02641,-0.13234 0.105875,-0.238211 0.105877,0.05294 0.238215,0.05294 0,0.07939 -0.238215,0.105871 0,-0.02647 -0.02641,-0.02647 0,0.158804 -0.05293,0.158804 z m 1.746868,-0.158806 h -0.07941 v -0.05293 h 0.07941 z m -2.17035,0.211743 q -0.05293,0 -0.05293,-0.05294 0,-0.132339 0.185264,-0.132339 0.07943,0 0.07943,0.05294 -0.07943,0.132337 -0.21178,0.132339 z m -0.344087,0.238212 -0.132338,-0.07939 v 0.05293 q -0.105875,0 -0.105875,-0.05293 h 0.07943 l -0.02641,-0.02647 q -0.105876,0.05294 -0.238213,0.05294 l -0.02641,-0.05294 q 0.529358,-0.26468 0.608755,-0.26468 0.105877,0.02647 0.105877,0.07939 0,0.07939 -0.264676,0.211744 z M 37.465074,43.88988 h -0.07943 l 0.02641,-0.07941 -0.555819,0.02641 q -0.07941,0 -0.07941,-0.105876 l -0.211754,0.05293 -0.02641,-0.05293 0.02641,-0.05293 -0.264673,0.02641 -0.07938,-0.05293 q 0,0.105876 -0.05293,0.105876 -0.211743,0 -0.423481,-0.158801 l -0.07939,0.05293 Q 35.479929,43.545673 34.527092,43.228066 34.42122,43.095727 34.42122,43.016289 h -0.158808 q -0.05293,0 -0.05293,-0.105876 h 0.158808 v -0.02641 q -0.07939,0 -0.07939,-0.05293 l -0.185275,0.05293 q -0.476329,-0.185161 -0.635137,-0.185161 l 0.02647,0.05293 -0.105871,0.211778 0.105871,-0.02641 -0.02647,0.07941 q 0.07939,0 0.07939,-0.07941 h 0.07939 q 0,0.132339 -0.105873,0.185263 -0.07939,-0.05293 -0.158805,-0.05293 0,0.07941 -0.05293,0.07941 -0.105871,-0.05293 -0.105871,-0.07941 0.05294,-0.07943 0.05294,-0.158799 h -0.02646 q -0.158806,0.238215 -0.291145,0.238215 V 42.91068 q -0.05294,0 -0.05294,-0.02641 -0.158805,0.05293 -0.158805,0.158799 h -0.05293 l 0.02647,-0.105875 -0.02647,-0.105875 q 0,-0.05293 0.02647,-0.07941 h -0.02647 l -0.132339,0.132337 q -0.105872,0 -0.185275,-0.211775 l -0.105869,0.02641 0.05293,0.185261 h -0.02647 q -0.291153,-0.18527 -0.291153,-0.423492 l 0.02646,-0.07943 0.132338,0.02641 q 0.05294,-0.105875 0.07939,-0.105875 0.105874,0.132337 0.185273,0.132337 0.105872,0.185262 0.158807,0.185262 v -0.07943 q -0.105867,-0.0794 -0.105867,-0.185256 l 0.185274,-0.02641 q 0,-0.05293 0.185274,-0.105875 l 0.10587,0.05293 q 0.05293,-0.105878 0.185272,-0.264677 h -0.02646 l -0.132337,0.105875 h -0.07939 q 0,-0.02641 0.132338,-0.105875 l -0.02647,-0.132339 q 0.05293,-0.07943 0.05293,-0.132338 h -0.07939 v -0.02641 q 0.105872,-0.105876 0.105872,-0.211778 -0.105872,-0.05293 -0.105872,-0.105876 0.185275,-0.185262 0.185275,-0.264677 -0.05294,0 -0.05294,-0.05293 l 0.105871,-0.07943 0.02647,0.05293 -0.05293,0.07941 q 0.05293,0 0.07939,-0.05293 0.02647,-0.07943 -0.02647,-0.132338 0.211744,-0.105874 0.211744,-0.185262 0,-0.07943 0.238212,-0.158801 l -0.02647,-0.132339 q 0,-0.02641 0.158806,-0.132336 v -0.02641 l -0.185274,0.132337 -0.02647,-0.02641 0.238209,-0.264675 h 0.158812 q 0,-0.132339 0.211741,-0.158801 l 0.02647,0.07943 -0.02647,0.05293 q 0,0.02641 0.02647,0.02641 0,-0.105874 0.105874,-0.105874 0.582289,0.423485 0.582289,0.58229 0.34408,0.158801 0.608755,0.397019 0.264679,0.05293 0.846964,0.344084 l 0.105878,-0.02641 q 0.105874,0.02641 0.105874,0.105876 0.05293,0 0.05293,-0.05293 l 0.502882,0.132338 0.132338,-0.07941 q 0.105876,0.07941 0.370546,0.07941 0.238214,0 0.873438,-0.105876 l 0.132338,0.07941 h 0.05293 v -0.02641 h -0.07941 q 0,-0.07943 0.05293,-0.07943 0.132337,0 0.132337,0.132337 h 0.02641 l -0.02641,-0.1588 q 0.07943,0 0.07943,0.07943 h 0.02641 q 0,-0.132337 0.264676,-0.185261 0.05293,0.105874 0.105876,0.105874 0.211777,0 0.397016,-0.1588 -0.02641,-0.05293 -0.02641,-0.132338 0.02641,-0.105875 0.264678,-0.105875 0,-0.132338 0.132336,-0.132338 l 0.185264,0.02641 0.291145,-0.07941 -0.02641,-0.05293 0.05293,-0.02641 q 0.02641,0 0.02641,0.02641 0.158801,0 0.291143,-0.185263 l 0.07941,0.02641 q 0.105876,-0.02641 0.105876,-0.07943 v -0.132339 h 0.02641 q 0.105874,0.05293 0.105874,0.132339 h 0.05293 l -0.07941,-0.105876 q 0.05293,0 0.05293,-0.05293 l -0.02641,-0.105877 0.07943,0.02641 q 0,-0.211777 0.370544,-0.238214 0,-0.105877 0.105876,-0.132338 0,-0.105877 0.02641,-0.1588 l 0.05293,0.02641 q 0.05293,0 0.05293,-0.05293 l -0.02641,-0.105876 0.07943,-0.05293 0.05293,0.02641 q 0.423481,-0.44995 0.608763,-0.582286 v -0.105886 h 0.07943 q 0,0.05293 0.211776,0.211778 -0.105875,0 -0.132337,0.02641 l -0.02641,-0.07941 q -0.05293,0 -0.05293,0.05293 l 0.02641,0.07941 -0.185264,0.291143 h 0.02641 l 0.185264,-0.158799 h 0.05293 q 0,0.105875 -0.317623,0.344087 l 0.02641,0.105876 q -0.211777,0.211777 -0.211777,0.317616 l 0.07943,0.02641 q 0,-0.07943 0.476417,-0.608754 l 0.07943,0.02641 q 0.132339,-0.105877 0.291146,-0.397016 l 0.07943,-0.02641 -0.02641,-0.05293 q 0,-0.05293 0.05293,-0.05293 l 0.07943,0.02641 q 0.158801,-0.132337 0.317624,-0.264676 0.1588,-0.158799 0.238213,-0.502883 l -0.02641,-0.02641 q 0,0.264676 -0.397021,0.582288 l -0.02641,-0.07943 q 0.105895,-0.185271 0.264695,-0.185271 v -0.05293 h -0.07943 v -0.211751 l 0.07943,-0.07941 q -0.05293,-0.02641 -0.05293,-0.105876 0.158801,0 0.291142,-0.238213 0.07943,0 0.07943,-0.105875 -0.05293,0 -0.07943,-0.07941 v -0.02641 q 0.105876,-0.185262 0.158802,-0.185262 l -0.02641,-0.07941 q 0.105875,-0.1588 0.105875,-0.317616 0.132338,0 0.132338,-0.105877 l -0.02641,-0.158799 q 0.02641,-0.105876 0.105876,-0.105876 v -0.02641 q -0.211779,0 -0.211779,-0.07941 0.105876,-0.02641 0.105876,-0.158801 l -0.05293,-0.02646 q 0,-0.02646 0.105876,-0.158801 l -0.07943,-0.02646 0.02641,-0.05293 -0.02641,-0.105875 0.158802,-0.07939 -0.02641,-0.07939 0.132338,-0.02646 v 0.05294 h -0.07943 q 0.02641,0.02647 0.02641,0.07939 h -0.05293 v 0.02647 q 0.132337,0 0.185261,-0.02647 l 0.105877,0.02647 q 0,0.37055 -0.132339,0.37055 h -0.07943 v 0.02646 q 0.132339,0 0.132339,0.105875 -0.02641,0.13234 -0.185264,0.13234 l 0.02641,0.05293 q 0,0.185263 -0.238214,0.529355 -0.02641,0.344084 -0.105875,0.344084 0,-0.02641 -0.02641,-0.02641 l 0.02641,0.158803 -0.07941,0.317618 q 0,0.02641 0.02641,0.02641 0.185263,-0.449951 0.264674,-0.449951 l -0.1588,0.476416 h 0.02641 q 0.132337,-0.132338 0.344089,-0.582288 l -0.02641,-0.211751 q 0,-0.211751 0.185263,-0.29115 0.05293,-0.105875 0.05293,-0.370545 l -0.05293,-0.07941 q 0,-0.158801 0.132338,-0.423482 l -0.02641,-0.132339 0.02641,-0.132339 -0.185261,0.02647 v -0.05294 h -0.344091 v -0.07939 h 0.05293 l -0.05293,-0.07939 v -0.158694 q 0,-0.05293 0.07941,-0.05293 V 35.340895 Q 44.2939,34.83801 44.2939,34.679202 h -0.07943 q 0,-0.238211 0.132337,-0.31761 l 0.07943,0.105868 q 0,0.07939 -0.07943,0.07939 v 0.02647 l 0.158801,-0.02647 q 0,-0.07939 -0.05293,-0.132337 0,-0.05293 0.05293,-0.05293 0.07941,0 0.07941,0.105871 0.07943,0 0.105874,-0.317612 l -0.05293,0.05293 q -0.07943,0 -0.264675,-0.529353 L 43.97631,33.170583 q 0,-0.13234 0.05293,-0.13234 0.42348,0.555824 0.502885,0.608758 h 0.02641 l -0.02641,-0.07939 0.02641,-0.07939 -0.07943,0.05293 -0.02641,-0.05293 v -0.105867 q 0,-0.05294 0.07943,-0.05294 0.158801,0.238211 0.185263,0.238211 0.02641,0 0.02641,-0.02646 -0.132338,-0.291143 -0.238213,-0.291143 l -0.105877,0.05293 -0.02641,-0.05293 q 0,-0.07939 0.07941,-0.07939 v -0.02647 h -0.05293 l -0.132339,0.05293 q -0.344051,-0.423534 -0.555798,-0.555872 0,-0.02646 0.105875,-0.07939 0.105877,0 0.105877,0.10587 h 0.02641 q -0.02641,-0.185272 -0.476415,-0.423481 h -0.158802 l 0.05293,0.07939 q 0,0.05293 -0.05293,0.05293 -0.211779,-0.105876 -0.264678,-0.105876 v 0.02647 q 0.423482,0.264683 0.423482,0.317614 -0.105876,0.264676 -0.211777,0.264676 0,-0.158806 -0.79403,-0.476418 l -0.1588,0.185274 0.05293,0.02646 q -0.05293,0.02647 -0.132338,0.02647 Q 41.70002,32.50887 41.70002,32.350065 l -0.158802,0.105874 -0.02641,-0.05294 q 0.105876,-0.105873 0.211779,-0.105873 0.07943,0 0.07943,0.105873 l 0.05293,-0.02646 q 0.105876,0 0.291143,0.105874 0.02641,-0.05294 0.05293,-0.05294 l 0.158801,0.02647 0.05293,-0.07939 -0.211777,-0.02647 -0.185264,0.02647 q -0.02641,-0.185274 -0.105875,-0.185274 -0.211779,0 -0.317618,0.05293 -0.661688,-0.132339 -0.846963,-0.132339 l -0.07943,0.02647 v 0.05294 l 0.07943,-0.05294 q 0,0.132339 -0.211777,0.158807 h -0.02641 l -0.132337,-0.07939 -0.02641,0.105869 h -0.132337 q -0.07943,0.07939 -0.158801,0.07939 l 0.02641,0.05293 q 0,0.105872 -0.317618,0.185275 l -0.873436,0.423483 -0.02641,-0.02646 -0.05293,0.02646 -0.105874,-0.05294 q 0,0.07939 -0.07941,0.07939 -0.05293,0 -0.05293,-0.05293 0.05293,-0.07939 0.05293,-0.132339 -0.02641,0 -0.185264,0.26468 -0.291142,0.13234 -0.291142,0.23821 0.105875,0.105873 0.105875,0.211742 l 0.07943,-0.05293 q 0,0.02647 0.02641,0.02647 l -0.02641,-0.105872 q 0.05293,0 0.132337,0.105872 l -0.105876,0.132338 0.05293,0.07939 -0.07943,0.05293 q -0.07943,0 -0.07943,-0.132339 h -0.05293 q 0,0.105869 0.07943,0.185271 v 0.158808 h -0.02641 Q 38.12711,33.964586 38.047671,33.964586 l 0.02641,0.264677 -0.211778,-0.185274 v 0.02647 q 0.07941,0.105871 0.07941,0.211744 l -0.07941,0.02647 q -0.02641,-0.02647 -0.132338,-0.02647 l -0.02641,0.07939 0.158801,0.02647 q 0,0.07939 -0.264676,0.132337 -0.158801,-0.07939 -0.185264,-0.132337 0,-0.07939 0.05293,-0.07939 -0.05293,-0.105874 -0.05293,-0.158806 l 0.05293,-0.02647 0.07941,0.02647 q 0,-0.07939 0.211779,-0.07939 v -0.02647 q -0.1588,0 -0.238213,-0.05293 l 0.02641,-0.105871 -0.02641,-0.158805 q 0.02641,-0.10587 0.105875,-0.10587 l -0.05293,-0.132338 -0.07943,0.05293 q -0.05293,0 -0.05293,-0.07939 h -0.02641 l 0.02641,0.07939 q 0,0.158804 -0.238214,0.31761 v 0.02647 l 0.185263,-0.02647 q 0,0.05294 -0.344079,0.34408 l -0.02641,-0.05293 q 0,0.07939 -0.05293,0.07939 -0.02641,-0.132338 -0.1588,-0.238211 v -0.13241 q 0,-0.05294 0.07941,-0.05294 -0.132338,-0.211741 -0.132338,-0.264676 H 36.64494 l 0.02641,0.132338 q -0.105878,0 -0.105878,-0.07939 h -0.07941 q -0.158801,0 -0.158801,-0.132339 h 0.05293 q -0.0532,-0.10589 -0.0532,-0.21176 l 0.07938,-0.02647 q 0,-0.05294 -0.05293,-0.05294 0,0.02647 -0.02646,0.02647 -0.07938,-0.105872 -0.07938,-0.132338 -0.02646,0 -0.02646,0.02646 0.05293,0.07939 0.05293,0.158805 h -0.05295 l -0.05293,-0.158805 -0.05293,0.02647 q -0.05293,-0.07939 -0.05293,-0.185273 0.05293,0 0.105875,0.05294 v -0.02646 q -0.05293,-0.158809 -0.291139,-0.449956 h -0.05294 q 0,0.158807 -0.07939,0.158807 -0.105873,-0.05294 -0.105873,-0.158807 l -0.07939,0.05294 q -0.05293,-0.07939 -0.05293,-0.317611 0.264674,-0.661691 0.370548,-0.661691 0.344081,-0.185273 0.397017,-0.264677 0,0.02646 0.02646,0.02646 0,-0.07939 0.44995,-0.238211 l 0.02641,-0.05293 0.132337,0.02646 q 0.264677,-0.105873 0.582291,-0.158807 0,-0.105871 0.07943,-0.105871 l 0.105876,0.07939 q 0.317618,-0.132337 0.317618,-0.185272 0.02641,-0.07939 0.05293,-0.07939 h 0.291144 q 0,-0.07939 0.05293,-0.07939 0.07941,0.05294 0.158799,0.05294 l 0.105878,-0.07939 0.05293,0.02647 q 0,-0.07939 0.370549,-0.185273 0,-0.02647 0.238213,-0.105873 0,-0.132339 0.291144,-0.158806 l 0.741096,-0.555822 q 0.05293,0 0.158801,-0.105873 l 0.105876,0.02647 -0.05293,-0.07939 0.05293,-0.02647 q 0.02641,0.05293 0.05293,0.05293 0.07943,-0.238212 0.185263,-0.238212 0.05293,0.05294 0.132338,0.05294 0.264676,-0.158806 0.264676,-0.291144 -0.05293,0 -0.07941,-0.07939 0.02641,-0.158804 0.211776,-0.158804 l -0.02641,-0.05294 q 0,-0.132339 0.291145,-0.185273 0,-0.05294 0.185262,-0.132338 l -0.02641,-0.07939 q 0.264676,-0.105871 0.264676,-0.238213 0.132338,-0.02647 0.132338,-0.158804 l -0.05293,-0.07939 0.1588,0.02647 -0.02641,-0.05293 0.02641,-0.05294 q -0.02641,0 -0.07943,-0.07939 0.05293,0 0.211779,-0.23821 0.158801,0 0.185263,-0.211742 h 0.05293 l -0.02641,-0.158806 q 0.105876,0 0.105876,-0.05294 -0.07943,0 -0.07943,-0.07939 0.105876,-0.02647 0.423483,-0.635224 0.02641,0 0.02641,-0.02646 l -0.02641,-0.105872 0.05293,-0.02647 q 0,0.02647 0.07943,0.07939 h 0.02641 q -0.07944,-0.105906 -0.07944,-0.185308 l 0.02641,-0.105873 -0.02641,-0.07939 0.05293,-0.02647 -0.02641,-0.07939 q 0,-0.211743 0.185263,-0.211743 l -0.02641,-0.05294 q 0,-0.02647 0.158801,-0.132337 h 0.158799 v 0.07939 H 43.52638 l 0.02641,0.05294 -0.02641,0.05294 q 0.05293,0 0.07941,0.105873 0,0.07939 -0.105876,0.07939 0,0.529353 -0.185263,0.529353 v 0.02647 q 0.105876,0 0.105876,0.07939 h -0.15878 v -0.05294 h -0.02641 v 0.07939 q 0.05293,0 0.05293,0.05294 l -0.07943,0.291145 h 0.05293 q 0.05293,-0.185275 0.132336,-0.185275 -0.05293,0.34408 -0.185262,0.34408 l 0.05293,0.07939 -0.05293,0.264676 q 0,0.07939 0.05293,0.07939 0.132338,-0.608756 0.344085,-0.608756 0.105876,-0.397016 0.211777,-0.397016 l -0.05293,-0.07939 q 0.132338,0 0.370548,-0.370549 l 0.02641,-0.529352 h -0.02641 q 0,0.423483 -0.158802,0.608757 0,0.05293 -0.05293,0.05293 l -0.02641,-0.07939 q 0.02641,-0.23821 0.158802,-0.23821 v -0.05294 q -0.105876,0 -0.105876,-0.211742 l 0.05293,-0.10587 q -0.07943,0 -0.07943,-0.05294 0,-0.07939 0.105878,-0.07939 V 24.88612 q 0,-0.05294 0.07943,-0.05294 v -0.132352 l -0.105876,-0.105874 0.02641,-0.370545 q -0.05293,0 -0.05293,-0.05294 l 0.02641,-0.23821 q -0.105876,-0.185274 -0.105876,-0.26468 0.07943,0 0.07943,-0.05293 0,-0.05294 -0.264677,-0.423482 0,-0.158805 0.07941,-0.158805 0.185263,0 0.291145,0.979302 l 0.105876,0.397015 -0.05293,0.02647 q 0,-0.02647 -0.02641,-0.02647 v 0.05294 q 0.132338,0.158806 0.132338,0.555821 h 0.02641 l 0.02641,-0.608756 q 0.07941,-0.02647 0.07941,0.05293 v 0.608754 h 0.02641 q 0.07943,-0.238211 0.105875,-0.66169 0,-0.132338 -0.211779,-0.714627 l -0.02641,-0.158806 0.05293,-0.105871 q 0,-0.344078 -0.661688,-0.952835 -0.185266,-0.344083 -0.423487,-0.555824 l -0.05293,0.02647 q -0.291144,-0.23821 -0.423487,-0.23821 0,0.132341 -0.05293,0.132341 -0.05293,0 -0.05293,-0.07939 h -0.02641 q -0.238215,0.291143 -0.264677,0.291143 h -0.105892 v -0.07942 q -0.317617,0 -0.423483,-0.158807 l -0.158802,-0.02647 q -0.185262,0 -0.476418,0.05293 -0.07941,0 -0.211775,-0.05293 v 0.05293 q -0.185264,0 -0.264676,-0.158804 0.02641,-0.07939 0.1588,-0.07939 l 0.02641,0.105871 0.05293,-0.132337 -0.05293,-0.07939 -0.05293,0.05293 q -0.07941,0 -0.07941,-0.07939 0,-0.05294 0.132337,-0.05294 -0.05293,-0.07939 -0.211776,-0.185273 l -0.02641,0.02646 0.02641,0.07939 q -0.07943,0.05293 -0.158801,0.05293 h -0.423483 q -0.344086,0.07939 -0.449949,0.07939 -0.105875,0 -0.105875,-0.05294 0.05293,-0.05294 0.661688,-0.185273 v -0.05294 q -0.07943,0 -0.07943,-0.05294 h -0.02641 q 0,0.105874 -0.05293,0.105874 -0.05293,0 -0.105875,-0.105874 0,-0.02646 0.264676,-0.105871 v -0.02646 h -0.158801 q -0.185262,0 -0.185262,0.211745 h -0.02641 q -0.05293,-0.05294 -0.05293,-0.105874 h -0.02641 q 0,0.185273 -0.185262,0.185273 -0.317618,0.02646 -0.423479,0.105871 h -0.05293 l -0.02641,-0.105871 0.105877,-0.05294 v -0.02647 h -0.07943 q -0.449955,0.07939 -0.449955,0.238212 l 0.05293,-0.02646 0.02641,0.02646 0.05293,-0.02646 q 0.05293,0.02646 0.05293,0.132337 l -0.07943,-0.07939 q -0.211778,0.158808 -0.211778,0.211742 0.317619,-0.105871 0.397017,-0.105871 0.05293,0 0.158799,0.185275 l -0.02641,0.132337 -0.05293,-0.02647 q -0.07943,0 -0.68816,0.211741 0,0.132337 0.132337,0.291144 -0.264675,0.158806 -0.555822,0.158806 l -0.07938,-0.02646 q 0,0.105872 -0.07941,0.105872 0,-0.185273 0.07941,-0.185273 l 0.105875,0.02647 q 0,-0.105871 0.291145,-0.105871 l -0.02641,-0.05294 q 0,-0.05294 0.105877,-0.05294 v -0.132341 q -0.05293,0 -0.264677,0.211739 l -0.158801,-0.07939 q -0.344087,0.317613 -0.423475,0.317613 -0.264678,0.10587 -0.397014,0.185273 l 0.05293,0.105874 q -0.05293,0.132338 -0.13234,0.185272 -0.02641,0 -0.02641,-0.02646 l 0.02641,-0.10587 -0.1588,-0.07939 q -0.02698,0.15882 -0.132939,0.15882 v 0.05294 l 0.105876,-0.02646 v 0.05294 h -0.05293 v 0.02647 q 0.105876,0 0.105876,0.05294 l -0.264676,0.132337 0.02641,-0.158804 h -0.02641 q -0.1588,0.132339 -0.185263,0.132339 0,0.02647 0.132337,0.07939 -0.132337,0.158806 -0.132337,0.185274 h -0.05293 l 0.02646,-0.132338 q -0.132337,0 -0.211751,0.211743 l 0.07938,0.02647 q 0,0.185273 -0.264678,0.291143 l -0.02647,0.158807 h -0.05293 v -0.07939 q -0.05294,0 -0.07939,0.132338 l 0.02647,0.07939 -0.05294,0.02647 -0.02647,-0.02647 q 0,0.05294 -0.211745,0.370547 h -0.185299 q 0,0.07939 -0.10587,0.317612 l 0.07939,0.07939 -0.132339,0.370547 h -0.05296 v 0.07939 h 0.02647 v -0.05294 h 0.05293 q 0.132339,0.185274 0.132339,0.264678 l -0.07939,0.264675 q 0.13234,-0.105869 0.185273,-0.105869 0,0.31761 -0.07939,0.31761 l 0.02647,0.05294 q 0,0.02646 -0.07939,0.07939 -0.05294,0 -0.158807,-0.26468 -0.05294,0 -0.07939,0.05294 l 0.02647,0.05294 q -0.05293,0 -0.23821,-0.13234 -0.105874,-0.05294 -0.211744,-0.05294 l -0.05293,0.105873 q 0.10587,0.185273 0.10587,0.238211 l 0.185273,-0.02647 q 0.02646,0.05294 0.02646,0.132338 h -0.05293 l 0.264676,0.291144 -0.05294,0.02647 -0.13234,-0.02647 q 0,0.05294 -0.132337,0.132337 h -0.105945 q -0.02646,0 -0.07939,-0.07939 v -0.02647 h 0.158807 q 0,-0.05294 -0.158807,-0.05294 -0.05293,0 -0.05293,0.105872 l 0.132339,0.10587 -0.132339,0.529354 q 0.132339,0.158805 0.158805,0.344079 0.07939,0.05294 0.211746,0.05294 0.105868,-0.07939 0.238209,-0.07939 h 0.34408 q 0.05294,0 0.05294,0.05294 l -0.02647,0.132337 0.397016,-0.132337 q 0,0.02646 0.02647,0.02646 -0.342921,0.50289 -0.951678,0.50289 -1.773335,-0.105873 -2.223284,-1.085177 0,-0.05294 -0.794031,-1.69393 0.926368,-0.688158 0.926368,-0.79403 0.05294,-0.317612 0.238209,-0.317612 v -0.05291 h -0.07939 q 0,-0.105871 0.238209,-0.370547 l -0.02647,-0.105872 q 0.02647,0 0.238213,-0.158807 l -0.02646,-0.05294 q 0.423484,-0.370547 0.423484,-0.502885 0.132338,0 0.132338,-0.05294 0,-0.05294 0.105874,-0.185271 -0.05294,-0.05294 -0.05294,-0.07939 0.185272,-0.158807 0.264675,-0.264675 h 0.13234 l -0.02647,-0.105876 0.05293,-0.02647 q 0,0.05294 0.05294,0.05294 l -0.02647,-0.185273 0.158805,-0.132339 0.02647,0.07939 0.105873,-0.10587 0.05294,0.02647 q 0.105872,-0.05294 0.185275,-0.05294 0,-0.05294 -0.02647,-0.07939 l 0.05293,-0.02647 q 0.07939,0.158805 0.105873,0.158805 l 0.02647,-0.05294 -0.05293,-0.07939 0.02647,-0.10587 0.158807,0.02647 0.07939,-0.02647 q 0,0.05294 0.05293,0.05294 0.02647,-0.105872 0.07939,-0.105872 l 0.07939,0.05294 -0.02646,-0.132337 q 0.05293,-0.02646 0.264678,-0.05294 v -0.02647 h -0.05294 v -0.02646 q 0.794003,-0.582295 0.899873,-0.582295 0.502887,-0.185273 0.794032,-0.317612 h 0.02641 v 0.05294 q -0.158801,0.158806 -0.926369,0.55582 -0.05293,0.07939 -0.132338,0.132342 v 0.05293 q 0.105876,0 0.211751,0.185273 0,-0.105869 0.05293,-0.105869 0.02641,0 0.105875,0.132337 -0.05293,0 -0.05293,0.05294 h 0.05293 q 0.344083,-0.211745 0.44995,-0.211745 l 0.02641,0.02647 q 0,-0.05294 0.07943,-0.07939 0.07941,-0.02647 0.105875,0 0,-0.132339 0.158801,-0.132339 V 21.28661 q -0.105876,0 -0.105876,-0.05294 0,-0.05294 0.07943,-0.05294 l 0.158801,0.10587 q 0.05293,-0.05293 0.05293,-0.10587 l -0.105875,0.02647 q 0,-0.132338 0.05293,-0.132338 0,0.05294 0.1588,0.132338 v -0.02647 q -0.05293,0 -0.105876,-0.211741 0.105876,0 0.1588,0.264677 h 0.05293 l 0.132338,-0.238212 h 0.132338 l -0.02641,0.132339 q 0.291144,0 0.397017,-0.10587 h 0.132339 l 0.02641,-0.105872 q -0.02641,0 -0.02641,-0.02647 l 0.132337,0.05294 q 0.1588,0 0.529355,-0.105873 0.07941,0 0.185262,0.05293 0,-0.07939 0.07943,-0.07939 l 0.105876,0.05294 q 0.02641,0 0.02641,-0.02647 -0.105876,0 -0.105876,-0.10587 h 0.13234 q 0.132339,0.132337 0.185264,0.132337 0,-0.05294 0.05293,-0.05294 l 0.05293,0.02647 q 0.02641,-0.105869 0.132339,-0.105869 v 0.07939 h 0.02641 q 0,-0.05294 0.02641,-0.05294 l 0.185263,0.02647 q 0.05293,-0.07939 0.05293,-0.238213 l -0.05293,0.02646 q 0,-0.02646 -0.02641,-0.07939 0,-0.07939 0.1588,-0.07939 0.105877,0.02647 0.105877,0.07939 l -0.02641,0.185272 0.02641,0.02646 q 0.05293,-0.238211 0.132338,-0.238211 h 0.264676 l 0.07941,-0.05294 q 0.185262,0.105873 0.185262,0.370547 l 0.05293,-0.02647 -0.02641,-0.05294 v -0.211754 q 0,-0.05294 0.07943,-0.05294 0.291145,0.132338 0.370546,0.132338 0.02641,-0.05294 0.05293,-0.05294 0.132337,0.10587 0.502887,0.211743 l 0.211777,-0.02647 q 0.502886,0.07939 1.191047,0.714626 l -0.05293,0.02647 -0.264677,-0.02647 q 0.291145,0.211741 0.423483,0.582288 l 0.05293,0.02646 0.02641,-0.02646 q -0.05293,-0.105904 -0.158801,-0.238243 h 0.105875 Q 43.950402,21.5776 43.897451,21.5776 v -0.07938 q 0.238215,0 0.449952,0.344079 0.158801,0 0.211776,0.238211 l -0.05293,0.02647 q 0.555824,0.714628 0.555824,0.952836 0.264676,0.661692 0.370546,1.7998 -0.07943,0 -0.185261,0.211742 -0.07941,0 -0.13234,-0.02647 0.02641,0.07939 0.07941,0.132338 l -0.132337,0.158806 0.05293,0.105871 q -0.02641,0.02647 -0.132339,0.02647 v 0.02646 q -0.07943,0.979303 -0.264676,0.979303 l 0.02641,0.05293 -0.132339,0.370547 q 0.02641,0 0.02641,0.02647 l -0.105876,0.02647 0.02641,0.05294 q 0,0.07939 -0.07941,0.07939 v 0.02646 q 0.105876,0 0.105876,0.07939 -0.05293,0 -0.05293,0.05294 0.07941,0 0.07941,0.05294 0,0.158806 -0.132338,0.317613 0.105875,0 0.105875,0.07939 -0.132338,0.397014 -0.211779,0.397014 l 0.02641,0.07939 q -0.07941,0 -0.158802,0.238212 -0.105875,0 -0.238212,0.291144 -0.211778,0.132338 -0.211778,0.185273 -0.105875,0.370548 -0.291144,0.370548 l 0.02641,0.05293 q 0,0.05294 -0.05293,0.05294 -0.02641,0 -0.264676,-0.185277 h -0.02641 q 0.264676,0.211743 0.264676,0.264678 -0.02641,0.105873 -0.07941,0.105873 -0.05293,0 -0.105876,-0.05294 -0.07941,0.13234 -0.105875,0.344082 -0.05293,0.07939 -0.105876,0.07939 l 0.02641,0.105868 -0.05293,0.02646 -0.185265,-0.132337 q 0.02641,0 0.105877,0.132337 v 0.05293 l -0.07941,0.13234 q 0.02641,0 0.07941,0.07939 -0.264678,0.05294 -0.264678,0.158805 l 0.132339,-0.02647 q 0,0.02647 -0.238214,0.238208 l -0.132338,-0.02646 0.02641,0.158805 q 0.58229,0.211744 0.58229,0.264676 l -0.952824,-0.158766 v 0.05294 h -0.05293 v -0.07939 h -0.132338 q 0.02641,0.05293 0.05293,0.05293 l -0.02641,0.132338 h -0.02641 q 0,0.105869 0.105875,0.132337 l 0.158801,-0.02644 q 0.02641,-0.05294 0.05293,-0.05294 0.02641,0.02646 0.02641,0.07939 0,0.05294 -0.05293,0.07939 h 0.07941 q 0.105875,-0.07939 0.185261,-0.07939 0,0.02647 0.02641,0.02647 l -0.02641,0.105869 0.105876,0.185275 q -0.105876,0 -0.714624,-0.34408 h -0.07943 l 0.02641,0.105873 -0.02641,0.02647 -0.07943,-0.02647 q 0,0.05294 0.370547,0.132338 0.02641,0.05294 0.05293,0.05294 l 0.132339,-0.02646 q 0.05293,0.05294 0.05293,0.132338 0.07941,-0.05294 0.132337,-0.05294 l 0.211778,0.05294 q 0,-0.05294 0.07943,-0.05294 l -0.07943,-0.105871 V 31.3971 h 0.07943 q 0.02641,0 0.105875,0.105871 v 0.07939 l 0.105876,0.02646 q 0,-0.05294 0.05293,-0.05294 0.05293,0 0.05293,0.07939 h 0.02641 q 0.02641,-0.211744 0.105876,-0.211744 l 0.02641,0.07939 -0.132339,0.238212 0.317616,-0.02647 q 0.132339,0.05294 0.132339,0.105871 0,0.05294 -0.05293,0.05294 L 43.394154,31.847 v 0.02647 q 0.158801,0.158807 0.47642,0.317612 l 0.05293,0.07939 q 0.105874,0 0.105874,-0.07939 h 0.05293 v 0.132339 q 0,0.02647 0.502886,0.582289 v 0.10587 l -0.02641,0.05294 0.132337,-0.02647 q 0.02641,0 0.02641,0.291145 h 0.02641 q 0,-0.238211 0.05293,-0.238211 0.05293,0.05293 0.05293,0.132337 0.02641,0.07939 -0.02641,0.132338 l 0.02641,0.07939 q -0.02641,0 -0.02641,0.02647 0.07941,0 0.07941,0.132339 l 0.132338,-0.02647 0.02641,0.05293 q 0,0.07939 -0.07941,0.07939 v 0.02647 q 0.105875,0 0.105875,0.05293 0,0.07939 -0.02641,0.07939 0.05293,0.105871 0.105876,0.105871 0.185263,0 0.185263,-0.05293 l -0.02641,-0.07939 q 0.02641,-0.02647 0.105876,0 0.07941,0.02646 0.07941,0.158804 0,0.10587 -0.238213,0.132338 v 0.02647 q 0.291142,0 0.291142,0.132338 0.02641,0.132338 0.132339,0.238211 -0.02641,0.105873 -0.264675,0.291145 h 0.02641 q 0.185262,-0.105865 0.264674,-0.105865 0,0.02647 0.02641,0.02647 -0.05293,0.185274 -0.05293,0.317613 0,0.05294 0.05293,0.05294 l -0.02641,0.370547 q 0.132339,0 0.132339,0.34408 -0.02641,0.31761 -0.07941,0.31761 l -0.158826,-0.105873 q -0.02641,0.185263 -0.1588,0.317612 l 0.05293,0.02646 q 0.05293,-0.05293 0.05293,-0.132338 l 0.07943,0.02646 q 0,-0.158802 0.05293,-0.158802 0.07943,0.105876 0.07943,0.158802 l -0.02641,0.07938 q 0.05293,0 0.05293,0.07938 0,0.05293 -0.05293,0.05293 -0.05293,0 -0.07943,-0.02641 0,0.21175 0.05293,0.370543 -0.132338,0.264675 -0.211777,0.794029 -0.105876,0.211751 -0.158801,0.502884 -0.05293,0 -0.264676,0.132338 h -0.07941 q 0,0.132338 -0.158801,0.238214 0.05293,0 0.05293,0.105876 h -0.1588 q -0.317617,0.873435 -0.555818,0.873435 l 0.02641,0.07943 -0.264676,0.344084 0.02641,0.05293 q 0,0.05293 -0.1588,0.05293 l 0.02641,0.05293 q 0,0.07941 -0.158801,0.07941 v 0.02641 q 0.132339,0 0.132339,0.05293 0,0.05293 -0.105876,0.05293 0.07943,0.05293 0.07943,0.105876 -0.1588,0.291142 -0.264677,0.291142 l -0.132338,-0.02641 -0.07941,0.132338 h 0.105874 v -0.07943 q 0.132341,0 0.132341,0.105877 -0.264677,0.476423 -0.449951,0.50289 l 0.05293,0.07943 q -0.238213,0.02641 -0.238213,0.185263 -0.105877,0 -0.476419,0.291143 l -0.211778,0.05293 q 0,-0.02641 -0.02641,-0.02641 0,0.211781 -0.370548,0.370548 0,-0.02642 -0.02641,-0.02642 0,0.105877 -0.05293,0.105877 -0.02641,0 -0.264676,-0.31762 v 0.02641 q 0.185261,0.264676 0.185261,0.344089 0,0.05293 -0.07941,0.07943 -0.105877,0 -0.105877,-0.07943 -0.238212,0.132339 -0.238212,0.344086 l -0.105876,-0.02641 q 0,0.105874 -0.05293,0.105874 l -0.05293,-0.02641 q 0,0.105875 -0.05293,0.105875 -0.158802,-0.158801 -0.158802,-0.238213 -0.02641,0 -0.02641,0.02641 0.05293,0.07941 0.05293,0.211778 -0.158802,0.07943 -0.158802,0.132337 l 0.02642,0.105875 -0.132338,-0.02641 q -0.185262,0 -0.211778,0.07943 l 0.05293,0.02641 0.07943,-0.02641 v 0.02641 q -0.211756,0.158813 -0.423457,0.158813 l -0.02642,-0.07943 h -0.02641 q -0.02642,0.185263 -0.238216,0.185263 -0.07941,0 -0.07941,-0.132337 -0.211777,0.132337 -0.317617,0.132337 0,-0.05293 0.07943,-0.05293 v -0.02641 q -0.05293,0 -0.1588,-0.07943 h -0.02641 l 0.05293,0.07943 q -0.02641,0 -0.07941,0.07943 0.02641,0 0.02641,0.02641 l -0.05293,0.02641 q 0,-0.02641 -0.02641,-0.02641 0,0.07943 -0.05293,0.07943 h -0.105876 q -0.05293,0 -0.05293,-0.07943 -0.05293,0 -0.05293,0.07943 l 0.02641,0.07943 q -0.07941,0 -0.132338,-0.05293 0,0.105876 -0.05293,0.105876 l -0.02641,-0.07943 h -0.07941 q 0,0.185264 -0.397018,0.185264 -0.05293,-0.158802 -0.238214,-0.158802 l 0.05293,0.07941 q -0.317617,0.05293 -0.397016,0.105875 l -0.264678,-0.02641 z m 2.699701,-23.265077 h -0.07941 q 0,-0.105871 0.05293,-0.105871 z m 0.185264,0 -0.02641,-0.05294 q 0,-0.05294 0.05293,-0.05294 l 0.02641,0.05294 q 0,0.05294 -0.05293,0.05294 z m -1.482185,0.05294 q -0.05293,0 -0.05293,-0.05294 l 0.07943,-0.05294 0.02641,0.05294 q 0,0.05294 -0.05293,0.05294 z m 0.741089,0.05294 h -0.105876 q 0.02641,-0.10587 0.185263,-0.10587 0.07943,0 0.07943,0.05294 -0.105877,0.05294 -0.1588,0.05294 z m 1.032239,0 q -0.07943,0 -0.07943,-0.05294 0.02641,-0.05294 0.05293,-0.05294 z m -2.805574,0.132338 q -0.05293,0 -0.05293,-0.05294 l -0.05293,0.02647 q -0.05293,0 -0.05293,-0.158806 h 0.05293 q 0.05293,0 0.05293,0.07939 l 0.05293,-0.02647 q 0.05293,0 0.05293,0.05293 0,0.07939 -0.05293,0.07939 z m 1.296924,-0.02647 q -0.105877,0 -0.105877,-0.05293 l 0.132339,-0.07939 q 0.05293,0 0.05293,0.05294 0,0.02646 -0.07943,0.07939 z m 0.31763,-0.05293 h -0.07939 v -0.07941 h 0.02641 q 0.05293,0 0.05293,0.07939 z m -0.820497,0.185273 -0.05293,-0.07939 0.05293,-0.02647 h 0.105875 q 0.05293,0 0.05293,0.07939 z m -1.985077,0.05293 q 0,-0.132338 0.05293,-0.132338 h 0.05293 v 0.02647 q -0.05293,0.105876 -0.105876,0.105876 z m -0.185264,0.105874 q -0.07941,0 -0.07941,-0.05294 l 0.21175,-0.132338 q 0,0.132338 -0.132339,0.185273 z m 1.111645,0.132342 h -0.07943 q 0,-0.05293 0.05293,-0.07939 h 0.02641 z m -0.370555,0.291136 h -0.132338 v -0.07939 q 0.185262,0 0.185262,-0.158805 l 0.132338,0.105872 q 0,-0.158809 0.05293,-0.158809 l 0.105877,0.07939 h 0.132338 q 0,0.07939 -0.132338,0.132338 L 37.465048,21.4453 Z M 37.094538,21.3659 h -0.02641 q 0,-0.05294 0.05293,-0.07939 h 0.02641 q 0,0.07939 -0.05293,0.07939 z m 1.799797,0.07939 v -0.02647 q 0.07941,-0.132338 0.105877,-0.132338 0.05293,0.02647 0.05293,0.05294 0,0.10587 -0.1588,0.105873 z m 0.211778,0.211742 q -0.05293,0 -0.05293,-0.07939 0,-0.10587 0.05293,-0.10587 0.05293,0.02647 0.05293,0.10587 0,0.07939 -0.05293,0.07939 z m 0.979301,0 q -0.02641,-0.02647 -0.02641,-0.07939 0,-0.07939 0.158801,-0.10587 h 0.1588 q 0.05293,0.02647 0.05293,0.07939 z m -3.070244,0.02647 -0.0264,-0.07939 h 0.0264 q 0.05293,0 0.05293,0.05294 z m 2.382093,0.344081 q -0.185264,0 -0.185264,-0.05294 0,-0.05294 0.07941,-0.07939 l 0.07943,0.05294 q 0,-0.05294 0.105876,-0.05294 0,-0.07939 -0.105876,-0.132337 l -0.05293,0.02647 q 0,-0.02647 -0.02641,-0.07939 0,-0.07939 0.158801,-0.07939 0.05293,0 0.05293,0.23821 l 0.132339,-0.05294 0.07943,0.02646 v 0.05294 q -0.07943,0 -0.317618,0.132337 z m 0.608754,-0.07939 q -0.05293,0 -0.05293,-0.05294 0,-0.10587 0.211779,-0.132337 0,-0.07939 0.344085,-0.132341 0.105877,0.02646 0.105877,0.07939 0,0.05294 -0.370549,0.158807 0,-0.02647 -0.02641,-0.02647 0,0.02647 -0.21178,0.105869 z m -0.767564,-0.158835 h -0.07943 q 0,-0.105875 0.05293,-0.105875 z m -3.837808,0.05294 q -0.132338,0 -0.132338,-0.07939 l 0.264679,-0.02647 v 0.05294 q 0,0.05294 -0.132341,0.05294 z m 3.573132,0.370548 q -0.05293,0 -0.105875,-0.07939 0,-0.07939 0.185264,-0.105873 l -0.05293,-0.07939 0.05293,-0.02647 q 0.05293,0.05294 0.05293,0.105873 l 0.07943,-0.02646 v 0.05294 q -0.02641,0 -0.211778,0.158805 z m 3.626072,-0.132338 h -0.05293 v -0.02647 q 0.02641,-0.105875 0.07941,-0.105875 h 0.05293 v 0.02647 q -0.05293,0.105874 -0.07941,0.105875 z m 0.846964,0.979302 -0.02641,-0.05293 0.02641,-0.105869 q 0,-0.105873 -0.238212,-0.238212 -0.105876,-0.185274 -0.105876,-0.291145 -0.05293,0 -0.05293,0.07939 h -0.05293 l -0.264682,-0.158783 q 0,-0.07939 0.291142,-0.317612 h 0.05293 l 0.476418,0.476418 -0.105876,0.105872 0.07941,0.05294 0.07943,-0.02647 q 0.105875,0 0.238213,0.291144 -0.211776,0.185274 -0.397012,0.185274 z m -2.196847,-0.952822 h -0.158803 v -0.05294 h 0.158803 z m 0.449944,0.02647 h -0.05293 q -0.05293,0 -0.05293,-0.07939 l 0.105875,0.02647 z m 1.032241,0.05294 -0.02641,-0.05294 q 0,-0.07939 0.05293,-0.07939 0.05293,0 0.05293,0.05294 0,0.02647 -0.07941,0.07939 z m -2.223285,-0.05294 h -0.07941 v -0.05294 h 0.07941 z m 1.720395,0.105873 q -0.397009,-0.07939 -0.397009,-0.132333 l 0.07941,-0.02647 0.317617,0.105869 z m 2.567367,0.158806 q -0.02641,0 -0.132338,-0.158806 v -0.02647 h 0.02641 q 0.105876,0.05294 0.105876,0.185272 z m -3.308454,0.02647 -0.158801,-0.02647 v -0.05293 l 0.158801,0.02647 z m -3.811345,0.185273 h -0.105876 q 0,-0.07939 0.07941,-0.07939 0.07943,0.02647 0.07943,0.05294 z m 4.578908,0.0794 -0.02641,-0.105872 h 0.07943 q 0,0.105872 -0.05293,0.105872 z m -4.049548,0.05294 q -0.105876,0 -0.105876,-0.05294 l 0.105876,-0.02647 q 0.05293,0.02647 0.05293,0.05294 z m 4.340688,0.105873 q -0.05293,-0.02647 -0.05293,-0.105873 h 0.05293 q 0.05293,0.02647 0.05293,0.05294 0,0.05293 -0.05293,0.05293 z m 0.211778,0.158805 q -0.05293,0 -0.07943,-0.10587 0,-0.05294 0.05293,-0.05294 0.07943,0.02647 0.07943,0.07939 0,0.07939 -0.05293,0.07939 z m 0.714628,0.344081 h -0.05293 q 0,-0.05294 -0.158799,-0.291145 v -0.05294 q 0.07943,0 0.211776,0.344078 z m 0.688159,0.264675 h -0.05293 q -0.05293,-0.211742 -0.05293,-0.291143 0.05293,-0.05294 0.05293,-0.291146 0.05293,0 0.132339,0.291146 l -0.105874,0.105873 z m -0.344098,-0.0794 q -0.105874,0 -0.238213,-0.344079 l 0.05293,-0.02647 q 0.185264,0.26468 0.185264,0.370546 z m -10.295922,-0.02647 -0.02647,-0.05294 0.07939,-0.05294 0.02647,0.05294 z m 9.766565,0.238212 h -0.05293 l -0.02641,-0.158807 h 0.05293 z m 0.238214,1.34985 q -0.02641,-0.02647 -0.105875,-0.02647 0,-0.07939 0.05293,-0.158806 -0.07941,-0.10587 -0.07941,-0.317611 l 0.02641,-0.158805 h 0.07941 l 0.02641,0.185272 0.105876,-0.02647 q 0,0.07939 -0.07941,0.158807 0.02641,0 0.02641,0.02647 l -0.05293,0.02647 q 0,-0.02647 -0.02641,-0.02647 v 0.05294 q 0.07941,0 0.132338,0.105869 -0.05293,0 -0.105876,0.158806 z m 1.746864,0.370548 q -0.105877,0 -0.105877,-0.05294 0,-0.185273 0.211779,-0.397016 h 0.02641 q 0,0.449952 -0.132339,0.449952 z M 43.685007,25.25665 q -0.07941,0 -0.132338,-0.07939 0.05293,-0.105871 0.07943,-0.105871 l 0.05293,0.07939 q 0,0.02647 -0.02641,0.02647 z m -8.284396,0.158806 q -0.105871,0 -0.105871,-0.07939 h 0.05293 q 0.05294,0.02647 0.05294,0.07939 z m 9.872439,0.264677 q -0.185262,0 -0.211776,-0.07939 0,-0.05294 0.105875,-0.105871 0.05293,0 0.105876,0.07939 z m -0.238213,0.608757 -0.02641,-0.07939 0.05293,-0.291145 -0.02641,-0.211743 h 0.05293 q 0.105875,0 0.105875,0.132339 -0.05293,0.397014 -0.1588,0.449951 z m -0.344099,1.191048 h -0.05293 l 0.02641,-0.105871 -0.02641,-0.264676 q 0,-0.07939 0.132337,-0.344079 l 0.07943,0.02647 v -0.07939 q -0.07943,0 -0.07943,-0.105871 0.07943,0 0.132341,-0.185274 0.105874,-0.05294 0.185261,-0.05294 l 0.02641,0.07939 -0.05293,0.132339 h -0.05293 q -0.05293,-0.05294 -0.105875,-0.05294 0.05293,0.07939 0.05293,0.158808 -0.105874,0.211739 -0.185264,0.608756 -0.05293,0 -0.07941,0.185274 z m -9.713611,-0.211737 q -0.158806,0 -0.211741,-0.158806 0.07939,-0.264677 0.158805,-0.264677 0.05293,0 0.05293,0.07939 l -0.05293,0.132338 q 0.185273,0 0.185273,0.05294 0,0.05294 -0.132337,0.158806 z m 7.331543,0.07939 q 0,-0.105872 0.132339,-0.158804 0.02641,0 0.07943,0.07939 0,0.05294 -0.211778,0.07939 z m -0.132338,0.185275 q 0,-0.07939 0.05293,-0.07939 l 0.02641,0.05294 z m 2.249751,0.132337 0.02641,-0.105869 q -0.105875,0 -0.105875,0.05293 v 0.05294 z m -3.387864,1.455723 h -0.05293 q 0,-0.132338 0.05293,-0.132338 0.05293,0 0.05293,0.05294 0,0.07939 -0.05293,0.07939 z m 2.143886,0.397015 q 0,-0.105872 0.105876,-0.132339 v -0.02647 h -0.07941 q -0.05293,0.07939 -0.05293,0.132339 0,0.02647 0.02641,0.02647 z m 0.05293,0.158805 q 0,-0.10587 0.05293,-0.10587 l 0.02641,0.05294 q -0.05293,0.05294 -0.07941,0.05294 z m -6.087581,1.243987 h -0.07937 v -0.05294 h 0.07937 z m 4.97592,0.185273 -0.105876,-0.02647 v -0.05293 h 0.05293 q 0.05293,0.02646 0.05293,0.0794 z m 0.979303,0.07939 q 0,-0.07939 0.105875,-0.158805 0.05293,0.02647 0.05293,0.05294 0,0.105872 -0.1588,0.105872 z m 0.132339,0.105872 q -0.05293,0 -0.05293,-0.105872 h 0.07943 q 0.05293,0.02646 0.05293,0.05294 -0.05293,0.05293 -0.07943,0.05294 z m 0.926367,0.423481 q -0.105876,0 -0.370548,-0.132339 l -0.105876,0.02646 q 0,-0.185272 -0.05293,-0.185272 l 0.02641,0.05294 -0.05293,0.02647 -0.05293,-0.07939 0.02641,-0.07939 q -0.185263,-0.05294 -0.185263,-0.105872 0.02641,-0.05294 0.05293,-0.05294 0.767563,0.317612 0.767563,0.449951 0,0.05294 -0.05293,0.07939 z m -1.588047,-0.397014 h -0.02641 q 0,-0.05294 0.05293,-0.07939 h 0.02641 q 0,0.07939 -0.05293,0.07939 z m 0.370549,0.238211 q -0.05293,0 -0.05293,-0.05294 l 0.07941,-0.05293 q 0.05293,0 0.05293,0.05293 z m 1.508658,0.370548 q -0.264677,-0.07939 -0.264677,-0.158805 0,-0.05294 0.07943,-0.07939 h 0.05293 q 0.13234,0.05294 0.185263,0.185272 0,0.05294 -0.05293,0.05294 z m -0.794025,-0.02647 q -0.07941,0 -0.07941,-0.05294 l 0.05293,-0.02647 z m 0.238215,0.211739 -0.132337,-0.158805 v -0.05294 h 0.05293 q 0.132337,0.07939 0.132337,0.185272 z m 0.423487,-0.05293 h -0.132338 v -0.05293 h 0.07943 q 0.05293,0 0.05293,0.05293 z m 0.37055,0.132339 q -0.105876,0 -0.105876,-0.05294 0.07943,-0.05293 0.158802,-0.05293 h 0.02641 q 0,0.05293 -0.07943,0.105874 z m 0.264676,0.211741 -0.211776,-0.211741 0.105874,-0.07939 h 0.05293 q 0,0.158806 0.105876,0.264676 z m -3.414313,-0.02647 q -0.1588,0 -0.185262,-0.105873 l 0.07943,-0.02646 q 0.02641,0 0.105876,0.105872 z m 2.805571,0.05294 q -0.10588,-0.02647 -0.158805,-0.132339 l 0.05293,-0.02647 q 0.158801,0.05294 0.158801,0.105872 0,0.05294 -0.05293,0.05294 z m -3.493736,-0.02647 q -0.07943,0 -0.07943,-0.05294 h 0.07943 z m 2.5409,0.05293 -0.02641,-0.05293 0.07943,-0.02647 q 0,0.07939 -0.05293,0.07939 z m 1.720395,0.105871 q -0.05293,0 -0.105875,-0.07939 0.02641,-0.05294 0.07941,-0.05294 0.05293,0 0.105877,0.07939 0,0.05294 -0.07943,0.05294 z m -1.402784,0 q -0.158801,0 -0.185263,-0.105871 h 0.132338 q 0.05293,0.02647 0.05293,0.105871 z m -1.058707,0.07941 q -0.07943,0 -0.07943,-0.05293 l 0.05293,-0.02647 z m 1.905668,0 h -0.07941 q 0,-0.05293 0.05293,-0.07939 h 0.02641 z m -1.005769,0.158807 q -0.07941,0 -0.07941,-0.07939 0,-0.07939 0.132338,-0.105871 l 0.02641,0.05294 q 0,0.132338 -0.07943,0.132338 z m 1.746865,0.05293 q -0.07943,-0.02647 -0.07943,-0.238208 h 0.05293 q 0.07943,0.02647 0.07943,0.185271 0,0.05293 -0.05293,0.05294 z M 41.805805,32.74699 q -0.105874,0 -0.105874,-0.05294 l 0.02641,-0.05293 q 0.132337,0.05293 0.132337,0.07939 z m 2.964378,0.185273 q -0.05293,0 -0.158799,-0.211744 v -0.05295 h 0.02641 q 0.05293,0 0.185264,0.211741 0,0.05293 -0.05293,0.05293 z m -2.752635,-0.105866 q -0.07943,0 -0.07943,-0.07939 l 0.05293,-0.02646 z m -1.985075,0.02647 q -0.07943,0 -0.07943,-0.05294 l 0.05293,-0.05293 z m 3.043782,0.158804 q -0.238215,-0.07939 -0.238215,-0.105873 0,-0.07939 0.07943,-0.105874 l 0.211778,0.105874 v -0.05293 h 0.05293 v 0.07939 q 0,0.07939 -0.105877,0.07939 z m 0.370545,-0.07939 -0.02641,-0.05293 0.05293,-0.02647 0.02641,0.05293 z m -0.317616,0.105872 q 0,-0.05294 0.07941,-0.07939 l 0.02641,0.05293 z m 0.55582,0.370547 -0.397012,-0.264677 0.02641,-0.05294 h -0.07943 q 0,-0.05293 0.105874,-0.07939 0.05293,0 0.05293,0.05294 l -0.02641,0.07939 q 0.105877,0 0.185263,0.07939 l 0.02641,-0.158806 q -0.05293,0 -0.05293,-0.05294 0.02641,-0.05293 0.05293,-0.05293 h 0.02641 q 0.185261,0.07939 0.185261,0.13234 0,0.05294 -0.211776,0.158806 0.105875,0.02647 0.105875,0.07939 z m -3.943679,-0.158807 h -0.02642 q -0.07943,-0.132336 -0.238212,-0.132336 v -0.07939 q 0.158801,0 0.264678,0.158805 z m 5.74348,-0.07939 q -0.05293,0 -0.05293,-0.07939 0,-0.05294 0.05293,-0.05294 0.05293,0 0.05293,0.05294 0,0.07939 -0.05293,0.07939 z m -6.563984,0.423485 q -0.02641,0 -0.07943,-0.07939 l 0.105875,-0.105872 -0.05293,-0.132337 0.05293,-0.02647 0.05293,0.02647 q 0,-0.07939 0.05293,-0.07939 h 0.05293 l -0.02641,0.105874 q 0.05293,0 0.05293,0.05293 -0.158801,0.02647 -0.158801,0.211743 z m -2.487969,-0.238212 v -0.105872 h -0.02641 v 0.105872 z m 8.628458,-0.02647 q -0.05293,0 -0.05293,-0.05293 l 0.05293,-0.02647 q 0.05293,0 0.05293,0.05294 z m 0.635224,0.07939 q -0.07941,0 -0.07941,-0.07939 0,-0.07939 0.05293,-0.07939 l 0.05293,0.02647 q -0.02641,0.05294 -0.02641,0.132339 z m -6.272835,0 q -0.05293,0 -0.105877,-0.07939 v -0.02647 h 0.158801 q 0,0.105871 -0.05293,0.105871 z m -0.873434,0.132339 -0.07943,-0.132339 0.05293,-0.02647 0.07943,0.132339 z m 6.696318,0.02647 q -0.132338,0 -0.132338,-0.05293 l 0.132338,-0.02647 z m 0.502889,0.158805 q -0.05293,0 -0.05293,-0.05293 0.02641,-0.158805 0.07943,-0.158805 h 0.02641 l -0.02641,0.07939 0.02641,0.105874 z m -7.040402,-0.0794 q -0.05293,0 -0.05293,-0.07939 h 0.05293 z m 5.611149,0.344079 q -0.211765,-0.264661 -0.211765,-0.344062 l 0.05293,-0.02647 q 0.211775,0.132337 0.211775,0.344079 z m -0.02641,0.291144 q -0.07943,0 -0.317621,-0.31761 0.05293,0 0.05293,-0.05293 -0.105875,0 -0.211778,-0.185276 -0.02641,-0.07939 0.05293,-0.07939 h 0.02641 q 0.132341,0.158806 0.185266,0.158806 0.211776,0.264678 0.211776,0.476417 z m 0.8999,-0.370549 -0.07943,-0.07939 q 0.02641,-0.05294 0.07943,-0.05294 0.02641,0 0.07941,0.07939 z m 0.476416,0.02647 h -0.05293 v -0.07939 h 0.05293 z m -2.011544,0.02647 q -0.07943,0 -0.07943,-0.07939 h 0.02641 q 0.05293,0.02647 0.05293,0.07939 z m 0.211776,0.370549 q -0.05293,0 -0.05293,-0.07939 h 0.05293 z m 0.211777,0.714625 h -0.05293 v -0.158805 h 0.05293 z m -0.238213,0.317612 h -0.05293 v -0.132337 h 0.05293 z m 0.317616,0.07939 h -0.05293 v -0.105846 h 0.05293 z m 0.05293,0.397016 q -0.07943,0 -0.07943,-0.05294 v -0.238213 h 0.07943 z m -0.423481,0.211742 -0.02641,-0.05294 0.05293,-0.02647 h 0.02641 q 0,0.07939 -0.05293,0.0794 z m -0.02641,0.185265 -0.05293,-0.05293 0.105877,-0.02646 q 0,0.07938 -0.05293,0.07941 z m 0.07943,0.132337 h -0.132328 q 0,-0.07938 0.07941,-0.07938 h 0.05293 z m 0.238214,0.370552 h -0.05293 q 0.02641,-0.185266 0.07944,-0.185266 h 0.02641 q -0.05293,0.13234 -0.05293,0.185262 z m 1.641226,-0.105875 q 0,-0.07941 0.05293,-0.07941 l 0.02641,0.05293 z m -1.455728,0.291149 H 44.2148 v -0.158801 q 0,-0.05293 0.05293,-0.05293 h 0.02641 z m 0.264677,0.185263 h -0.05293 q 0,-0.211751 0.211776,-0.264676 0,-0.02641 0.07943,-0.07941 h 0.02641 q 0,0.238213 -0.238213,0.238213 z M 43.68543,36.928886 H 43.6325 q 0,-0.105875 0.05293,-0.105875 z m -0.344104,1.058706 q -0.105875,-0.02641 -0.105875,-0.07941 l 0.105875,-0.05293 q 0,-0.291149 0.132339,-0.397013 h 0.05293 l -0.02641,0.158801 0.105877,-0.02641 v 0.05293 q -0.07943,0.105875 -0.185263,0.105875 0.07941,0.07941 0.07941,0.158801 -0.07941,0 -0.158801,0.07941 z m 0.132339,0.185263 q -0.05293,0 -0.105877,-0.07941 0,-0.05293 0.07941,-0.105875 0.05293,0.02641 0.05293,0.05293 z m -0.608758,0.820501 q -0.105876,0 -0.132339,-0.07941 v -0.1588 q 0,-0.05293 0.07943,-0.07943 l -0.02641,-0.05293 q 0.105875,-0.291147 0.185264,-0.317615 l 0.158799,0.02641 q 0.02641,0 0.02641,-0.02641 -0.07943,0 -0.07943,-0.07941 l 0.317618,-0.05293 q 0.05293,0.02641 0.05293,0.07941 l -0.185264,-0.02641 0.02641,0.05293 -0.02641,0.05293 q 0.02641,0.05293 0.02641,0.132337 -0.185263,0.105876 -0.238214,0.370553 z m 2.170081,-0.37054 q -0.105877,-0.02641 -0.105877,-0.105874 0,-0.105876 0.370548,-0.291148 v 0.02641 q -0.05293,0.211751 -0.264677,0.370549 z m -0.07943,0.158802 q -0.07941,0 -0.1588,-0.105876 l 0.07941,-0.05293 h 0.07943 q 0.05293,0 0.05293,0.07943 0,0.07943 -0.05293,0.07943 z m -0.344085,0.529356 -0.02641,-0.07941 q 0.1588,-0.211779 0.185263,-0.449951 0.07941,0 0.105876,0.07943 -0.158801,0.423482 -0.264676,0.449949 z m -0.846966,1.270448 v -0.02641 l 0.238212,-0.582284 q 0.07943,-0.02641 0.158801,-0.158802 l 0.05293,0.02641 q 0.05293,0 0.05293,-0.105874 -0.07943,0 -0.07943,-0.05293 0.238214,-0.291144 0.44995,-0.291144 l 0.02641,0.05293 q -0.105876,0.185263 -0.211779,0.185263 0,-0.07943 -0.05293,-0.07943 0,0.264676 -0.211776,0.423482 0,0.132339 -0.423483,0.608756 z m -2.408693,-0.582277 v -0.02641 q 0.05293,-0.105875 0.158801,-0.105875 l 0.05293,0.105875 z m -0.158802,0.158801 -0.02641,-0.05293 0.05293,-0.02641 h 0.02641 q 0,0.07943 -0.05293,0.07943 z m -1.7998,1.164574 q -0.07943,0 -0.07943,-0.05293 0,-0.05293 0.105876,-0.105874 0.05293,0.02641 0.05293,0.07941 0,0.02641 -0.07943,0.07943 z m 2.143875,0.979308 q 0,-0.05293 -0.07943,-0.05293 0,0.05293 0.07943,0.05293 z m -0.158801,0.264676 h -0.02641 q 0,-0.05293 0.05293,-0.07941 h 0.02641 q 0,0.07941 -0.05293,0.07941 z M 33.7596,43.175256 h -0.02647 l 0.02647,-0.1588 h 0.05294 q 0,0.1588 -0.05294,0.1588 z m 0.02647,0.185264 h -0.05293 v -0.07941 h 0.05293 z m 0.661692,0.211778 h -0.02647 q -0.132339,-0.07943 -0.185274,-0.07943 -0.132339,0.07943 -0.211742,0.07943 l -0.02647,-0.05293 v -0.10588 l 0.105874,0.05293 q 0,-0.05293 0.05293,-0.05293 l 0.02647,0.02641 0.132338,-0.105876 h 0.05294 v 0.07943 l 0.132339,-0.02641 q 0.05293,0.05293 0.05293,0.105877 h -0.10587 z m 0.661689,0.449951 -0.02646,-0.105875 0.05293,-0.105876 q -0.02647,0 -0.10587,-0.105877 l 0.05293,-0.02641 q 0.105869,0.05293 0.105869,0.211779 0,0.07941 -0.07939,0.132336 z m -0.370554,-0.132342 q -0.105874,-0.02641 -0.105874,-0.07943 v -0.105875 h 0.02647 q 0.158806,0.105875 0.158806,0.132339 0,0.05293 -0.0794,0.05293 z m 1.085172,0.05293 -0.02647,-0.05293 q 0,-0.05293 0.05294,-0.05293 l 0.02647,0.05293 q 0,0.05293 -0.05293,0.05293 z"
       id="text1"
       style="font-size:29.0909px;font-family:'Dark SIlence';-inkscape-font-specification:'Dark SIlence';fill:#dfdfdf;fill-opacity:1;stroke-width:0.413556;stroke-opacity:0.6"
       aria-label="33" />
    <circle
       style="fill:#414141;fill-opacity:1;stroke:#dfdfdf;stroke-width:1.08705;stroke-dasharray:none;stroke-opacity:1"
       id="path1-6"
       cx="48.320271"
       cy="48.287033"
       r="12.17483" />
    <path
       id="path1-3"
       style="fill:#dfdfdf;fill-opacity:1;stroke:none;stroke-width:0.20182;stroke-dasharray:none;stroke-dashoffset:2.2;stroke-opacity:0.6"
       d="m 51.761355,43.058253 c -0.20805,-8.7e-5 -0.430751,0.08369 -0.709468,0.246992 -0.663244,0.38861 -1.530643,0.57188 -2.721813,0.57188 -1.191057,0 -2.087392,-0.187174 -2.746686,-0.573538 -0.528668,-0.309806 -0.844291,-0.313912 -1.287974,-0.01478 -1.13908,0.767625 -1.997557,3.228765 -2.249396,6.444848 -0.151015,1.928547 -0.0099,2.945286 0.488995,3.517478 0.240643,0.275876 0.831407,0.229104 1.364229,-0.109404 0.451661,-0.286952 0.989814,-0.920136 1.632759,-1.921198 0.580993,-0.90461 1.283736,-1.202549 2.837856,-1.205094 1.551025,-0.0023 2.160562,0.291041 2.875977,1.390747 1.200302,1.845038 2.309754,2.487372 2.960519,1.713978 0.360522,-0.428447 0.426509,-0.842406 0.409431,-2.565996 -0.03111,-3.131006 -0.849546,-5.979338 -2.02893,-7.066455 -0.314103,-0.289533 -0.557986,-0.429217 -0.825499,-0.42933 z m -6.738245,1.844933 h 0.719412 0.719406 v 0.616637 0.61664 h 0.61664 0.616633 v 0.770797 0.770791 h -0.616633 -0.61664 v 0.668023 0.668026 h -0.651444 c -0.357887,0 -0.68008,-0.03211 -0.717752,-0.06961 -0.03766,-0.03766 -0.06959,-0.336727 -0.06959,-0.666363 v -0.60007 h -0.616645 -0.616641 v -0.770793 -0.770795 h 0.616641 0.616634 v -0.616642 z m 5.86468,0 c 0.649001,0 0.926941,0.71908 0.459164,1.186861 -0.29749,0.297457 -0.568995,0.320837 -0.861967,0.07295 -0.508167,-0.429995 -0.242935,-1.259794 0.402803,-1.259794 z M 49.639599,46.221 c 0.162065,1.09e-4 0.325226,0.06468 0.454185,0.207182 0.201035,0.222143 0.222754,0.730724 0.04146,0.968054 -0.354805,0.464484 -1.20675,0.165717 -1.20675,-0.422693 0,-0.446577 0.354591,-0.752808 0.711121,-0.75256 z m 2.54777,0.02495 c 0.186795,0.0035 0.368135,0.06527 0.474076,0.18233 0.201035,0.222143 0.222724,0.730722 0.04144,0.968055 -0.377384,0.494038 -1.206751,0.163367 -1.206751,-0.480712 0,-0.195235 0.07823,-0.406835 0.18729,-0.505575 0.124687,-0.112856 0.317151,-0.167515 0.503922,-0.164093 z m -1.254823,1.329411 c 0.575374,0 0.855333,0.610306 0.507229,1.107293 -0.119001,0.169891 -0.264129,0.228754 -0.563593,0.228754 -0.344776,0 -0.424785,-0.04487 -0.563588,-0.313304 -0.273699,-0.529262 0.02495,-1.022754 0.619952,-1.022754 z" />
  </g>
</svg>
