<?xml version="1.0" encoding="UTF-8" standalone="no"?>
<svg
   width="64"
   height="64"
   version="1.1"
   id="svg73"
   sodipodi:docname="fr.handbrake.ghb.svg"
   inkscape:version="1.4.2 (ebf0e940d0, 2025-05-08)"
   xmlns:inkscape="http://www.inkscape.org/namespaces/inkscape"
   xmlns:sodipodi="http://sodipodi.sourceforge.net/DTD/sodipodi-0.dtd"
   xmlns="http://www.w3.org/2000/svg"
   xmlns:svg="http://www.w3.org/2000/svg"
   xmlns:rdf="http://www.w3.org/1999/02/22-rdf-syntax-ns#"
   xmlns:cc="http://creativecommons.org/ns#"
   xmlns:dc="http://purl.org/dc/elements/1.1/">
  <metadata
     id="metadata77">
    <rdf:RDF>
      <cc:Work
         rdf:about="">
        <dc:format>image/svg+xml</dc:format>
        <dc:type
           rdf:resource="http://purl.org/dc/dcmitype/StillImage" />
      </cc:Work>
    </rdf:RDF>
  </metadata>
  <sodipodi:namedview
     pagecolor="#f5f7fa"
     bordercolor="#666666"
     borderopacity="1"
     objecttolerance="10"
     gridtolerance="10"
     guidetolerance="10"
     inkscape:pageopacity="0"
     inkscape:pageshadow="2"
     inkscape:window-width="1377"
     inkscape:window-height="886"
     id="namedview75"
     showgrid="false"
     inkscape:zoom="6.2890625"
     inkscape:cx="48.099379"
     inkscape:cy="45.396273"
     inkscape:window-x="0"
     inkscape:window-y="47"
     inkscape:window-maximized="0"
     inkscape:current-layer="g877"
     inkscape:document-rotation="0"
     inkscape:pagecheckerboard="0"
     inkscape:showpageshadow="2"
     inkscape:deskcolor="#d1d1d1" />
  <defs
     id="defs29" />
  <circle
     cx="32.516094"
     cy="31.877844"
     r="0"
     fill="url(#b)"
     stroke-width="1.5715"
     id="circle41"
     style="fill:url(#b)" />
  <g
     aria-label="GZ"
     transform="matrix(1.2212657,0,0,0.81882264,0.4960938,-0.1661539)"
     id="text93"
     style="font-weight:bold;font-size:11.5263px;line-height:1.25;font-family:sans-serif;-inkscape-font-specification:'sans-serif Bold';fill:#f2f2f2;stroke-width:0.288159" />
  <g
     id="g877"
     transform="matrix(1.1,0,0,1.1,-3.1845928,-3.2065454)">
    <circle
       style="opacity:1;fill:#414141;stroke:#dfdfdf;stroke-width:2.27272727;stroke-dasharray:none;fill-opacity:1;stroke-opacity:1"
       id="path1"
       cx="31.985994"
       cy="32.005951"
       r="25.454546" />
    <path
       style="fill:#dfdfdf;fill-opacity:1;stroke:none;stroke-width:0.386697;stroke-dasharray:none;stroke-opacity:0.6"
       d="m 32.780358,43.17484 c -0.384057,-0.465153 -0.42592,-0.738954 -0.128327,-0.839234 1.370959,-0.461994 1.774065,-1.12971 1.398283,-2.316171 -0.207614,-0.655514 -0.781435,-3.480091 -1.275151,-6.27684 -0.843966,-4.780776 -0.968554,-5.129879 -2.082421,-5.835128 -1.115745,-0.706442 -1.139758,-0.774215 -0.412233,-1.163574 0.956626,-0.51197 6.484405,-1.918823 8.911107,-2.267933 3.570174,-0.513609 5.290783,2.484217 2.783863,4.850346 -1.384366,1.30662 -1.510655,1.736757 -0.426682,1.453294 1.007196,-0.263387 3.03434,0.95344 3.578697,2.148177 0.236465,0.518947 0.544246,1.658557 0.68399,2.532468 0.231018,1.444599 0.131664,1.70134 -1.093453,2.826384 -0.741144,0.680592 -3.32049,2.127252 -5.731883,3.214795 -5.554017,2.504875 -5.525623,2.497216 -6.20579,1.673416 z m 8.456027,-4.983136 c 2.095629,-1.056987 2.731981,-1.836298 2.731981,-3.34575 0,-2.834048 -0.400701,-3.003734 -4.601373,-1.948559 -2.720626,0.683399 -2.772136,0.75191 -2.210903,2.940874 0.19671,0.76726 0.470735,1.898449 0.608922,2.513755 0.279633,1.245075 0.725828,1.224469 3.471373,-0.160341 z M 38.639062,29.45713 c 1.164244,-0.879016 2.307855,-1.955175 2.54135,-2.391465 0.379782,-0.709634 0.29908,-0.793256 -0.7656,-0.793256 -0.654573,0 -2.108229,0.196897 -3.230333,0.437543 -1.650912,0.354059 -1.990415,0.5632 -1.779308,1.09609 0.143491,0.362198 0.358779,1.241465 0.478419,1.953922 0.119635,0.712456 0.312284,1.295375 0.428095,1.295375 0.115811,0 1.163132,-0.719195 2.327377,-1.598209 z M 26.954015,39.738291 c -0.410201,-0.532125 -2.536918,-9.949049 -2.523551,-11.174062 0.0098,-0.891543 -0.348279,-0.86906 -1.586699,0.09964 -1.393043,1.089655 -4.782929,0.965414 -4.782929,-0.175296 0,-1.366929 7.162061,-5.817237 12.250379,-7.612047 1.983035,-0.69948 2.157736,-0.702133 3.518066,-0.05344 0.787278,0.375426 1.365783,0.879478 1.28557,1.120121 -0.08021,0.240638 -1.556109,0.95168 -3.279765,1.580091 -1.723655,0.628413 -3.556034,1.419147 -4.071949,1.757186 -0.858709,0.562649 -0.889378,0.689555 -0.362663,1.50078 0.852281,1.312652 3.673916,12.517976 3.257129,12.934759 -0.500516,0.500515 -3.321844,0.517475 -3.703588,0.02215 z"
       id="path1-9" />
    <circle
       style="fill:#414141;fill-opacity:1;stroke:#dfdfdf;stroke-width:1.08705;stroke-dasharray:none;stroke-opacity:1"
       id="path1-6"
       cx="48.320271"
       cy="48.287033"
       r="12.17483" />
    <path
       id="path1-3"
       style="fill:#dfdfdf;fill-opacity:1;stroke:none;stroke-width:0.20182;stroke-dasharray:none;stroke-dashoffset:2.2;stroke-opacity:0.6"
       d="m 51.761355,43.058253 c -0.20805,-8.7e-5 -0.430751,0.08369 -0.709468,0.246992 -0.663244,0.38861 -1.530643,0.57188 -2.721813,0.57188 -1.191057,0 -2.087392,-0.187174 -2.746686,-0.573538 -0.528668,-0.309806 -0.844291,-0.313912 -1.287974,-0.01478 -1.13908,0.767625 -1.997557,3.228765 -2.249396,6.444848 -0.151015,1.928547 -0.0099,2.945286 0.488995,3.517478 0.240643,0.275876 0.831407,0.229104 1.364229,-0.109404 0.451661,-0.286952 0.989814,-0.920136 1.632759,-1.921198 0.580993,-0.90461 1.283736,-1.202549 2.837856,-1.205094 1.551025,-0.0023 2.160562,0.291041 2.875977,1.390747 1.200302,1.845038 2.309754,2.487372 2.960519,1.713978 0.360522,-0.428447 0.426509,-0.842406 0.409431,-2.565996 -0.03111,-3.131006 -0.849546,-5.979338 -2.02893,-7.066455 -0.314103,-0.289533 -0.557986,-0.429217 -0.825499,-0.42933 z m -6.738245,1.844933 h 0.719412 0.719406 v 0.616637 0.61664 h 0.61664 0.616633 v 0.770797 0.770791 h -0.616633 -0.61664 v 0.668023 0.668026 h -0.651444 c -0.357887,0 -0.68008,-0.03211 -0.717752,-0.06961 -0.03766,-0.03766 -0.06959,-0.336727 -0.06959,-0.666363 v -0.60007 h -0.616645 -0.616641 v -0.770793 -0.770795 h 0.616641 0.616634 v -0.616642 z m 5.86468,0 c 0.649001,0 0.926941,0.71908 0.459164,1.186861 -0.29749,0.297457 -0.568995,0.320837 -0.861967,0.07295 -0.508167,-0.429995 -0.242935,-1.259794 0.402803,-1.259794 z M 49.639599,46.221 c 0.162065,1.09e-4 0.325226,0.06468 0.454185,0.207182 0.201035,0.222143 0.222754,0.730724 0.04146,0.968054 -0.354805,0.464484 -1.20675,0.165717 -1.20675,-0.422693 0,-0.446577 0.354591,-0.752808 0.711121,-0.75256 z m 2.54777,0.02495 c 0.186795,0.0035 0.368135,0.06527 0.474076,0.18233 0.201035,0.222143 0.222724,0.730722 0.04144,0.968055 -0.377384,0.494038 -1.206751,0.163367 -1.206751,-0.480712 0,-0.195235 0.07823,-0.406835 0.18729,-0.505575 0.124687,-0.112856 0.317151,-0.167515 0.503922,-0.164093 z m -1.254823,1.329411 c 0.575374,0 0.855333,0.610306 0.507229,1.107293 -0.119001,0.169891 -0.264129,0.228754 -0.563593,0.228754 -0.344776,0 -0.424785,-0.04487 -0.563588,-0.313304 -0.273699,-0.529262 0.02495,-1.022754 0.619952,-1.022754 z" />
  </g>
</svg>
