<?xml version="1.0" encoding="UTF-8" standalone="no"?>
<svg
   width="64"
   height="64"
   version="1.1"
   id="svg73"
   sodipodi:docname="fr.handbrake.ghb.svg"
   inkscape:version="1.4.2 (ebf0e940d0, 2025-05-08)"
   xmlns:inkscape="http://www.inkscape.org/namespaces/inkscape"
   xmlns:sodipodi="http://sodipodi.sourceforge.net/DTD/sodipodi-0.dtd"
   xmlns="http://www.w3.org/2000/svg"
   xmlns:svg="http://www.w3.org/2000/svg"
   xmlns:rdf="http://www.w3.org/1999/02/22-rdf-syntax-ns#"
   xmlns:cc="http://creativecommons.org/ns#"
   xmlns:dc="http://purl.org/dc/elements/1.1/">
  <metadata
     id="metadata77">
    <rdf:RDF>
      <cc:Work
         rdf:about="">
        <dc:format>image/svg+xml</dc:format>
        <dc:type
           rdf:resource="http://purl.org/dc/dcmitype/StillImage" />
      </cc:Work>
    </rdf:RDF>
  </metadata>
  <sodipodi:namedview
     pagecolor="#f5f7fa"
     bordercolor="#666666"
     borderopacity="1"
     objecttolerance="10"
     gridtolerance="10"
     guidetolerance="10"
     inkscape:pageopacity="0"
     inkscape:pageshadow="2"
     inkscape:window-width="1377"
     inkscape:window-height="886"
     id="namedview75"
     showgrid="false"
     inkscape:zoom="6.2890625"
     inkscape:cx="48.099379"
     inkscape:cy="45.396273"
     inkscape:window-x="0"
     inkscape:window-y="47"
     inkscape:window-maximized="0"
     inkscape:current-layer="g877"
     inkscape:document-rotation="0"
     inkscape:pagecheckerboard="0"
     inkscape:showpageshadow="2"
     inkscape:deskcolor="#d1d1d1" />
  <defs
     id="defs29" />
  <circle
     cx="32.516094"
     cy="31.877844"
     r="0"
     fill="url(#b)"
     stroke-width="1.5715"
     id="circle41"
     style="fill:url(#b)" />
  <g
     aria-label="GZ"
     transform="matrix(1.2212657,0,0,0.81882264,0.4960938,-0.1661539)"
     id="text93"
     style="font-weight:bold;font-size:11.5263px;line-height:1.25;font-family:sans-serif;-inkscape-font-specification:'sans-serif Bold';fill:#f2f2f2;stroke-width:0.288159" />
  <g
     id="g877"
     transform="matrix(1.1,0,0,1.1,-3.1845928,-3.2065454)">
    <circle
       style="opacity:1;fill:#414141;stroke:#dfdfdf;stroke-width:2.27272727;stroke-dasharray:none;fill-opacity:1;stroke-opacity:1"
       id="path1"
       cx="31.985994"
       cy="32.005951"
       r="25.454546" />
    <path
       fill="#000000"
       d="m 27.067907,23.477389 c -0.107089,-0.823954 -1.60375,-1.731214 -2.338254,-1.731214 -0.144533,0 -0.259477,0.03483 -0.328499,0.112326 -1.241051,1.387578 0.809445,4.624045 0.809445,4.624045 0,0 2.03405,-1.637951 1.857308,-3.005157 z m 7.330916,3.443992 c 0,0 1.952623,-3.083342 0.770692,-4.402008 -0.06573,-0.07352 -0.175429,-0.10698 -0.312736,-0.10698 -0.700361,0 -2.125439,0.863957 -2.227294,1.649047 -0.168833,1.296248 1.769338,2.859941 1.769338,2.859941 z m -3.057052,-2.865176 c -0.101855,-0.785145 -1.527558,-1.649044 -2.227178,-1.649044 -0.137362,0 -0.247133,0.03345 -0.312796,0.106975 -1.182556,1.321284 0.770692,4.40201 0.770692,4.40201 0,0 1.938113,-1.5584 1.76934,-2.859941 z M 20.726535,20.790208 a 0.94151547,0.94151547 0 0 0 -0.09469,0.0046 c -4.993231,0.50854 0.647156,16.277416 2.307413,17.326022 0,0 -0.966439,-8.628528 0.159043,-13.897737 0.411862,-1.940781 -1.366011,-3.432833 -2.371883,-3.432833 z m 22.612871,0.0046 a 0.93690639,0.9369063 0 0 0 -0.09463,-0.0046 c -1.005934,0 -2.786424,1.49074 -2.371829,3.432837 1.125424,5.269208 0.158981,13.897737 0.158981,13.897737 1.662871,-1.047925 7.301324,-16.816799 2.307407,-17.325965 z m -4.097748,0.951377 c -0.735187,0 -2.233893,0.907317 -2.338366,1.731215 -0.176743,1.363964 1.857992,3.005783 1.857992,3.005783 0,0 2.04987,-3.237092 0.809443,-4.623931 -0.06964,-0.07821 -0.184586,-0.113039 -0.329128,-0.113039 z m -8.4387,19.857953 c -0.115624,-0.646989 -1.4566,-2.011693 -1.4566,-2.011693 0,0 -1.168786,1.363962 -1.156268,1.919169 0,0.122149 -0.06573,1.313998 0.115513,1.479473 0.163654,0.150507 0.730634,0.230043 1.287145,0.230043 0.538755,0 1.066929,-0.07425 1.21021,-0.230013 0.131446,-0.140518 0.01905,-1.29357 0,-1.386889 z m -3.41645,-1.385588 c -0.686534,-1.17732 -1.089975,-2.902614 -1.314002,-4.195621 -0.176058,-1.022319 -0.238422,-1.773892 -0.238422,-1.773892 -0.860772,0.672023 -2.520345,7.834105 0.144531,7.834105 a 1.7082253,1.7082253 0 0 0 0.281783,-0.02443 c 0.262892,-0.04335 0.595205,-0.244393 0.854113,-0.525551 0.337719,-0.365887 0.538073,-0.863222 0.271995,-1.314633 z M 38.13262,34.247712 c 0,0 -0.05724,0.684542 -0.214921,1.635275 -0.216809,1.306775 -0.624796,3.114865 -1.336365,4.336231 -0.214183,0.367931 -0.121544,0.763465 0.09924,1.094586 0.26278,0.390351 0.70036,0.690515 1.026247,0.7444 a 1.7141431,1.7141431 0 0 0 0.281841,0.02443 c 2.669426,-0.0026 1.005875,-7.164642 0.145868,-7.837463 z m -2.356119,7.266502 c 0.01249,-0.555198 -1.156268,-1.919111 -1.156268,-1.919111 0,0 -1.33904,1.361974 -1.452049,2.009072 -0.01444,0.0822 -0.145844,1.228648 0,1.387637 0.145899,0.158981 0.672137,0.22989 1.210212,0.22989 0.55651,0 1.123489,-0.07944 1.287143,-0.22989 0.249631,-0.23261 0.111642,-1.438848 0.11295,-1.47959 z m -8.178428,0.312752 0.01382,0.0065 v -0.02505 z"
       class="cls-2"
       id="path1-3-0"
       style="fill:#dfdfdf;fill-opacity:1;stroke-width:0.0569029" />
    <circle
       style="fill:#414141;fill-opacity:1;stroke:#dfdfdf;stroke-width:1.08705;stroke-dasharray:none;stroke-opacity:1"
       id="path1-6"
       cx="48.320271"
       cy="48.287033"
       r="12.17483" />
    <path
       id="path1-3"
       style="fill:#dfdfdf;fill-opacity:1;stroke:none;stroke-width:0.20182;stroke-dasharray:none;stroke-dashoffset:2.2;stroke-opacity:0.6"
       d="m 51.761355,43.058253 c -0.20805,-8.7e-5 -0.430751,0.08369 -0.709468,0.246992 -0.663244,0.38861 -1.530643,0.57188 -2.721813,0.57188 -1.191057,0 -2.087392,-0.187174 -2.746686,-0.573538 -0.528668,-0.309806 -0.844291,-0.313912 -1.287974,-0.01478 -1.13908,0.767625 -1.997557,3.228765 -2.249396,6.444848 -0.151015,1.928547 -0.0099,2.945286 0.488995,3.517478 0.240643,0.275876 0.831407,0.229104 1.364229,-0.109404 0.451661,-0.286952 0.989814,-0.920136 1.632759,-1.921198 0.580993,-0.90461 1.283736,-1.202549 2.837856,-1.205094 1.551025,-0.0023 2.160562,0.291041 2.875977,1.390747 1.200302,1.845038 2.309754,2.487372 2.960519,1.713978 0.360522,-0.428447 0.426509,-0.842406 0.409431,-2.565996 -0.03111,-3.131006 -0.849546,-5.979338 -2.02893,-7.066455 -0.314103,-0.289533 -0.557986,-0.429217 -0.825499,-0.42933 z m -6.738245,1.844933 h 0.719412 0.719406 v 0.616637 0.61664 h 0.61664 0.616633 v 0.770797 0.770791 h -0.616633 -0.61664 v 0.668023 0.668026 h -0.651444 c -0.357887,0 -0.68008,-0.03211 -0.717752,-0.06961 -0.03766,-0.03766 -0.06959,-0.336727 -0.06959,-0.666363 v -0.60007 h -0.616645 -0.616641 v -0.770793 -0.770795 h 0.616641 0.616634 v -0.616642 z m 5.86468,0 c 0.649001,0 0.926941,0.71908 0.459164,1.186861 -0.29749,0.297457 -0.568995,0.320837 -0.861967,0.07295 -0.508167,-0.429995 -0.242935,-1.259794 0.402803,-1.259794 z M 49.639599,46.221 c 0.162065,1.09e-4 0.325226,0.06468 0.454185,0.207182 0.201035,0.222143 0.222754,0.730724 0.04146,0.968054 -0.354805,0.464484 -1.20675,0.165717 -1.20675,-0.422693 0,-0.446577 0.354591,-0.752808 0.711121,-0.75256 z m 2.54777,0.02495 c 0.186795,0.0035 0.368135,0.06527 0.474076,0.18233 0.201035,0.222143 0.222724,0.730722 0.04144,0.968055 -0.377384,0.494038 -1.206751,0.163367 -1.206751,-0.480712 0,-0.195235 0.07823,-0.406835 0.18729,-0.505575 0.124687,-0.112856 0.317151,-0.167515 0.503922,-0.164093 z m -1.254823,1.329411 c 0.575374,0 0.855333,0.610306 0.507229,1.107293 -0.119001,0.169891 -0.264129,0.228754 -0.563593,0.228754 -0.344776,0 -0.424785,-0.04487 -0.563588,-0.313304 -0.273699,-0.529262 0.02495,-1.022754 0.619952,-1.022754 z" />
  </g>
</svg>
