<?xml version="1.0" encoding="UTF-8" standalone="no"?>
<svg
   width="64"
   height="64"
   version="1.1"
   id="svg73"
   sodipodi:docname="fr.handbrake.ghb.svg"
   inkscape:version="1.4.2 (ebf0e940d0, 2025-05-08)"
   xmlns:inkscape="http://www.inkscape.org/namespaces/inkscape"
   xmlns:sodipodi="http://sodipodi.sourceforge.net/DTD/sodipodi-0.dtd"
   xmlns="http://www.w3.org/2000/svg"
   xmlns:svg="http://www.w3.org/2000/svg"
   xmlns:rdf="http://www.w3.org/1999/02/22-rdf-syntax-ns#"
   xmlns:cc="http://creativecommons.org/ns#"
   xmlns:dc="http://purl.org/dc/elements/1.1/">
  <metadata
     id="metadata77">
    <rdf:RDF>
      <cc:Work
         rdf:about="">
        <dc:format>image/svg+xml</dc:format>
        <dc:type
           rdf:resource="http://purl.org/dc/dcmitype/StillImage" />
      </cc:Work>
    </rdf:RDF>
  </metadata>
  <sodipodi:namedview
     pagecolor="#f5f7fa"
     bordercolor="#666666"
     borderopacity="1"
     objecttolerance="10"
     gridtolerance="10"
     guidetolerance="10"
     inkscape:pageopacity="0"
     inkscape:pageshadow="2"
     inkscape:window-width="1377"
     inkscape:window-height="886"
     id="namedview75"
     showgrid="false"
     inkscape:zoom="6.2890625"
     inkscape:cx="48.099379"
     inkscape:cy="45.396273"
     inkscape:window-x="0"
     inkscape:window-y="47"
     inkscape:window-maximized="0"
     inkscape:current-layer="g877"
     inkscape:document-rotation="0"
     inkscape:pagecheckerboard="0"
     inkscape:showpageshadow="2"
     inkscape:deskcolor="#d1d1d1" />
  <defs
     id="defs29" />
  <circle
     cx="32.516094"
     cy="31.877844"
     r="0"
     fill="url(#b)"
     stroke-width="1.5715"
     id="circle41"
     style="fill:url(#b)" />
  <g
     aria-label="GZ"
     transform="matrix(1.2212657,0,0,0.81882264,0.4960938,-0.1661539)"
     id="text93"
     style="font-weight:bold;font-size:11.5263px;line-height:1.25;font-family:sans-serif;-inkscape-font-specification:'sans-serif Bold';fill:#f2f2f2;stroke-width:0.288159" />
  <g
     id="g877"
     transform="matrix(1.1,0,0,1.1,-3.1845928,-3.2065454)">
    <circle
       style="opacity:1;fill:#414141;stroke:#dfdfdf;stroke-width:2.27272727;stroke-dasharray:none;fill-opacity:1;stroke-opacity:1"
       id="path1"
       cx="31.985994"
       cy="32.005951"
       r="25.454546" />
    <path
       style="fill:#dfdfdf;fill-opacity:1;stroke-width:0.00573949"
       d="m 32.084526,46.183767 c -0.16858,-0.369747 -0.538863,-1.176096 -0.541411,-1.179007 -0.0019,-0.0021 -0.04473,-0.0067 -0.09524,-0.01024 -3.074987,-0.212524 -5.738748,-1.420169 -7.533034,-3.415184 -0.6638,-0.73806 -1.206011,-1.58624 -1.607033,-2.513871 -0.430495,-0.995812 -0.689906,-2.08453 -0.765821,-3.214083 -0.01624,-0.241766 -0.02171,-0.415754 -0.02254,-0.717429 -8.84e-4,-0.30802 0.0014,-0.361098 0.02533,-0.60264 0.08669,-0.875535 0.371234,-1.726093 0.845321,-2.526784 l 0.06371,-0.107614 h 0.495773 0.495777 l -0.01289,0.02152 c -0.274908,0.459251 -0.461866,0.899968 -0.596329,1.405701 -0.192867,0.725409 -0.259466,1.581173 -0.192206,2.469852 0.122644,1.620481 0.706506,3.169883 1.685891,4.473887 0.958799,1.276591 2.256793,2.283948 3.78055,2.934033 0.505271,0.215564 1.073291,0.40137 1.618149,0.529309 0.381149,0.0895 0.728559,0.151459 1.110951,0.198137 0.221866,0.02708 0.220969,0.02698 0.220969,0.02318 0,-0.01039 -3.246821,-7.088031 -3.28909,-7.169769 -0.02812,-0.05437 -0.08116,-0.153798 -0.117903,-0.220968 -0.661778,-1.210135 -1.280251,-1.984012 -1.830239,-2.290126 -0.115392,-0.06423 -0.256966,-0.114958 -0.364763,-0.130717 -0.07122,-0.01041 -0.201959,-0.0047 -0.260833,0.01137 -0.07798,0.02129 -0.167659,0.0679 -0.213612,0.111032 -0.02102,0.01973 -0.01883,0.02254 -0.03551,-0.04482 -0.02352,-0.09495 -0.03182,-0.172497 -0.03167,-0.295581 2.49e-4,-0.203813 0.03244,-0.349985 0.114837,-0.521537 0.145948,-0.303914 0.396765,-0.510311 0.699716,-0.575803 0.0675,-0.01459 0.227804,-0.02028 0.303429,-0.01075 0.0301,0.0038 0.08357,0.01445 0.118829,0.02371 0.08527,0.02237 0.161013,0.05464 0.245136,0.104443 l 0.01885,0.01116 -0.01485,-0.03358 c -0.06909,-0.156351 -0.218037,-0.319148 -0.379012,-0.414274 -0.07508,-0.04437 -0.182126,-0.0756 -0.259145,-0.0756 h -0.03897 L 24.600986,29.926897 C 23.98242,28.549788 23.44831,27.363663 23.414068,27.29106 23.282155,27.011366 23.107275,26.677933 22.953495,26.412924 22.324718,25.329358 21.599872,24.528855 20.83566,24.074047 c -0.338949,-0.201721 -0.708719,-0.33644 -0.955891,-0.348262 -0.04088,-0.002 -0.07434,-0.0058 -0.07434,-0.0084 0,-0.0026 0.08563,-0.100432 0.190279,-0.217213 l 0.190282,-0.212327 h 4.79155 c 2.63535,0 4.791547,0.0013 4.791547,0.0029 0,0.0016 -0.08413,0.125575 -0.186953,0.275493 l -0.186962,0.272601 h -0.06128 c -0.127456,2.21e-4 -0.334521,0.02124 -0.478039,0.04896 -0.383415,0.07399 -0.714506,0.217587 -0.986531,0.42785 -0.07203,0.05566 -0.20789,0.188975 -0.265701,0.260693 -0.171218,0.212397 -0.274351,0.447917 -0.317924,0.726036 -0.01482,0.09461 -0.0148,0.366303 1.4e-4,0.476373 0.03533,0.261961 0.116246,0.545114 0.236202,0.826479 0.01683,0.03946 0.968676,2.149561 2.115232,4.689114 1.146487,2.539557 2.089165,4.627921 2.094773,4.640808 l 0.01019,0.02343 -0.04387,0.02905 c -0.101159,0.06701 -0.259281,0.219322 -0.371942,0.358318 -0.577873,0.712958 -0.814476,1.73785 -0.678844,2.940551 0.08773,0.777999 0.335747,1.655321 0.726881,2.571268 0.04528,0.106045 0.808444,1.801457 0.825428,1.833743 l 0.0077,0.01436 0.0056,-0.01436 c 0.0032,-0.0078 1.41382,-3.318964 3.134929,-7.357947 1.72111,-4.038981 3.130524,-7.349295 3.132036,-7.356252 0.0082,-0.03766 -0.306026,-0.56997 -0.510872,-0.865484 -0.266158,-0.383964 -0.506736,-0.67247 -0.833167,-0.999149 -0.182837,-0.182978 -0.282649,-0.275359 -0.436546,-0.404056 -0.972754,-0.813473 -2.130894,-1.296173 -3.380524,-1.408958 -0.354045,-0.03195 -0.763012,-0.03406 -1.126735,-0.0058 -0.642779,0.04996 -1.298861,0.195413 -1.915609,0.424668 l -0.08473,0.0315 h -0.257295 c -0.141512,0 -0.257296,-0.0014 -0.257296,-0.0032 0,-0.0017 1.073464,-1.310555 2.385476,-2.908458 l 2.385461,-2.905248 -1.356683,-0.0018 c -1.493312,-0.0019 -1.572584,-6.44e-4 -1.950711,0.03082 -1.460527,0.121583 -2.85906,0.601722 -4.021127,1.380518 -0.329406,0.220762 -0.678583,0.499629 -0.853625,0.681737 l -0.03928,0.04086 h -0.266311 c -0.20027,0 -0.266344,-0.0017 -0.266344,-0.0068 0,-0.0037 0.498889,-0.967073 1.10864,-2.140806 l 1.108644,-2.134059 h 0.184165 0.184163 l 4.69e-4,0.06743 c 0.0016,0.250565 0.166595,0.548151 0.402125,0.725177 0.251252,0.188844 0.632366,0.30899 1.152839,0.363425 0.294948,0.03084 -0.10603,0.02854 5.275971,0.03041 2.721854,0.0012 4.948826,0.0032 4.948826,0.005 0,0.0017 -1.114389,1.276775 -2.47642,2.833443 -1.362022,1.556668 -2.475833,2.830879 -2.475122,2.831576 7.17e-4,7.16e-4 0.05423,0.008 0.118949,0.01627 1.253074,0.159812 2.447146,0.582536 3.541228,1.253662 0.137647,0.08443 0.403105,0.260133 0.523032,0.346176 l 0.08397,0.06024 0.0036,-0.02921 c 0.0058,-0.04769 0.004,-0.306855 -0.0023,-0.386191 -0.04174,-0.506375 -0.227477,-0.942542 -0.565349,-1.32756 -0.331521,-0.377776 -0.814865,-0.671343 -1.312588,-0.797225 l -0.08462,-0.02139 0.21089,-0.233503 0.210891,-0.233496 3.167346,-4e-6 c 2.994457,-2e-6 3.167134,5.8e-4 3.163553,0.0099 -0.0071,0.01845 -0.314581,0.509493 -0.323576,0.516709 -0.005,0.004 -0.01644,0.0072 -0.0256,0.0072 -0.0506,0 -0.230364,0.04724 -0.354217,0.09308 -0.710077,0.262815 -1.422067,0.903379 -1.991789,1.791967 -0.190857,0.297679 -0.393257,0.668582 -0.546735,1.001893 -0.07823,0.169886 -7.758109,17.171661 -7.773637,17.209322 -0.01566,0.03799 -0.465095,1.032572 -0.503311,1.11381 -0.01336,0.0284 -0.140027,0.307993 -0.281474,0.621297 -0.141444,0.313298 -0.258768,0.569619 -0.260718,0.569607 -0.0019,0 -0.01148,-0.01745 -0.02119,-0.03873 z m 1.28482,-1.210993 c 0.0032,-0.01064 0.547848,-1.212856 0.550914,-1.215919 0.0012,-8.84e-4 0.04424,-0.01508 0.09613,-0.03136 0.792275,-0.248303 1.550539,-0.667107 2.232527,-1.23307 0.180457,-0.149753 0.303799,-0.263349 0.511147,-0.47076 0.209373,-0.209431 0.325637,-0.336023 0.493239,-0.537033 1.289899,-1.547063 2.107432,-3.673875 2.324237,-6.046494 0.0399,-0.436701 0.05755,-0.838321 0.05759,-1.311458 4.69e-4,-0.69316 -0.04387,-1.291614 -0.143561,-1.954277 -0.02138,-0.142179 -0.07736,-0.466982 -0.09071,-0.526435 -0.0052,-0.023 0.01075,-0.0589 0.831163,-1.875138 0.46004,-1.018423 0.83782,-1.853068 0.839517,-1.85476 0.0039,-0.0039 0.117784,0.135911 0.235364,0.288668 0.521949,0.678129 0.965358,1.447526 1.292611,2.242933 0.571617,1.389346 0.817557,2.877982 0.731564,4.428004 -0.135856,2.448671 -1.065795,4.715789 -2.67676,6.525734 -0.274068,0.307919 -0.619199,0.649702 -0.935915,0.926849 -0.87059,0.761803 -1.869235,1.382381 -2.95294,1.835005 -1.010674,0.422125 -2.084823,0.691739 -3.206879,0.804936 -0.177224,0.01788 -0.193279,0.01827 -0.189239,0.0044 z"
       id="path1-3-0" />
    <circle
       style="fill:#414141;fill-opacity:1;stroke:#dfdfdf;stroke-width:1.08705;stroke-dasharray:none;stroke-opacity:1"
       id="path1-6"
       cx="48.320271"
       cy="48.287033"
       r="12.17483" />
    <path
       id="path1-3"
       style="fill:#dfdfdf;fill-opacity:1;stroke:none;stroke-width:0.20182;stroke-dasharray:none;stroke-dashoffset:2.2;stroke-opacity:0.6"
       d="m 51.761355,43.058253 c -0.20805,-8.7e-5 -0.430751,0.08369 -0.709468,0.246992 -0.663244,0.38861 -1.530643,0.57188 -2.721813,0.57188 -1.191057,0 -2.087392,-0.187174 -2.746686,-0.573538 -0.528668,-0.309806 -0.844291,-0.313912 -1.287974,-0.01478 -1.13908,0.767625 -1.997557,3.228765 -2.249396,6.444848 -0.151015,1.928547 -0.0099,2.945286 0.488995,3.517478 0.240643,0.275876 0.831407,0.229104 1.364229,-0.109404 0.451661,-0.286952 0.989814,-0.920136 1.632759,-1.921198 0.580993,-0.90461 1.283736,-1.202549 2.837856,-1.205094 1.551025,-0.0023 2.160562,0.291041 2.875977,1.390747 1.200302,1.845038 2.309754,2.487372 2.960519,1.713978 0.360522,-0.428447 0.426509,-0.842406 0.409431,-2.565996 -0.03111,-3.131006 -0.849546,-5.979338 -2.02893,-7.066455 -0.314103,-0.289533 -0.557986,-0.429217 -0.825499,-0.42933 z m -6.738245,1.844933 h 0.719412 0.719406 v 0.616637 0.61664 h 0.61664 0.616633 v 0.770797 0.770791 h -0.616633 -0.61664 v 0.668023 0.668026 h -0.651444 c -0.357887,0 -0.68008,-0.03211 -0.717752,-0.06961 -0.03766,-0.03766 -0.06959,-0.336727 -0.06959,-0.666363 v -0.60007 h -0.616645 -0.616641 v -0.770793 -0.770795 h 0.616641 0.616634 v -0.616642 z m 5.86468,0 c 0.649001,0 0.926941,0.71908 0.459164,1.186861 -0.29749,0.297457 -0.568995,0.320837 -0.861967,0.07295 -0.508167,-0.429995 -0.242935,-1.259794 0.402803,-1.259794 z M 49.639599,46.221 c 0.162065,1.09e-4 0.325226,0.06468 0.454185,0.207182 0.201035,0.222143 0.222754,0.730724 0.04146,0.968054 -0.354805,0.464484 -1.20675,0.165717 -1.20675,-0.422693 0,-0.446577 0.354591,-0.752808 0.711121,-0.75256 z m 2.54777,0.02495 c 0.186795,0.0035 0.368135,0.06527 0.474076,0.18233 0.201035,0.222143 0.222724,0.730722 0.04144,0.968055 -0.377384,0.494038 -1.206751,0.163367 -1.206751,-0.480712 0,-0.195235 0.07823,-0.406835 0.18729,-0.505575 0.124687,-0.112856 0.317151,-0.167515 0.503922,-0.164093 z m -1.254823,1.329411 c 0.575374,0 0.855333,0.610306 0.507229,1.107293 -0.119001,0.169891 -0.264129,0.228754 -0.563593,0.228754 -0.344776,0 -0.424785,-0.04487 -0.563588,-0.313304 -0.273699,-0.529262 0.02495,-1.022754 0.619952,-1.022754 z" />
  </g>
</svg>
