<?xml version="1.0" encoding="UTF-8" standalone="no"?>
<svg
   width="64"
   height="64"
   version="1.1"
   id="svg73"
   sodipodi:docname="fr.handbrake.ghb.svg"
   inkscape:version="1.4.2 (ebf0e940d0, 2025-05-08)"
   xmlns:inkscape="http://www.inkscape.org/namespaces/inkscape"
   xmlns:sodipodi="http://sodipodi.sourceforge.net/DTD/sodipodi-0.dtd"
   xmlns="http://www.w3.org/2000/svg"
   xmlns:svg="http://www.w3.org/2000/svg"
   xmlns:rdf="http://www.w3.org/1999/02/22-rdf-syntax-ns#"
   xmlns:cc="http://creativecommons.org/ns#"
   xmlns:dc="http://purl.org/dc/elements/1.1/">
  <metadata
     id="metadata77">
    <rdf:RDF>
      <cc:Work
         rdf:about="">
        <dc:format>image/svg+xml</dc:format>
        <dc:type
           rdf:resource="http://purl.org/dc/dcmitype/StillImage" />
      </cc:Work>
    </rdf:RDF>
  </metadata>
  <sodipodi:namedview
     pagecolor="#f5f7fa"
     bordercolor="#666666"
     borderopacity="1"
     objecttolerance="10"
     gridtolerance="10"
     guidetolerance="10"
     inkscape:pageopacity="0"
     inkscape:pageshadow="2"
     inkscape:window-width="1377"
     inkscape:window-height="886"
     id="namedview75"
     showgrid="false"
     inkscape:zoom="6.2890625"
     inkscape:cx="48.099379"
     inkscape:cy="45.396273"
     inkscape:window-x="0"
     inkscape:window-y="47"
     inkscape:window-maximized="0"
     inkscape:current-layer="g877"
     inkscape:document-rotation="0"
     inkscape:pagecheckerboard="0"
     inkscape:showpageshadow="2"
     inkscape:deskcolor="#d1d1d1" />
  <defs
     id="defs29" />
  <circle
     cx="32.516094"
     cy="31.877844"
     r="0"
     fill="url(#b)"
     stroke-width="1.5715"
     id="circle41"
     style="fill:url(#b)" />
  <g
     aria-label="GZ"
     transform="matrix(1.2212657,0,0,0.81882264,0.4960938,-0.1661539)"
     id="text93"
     style="font-weight:bold;font-size:11.5263px;line-height:1.25;font-family:sans-serif;-inkscape-font-specification:'sans-serif Bold';fill:#f2f2f2;stroke-width:0.288159" />
  <g
     id="g877"
     transform="matrix(1.1,0,0,1.1,-3.1845928,-3.2065454)">
    <circle
       style="opacity:1;fill:#414141;stroke:#dfdfdf;stroke-width:2.27272727;stroke-dasharray:none;fill-opacity:1;stroke-opacity:1"
       id="path1"
       cx="31.985994"
       cy="32.005951"
       r="25.454546" />
    <path
       style="fill:#dfdfdf;fill-opacity:1;stroke:none;stroke-width:0.437627;stroke-dasharray:none;stroke-opacity:0.6"
       d="m 29.694687,46.118729 c -0.494413,-0.109901 -0.521679,-0.332517 -0.05606,-0.457776 l 0.136155,-0.03657 V 45.161049 44.69775 h 2.21054 2.210538 v 0.463299 0.463302 l 0.136157,0.03659 c 0.385096,0.103616 0.445512,0.271216 0.145109,0.402489 -0.129369,0.05653 -0.266281,0.06016 -2.427724,0.06475 -1.259845,0.0027 -2.319462,-0.0018 -2.354703,-0.0096 z m 0.518196,-1.762461 c -0.02667,-0.02651 -0.02911,-1.068161 -0.0027,-1.068161 0.01059,0 0.06097,0.02978 0.112152,0.06628 0.145568,0.103614 0.655282,0.332715 0.990054,0.444929 0.607676,0.20372 1.437407,0.370737 2.194522,0.441853 0.195762,0.0185 0.25629,0.03547 0.25629,0.07216 0,0.04203 -0.221081,0.0491 -1.764423,0.05637 -0.970433,0.0043 -1.774157,-0.0014 -1.786052,-0.01326 z m 3.117981,-0.63519 C 31.947199,43.551194 30.910366,43.169327 30.343431,42.620806 L 30.191264,42.47356 v -0.617913 c 0,-0.339858 0.01224,-0.617917 0.02742,-0.617917 0.01502,0 0.164007,0.0719 0.330925,0.159786 0.684694,0.360456 1.645097,0.623977 2.685139,0.736762 0.185018,0.02016 0.383497,0.04352 0.441075,0.05205 l 0.10468,0.01603 -0.0087,0.774914 c -0.0075,0.660837 -0.01566,0.775693 -0.05663,0.780203 -0.0264,0.0033 -0.19943,-0.01326 -0.384442,-0.03605 z m -0.0961,-2.086415 c -0.993423,-0.132925 -1.790558,-0.367168 -2.350503,-0.690728 -0.257337,-0.148698 -0.645237,-0.451968 -0.67401,-0.526956 -0.02807,-0.07309 -0.0231,-1.268777 0.005,-1.256281 0.01328,0.006 0.189901,0.09295 0.392449,0.193505 0.423963,0.210488 0.976692,0.401242 1.505588,0.519533 0.319978,0.07159 0.560862,0.109911 1.473692,0.234596 l 0.176201,0.02402 0.0086,0.7769 0.0087,0.776891 -0.104681,-0.0036 c -0.05758,-0.0019 -0.256075,-0.02319 -0.441089,-0.04829 z m -0.06408,-2.080219 c -1.226662,-0.168791 -2.155869,-0.509625 -2.75155,-1.009286 l -0.211853,-0.177681 -0.0088,-0.64724 c -0.0049,-0.355987 -0.0032,-0.647247 0.0032,-0.647247 0.0067,0 0.147495,0.07106 0.313024,0.157852 0.734964,0.385519 1.538823,0.610865 2.680466,0.751434 l 0.567865,0.06988 0.0087,0.775847 0.0086,0.775854 -0.152737,-0.0039 c -0.08401,-0.0022 -0.289702,-0.02237 -0.457095,-0.04566 z m 0.192224,-2.053193 C 32.53451,37.406761 31.687973,37.189545 31.146053,36.93238 30.825095,36.780074 30.45373,36.530345 30.307517,36.368511 l -0.116271,-0.128679 v -0.624634 c 0,-0.343544 0.0055,-0.624626 0.01204,-0.624626 0.0066,0 0.09424,0.04946 0.194579,0.109857 0.629929,0.379319 1.834376,0.715989 2.965797,0.828997 l 0.399592,0.03992 0.0086,0.765866 c 0.005,0.421219 -0.0024,0.775349 -0.01603,0.786952 -0.01343,0.01215 -0.19041,0.0022 -0.393042,-0.02044 z m 0.04804,-2.06494 C 31.954569,35.255658 30.945333,34.893538 30.36283,34.342633 l -0.171577,-0.162272 v -0.62007 c 0,-0.341039 0.0096,-0.620069 0.02182,-0.620069 0.01218,0 0.159761,0.07085 0.328383,0.157404 0.723222,0.371321 1.534319,0.601509 2.549146,0.723448 0.229062,0.02754 0.478005,0.05775 0.553204,0.0672 l 0.136726,0.01712 -0.0086,0.774846 c -0.0096,0.889021 0.03049,0.804608 -0.36097,0.756053 z M 33.218729,33.338198 C 31.904708,33.161899 30.919303,32.79184 30.343427,32.258413 l -0.152165,-0.140964 v -0.629813 c 0,-0.346396 0.0041,-0.629811 0.0095,-0.629811 0.005,0 0.174574,0.08369 0.376433,0.185958 0.713289,0.361413 1.608691,0.60273 2.705256,0.729083 0.246441,0.0284 0.459083,0.05842 0.472543,0.06674 0.01343,0.0084 0.0245,0.360269 0.0245,0.782116 v 0.76699 l -0.120121,-0.0039 c -0.06608,-0.0022 -0.264303,-0.02318 -0.440504,-0.04679 z m -0.06408,-2.082816 C 31.894064,31.084579 30.878814,30.694671 30.333057,30.17174 l -0.141802,-0.135883 v -0.405951 -0.405953 h 1.794059 1.794061 v 1.041195 1.041199 l -0.152163,-0.0037 c -0.08369,-0.0022 -0.296343,-0.02329 -0.472547,-0.04719 z m -3.985526,-2.500094 c -0.147735,-0.16783 -0.283947,-0.42955 -0.297978,-0.572533 l -0.0095,-0.0961 h 3.123587 3.123589 l -0.0095,0.0961 c -0.01408,0.142992 -0.150255,0.404703 -0.297976,0.572535 L 34.6708,28.90358 h -2.685479 -2.685643 z m -3.014524,-1.309381 v -0.432495 h 5.830697 5.830695 v 0.432495 0.4325 h -5.830685 -5.830694 z m -0.548862,0.150759 c -0.244711,-0.177489 -0.999234,-0.732079 -1.812846,-1.332487 l -0.135176,-0.09974 -2.23e-4,-2.915347 -2.29e-4,-2.915349 1.110551,-0.816939 c 0.610799,-0.449316 1.122242,-0.821744 1.136536,-0.827618 0.01431,-0.0058 0.02604,0.167367 0.02604,0.384973 v 0.395654 l -1.041825,0.39667 c -0.572982,0.218168 -1.037524,0.400935 -1.032304,0.40615 0.0049,0.0052 0.463198,-0.112267 1.01775,-0.261035 0.554554,-0.148786 1.019093,-0.270516 1.032307,-0.270528 0.01326,-9e-6 0.02399,1.5786 0.02399,3.508015 0,1.929415 -0.0113,3.508027 -0.02511,3.508027 -0.02425,0 -0.452552,-0.112623 -1.474371,-0.387733 -0.269678,-0.07261 -0.495638,-0.126695 -0.502142,-0.120184 -0.0061,0.0063 0.441204,0.184452 0.994903,0.395456 l 1.006711,0.38364 v 0.393024 c 0,0.21617 -0.0057,0.393022 -0.01218,0.393022 -0.0068,0 -0.147306,-0.09793 -0.312363,-0.217659 z m 12.43453,-0.165652 c 0,-0.34531 0.0063,-0.38658 0.06151,-0.416261 0.03382,-0.01812 0.405079,-0.163425 0.824943,-0.322908 0.937654,-0.35615 1.15704,-0.443778 1.115793,-0.445662 -0.01741,-8.04e-4 -0.463982,0.113825 -0.991903,0.254731 -0.527931,0.140915 -0.971236,0.256192 -0.985138,0.256192 -0.01354,0 -0.02568,-1.578609 -0.02568,-3.508027 0,-1.929417 0.0105,-3.50803 0.02514,-3.50803 0.01326,0 0.45638,0.115524 0.983916,0.256699 0.527534,0.141184 0.970379,0.252913 0.984112,0.248282 0.01326,-0.0046 -0.429029,-0.180926 -0.983916,-0.391777 l -1.008802,-0.383347 v -0.396204 c 0,-0.217906 0.01215,-0.391396 0.02651,-0.385521 0.01436,0.0058 0.526149,0.378301 1.136881,0.827616 l 1.110411,0.816938 4e-4,2.910739 3.99e-4,2.910735 -0.07622,0.05996 c -0.177542,0.139652 -2.170765,1.599165 -2.183943,1.599165 -0.0072,0 -0.01408,-0.172489 -0.01408,-0.383315 z M 26.154622,23.249087 V 19.74106 h 5.830697 5.830695 v 3.508027 3.50803 h -5.830695 -5.830697 z m 0,-4.196821 v -0.432495 h 5.830697 5.830695 v 0.432495 0.4325 h -5.830695 -5.830697 z m 3.972562,-0.897028 v -0.272313 h 1.858135 1.858134 v 0.272311 0.272313 h -1.858134 -1.858135 z"
       id="path1-7" />
    <circle
       style="fill:#414141;fill-opacity:1;stroke:#dfdfdf;stroke-width:1.08705;stroke-dasharray:none;stroke-opacity:1"
       id="path1-6"
       cx="48.320271"
       cy="48.287033"
       r="12.17483" />
    <path
       id="path1-3"
       style="fill:#dfdfdf;fill-opacity:1;stroke:none;stroke-width:0.20182;stroke-dasharray:none;stroke-dashoffset:2.2;stroke-opacity:0.6"
       d="m 51.761355,43.058253 c -0.20805,-8.7e-5 -0.430751,0.08369 -0.709468,0.246992 -0.663244,0.38861 -1.530643,0.57188 -2.721813,0.57188 -1.191057,0 -2.087392,-0.187174 -2.746686,-0.573538 -0.528668,-0.309806 -0.844291,-0.313912 -1.287974,-0.01478 -1.13908,0.767625 -1.997557,3.228765 -2.249396,6.444848 -0.151015,1.928547 -0.0099,2.945286 0.488995,3.517478 0.240643,0.275876 0.831407,0.229104 1.364229,-0.109404 0.451661,-0.286952 0.989814,-0.920136 1.632759,-1.921198 0.580993,-0.90461 1.283736,-1.202549 2.837856,-1.205094 1.551025,-0.0023 2.160562,0.291041 2.875977,1.390747 1.200302,1.845038 2.309754,2.487372 2.960519,1.713978 0.360522,-0.428447 0.426509,-0.842406 0.409431,-2.565996 -0.03111,-3.131006 -0.849546,-5.979338 -2.02893,-7.066455 -0.314103,-0.289533 -0.557986,-0.429217 -0.825499,-0.42933 z m -6.738245,1.844933 h 0.719412 0.719406 v 0.616637 0.61664 h 0.61664 0.616633 v 0.770797 0.770791 h -0.616633 -0.61664 v 0.668023 0.668026 h -0.651444 c -0.357887,0 -0.68008,-0.03211 -0.717752,-0.06961 -0.03766,-0.03766 -0.06959,-0.336727 -0.06959,-0.666363 v -0.60007 h -0.616645 -0.616641 v -0.770793 -0.770795 h 0.616641 0.616634 v -0.616642 z m 5.86468,0 c 0.649001,0 0.926941,0.71908 0.459164,1.186861 -0.29749,0.297457 -0.568995,0.320837 -0.861967,0.07295 -0.508167,-0.429995 -0.242935,-1.259794 0.402803,-1.259794 z M 49.639599,46.221 c 0.162065,1.09e-4 0.325226,0.06468 0.454185,0.207182 0.201035,0.222143 0.222754,0.730724 0.04146,0.968054 -0.354805,0.464484 -1.20675,0.165717 -1.20675,-0.422693 0,-0.446577 0.354591,-0.752808 0.711121,-0.75256 z m 2.54777,0.02495 c 0.186795,0.0035 0.368135,0.06527 0.474076,0.18233 0.201035,0.222143 0.222724,0.730722 0.04144,0.968055 -0.377384,0.494038 -1.206751,0.163367 -1.206751,-0.480712 0,-0.195235 0.07823,-0.406835 0.18729,-0.505575 0.124687,-0.112856 0.317151,-0.167515 0.503922,-0.164093 z m -1.254823,1.329411 c 0.575374,0 0.855333,0.610306 0.507229,1.107293 -0.119001,0.169891 -0.264129,0.228754 -0.563593,0.228754 -0.344776,0 -0.424785,-0.04487 -0.563588,-0.313304 -0.273699,-0.529262 0.02495,-1.022754 0.619952,-1.022754 z" />
  </g>
</svg>
