<?xml version="1.0" encoding="UTF-8" standalone="no"?>
<svg
   width="64"
   height="64"
   version="1.1"
   id="svg73"
   sodipodi:docname="fr.handbrake.ghb.svg"
   inkscape:version="1.4.2 (ebf0e940d0, 2025-05-08)"
   xmlns:inkscape="http://www.inkscape.org/namespaces/inkscape"
   xmlns:sodipodi="http://sodipodi.sourceforge.net/DTD/sodipodi-0.dtd"
   xmlns="http://www.w3.org/2000/svg"
   xmlns:svg="http://www.w3.org/2000/svg"
   xmlns:rdf="http://www.w3.org/1999/02/22-rdf-syntax-ns#"
   xmlns:cc="http://creativecommons.org/ns#"
   xmlns:dc="http://purl.org/dc/elements/1.1/">
  <metadata
     id="metadata77">
    <rdf:RDF>
      <cc:Work
         rdf:about="">
        <dc:format>image/svg+xml</dc:format>
        <dc:type
           rdf:resource="http://purl.org/dc/dcmitype/StillImage" />
      </cc:Work>
    </rdf:RDF>
  </metadata>
  <sodipodi:namedview
     pagecolor="#f5f7fa"
     bordercolor="#666666"
     borderopacity="1"
     objecttolerance="10"
     gridtolerance="10"
     guidetolerance="10"
     inkscape:pageopacity="0"
     inkscape:pageshadow="2"
     inkscape:window-width="1377"
     inkscape:window-height="886"
     id="namedview75"
     showgrid="false"
     inkscape:zoom="6.2890625"
     inkscape:cx="48.099379"
     inkscape:cy="45.396273"
     inkscape:window-x="0"
     inkscape:window-y="47"
     inkscape:window-maximized="0"
     inkscape:current-layer="g877"
     inkscape:document-rotation="0"
     inkscape:pagecheckerboard="0"
     inkscape:showpageshadow="2"
     inkscape:deskcolor="#d1d1d1" />
  <defs
     id="defs29" />
  <circle
     cx="32.516094"
     cy="31.877844"
     r="0"
     fill="url(#b)"
     stroke-width="1.5715"
     id="circle41"
     style="fill:url(#b)" />
  <g
     aria-label="GZ"
     transform="matrix(1.2212657,0,0,0.81882264,0.4960938,-0.1661539)"
     id="text93"
     style="font-weight:bold;font-size:11.5263px;line-height:1.25;font-family:sans-serif;-inkscape-font-specification:'sans-serif Bold';fill:#f2f2f2;stroke-width:0.288159" />
  <g
     id="g877"
     transform="matrix(1.1,0,0,1.1,-3.1845928,-3.2065454)">
    <circle
       style="opacity:1;fill:#414141;stroke:#dfdfdf;stroke-width:2.27272727;stroke-dasharray:none;fill-opacity:1;stroke-opacity:1"
       id="path1"
       cx="31.985994"
       cy="32.005951"
       r="25.454546" />
    <path
       id="path7"
       style="fill:#dfdfdf;fill-opacity:1;stroke:none;stroke-width:0.412619;stroke-dasharray:none;stroke-dashoffset:2.2;stroke-opacity:0.6"
       d="m 32.023271,20.925531 c -1.393312,-0.0081 -2.797192,0.368012 -3.997617,1.116206 -0.758112,0.472509 -2.177514,1.845376 -2.765732,2.675594 -0.761227,1.074396 -1.43212,2.587455 -1.783231,4.020151 -0.564037,2.30157 -0.405357,5.634395 0.362055,7.576095 0.07201,0.182213 0.184962,0.332006 0.249385,0.332006 0.194414,0 2.1313,-0.702474 3.30806,-1.198837 3.143058,-1.325749 6.527898,-3.17475 9.408901,-5.140865 0.971241,-0.662813 3.287055,-2.38089 3.353129,-2.487805 0.01927,-0.03117 -0.115867,-0.422429 -0.300471,-0.869833 -0.98615,-2.390604 -2.691033,-4.313636 -4.702187,-5.301609 -0.97021,-0.476621 -2.048605,-0.714764 -3.132292,-0.721103 z m 12.287306,2.205372 c -0.4149,0.0021 -0.903941,0.04756 -1.358085,0.133706 -0.841221,0.159584 -2.885838,0.846608 -3.17736,1.068136 -0.01823,0.01425 0.110298,0.268316 0.286987,0.564863 0.176666,0.296542 0.321504,0.596116 0.321504,0.66552 0,0.145208 0.164118,0.155296 0.662516,0.04055 1.237122,-0.28478 3.048167,-0.464036 3.048167,-0.301964 0,0.14925 -0.985445,1.257429 -1.955987,2.199364 -5.065141,4.915773 -14.718326,10.102802 -20.568016,11.052426 -0.856035,0.138989 -1.649882,0.160289 -1.720132,0.04665 -0.06126,-0.09918 1.16094,-1.550805 2.004066,-2.381168 l 0.656476,-0.647533 -0.117175,-0.501767 c -0.06487,-0.275674 -0.119432,-0.610019 -0.120178,-0.743646 -8.34e-4,-0.13363 -0.02511,-0.243371 -0.05407,-0.243371 -0.102141,0 -1.893482,1.51551 -2.535883,2.145287 -1.321497,1.29552 -1.85952,2.170826 -1.867357,3.037653 -0.0041,0.463013 0.02867,0.580111 0.216331,0.781189 0.282053,0.302171 0.637187,0.489142 1.192825,0.626456 0.593593,0.146645 1.153146,0.14584 2.208379,-0.0047 4.280037,-0.610136 10.68164,-3.453751 16.432139,-7.298292 5.266496,-3.520962 8.783766,-7.424096 8.234097,-9.138488 -0.100374,-0.312996 -0.538059,-0.803274 -0.87433,-0.979446 -0.158537,-0.08306 -0.500007,-0.123777 -0.914903,-0.121689 z m -3.564963,9.715367 c -0.02898,3.52e-4 -0.59907,0.388534 -1.266438,0.862318 -3.662601,2.600233 -8.375375,5.176624 -11.986839,6.553033 -0.457851,0.174481 -0.847141,0.363089 -0.865323,0.417644 -0.04345,0.130346 1.268196,1.115407 1.93045,1.449711 0.285818,0.14425 0.867318,0.381892 1.29198,0.528808 0.762389,0.263762 0.79004,0.267313 2.229411,0.22981 1.202993,-0.03119 1.558704,-0.07192 2.032611,-0.232883 3.434471,-1.16654 5.970672,-4.622133 6.568052,-8.947692 0.06546,-0.473765 0.09504,-0.86117 0.06613,-0.860816 z" />
    <circle
       style="fill:#414141;fill-opacity:1;stroke:#dfdfdf;stroke-width:1.08705;stroke-dasharray:none;stroke-opacity:1"
       id="path1-6"
       cx="48.320271"
       cy="48.287033"
       r="12.17483" />
    <path
       id="path1-3"
       style="fill:#dfdfdf;fill-opacity:1;stroke:none;stroke-width:0.20182;stroke-dasharray:none;stroke-dashoffset:2.2;stroke-opacity:0.6"
       d="m 51.761355,43.058253 c -0.20805,-8.7e-5 -0.430751,0.08369 -0.709468,0.246992 -0.663244,0.38861 -1.530643,0.57188 -2.721813,0.57188 -1.191057,0 -2.087392,-0.187174 -2.746686,-0.573538 -0.528668,-0.309806 -0.844291,-0.313912 -1.287974,-0.01478 -1.13908,0.767625 -1.997557,3.228765 -2.249396,6.444848 -0.151015,1.928547 -0.0099,2.945286 0.488995,3.517478 0.240643,0.275876 0.831407,0.229104 1.364229,-0.109404 0.451661,-0.286952 0.989814,-0.920136 1.632759,-1.921198 0.580993,-0.90461 1.283736,-1.202549 2.837856,-1.205094 1.551025,-0.0023 2.160562,0.291041 2.875977,1.390747 1.200302,1.845038 2.309754,2.487372 2.960519,1.713978 0.360522,-0.428447 0.426509,-0.842406 0.409431,-2.565996 -0.03111,-3.131006 -0.849546,-5.979338 -2.02893,-7.066455 -0.314103,-0.289533 -0.557986,-0.429217 -0.825499,-0.42933 z m -6.738245,1.844933 h 0.719412 0.719406 v 0.616637 0.61664 h 0.61664 0.616633 v 0.770797 0.770791 h -0.616633 -0.61664 v 0.668023 0.668026 h -0.651444 c -0.357887,0 -0.68008,-0.03211 -0.717752,-0.06961 -0.03766,-0.03766 -0.06959,-0.336727 -0.06959,-0.666363 v -0.60007 h -0.616645 -0.616641 v -0.770793 -0.770795 h 0.616641 0.616634 v -0.616642 z m 5.86468,0 c 0.649001,0 0.926941,0.71908 0.459164,1.186861 -0.29749,0.297457 -0.568995,0.320837 -0.861967,0.07295 -0.508167,-0.429995 -0.242935,-1.259794 0.402803,-1.259794 z M 49.639599,46.221 c 0.162065,1.09e-4 0.325226,0.06468 0.454185,0.207182 0.201035,0.222143 0.222754,0.730724 0.04146,0.968054 -0.354805,0.464484 -1.20675,0.165717 -1.20675,-0.422693 0,-0.446577 0.354591,-0.752808 0.711121,-0.75256 z m 2.54777,0.02495 c 0.186795,0.0035 0.368135,0.06527 0.474076,0.18233 0.201035,0.222143 0.222724,0.730722 0.04144,0.968055 -0.377384,0.494038 -1.206751,0.163367 -1.206751,-0.480712 0,-0.195235 0.07823,-0.406835 0.18729,-0.505575 0.124687,-0.112856 0.317151,-0.167515 0.503922,-0.164093 z m -1.254823,1.329411 c 0.575374,0 0.855333,0.610306 0.507229,1.107293 -0.119001,0.169891 -0.264129,0.228754 -0.563593,0.228754 -0.344776,0 -0.424785,-0.04487 -0.563588,-0.313304 -0.273699,-0.529262 0.02495,-1.022754 0.619952,-1.022754 z" />
  </g>
</svg>
