<?xml version="1.0" encoding="UTF-8" standalone="no"?>
<svg
   width="64"
   height="64"
   version="1.1"
   id="svg73"
   sodipodi:docname="fr.handbrake.ghb.svg"
   inkscape:version="1.4.2 (ebf0e940d0, 2025-05-08)"
   xmlns:inkscape="http://www.inkscape.org/namespaces/inkscape"
   xmlns:sodipodi="http://sodipodi.sourceforge.net/DTD/sodipodi-0.dtd"
   xmlns="http://www.w3.org/2000/svg"
   xmlns:svg="http://www.w3.org/2000/svg"
   xmlns:rdf="http://www.w3.org/1999/02/22-rdf-syntax-ns#"
   xmlns:cc="http://creativecommons.org/ns#"
   xmlns:dc="http://purl.org/dc/elements/1.1/">
  <metadata
     id="metadata77">
    <rdf:RDF>
      <cc:Work
         rdf:about="">
        <dc:format>image/svg+xml</dc:format>
        <dc:type
           rdf:resource="http://purl.org/dc/dcmitype/StillImage" />
      </cc:Work>
    </rdf:RDF>
  </metadata>
  <sodipodi:namedview
     pagecolor="#f5f7fa"
     bordercolor="#666666"
     borderopacity="1"
     objecttolerance="10"
     gridtolerance="10"
     guidetolerance="10"
     inkscape:pageopacity="0"
     inkscape:pageshadow="2"
     inkscape:window-width="1377"
     inkscape:window-height="886"
     id="namedview75"
     showgrid="false"
     inkscape:zoom="6.2890625"
     inkscape:cx="48.099379"
     inkscape:cy="45.396273"
     inkscape:window-x="0"
     inkscape:window-y="47"
     inkscape:window-maximized="0"
     inkscape:current-layer="g877"
     inkscape:document-rotation="0"
     inkscape:pagecheckerboard="0"
     inkscape:showpageshadow="2"
     inkscape:deskcolor="#d1d1d1" />
  <defs
     id="defs29" />
  <circle
     cx="32.516094"
     cy="31.877844"
     r="0"
     fill="url(#b)"
     stroke-width="1.5715"
     id="circle41"
     style="fill:url(#b)" />
  <g
     aria-label="GZ"
     transform="matrix(1.2212657,0,0,0.81882264,0.4960938,-0.1661539)"
     id="text93"
     style="font-weight:bold;font-size:11.5263px;line-height:1.25;font-family:sans-serif;-inkscape-font-specification:'sans-serif Bold';fill:#f2f2f2;stroke-width:0.288159" />
  <g
     id="g877"
     transform="matrix(1.1,0,0,1.1,-3.1845928,-3.2065454)">
    <circle
       style="opacity:1;fill:#414141;stroke:#dfdfdf;stroke-width:2.27272727;stroke-dasharray:none;fill-opacity:1;stroke-opacity:1"
       id="path1"
       cx="31.985994"
       cy="32.005951"
       r="25.454546" />
    <path
       fill="#000000"
       d="m 25.226289,18.065515 c -2.794091,1.286298 -4.637878,3.354449 -4.637878,5.674094 0,1.52675 0.784714,2.940523 2.117912,4.095483 -0.682037,1.485117 -1.110414,3.152316 -1.216834,4.924188 1.005392,0.03285 1.960617,0.245871 2.817961,0.684128 2.430492,1.242567 3.571741,3.914443 3.379001,7.080742 0.442407,0.107024 0.893726,0.196144 1.352006,0.267832 0.05224,-0.980019 0.04861,-1.956977 -0.02896,-2.930815 l 1.089369,-0.08682 c 0.08415,1.054602 0.08571,2.105876 0.02678,3.153969 0.469089,0.04443 0.943777,0.07068 1.422212,0.08092 v -3.288317 h 1.092675 v 3.282118 c 0.457855,-0.01462 0.917625,-0.04431 1.377924,-0.08845 -0.05802,-1.043457 -0.05611,-2.090143 0.02754,-3.140039 l 1.089372,0.08677 c -0.07744,0.970487 -0.08116,1.944059 -0.02931,2.92075 0.42727,-0.06255 0.853703,-0.137689 1.278427,-0.224774 -0.2028,-3.180638 0.937837,-5.866801 3.376638,-7.113623 0.857235,-0.43838 1.812568,-0.651532 2.81784,-0.684263 -0.107678,-1.796083 -0.546306,-3.484666 -1.244543,-4.984983 1.291104,-1.14374 2.049155,-2.534605 2.049155,-4.034681 0,-2.319642 -1.843801,-4.387852 -4.637898,-5.67398 0.76336,0.968732 1.23332,2.129432 1.23332,3.355039 0,2.496118 -1.842502,4.655306 -4.503973,5.68047 l -0.359008,-0.836171 c 0.65185,-0.259621 1.241559,-0.596249 1.746947,-0.991941 0.590589,-0.462237 1.06434,-0.99914 1.398091,-1.587794 -1.745406,-1.481311 -3.896773,-2.355489 -6.226722,-2.355489 -2.358813,0 -4.534829,0.895466 -6.291741,2.410454 0.331779,0.567195 0.794548,1.084977 1.366639,1.532829 0.565444,0.442642 1.236425,0.811431 1.981906,1.081177 l -0.358152,0.834066 c -2.787857,-0.986047 -4.739876,-3.198274 -4.739876,-5.767598 0,-1.225606 0.470006,-2.386307 1.233377,-3.355039 z m 0.601474,10.708159 c 0.0039,-2.48e-4 0.0053,2.44e-4 0.0063,0.0053 1.076737,1.365321 3.036539,2.321196 5.326116,2.523799 -0.344509,1.151814 -1.578195,2.019092 -3.079778,2.019092 -1.766505,0 -3.224719,-1.203618 -3.224719,-2.66155 1.08e-4,-0.728859 0.362834,-1.403174 0.941998,-1.881263 0.0053,0.0053 0.01931,-0.0039 0.02883,-0.0053 z m 12.376984,1.03e-4 c 0.0046,-1.81e-4 0.0046,4e-4 0.0071,0.0053 0.579295,0.478021 0.942111,1.15234 0.942111,1.881258 0,1.457761 -1.45816,2.661433 -3.224814,2.661433 -1.501596,0 -2.735166,-0.867161 -3.079796,-2.0191 2.28972,-0.202668 4.249596,-1.158532 5.326303,-2.523698 0.0046,0.0053 0.01904,-0.0039 0.02814,-0.0053 z m -6.173646,2.581839 c 0.32891,1.603331 0.814405,3.206688 1.924356,4.810016 -1.185483,0.317661 -2.62066,0.329053 -3.848726,0 1.050643,-1.603328 1.569075,-3.206685 1.92437,-4.810016 z m -4.462117,10.264449 c -0.136836,0.90048 -0.374995,1.830221 -0.716303,2.76999 0.51374,0.335655 1.054702,0.622475 1.617551,0.855876 0.212096,-1.124135 0.382232,-2.243978 0.48707,-3.359571 -0.468934,-0.07139 -0.932284,-0.159871 -1.388382,-0.266226 z m 8.934887,0.02814 c -0.437395,0.08788 -0.87683,0.164126 -1.317198,0.227358 0.103937,1.109355 0.272217,2.222874 0.482302,3.340594 0.537487,-0.227878 1.054574,-0.504632 1.546736,-0.826015 -0.337722,-0.930213 -0.574439,-1.850487 -0.71184,-2.742137 z m -2.402923,0.357564 c -0.487381,0.04681 -0.974633,0.07733 -1.460382,0.09247 v 3.841394 c 0.680868,-0.04498 1.345229,-0.164345 1.986529,-0.351667 -0.227937,-1.189376 -0.412714,-2.383594 -0.526147,-3.582238 z m -4.05819,0.01356 c -0.11428,1.201154 -0.299966,2.397648 -0.528761,3.589504 0.656465,0.185968 1.3367,0.300933 2.033872,0.337549 v -3.842377 c -0.505322,-0.0099 -1.007724,-0.03778 -1.505111,-0.08437 z"
       id="path1-4"
       style="fill:#dfdfdf;fill-opacity:1;stroke:none;stroke-width:0.413556;stroke-dasharray:none;stroke-opacity:0.6" />
    <circle
       style="fill:#414141;fill-opacity:1;stroke:#dfdfdf;stroke-width:1.08705;stroke-dasharray:none;stroke-opacity:1"
       id="path1-6"
       cx="48.320271"
       cy="48.287033"
       r="12.17483" />
    <path
       id="path1-3"
       style="fill:#dfdfdf;fill-opacity:1;stroke:none;stroke-width:0.20182;stroke-dasharray:none;stroke-dashoffset:2.2;stroke-opacity:0.6"
       d="m 51.761355,43.058253 c -0.20805,-8.7e-5 -0.430751,0.08369 -0.709468,0.246992 -0.663244,0.38861 -1.530643,0.57188 -2.721813,0.57188 -1.191057,0 -2.087392,-0.187174 -2.746686,-0.573538 -0.528668,-0.309806 -0.844291,-0.313912 -1.287974,-0.01478 -1.13908,0.767625 -1.997557,3.228765 -2.249396,6.444848 -0.151015,1.928547 -0.0099,2.945286 0.488995,3.517478 0.240643,0.275876 0.831407,0.229104 1.364229,-0.109404 0.451661,-0.286952 0.989814,-0.920136 1.632759,-1.921198 0.580993,-0.90461 1.283736,-1.202549 2.837856,-1.205094 1.551025,-0.0023 2.160562,0.291041 2.875977,1.390747 1.200302,1.845038 2.309754,2.487372 2.960519,1.713978 0.360522,-0.428447 0.426509,-0.842406 0.409431,-2.565996 -0.03111,-3.131006 -0.849546,-5.979338 -2.02893,-7.066455 -0.314103,-0.289533 -0.557986,-0.429217 -0.825499,-0.42933 z m -6.738245,1.844933 h 0.719412 0.719406 v 0.616637 0.61664 h 0.61664 0.616633 v 0.770797 0.770791 h -0.616633 -0.61664 v 0.668023 0.668026 h -0.651444 c -0.357887,0 -0.68008,-0.03211 -0.717752,-0.06961 -0.03766,-0.03766 -0.06959,-0.336727 -0.06959,-0.666363 v -0.60007 h -0.616645 -0.616641 v -0.770793 -0.770795 h 0.616641 0.616634 v -0.616642 z m 5.86468,0 c 0.649001,0 0.926941,0.71908 0.459164,1.186861 -0.29749,0.297457 -0.568995,0.320837 -0.861967,0.07295 -0.508167,-0.429995 -0.242935,-1.259794 0.402803,-1.259794 z M 49.639599,46.221 c 0.162065,1.09e-4 0.325226,0.06468 0.454185,0.207182 0.201035,0.222143 0.222754,0.730724 0.04146,0.968054 -0.354805,0.464484 -1.20675,0.165717 -1.20675,-0.422693 0,-0.446577 0.354591,-0.752808 0.711121,-0.75256 z m 2.54777,0.02495 c 0.186795,0.0035 0.368135,0.06527 0.474076,0.18233 0.201035,0.222143 0.222724,0.730722 0.04144,0.968055 -0.377384,0.494038 -1.206751,0.163367 -1.206751,-0.480712 0,-0.195235 0.07823,-0.406835 0.18729,-0.505575 0.124687,-0.112856 0.317151,-0.167515 0.503922,-0.164093 z m -1.254823,1.329411 c 0.575374,0 0.855333,0.610306 0.507229,1.107293 -0.119001,0.169891 -0.264129,0.228754 -0.563593,0.228754 -0.344776,0 -0.424785,-0.04487 -0.563588,-0.313304 -0.273699,-0.529262 0.02495,-1.022754 0.619952,-1.022754 z" />
  </g>
</svg>
