<?xml version="1.0" encoding="UTF-8" standalone="no"?>
<svg
   width="64"
   height="64"
   version="1.1"
   id="svg73"
   sodipodi:docname="fr.handbrake.ghb.svg"
   inkscape:version="1.4.2 (ebf0e940d0, 2025-05-08)"
   xmlns:inkscape="http://www.inkscape.org/namespaces/inkscape"
   xmlns:sodipodi="http://sodipodi.sourceforge.net/DTD/sodipodi-0.dtd"
   xmlns="http://www.w3.org/2000/svg"
   xmlns:svg="http://www.w3.org/2000/svg"
   xmlns:rdf="http://www.w3.org/1999/02/22-rdf-syntax-ns#"
   xmlns:cc="http://creativecommons.org/ns#"
   xmlns:dc="http://purl.org/dc/elements/1.1/">
  <metadata
     id="metadata77">
    <rdf:RDF>
      <cc:Work
         rdf:about="">
        <dc:format>image/svg+xml</dc:format>
        <dc:type
           rdf:resource="http://purl.org/dc/dcmitype/StillImage" />
      </cc:Work>
    </rdf:RDF>
  </metadata>
  <sodipodi:namedview
     pagecolor="#f5f7fa"
     bordercolor="#666666"
     borderopacity="1"
     objecttolerance="10"
     gridtolerance="10"
     guidetolerance="10"
     inkscape:pageopacity="0"
     inkscape:pageshadow="2"
     inkscape:window-width="1377"
     inkscape:window-height="886"
     id="namedview75"
     showgrid="false"
     inkscape:zoom="6.2890625"
     inkscape:cx="48.099379"
     inkscape:cy="45.396273"
     inkscape:window-x="0"
     inkscape:window-y="47"
     inkscape:window-maximized="0"
     inkscape:current-layer="g877"
     inkscape:document-rotation="0"
     inkscape:pagecheckerboard="0"
     inkscape:showpageshadow="2"
     inkscape:deskcolor="#d1d1d1" />
  <defs
     id="defs29" />
  <circle
     cx="32.516094"
     cy="31.877844"
     r="0"
     fill="url(#b)"
     stroke-width="1.5715"
     id="circle41"
     style="fill:url(#b)" />
  <g
     aria-label="GZ"
     transform="matrix(1.2212657,0,0,0.81882264,0.4960938,-0.1661539)"
     id="text93"
     style="font-weight:bold;font-size:11.5263px;line-height:1.25;font-family:sans-serif;-inkscape-font-specification:'sans-serif Bold';fill:#f2f2f2;stroke-width:0.288159" />
  <g
     id="g877"
     transform="matrix(1.1,0,0,1.1,-3.1845928,-3.2065454)">
    <circle
       style="opacity:1;fill:#414141;stroke:#dfdfdf;stroke-width:2.27272727;stroke-dasharray:none;fill-opacity:1;stroke-opacity:1"
       id="path1"
       cx="31.985994"
       cy="32.005951"
       r="25.454546" />
    <path
       style="fill:#dfdfdf;fill-opacity:1;stroke:none;stroke-width:0.416787;stroke-dasharray:none;stroke-opacity:0.6"
       d="m 25.617765,39.471241 c 0.958798,-1.000397 1.841788,-1.853037 1.962188,-1.894745 0.120424,-0.04166 0.717857,0.0544 1.327686,0.213537 1.473303,0.384485 2.522837,0.246677 5.221037,-0.685598 2.596328,-0.897164 3.161684,-1.286598 4.040593,-2.78415 0.334812,-0.570491 0.708023,-1.000182 0.937876,-1.079812 0.209986,-0.07274 1.169624,0.01249 2.132554,0.189408 3.176769,0.583669 4.273125,0.463208 4.547408,-0.499626 0.388882,-1.365144 -1.138012,-2.086894 -4.660063,-2.202769 -0.643298,-0.02115 -1.176628,-0.05867 -1.18518,-0.08336 -0.0084,-0.02468 1.163227,-0.44314 2.603936,-0.929955 l 2.619486,-0.885073 0.221295,-0.557288 c 0.295836,-0.745137 0.06801,-1.334094 -0.595651,-1.539958 -0.473823,-0.14697 -0.757013,-0.07978 -3.08168,0.731314 -1.745579,0.609121 -2.578253,0.840226 -2.617543,0.726815 -0.03151,-0.0915 0.211432,-0.446582 0.540321,-0.789099 0.833191,-0.867766 0.83346,-0.867978 0.77391,-0.601745 -0.03524,0.157555 -0.0058,0.179864 0.08739,0.06576 0.07737,-0.09499 0.08205,-0.220536 0.01,-0.278997 -0.07172,-0.05845 0.116249,-0.2738 0.417768,-0.47855 0.650679,-0.441684 1.512238,-1.971858 1.446765,-2.569131 -0.03144,-0.287296 -0.193944,-0.514761 -0.515022,-0.720904 -0.949466,-0.609661 -2.282995,0.314453 -4.295852,2.976943 -1.058541,1.400173 -1.559107,1.714041 -2.513318,1.575917 -0.895668,-0.129644 -3.55688,0.419702 -5.200162,1.073462 -1.207809,0.480538 -1.793545,0.820787 -2.961968,1.7207 -0.801034,0.616959 -1.589161,1.123424 -1.751381,1.125482 -0.162199,0.0021 -1.521309,-0.15134 -3.020183,-0.340872 -2.341667,-0.296115 -2.798916,-0.304894 -3.248837,-0.06237 -0.71882,0.387456 -0.864473,0.695403 -0.635476,1.343541 0.308033,0.871405 1.586953,1.44291 3.0356,1.356249 1.051837,-0.06292 2.453397,0.188766 2.445158,0.439085 -0.0045,0.135608 -0.79595,0.556657 -2.267106,1.206097 -1.243135,0.548786 -2.394372,1.114551 -2.558307,1.257285 -0.631021,0.549423 -0.351445,1.633088 0.531943,2.061883 0.410801,0.199441 0.534578,0.171194 2.099774,-0.478131 0.914783,-0.379527 1.846662,-0.80154 2.070838,-0.93784 0.718758,-0.436983 0.489277,0.157123 -0.403806,1.045338 -0.984749,0.979417 -1.533993,2.153721 -1.214995,2.597694 0.318661,0.443554 0.839319,0.65895 1.405347,0.581433 0.413699,-0.05666 0.817848,-0.39612 2.247671,-1.887987 z m -2.449539,0.545538 c 0.06662,-0.181055 0.813386,-1.01468 1.659552,-1.852518 1.88188,-1.863375 2.187379,-2.308793 1.98472,-2.893772 -0.08357,-0.241296 -0.254105,-0.461557 -0.378929,-0.48948 -0.287233,-0.06426 -1.114372,0.289853 -2.577507,1.103394 -1.279603,0.711513 -3.79941,1.641952 -3.872825,1.430042 -0.0772,-0.222861 0.30957,-0.468526 1.882477,-1.195737 0.819627,-0.378935 1.98093,-0.941402 2.580679,-1.2499 0.599753,-0.308509 1.218733,-0.622475 1.375493,-0.697717 0.282572,-0.135621 0.36909,-0.370554 0.350046,-0.9505 -0.01505,-0.458244 1.886263,-2.259062 3.067302,-2.905181 0.587348,-0.32133 1.769386,-0.786633 2.74873,-1.082051 1.437732,-0.433682 1.904629,-0.504977 2.860005,-0.43663 0.627969,0.04491 1.383583,0.03674 1.679134,-0.01815 0.508033,-0.0944 0.541666,-0.07101 0.616118,0.428208 0.05039,0.337929 0.168274,0.560235 0.327191,0.617491 0.150625,0.05424 1.538286,-0.351337 3.525147,-1.030319 1.802235,-0.615768 3.330309,-1.093772 3.395828,-1.061944 0.409277,0.198671 -0.450441,0.591425 -3.038297,1.388028 -3.136372,0.965451 -3.478081,1.164144 -3.155414,1.834657 0.201123,0.418071 0.705679,0.518313 4.411443,0.87658 1.441835,0.139389 2.238549,0.461302 1.96688,0.794706 -0.125192,0.15365 -1.607368,-0.02056 -4.204403,-0.494217 -0.905155,-0.165078 -1.810145,-0.24336 -2.011107,-0.173954 -0.214693,0.07414 -0.553959,0.47754 -0.822631,0.978128 -0.828438,1.543503 -1.331771,1.897576 -4.040046,2.841993 -2.284419,0.796376 -2.407842,0.822472 -3.457929,0.717536 -0.598904,-0.05971 -1.398066,-0.264638 -1.775925,-0.455398 -0.377869,-0.190761 -0.763285,-0.320424 -0.856489,-0.288135 -0.09317,0.03228 -0.433773,0.396309 -0.756805,0.808936 -0.92986,1.187759 -3.163541,3.630358 -3.393949,3.711393 -0.177638,0.06248 -0.191112,0.02394 -0.08851,-0.25546 z M 35.76377,32.058316 c 0.209632,-0.182736 -0.04564,-0.936632 -0.37052,-1.094357 -0.540171,-0.262204 -1.231921,0.300903 -1.042238,0.848431 0.175138,0.505538 0.958578,0.641907 1.412796,0.245917 z m -5.477866,1.594412 c 0.155899,-0.619471 -0.274501,-1.029863 -0.865416,-0.825147 -0.759108,0.262982 -0.827695,0.999677 -0.12106,1.300164 0.516112,0.219465 0.852456,0.05751 0.986476,-0.475017 z m -6.303548,-0.865093 c -0.689482,-0.08647 -1.785491,-0.157609 -2.43558,-0.158058 -1.279424,-9e-4 -2.649133,-0.454942 -2.196904,-0.728244 0.136344,-0.0824 0.511725,-0.111337 0.834237,-0.06431 0.322505,0.04703 1.068629,0.142458 1.658055,0.212099 0.589426,0.06962 1.317841,0.169616 1.618699,0.222176 0.300836,0.05255 0.873366,0.145209 1.272234,0.205899 1.116155,0.169819 1.169975,0.191683 1.160761,0.471553 -0.0076,0.227803 -0.05082,0.244579 -0.333321,0.128834 -0.178533,-0.07308 -0.888755,-0.203621 -1.578234,-0.290094 z m 13.372185,-4.667189 c -0.01972,-0.05677 1.446428,-1.855035 2.404404,-2.949081 0.230683,-0.263504 0.264427,-0.278133 0.135869,-0.05891 -0.094,0.160291 -0.169535,0.389348 -0.167747,0.50901 0.0019,0.119656 -0.478402,0.716674 -1.067077,1.326704 -1.095597,1.135353 -1.265368,1.287829 -1.30537,1.172363 z m 2.980487,-3.337357 c -0.197573,-0.04652 -0.193811,-0.139953 0.01683,-0.43155 0.148073,-0.204706 0.403571,-0.418704 0.567757,-0.475584 0.279907,-0.09696 0.284391,-0.07177 0.07173,0.403396 -0.249938,0.558746 -0.29068,0.589945 -0.656629,0.503741 z"
       id="path1-26" />
    <circle
       style="fill:#414141;fill-opacity:1;stroke:#dfdfdf;stroke-width:1.08705;stroke-dasharray:none;stroke-opacity:1"
       id="path1-6"
       cx="48.320271"
       cy="48.287033"
       r="12.17483" />
    <path
       id="path1-3"
       style="fill:#dfdfdf;fill-opacity:1;stroke:none;stroke-width:0.20182;stroke-dasharray:none;stroke-dashoffset:2.2;stroke-opacity:0.6"
       d="m 51.761355,43.058253 c -0.20805,-8.7e-5 -0.430751,0.08369 -0.709468,0.246992 -0.663244,0.38861 -1.530643,0.57188 -2.721813,0.57188 -1.191057,0 -2.087392,-0.187174 -2.746686,-0.573538 -0.528668,-0.309806 -0.844291,-0.313912 -1.287974,-0.01478 -1.13908,0.767625 -1.997557,3.228765 -2.249396,6.444848 -0.151015,1.928547 -0.0099,2.945286 0.488995,3.517478 0.240643,0.275876 0.831407,0.229104 1.364229,-0.109404 0.451661,-0.286952 0.989814,-0.920136 1.632759,-1.921198 0.580993,-0.90461 1.283736,-1.202549 2.837856,-1.205094 1.551025,-0.0023 2.160562,0.291041 2.875977,1.390747 1.200302,1.845038 2.309754,2.487372 2.960519,1.713978 0.360522,-0.428447 0.426509,-0.842406 0.409431,-2.565996 -0.03111,-3.131006 -0.849546,-5.979338 -2.02893,-7.066455 -0.314103,-0.289533 -0.557986,-0.429217 -0.825499,-0.42933 z m -6.738245,1.844933 h 0.719412 0.719406 v 0.616637 0.61664 h 0.61664 0.616633 v 0.770797 0.770791 h -0.616633 -0.61664 v 0.668023 0.668026 h -0.651444 c -0.357887,0 -0.68008,-0.03211 -0.717752,-0.06961 -0.03766,-0.03766 -0.06959,-0.336727 -0.06959,-0.666363 v -0.60007 h -0.616645 -0.616641 v -0.770793 -0.770795 h 0.616641 0.616634 v -0.616642 z m 5.86468,0 c 0.649001,0 0.926941,0.71908 0.459164,1.186861 -0.29749,0.297457 -0.568995,0.320837 -0.861967,0.07295 -0.508167,-0.429995 -0.242935,-1.259794 0.402803,-1.259794 z M 49.639599,46.221 c 0.162065,1.09e-4 0.325226,0.06468 0.454185,0.207182 0.201035,0.222143 0.222754,0.730724 0.04146,0.968054 -0.354805,0.464484 -1.20675,0.165717 -1.20675,-0.422693 0,-0.446577 0.354591,-0.752808 0.711121,-0.75256 z m 2.54777,0.02495 c 0.186795,0.0035 0.368135,0.06527 0.474076,0.18233 0.201035,0.222143 0.222724,0.730722 0.04144,0.968055 -0.377384,0.494038 -1.206751,0.163367 -1.206751,-0.480712 0,-0.195235 0.07823,-0.406835 0.18729,-0.505575 0.124687,-0.112856 0.317151,-0.167515 0.503922,-0.164093 z m -1.254823,1.329411 c 0.575374,0 0.855333,0.610306 0.507229,1.107293 -0.119001,0.169891 -0.264129,0.228754 -0.563593,0.228754 -0.344776,0 -0.424785,-0.04487 -0.563588,-0.313304 -0.273699,-0.529262 0.02495,-1.022754 0.619952,-1.022754 z" />
  </g>
</svg>
