<?xml version="1.0" encoding="UTF-8" standalone="no"?>
<svg
   width="64"
   height="64"
   version="1.1"
   id="svg73"
   sodipodi:docname="fr.handbrake.ghb.svg"
   inkscape:version="1.4.2 (ebf0e940d0, 2025-05-08)"
   xmlns:inkscape="http://www.inkscape.org/namespaces/inkscape"
   xmlns:sodipodi="http://sodipodi.sourceforge.net/DTD/sodipodi-0.dtd"
   xmlns="http://www.w3.org/2000/svg"
   xmlns:svg="http://www.w3.org/2000/svg"
   xmlns:rdf="http://www.w3.org/1999/02/22-rdf-syntax-ns#"
   xmlns:cc="http://creativecommons.org/ns#"
   xmlns:dc="http://purl.org/dc/elements/1.1/">
  <metadata
     id="metadata77">
    <rdf:RDF>
      <cc:Work
         rdf:about="">
        <dc:format>image/svg+xml</dc:format>
        <dc:type
           rdf:resource="http://purl.org/dc/dcmitype/StillImage" />
      </cc:Work>
    </rdf:RDF>
  </metadata>
  <sodipodi:namedview
     pagecolor="#f5f7fa"
     bordercolor="#666666"
     borderopacity="1"
     objecttolerance="10"
     gridtolerance="10"
     guidetolerance="10"
     inkscape:pageopacity="0"
     inkscape:pageshadow="2"
     inkscape:window-width="1377"
     inkscape:window-height="886"
     id="namedview75"
     showgrid="false"
     inkscape:zoom="6.2890625"
     inkscape:cx="48.099379"
     inkscape:cy="45.396273"
     inkscape:window-x="0"
     inkscape:window-y="47"
     inkscape:window-maximized="0"
     inkscape:current-layer="g877"
     inkscape:document-rotation="0"
     inkscape:pagecheckerboard="0"
     inkscape:showpageshadow="2"
     inkscape:deskcolor="#d1d1d1" />
  <defs
     id="defs29" />
  <circle
     cx="32.516094"
     cy="31.877844"
     r="0"
     fill="url(#b)"
     stroke-width="1.5715"
     id="circle41"
     style="fill:url(#b)" />
  <g
     aria-label="GZ"
     transform="matrix(1.2212657,0,0,0.81882264,0.4960938,-0.1661539)"
     id="text93"
     style="font-weight:bold;font-size:11.5263px;line-height:1.25;font-family:sans-serif;-inkscape-font-specification:'sans-serif Bold';fill:#f2f2f2;stroke-width:0.288159" />
  <g
     id="g877"
     transform="matrix(1.1,0,0,1.1,-3.1845928,-3.2065454)">
    <circle
       style="opacity:1;fill:#414141;stroke:#dfdfdf;stroke-width:2.27272727;stroke-dasharray:none;fill-opacity:1;stroke-opacity:1"
       id="path1"
       cx="31.985994"
       cy="32.005951"
       r="25.454546" />
    <path
       style="fill:#dfdfdf;fill-opacity:1;stroke-width:0.466198"
       d="m 31.233443,44.787489 c -0.225151,-0.576915 -0.645221,-1.929095 -0.933492,-3.004843 -0.323399,-1.206841 -1.393918,-2.907591 -2.79526,-4.44088 -2.252169,-2.464235 -2.265134,-2.496559 -1.552825,-3.871548 1.060675,-2.047454 1.446036,-2.122281 3.92172,-0.761493 l 2.255407,1.239708 2.331222,-1.282039 c 1.282173,-0.705121 2.430999,-1.282038 2.552941,-1.282038 0.121933,0 0.623203,0.782572 1.113902,1.739048 l 0.892185,1.739048 -2.268542,2.482143 c -1.399105,1.53085 -2.469415,3.231764 -2.792668,4.438051 -0.787677,2.939402 -1.29048,4.053786 -1.82904,4.053786 -0.2674,0 -0.670399,-0.472018 -0.89555,-1.048943 z M 20.162437,33.490115 c 0.940635,-1.231912 1.710243,-2.524354 1.710243,-2.872094 0,-0.384366 0.521119,-0.632252 1.329154,-0.632252 0.731035,0 2.333833,-0.534195 3.561776,-1.187098 3.551607,-1.888408 4.143679,-1.261668 1.299419,1.375505 -1.338854,1.241373 -2.543385,2.6008 -2.676735,3.020948 -0.140426,0.442445 -1.175959,0.998974 -2.460779,1.322508 -1.220079,0.30723 -2.725699,0.705688 -3.345823,0.885462 -1.058582,0.30688 -1.022962,0.189949 0.582745,-1.912979 z m 4.350854,-0.971605 c 0.388557,-1.012561 -0.597863,-1.964791 -1.303925,-1.258729 -0.596746,0.596747 -0.227062,1.989359 0.528098,1.989359 0.2725,0 0.621626,-0.328785 0.775827,-0.73063 z m 18.401234,2.34407 c -0.862761,-0.374578 -2.05491,-0.681048 -2.649211,-0.681048 -0.633905,0 -1.191422,-0.349321 -1.348776,-0.8451 -0.147522,-0.464806 -1.349276,-1.880877 -2.670563,-3.146823 -2.802349,-2.684976 -2.22878,-3.289616 1.325638,-1.397454 1.233209,0.656488 2.820783,1.193614 3.527941,1.193614 0.80134,0 1.28575,0.250008 1.28575,0.663585 0,0.364972 0.732871,1.6237 1.628607,2.797176 1.712164,2.243055 1.483592,2.537468 -1.099386,1.41605 z m -1.618176,-2.34407 c 0.388553,-1.012561 -0.597866,-1.964791 -1.303927,-1.258729 -0.596747,0.596747 -0.227075,1.989359 0.528096,1.989359 0.272502,0 0.621631,-0.328785 0.775831,-0.73063 z M 21.87268,28.572206 c 0,-1.483862 1.161186,-3.839582 2.502157,-5.076172 1.407942,-1.298347 2.026494,-1.063914 1.211391,0.45912 -0.330619,0.61777 -0.447022,1.850089 -0.285837,3.026068 0.293258,2.139547 -0.06814,2.53835 -2.300349,2.53835 -0.822504,0 -1.127362,-0.256184 -1.127362,-0.947366 z m 17.379421,0.643154 c -0.386637,-0.156662 -0.481502,-0.86988 -0.29585,-2.224314 0.162444,-1.185318 0.04716,-2.416285 -0.284501,-3.035892 -0.815101,-1.523034 -0.196553,-1.757467 1.211389,-0.45912 1.340972,1.23659 2.502159,3.59231 2.502159,5.076172 0,0.731615 -0.291954,0.938984 -1.282042,0.910561 -0.705117,-0.02026 -1.538142,-0.140578 -1.851161,-0.267407 z m -9.372823,-5.436736 c -2.011671,-2.141324 -0.670318,-5.603156 2.17105,-5.603156 3.103679,0 4.520171,3.548031 2.263049,5.668487 -1.399805,1.315049 -3.161688,1.289089 -4.434099,-0.06533 z"
       id="path293" />
    <circle
       style="fill:#414141;fill-opacity:1;stroke:#dfdfdf;stroke-width:1.08705;stroke-dasharray:none;stroke-opacity:1"
       id="path1-6"
       cx="48.320271"
       cy="48.287033"
       r="12.17483" />
    <path
       id="path1-3"
       style="fill:#dfdfdf;fill-opacity:1;stroke:none;stroke-width:0.20182;stroke-dasharray:none;stroke-dashoffset:2.2;stroke-opacity:0.6"
       d="m 51.761355,43.058253 c -0.20805,-8.7e-5 -0.430751,0.08369 -0.709468,0.246992 -0.663244,0.38861 -1.530643,0.57188 -2.721813,0.57188 -1.191057,0 -2.087392,-0.187174 -2.746686,-0.573538 -0.528668,-0.309806 -0.844291,-0.313912 -1.287974,-0.01478 -1.13908,0.767625 -1.997557,3.228765 -2.249396,6.444848 -0.151015,1.928547 -0.0099,2.945286 0.488995,3.517478 0.240643,0.275876 0.831407,0.229104 1.364229,-0.109404 0.451661,-0.286952 0.989814,-0.920136 1.632759,-1.921198 0.580993,-0.90461 1.283736,-1.202549 2.837856,-1.205094 1.551025,-0.0023 2.160562,0.291041 2.875977,1.390747 1.200302,1.845038 2.309754,2.487372 2.960519,1.713978 0.360522,-0.428447 0.426509,-0.842406 0.409431,-2.565996 -0.03111,-3.131006 -0.849546,-5.979338 -2.02893,-7.066455 -0.314103,-0.289533 -0.557986,-0.429217 -0.825499,-0.42933 z m -6.738245,1.844933 h 0.719412 0.719406 v 0.616637 0.61664 h 0.61664 0.616633 v 0.770797 0.770791 h -0.616633 -0.61664 v 0.668023 0.668026 h -0.651444 c -0.357887,0 -0.68008,-0.03211 -0.717752,-0.06961 -0.03766,-0.03766 -0.06959,-0.336727 -0.06959,-0.666363 v -0.60007 h -0.616645 -0.616641 v -0.770793 -0.770795 h 0.616641 0.616634 v -0.616642 z m 5.86468,0 c 0.649001,0 0.926941,0.71908 0.459164,1.186861 -0.29749,0.297457 -0.568995,0.320837 -0.861967,0.07295 -0.508167,-0.429995 -0.242935,-1.259794 0.402803,-1.259794 z M 49.639599,46.221 c 0.162065,1.09e-4 0.325226,0.06468 0.454185,0.207182 0.201035,0.222143 0.222754,0.730724 0.04146,0.968054 -0.354805,0.464484 -1.20675,0.165717 -1.20675,-0.422693 0,-0.446577 0.354591,-0.752808 0.711121,-0.75256 z m 2.54777,0.02495 c 0.186795,0.0035 0.368135,0.06527 0.474076,0.18233 0.201035,0.222143 0.222724,0.730722 0.04144,0.968055 -0.377384,0.494038 -1.206751,0.163367 -1.206751,-0.480712 0,-0.195235 0.07823,-0.406835 0.18729,-0.505575 0.124687,-0.112856 0.317151,-0.167515 0.503922,-0.164093 z m -1.254823,1.329411 c 0.575374,0 0.855333,0.610306 0.507229,1.107293 -0.119001,0.169891 -0.264129,0.228754 -0.563593,0.228754 -0.344776,0 -0.424785,-0.04487 -0.563588,-0.313304 -0.273699,-0.529262 0.02495,-1.022754 0.619952,-1.022754 z" />
  </g>
</svg>
