<?xml version="1.0" encoding="UTF-8" standalone="no"?>
<svg
   width="64"
   height="64"
   version="1.1"
   id="svg73"
   sodipodi:docname="fr.handbrake.ghb.svg"
   inkscape:version="1.4.2 (ebf0e940d0, 2025-05-08)"
   xmlns:inkscape="http://www.inkscape.org/namespaces/inkscape"
   xmlns:sodipodi="http://sodipodi.sourceforge.net/DTD/sodipodi-0.dtd"
   xmlns="http://www.w3.org/2000/svg"
   xmlns:svg="http://www.w3.org/2000/svg"
   xmlns:rdf="http://www.w3.org/1999/02/22-rdf-syntax-ns#"
   xmlns:cc="http://creativecommons.org/ns#"
   xmlns:dc="http://purl.org/dc/elements/1.1/">
  <metadata
     id="metadata77">
    <rdf:RDF>
      <cc:Work
         rdf:about="">
        <dc:format>image/svg+xml</dc:format>
        <dc:type
           rdf:resource="http://purl.org/dc/dcmitype/StillImage" />
      </cc:Work>
    </rdf:RDF>
  </metadata>
  <sodipodi:namedview
     pagecolor="#f5f7fa"
     bordercolor="#666666"
     borderopacity="1"
     objecttolerance="10"
     gridtolerance="10"
     guidetolerance="10"
     inkscape:pageopacity="0"
     inkscape:pageshadow="2"
     inkscape:window-width="1377"
     inkscape:window-height="886"
     id="namedview75"
     showgrid="false"
     inkscape:zoom="6.2890625"
     inkscape:cx="48.099379"
     inkscape:cy="45.396273"
     inkscape:window-x="0"
     inkscape:window-y="47"
     inkscape:window-maximized="0"
     inkscape:current-layer="g877"
     inkscape:document-rotation="0"
     inkscape:pagecheckerboard="0"
     inkscape:showpageshadow="2"
     inkscape:deskcolor="#d1d1d1" />
  <defs
     id="defs29" />
  <circle
     cx="32.516094"
     cy="31.877844"
     r="0"
     fill="url(#b)"
     stroke-width="1.5715"
     id="circle41"
     style="fill:url(#b)" />
  <g
     aria-label="GZ"
     transform="matrix(1.2212657,0,0,0.81882264,0.4960938,-0.1661539)"
     id="text93"
     style="font-weight:bold;font-size:11.5263px;line-height:1.25;font-family:sans-serif;-inkscape-font-specification:'sans-serif Bold';fill:#f2f2f2;stroke-width:0.288159" />
  <g
     id="g877"
     transform="matrix(1.1,0,0,1.1,-3.1845928,-3.2065454)">
    <circle
       style="opacity:1;fill:#414141;stroke:#dfdfdf;stroke-width:2.27272727;stroke-dasharray:none;fill-opacity:1;stroke-opacity:1"
       id="path1"
       cx="31.985994"
       cy="32.005951"
       r="25.454546" />
    <path
       style="fill:#dfdfdf;fill-opacity:1;stroke:none;stroke-width:0.434234;stroke-dasharray:none;stroke-opacity:0.6"
       d="m 18.656767,45.592902 c 0.03331,-0.03115 1.511094,-0.927324 3.283966,-1.991146 l 3.22339,-1.93422 -3.435377,-0.02983 -3.435384,-0.02983 3.512894,-2.112959 c 1.932085,-1.162129 3.540152,-2.128533 3.573461,-2.147555 0.0333,-0.01945 -0.239254,0.302186 -0.605675,0.713783 -2.0112,2.259172 -2.452287,2.763503 -2.452611,2.804244 -1.9e-4,0.02495 1.419819,0.05197 3.155592,0.06061 l 3.155942,0.0159 -4.948838,2.331831 c -5.093439,2.399513 -5.130085,2.416429 -5.02736,2.319888 z m 16.523269,0.0022 c 0.01727,-0.02741 1.314396,-0.922132 2.882376,-1.988104 l 2.850886,-1.938157 -3.042562,-0.03018 -3.042549,-0.03018 3.119201,-2.124607 c 1.715556,-1.168844 3.127535,-2.118985 3.137729,-2.111735 0.01021,0.0075 -0.596242,0.793187 -1.347621,1.746502 -0.751379,0.953313 -1.366135,1.746733 -1.366135,1.76315 0,0.01669 1.274172,0.03018 2.831515,0.03018 l 2.831504,0.0014 -3.815734,2.03168 c -2.09864,1.117414 -4.097952,2.182197 -4.442906,2.366202 -0.344965,0.183978 -0.613023,0.312035 -0.595702,0.284573 z m -7.451348,-1.726863 c 0.359203,-0.343589 1.903659,-1.810283 3.432124,-3.259354 1.528465,-1.449069 2.781293,-2.654894 2.784084,-2.679605 0.0022,-0.0252 -1.604708,-0.05197 -3.572194,-0.06053 l -3.577268,-0.01562 1.562876,-1.483897 c 4.083537,-3.877222 5.347393,-5.102455 5.315864,-5.153468 -0.04798,-0.07763 -0.613355,-0.06916 -0.772983,0.01157 -0.07278,0.03676 -1.365776,1.297341 -2.873351,2.801228 l -2.741057,2.734249 -0.923252,-0.0022 c -0.881395,-0.0022 -0.949336,-0.0113 -1.498637,-0.199952 -1.977465,-0.679601 -3.30557,-2.360109 -3.484324,-4.409279 l -0.04224,-0.484253 -0.421469,-0.143484 c -1.125783,-0.383285 -2.090177,-1.361086 -2.519281,-2.554312 -0.144851,-0.402834 -0.159766,-0.526136 -0.159766,-1.322476 0,-0.796344 0.01488,-0.919641 0.159769,-1.322478 0.586227,-1.630157 2.000533,-2.688052 3.729557,-2.789701 l 0.623749,-0.03668 0.138642,-0.393688 c 0.587834,-1.669154 1.906429,-3.127071 3.506358,-3.876822 3.058653,-1.433336 6.666154,-0.453711 8.551797,2.322259 0.214729,0.316106 0.409063,0.538516 0.483231,0.553011 0.06822,0.01332 0.296773,0.05519 0.507861,0.09301 0.860355,0.15417 1.912286,0.608544 2.6271,1.134762 l 0.359147,0.264402 0.333484,-0.221342 c 0.695071,-0.461362 1.502405,-0.670505 2.377755,-0.615963 1.544634,0.09625 2.83202,1.076029 3.380867,2.573048 0.300817,0.820602 0.244835,2.032084 -0.131311,2.842456 -0.127446,0.274489 -0.134543,0.323721 -0.05614,0.388745 0.155614,0.129188 0.554265,0.85646 0.685162,1.25008 0.201486,0.605971 0.26525,1.22632 0.186689,1.816559 -0.132379,0.995103 -0.494717,1.718544 -1.227473,2.45106 -0.378946,0.378824 -0.576412,0.520607 -1.029629,0.739233 -0.6004,0.289622 -1.277945,0.459505 -1.832672,0.459505 -0.790513,0 -1.799714,-0.338113 -2.46342,-0.825327 l -0.296507,-0.217671 -0.406764,0.271729 c -1.074021,0.717434 -2.200512,1.098982 -3.465465,1.173738 -0.83523,0.04937 -2.240985,-0.133084 -2.240985,-0.290848 0,-0.0306 0.354324,-0.717246 0.787376,-1.525823 0.654385,-1.221836 0.78738,-1.513505 0.78738,-1.726863 0,-0.281205 -0.101717,-0.522951 -0.292797,-0.695866 -0.121946,-0.110352 -0.125987,-0.10735 -0.324178,0.241694 -0.110379,0.194396 -0.790462,1.403097 -1.511301,2.686003 l -1.310605,2.33255 3.318304,0.03028 3.318312,0.03029 -5.120876,3.815724 c -2.816487,2.098648 -5.164478,3.837914 -5.217763,3.865025 -0.05325,0.02713 0.197017,-0.231738 0.556221,-0.575385 z"
       id="path1-3-5-9" />
    <circle
       style="fill:#414141;fill-opacity:1;stroke:#dfdfdf;stroke-width:1.08705;stroke-dasharray:none;stroke-opacity:1"
       id="path1-6"
       cx="48.320271"
       cy="48.287033"
       r="12.17483" />
    <path
       id="path1-3"
       style="fill:#dfdfdf;fill-opacity:1;stroke:none;stroke-width:0.20182;stroke-dasharray:none;stroke-dashoffset:2.2;stroke-opacity:0.6"
       d="m 51.761355,43.058253 c -0.20805,-8.7e-5 -0.430751,0.08369 -0.709468,0.246992 -0.663244,0.38861 -1.530643,0.57188 -2.721813,0.57188 -1.191057,0 -2.087392,-0.187174 -2.746686,-0.573538 -0.528668,-0.309806 -0.844291,-0.313912 -1.287974,-0.01478 -1.13908,0.767625 -1.997557,3.228765 -2.249396,6.444848 -0.151015,1.928547 -0.0099,2.945286 0.488995,3.517478 0.240643,0.275876 0.831407,0.229104 1.364229,-0.109404 0.451661,-0.286952 0.989814,-0.920136 1.632759,-1.921198 0.580993,-0.90461 1.283736,-1.202549 2.837856,-1.205094 1.551025,-0.0023 2.160562,0.291041 2.875977,1.390747 1.200302,1.845038 2.309754,2.487372 2.960519,1.713978 0.360522,-0.428447 0.426509,-0.842406 0.409431,-2.565996 -0.03111,-3.131006 -0.849546,-5.979338 -2.02893,-7.066455 -0.314103,-0.289533 -0.557986,-0.429217 -0.825499,-0.42933 z m -6.738245,1.844933 h 0.719412 0.719406 v 0.616637 0.61664 h 0.61664 0.616633 v 0.770797 0.770791 h -0.616633 -0.61664 v 0.668023 0.668026 h -0.651444 c -0.357887,0 -0.68008,-0.03211 -0.717752,-0.06961 -0.03766,-0.03766 -0.06959,-0.336727 -0.06959,-0.666363 v -0.60007 h -0.616645 -0.616641 v -0.770793 -0.770795 h 0.616641 0.616634 v -0.616642 z m 5.86468,0 c 0.649001,0 0.926941,0.71908 0.459164,1.186861 -0.29749,0.297457 -0.568995,0.320837 -0.861967,0.07295 -0.508167,-0.429995 -0.242935,-1.259794 0.402803,-1.259794 z M 49.639599,46.221 c 0.162065,1.09e-4 0.325226,0.06468 0.454185,0.207182 0.201035,0.222143 0.222754,0.730724 0.04146,0.968054 -0.354805,0.464484 -1.20675,0.165717 -1.20675,-0.422693 0,-0.446577 0.354591,-0.752808 0.711121,-0.75256 z m 2.54777,0.02495 c 0.186795,0.0035 0.368135,0.06527 0.474076,0.18233 0.201035,0.222143 0.222724,0.730722 0.04144,0.968055 -0.377384,0.494038 -1.206751,0.163367 -1.206751,-0.480712 0,-0.195235 0.07823,-0.406835 0.18729,-0.505575 0.124687,-0.112856 0.317151,-0.167515 0.503922,-0.164093 z m -1.254823,1.329411 c 0.575374,0 0.855333,0.610306 0.507229,1.107293 -0.119001,0.169891 -0.264129,0.228754 -0.563593,0.228754 -0.344776,0 -0.424785,-0.04487 -0.563588,-0.313304 -0.273699,-0.529262 0.02495,-1.022754 0.619952,-1.022754 z" />
  </g>
</svg>
