<?xml version="1.0" encoding="UTF-8" standalone="no"?>
<svg
   width="64"
   height="64"
   version="1.1"
   id="svg73"
   sodipodi:docname="fr.handbrake.ghb.svg"
   inkscape:version="1.4.2 (ebf0e940d0, 2025-05-08)"
   xmlns:inkscape="http://www.inkscape.org/namespaces/inkscape"
   xmlns:sodipodi="http://sodipodi.sourceforge.net/DTD/sodipodi-0.dtd"
   xmlns="http://www.w3.org/2000/svg"
   xmlns:svg="http://www.w3.org/2000/svg"
   xmlns:rdf="http://www.w3.org/1999/02/22-rdf-syntax-ns#"
   xmlns:cc="http://creativecommons.org/ns#"
   xmlns:dc="http://purl.org/dc/elements/1.1/">
  <metadata
     id="metadata77">
    <rdf:RDF>
      <cc:Work
         rdf:about="">
        <dc:format>image/svg+xml</dc:format>
        <dc:type
           rdf:resource="http://purl.org/dc/dcmitype/StillImage" />
      </cc:Work>
    </rdf:RDF>
  </metadata>
  <sodipodi:namedview
     pagecolor="#f5f7fa"
     bordercolor="#666666"
     borderopacity="1"
     objecttolerance="10"
     gridtolerance="10"
     guidetolerance="10"
     inkscape:pageopacity="0"
     inkscape:pageshadow="2"
     inkscape:window-width="1377"
     inkscape:window-height="886"
     id="namedview75"
     showgrid="false"
     inkscape:zoom="6.2890625"
     inkscape:cx="48.099379"
     inkscape:cy="45.396273"
     inkscape:window-x="0"
     inkscape:window-y="47"
     inkscape:window-maximized="0"
     inkscape:current-layer="g877"
     inkscape:document-rotation="0"
     inkscape:pagecheckerboard="0"
     inkscape:showpageshadow="2"
     inkscape:deskcolor="#d1d1d1" />
  <defs
     id="defs29" />
  <circle
     cx="32.516094"
     cy="31.877844"
     r="0"
     fill="url(#b)"
     stroke-width="1.5715"
     id="circle41"
     style="fill:url(#b)" />
  <g
     aria-label="GZ"
     transform="matrix(1.2212657,0,0,0.81882264,0.4960938,-0.1661539)"
     id="text93"
     style="font-weight:bold;font-size:11.5263px;line-height:1.25;font-family:sans-serif;-inkscape-font-specification:'sans-serif Bold';fill:#f2f2f2;stroke-width:0.288159" />
  <g
     id="g877"
     transform="matrix(1.1,0,0,1.1,-3.1845928,-3.2065454)">
    <circle
       style="opacity:1;fill:#414141;stroke:#dfdfdf;stroke-width:2.27272727;stroke-dasharray:none;fill-opacity:1;stroke-opacity:1"
       id="path1"
       cx="31.985994"
       cy="32.005951"
       r="25.454546" />
    <path
       style="fill:#dfdfdf;fill-opacity:1;stroke-width:0.0490731"
       d="m 22.918009,45.506018 c -0.01472,-0.114721 -0.09391,-0.66126 -0.175971,-1.214558 -0.257824,-1.738455 -0.314837,-2.521867 -0.285695,-3.925845 0.01887,-0.90913 0.0538,-1.432544 0.127681,-1.91385 0.383183,-2.495934 1.302706,-4.471865 2.898246,-6.227933 l 0.433133,-0.476711 -0.276061,-0.414033 c -0.804528,-1.206624 -1.852063,-1.816224 -3.737861,-2.175195 -0.679945,-0.129432 -2.341334,-0.323766 -3.668211,-0.429076 -0.411602,-0.03268 -0.748364,-0.0741 -0.748364,-0.09207 0,-0.06952 2.369893,-1.2264 3.091603,-1.509198 2.279952,-0.893391 3.897333,-1.238483 5.804523,-1.238483 0.955557,0 1.544154,0.05571 2.366142,0.223927 1.012647,0.207247 2.001111,0.541243 2.819364,0.952654 l 0.413477,0.207891 0.140186,-0.164698 c 0.531002,-0.623872 0.929178,-1.365747 1.115591,-2.078552 0.229608,-0.877984 0.176545,-2.097024 -0.148769,-3.417639 -0.24465,-0.99316 -0.809788,-2.958035 -0.906612,-3.15213 -0.03945,-0.07909 -0.07175,-0.152001 -0.07175,-0.162043 0,-0.01 0.176738,0.111469 0.392748,0.270023 0.48518,0.356119 1.50266,1.27867 1.92536,1.74573 0.716681,0.791895 1.548277,1.954667 2.119638,2.963775 1.359233,2.40061 1.835555,5.176311 1.324768,7.719947 -0.0248,0.122947 -0.0079,0.133877 0.430596,0.278449 1.210036,0.399059 2.394945,0.319027 3.725901,-0.251654 0.487354,-0.208966 1.274379,-0.613327 2.496475,-1.282655 0.283392,-0.155216 0.78026,-0.414819 1.104142,-0.576901 0.323883,-0.162079 0.649606,-0.337656 0.723825,-0.390164 0.07424,-0.05253 0.134948,-0.08221 0.134948,-0.06601 0,0.01619 -0.184271,0.398641 -0.40952,0.849851 -0.551981,1.105786 -1.317637,2.402132 -1.788812,3.02867 -1.98218,2.635785 -4.240759,4.277589 -6.953798,5.054843 -0.473797,0.135757 -1.566757,0.367726 -1.732457,0.367726 -0.08561,0 -0.10592,0.04163 -0.135378,0.277424 -0.08997,0.720144 0.04541,1.566202 0.367666,2.297667 0.359661,0.816371 1.294747,1.873874 2.630791,2.975207 0.405919,0.334608 1.126882,0.928582 1.602146,1.319942 0.475262,0.391352 0.858505,0.71757 0.851653,0.724921 -0.02933,0.0315 -1.443539,-0.154078 -2.21037,-0.290012 -1.082837,-0.191971 -1.466985,-0.282847 -2.357268,-0.557658 -3.676175,-1.134777 -6.235353,-3.049431 -7.826384,-5.85534 -0.296241,-0.522445 -0.24221,-0.506822 -0.861796,-0.249202 -0.805582,0.334969 -1.574225,0.982811 -2.090117,1.761633 -0.347539,0.524665 -1.059355,1.956087 -1.909244,3.839391 -0.362213,0.802638 -0.672259,1.459604 -0.688991,1.459919 -0.01672,7.42e-4 -0.04247,-0.09327 -0.05718,-0.207968 z m 14.290178,-1.572015 c -0.01121,-0.0079 -0.233201,-0.184402 -0.493265,-0.392747 -0.567341,-0.454532 -1.274205,-1.183168 -1.618744,-1.668604 -0.700869,-0.987478 -1.054309,-2.20641 -0.975502,-3.364269 l 0.02453,-0.360502 -2.339171,0.01696 c -1.286546,0.0095 -2.353314,0.03113 -2.370596,0.04842 -0.04869,0.04873 0.562666,1.04747 0.957971,1.565018 0.665977,0.87192 1.706199,1.808277 2.745797,2.471629 0.859218,0.548255 2.306616,1.182514 3.680479,1.612815 0.312313,0.09781 0.46983,0.126675 0.388495,0.07123 z M 24.001335,40.698449 c 0.560555,-1.232658 1.406597,-2.248551 2.375575,-2.852488 0.387504,-0.241503 1.124716,-0.569482 1.283639,-0.571049 0.06666,-6.71e-4 0.08216,-0.02376 0.05772,-0.08677 -0.16088,-0.413646 -0.465238,-1.365225 -0.691881,-2.163162 -0.29035,-1.022237 -0.544367,-1.871672 -0.616282,-2.060856 -0.04189,-0.110175 -0.05234,-0.104359 -0.300822,0.167155 -1.415632,1.546904 -2.297388,3.526788 -2.588063,5.811222 -0.07593,0.596784 -0.118901,2.058228 -0.07567,2.574449 l 0.03683,0.439772 0.184532,-0.464308 c 0.101489,-0.255385 0.251995,-0.612652 0.334443,-0.793962 z m 12.58933,-3.970469 c 2.409645,-0.522336 4.566496,-1.90232 6.370985,-4.076251 0.3302,-0.397803 0.939925,-1.21741 0.905663,-1.21741 -0.01121,0 -0.171457,0.09223 -0.356397,0.204946 -0.808151,0.492554 -1.853965,0.915879 -2.716305,1.099507 -0.505163,0.107569 -1.645225,0.122859 -2.085605,0.02796 -0.261519,-0.05634 -0.986014,-0.267977 -1.136095,-0.331862 -0.03492,-0.01486 -0.107678,0.131652 -0.190405,0.383283 -0.152641,0.464252 -0.589204,1.574404 -0.932081,2.370247 -0.204341,0.474269 -0.661256,1.635773 -0.661256,1.680915 0,0.02166 0.265926,-0.02533 0.801506,-0.141342 z m -3.991254,-0.469248 c 1.572952,-0.575399 3.408876,-1.812686 3.77373,-2.543236 0.361674,-0.724184 -0.0459,-1.287925 -1.629428,-2.25366 -0.887568,-0.5413 -1.260989,-0.992867 -1.260989,-1.524876 0,-0.110063 -0.04238,-0.192668 -0.146422,-0.285362 -0.15877,-0.141466 -0.260353,-0.346076 -0.313972,-0.632405 -0.04359,-0.232776 -0.132152,-0.295456 -0.09513,-0.06733 0.01515,0.09333 0.0025,0.241244 -0.02791,0.328706 -0.04703,0.134889 -0.03996,0.188694 0.0465,0.35459 0.06215,0.119212 0.09069,0.240386 0.07312,0.310347 -0.02754,0.10969 -0.125081,0.163951 -0.125081,0.06958 0,-0.02486 -0.104893,-0.149698 -0.233099,-0.277423 -0.128201,-0.12772 -0.288301,-0.333053 -0.355776,-0.456296 -0.07032,-0.128438 -0.213641,-0.285002 -0.335797,-0.36683 -0.198735,-0.133119 -0.211892,-0.155574 -0.194995,-0.332743 0.02098,-0.220148 -0.03253,-0.25646 -0.0738,-0.05007 -0.03638,0.181888 0.0046,0.33537 0.146335,0.546224 0.160304,0.238717 0.152625,0.486185 -0.0202,0.65106 -0.273935,0.261329 -0.645226,0.312194 -0.779791,0.106822 -0.0787,-0.120089 -0.07753,-0.137052 0.02339,-0.344823 0.122791,-0.252735 0.130653,-0.387803 0.03254,-0.559403 -0.06899,-0.120694 -0.07017,-0.119249 -0.07186,0.08911 -0.0023,0.289699 -0.07477,0.411638 -0.232941,0.392429 -0.117871,-0.01432 -0.13529,0.01167 -0.260615,0.388446 -0.09792,0.294417 -0.215628,0.512808 -0.434563,0.806287 -0.279108,0.374172 -0.339107,0.424755 -0.852406,0.718662 -1.370078,0.784484 -1.996396,1.387371 -1.998264,1.9235 -0.0011,0.274684 0.215393,0.669433 0.542098,0.989114 0.771828,0.755235 2.186068,1.597573 3.431262,2.043707 0.671242,0.240485 0.649666,0.240876 1.374046,-0.024 z M 31.2499,35.977514 c -1.260565,-0.334984 -2.762566,-1.312769 -3.096723,-2.015932 -0.144007,-0.30303 -0.163783,-0.872417 -0.0387,-1.114296 0.189585,-0.366617 0.877707,-0.930053 1.736846,-1.422136 0.58521,-0.335189 1.541739,-0.628779 2.04858,-0.628779 0.367129,0 1.134292,0.212614 1.651952,0.457834 0.59423,0.28149 1.403985,0.81937 1.7486,1.161509 0.385299,0.382531 0.458861,0.562101 0.426099,1.040103 -0.02215,0.323367 -0.05142,0.423767 -0.183367,0.6294 -0.417423,0.650498 -1.879989,1.589131 -2.894699,1.85774 -0.607936,0.16093 -0.896231,0.168052 -1.398582,0.03456 z m 1.126641,-0.348979 c 1.168748,-0.304418 1.902323,-1.384639 1.740219,-2.562537 -0.170334,-1.237673 -1.419226,-2.148762 -2.645144,-1.929677 -1.107944,0.198 -1.913572,1.149866 -1.913572,2.260921 0,1.475556 1.416049,2.596586 2.818497,2.231293 z M 31.58941,35.165403 c -0.152997,-0.06189 -0.356166,-0.326744 -0.390324,-0.508825 -0.02006,-0.107024 0.0066,-0.266734 0.08003,-0.477018 0.150681,-0.432147 0.152096,-1.11456 0.0034,-1.567488 -0.126851,-0.385998 -0.129207,-0.451717 -0.02415,-0.67313 0.103822,-0.218782 0.328616,-0.357035 0.580537,-0.357035 0.283711,0 0.487048,0.143294 0.591521,0.416849 0.08593,0.225013 0.08551,0.235547 -0.02298,0.572366 -0.164213,0.509866 -0.181577,0.966379 -0.05382,1.414997 0.154928,0.544051 0.162453,0.642078 0.06397,0.833264 -0.162178,0.314834 -0.527649,0.46755 -0.828071,0.34602 z m -4.243559,-4.612314 c 0.211229,-0.160794 0.745435,-0.528498 1.187126,-0.817119 1.905766,-1.24532 2.496093,-1.642713 2.496093,-1.680302 0,-0.02203 -0.188042,-0.121687 -0.417876,-0.22151 -1.468789,-0.63792 -2.676064,-0.895317 -4.267592,-0.909863 -1.522477,-0.01392 -3.033016,0.260453 -4.785632,0.869247 l -0.269904,0.09376 0.318974,0.03501 c 1.620444,0.1779 2.591992,0.454232 3.507753,0.997703 0.490126,0.290872 1.287075,1.074484 1.59585,1.569144 0.121452,0.194576 0.227651,0.354337 0.235993,0.355027 0.0083,6.7e-4 0.187988,-0.130304 0.399215,-0.291095 z m 9.567321,-0.406938 c 0.402062,-2.726684 -0.384775,-5.442217 -2.337659,-8.067744 -0.206639,-0.277812 -0.379947,-0.500192 -0.385127,-0.494176 -0.0052,0.006 0.04289,0.21703 0.106847,0.468926 0.432305,1.702859 0.391363,3.048181 -0.130942,4.302821 -0.153204,0.368004 -0.579934,1.051433 -0.875678,1.402434 l -0.148571,0.176327 0.353965,0.240791 c 0.194681,0.132437 0.862049,0.618717 1.483045,1.08062 1.106082,0.822717 1.77777,1.294855 1.842133,1.294855 0.01774,0 0.05916,-0.182185 0.09201,-0.404855 z"
       id="path1-1-1" />
    <circle
       style="fill:#414141;fill-opacity:1;stroke:#dfdfdf;stroke-width:1.08705;stroke-dasharray:none;stroke-opacity:1"
       id="path1-6"
       cx="48.320271"
       cy="48.287033"
       r="12.17483" />
    <path
       id="path1-3"
       style="fill:#dfdfdf;fill-opacity:1;stroke:none;stroke-width:0.20182;stroke-dasharray:none;stroke-dashoffset:2.2;stroke-opacity:0.6"
       d="m 51.761355,43.058253 c -0.20805,-8.7e-5 -0.430751,0.08369 -0.709468,0.246992 -0.663244,0.38861 -1.530643,0.57188 -2.721813,0.57188 -1.191057,0 -2.087392,-0.187174 -2.746686,-0.573538 -0.528668,-0.309806 -0.844291,-0.313912 -1.287974,-0.01478 -1.13908,0.767625 -1.997557,3.228765 -2.249396,6.444848 -0.151015,1.928547 -0.0099,2.945286 0.488995,3.517478 0.240643,0.275876 0.831407,0.229104 1.364229,-0.109404 0.451661,-0.286952 0.989814,-0.920136 1.632759,-1.921198 0.580993,-0.90461 1.283736,-1.202549 2.837856,-1.205094 1.551025,-0.0023 2.160562,0.291041 2.875977,1.390747 1.200302,1.845038 2.309754,2.487372 2.960519,1.713978 0.360522,-0.428447 0.426509,-0.842406 0.409431,-2.565996 -0.03111,-3.131006 -0.849546,-5.979338 -2.02893,-7.066455 -0.314103,-0.289533 -0.557986,-0.429217 -0.825499,-0.42933 z m -6.738245,1.844933 h 0.719412 0.719406 v 0.616637 0.61664 h 0.61664 0.616633 v 0.770797 0.770791 h -0.616633 -0.61664 v 0.668023 0.668026 h -0.651444 c -0.357887,0 -0.68008,-0.03211 -0.717752,-0.06961 -0.03766,-0.03766 -0.06959,-0.336727 -0.06959,-0.666363 v -0.60007 h -0.616645 -0.616641 v -0.770793 -0.770795 h 0.616641 0.616634 v -0.616642 z m 5.86468,0 c 0.649001,0 0.926941,0.71908 0.459164,1.186861 -0.29749,0.297457 -0.568995,0.320837 -0.861967,0.07295 -0.508167,-0.429995 -0.242935,-1.259794 0.402803,-1.259794 z M 49.639599,46.221 c 0.162065,1.09e-4 0.325226,0.06468 0.454185,0.207182 0.201035,0.222143 0.222754,0.730724 0.04146,0.968054 -0.354805,0.464484 -1.20675,0.165717 -1.20675,-0.422693 0,-0.446577 0.354591,-0.752808 0.711121,-0.75256 z m 2.54777,0.02495 c 0.186795,0.0035 0.368135,0.06527 0.474076,0.18233 0.201035,0.222143 0.222724,0.730722 0.04144,0.968055 -0.377384,0.494038 -1.206751,0.163367 -1.206751,-0.480712 0,-0.195235 0.07823,-0.406835 0.18729,-0.505575 0.124687,-0.112856 0.317151,-0.167515 0.503922,-0.164093 z m -1.254823,1.329411 c 0.575374,0 0.855333,0.610306 0.507229,1.107293 -0.119001,0.169891 -0.264129,0.228754 -0.563593,0.228754 -0.344776,0 -0.424785,-0.04487 -0.563588,-0.313304 -0.273699,-0.529262 0.02495,-1.022754 0.619952,-1.022754 z" />
  </g>
</svg>
