<?xml version="1.0" encoding="UTF-8" standalone="no"?>
<svg
   width="64"
   height="64"
   version="1.1"
   id="svg73"
   sodipodi:docname="fr.handbrake.ghb.svg"
   inkscape:version="1.4.2 (ebf0e940d0, 2025-05-08)"
   xmlns:inkscape="http://www.inkscape.org/namespaces/inkscape"
   xmlns:sodipodi="http://sodipodi.sourceforge.net/DTD/sodipodi-0.dtd"
   xmlns="http://www.w3.org/2000/svg"
   xmlns:svg="http://www.w3.org/2000/svg"
   xmlns:rdf="http://www.w3.org/1999/02/22-rdf-syntax-ns#"
   xmlns:cc="http://creativecommons.org/ns#"
   xmlns:dc="http://purl.org/dc/elements/1.1/">
  <metadata
     id="metadata77">
    <rdf:RDF>
      <cc:Work
         rdf:about="">
        <dc:format>image/svg+xml</dc:format>
        <dc:type
           rdf:resource="http://purl.org/dc/dcmitype/StillImage" />
      </cc:Work>
    </rdf:RDF>
  </metadata>
  <sodipodi:namedview
     pagecolor="#f5f7fa"
     bordercolor="#666666"
     borderopacity="1"
     objecttolerance="10"
     gridtolerance="10"
     guidetolerance="10"
     inkscape:pageopacity="0"
     inkscape:pageshadow="2"
     inkscape:window-width="1377"
     inkscape:window-height="886"
     id="namedview75"
     showgrid="false"
     inkscape:zoom="6.2890625"
     inkscape:cx="48.099379"
     inkscape:cy="45.396273"
     inkscape:window-x="0"
     inkscape:window-y="47"
     inkscape:window-maximized="0"
     inkscape:current-layer="g877"
     inkscape:document-rotation="0"
     inkscape:pagecheckerboard="0"
     inkscape:showpageshadow="2"
     inkscape:deskcolor="#d1d1d1" />
  <defs
     id="defs29" />
  <circle
     cx="32.516094"
     cy="31.877844"
     r="0"
     fill="url(#b)"
     stroke-width="1.5715"
     id="circle41"
     style="fill:url(#b)" />
  <g
     aria-label="GZ"
     transform="matrix(1.2212657,0,0,0.81882264,0.4960938,-0.1661539)"
     id="text93"
     style="font-weight:bold;font-size:11.5263px;line-height:1.25;font-family:sans-serif;-inkscape-font-specification:'sans-serif Bold';fill:#f2f2f2;stroke-width:0.288159" />
  <g
     id="g877"
     transform="matrix(1.1,0,0,1.1,-3.1845928,-3.2065454)">
    <circle
       style="opacity:1;fill:#414141;stroke:#dfdfdf;stroke-width:2.27272727;stroke-dasharray:none;fill-opacity:1;stroke-opacity:1"
       id="path1"
       cx="31.985994"
       cy="32.005951"
       r="25.454546" />
    <path
       style="fill:#dfdfdf;fill-opacity:1;stroke:none;stroke-width:0.413556;stroke-dasharray:none;stroke-opacity:0.6"
       d="m 29.184146,20.810127 c -2.660217,0 -5.462075,0.691778 -8.341648,2.058256 -2.343891,1.112275 -3.346068,2.029957 -2.791836,2.557654 0.195508,0.186152 0.06033,0.224904 3.34343,-0.993154 2.243696,-0.832427 5.003245,-1.534724 6.495004,-1.654787 2.303401,-0.185385 5.046771,0.391083 9.903325,2.079419 1.743998,0.606284 3.749601,1.243114 4.456494,1.41496 1.511829,0.367523 1.671038,0.31052 2.931497,0.314593 l 0.890169,0.0014 v -0.720885 c 0,-0.822266 -0.102686,-0.756151 -1.19206,-0.756151 -2.428621,0 -3.034429,-0.372692 -6.689679,-1.914359 -3.915109,-1.651292 -6.286903,-2.38696 -9.004696,-2.38696 z m -1.633627,5.786816 c -0.41291,0.01515 -0.781397,0.0532 -1.077795,0.114268 -1.367047,0.281586 -3.198124,1.304843 -4.32107,2.343226 -1.740608,1.609534 -3.708189,4.618946 -3.515538,5.377702 0.08675,0.341678 0.178915,0.364794 1.712626,0.428862 0.890338,0.03718 2.634017,0.238955 4.000832,0.447203 l 2.515332,0.376666 v 1.059458 c -0.428707,1.941741 -0.122834,2.990351 -0.04655,3.697525 0.285694,2.5594 0.289411,2.837963 0.950831,2.745282 1.021753,-1.660966 0.994214,-4.84684 1.001616,-6.68263 l 1.042531,1.010082 c 2.856317,2.519323 3.914134,2.700183 6.363801,3.878103 2.026142,0.825821 3.763274,1.191734 5.720513,1.049575 1.203156,0 2.722215,-1.333496 2.721301,-2.875067 -4.96e-4,-1.188685 -0.335613,-2.19269 -1.149745,-2.574579 -1.496689,-0.702056 -3.155809,0.130538 -3.155809,1.688645 0,1.529243 1.473878,2.378878 2.451856,1.412136 0.407954,-0.403263 0.508357,-1.08353 0.21864,-1.492553 -0.128555,-0.181609 -0.14236,-0.15126 -0.06209,0.129779 0.277049,0.969836 -0.478426,1.641832 -1.347252,1.197711 -0.90799,-0.464146 -0.736045,-1.955138 0.253952,-2.200742 0.489008,-0.121326 1.345445,0.662191 1.666071,1.309155 0.172762,0.348648 0.179156,0.560989 0.03096,1.049582 -0.485825,1.602891 -2.668916,1.611057 -5.954688,0.02641 -0.796351,-0.383603 -1.864362,-0.962772 -2.372749,-1.287583 -0.876226,-0.559825 -2.01726,-1.246223 -3.546576,-2.574584 -0.810154,-0.703704 -0.855996,-0.607282 1.25696,-0.948012 0.607474,-0.09795 2.383745,-0.608041 3.945811,-1.132815 2.775091,-0.932285 2.880518,-1.151793 4.576404,-1.163853 0.954611,-0.0067 -0.631527,-0.0667 0.952246,0.0014 l 2.965358,0.122699 v -1.402239 -1.543339 l -3.437947,-0.08462 c -4.793824,-0.124485 -2.456863,-0.235043 -7.404923,-2.124587 -0.944831,-0.360808 -1.952031,-0.796981 -2.612672,-0.967763 -1.171565,-0.302862 -3.1035,-0.455972 -4.342227,-0.410522 z m 5.613296,2.458904 c 0.05745,0 0.875147,0.458899 2.193686,1.017137 1.318542,0.558234 2.568525,1.055867 2.776317,1.107419 0.207785,0.05156 0.376673,0.14974 0.376673,0.215843 0,0.06612 -0.798401,0.512545 -1.774704,0.991744 -1.990999,0.977242 -3.171771,1.386855 -5.095563,1.481268 l -0.474004,0.01972 0.512096,-0.399236 c 0.282096,-0.219769 0.708001,-0.727366 0.9466,-1.128588 0.378546,-0.636538 0.434506,-0.893121 0.434506,-2.015933 0,-0.707719 0.04694,-1.28941 0.104398,-1.289409 z m -8.302144,0.339985 c 0.236466,-0.0443 0.234783,0.318325 0.236999,1.042529 0.0044,1.425178 0.350598,2.201772 1.345836,3.018963 l 0.65035,0.533257 -3.346252,-0.280737 c -1.62529,-0.153252 -2.887427,-0.311937 -2.931501,-0.355504 -0.157964,-0.156143 1.003493,-1.349384 2.281153,-2.561886 0.951312,-0.902795 1.526938,-1.352332 1.763415,-1.396622 z"
       id="path3-8" />
    <circle
       style="fill:#414141;fill-opacity:1;stroke:#dfdfdf;stroke-width:1.08705;stroke-dasharray:none;stroke-opacity:1"
       id="path1-6"
       cx="48.320271"
       cy="48.287033"
       r="12.17483" />
    <path
       id="path1-3"
       style="fill:#dfdfdf;fill-opacity:1;stroke:none;stroke-width:0.20182;stroke-dasharray:none;stroke-dashoffset:2.2;stroke-opacity:0.6"
       d="m 51.761355,43.058253 c -0.20805,-8.7e-5 -0.430751,0.08369 -0.709468,0.246992 -0.663244,0.38861 -1.530643,0.57188 -2.721813,0.57188 -1.191057,0 -2.087392,-0.187174 -2.746686,-0.573538 -0.528668,-0.309806 -0.844291,-0.313912 -1.287974,-0.01478 -1.13908,0.767625 -1.997557,3.228765 -2.249396,6.444848 -0.151015,1.928547 -0.0099,2.945286 0.488995,3.517478 0.240643,0.275876 0.831407,0.229104 1.364229,-0.109404 0.451661,-0.286952 0.989814,-0.920136 1.632759,-1.921198 0.580993,-0.90461 1.283736,-1.202549 2.837856,-1.205094 1.551025,-0.0023 2.160562,0.291041 2.875977,1.390747 1.200302,1.845038 2.309754,2.487372 2.960519,1.713978 0.360522,-0.428447 0.426509,-0.842406 0.409431,-2.565996 -0.03111,-3.131006 -0.849546,-5.979338 -2.02893,-7.066455 -0.314103,-0.289533 -0.557986,-0.429217 -0.825499,-0.42933 z m -6.738245,1.844933 h 0.719412 0.719406 v 0.616637 0.61664 h 0.61664 0.616633 v 0.770797 0.770791 h -0.616633 -0.61664 v 0.668023 0.668026 h -0.651444 c -0.357887,0 -0.68008,-0.03211 -0.717752,-0.06961 -0.03766,-0.03766 -0.06959,-0.336727 -0.06959,-0.666363 v -0.60007 h -0.616645 -0.616641 v -0.770793 -0.770795 h 0.616641 0.616634 v -0.616642 z m 5.86468,0 c 0.649001,0 0.926941,0.71908 0.459164,1.186861 -0.29749,0.297457 -0.568995,0.320837 -0.861967,0.07295 -0.508167,-0.429995 -0.242935,-1.259794 0.402803,-1.259794 z M 49.639599,46.221 c 0.162065,1.09e-4 0.325226,0.06468 0.454185,0.207182 0.201035,0.222143 0.222754,0.730724 0.04146,0.968054 -0.354805,0.464484 -1.20675,0.165717 -1.20675,-0.422693 0,-0.446577 0.354591,-0.752808 0.711121,-0.75256 z m 2.54777,0.02495 c 0.186795,0.0035 0.368135,0.06527 0.474076,0.18233 0.201035,0.222143 0.222724,0.730722 0.04144,0.968055 -0.377384,0.494038 -1.206751,0.163367 -1.206751,-0.480712 0,-0.195235 0.07823,-0.406835 0.18729,-0.505575 0.124687,-0.112856 0.317151,-0.167515 0.503922,-0.164093 z m -1.254823,1.329411 c 0.575374,0 0.855333,0.610306 0.507229,1.107293 -0.119001,0.169891 -0.264129,0.228754 -0.563593,0.228754 -0.344776,0 -0.424785,-0.04487 -0.563588,-0.313304 -0.273699,-0.529262 0.02495,-1.022754 0.619952,-1.022754 z" />
  </g>
</svg>
