<?xml version="1.0" encoding="UTF-8" standalone="no"?>
<svg
   width="64"
   height="64"
   version="1.1"
   id="svg73"
   sodipodi:docname="fr.handbrake.ghb.svg"
   inkscape:version="1.4.2 (ebf0e940d0, 2025-05-08)"
   xmlns:inkscape="http://www.inkscape.org/namespaces/inkscape"
   xmlns:sodipodi="http://sodipodi.sourceforge.net/DTD/sodipodi-0.dtd"
   xmlns="http://www.w3.org/2000/svg"
   xmlns:svg="http://www.w3.org/2000/svg"
   xmlns:rdf="http://www.w3.org/1999/02/22-rdf-syntax-ns#"
   xmlns:cc="http://creativecommons.org/ns#"
   xmlns:dc="http://purl.org/dc/elements/1.1/">
  <metadata
     id="metadata77">
    <rdf:RDF>
      <cc:Work
         rdf:about="">
        <dc:format>image/svg+xml</dc:format>
        <dc:type
           rdf:resource="http://purl.org/dc/dcmitype/StillImage" />
      </cc:Work>
    </rdf:RDF>
  </metadata>
  <sodipodi:namedview
     pagecolor="#f5f7fa"
     bordercolor="#666666"
     borderopacity="1"
     objecttolerance="10"
     gridtolerance="10"
     guidetolerance="10"
     inkscape:pageopacity="0"
     inkscape:pageshadow="2"
     inkscape:window-width="1377"
     inkscape:window-height="886"
     id="namedview75"
     showgrid="false"
     inkscape:zoom="6.2890625"
     inkscape:cx="48.099379"
     inkscape:cy="45.396273"
     inkscape:window-x="0"
     inkscape:window-y="47"
     inkscape:window-maximized="0"
     inkscape:current-layer="g877"
     inkscape:document-rotation="0"
     inkscape:pagecheckerboard="0"
     inkscape:showpageshadow="2"
     inkscape:deskcolor="#d1d1d1" />
  <defs
     id="defs29" />
  <circle
     cx="32.516094"
     cy="31.877844"
     r="0"
     fill="url(#b)"
     stroke-width="1.5715"
     id="circle41"
     style="fill:url(#b)" />
  <g
     aria-label="GZ"
     transform="matrix(1.2212657,0,0,0.81882264,0.4960938,-0.1661539)"
     id="text93"
     style="font-weight:bold;font-size:11.5263px;line-height:1.25;font-family:sans-serif;-inkscape-font-specification:'sans-serif Bold';fill:#f2f2f2;stroke-width:0.288159" />
  <g
     id="g877"
     transform="matrix(1.1,0,0,1.1,-3.1845928,-3.2065454)">
    <circle
       style="opacity:1;fill:#414141;stroke:#dfdfdf;stroke-width:2.27272727;stroke-dasharray:none;fill-opacity:1;stroke-opacity:1"
       id="path1"
       cx="31.985994"
       cy="32.005951"
       r="25.454546" />
    <path
       style="fill:#dfdfdf;fill-opacity:1;stroke:none;stroke-width:0.434234;stroke-dasharray:none;stroke-opacity:0.6"
       d="m 34.994125,45.929649 c 0,-0.04003 -0.03275,-0.07284 -0.07277,-0.07284 -0.04002,0 -0.07277,-0.03018 -0.07277,-0.06754 0,-0.03716 -0.0382,-0.08247 -0.0849,-0.100456 -0.08087,-0.03116 -0.08087,-0.03576 0,-0.09544 0.04668,-0.03434 0.0849,-0.109199 0.0849,-0.166384 0,-0.05994 0.03078,-0.10374 0.07277,-0.10374 0.04851,0 0.07277,-0.04848 0.07277,-0.145476 0,-0.09704 0.02426,-0.145479 0.07278,-0.145479 0.04002,0 0.07277,-0.03283 0.07277,-0.07271 0,-0.04003 0.03275,-0.07267 0.07277,-0.07267 0.04852,0 0.07278,-0.04847 0.07278,-0.145478 0,-0.09706 0.02425,-0.145502 0.07277,-0.145502 0.04002,0 0.07277,-0.03283 0.07277,-0.07284 0,-0.04003 0.0203,-0.07281 0.04524,-0.07281 0.02491,0 0.05933,-0.04435 0.07653,-0.09857 0.01714,-0.0542 0.08468,-0.156218 0.149977,-0.226695 0.06526,-0.07043 0.13144,-0.178936 0.147029,-0.240974 0.01561,-0.06209 0.04526,-0.112978 0.06592,-0.112978 0.02066,0 0.04958,-0.04585 0.06424,-0.101883 0.01465,-0.0561 0.04991,-0.08754 0.07842,-0.06989 0.03236,0.02 0.05179,-0.02413 0.05179,-0.116349 0,-0.09955 0.02388,-0.148355 0.07277,-0.148355 0.04529,0 0.07277,-0.04583 0.07277,-0.121282 0,-0.07555 0.02749,-0.121278 0.07278,-0.121278 0.04851,0 0.07271,-0.04852 0.07271,-0.145504 0,-0.08728 0.02328,-0.140572 0.05794,-0.133392 0.03187,0.0068 0.07294,-0.05338 0.09128,-0.133502 0.01836,-0.07999 0.03626,-0.123693 0.03983,-0.09704 0.01315,0.09782 0.10057,-0.101186 0.101278,-0.230422 5.19e-4,-0.08593 0.02685,-0.133475 0.07352,-0.133475 0.05232,0 0.07277,-0.05347 0.07277,-0.18995 0,-0.104483 0.023,-0.197622 0.05085,-0.206995 0.02804,-0.0093 0.06379,-0.142188 0.07956,-0.29506 0.0159,-0.152929 0.0448,-0.278152 0.06447,-0.278152 0.02,0 0.04605,-0.12443 0.05868,-0.276463 0.01232,-0.152078 0.048,-0.284841 0.07876,-0.295091 0.03049,-0.01021 0.05581,-0.10481 0.05581,-0.210145 0,-0.125446 0.02521,-0.201158 0.07271,-0.219489 0.04744,-0.01837 0.07271,-0.0936 0.07271,-0.216803 0,-0.135531 0.02,-0.188799 0.07284,-0.188799 0.05251,0 0.07278,-0.05391 0.07278,-0.194033 0,-0.140189 0.01973,-0.194059 0.07271,-0.194059 0.0539,0 0.07284,-0.05656 0.07284,-0.218339 0,-0.161727 0.01863,-0.218285 0.07276,-0.218285 0.05374,0 0.07284,-0.05612 0.07284,-0.214255 0,-0.125992 0.02466,-0.224367 0.06065,-0.238699 0.04165,-0.01669 0.03782,-0.02576 -0.01232,-0.02893 -0.06466,-0.0041 -0.06466,-0.0099 0,-0.05078 0.09208,-0.05842 0.100185,-0.79323 0.0099,-0.883656 -0.08027,-0.0803 -0.07826,-0.703355 0.0023,-0.730182 0.04631,-0.01561 0.06433,-0.371672 0.07651,-1.504844 0.01315,-1.245041 0.0041,-1.510606 -0.05745,-1.645378 -0.04066,-0.08913 -0.08045,-0.342828 -0.08933,-0.5693 -0.01041,-0.268723 -0.03665,-0.415382 -0.07599,-0.428515 -0.04502,-0.01504 -0.05993,-0.27771 -0.05993,-1.05892 0,-0.891171 -0.01021,-1.038951 -0.07284,-1.038951 -0.05931,0 -0.07271,-0.08084 -0.07271,-0.436604 0,-0.35575 -0.01315,-0.436602 -0.07284,-0.436602 -0.05978,0 -0.07271,-0.0858 -0.07271,-0.48107 0,-0.341746 -0.01727,-0.486924 -0.06065,-0.501271 -0.04105,-0.01368 -0.06624,-0.167674 -0.07785,-0.477037 -0.0095,-0.251264 -0.03848,-0.470059 -0.06429,-0.486224 -0.02547,-0.01623 -0.05921,-0.119857 -0.07398,-0.230433 -0.01453,-0.110568 -0.04312,-0.201038 -0.06288,-0.201038 -0.02,0 -0.0499,-0.08733 -0.06693,-0.194048 -0.017,-0.106727 -0.05259,-0.194045 -0.079,-0.194045 -0.02631,0 -0.04796,-0.05278 -0.04796,-0.117314 0,-0.158845 -0.04919,-0.276083 -0.102103,-0.243383 -0.02383,0.01479 -0.04373,-0.0454 -0.04408,-0.133678 -9e-4,-0.2166 -0.04938,-0.383627 -0.101884,-0.351165 -0.02358,0.01465 -0.04297,-0.05108 -0.04297,-0.146074 0,-0.121127 -0.02192,-0.172654 -0.07276,-0.172654 -0.05252,0 -0.07271,-0.0539 -0.07271,-0.194043 0,-0.140141 -0.02028,-0.194047 -0.07278,-0.194047 -0.04851,0 -0.07278,-0.04851 -0.07278,-0.145534 0,-0.09704 -0.02438,-0.145535 -0.07278,-0.145535 -0.05276,0 -0.07278,-0.0543 -0.07278,-0.197513 0,-0.110882 -0.0319,-0.229427 -0.07277,-0.270272 -0.04007,-0.04012 -0.07281,-0.134988 -0.07281,-0.21091 0,-0.07591 -0.0232,-0.145776 -0.05163,-0.15524 -0.02844,-0.0095 -0.06404,-0.109524 -0.07916,-0.222344 -0.01511,-0.112822 -0.04411,-0.205126 -0.06437,-0.205126 -0.0203,0 -0.05055,-0.05458 -0.06729,-0.121283 -0.01679,-0.0667 -0.05183,-0.121285 -0.07802,-0.121285 -0.02618,0 -0.0476,-0.05527 -0.0476,-0.122801 0,-0.06754 -0.03275,-0.135371 -0.07277,-0.150727 -0.03993,-0.01512 -0.07269,-0.08066 -0.07269,-0.145348 0,-0.06468 -0.03275,-0.130178 -0.07278,-0.145534 -0.04003,-0.01532 -0.07277,-0.08085 -0.07277,-0.145533 0,-0.0647 -0.03275,-0.130179 -0.07277,-0.145532 -0.04002,-0.01538 -0.07278,-0.08016 -0.07278,-0.144011 0,-0.07085 -0.02833,-0.116091 -0.07277,-0.116091 -0.04002,0 -0.07277,-0.03431 -0.07277,-0.07622 0,-0.04193 -0.03275,-0.108981 -0.07278,-0.149001 -0.04002,-0.04003 -0.07277,-0.114866 -0.07277,-0.166318 0,-0.05145 -0.0203,-0.09356 -0.04524,-0.09356 -0.02492,0 -0.06018,-0.04706 -0.07843,-0.104594 -0.01831,-0.05755 -0.08179,-0.150311 -0.141233,-0.206176 -0.05942,-0.05586 -0.122788,-0.161602 -0.140784,-0.234986 -0.01805,-0.07337 -0.05414,-0.133409 -0.08032,-0.133409 -0.02618,0 -0.0476,-0.03275 -0.0476,-0.07278 0,-0.04002 -0.03275,-0.07278 -0.07277,-0.07278 -0.04002,0 -0.07278,-0.03275 -0.07278,-0.07277 0,-0.04002 -0.03275,-0.07276 -0.07278,-0.07276 -0.04002,0 -0.07277,-0.0219 -0.07277,-0.04852 0,-0.02669 -0.03343,-0.04851 -0.0743,-0.04851 -0.04086,0 -0.08686,-0.03275 -0.102206,-0.07276 -0.01536,-0.04002 -0.0786,-0.07277 -0.140547,-0.07277 -0.06193,0 -0.142133,-0.02951 -0.178196,-0.06556 -0.03614,-0.03595 -0.184145,-0.07687 -0.328958,-0.09079 -0.14481,-0.0139 -0.271492,-0.04989 -0.281514,-0.07997 -0.01154,-0.03471 -0.165468,-0.05467 -0.421334,-0.05467 -0.313576,0 -0.409319,0.01623 -0.431038,0.07278 -0.01847,0.04805 -0.09441,0.07278 -0.223498,0.07278 -0.10757,0 -0.195567,0.02162 -0.195567,0.04795 0,0.02634 -0.08598,0.06168 -0.191048,0.0785 -0.105075,0.01686 -0.202632,0.06074 -0.216776,0.09759 -0.01414,0.03688 -0.04992,0.06704 -0.07951,0.06704 -0.06902,0 -0.337371,0.267126 -0.337371,0.335849 0,0.02873 -0.03275,0.05224 -0.07277,0.05224 -0.04002,0 -0.07278,0.04209 -0.07278,0.09356 0,0.05145 -0.03168,0.125229 -0.07038,0.163931 -0.0387,0.0387 -0.08468,0.127431 -0.102207,0.197179 -0.01746,0.06976 -0.05134,0.114752 -0.07519,0.100007 -0.02383,-0.01471 -0.04333,0.01814 -0.04333,0.07311 0,0.05645 -0.03168,0.0999 -0.07277,0.0999 -0.04002,0 -0.07278,0.03275 -0.07278,0.07278 0,0.04002 -0.03275,0.07277 -0.07278,0.07277 -0.04002,0 -0.07277,0.03275 -0.07277,0.07278 0,0.04002 -0.02142,0.07278 -0.0476,0.07278 -0.02617,0 -0.06128,0.05459 -0.07804,0.121284 -0.01679,0.0667 -0.06083,0.121283 -0.09796,0.121283 -0.03712,0 -0.06751,0.03275 -0.06751,0.07277 0,0.04002 -0.03275,0.07278 -0.07277,0.07278 -0.04002,0 -0.07278,0.02482 -0.07278,0.05508 0,0.03036 -0.05203,0.10329 -0.115605,0.162215 -0.06357,0.05892 -0.130547,0.154206 -0.1488,0.211739 -0.01833,0.05755 -0.05356,0.104605 -0.07844,0.104605 -0.02492,0 -0.04523,0.03344 -0.04523,0.07428 0,0.04086 -0.03275,0.08687 -0.07278,0.102207 -0.04148,0.0159 -0.07277,0.08826 -0.07277,0.16826 0,0.09239 -0.0249,0.140342 -0.07278,0.140342 -0.05255,0 -0.07278,0.0539 -0.07278,0.194046 0,0.140142 -0.02024,0.194047 -0.07278,0.194047 -0.04851,0 -0.07277,0.04852 -0.07277,0.145533 0,0.09703 -0.02426,0.145532 -0.07278,0.145532 -0.04002,0 -0.07021,0.01636 -0.06703,0.03638 0.01858,0.117564 -0.01512,0.206175 -0.07852,0.206175 -0.04002,0 -0.07277,0.03275 -0.07277,0.07278 0,0.04002 -0.0219,0.07278 -0.04852,0.07278 -0.02672,0 -0.04852,0.03275 -0.04852,0.07278 0,0.04002 -0.03104,0.07277 -0.06892,0.07277 -0.03791,0 -0.08331,0.06549 -0.100873,0.145533 -0.01759,0.08004 -0.05206,0.145535 -0.07661,0.145535 -0.02456,0 -0.04466,0.05527 -0.04466,0.122805 0,0.06755 -0.03275,0.135371 -0.07277,0.150729 -0.04507,0.01726 -0.07278,0.09113 -0.07278,0.194048 0,0.102905 -0.02763,0.176749 -0.07278,0.194036 -0.04424,0.01693 -0.07278,0.09037 -0.07278,0.187334 0,0.09693 -0.02849,0.170351 -0.07277,0.187334 -0.04568,0.01746 -0.07278,0.09171 -0.07278,0.199235 0,0.119937 -0.0218,0.17131 -0.07278,0.17131 -0.05224,0 -0.07278,0.05333 -0.07278,0.18885 0,0.123117 -0.0254,0.198572 -0.07277,0.216774 -0.05235,0.02008 -0.07278,0.102029 -0.07278,0.292218 0,0.156217 -0.02291,0.271913 -0.05583,0.282912 -0.03075,0.01032 -0.06616,0.143042 -0.07878,0.295111 -0.01266,0.152074 -0.04048,0.276493 -0.06193,0.276493 -0.02142,0 -0.05402,0.120067 -0.07236,0.266811 -0.01833,0.14675 -0.05266,0.266818 -0.07626,0.266818 -0.02357,0 -0.04291,0.06393 -0.04291,0.14207 0,0.07814 -0.02964,0.171727 -0.0659,0.207975 -0.03626,0.03626 -0.07641,0.192626 -0.08925,0.347509 -0.01286,0.154878 -0.05116,0.298784 -0.08511,0.31978 -0.0492,0.03041 -0.04834,0.04351 0.0043,0.06448 0.04694,0.01868 0.04856,0.02741 0.0055,0.03015 -0.08873,0.0058 -0.08873,4.886062 0,4.915534 0.04406,0.0147 0.06496,0.224305 0.07643,0.767502 0.0085,0.41105 0.03585,0.759768 0.06039,0.774927 0.02453,0.01534 0.05895,0.16822 0.07651,0.340174 0.01748,0.17192 0.0482,0.323552 0.06816,0.336869 0.01998,0.01315 0.05004,0.111609 0.06688,0.218284 0.01686,0.106726 0.05179,0.201322 0.07764,0.210171 0.02587,0.0093 0.04701,0.07567 0.04701,0.148409 0,0.07267 0.03202,0.174632 0.07124,0.226395 0.03918,0.05181 0.07192,0.143339 0.07277,0.203323 8.79e-4,0.06398 0.03168,0.109166 0.07431,0.109166 0.04851,0 0.07278,0.04851 0.07278,0.14553 0,0.09703 0.02426,0.145505 0.07277,0.145505 0.04853,0 0.07278,0.04852 0.07278,0.145531 0,0.09703 0.02425,0.145504 0.07278,0.145504 0.04002,0 0.07278,0.03282 0.07278,0.07271 0,0.04003 0.02008,0.07284 0.04466,0.07284 0.02456,0 0.05903,0.06554 0.07661,0.14553 0.01753,0.07999 0.05834,0.145506 0.09055,0.145506 0.03222,0 0.06216,0.04765 0.06656,0.105905 0.0043,0.05835 0.04178,0.124817 0.08309,0.147971 0.04131,0.02328 0.07509,0.09548 0.07509,0.160957 0,0.06542 0.0219,0.118926 0.04853,0.118926 0.02671,0 0.04853,0.03282 0.04853,0.07268 0,0.04003 0.03275,0.07271 0.07278,0.07271 0.0455,0 0.07277,0.04604 0.07277,0.122761 0,0.06754 0.03275,0.135337 0.07278,0.150655 0.04002,0.0159 0.07278,0.08084 0.07278,0.145504 0,0.06474 0.03275,0.130239 0.07278,0.145503 0.04002,0.01535 0.07277,0.08017 0.07277,0.143998 0,0.07091 0.0283,0.116129 0.07278,0.116129 0.04851,0 0.07278,0.04848 0.07278,0.145505 0,0.09694 0.02425,0.145475 0.07278,0.145475 0.04851,0 0.07277,0.04848 0.07277,0.145476 0,0.09706 0.02425,0.145477 0.07278,0.145477 0.04852,0 0.07277,0.04852 0.07277,0.145504 0,0.09706 0.02426,0.145477 0.07278,0.145477 0.04526,0 0.07277,0.04581 0.07277,0.121282 0,0.06672 0.01943,0.121253 0.04327,0.121253 0.02383,0 0.05803,0.0589 0.07612,0.130925 0.01807,0.07202 0.08594,0.180168 0.150796,0.240261 0.06485,0.0601 0.117933,0.132077 0.117933,0.16008 0,0.02773 0.03275,0.05085 0.07278,0.05085 0.04442,0 0.07278,0.04522 0.07278,0.116105 0,0.06386 0.03275,0.128595 0.07278,0.143994 0.04002,0.01534 0.07277,0.06128 0.07277,0.102186 0,0.04081 0.03275,0.0742 0.07278,0.0742 0.04527,0 0.07277,0.04581 0.07277,0.121254 0,0.07547 0.02752,0.121281 0.07278,0.121281 0.04851,0 0.07277,0.04854 0.07277,0.145502 0,0.09706 -0.02426,0.145505 -0.07277,0.145505 -0.04002,0 -0.07278,0.03283 -0.07278,0.07271 0,0.04003 -0.03275,0.07278 -0.07277,0.07278 -0.04002,0 -0.07278,0.03282 -0.07278,0.07267 0,0.05251 -0.0539,0.07271 -0.194048,0.07271 -0.140141,0 -0.194036,-0.02028 -0.194036,-0.07271 0,-0.04796 -0.04793,-0.07267 -0.140342,-0.07267 -0.07999,0 -0.152347,-0.03116 -0.168264,-0.07278 -0.01538,-0.04003 -0.06137,-0.07271 -0.102208,-0.07271 -0.04087,0 -0.07429,-0.0211 -0.07429,-0.04755 0,-0.02631 -0.05458,-0.06128 -0.121283,-0.07807 -0.0667,-0.017 -0.121285,-0.06079 -0.121285,-0.09788 0,-0.03713 -0.03275,-0.06755 -0.07278,-0.06755 -0.04002,0 -0.07277,-0.03282 -0.07277,-0.07284 0,-0.04003 -0.02142,-0.07267 -0.04759,-0.07267 -0.02618,0 -0.06128,-0.05456 -0.07802,-0.121281 -0.01669,-0.06668 -0.06081,-0.121282 -0.09794,-0.121282 -0.03712,0 -0.06753,-0.02495 -0.06753,-0.05505 0,-0.03018 -0.05459,-0.105721 -0.121283,-0.167481 -0.06671,-0.06182 -0.121283,-0.135283 -0.121283,-0.163259 0,-0.02773 -0.03275,-0.05083 -0.07278,-0.05083 -0.04002,0 -0.07278,-0.03283 -0.07278,-0.0727 0,-0.04003 -0.03275,-0.07284 -0.07277,-0.07284 -0.04002,0 -0.07278,-0.03282 -0.07278,-0.07267 0,-0.04003 -0.03275,-0.07284 -0.07278,-0.07284 -0.0411,0 -0.07277,-0.04341 -0.07277,-0.09985 0,-0.05491 -0.02121,-0.08679 -0.04709,-0.07085 -0.02589,0.01561 -0.06102,-0.02659 -0.07804,-0.09409 -0.01705,-0.06776 -0.0613,-0.12328 -0.09845,-0.12328 -0.03712,0 -0.06751,-0.03283 -0.06751,-0.07284 0,-0.04003 -0.03275,-0.07268 -0.07277,-0.07268 -0.04002,0 -0.07278,-0.03284 -0.07278,-0.07271 0,-0.04003 -0.03275,-0.07271 -0.07278,-0.07271 -0.04002,0 -0.07278,-0.03284 -0.07278,-0.07284 0,-0.04006 -0.03275,-0.07268 -0.07277,-0.07268 -0.04002,0 -0.07278,-0.03283 -0.07278,-0.07278 0,-0.04003 -0.03275,-0.07267 -0.07277,-0.07267 -0.04002,0 -0.0673,-0.01864 -0.06065,-0.04141 0.0066,-0.02219 -0.08065,-0.131967 -0.194045,-0.24248 -0.113405,-0.110704 -0.206189,-0.223024 -0.206189,-0.249687 0,-0.02659 -0.03275,-0.04856 -0.07278,-0.04856 -0.04002,0 -0.07278,-0.03284 -0.07278,-0.07267 0,-0.04003 -0.03275,-0.07271 -0.07278,-0.07271 -0.04002,0 -0.07277,-0.03284 -0.07277,-0.07268 0,-0.04003 -0.02543,-0.07276 -0.0566,-0.07276 -0.03114,0 -0.04261,-0.01424 -0.02555,-0.03082 0.0171,-0.01727 -0.07751,-0.134652 -0.210208,-0.261249 -0.132714,-0.126624 -0.241291,-0.254454 -0.241291,-0.28424 0,-0.02984 -0.03275,-0.05414 -0.07277,-0.05414 -0.04002,0 -0.07278,-0.03018 -0.07278,-0.06755 0,-0.03716 -0.03275,-0.08019 -0.07277,-0.09548 -0.04002,-0.01535 -0.07278,-0.05906 -0.07278,-0.09706 0,-0.038 -0.03275,-0.08163 -0.07278,-0.09706 -0.04002,-0.01562 -0.07278,-0.07228 -0.07278,-0.126433 0,-0.05524 -0.03195,-0.09857 -0.07277,-0.09857 -0.04853,0 -0.07278,-0.04851 -0.07278,-0.145506 0,-0.09706 -0.02425,-0.145474 -0.07278,-0.145474 -0.05223,0 -0.07278,-0.05335 -0.07278,-0.188827 0,-0.123091 -0.0254,-0.19861 -0.07277,-0.216777 -0.04253,-0.0167 -0.07278,-0.08904 -0.07278,-0.175043 0,-0.08087 -0.01902,-0.147039 -0.04231,-0.147039 -0.02325,0 -0.05629,-0.0873 -0.07333,-0.194062 -0.01707,-0.106726 -0.05261,-0.194031 -0.07896,-0.194031 -0.02632,0 -0.04793,-0.06393 -0.04793,-0.142026 0,-0.07814 -0.031,-0.173013 -0.06883,-0.210882 -0.03785,-0.03785 -0.07605,-0.132217 -0.0849,-0.209652 -0.0093,-0.08062 -0.04196,-0.135613 -0.07672,-0.128682 -0.0391,0.0071 -0.06065,-0.04702 -0.06065,-0.154191 0,-0.09147 -0.03275,-0.1991 -0.07277,-0.23908 -0.04002,-0.04003 -0.07278,-0.128871 -0.07278,-0.197537 0,-0.07854 -0.02703,-0.124739 -0.07278,-0.124739 -0.05223,0 -0.07277,-0.05333 -0.07277,-0.188835 0,-0.12312 -0.0254,-0.198571 -0.07278,-0.216776 -0.04757,-0.01831 -0.07278,-0.09383 -0.07278,-0.218306 0,-0.124468 -0.0252,-0.200044 -0.07277,-0.218303 -0.04769,-0.01833 -0.07278,-0.09394 -0.07278,-0.219452 0,-0.105338 -0.02514,-0.199903 -0.05583,-0.210143 -0.03075,-0.01032 -0.06618,-0.14298 -0.07879,-0.295062 -0.01265,-0.152074 -0.04205,-0.276493 -0.06544,-0.276493 -0.02335,0 -0.04269,-0.09277 -0.04291,-0.206171 -6.2e-4,-0.316112 -0.05696,-0.715891 -0.09737,-0.690925 -0.01989,0.0123 -0.04586,-0.112539 -0.0578,-0.277379 -0.01216,-0.168129 -0.04665,-0.30802 -0.07856,-0.318654 -0.03182,-0.0106 -0.05685,-0.111688 -0.05685,-0.229749 0,-0.12269 -0.03041,-0.241206 -0.07275,-0.283566 -0.05093,-0.05108 -0.07274,-0.1757 -0.07274,-0.415948 0,-0.272585 -0.01503,-0.343043 -0.07275,-0.343043 -0.05592,0 -0.07278,-0.06215 -0.07278,-0.268336 0,-0.193776 -0.02028,-0.276098 -0.07277,-0.296254 -0.06163,-0.02387 -0.07286,-0.188258 -0.07286,-1.065992 0,-0.95576 0.0066,-1.037862 0.0849,-1.038546 0.07255,-6.42e-4 0.0743,-0.0075 0.01216,-0.04778 -0.04851,-0.03133 -0.05255,-0.04727 -0.01216,-0.04778 0.04636,-5.67e-4 0.06066,-0.216787 0.06066,-0.917271 0,-0.731699 0.01337,-0.921672 0.06652,-0.942051 0.04914,-0.01884 0.06882,-0.148495 0.07528,-0.496302 0.0063,-0.336779 0.02878,-0.490762 0.079,-0.541007 0.04645,-0.04645 0.07023,-0.173809 0.07023,-0.376153 0,-0.19422 0.0234,-0.325326 0.06404,-0.359068 0.03524,-0.02919 0.06926,-0.16786 0.07566,-0.308069 0.0063,-0.14021 0.03379,-0.268628 0.06091,-0.285379 0.02709,-0.01679 0.06144,-0.120927 0.07627,-0.231494 0.01482,-0.110571 0.04306,-0.20104 0.06271,-0.20104 0.01966,0 0.04787,-0.09046 0.06272,-0.201041 0.01482,-0.110565 0.04729,-0.214268 0.07216,-0.230429 0.0249,-0.01623 0.06025,-0.111258 0.07862,-0.211305 0.01837,-0.10005 0.05429,-0.181928 0.07978,-0.181928 0.02555,0 0.04661,-0.114599 0.04698,-0.254677 7.95e-4,-0.301544 0.04213,-0.482249 0.101884,-0.445323 0.02359,0.01465 0.04299,-0.03839 0.04299,-0.117784 0,-0.07939 -0.02632,-0.153141 -0.05855,-0.163882 -0.03585,-0.01214 -0.06613,-0.154667 -0.0782,-0.368023 -0.01444,-0.255257 -0.03767,-0.348362 -0.08698,-0.348362 -0.04244,0 -0.0673,-0.05378 -0.0673,-0.145533 0,-0.08004 -0.02142,-0.145535 -0.04759,-0.145535 -0.02618,0 -0.06128,-0.05459 -0.07802,-0.121283 -0.01679,-0.0667 -0.04989,-0.121282 -0.07369,-0.121282 -0.02383,0 -0.04327,-0.03343 -0.04327,-0.07429 0,-0.04087 -0.03077,-0.08609 -0.0684,-0.10054 -0.03763,-0.01444 -0.08168,-0.07924 -0.09795,-0.144017 -0.01623,-0.06476 -0.05099,-0.117765 -0.07715,-0.117765 -0.02618,0 -0.0476,-0.03275 -0.0476,-0.07278 0,-0.04002 -0.03275,-0.07278 -0.07277,-0.07278 -0.04002,0 -0.07276,-0.03275 -0.07276,-0.07278 0,-0.04002 -0.03275,-0.07277 -0.07278,-0.07277 -0.04002,0 -0.07278,-0.03275 -0.07278,-0.07278 0,-0.04002 -0.03275,-0.07278 -0.07277,-0.07278 -0.04002,0 -0.07276,-0.03275 -0.07276,-0.07277 0,-0.04002 -0.02463,-0.07277 -0.05491,-0.07277 -0.04757,0 -0.20645,-0.155231 -0.418074,-0.40846 -0.08843,-0.10583 -0.07939,-0.416235 0.01216,-0.416235 0.04002,0 0.06768,-0.0164 0.06151,-0.03638 -0.01727,-0.05584 0.170366,-0.25468 0.240343,-0.25468 0.03409,0 0.06197,-0.01945 0.06197,-0.04327 0,-0.02383 0.05459,-0.05693 0.121283,-0.07369 0.06671,-0.01679 0.121284,-0.05184 0.121284,-0.07802 0,-0.02617 0.05528,-0.04759 0.122799,-0.04759 0.06754,0 0.135369,-0.03275 0.150728,-0.07278 0.01728,-0.04508 0.09112,-0.07277 0.194044,-0.07277 0.102906,0 0.176756,-0.02763 0.194047,-0.07278 0.016,-0.04172 0.08843,-0.07277 0.169791,-0.07277 0.08137,0 0.153781,-0.03106 0.169793,-0.07278 0.02432,-0.06336 0.349239,-0.07278 2.517024,-0.07278 1.94816,0 2.493495,0.01318 2.509317,0.06066 0.01403,0.04205 0.144176,0.06066 0.424475,0.06066 0.280289,0 0.410459,-0.01858 0.424473,-0.06066 0.01562,-0.04693 0.392976,-0.06066 1.668421,-0.06066 0.967061,0 1.637031,0.01806 1.621164,0.04377 -0.01482,0.02407 0.105687,0.05917 0.267934,0.07798 0.335408,0.03894 0.917662,-0.0099 0.917662,-0.0771 0,-0.02602 0.540192,-0.04495 1.297679,-0.04531 1.283543,-6.44e-4 1.540022,-0.01829 1.488317,-0.101885 -0.01507,-0.02422 0.282822,-0.04301 0.68257,-0.04301 0.39487,0 0.697472,0.01887 0.682805,0.0426 -0.05008,0.08103 0.280593,0.102925 1.554784,0.102925 1.10498,0 1.279483,0.0099 1.279483,0.07277 0,0.04002 0.03283,0.07276 0.07271,0.07276 0.04007,0 0.07271,0.03275 0.07271,0.07278 0,0.04002 0.03283,0.07276 0.07286,0.07276 0.04809,0 0.07271,0.04814 0.07271,0.14207 0,0.07813 -0.03282,0.174819 -0.07271,0.214832 -0.04006,0.04002 -0.07286,0.09614 -0.07286,0.12474 0,0.02858 -0.03282,0.05197 -0.07271,0.05197 -0.04006,0 -0.07271,0.03275 -0.07271,0.07278 0,0.04003 -0.03282,0.07278 -0.07286,0.07278 -0.04006,0 -0.07271,0.03275 -0.07271,0.07278 0,0.04002 -0.03282,0.07277 -0.07284,0.07277 -0.04006,0 -0.07277,0.03275 -0.07277,0.07278 0,0.04002 -0.03283,0.07278 -0.07284,0.07278 -0.04006,0 -0.07276,0.03275 -0.07276,0.07278 0,0.04002 -0.03284,0.07277 -0.07271,0.07277 -0.04003,0 -0.07271,0.02488 -0.07271,0.05506 0,0.03029 -0.05206,0.103291 -0.115636,0.162223 -0.06358,0.05892 -0.130571,0.15421 -0.148819,0.211741 -0.01835,0.05754 -0.0536,0.104603 -0.07849,0.104603 -0.02495,0 -0.04522,0.03275 -0.04522,0.07278 0,0.04002 -0.03283,0.07278 -0.07271,0.07278 -0.04003,0 -0.07276,0.03343 -0.07276,0.07429 0,0.04087 -0.03282,0.08687 -0.07271,0.102206 -0.04003,0.01537 -0.07281,0.08017 -0.07281,0.14401 0,0.07084 -0.02864,0.116087 -0.07284,0.116087 -0.04437,0 -0.07271,0.04525 -0.07271,0.116099 0,0.06385 -0.03282,0.12865 -0.07284,0.144016 -0.04804,0.01844 -0.07271,0.0944 -0.07271,0.223495 0,0.10757 -0.02192,0.195566 -0.04854,0.195566 -0.02658,0 -0.04852,0.03275 -0.04852,0.07278 0,0.04002 0.02221,0.07278 0.04852,0.07278 0.02659,0 0.04854,0.09823 0.04854,0.2183 0,0.161708 0.01862,0.2183 0.07271,0.2183 0.0455,0 0.07284,0.04598 0.07284,0.122803 0,0.06754 0.03284,0.13537 0.07271,0.150729 0.04003,0.01538 0.07284,0.08016 0.07284,0.144015 0,0.07084 0.02863,0.116087 0.07281,0.116087 0.04003,0 0.07271,0.03431 0.07271,0.07627 0,0.04192 0.03283,0.108981 0.07276,0.149002 0.04003,0.04002 0.07271,0.127346 0.07271,0.194045 0,0.0667 0.03282,0.154021 0.07278,0.194038 0.04003,0.04002 0.07271,0.147613 0.07271,0.239091 0,0.09148 0.02028,0.166315 0.04496,0.166315 0.02438,0 0.06003,0.120067 0.07835,0.266813 0.01863,0.146751 0.05268,0.266812 0.07623,0.266812 0.02412,0 0.04288,0.06393 0.04288,0.142071 0,0.07814 0.03282,0.174821 0.07286,0.214832 0.04307,0.04312 0.07284,0.161707 0.07284,0.291068 0,0.129365 0.02983,0.247946 0.07286,0.291077 0.05453,0.05453 0.07271,0.189034 0.07271,0.537089 0,0.380392 0.01315,0.464327 0.07271,0.464327 0.05819,0 0.07284,0.07278 0.07284,0.363833 0,0.233655 0.01945,0.363835 0.05374,0.363835 0.02955,0 0.04071,0.03386 0.02495,0.07526 -0.017,0.04316 -0.0084,0.06264 0.01892,0.04563 0.02955,-0.01841 0.04798,0.09221 0.04798,0.291412 0,0.176571 0.01919,0.309089 0.04306,0.294471 0.05946,-0.03676 0.10108,0.143423 0.101883,0.44128 4.67e-4,0.156903 0.02328,0.25819 0.06132,0.270819 0.04519,0.01504 0.06475,0.275825 0.07705,1.022981 0.0099,0.58649 0.03471,0.991461 0.06061,0.975485 0.02546,-0.0159 0.04423,0.226631 0.04423,0.579078 0,0.351933 -0.02056,0.618971 -0.04852,0.636372 -0.02864,0.01769 -0.04854,0.306785 -0.04854,0.703416 0,0.396627 0.02,0.685755 0.04854,0.703416 0.02804,0.01759 0.04852,0.300608 0.04852,0.684885 0,0.424247 -0.01727,0.644342 -0.04852,0.624921 -0.03082,-0.01891 -0.04854,0.09535 -0.04854,0.308993 0,0.236625 -0.02219,0.360953 -0.07271,0.411747 -0.04082,0.04086 -0.07284,0.159392 -0.07284,0.270283 0,0.143227 -0.02,0.197505 -0.07271,0.197505 -0.05596,0 -0.07284,0.06215 -0.07284,0.268336 0,0.193769 -0.02028,0.276097 -0.07278,0.296256 -0.05924,0.02261 -0.07284,0.1389 -0.07284,0.623931 0,0.485034 -0.01344,0.601212 -0.07271,0.62394 -0.05499,0.02082 -0.07283,0.110101 -0.07283,0.364984 0,0.208227 -0.0211,0.344064 -0.05505,0.355405 -0.03538,0.01123 -0.06394,0.235025 -0.07988,0.620988 -0.01726,0.413794 -0.04543,0.623224 -0.09048,0.66832 -0.03614,0.03614 -0.06567,0.140546 -0.06567,0.232012 0,0.09151 -0.02138,0.166331 -0.04796,0.166331 -0.02659,0 -0.0619,0.08725 -0.07895,0.194032 -0.01727,0.106727 -0.05008,0.194061 -0.07328,0.194061 -0.02328,0 -0.04228,0.03282 -0.04228,0.07271 0,0.04003 -0.03284,0.07267 -0.07271,0.07267 -0.04006,0 -0.07271,0.04204 -0.07271,0.09356 0,0.05153 -0.02955,0.123388 -0.06636,0.159888 -0.0365,0.03648 -0.08166,0.114485 -0.10029,0.17329 -0.01863,0.05882 -0.05435,0.106815 -0.07919,0.106815 -0.02495,0 -0.04519,0.06546 -0.04519,0.145503 0,0.09706 -0.02413,0.145478 -0.07271,0.145478 -0.04854,0 -0.07271,0.04851 -0.07271,0.145504 0,0.09706 -0.02413,0.145476 -0.07271,0.145476 -0.04852,0 -0.07271,0.04859 -0.07271,0.145477 0,0.07999 -0.0211,0.145477 -0.04757,0.145477 -0.02631,0 -0.0626,0.05978 -0.08097,0.132926 -0.01835,0.07316 -0.06242,0.161916 -0.09788,0.19754 -0.03543,0.03538 -0.06458,0.09577 -0.06458,0.133858 0,0.03815 -0.03284,0.06934 -0.07284,0.06934 -0.04003,0 -0.07271,0.03284 -0.07271,0.07276 0,0.04003 -0.02222,0.07267 -0.04852,0.07267 -0.02685,0 -0.04859,0.03282 -0.04859,0.07278 0,0.04003 -0.03284,0.07268 -0.07284,0.07268 -0.04007,0 -0.07271,0.03284 -0.07271,0.0728 0,0.04003 -0.03283,0.0727 -0.07277,0.0727 -0.04006,0 -0.07284,0.03284 -0.07284,0.07267 0,0.04003 -0.03282,0.07271 -0.07276,0.07271 -0.04522,0 -0.07271,0.04583 -0.07271,0.121254 0,0.07546 -0.02742,0.121281 -0.07271,0.121281 -0.04043,0 -0.07278,0.0431 -0.07278,0.09706 0,0.05391 -0.03217,0.09704 -0.07271,0.09704 -0.04522,0 -0.07278,0.04583 -0.07278,0.121253 0,0.07547 -0.02742,0.12128 -0.07284,0.12128 -0.04007,0 -0.07271,0.023 -0.07271,0.05085 0,0.02741 -0.05458,0.101445 -0.121281,0.163231 -0.06668,0.06185 -0.12128,0.137203 -0.12128,0.167481 0,0.03018 -0.03284,0.05507 -0.07284,0.05507 -0.04003,0 -0.07278,0.03284 -0.07278,0.07271 0,0.04003 -0.03282,0.07267 -0.07271,0.07267 -0.04007,0 -0.07278,0.03284 -0.07278,0.07278 0,0.04003 -0.03283,0.07268 -0.07271,0.07268 -0.04006,0 -0.07271,0.03282 -0.07271,0.07271 0,0.04003 -0.02438,0.07276 -0.05511,0.07276 -0.03018,0 -0.105687,0.05456 -0.167453,0.121281 -0.06183,0.06668 -0.135255,0.121254 -0.163206,0.121254 -0.02802,0 -0.05084,0.03282 -0.05084,0.07267 0,0.04003 -0.03282,0.07284 -0.07276,0.07284 -0.04003,0 -0.07271,0.03282 -0.07271,0.07271 0,0.04006 -0.03276,0.07271 -0.07278,0.07271 -0.04003,0 -0.07276,0.03282 -0.07276,0.07271 0,0.04522 -0.04582,0.07284 -0.121281,0.07284 -0.07546,0 -0.121279,0.02742 -0.121279,0.07267 0,0.04003 -0.03276,0.07284 -0.07271,0.07284 -0.04001,0 -0.07271,0.03282 -0.07271,0.07268 0,0.04003 -0.03274,0.07271 -0.07277,0.07271 -0.04001,0 -0.07278,0.03282 -0.07278,0.0727 0,0.04003 -0.03274,0.07271 -0.07278,0.07271 -0.04001,0 -0.07278,0.0211 -0.07278,0.04848 0,0.02658 -0.03296,0.04851 -0.07325,0.04851 -0.04028,0 -0.110624,0.04371 -0.156319,0.09706 -0.04568,0.05338 -0.103009,0.09706 -0.127365,0.09706 -0.02441,0 -0.09488,0.05456 -0.156697,0.121253 -0.0617,0.0667 -0.156972,0.121253 -0.211601,0.121253 -0.05596,0 -0.09934,0.03184 -0.09934,0.07267 0,0.04852 -0.04852,0.07271 -0.145531,0.07271 -0.09704,0 -0.145534,0.02413 -0.145534,0.07268 0,0.04003 -0.03275,0.07271 -0.07277,0.07271 -0.04002,0 -0.07277,-0.03283 -0.07277,-0.07271 z M 32.495787,32.758811 c -0.01651,-0.02671 -0.116014,-0.04852 -0.221167,-0.04852 -0.1376,0 -0.191189,-0.0203 -0.191189,-0.07278 0,-0.04002 -0.03275,-0.07277 -0.07278,-0.07277 -0.04003,0 -0.07277,-0.03275 -0.07277,-0.07277 0,-0.04002 -0.03275,-0.07278 -0.07278,-0.07278 -0.04002,0 -0.07278,-0.03275 -0.07278,-0.07277 0,-0.04003 -0.03275,-0.07277 -0.07278,-0.07277 -0.04526,0 -0.07277,-0.04581 -0.07277,-0.121282 0,-0.07546 -0.02749,-0.121285 -0.07278,-0.121285 -0.04044,0 -0.07278,-0.04312 -0.07278,-0.09702 0,-0.05336 -0.0203,-0.09704 -0.04523,-0.09704 -0.0249,0 -0.06051,-0.0481 -0.07916,-0.10689 -0.01865,-0.05879 -0.06378,-0.13675 -0.100279,-0.17325 -0.03649,-0.03649 -0.06638,-0.108467 -0.06638,-0.159928 0,-0.05145 -0.03275,-0.09355 -0.07278,-0.09355 -0.04527,0 -0.07278,-0.04582 -0.07278,-0.121283 0,-0.0667 -0.02142,-0.12128 -0.0476,-0.12128 -0.02617,0 -0.0623,-0.06001 -0.08023,-0.133407 -0.01799,-0.07337 -0.05658,-0.149032 -0.08582,-0.168138 -0.06654,-0.04348 -0.05817,-1.92973 0.0087,-1.973266 0.0249,-0.01623 0.05702,-0.135872 0.0713,-0.265911 0.01436,-0.130041 0.04846,-0.250318 0.07594,-0.267301 0.02745,-0.01693 0.06496,-0.09067 0.08332,-0.163789 0.01833,-0.07311 0.05285,-0.132921 0.0766,-0.132921 0.02383,0 0.04327,-0.03275 0.04327,-0.07277 0,-0.04003 0.03275,-0.07278 0.07278,-0.07278 0.04002,0 0.07278,-0.03275 0.07278,-0.07278 0,-0.04442 0.04524,-0.07278 0.116092,-0.07278 0.06386,0 0.128649,-0.03275 0.144008,-0.07277 0.01537,-0.04002 0.052,-0.07278 0.08141,-0.07278 0.02942,0 0.08625,-0.03275 0.126264,-0.07278 0.04683,-0.04681 0.166712,-0.07277 0.336112,-0.07277 0.177949,0 0.263591,-0.01966 0.264086,-0.06065 5.38e-4,-0.04442 0.01194,-0.04294 0.04265,0.0056 0.03536,0.05582 0.0466,0.05582 0.07202,0 0.02333,-0.0512 0.03651,-0.05243 0.05842,-0.0056 0.01634,0.03511 0.118579,0.06065 0.24256,0.06065 0.171436,0 0.214407,0.01693 0.21501,0.08489 6.33e-4,0.07255 0.0075,0.0743 0.04778,0.01216 0.03136,-0.04851 0.04727,-0.05255 0.04778,-0.01216 3.87e-4,0.03335 0.03416,0.06065 0.07502,0.06065 0.04086,0 0.08686,0.03275 0.102207,0.07278 0.01538,0.04002 0.06995,0.07278 0.121283,0.07278 0.05134,0 0.105929,0.03275 0.121285,0.07277 0.01538,0.04002 0.05834,0.07278 0.09551,0.07278 0.03717,0 0.06759,0.03275 0.06759,0.07278 0,0.04002 0.03275,0.07278 0.07277,0.07278 0.04526,0 0.07278,0.04581 0.07278,0.121283 0,0.07546 0.02749,0.121283 0.07277,0.121283 0.04003,0 0.07277,0.03041 0.07277,0.06758 0,0.03717 0.03275,0.08015 0.07278,0.09549 0.04003,0.01532 0.07277,0.06137 0.07277,0.102208 0,0.04086 0.02142,0.07428 0.04761,0.07428 0.02618,0 0.06129,0.05459 0.07804,0.121283 0.01669,0.06671 0.04752,0.121285 0.06843,0.121285 0.02092,0 0.053,0.0598 0.07133,0.132923 0.01833,0.07311 0.0507,0.144057 0.07189,0.157659 0.02123,0.0136 0.05169,0.133718 0.06779,0.266916 0.01607,0.133198 0.0516,0.249625 0.07892,0.258732 0.06599,0.02194 0.06599,0.868155 0,0.890142 -0.02732,0.0092 -0.06273,0.125521 -0.07872,0.258726 -0.01595,0.133198 -0.0482,0.249457 -0.0716,0.258343 -0.02343,0.009 -0.04257,0.06803 -0.04257,0.13141 0,0.151609 -0.153323,0.456096 -0.23043,0.457614 -0.03335,6.63e-4 -0.06065,0.05578 -0.06065,0.122474 0,0.07546 -0.0275,0.121283 -0.07277,0.121283 -0.04003,0 -0.07277,0.03275 -0.07277,0.07278 0,0.04002 -0.03275,0.07278 -0.07278,0.07278 -0.04003,0 -0.07277,0.03275 -0.07277,0.07278 0,0.04003 -0.03275,0.07277 -0.07278,0.07277 -0.04003,0 -0.07277,0.03275 -0.07277,0.07277 0,0.04002 -0.03041,0.07278 -0.06759,0.07278 -0.03717,0 -0.08014,0.03275 -0.0955,0.07277 -0.01532,0.04002 -0.07227,0.07277 -0.126467,0.07277 -0.05525,0 -0.09856,0.03195 -0.09856,0.07277 0,0.04852 -0.04851,0.07278 -0.145537,0.07278 -0.09703,0 -0.14553,0.02425 -0.14553,0.07277 0,0.0551 -0.05962,0.07278 -0.245421,0.07278 -0.151256,0 -0.233916,0.01863 -0.215435,0.04851 0.01649,0.02672 0.0081,0.04851 -0.01849,0.04851 -0.02672,0 -0.06198,-0.0219 -0.0785,-0.04851 z"
       id="path1-6-0" />
    <circle
       style="fill:#414141;fill-opacity:1;stroke:#dfdfdf;stroke-width:1.08705;stroke-dasharray:none;stroke-opacity:1"
       id="path1-6"
       cx="48.320271"
       cy="48.287033"
       r="12.17483" />
    <path
       id="path1-3"
       style="fill:#dfdfdf;fill-opacity:1;stroke:none;stroke-width:0.20182;stroke-dasharray:none;stroke-dashoffset:2.2;stroke-opacity:0.6"
       d="m 51.761355,43.058253 c -0.20805,-8.7e-5 -0.430751,0.08369 -0.709468,0.246992 -0.663244,0.38861 -1.530643,0.57188 -2.721813,0.57188 -1.191057,0 -2.087392,-0.187174 -2.746686,-0.573538 -0.528668,-0.309806 -0.844291,-0.313912 -1.287974,-0.01478 -1.13908,0.767625 -1.997557,3.228765 -2.249396,6.444848 -0.151015,1.928547 -0.0099,2.945286 0.488995,3.517478 0.240643,0.275876 0.831407,0.229104 1.364229,-0.109404 0.451661,-0.286952 0.989814,-0.920136 1.632759,-1.921198 0.580993,-0.90461 1.283736,-1.202549 2.837856,-1.205094 1.551025,-0.0023 2.160562,0.291041 2.875977,1.390747 1.200302,1.845038 2.309754,2.487372 2.960519,1.713978 0.360522,-0.428447 0.426509,-0.842406 0.409431,-2.565996 -0.03111,-3.131006 -0.849546,-5.979338 -2.02893,-7.066455 -0.314103,-0.289533 -0.557986,-0.429217 -0.825499,-0.42933 z m -6.738245,1.844933 h 0.719412 0.719406 v 0.616637 0.61664 h 0.61664 0.616633 v 0.770797 0.770791 h -0.616633 -0.61664 v 0.668023 0.668026 h -0.651444 c -0.357887,0 -0.68008,-0.03211 -0.717752,-0.06961 -0.03766,-0.03766 -0.06959,-0.336727 -0.06959,-0.666363 v -0.60007 h -0.616645 -0.616641 v -0.770793 -0.770795 h 0.616641 0.616634 v -0.616642 z m 5.86468,0 c 0.649001,0 0.926941,0.71908 0.459164,1.186861 -0.29749,0.297457 -0.568995,0.320837 -0.861967,0.07295 -0.508167,-0.429995 -0.242935,-1.259794 0.402803,-1.259794 z M 49.639599,46.221 c 0.162065,1.09e-4 0.325226,0.06468 0.454185,0.207182 0.201035,0.222143 0.222754,0.730724 0.04146,0.968054 -0.354805,0.464484 -1.20675,0.165717 -1.20675,-0.422693 0,-0.446577 0.354591,-0.752808 0.711121,-0.75256 z m 2.54777,0.02495 c 0.186795,0.0035 0.368135,0.06527 0.474076,0.18233 0.201035,0.222143 0.222724,0.730722 0.04144,0.968055 -0.377384,0.494038 -1.206751,0.163367 -1.206751,-0.480712 0,-0.195235 0.07823,-0.406835 0.18729,-0.505575 0.124687,-0.112856 0.317151,-0.167515 0.503922,-0.164093 z m -1.254823,1.329411 c 0.575374,0 0.855333,0.610306 0.507229,1.107293 -0.119001,0.169891 -0.264129,0.228754 -0.563593,0.228754 -0.344776,0 -0.424785,-0.04487 -0.563588,-0.313304 -0.273699,-0.529262 0.02495,-1.022754 0.619952,-1.022754 z" />
  </g>
</svg>
