<?xml version="1.0" encoding="UTF-8" standalone="no"?>
<svg
   width="64"
   height="64"
   version="1.1"
   id="svg73"
   sodipodi:docname="fr.handbrake.ghb.svg"
   inkscape:version="1.4.2 (ebf0e940d0, 2025-05-08)"
   xmlns:inkscape="http://www.inkscape.org/namespaces/inkscape"
   xmlns:sodipodi="http://sodipodi.sourceforge.net/DTD/sodipodi-0.dtd"
   xmlns="http://www.w3.org/2000/svg"
   xmlns:svg="http://www.w3.org/2000/svg"
   xmlns:rdf="http://www.w3.org/1999/02/22-rdf-syntax-ns#"
   xmlns:cc="http://creativecommons.org/ns#"
   xmlns:dc="http://purl.org/dc/elements/1.1/">
  <metadata
     id="metadata77">
    <rdf:RDF>
      <cc:Work
         rdf:about="">
        <dc:format>image/svg+xml</dc:format>
        <dc:type
           rdf:resource="http://purl.org/dc/dcmitype/StillImage" />
      </cc:Work>
    </rdf:RDF>
  </metadata>
  <sodipodi:namedview
     pagecolor="#f5f7fa"
     bordercolor="#666666"
     borderopacity="1"
     objecttolerance="10"
     gridtolerance="10"
     guidetolerance="10"
     inkscape:pageopacity="0"
     inkscape:pageshadow="2"
     inkscape:window-width="1377"
     inkscape:window-height="886"
     id="namedview75"
     showgrid="false"
     inkscape:zoom="6.2890625"
     inkscape:cx="48.099379"
     inkscape:cy="45.396273"
     inkscape:window-x="0"
     inkscape:window-y="47"
     inkscape:window-maximized="0"
     inkscape:current-layer="g877"
     inkscape:document-rotation="0"
     inkscape:pagecheckerboard="0"
     inkscape:showpageshadow="2"
     inkscape:deskcolor="#d1d1d1" />
  <defs
     id="defs29" />
  <circle
     cx="32.516094"
     cy="31.877844"
     r="0"
     fill="url(#b)"
     stroke-width="1.5715"
     id="circle41"
     style="fill:url(#b)" />
  <g
     aria-label="GZ"
     transform="matrix(1.2212657,0,0,0.81882264,0.4960938,-0.1661539)"
     id="text93"
     style="font-weight:bold;font-size:11.5263px;line-height:1.25;font-family:sans-serif;-inkscape-font-specification:'sans-serif Bold';fill:#f2f2f2;stroke-width:0.288159" />
  <g
     id="g877"
     transform="matrix(1.1,0,0,1.1,-3.1845928,-3.2065454)">
    <circle
       style="opacity:1;fill:#414141;stroke:#dfdfdf;stroke-width:2.27272727;stroke-dasharray:none;fill-opacity:1;stroke-opacity:1"
       id="path1"
       cx="31.985994"
       cy="32.005951"
       r="25.454546" />
    <path
       style="fill:#dfdfdf;fill-opacity:1;stroke:none;stroke-width:0.458467;stroke-dasharray:none;stroke-dashoffset:2.2;stroke-opacity:0.6"
       d="m 30.290856,45.963546 c -1.784609,-0.207514 -3.723539,-0.867283 -5.316547,-1.8091 -3.388416,-2.003291 -5.86815,-5.478118 -6.822041,-9.559653 -0.200547,-0.858105 -0.229308,-1.178171 -0.228545,-2.543339 7.11e-4,-1.272766 0.03765,-1.735063 0.199712,-2.498724 0.463256,-2.183038 1.3457,-4.17445 2.590166,-5.845223 2.269421,-3.046834 5.373958,-4.963269 9.058513,-5.591831 1.401469,-0.239087 3.637391,-0.197469 4.990618,0.09289 2.852814,0.61213 5.140417,1.868265 7.243667,3.977539 1.679111,1.683925 2.654426,3.224053 3.337577,5.270362 0.451111,1.351269 0.630854,2.35776 0.693092,3.881055 0.139316,3.407899 -1.02415,6.83466 -3.249167,9.57042 -2.616495,3.217074 -6.808292,5.193155 -10.908891,5.14262 -0.516648,-0.0068 -1.23132,-0.0455 -1.588154,-0.08706 z m 0.52786,-1.476378 c 0.292731,-0.261787 0.269282,-0.931467 -0.113552,-3.243991 -0.547136,-3.304947 -1.349841,-4.821652 -2.549835,-4.817901 -1.291493,0.004 -3.777444,1.326532 -5.089069,2.70733 -0.656352,0.690971 -0.802067,0.965831 -0.69345,1.308058 0.111752,0.352104 1.224171,1.428928 2.039647,1.974395 1.472495,0.984938 3.758566,2.0002 4.980121,2.211709 0.581163,0.100653 1.228354,0.03722 1.426138,-0.139633 z m 4.315215,-0.0097 c 2.337996,-0.617782 5.219853,-2.34021 6.217523,-3.715993 0.427066,-0.588923 0.340843,-0.805895 -0.768015,-1.932871 -1.63781,-1.664705 -4.122183,-2.749732 -5.287527,-2.309438 -1.012238,0.382446 -1.636163,1.970047 -2.125813,5.409159 -0.212619,1.493382 -0.216562,2.287308 -0.01249,2.512995 0.274556,0.303601 0.919461,0.315376 1.976313,0.03606 z M 21.960814,37.30682 c 1.677893,-2.036307 2.335803,-3.23166 2.40129,-4.362896 0.04983,-0.860693 -0.0606,-1.208714 -0.55948,-1.763613 -0.622467,-0.692336 -1.750359,-1.166653 -2.947102,-1.239357 -0.923344,-0.05609 -1.244891,0.09365 -1.561701,0.727263 -0.194869,0.389736 -0.221541,0.553482 -0.210727,1.293979 0.01211,0.827172 0.156447,1.775687 0.439323,2.886247 0.153539,0.602753 0.987263,3.351476 1.126459,3.713808 l 0.08713,0.226845 0.193616,-0.232895 c 0.106486,-0.128138 0.57052,-0.690316 1.031186,-1.249386 z m 21.272371,0.835254 c 1.031828,-1.151632 2.088899,-6.438463 1.546752,-7.735997 -0.241153,-0.577212 -0.902035,-0.709874 -2.253535,-0.452373 -2.706282,0.51562 -3.443535,2.486669 -1.986311,5.310375 0.475967,0.922298 1.078373,1.768634 1.808211,2.540435 0.496387,0.524914 0.66081,0.587635 0.884883,0.337533 z m -9.437853,-2.343808 c 2.027158,-0.642012 3.589853,-1.900414 4.375791,-3.523729 0.876419,-1.810183 0.87643,-3.787711 2.5e-5,-5.710855 -0.618109,-1.356337 -1.483822,-2.389494 -2.597093,-3.099389 -1.285702,-0.819853 -2.393134,-1.098631 -4.093101,-1.030379 -1.693134,0.06799 -2.554973,0.452563 -4.037922,1.801877 -1.47519,1.342253 -2.348607,3.20374 -2.348607,5.005516 0,2.942741 2.499592,5.97001 5.532883,6.700909 0.740255,0.178366 2.386489,0.103558 3.168024,-0.143961 z m -12.4194,-8.516709 c 1.246457,-0.258895 2.385535,-0.765674 2.811534,-1.25086 0.586138,-0.667577 0.691744,-2.018898 0.237964,-3.044978 -0.236501,-0.534771 -0.327943,-0.610099 -0.644248,-0.530713 -0.284677,0.07145 -1.597602,1.385593 -2.232423,2.234491 -0.356525,0.476759 -1.335573,2.194715 -1.616681,2.836825 -0.01706,0.039 0.06324,0.04924 0.178478,0.02281 0.115237,-0.0265 0.684656,-0.146874 1.26537,-0.267486 z m 22.451871,-0.0072 c 0.213247,-0.207659 -0.01473,-0.726392 -0.899598,-2.046925 -0.956536,-1.427474 -2.034849,-2.698082 -2.358721,-2.77937 -0.493377,-0.123827 -1.220452,1.004027 -1.334645,2.070362 -0.07641,0.713515 -0.02025,0.932747 0.340085,1.344315 0.952067,1.085363 3.663683,1.985405 4.252891,1.411625 z M 29.061011,21.642749 c 0.530146,-0.180641 1.536836,-1.102348 1.842984,-1.687402 l 0.214133,-0.409219 -0.221952,-0.181752 c -0.269038,-0.220311 -0.739042,-0.186814 -2.140463,0.152524 -1.683456,0.407625 -2.643554,0.92363 -2.575449,1.38417 0.09623,0.650778 1.834268,1.09825 2.880747,0.741679 z m 7.466719,0.01907 c 1.49487,-0.4537 1.62114,-1.033885 0.349248,-1.604675 -0.671806,-0.301491 -2.384959,-0.75202 -3.128558,-0.82276 -0.472503,-0.04495 -0.604752,-0.02839 -0.701103,0.08769 -0.100822,0.121495 -0.08465,0.201308 0.107331,0.528865 0.275658,0.470367 1.489256,1.640081 1.876356,1.808498 0.364887,0.158758 0.978327,0.159732 1.496726,0.0024 z"
       id="path3-3" />
    <circle
       style="fill:#414141;fill-opacity:1;stroke:#dfdfdf;stroke-width:1.08705;stroke-dasharray:none;stroke-opacity:1"
       id="path1-6"
       cx="48.320271"
       cy="48.287033"
       r="12.17483" />
    <path
       id="path1-3"
       style="fill:#dfdfdf;fill-opacity:1;stroke:none;stroke-width:0.20182;stroke-dasharray:none;stroke-dashoffset:2.2;stroke-opacity:0.6"
       d="m 51.761355,43.058253 c -0.20805,-8.7e-5 -0.430751,0.08369 -0.709468,0.246992 -0.663244,0.38861 -1.530643,0.57188 -2.721813,0.57188 -1.191057,0 -2.087392,-0.187174 -2.746686,-0.573538 -0.528668,-0.309806 -0.844291,-0.313912 -1.287974,-0.01478 -1.13908,0.767625 -1.997557,3.228765 -2.249396,6.444848 -0.151015,1.928547 -0.0099,2.945286 0.488995,3.517478 0.240643,0.275876 0.831407,0.229104 1.364229,-0.109404 0.451661,-0.286952 0.989814,-0.920136 1.632759,-1.921198 0.580993,-0.90461 1.283736,-1.202549 2.837856,-1.205094 1.551025,-0.0023 2.160562,0.291041 2.875977,1.390747 1.200302,1.845038 2.309754,2.487372 2.960519,1.713978 0.360522,-0.428447 0.426509,-0.842406 0.409431,-2.565996 -0.03111,-3.131006 -0.849546,-5.979338 -2.02893,-7.066455 -0.314103,-0.289533 -0.557986,-0.429217 -0.825499,-0.42933 z m -6.738245,1.844933 h 0.719412 0.719406 v 0.616637 0.61664 h 0.61664 0.616633 v 0.770797 0.770791 h -0.616633 -0.61664 v 0.668023 0.668026 h -0.651444 c -0.357887,0 -0.68008,-0.03211 -0.717752,-0.06961 -0.03766,-0.03766 -0.06959,-0.336727 -0.06959,-0.666363 v -0.60007 h -0.616645 -0.616641 v -0.770793 -0.770795 h 0.616641 0.616634 v -0.616642 z m 5.86468,0 c 0.649001,0 0.926941,0.71908 0.459164,1.186861 -0.29749,0.297457 -0.568995,0.320837 -0.861967,0.07295 -0.508167,-0.429995 -0.242935,-1.259794 0.402803,-1.259794 z M 49.639599,46.221 c 0.162065,1.09e-4 0.325226,0.06468 0.454185,0.207182 0.201035,0.222143 0.222754,0.730724 0.04146,0.968054 -0.354805,0.464484 -1.20675,0.165717 -1.20675,-0.422693 0,-0.446577 0.354591,-0.752808 0.711121,-0.75256 z m 2.54777,0.02495 c 0.186795,0.0035 0.368135,0.06527 0.474076,0.18233 0.201035,0.222143 0.222724,0.730722 0.04144,0.968055 -0.377384,0.494038 -1.206751,0.163367 -1.206751,-0.480712 0,-0.195235 0.07823,-0.406835 0.18729,-0.505575 0.124687,-0.112856 0.317151,-0.167515 0.503922,-0.164093 z m -1.254823,1.329411 c 0.575374,0 0.855333,0.610306 0.507229,1.107293 -0.119001,0.169891 -0.264129,0.228754 -0.563593,0.228754 -0.344776,0 -0.424785,-0.04487 -0.563588,-0.313304 -0.273699,-0.529262 0.02495,-1.022754 0.619952,-1.022754 z" />
  </g>
</svg>
