<?xml version="1.0" encoding="UTF-8" standalone="no"?>
<svg
   width="64"
   height="64"
   version="1.1"
   id="svg73"
   sodipodi:docname="fr.handbrake.ghb.svg"
   inkscape:version="1.4.2 (ebf0e940d0, 2025-05-08)"
   xmlns:inkscape="http://www.inkscape.org/namespaces/inkscape"
   xmlns:sodipodi="http://sodipodi.sourceforge.net/DTD/sodipodi-0.dtd"
   xmlns="http://www.w3.org/2000/svg"
   xmlns:svg="http://www.w3.org/2000/svg"
   xmlns:rdf="http://www.w3.org/1999/02/22-rdf-syntax-ns#"
   xmlns:cc="http://creativecommons.org/ns#"
   xmlns:dc="http://purl.org/dc/elements/1.1/">
  <metadata
     id="metadata77">
    <rdf:RDF>
      <cc:Work
         rdf:about="">
        <dc:format>image/svg+xml</dc:format>
        <dc:type
           rdf:resource="http://purl.org/dc/dcmitype/StillImage" />
      </cc:Work>
    </rdf:RDF>
  </metadata>
  <sodipodi:namedview
     pagecolor="#f5f7fa"
     bordercolor="#666666"
     borderopacity="1"
     objecttolerance="10"
     gridtolerance="10"
     guidetolerance="10"
     inkscape:pageopacity="0"
     inkscape:pageshadow="2"
     inkscape:window-width="1377"
     inkscape:window-height="886"
     id="namedview75"
     showgrid="false"
     inkscape:zoom="6.2890625"
     inkscape:cx="48.099379"
     inkscape:cy="45.396273"
     inkscape:window-x="0"
     inkscape:window-y="47"
     inkscape:window-maximized="0"
     inkscape:current-layer="g877"
     inkscape:document-rotation="0"
     inkscape:pagecheckerboard="0"
     inkscape:showpageshadow="2"
     inkscape:deskcolor="#d1d1d1" />
  <defs
     id="defs29" />
  <circle
     cx="32.516094"
     cy="31.877844"
     r="0"
     fill="url(#b)"
     stroke-width="1.5715"
     id="circle41"
     style="fill:url(#b)" />
  <g
     aria-label="GZ"
     transform="matrix(1.2212657,0,0,0.81882264,0.4960938,-0.1661539)"
     id="text93"
     style="font-weight:bold;font-size:11.5263px;line-height:1.25;font-family:sans-serif;-inkscape-font-specification:'sans-serif Bold';fill:#f2f2f2;stroke-width:0.288159" />
  <g
     id="g877"
     transform="matrix(1.1,0,0,1.1,-3.1845928,-3.2065454)">
    <circle
       style="opacity:1;fill:#414141;stroke:#dfdfdf;stroke-width:2.27272727;stroke-dasharray:none;fill-opacity:1;stroke-opacity:1"
       id="path1"
       cx="31.985994"
       cy="32.005951"
       r="25.454546" />
    <path
       style="fill:#dfdfdf;fill-opacity:1;stroke:none;stroke-width:0.416787;stroke-dasharray:none;stroke-opacity:0.6"
       d="m 29.407563,45.879319 0.393291,-0.418639 -1.014319,-0.206017 c -2.290246,-0.465137 -4.503072,-1.717766 -6.556576,-3.711511 -0.672184,-0.652619 -1.375742,-1.173542 -1.673227,-1.238882 -0.706545,-0.155212 -0.645916,-0.432521 0.09456,-0.432521 0.334339,0 0.607886,-0.03754 0.607886,-0.08338 0,-0.04581 -0.306037,-0.487655 -0.680086,-0.981868 -1.679546,-2.219049 -2.442958,-4.667037 -2.452324,-7.863741 -0.0045,-1.492307 -0.07795,-2.225427 -0.254368,-2.534013 -0.287088,-0.502211 -0.319288,-0.694721 -0.116194,-0.694721 0.07937,0 0.2489,0.195389 0.376712,0.434198 0.127812,0.238817 0.281692,0.434211 0.341958,0.434211 0.06027,0 0.203174,-0.453114 0.317562,-1.006917 0.422435,-2.045239 1.755086,-4.280617 3.831609,-6.42712 0.490029,-0.506533 0.93897,-1.112243 0.997644,-1.346025 0.05864,-0.233767 0.170899,-0.425041 0.249405,-0.425041 0.0785,0 0.07004,0.253489 -0.01886,0.563314 -0.28086,0.979339 -0.205129,1.046386 0.5766,0.510478 1.183988,-0.811654 2.436134,-1.386259 4.02296,-1.846108 0.814619,-0.236059 1.710056,-0.547591 1.98986,-0.692284 0.484234,-0.250417 0.504385,-0.246439 0.418387,0.08246 -0.04972,0.19003 -0.159073,0.38797 -0.24307,0.439877 -0.41799,0.258328 -0.02623,0.332648 1.19331,0.226365 2.405656,-0.209645 3.841939,0.07543 6.209098,1.232136 2.057294,1.005353 4.059782,2.455091 4.66318,3.375983 0.17448,0.266316 0.519884,0.477836 0.895221,0.54824 0.895953,0.168088 0.98162,0.478255 0.109095,0.395055 -0.39468,-0.03765 -0.717589,-0.05303 -0.717589,-0.03413 0,0.01886 0.391905,0.666141 0.870911,1.438456 0.587359,0.94701 1.018544,1.926949 1.324344,3.009754 0.290139,1.027381 0.613654,1.777541 0.898385,2.083172 0.473536,0.50829 0.324173,0.64793 -0.238128,0.222628 -0.185474,-0.140258 -0.395755,-0.257487 -0.467399,-0.260521 -0.07165,-0.0026 -0.131634,0.756503 -0.133265,1.687868 -0.0063,3.44283 -1.017772,6.034051 -3.46367,8.871855 -0.768273,0.891376 -1.444309,1.809717 -1.502288,2.040756 -0.118014,0.470076 -0.415145,0.572084 -0.415145,0.142472 0,-0.234025 -0.08856,-0.218482 -0.564458,0.09886 -2.14607,1.431383 -4.873598,2.262838 -7.423126,2.262838 -0.853629,0 -1.646324,0.10189 -2.025867,0.260483 -0.835609,0.34914 -0.882182,0.331684 -0.42203,-0.158146 z m 4.443488,-3.836432 c 1.484878,-0.310688 3.715288,-1.395341 4.797428,-2.332998 1.11355,-0.964869 2.3325,-2.815064 2.870984,-4.357757 1.872994,-5.365872 -1.033322,-11.341289 -6.362757,-13.081896 -1.834772,-0.599239 -3.105939,-0.701143 -4.861284,-0.3897 -3.723792,0.660692 -6.744673,3.305978 -7.935479,6.948851 -0.385329,1.178797 -0.459625,1.722347 -0.464783,3.40041 -0.0055,1.731267 0.05307,2.153298 0.438413,3.168201 0.986066,2.597149 2.652406,4.52837 4.948216,5.734779 2.1452,1.127269 4.182428,1.409506 6.569262,0.91011 z M 29.161664,39.97368 c -0.57315,-0.131782 -1.315636,-0.310802 -1.649972,-0.397846 l -0.607885,-0.158253 -0.15307,-1.41186 c -0.178423,-1.645653 -0.101206,-1.954944 0.488136,-1.954944 0.466553,0 0.541285,0.06592 1.302363,1.149301 1.015464,1.445445 3.093333,1.929313 4.779618,1.112994 0.915248,-0.443082 1.282717,-0.906665 1.427915,-1.801414 0.202961,-1.250708 -0.788322,-2.347452 -4.175408,-4.619632 -2.618251,-1.756409 -3.410485,-2.756501 -3.407335,-4.301288 0.0036,-1.712538 1.236301,-3.376661 2.928673,-3.953311 1.072917,-0.365578 3.2606,-0.329052 5.137147,0.08572 0.854963,0.189008 1.60845,0.402247 1.674412,0.473878 0.06595,0.07166 0.174559,0.814088 0.241363,1.649933 l 0.121405,1.519704 -0.666887,-0.0092 c -0.600822,-0.0091 -0.718548,-0.09026 -1.187954,-0.824979 -1.320663,-2.067148 -4.442228,-2.376439 -5.394721,-0.53451 -0.582676,1.126768 0.117367,2.172682 2.545573,3.803327 4.040826,2.713578 4.935179,3.810557 4.816668,5.907948 -0.05183,0.917611 -0.17648,1.34458 -0.587525,2.0124 -0.56113,0.911739 -1.785867,1.847285 -2.825486,2.158346 -1.035246,0.309763 -3.646279,0.360734 -4.807026,0.09392 z"
       id="path2363" />
    <circle
       style="fill:#414141;fill-opacity:1;stroke:#dfdfdf;stroke-width:1.08705;stroke-dasharray:none;stroke-opacity:1"
       id="path1-6"
       cx="48.320271"
       cy="48.287033"
       r="12.17483" />
    <path
       id="path1-3"
       style="fill:#dfdfdf;fill-opacity:1;stroke:none;stroke-width:0.20182;stroke-dasharray:none;stroke-dashoffset:2.2;stroke-opacity:0.6"
       d="m 51.761355,43.058253 c -0.20805,-8.7e-5 -0.430751,0.08369 -0.709468,0.246992 -0.663244,0.38861 -1.530643,0.57188 -2.721813,0.57188 -1.191057,0 -2.087392,-0.187174 -2.746686,-0.573538 -0.528668,-0.309806 -0.844291,-0.313912 -1.287974,-0.01478 -1.13908,0.767625 -1.997557,3.228765 -2.249396,6.444848 -0.151015,1.928547 -0.0099,2.945286 0.488995,3.517478 0.240643,0.275876 0.831407,0.229104 1.364229,-0.109404 0.451661,-0.286952 0.989814,-0.920136 1.632759,-1.921198 0.580993,-0.90461 1.283736,-1.202549 2.837856,-1.205094 1.551025,-0.0023 2.160562,0.291041 2.875977,1.390747 1.200302,1.845038 2.309754,2.487372 2.960519,1.713978 0.360522,-0.428447 0.426509,-0.842406 0.409431,-2.565996 -0.03111,-3.131006 -0.849546,-5.979338 -2.02893,-7.066455 -0.314103,-0.289533 -0.557986,-0.429217 -0.825499,-0.42933 z m -6.738245,1.844933 h 0.719412 0.719406 v 0.616637 0.61664 h 0.61664 0.616633 v 0.770797 0.770791 h -0.616633 -0.61664 v 0.668023 0.668026 h -0.651444 c -0.357887,0 -0.68008,-0.03211 -0.717752,-0.06961 -0.03766,-0.03766 -0.06959,-0.336727 -0.06959,-0.666363 v -0.60007 h -0.616645 -0.616641 v -0.770793 -0.770795 h 0.616641 0.616634 v -0.616642 z m 5.86468,0 c 0.649001,0 0.926941,0.71908 0.459164,1.186861 -0.29749,0.297457 -0.568995,0.320837 -0.861967,0.07295 -0.508167,-0.429995 -0.242935,-1.259794 0.402803,-1.259794 z M 49.639599,46.221 c 0.162065,1.09e-4 0.325226,0.06468 0.454185,0.207182 0.201035,0.222143 0.222754,0.730724 0.04146,0.968054 -0.354805,0.464484 -1.20675,0.165717 -1.20675,-0.422693 0,-0.446577 0.354591,-0.752808 0.711121,-0.75256 z m 2.54777,0.02495 c 0.186795,0.0035 0.368135,0.06527 0.474076,0.18233 0.201035,0.222143 0.222724,0.730722 0.04144,0.968055 -0.377384,0.494038 -1.206751,0.163367 -1.206751,-0.480712 0,-0.195235 0.07823,-0.406835 0.18729,-0.505575 0.124687,-0.112856 0.317151,-0.167515 0.503922,-0.164093 z m -1.254823,1.329411 c 0.575374,0 0.855333,0.610306 0.507229,1.107293 -0.119001,0.169891 -0.264129,0.228754 -0.563593,0.228754 -0.344776,0 -0.424785,-0.04487 -0.563588,-0.313304 -0.273699,-0.529262 0.02495,-1.022754 0.619952,-1.022754 z" />
  </g>
</svg>
