<?xml version="1.0" encoding="UTF-8" standalone="no"?>
<svg
   width="64"
   height="64"
   version="1.1"
   id="svg73"
   sodipodi:docname="fr.handbrake.ghb.svg"
   inkscape:version="1.4.2 (ebf0e940d0, 2025-05-08)"
   xmlns:inkscape="http://www.inkscape.org/namespaces/inkscape"
   xmlns:sodipodi="http://sodipodi.sourceforge.net/DTD/sodipodi-0.dtd"
   xmlns="http://www.w3.org/2000/svg"
   xmlns:svg="http://www.w3.org/2000/svg"
   xmlns:rdf="http://www.w3.org/1999/02/22-rdf-syntax-ns#"
   xmlns:cc="http://creativecommons.org/ns#"
   xmlns:dc="http://purl.org/dc/elements/1.1/">
  <metadata
     id="metadata77">
    <rdf:RDF>
      <cc:Work
         rdf:about="">
        <dc:format>image/svg+xml</dc:format>
        <dc:type
           rdf:resource="http://purl.org/dc/dcmitype/StillImage" />
      </cc:Work>
    </rdf:RDF>
  </metadata>
  <sodipodi:namedview
     pagecolor="#f5f7fa"
     bordercolor="#666666"
     borderopacity="1"
     objecttolerance="10"
     gridtolerance="10"
     guidetolerance="10"
     inkscape:pageopacity="0"
     inkscape:pageshadow="2"
     inkscape:window-width="1377"
     inkscape:window-height="886"
     id="namedview75"
     showgrid="false"
     inkscape:zoom="6.2890625"
     inkscape:cx="48.099379"
     inkscape:cy="45.396273"
     inkscape:window-x="0"
     inkscape:window-y="47"
     inkscape:window-maximized="0"
     inkscape:current-layer="g877"
     inkscape:document-rotation="0"
     inkscape:pagecheckerboard="0"
     inkscape:showpageshadow="2"
     inkscape:deskcolor="#d1d1d1" />
  <defs
     id="defs29" />
  <circle
     cx="32.516094"
     cy="31.877844"
     r="0"
     fill="url(#b)"
     stroke-width="1.5715"
     id="circle41"
     style="fill:url(#b)" />
  <g
     aria-label="GZ"
     transform="matrix(1.2212657,0,0,0.81882264,0.4960938,-0.1661539)"
     id="text93"
     style="font-weight:bold;font-size:11.5263px;line-height:1.25;font-family:sans-serif;-inkscape-font-specification:'sans-serif Bold';fill:#f2f2f2;stroke-width:0.288159" />
  <g
     id="g877"
     transform="matrix(1.1,0,0,1.1,-3.1845928,-3.2065454)">
    <circle
       style="opacity:1;fill:#414141;stroke:#dfdfdf;stroke-width:2.27272727;stroke-dasharray:none;fill-opacity:1;stroke-opacity:1"
       id="path1"
       cx="31.985994"
       cy="32.005951"
       r="25.454546" />
    <path
       style="fill:#dfdfdf;fill-opacity:1;stroke-width:0.0998883"
       d="m 31.169848,45.816968 c -1.242681,-0.130595 -2.237467,-0.373024 -3.329633,-0.811449 -1.728472,-0.693851 -2.937422,-1.58254 -4.293569,-3.156168 -1.364493,-1.583315 -2.096934,-2.954597 -2.825444,-5.289824 -0.112046,-0.359167 -0.27189,-1.271755 -0.368736,-2.105217 -0.169519,-1.458891 -0.01273,-3.580943 0.370935,-5.020198 0.201395,-0.755509 0.248792,-0.912896 0.4412,-1.46504 0.325378,-0.933729 0.360259,-1.017431 0.845517,-2.028992 0.755605,-1.575123 1.664519,-2.850369 2.985122,-4.188255 1.884931,-1.9096 3.72401,-3.013665 5.808347,-3.486955 0.383581,-0.0871 0.816145,-0.113203 1.864596,-0.112521 1.526231,8.19e-4 2.239508,0.111704 3.287619,0.510282 1.173143,0.446124 2.661618,1.406246 3.326648,2.145816 0.0668,0.0743 0.308313,0.329885 0.53667,0.567953 0.404424,0.421635 1.170688,1.415112 1.3744,1.781946 0.05575,0.100395 0.212788,0.370956 0.34899,0.601246 1.019873,1.724535 1.775292,4.05455 2.055637,6.340444 0.161269,1.314906 0.09948,3.296744 -0.148405,4.761378 -0.118562,0.700391 -0.543548,2.438264 -0.692129,2.830188 -0.04858,0.12818 -0.156073,0.412876 -0.238857,0.632631 -0.200728,0.53287 -0.682338,1.549795 -0.938636,1.981917 -0.113801,0.191853 -0.265606,0.453708 -0.337416,0.581898 -0.408348,0.72916 -1.558622,2.064496 -2.321954,2.695522 -0.934795,0.772783 -2.297318,1.533724 -3.222583,1.799756 -0.219755,0.06318 -0.471648,0.142901 -0.559759,0.177133 -0.59345,0.230631 -2.835751,0.375547 -3.968542,0.256515 z m 2.577187,-1.271089 c 0.577948,-0.116861 1.190389,-0.31484 1.451668,-0.469259 0.05494,-0.03247 0.169977,-0.08922 0.25564,-0.126077 0.222603,-0.0958 1.002103,-0.609466 1.271333,-0.837747 0.446698,-0.378764 1.081908,-1.068138 1.538851,-1.67007 0.254968,-0.335876 0.463585,-0.627468 0.463585,-0.647986 0,-0.02041 0.100843,-0.195222 0.224075,-0.388208 0.426356,-0.667713 0.828696,-1.540167 1.420925,-3.081204 0.05631,-0.146486 0.128613,-0.326304 0.160712,-0.399553 0.06788,-0.15496 0.379537,-1.327136 0.469176,-1.764707 0.347695,-1.697206 0.431771,-2.925519 0.330766,-4.83223 -0.0444,-0.838144 -0.106931,-1.644544 -0.138963,-1.791999 -0.03204,-0.147454 -0.09254,-0.476337 -0.134479,-0.730846 -0.04192,-0.254512 -0.17866,-0.838863 -0.303832,-1.298558 -0.869651,-3.193801 -2.534154,-5.401227 -4.863877,-6.450357 -0.61691,-0.277809 -0.828452,-0.270606 -1.468664,0.04999 -0.524417,0.262624 -1.459288,1.041706 -1.637497,1.36462 -0.04673,0.08469 -0.226329,0.328935 -0.399093,0.54277 -0.337259,0.417435 -0.598993,0.87941 -0.770339,1.359703 -0.137306,0.384875 -0.153037,1.76441 -0.02514,2.204137 0.121082,0.416291 0.512467,0.911005 0.883461,1.11671 0.2992,0.165895 0.310971,0.167148 0.487001,0.05181 0.09922,-0.06501 0.238177,-0.252999 0.308798,-0.417758 0.07062,-0.164757 0.173812,-0.344964 0.229305,-0.400458 0.05548,-0.05549 0.131356,-0.157808 0.168579,-0.227366 0.119329,-0.222961 0.300031,-0.275839 0.470614,-0.137704 0.147853,0.119725 0.155591,0.119701 0.285112,-9e-4 0.07322,-0.06822 0.149957,-0.123081 0.170519,-0.121915 0.0866,0.005 0.244494,0.177257 0.321219,0.350629 0.265247,0.599336 -0.138664,1.33067 -0.94974,1.71967 -0.377271,0.180941 -0.448101,0.191631 -1.269823,0.191681 -0.969022,5.9e-5 -1.360275,-0.08225 -1.959923,-0.41232 -0.489191,-0.269268 -0.867962,-0.690131 -1.151773,-1.279766 -0.59488,-1.235894 -0.594879,-2.21963 5e-6,-3.726064 0.132147,-0.334638 0.269054,-0.645687 0.304235,-0.691216 0.03519,-0.04553 0.150944,-0.266691 0.257247,-0.491471 0.179955,-0.380502 0.530873,-0.893433 0.688455,-1.00629 0.154542,-0.110681 -0.0633,-0.03891 -0.41822,0.137828 -1.137511,0.566371 -1.995955,1.327863 -3.034647,2.691916 -0.13272,0.174291 -0.241306,0.331035 -0.241306,0.348321 0,0.01729 -0.0997,0.189332 -0.221562,0.38233 -0.648503,1.027073 -1.445783,3.334146 -1.732189,5.012387 -0.307007,1.798979 -0.336833,2.167352 -0.336959,4.162041 -1.34e-4,2.611603 0.164517,3.89545 0.73019,5.69257 0.146304,0.46481 0.56593,1.445231 0.672507,1.571274 0.04889,0.0578 0.0889,0.124809 0.0889,0.148837 0,0.04719 0.40226,0.723304 0.462997,0.778222 0.02026,0.01824 0.126637,0.166247 0.236415,0.328728 0.571135,0.845394 2.119622,2.108288 3.175635,2.589939 1.267756,0.578229 2.565594,0.801015 3.530109,0.605977 z"
       id="path1-7" />
    <circle
       style="fill:#414141;fill-opacity:1;stroke:#dfdfdf;stroke-width:1.08705;stroke-dasharray:none;stroke-opacity:1"
       id="path1-6"
       cx="48.320271"
       cy="48.287033"
       r="12.17483" />
    <path
       id="path1-3"
       style="fill:#dfdfdf;fill-opacity:1;stroke:none;stroke-width:0.20182;stroke-dasharray:none;stroke-dashoffset:2.2;stroke-opacity:0.6"
       d="m 51.761355,43.058253 c -0.20805,-8.7e-5 -0.430751,0.08369 -0.709468,0.246992 -0.663244,0.38861 -1.530643,0.57188 -2.721813,0.57188 -1.191057,0 -2.087392,-0.187174 -2.746686,-0.573538 -0.528668,-0.309806 -0.844291,-0.313912 -1.287974,-0.01478 -1.13908,0.767625 -1.997557,3.228765 -2.249396,6.444848 -0.151015,1.928547 -0.0099,2.945286 0.488995,3.517478 0.240643,0.275876 0.831407,0.229104 1.364229,-0.109404 0.451661,-0.286952 0.989814,-0.920136 1.632759,-1.921198 0.580993,-0.90461 1.283736,-1.202549 2.837856,-1.205094 1.551025,-0.0023 2.160562,0.291041 2.875977,1.390747 1.200302,1.845038 2.309754,2.487372 2.960519,1.713978 0.360522,-0.428447 0.426509,-0.842406 0.409431,-2.565996 -0.03111,-3.131006 -0.849546,-5.979338 -2.02893,-7.066455 -0.314103,-0.289533 -0.557986,-0.429217 -0.825499,-0.42933 z m -6.738245,1.844933 h 0.719412 0.719406 v 0.616637 0.61664 h 0.61664 0.616633 v 0.770797 0.770791 h -0.616633 -0.61664 v 0.668023 0.668026 h -0.651444 c -0.357887,0 -0.68008,-0.03211 -0.717752,-0.06961 -0.03766,-0.03766 -0.06959,-0.336727 -0.06959,-0.666363 v -0.60007 h -0.616645 -0.616641 v -0.770793 -0.770795 h 0.616641 0.616634 v -0.616642 z m 5.86468,0 c 0.649001,0 0.926941,0.71908 0.459164,1.186861 -0.29749,0.297457 -0.568995,0.320837 -0.861967,0.07295 -0.508167,-0.429995 -0.242935,-1.259794 0.402803,-1.259794 z M 49.639599,46.221 c 0.162065,1.09e-4 0.325226,0.06468 0.454185,0.207182 0.201035,0.222143 0.222754,0.730724 0.04146,0.968054 -0.354805,0.464484 -1.20675,0.165717 -1.20675,-0.422693 0,-0.446577 0.354591,-0.752808 0.711121,-0.75256 z m 2.54777,0.02495 c 0.186795,0.0035 0.368135,0.06527 0.474076,0.18233 0.201035,0.222143 0.222724,0.730722 0.04144,0.968055 -0.377384,0.494038 -1.206751,0.163367 -1.206751,-0.480712 0,-0.195235 0.07823,-0.406835 0.18729,-0.505575 0.124687,-0.112856 0.317151,-0.167515 0.503922,-0.164093 z m -1.254823,1.329411 c 0.575374,0 0.855333,0.610306 0.507229,1.107293 -0.119001,0.169891 -0.264129,0.228754 -0.563593,0.228754 -0.344776,0 -0.424785,-0.04487 -0.563588,-0.313304 -0.273699,-0.529262 0.02495,-1.022754 0.619952,-1.022754 z" />
  </g>
</svg>
