<?xml version="1.0" encoding="UTF-8" standalone="no"?>
<svg
   width="64"
   height="64"
   version="1.1"
   id="svg73"
   sodipodi:docname="fr.handbrake.ghb.svg"
   inkscape:version="1.4.2 (ebf0e940d0, 2025-05-08)"
   xmlns:inkscape="http://www.inkscape.org/namespaces/inkscape"
   xmlns:sodipodi="http://sodipodi.sourceforge.net/DTD/sodipodi-0.dtd"
   xmlns="http://www.w3.org/2000/svg"
   xmlns:svg="http://www.w3.org/2000/svg"
   xmlns:rdf="http://www.w3.org/1999/02/22-rdf-syntax-ns#"
   xmlns:cc="http://creativecommons.org/ns#"
   xmlns:dc="http://purl.org/dc/elements/1.1/">
  <metadata
     id="metadata77">
    <rdf:RDF>
      <cc:Work
         rdf:about="">
        <dc:format>image/svg+xml</dc:format>
        <dc:type
           rdf:resource="http://purl.org/dc/dcmitype/StillImage" />
      </cc:Work>
    </rdf:RDF>
  </metadata>
  <sodipodi:namedview
     pagecolor="#f5f7fa"
     bordercolor="#666666"
     borderopacity="1"
     objecttolerance="10"
     gridtolerance="10"
     guidetolerance="10"
     inkscape:pageopacity="0"
     inkscape:pageshadow="2"
     inkscape:window-width="1377"
     inkscape:window-height="886"
     id="namedview75"
     showgrid="false"
     inkscape:zoom="6.2890625"
     inkscape:cx="48.099379"
     inkscape:cy="45.396273"
     inkscape:window-x="0"
     inkscape:window-y="47"
     inkscape:window-maximized="0"
     inkscape:current-layer="g877"
     inkscape:document-rotation="0"
     inkscape:pagecheckerboard="0"
     inkscape:showpageshadow="2"
     inkscape:deskcolor="#d1d1d1" />
  <defs
     id="defs29" />
  <circle
     cx="32.516094"
     cy="31.877844"
     r="0"
     fill="url(#b)"
     stroke-width="1.5715"
     id="circle41"
     style="fill:url(#b)" />
  <g
     aria-label="GZ"
     transform="matrix(1.2212657,0,0,0.81882264,0.4960938,-0.1661539)"
     id="text93"
     style="font-weight:bold;font-size:11.5263px;line-height:1.25;font-family:sans-serif;-inkscape-font-specification:'sans-serif Bold';fill:#f2f2f2;stroke-width:0.288159" />
  <g
     id="g877"
     transform="matrix(1.1,0,0,1.1,-3.1845928,-3.2065454)">
    <circle
       style="opacity:1;fill:#414141;stroke:#dfdfdf;stroke-width:2.27272727;stroke-dasharray:none;fill-opacity:1;stroke-opacity:1"
       id="path1"
       cx="31.985994"
       cy="32.005951"
       r="25.454546" />
    <path
       style="fill:#dfdfdf;fill-opacity:1;stroke-width:0.0458062"
       d="m 29.435241,45.920041 c -0.03806,-0.04585 -0.223112,-0.531419 -0.41124,-1.079037 -0.669931,-1.950083 -1.583929,-3.846973 -2.400434,-4.981805 -0.289997,-0.403057 -0.925486,-1.06881 -1.020225,-1.06881 -0.181812,0 -0.125053,0.830403 0.104368,1.526877 0.287728,0.873463 1.005342,2.196839 1.750371,3.227913 0.485116,0.671355 0.604594,1.108404 0.303012,1.108404 -0.168586,0 -0.419139,-0.286824 -0.820046,-0.938792 -0.471688,-0.767068 -0.880801,-1.311869 -1.231368,-1.639784 -0.380631,-0.356036 -0.548462,-0.41317 -0.692212,-0.235646 -0.133746,0.165171 -0.112571,0.224075 0.296065,0.823239 0.181006,0.265417 0.307134,0.503769 0.280289,0.529708 -0.112417,0.108642 -0.41828,-0.04417 -0.81237,-0.405809 -0.578923,-0.531267 -0.758183,-0.579284 -1.486259,-0.398057 -0.709486,0.176565 -1.506418,0.228327 -2.008082,0.130386 -1.709499,-0.333817 -3.083575,-1.885725 -3.733774,-4.217014 -0.494287,-1.772288 -0.460074,-3.979025 0.0857,-5.527441 0.377799,-1.071868 0.655422,-1.479626 1.757961,-2.582032 0.907033,-0.906918 1.150968,-1.266555 1.212718,-1.78793 0.0372,-0.314042 0.148003,-0.441636 0.274068,-0.315574 0.107844,0.10785 0.07017,0.812988 -0.06124,1.146399 -0.06634,0.16831 -0.30136,0.604075 -0.52225,0.968337 -0.548446,0.904428 -0.662214,1.22037 -0.694836,1.929647 -0.03064,0.6659 0.08342,1.072017 0.429542,1.529417 0.108078,0.142839 0.233791,0.309985 0.279356,0.371448 0.04558,0.06145 0.120084,0.449595 0.165592,0.862521 0.144241,1.308731 0.497784,2.161496 1.186759,2.862517 0.524647,0.533821 0.927441,0.737408 1.530581,0.773603 0.631668,0.03792 0.965294,-0.133607 1.307422,-0.672216 0.158015,-0.248762 0.142528,-1.22604 -0.03048,-1.922833 -0.155544,-0.626427 -0.464054,-1.329883 -0.731143,-1.66711 -0.274926,-0.347128 -0.718609,-0.540858 -1.409025,-0.615245 -1.058588,-0.114057 -1.203994,-0.159656 -1.521531,-0.477194 -0.75863,-0.758626 -0.614984,-2.153182 0.269341,-2.61482 0.770805,-0.402378 2.523716,0.561177 3.440368,1.891134 0.531698,0.771427 0.844803,1.474759 1.529135,3.434884 0.523454,1.499315 0.726863,2.010988 1.098189,2.762432 0.282303,0.571298 0.743219,1.176907 0.895718,1.176907 0.119256,0 0.273314,-0.202425 0.315815,-0.414891 0.04871,-0.243544 0.192539,-0.379351 0.269641,-0.254591 0.08546,0.138301 0.167855,0.806775 0.238353,1.934035 0.08329,1.331731 0.234524,2.113313 0.653375,3.376449 0.382366,1.15311 0.412876,1.48366 0.139876,1.515385 -0.08686,0.0099 -0.189054,-0.01932 -0.227107,-0.06504 z m -7.344299,-4.379575 c 0.611351,-0.311897 0.766875,-1.020555 0.396279,-1.805689 -0.358912,-0.760382 -0.947957,-1.152517 -1.736588,-1.156091 -0.813724,-0.0039 -1.170906,0.293901 -1.211323,1.009168 -0.03004,0.531628 0.145782,0.887043 0.681725,1.378141 0.723515,0.662977 1.330754,0.849525 1.869907,0.574471 z m 10.584571,4.294168 c -0.110669,-0.04465 -0.09991,-1.664909 0.01687,-2.567378 0.166962,-1.288464 0.441996,-2.286374 1.077112,-3.908086 0.5296,-1.352284 0.989022,-2.039367 2.340527,-3.500383 1.97974,-2.140138 2.420047,-2.928962 2.66226,-4.769615 0.225014,-1.710075 0.505933,-2.239373 1.435743,-2.705399 0.480401,-0.240775 0.942659,-0.337272 2.101893,-0.438744 1.368755,-0.119834 1.935679,-0.255724 2.401662,-0.57572 0.195659,-0.134326 0.37951,-0.244238 0.408658,-0.244238 0.2312,0 -0.04523,0.650713 -0.468719,1.103494 -0.414967,0.443628 -0.767749,0.605604 -1.462092,0.671297 -0.694956,0.06574 -0.833639,0.09784 -1.188502,0.275087 -0.914156,0.45658 -1.655056,1.46707 -2.19142,2.988812 -0.243075,0.689585 -0.384534,0.930591 -0.860432,1.465799 -0.978293,1.100214 -1.14891,1.765244 -0.530395,2.067402 0.602713,0.294442 1.890173,-0.302887 2.440783,-1.132423 0.498337,-0.75077 0.59627,-1.489277 0.290043,-2.187015 -0.217861,-0.496379 -0.223605,-0.596497 -0.05372,-0.933828 0.302895,-0.601436 0.928473,-1.148698 1.726738,-1.510648 0.663586,-0.300883 2.041153,-0.682879 2.347213,-0.650871 0.516036,0.05397 1.096445,0.740988 1.392057,1.647773 0.217449,0.666846 0.270387,1.798001 0.119218,2.544112 -0.230593,1.138079 -0.744906,2.156742 -1.485013,2.941292 -0.686313,0.727531 -1.489625,1.171819 -3.44898,1.907522 -0.479799,0.180194 -1.009782,0.397348 -1.177742,0.482633 -0.770026,0.391014 -1.609237,1.170592 -2.613579,2.427885 -0.33542,0.419886 -0.648924,0.78635 -0.696675,0.814349 -0.153931,0.0903 -0.262654,-0.0049 -0.262654,-0.23051 0,-0.454426 0.465167,-1.20894 1.272207,-2.063523 0.612145,-0.648217 0.865411,-1.003566 0.865411,-1.214232 0,-0.347217 -0.256386,-0.275829 -1.068815,0.297607 -1.311003,0.92534 -2.280388,2.32419 -2.839424,4.097357 -0.138763,0.440054 -0.288472,0.806686 -0.337085,0.825339 -0.134619,0.05166 -0.273623,-0.127311 -0.244497,-0.314807 0.014,-0.09102 0.04112,-0.347404 0.05991,-0.569619 0.08378,-0.989602 0.450306,-1.902231 1.100924,-2.741332 1.035762,-1.335802 1.30289,-1.954684 0.865346,-2.00478 -0.467769,-0.05352 -1.683281,1.171864 -2.291486,2.310154 -0.492716,0.922145 -0.833827,2.096728 -1.170639,4.030944 -0.179594,1.031393 -0.291949,1.412962 -0.412185,1.399907 -0.02443,-0.0026 -0.07873,-0.01877 -0.120751,-0.03566 z m 7.092793,-8.446241 c 0.401671,-0.152716 1.014907,-0.923342 1.014907,-1.275384 0,-0.197391 -0.04649,-0.224351 -0.335904,-0.194685 -0.402131,0.04117 -1.496345,0.945381 -1.496345,1.236495 0,0.07995 0.03308,0.178317 0.07323,0.218664 0.08774,0.08776 0.529292,0.09661 0.744056,0.01463 z m 3.635885,-0.586153 c 0.908712,-0.414665 1.654268,-1.723721 1.654268,-2.904605 0,-0.812065 -0.282269,-1.235709 -0.82263,-1.234591 -0.868885,0.002 -2.189484,1.513701 -2.477596,2.836529 -0.101462,0.465896 -0.05485,1.049478 0.09757,1.220316 0.302318,0.338973 0.914692,0.37154 1.548436,0.08238 z m -12.328729,6.803591 c -0.194193,-0.319329 -0.282501,-0.918849 -0.642584,-4.362499 -0.225704,-2.158547 -0.415552,-3.150882 -0.741937,-3.878172 -0.282335,-0.629126 -0.723108,-0.852966 -0.996132,-0.505871 -0.115137,0.146384 -0.126582,0.242833 -0.126582,1.066661 0,0.817937 -0.01094,0.911588 -0.112705,0.966058 -0.357401,0.191277 -0.719898,-0.595978 -1.10904,-2.408554 -0.201113,-0.93676 -0.367846,-1.325706 -0.829517,-1.935094 -0.227359,-0.3001 -0.330661,-0.492924 -0.330661,-0.617204 0,-0.128975 0.144365,-0.381842 0.503868,-0.882588 0.277127,-0.386011 0.56501,-0.742321 0.639739,-0.791802 0.07472,-0.04949 0.390791,-0.144121 0.702361,-0.210343 0.346823,-0.07367 0.785433,-0.225773 1.131108,-0.392178 1.338007,-0.64412 1.917831,-1.746413 1.726892,-3.282965 -0.227159,-1.828025 -1.336595,-3.121695 -2.747154,-3.203349 -0.713779,-0.04135 -0.883483,0.0083 -1.265895,0.36994 -1.385794,1.310627 -2.012096,4.029947 -1.138235,4.942064 0.314362,0.328123 0.595811,0.199345 1.545834,-0.707418 0.394646,-0.376668 0.523244,-0.469054 0.539003,-0.387225 0.05479,0.284505 -1.473962,2.345625 -2.173834,2.930839 -0.441228,0.368945 -0.694189,0.46053 -0.899848,0.325773 -0.213897,-0.140149 -0.785147,-0.961377 -1.065591,-1.5319 -1.309309,-2.66358 -0.569318,-6.34909 1.717082,-8.551893 0.62917,-0.606167 0.998017,-0.869129 1.731331,-1.234323 1.014681,-0.505316 1.99936,-0.746683 3.23697,-0.793451 1.797894,-0.06795 3.662931,0.473723 5.057466,1.46884 0.46832,0.334187 1.328732,1.107528 1.429585,1.284916 0.150562,0.264832 0.0884,0.383895 -0.631425,1.209526 -0.390462,0.447849 -1.052552,1.247139 -1.471323,1.776201 -0.418763,0.529061 -0.787246,0.961929 -0.818854,0.961929 -0.147785,0 -0.09987,-0.212706 0.158249,-0.702078 0.305524,-0.579277 0.312437,-0.697282 0.0546,-0.931679 -0.10365,-0.09423 -0.227659,-0.137416 -0.394481,-0.137416 -1.124519,0 -2.075836,2.032194 -1.760219,3.760159 0.150921,0.826183 0.726423,1.603875 1.476791,1.995571 0.355875,0.185764 0.421052,0.198812 0.992909,0.19893 0.568138,1.4e-4 0.641167,-0.01419 1.018223,-0.199826 0.913651,-0.449783 1.512132,-1.481395 1.513861,-2.609478 6.84e-4,-0.503649 -0.08248,-0.760661 -0.393605,-1.215115 -0.384807,-0.562052 -0.4602,-0.731112 -0.4602,-1.031865 0,-0.453819 0.298724,-0.949083 1.000613,-1.658941 0.798611,-0.80768 1.124244,-0.977315 2.109693,-1.099023 0.481572,-0.05947 0.745232,-0.121717 0.854379,-0.201685 0.253045,-0.185382 0.524042,-0.636253 0.608017,-1.011497 0.05106,-0.228319 0.108365,-0.347415 0.16691,-0.347415 0.144128,0 0.164591,0.15499 0.08876,0.67358 -0.08168,0.558895 -0.178508,0.822677 -0.396914,1.082298 -0.169478,0.201465 -0.27759,0.252294 -0.949042,0.446446 -0.628019,0.181594 -0.92833,0.401476 -1.14167,0.835917 -0.222253,0.452583 -0.221508,0.952735 0.0031,1.847752 0.431931,1.724824 0.02623,2.988261 -1.576194,4.909488 -1.525221,1.828476 -1.692363,2.122851 -2.055815,3.620592 -0.476098,1.961971 -0.841712,3.270227 -0.94617,3.385656 -0.130996,0.144817 -0.248051,0.148159 -0.321508,0.0092 -0.03109,-0.0587 -0.06757,-0.587795 -0.08108,-1.175643 -0.02578,-1.119129 -0.07503,-1.343645 -0.294962,-1.343645 -0.295456,0 -0.462836,0.716255 -0.549481,2.351384 -0.143686,2.711965 -0.216035,3.31067 -0.407556,3.373419 -0.278714,0.09132 -0.370303,-1.287157 -0.265046,-3.988998 0.153256,-3.933782 -0.01569,-6.089026 -0.51404,-6.557187 -0.116219,-0.109175 -0.168839,-0.123353 -0.265843,-0.07143 -0.265509,0.142089 -0.556293,0.850166 -0.861399,2.097534 -0.222439,0.9094 -0.232738,1.103112 -0.06745,1.268396 0.170741,0.170741 0.231145,0.155838 0.495609,-0.122146 0.127823,-0.134376 0.260013,-0.244301 0.293769,-0.244301 0.211994,0 0.259574,0.641669 0.131335,1.771173 -0.04004,0.35271 -0.08859,1.482836 -0.107941,2.511401 -0.03682,1.959133 0.01041,2.978162 0.228761,4.937984 0.120508,1.081553 0.146318,1.69498 0.0815,1.936673 -0.05796,0.216065 -0.197969,0.220429 -0.325896,0.0099 z M 35.99319,33.564116 c -0.11839,-0.118408 -0.12017,-0.231706 -0.0096,-0.599436 0.103412,-0.343516 0.345224,-0.676379 0.607706,-0.836436 0.216757,-0.13218 0.56472,-0.155673 0.605018,-0.04083 0.113253,0.32275 -0.703941,1.57268 -1.028223,1.57268 -0.04344,0 -0.122225,-0.04321 -0.174994,-0.09596 z M 20.268648,26.674979 c -0.04056,-0.04891 -0.07925,-0.166834 -0.086,-0.262129 -0.0096,-0.136209 0.01627,-0.177304 0.121055,-0.19228 0.154387,-0.02193 0.281784,0.166137 0.252273,0.372622 -0.02284,0.159887 -0.184352,0.205876 -0.287325,0.08177 z m 8.055278,-0.156321 c 0,-0.119225 0.06863,-0.251639 0.2057,-0.396988 0.227954,-0.241694 0.43724,-0.283166 0.495924,-0.09827 0.07675,0.241827 -0.262522,0.674132 -0.52905,0.674132 -0.150104,0 -0.172581,-0.02339 -0.172574,-0.17887 z m 17.386001,-0.47259 c -0.154817,-0.154824 0.109717,-0.727374 0.365788,-0.791643 0.231257,-0.05804 0.299402,0.05026 0.213057,0.338523 -0.09763,0.326024 -0.438831,0.593096 -0.578808,0.45312 z m -4.861509,-7.28054 c -0.08291,-0.154934 -0.08393,-0.46939 -0.0022,-0.622486 0.0358,-0.06692 0.127364,-0.118133 0.211288,-0.118133 0.207369,0 0.33011,0.387534 0.205435,0.648422 -0.103006,0.215625 -0.322622,0.264431 -0.414776,0.09219 z"
       id="path1-3-8" />
    <circle
       style="fill:#414141;fill-opacity:1;stroke:#dfdfdf;stroke-width:1.08705;stroke-dasharray:none;stroke-opacity:1"
       id="path1-6"
       cx="48.320271"
       cy="48.287033"
       r="12.17483" />
    <path
       id="path1-3"
       style="fill:#dfdfdf;fill-opacity:1;stroke:none;stroke-width:0.20182;stroke-dasharray:none;stroke-dashoffset:2.2;stroke-opacity:0.6"
       d="m 51.761355,43.058253 c -0.20805,-8.7e-5 -0.430751,0.08369 -0.709468,0.246992 -0.663244,0.38861 -1.530643,0.57188 -2.721813,0.57188 -1.191057,0 -2.087392,-0.187174 -2.746686,-0.573538 -0.528668,-0.309806 -0.844291,-0.313912 -1.287974,-0.01478 -1.13908,0.767625 -1.997557,3.228765 -2.249396,6.444848 -0.151015,1.928547 -0.0099,2.945286 0.488995,3.517478 0.240643,0.275876 0.831407,0.229104 1.364229,-0.109404 0.451661,-0.286952 0.989814,-0.920136 1.632759,-1.921198 0.580993,-0.90461 1.283736,-1.202549 2.837856,-1.205094 1.551025,-0.0023 2.160562,0.291041 2.875977,1.390747 1.200302,1.845038 2.309754,2.487372 2.960519,1.713978 0.360522,-0.428447 0.426509,-0.842406 0.409431,-2.565996 -0.03111,-3.131006 -0.849546,-5.979338 -2.02893,-7.066455 -0.314103,-0.289533 -0.557986,-0.429217 -0.825499,-0.42933 z m -6.738245,1.844933 h 0.719412 0.719406 v 0.616637 0.61664 h 0.61664 0.616633 v 0.770797 0.770791 h -0.616633 -0.61664 v 0.668023 0.668026 h -0.651444 c -0.357887,0 -0.68008,-0.03211 -0.717752,-0.06961 -0.03766,-0.03766 -0.06959,-0.336727 -0.06959,-0.666363 v -0.60007 h -0.616645 -0.616641 v -0.770793 -0.770795 h 0.616641 0.616634 v -0.616642 z m 5.86468,0 c 0.649001,0 0.926941,0.71908 0.459164,1.186861 -0.29749,0.297457 -0.568995,0.320837 -0.861967,0.07295 -0.508167,-0.429995 -0.242935,-1.259794 0.402803,-1.259794 z M 49.639599,46.221 c 0.162065,1.09e-4 0.325226,0.06468 0.454185,0.207182 0.201035,0.222143 0.222754,0.730724 0.04146,0.968054 -0.354805,0.464484 -1.20675,0.165717 -1.20675,-0.422693 0,-0.446577 0.354591,-0.752808 0.711121,-0.75256 z m 2.54777,0.02495 c 0.186795,0.0035 0.368135,0.06527 0.474076,0.18233 0.201035,0.222143 0.222724,0.730722 0.04144,0.968055 -0.377384,0.494038 -1.206751,0.163367 -1.206751,-0.480712 0,-0.195235 0.07823,-0.406835 0.18729,-0.505575 0.124687,-0.112856 0.317151,-0.167515 0.503922,-0.164093 z m -1.254823,1.329411 c 0.575374,0 0.855333,0.610306 0.507229,1.107293 -0.119001,0.169891 -0.264129,0.228754 -0.563593,0.228754 -0.344776,0 -0.424785,-0.04487 -0.563588,-0.313304 -0.273699,-0.529262 0.02495,-1.022754 0.619952,-1.022754 z" />
  </g>
</svg>
