<?xml version="1.0" encoding="UTF-8" standalone="no"?>
<svg
   width="64"
   height="64"
   version="1.1"
   id="svg73"
   sodipodi:docname="fr.handbrake.ghb.svg"
   inkscape:version="1.4.2 (ebf0e940d0, 2025-05-08)"
   xmlns:inkscape="http://www.inkscape.org/namespaces/inkscape"
   xmlns:sodipodi="http://sodipodi.sourceforge.net/DTD/sodipodi-0.dtd"
   xmlns="http://www.w3.org/2000/svg"
   xmlns:svg="http://www.w3.org/2000/svg"
   xmlns:rdf="http://www.w3.org/1999/02/22-rdf-syntax-ns#"
   xmlns:cc="http://creativecommons.org/ns#"
   xmlns:dc="http://purl.org/dc/elements/1.1/">
  <metadata
     id="metadata77">
    <rdf:RDF>
      <cc:Work
         rdf:about="">
        <dc:format>image/svg+xml</dc:format>
        <dc:type
           rdf:resource="http://purl.org/dc/dcmitype/StillImage" />
      </cc:Work>
    </rdf:RDF>
  </metadata>
  <sodipodi:namedview
     pagecolor="#f5f7fa"
     bordercolor="#666666"
     borderopacity="1"
     objecttolerance="10"
     gridtolerance="10"
     guidetolerance="10"
     inkscape:pageopacity="0"
     inkscape:pageshadow="2"
     inkscape:window-width="1377"
     inkscape:window-height="886"
     id="namedview75"
     showgrid="false"
     inkscape:zoom="6.2890625"
     inkscape:cx="48.099379"
     inkscape:cy="45.396273"
     inkscape:window-x="0"
     inkscape:window-y="47"
     inkscape:window-maximized="0"
     inkscape:current-layer="g877"
     inkscape:document-rotation="0"
     inkscape:pagecheckerboard="0"
     inkscape:showpageshadow="2"
     inkscape:deskcolor="#d1d1d1" />
  <defs
     id="defs29" />
  <circle
     cx="32.516094"
     cy="31.877844"
     r="0"
     fill="url(#b)"
     stroke-width="1.5715"
     id="circle41"
     style="fill:url(#b)" />
  <g
     aria-label="GZ"
     transform="matrix(1.2212657,0,0,0.81882264,0.4960938,-0.1661539)"
     id="text93"
     style="font-weight:bold;font-size:11.5263px;line-height:1.25;font-family:sans-serif;-inkscape-font-specification:'sans-serif Bold';fill:#f2f2f2;stroke-width:0.288159" />
  <g
     id="g877"
     transform="matrix(1.1,0,0,1.1,-3.1845928,-3.2065454)">
    <circle
       style="opacity:1;fill:#414141;stroke:#dfdfdf;stroke-width:2.27272727;stroke-dasharray:none;fill-opacity:1;stroke-opacity:1"
       id="path1"
       cx="31.985994"
       cy="32.005951"
       r="25.454546" />
    <path
       style="fill:#dfdfdf;fill-opacity:1;stroke:none;stroke-width:0.416787;stroke-dasharray:none;stroke-opacity:0.6"
       d="M 30.824321,44.083476 C 29.249234,42.130982 27.912493,40.045024 26.83196,37.853461 l -0.951965,-1.930791 0.04673,-3.166492 c 0.04444,-3.011209 -0.222943,-6.47805 -0.732628,-9.499485 -0.07166,-0.424772 -0.103458,-0.800851 -0.07069,-0.835728 0.03278,-0.03486 0.199048,0.06278 0.369481,0.217015 0.170429,0.15424 0.309727,0.252279 0.309549,0.217875 -1.7e-4,-0.0344 -0.347801,-0.995042 -0.772494,-2.134753 -0.424696,-1.13971 -0.746457,-2.097916 -0.71503,-2.129345 0.03144,-0.03142 0.620269,0.330762 1.30853,0.804872 0.785838,0.541323 1.402481,1.103638 1.65753,1.511491 0.223375,0.357216 0.36664,0.527839 0.318358,0.379168 -0.141683,-0.436292 0.229473,-0.322627 1.407424,0.431016 1.093059,0.699329 1.095555,0.702515 0.877832,1.119857 -0.176671,0.338651 -0.218367,1.509342 -0.218432,6.133669 -5.7e-5,3.648041 0.06087,5.938606 0.168442,6.33299 0.251525,0.922077 1.312723,3.027579 1.778887,3.529434 l 0.408865,0.440177 0.359286,-0.440177 c 0.421689,-0.516633 1.510856,-2.674488 1.742482,-3.452205 0.257671,-0.865185 0.350018,-5.036281 0.196628,-8.88163 -0.07794,-1.953959 -0.167026,-3.690785 -0.197961,-3.859615 -0.04266,-0.232869 0.183898,-0.468385 0.938621,-0.975704 0.547177,-0.367807 1.110968,-0.638377 1.252872,-0.601269 0.164249,0.04294 0.354307,-0.09556 0.522962,-0.381059 0.230632,-0.390401 2.693761,-2.207674 2.820507,-2.080927 0.02577,0.02586 -0.30045,0.979547 -0.725114,2.119257 -0.424691,1.139711 -0.772315,2.100353 -0.772494,2.134757 -1.52e-4,0.0344 0.13908,-0.06365 0.309553,-0.217872 0.170404,-0.154232 0.34295,-0.247351 0.383386,-0.206916 0.04043,0.04045 -0.02605,0.659793 -0.147891,1.376349 -0.515784,3.035489 -0.729269,6.164784 -0.61749,9.05128 l 0.108647,2.80563 -0.799451,1.673804 c -1.078965,2.259031 -2.428688,4.425761 -4.0014,6.423537 -0.718952,0.913274 -1.348644,1.660438 -1.399323,1.660371 -0.05067,-7.1e-5 -0.57802,-0.602424 -1.171874,-1.33857 z m 5.636398,-22.680339 c 0,-0.04247 -0.03474,-0.07723 -0.07721,-0.07723 -0.04248,0 -0.07722,0.03475 -0.07722,0.07723 0,0.04247 0.03474,0.07723 0.07722,0.07723 0.04248,0 0.07721,-0.03475 0.07721,-0.07723 z"
       id="path1-5" />
    <circle
       style="fill:#414141;fill-opacity:1;stroke:#dfdfdf;stroke-width:1.08705;stroke-dasharray:none;stroke-opacity:1"
       id="path1-6"
       cx="48.320271"
       cy="48.287033"
       r="12.17483" />
    <path
       id="path1-3"
       style="fill:#dfdfdf;fill-opacity:1;stroke:none;stroke-width:0.20182;stroke-dasharray:none;stroke-dashoffset:2.2;stroke-opacity:0.6"
       d="m 51.761355,43.058253 c -0.20805,-8.7e-5 -0.430751,0.08369 -0.709468,0.246992 -0.663244,0.38861 -1.530643,0.57188 -2.721813,0.57188 -1.191057,0 -2.087392,-0.187174 -2.746686,-0.573538 -0.528668,-0.309806 -0.844291,-0.313912 -1.287974,-0.01478 -1.13908,0.767625 -1.997557,3.228765 -2.249396,6.444848 -0.151015,1.928547 -0.0099,2.945286 0.488995,3.517478 0.240643,0.275876 0.831407,0.229104 1.364229,-0.109404 0.451661,-0.286952 0.989814,-0.920136 1.632759,-1.921198 0.580993,-0.90461 1.283736,-1.202549 2.837856,-1.205094 1.551025,-0.0023 2.160562,0.291041 2.875977,1.390747 1.200302,1.845038 2.309754,2.487372 2.960519,1.713978 0.360522,-0.428447 0.426509,-0.842406 0.409431,-2.565996 -0.03111,-3.131006 -0.849546,-5.979338 -2.02893,-7.066455 -0.314103,-0.289533 -0.557986,-0.429217 -0.825499,-0.42933 z m -6.738245,1.844933 h 0.719412 0.719406 v 0.616637 0.61664 h 0.61664 0.616633 v 0.770797 0.770791 h -0.616633 -0.61664 v 0.668023 0.668026 h -0.651444 c -0.357887,0 -0.68008,-0.03211 -0.717752,-0.06961 -0.03766,-0.03766 -0.06959,-0.336727 -0.06959,-0.666363 v -0.60007 h -0.616645 -0.616641 v -0.770793 -0.770795 h 0.616641 0.616634 v -0.616642 z m 5.86468,0 c 0.649001,0 0.926941,0.71908 0.459164,1.186861 -0.29749,0.297457 -0.568995,0.320837 -0.861967,0.07295 -0.508167,-0.429995 -0.242935,-1.259794 0.402803,-1.259794 z M 49.639599,46.221 c 0.162065,1.09e-4 0.325226,0.06468 0.454185,0.207182 0.201035,0.222143 0.222754,0.730724 0.04146,0.968054 -0.354805,0.464484 -1.20675,0.165717 -1.20675,-0.422693 0,-0.446577 0.354591,-0.752808 0.711121,-0.75256 z m 2.54777,0.02495 c 0.186795,0.0035 0.368135,0.06527 0.474076,0.18233 0.201035,0.222143 0.222724,0.730722 0.04144,0.968055 -0.377384,0.494038 -1.206751,0.163367 -1.206751,-0.480712 0,-0.195235 0.07823,-0.406835 0.18729,-0.505575 0.124687,-0.112856 0.317151,-0.167515 0.503922,-0.164093 z m -1.254823,1.329411 c 0.575374,0 0.855333,0.610306 0.507229,1.107293 -0.119001,0.169891 -0.264129,0.228754 -0.563593,0.228754 -0.344776,0 -0.424785,-0.04487 -0.563588,-0.313304 -0.273699,-0.529262 0.02495,-1.022754 0.619952,-1.022754 z" />
  </g>
</svg>
