<?xml version="1.0" encoding="UTF-8" standalone="no"?>
<svg
   width="64"
   height="64"
   version="1.1"
   id="svg73"
   sodipodi:docname="fr.handbrake.ghb.svg"
   inkscape:version="1.4.2 (ebf0e940d0, 2025-05-08)"
   xmlns:inkscape="http://www.inkscape.org/namespaces/inkscape"
   xmlns:sodipodi="http://sodipodi.sourceforge.net/DTD/sodipodi-0.dtd"
   xmlns="http://www.w3.org/2000/svg"
   xmlns:svg="http://www.w3.org/2000/svg"
   xmlns:rdf="http://www.w3.org/1999/02/22-rdf-syntax-ns#"
   xmlns:cc="http://creativecommons.org/ns#"
   xmlns:dc="http://purl.org/dc/elements/1.1/">
  <metadata
     id="metadata77">
    <rdf:RDF>
      <cc:Work
         rdf:about="">
        <dc:format>image/svg+xml</dc:format>
        <dc:type
           rdf:resource="http://purl.org/dc/dcmitype/StillImage" />
      </cc:Work>
    </rdf:RDF>
  </metadata>
  <sodipodi:namedview
     pagecolor="#f5f7fa"
     bordercolor="#666666"
     borderopacity="1"
     objecttolerance="10"
     gridtolerance="10"
     guidetolerance="10"
     inkscape:pageopacity="0"
     inkscape:pageshadow="2"
     inkscape:window-width="1377"
     inkscape:window-height="886"
     id="namedview75"
     showgrid="false"
     inkscape:zoom="6.2890625"
     inkscape:cx="48.099379"
     inkscape:cy="45.396273"
     inkscape:window-x="0"
     inkscape:window-y="47"
     inkscape:window-maximized="0"
     inkscape:current-layer="g877"
     inkscape:document-rotation="0"
     inkscape:pagecheckerboard="0"
     inkscape:showpageshadow="2"
     inkscape:deskcolor="#d1d1d1" />
  <defs
     id="defs29" />
  <circle
     cx="32.516094"
     cy="31.877844"
     r="0"
     fill="url(#b)"
     stroke-width="1.5715"
     id="circle41"
     style="fill:url(#b)" />
  <g
     aria-label="GZ"
     transform="matrix(1.2212657,0,0,0.81882264,0.4960938,-0.1661539)"
     id="text93"
     style="font-weight:bold;font-size:11.5263px;line-height:1.25;font-family:sans-serif;-inkscape-font-specification:'sans-serif Bold';fill:#f2f2f2;stroke-width:0.288159" />
  <g
     id="g877"
     transform="matrix(1.1,0,0,1.1,-3.1845928,-3.2065454)">
    <circle
       style="opacity:1;fill:#414141;stroke:#dfdfdf;stroke-width:2.27272727;stroke-dasharray:none;fill-opacity:1;stroke-opacity:1"
       id="path1"
       cx="31.985994"
       cy="32.005951"
       r="25.454546" />
    <path
       style="fill:#dfdfdf;fill-opacity:1;stroke:none;stroke-width:0.416787;stroke-dasharray:none;stroke-opacity:0.6"
       d="m 26.514859,45.736857 c -1.185206,-0.424255 -1.768241,-1.172312 -1.78309,-2.287774 -0.0072,-0.537991 0.04184,-0.738989 0.26464,-1.085101 0.150384,-0.233657 0.417938,-0.508359 0.594558,-0.610488 l 0.321129,-0.185711 -0.132385,0.451182 c -0.249298,0.84963 0.110037,1.448787 0.918912,1.532195 0.573069,0.05913 1.135078,-0.226715 1.360261,-0.691733 0.365444,-0.754671 0.05288,-1.768142 -0.909812,-2.950077 -0.492286,-0.604398 -0.75562,-1.09659 -0.872739,-1.631243 -0.08217,-0.375092 -0.07421,-1.579363 0.0132,-1.998746 0.130743,-0.627191 0.698053,-1.683642 1.184808,-2.20634 0.488574,-0.524643 0.607935,-0.92835 0.308456,-1.043275 -0.24731,-0.0949 -0.272048,-0.08295 -0.251259,0.121391 0.03433,0.337601 -0.0014,0.413949 -0.512886,1.099259 -0.534103,0.715452 -0.706668,1.042742 -0.921187,1.74715 -0.186652,0.612904 -0.198064,1.821045 -0.02263,2.399954 0.199734,0.659205 0.422776,1.152183 0.521301,1.152183 0.04416,0 0.08026,0.04997 0.08026,0.111016 0,0.06993 -0.147356,0.08509 -0.398249,0.041 -1.071723,-0.18859 -1.963991,-0.886973 -2.427948,-1.90039 -0.232824,-0.508557 -0.269751,-0.716719 -0.232928,-1.313056 0.06088,-0.985864 0.468831,-1.766171 1.390111,-2.658876 0.998531,-0.96756 1.264707,-1.437014 1.223426,-2.157737 -0.02876,-0.501977 -0.06031,-0.568822 -0.283553,-0.600408 -0.388543,-0.05498 -0.531198,0.165081 -0.190895,0.294468 0.160122,0.06088 0.282537,0.189274 0.282199,0.295996 -9e-4,0.307302 -0.214618,0.98498 -0.310536,0.98498 -0.196335,0 -0.690944,-1.231295 -0.713437,-1.776049 -0.01919,-0.465205 0.04838,-0.696639 0.418622,-1.433703 0.393953,-0.784245 0.441541,-0.960279 0.441672,-1.633751 1.82e-4,-0.645208 -0.04213,-0.818681 -0.290996,-1.194749 -0.160128,-0.241972 -0.329244,-0.439947 -0.37581,-0.439947 -0.04657,0 -0.189261,0.09744 -0.317091,0.216539 -0.234295,0.218277 -0.323252,0.739263 -0.126224,0.739263 0.05839,0 0.106203,-0.04221 0.106203,-0.09381 0,-0.05161 0.107528,-0.126063 0.238948,-0.165488 0.226223,-0.06786 0.228011,-0.07602 0.0336,-0.153364 -0.14974,-0.05956 -0.169398,-0.103915 -0.07259,-0.163747 0.156403,-0.09666 0.14939,-0.10295 0.370632,0.332188 0.28741,0.565287 0.226214,1.458821 -0.154931,2.262024 l -0.327576,0.690298 -0.200778,-0.3717 c -0.453744,-0.840006 -0.651031,-1.715214 -0.69425,-3.079804 -0.03675,-1.160676 -0.009,-1.450807 0.220799,-2.308753 0.386804,-1.444032 0.888065,-2.36071 1.845341,-3.374666 0.773596,-0.819396 1.382703,-1.278608 2.304224,-1.73717 4.716455,-2.346979 10.307588,0.381847 11.396249,5.56209 0.03686,0.175229 0.06712,0.93987 0.06732,1.6992 3.45e-4,1.231662 -0.03226,1.480234 -0.302427,2.304183 -0.446724,1.362826 -0.492477,1.397078 -0.87029,0.651439 -0.258696,-0.510538 -0.313754,-0.749706 -0.313754,-1.362623 0,-0.770263 0.260194,-1.408962 0.510837,-1.254044 0.08111,0.05014 0.07764,0.08437 -0.01184,0.11414 -0.185553,0.06184 -0.156043,0.202365 0.05831,0.277986 0.102179,0.03605 0.245625,0.0934 0.318607,0.127436 0.230316,0.107348 0.144996,-0.243607 -0.142183,-0.584868 -0.151203,-0.179713 -0.314581,-0.326749 -0.363048,-0.326749 -0.151966,0 -0.514068,0.676303 -0.623972,1.165431 -0.141972,0.631831 -7.33e-4,1.308852 0.477609,2.289862 0.346373,0.710323 0.38226,0.860527 0.328984,1.376739 -0.05597,0.542665 -0.538071,1.646166 -0.719123,1.646166 -0.04329,0 -0.136291,-0.239965 -0.206647,-0.533254 -0.136632,-0.569668 -0.041,-0.847348 0.292016,-0.847348 0.126665,0 0.13332,-0.03137 0.03227,-0.152984 -0.130767,-0.157549 -0.423051,-0.109551 -0.561154,0.09214 -0.117512,0.171555 -0.09684,0.673714 0.04776,1.163624 0.09439,0.319772 0.367088,0.672936 1.015805,1.315544 0.61422,0.608429 0.972943,1.065419 1.167099,1.486799 0.32127,0.697289 0.424571,1.663552 0.247938,2.319443 -0.25162,0.934439 -1.176033,1.822453 -2.210086,2.123062 -0.718509,0.208881 -0.84828,0.164433 -0.56639,-0.193863 0.328893,-0.418119 0.533056,-1.204659 0.531426,-2.047221 -0.0021,-1.299284 -0.362209,-2.315059 -1.160803,-3.277241 -0.282511,-0.340368 -0.428288,-0.620527 -0.428288,-0.823052 0,-0.328579 -0.09248,-0.384449 -0.29736,-0.179593 -0.216051,0.216091 -0.145718,0.405085 0.360202,0.96782 1.129207,1.255956 1.579822,2.975127 1.154874,4.406081 -0.09839,0.331537 -0.420035,0.889757 -0.812968,1.411225 -0.357541,0.474495 -0.754958,1.120766 -0.883146,1.436161 -0.433092,1.065601 -0.04713,2.056121 0.868346,2.228397 1.031616,0.194101 1.765041,-0.655844 1.373835,-1.592136 l -0.159856,-0.382605 0.303789,0.157122 c 0.882814,0.456521 1.188178,1.707295 0.678852,2.780608 -0.40675,0.857153 -1.772118,1.49227 -2.942438,1.368689 -1.289778,-0.136218 -2.281984,-0.801327 -2.830208,-1.8972 -0.307764,-0.615199 -0.327509,-0.724834 -0.309577,-1.719114 0.0105,-0.584097 0.10946,-1.492101 0.219837,-2.017795 0.346521,-1.650348 0.368888,-1.795523 0.340774,-2.211939 -0.01505,-0.22361 -0.08314,-0.57531 -0.15122,-0.781565 -0.133162,-0.403418 -0.745603,-1.054947 -1.136174,-1.208691 -0.605081,-0.238183 -1.579877,0.746756 -1.710094,1.727889 -0.07885,0.59417 -0.06831,0.680942 0.289733,2.384766 0.275777,1.312332 0.301511,2.858743 0.05939,3.569302 -0.538143,1.579354 -2.730426,2.596276 -4.348443,2.017094 z m 3.241317,-11.446182 c 0,-0.03033 -0.122162,-0.24873 -0.271474,-0.485256 -0.577414,-0.914683 -0.450877,-1.387367 0.871677,-3.256182 0.1496,-0.211385 0.150385,-0.238945 0.0068,-0.238945 -0.18938,0 -0.793739,0.808814 -1.192799,1.596318 -0.195233,0.385285 -0.269717,0.681199 -0.249158,0.989967 0.03412,0.512577 0.480557,1.449313 0.690719,1.449313 0.07933,0 0.144228,-0.02485 0.144228,-0.05521 z m 5.039313,-0.48509 c 0.382996,-0.703692 0.38856,-1.20222 0.02133,-1.91006 -0.513848,-0.990418 -1.237435,-1.864212 -1.237435,-1.49431 0,0.05 0.160259,0.30091 0.356127,0.557554 0.926933,1.214523 1.071113,1.861813 0.613765,2.755407 -0.406209,0.793664 -0.18141,0.877116 0.24622,0.0914 z m -5.518706,-3.148323 c 0.299846,-0.220075 0.662368,-0.836603 0.555038,-0.943927 -0.04089,-0.04089 -0.158265,-0.0022 -0.260843,0.08586 -0.102576,0.08812 -0.282079,0.196495 -0.398899,0.240847 -0.209921,0.0797 -0.209958,0.08156 -0.004,0.1582 0.198119,0.07374 0.195491,0.08574 -0.0531,0.243045 -0.143837,0.09101 -0.369052,0.19757 -0.500475,0.236792 -0.131422,0.03922 -0.238953,0.121861 -0.238953,0.183637 0,0.15856 0.588522,0.02506 0.901207,-0.20446 z m 6.222651,0.128276 c -0.0039,-0.05694 -0.145051,-0.139198 -0.31321,-0.182774 -0.305644,-0.0792 -0.737898,-0.447852 -0.443352,-0.378118 0.0756,0.01791 0.159354,-0.02717 0.186127,-0.100206 0.0272,-0.07426 -0.03342,-0.132743 -0.137665,-0.132743 -0.102483,0 -0.274031,-0.07936 -0.381202,-0.176345 -0.289876,-0.262336 -0.370792,-0.07826 -0.147708,0.335987 0.260332,0.483398 1.263211,0.997568 1.23701,0.634199 z m -5.345006,-1.22556 c 0.248238,0.0049 0.451349,-0.01115 0.451349,-0.03572 0,-0.02456 -0.203113,-0.144589 -0.451349,-0.266763 -0.249185,-0.122637 -0.588539,-0.416869 -0.757632,-0.656886 -0.398604,-0.565804 -0.858038,-0.838232 -1.414471,-0.838724 -0.444833,-4.69e-4 -0.987346,0.177008 -0.987346,0.322867 0,0.170067 0.537965,0.17655 0.636648,0.0077 0.07606,-0.130162 0.101071,-0.07708 0.103523,0.219702 0.0076,0.912137 0.517149,1.372679 1.426223,1.288877 0.29794,-0.02743 0.744812,-0.04592 0.993055,-0.04102 z m 5.635598,-0.130106 c 0.234936,-0.189988 0.444343,-0.683457 0.444343,-1.047147 0,-0.241337 0.03355,-0.311532 0.111673,-0.233448 0.128033,0.128005 0.631735,0.06088 0.631735,-0.0842 0,-0.253658 -1.021177,-0.395482 -1.506429,-0.209209 -0.264695,0.101611 -0.784556,0.578053 -1.04206,0.955038 -0.08746,0.128033 -0.338353,0.311914 -0.557552,0.408623 -0.489916,0.216152 -0.520761,0.393592 -0.0534,0.307189 0.18983,-0.0351 0.488517,-0.01956 0.66375,0.03448 0.36194,0.111678 1.098938,0.03766 1.307953,-0.131347 z m -3.099073,-0.552871 c 0.196663,-0.128852 0.241477,-0.211938 0.158887,-0.294528 -0.08259,-0.08259 -0.17605,-0.05984 -0.331322,0.08068 -0.26931,0.24372 -0.784743,0.252976 -1.043582,0.01876 -0.241057,-0.218155 -0.338156,-0.224209 -0.338156,-0.02107 0,0.421328 1.023761,0.563744 1.554178,0.216204 z m -6.153667,-2.020466 c -0.123628,-0.761825 0.155453,-1.105591 0.934033,-1.150538 0.402259,-0.02323 0.253505,-0.22308 -0.194161,-0.260861 -0.317807,-0.02683 -0.45149,0.02673 -0.70864,0.283877 -0.265728,0.265727 -0.316938,0.401204 -0.316938,0.838407 0,0.521723 0.05201,0.663071 0.243993,0.663071 0.05783,0 0.07599,-0.162758 0.04171,-0.373956 z m 4.174691,0.270482 c 0,-0.05691 -0.135128,-0.173349 -0.300279,-0.258753 -0.532317,-0.275271 -1.220151,-1.237968 -1.37258,-1.921074 -0.127532,-0.571527 -0.01951,-1.487407 0.252165,-2.13838 0.152371,-0.365074 0.254701,-0.845726 0.30217,-1.419316 0.04781,-0.57774 -0.350021,-1.380601 -0.684116,-1.380601 -0.22016,0 -0.63996,0.519325 -0.63996,0.791675 0,0.324728 0.113383,0.34707 0.293956,0.05792 0.07296,-0.116818 0.215875,-0.213918 0.317598,-0.215777 0.17242,-0.0032 0.171926,-0.01328 -0.0073,-0.149108 -0.108844,-0.08253 -0.147069,-0.173619 -0.08816,-0.210036 0.05722,-0.03538 0.203458,0.06206 0.324957,0.216527 0.312553,0.397366 0.283798,1.020249 -0.11112,2.406759 -0.394597,1.385422 -0.376975,2.003147 0.08116,2.844906 0.438447,0.805569 1.631455,1.811227 1.631459,1.375255 z m 3.21296,-0.204281 c 1.086101,-0.822342 1.601541,-2.23208 1.246517,-3.409242 -0.592863,-1.965772 -0.655216,-2.573471 -0.309176,-3.01339 0.121494,-0.154462 0.267728,-0.251893 0.324957,-0.216525 0.0589,0.03641 0.02075,0.127505 -0.08816,0.210035 -0.141875,0.107563 -0.152677,0.146609 -0.04127,0.149105 0.08302,0.0019 0.235326,0.07974 0.338458,0.173084 0.180503,0.163361 0.413302,0.128656 0.413302,-0.06161 0,-0.187701 -0.556761,-0.74528 -0.744177,-0.74528 -0.326039,0 -0.668616,0.686571 -0.662844,1.328418 0.005,0.53739 0.06395,0.787983 0.437124,1.852842 0.255973,0.73042 0.215819,1.759935 -0.09262,2.374779 -0.249061,0.496496 -1.051888,1.346959 -1.271507,1.346959 -0.05971,0 -0.108575,0.07168 -0.108575,0.159298 0,0.223921 0.101983,0.196789 0.557962,-0.148451 z m 3.782101,0.07736 c 0.141263,-0.381805 -0.04274,-1.065619 -0.360105,-1.338631 -0.211012,-0.181513 -0.391057,-0.239098 -0.67372,-0.21549 -0.212143,0.01773 -0.37066,0.07999 -0.35223,0.138413 0.01868,0.05839 0.107833,0.09083 0.19865,0.07206 0.269058,-0.05565 0.738308,0.188667 0.883538,0.460022 0.08025,0.149949 0.111674,0.42759 0.07744,0.683296 -0.06142,0.458052 0.08369,0.586399 0.226503,0.200326 z m -6.251662,-1.511288 c 0,-0.02333 -0.173556,-0.216033 -0.385675,-0.428153 -0.359291,-0.359293 -0.381227,-0.418136 -0.320631,-0.86022 0.0639,-0.466102 -0.07645,-0.666083 -0.214673,-0.3059 -0.174638,0.455098 -0.05624,0.968078 0.32256,1.397803 0.176388,0.200088 0.598419,0.338651 0.598419,0.19647 z m 1.682028,-0.224869 c 0.362806,-0.305276 0.531656,-0.959634 0.340025,-1.317698 -0.198419,-0.370755 -0.294246,-0.247114 -0.240666,0.310513 0.04864,0.506221 0.03218,0.548123 -0.354941,0.902699 -0.476007,0.436004 -0.24879,0.528895 0.255582,0.104486 z m -11.70351,11.258293 c -0.116739,-0.304221 -0.07355,-1.107081 0.0787,-1.462917 0.176832,-0.413275 0.648604,-0.871568 1.055446,-1.025285 0.404976,-0.153012 1.238659,-0.136145 1.540171,0.03112 0.230122,0.127686 0.234207,0.146441 0.06275,0.288286 -0.219788,0.181836 -0.678089,1.133387 -0.679548,1.410925 -7.65e-4,0.147639 -0.04779,0.176917 -0.18689,0.116583 -0.665888,-0.288949 -1.367819,-0.08158 -1.642302,0.485156 -0.128103,0.264503 -0.174555,0.296275 -0.228332,0.156096 z m 20.941116,-0.07367 c -0.07269,-0.504183 -1.063276,-0.889233 -1.578411,-0.613539 -0.172272,0.09222 -0.213906,0.06436 -0.276523,-0.185096 -0.04052,-0.161487 -0.230317,-0.55683 -0.421657,-0.878489 -0.315376,-0.53008 -0.331682,-0.597263 -0.174137,-0.717586 0.212563,-0.162276 1.072826,-0.17378 1.480387,-0.01975 0.366243,0.138376 0.850682,0.585271 1.051841,0.970319 0.166957,0.319572 0.20504,1.52505 0.05121,1.620132 -0.05429,0.03353 -0.113989,-0.04562 -0.132768,-0.175951 z"
       id="path1-9-7" />
    <circle
       style="fill:#414141;fill-opacity:1;stroke:#dfdfdf;stroke-width:1.08705;stroke-dasharray:none;stroke-opacity:1"
       id="path1-6"
       cx="48.320271"
       cy="48.287033"
       r="12.17483" />
    <path
       id="path1-3"
       style="fill:#dfdfdf;fill-opacity:1;stroke:none;stroke-width:0.20182;stroke-dasharray:none;stroke-dashoffset:2.2;stroke-opacity:0.6"
       d="m 51.761355,43.058253 c -0.20805,-8.7e-5 -0.430751,0.08369 -0.709468,0.246992 -0.663244,0.38861 -1.530643,0.57188 -2.721813,0.57188 -1.191057,0 -2.087392,-0.187174 -2.746686,-0.573538 -0.528668,-0.309806 -0.844291,-0.313912 -1.287974,-0.01478 -1.13908,0.767625 -1.997557,3.228765 -2.249396,6.444848 -0.151015,1.928547 -0.0099,2.945286 0.488995,3.517478 0.240643,0.275876 0.831407,0.229104 1.364229,-0.109404 0.451661,-0.286952 0.989814,-0.920136 1.632759,-1.921198 0.580993,-0.90461 1.283736,-1.202549 2.837856,-1.205094 1.551025,-0.0023 2.160562,0.291041 2.875977,1.390747 1.200302,1.845038 2.309754,2.487372 2.960519,1.713978 0.360522,-0.428447 0.426509,-0.842406 0.409431,-2.565996 -0.03111,-3.131006 -0.849546,-5.979338 -2.02893,-7.066455 -0.314103,-0.289533 -0.557986,-0.429217 -0.825499,-0.42933 z m -6.738245,1.844933 h 0.719412 0.719406 v 0.616637 0.61664 h 0.61664 0.616633 v 0.770797 0.770791 h -0.616633 -0.61664 v 0.668023 0.668026 h -0.651444 c -0.357887,0 -0.68008,-0.03211 -0.717752,-0.06961 -0.03766,-0.03766 -0.06959,-0.336727 -0.06959,-0.666363 v -0.60007 h -0.616645 -0.616641 v -0.770793 -0.770795 h 0.616641 0.616634 v -0.616642 z m 5.86468,0 c 0.649001,0 0.926941,0.71908 0.459164,1.186861 -0.29749,0.297457 -0.568995,0.320837 -0.861967,0.07295 -0.508167,-0.429995 -0.242935,-1.259794 0.402803,-1.259794 z M 49.639599,46.221 c 0.162065,1.09e-4 0.325226,0.06468 0.454185,0.207182 0.201035,0.222143 0.222754,0.730724 0.04146,0.968054 -0.354805,0.464484 -1.20675,0.165717 -1.20675,-0.422693 0,-0.446577 0.354591,-0.752808 0.711121,-0.75256 z m 2.54777,0.02495 c 0.186795,0.0035 0.368135,0.06527 0.474076,0.18233 0.201035,0.222143 0.222724,0.730722 0.04144,0.968055 -0.377384,0.494038 -1.206751,0.163367 -1.206751,-0.480712 0,-0.195235 0.07823,-0.406835 0.18729,-0.505575 0.124687,-0.112856 0.317151,-0.167515 0.503922,-0.164093 z m -1.254823,1.329411 c 0.575374,0 0.855333,0.610306 0.507229,1.107293 -0.119001,0.169891 -0.264129,0.228754 -0.563593,0.228754 -0.344776,0 -0.424785,-0.04487 -0.563588,-0.313304 -0.273699,-0.529262 0.02495,-1.022754 0.619952,-1.022754 z" />
  </g>
</svg>
