<?xml version="1.0" encoding="UTF-8" standalone="no"?>
<svg
   width="64"
   height="64"
   version="1.1"
   id="svg73"
   sodipodi:docname="fr.handbrake.ghb.svg"
   inkscape:version="1.4.2 (ebf0e940d0, 2025-05-08)"
   xmlns:inkscape="http://www.inkscape.org/namespaces/inkscape"
   xmlns:sodipodi="http://sodipodi.sourceforge.net/DTD/sodipodi-0.dtd"
   xmlns="http://www.w3.org/2000/svg"
   xmlns:svg="http://www.w3.org/2000/svg"
   xmlns:rdf="http://www.w3.org/1999/02/22-rdf-syntax-ns#"
   xmlns:cc="http://creativecommons.org/ns#"
   xmlns:dc="http://purl.org/dc/elements/1.1/">
  <metadata
     id="metadata77">
    <rdf:RDF>
      <cc:Work
         rdf:about="">
        <dc:format>image/svg+xml</dc:format>
        <dc:type
           rdf:resource="http://purl.org/dc/dcmitype/StillImage" />
      </cc:Work>
    </rdf:RDF>
  </metadata>
  <sodipodi:namedview
     pagecolor="#f5f7fa"
     bordercolor="#666666"
     borderopacity="1"
     objecttolerance="10"
     gridtolerance="10"
     guidetolerance="10"
     inkscape:pageopacity="0"
     inkscape:pageshadow="2"
     inkscape:window-width="1377"
     inkscape:window-height="886"
     id="namedview75"
     showgrid="false"
     inkscape:zoom="6.2890625"
     inkscape:cx="48.099379"
     inkscape:cy="45.396273"
     inkscape:window-x="0"
     inkscape:window-y="47"
     inkscape:window-maximized="0"
     inkscape:current-layer="g877"
     inkscape:document-rotation="0"
     inkscape:pagecheckerboard="0"
     inkscape:showpageshadow="2"
     inkscape:deskcolor="#d1d1d1" />
  <defs
     id="defs29" />
  <circle
     cx="32.516094"
     cy="31.877844"
     r="0"
     fill="url(#b)"
     stroke-width="1.5715"
     id="circle41"
     style="fill:url(#b)" />
  <g
     aria-label="GZ"
     transform="matrix(1.2212657,0,0,0.81882264,0.4960938,-0.1661539)"
     id="text93"
     style="font-weight:bold;font-size:11.5263px;line-height:1.25;font-family:sans-serif;-inkscape-font-specification:'sans-serif Bold';fill:#f2f2f2;stroke-width:0.288159" />
  <g
     id="g877"
     transform="matrix(1.1,0,0,1.1,-3.1845928,-3.2065454)">
    <circle
       style="opacity:1;fill:#414141;stroke:#dfdfdf;stroke-width:2.27272727;stroke-dasharray:none;fill-opacity:1;stroke-opacity:1"
       id="path1"
       cx="31.985994"
       cy="32.005951"
       r="25.454546" />
    <path
       style="fill:#dfdfdf;fill-opacity:1;stroke:none;stroke-width:0.413556;stroke-dasharray:none;stroke-opacity:0.6"
       d="m 32.777955,45.383814 c 0.11888,-0.01776 0.216142,-0.05561 0.216142,-0.0849 0,-0.02936 -0.276825,-0.187872 -0.61517,-0.352456 -1.105614,-0.537769 -1.666423,-1.046447 -2.020068,-1.832316 -0.14276,-0.317235 -0.212936,-0.746285 -0.122073,-0.746285 0.01973,0 0.146937,0.05564 0.282651,0.123701 0.287192,0.143924 0.726364,0.217622 0.899277,0.150969 0.109682,-0.04231 0.102457,-0.06918 -0.08056,-0.299478 -0.344057,-0.432916 -0.472212,-0.885275 -0.472212,-1.666741 0,-0.684016 0.0022,-0.693425 0.300072,-1.288472 0.638773,-1.276013 1.871131,-2.263081 3.2912,-2.636128 0.548209,-0.144004 2.09547,-0.20601 2.892969,-0.115923 0.329207,0.03718 0.610896,0.05538 0.625975,0.04043 0.182147,-0.1806 -1.293379,-1.707484 -2.32188,-2.402714 -0.365418,-0.24701 -2.065294,-1.101873 -2.41423,-1.214113 -0.139061,-0.04474 -0.242733,-0.115903 -0.230391,-0.158164 0.04664,-0.159598 0.904127,-0.513182 1.647066,-0.679164 0.420645,-0.09398 0.788789,-0.194457 0.818101,-0.223291 0.09147,-0.08997 -0.735469,-0.544984 -1.548786,-0.852167 -0.506127,-0.191161 -2.305296,-0.616175 -2.614663,-0.617658 -0.241358,-0.0013 -0.434756,-0.09827 -0.354978,-0.178251 0.02937,-0.02942 0.594457,-0.06348 1.2558,-0.07565 0.901041,-0.01663 1.370613,0.0058 1.873363,0.0894 1.20124,0.199734 2.473053,0.678796 3.40137,1.28122 0.420211,0.272701 1.293108,1.051097 1.293108,1.153128 0,0.03238 -0.09925,0.0589 -0.220573,0.0589 -0.438525,0 -1.578055,0.26117 -1.726522,0.395705 -0.02841,0.02573 0.300774,0.175357 0.731551,0.332436 1.532082,0.558665 2.690305,1.241494 3.942231,2.324143 l 0.698302,0.603879 0.04465,-1.060898 c 0.07097,-1.685446 0.184323,-2.054749 0.81282,-2.649199 0.567814,-0.537008 0.949026,-0.682478 1.994464,-0.761065 0.479778,-0.03607 0.902256,-0.09429 0.938832,-0.12938 0.09913,-0.09504 -0.455102,-0.558206 -1.529578,-1.278354 -0.887403,-0.59477 -1.223322,-0.795646 -2.593693,-1.551026 -0.780602,-0.430285 -0.918188,-0.619632 -0.885459,-1.218538 0.04528,-0.828675 0.589274,-1.653004 1.49353,-2.263188 0.269126,-0.181579 0.489263,-0.355921 0.489263,-0.38742 0,-0.111581 -0.37815,-0.150843 -1.394707,-0.144807 -1.10492,0.0064 -1.32241,0.02874 -1.818469,0.185176 -0.176101,0.05557 -0.335943,0.08527 -0.355169,0.06604 -0.01904,-0.01923 0.07178,-0.27141 0.202303,-0.560403 0.270102,-0.598256 0.400386,-1.152167 0.516469,-2.196092 0.05291,-0.475625 0.05939,-0.803259 0.01852,-0.944571 l -0.06204,-0.216352 -0.443691,0.559955 c -0.564737,0.712845 -1.548015,1.652274 -2.18607,2.088679 -0.272743,0.186541 -1.061181,0.645792 -1.752094,1.020559 -1.989133,1.078948 -2.747152,1.600924 -3.889748,2.678509 -0.46866,0.441993 -0.713327,0.632019 -0.726834,0.56451 -0.02893,-0.144687 0.450809,-1.071526 0.799406,-1.544385 0.382365,-0.518665 1.324757,-1.504994 1.841906,-1.927779 0.507607,-0.414982 0.639657,-0.685863 0.742224,-1.522533 0.156925,-1.280097 -0.02067,-2.618379 -0.536579,-4.043088 -0.26884,-0.74243 -0.374555,-0.842089 -0.432208,-0.407441 -0.184961,1.394388 -0.446696,2.046908 -1.252961,3.123704 -0.48617,0.649294 -1.184957,1.339927 -3.936635,3.89069 -1.634716,1.515352 -2.915759,2.905132 -3.645282,3.954698 -0.206509,0.297099 -0.425589,0.581409 -0.486848,0.631795 -0.101458,0.08344 -0.107344,0.07124 -0.06607,-0.137017 0.07099,-0.358184 0.657615,-1.524482 0.995502,-1.979152 0.517187,-0.695946 1.200601,-1.437923 3.141731,-3.410954 1.849014,-1.879396 2.197863,-2.283853 2.346843,-2.720951 0.105259,-0.308808 0.09495,-1.208196 -0.02006,-1.75091 -0.179118,-0.845184 -0.501437,-1.333574 -0.501437,-0.759789 0,0.327694 -0.379522,1.47046 -0.698833,2.104222 -0.156843,0.31132 -0.477342,0.790493 -0.712215,1.064826 -0.434264,0.507225 -2.056205,2.077637 -4.499143,4.356212 -1.497169,1.39644 -2.038878,2.044106 -2.507497,2.997963 -0.382794,0.779154 -0.49138,1.307979 -0.492822,2.400007 -6.35e-4,0.481664 -0.01929,0.923091 -0.04152,0.980949 -0.02267,0.05912 -0.117387,0.105312 -0.21614,0.105446 -0.444486,6.29e-4 -0.937559,0.563152 -0.992217,1.13197 -0.02386,0.248228 -0.05876,0.330733 -0.139712,0.330252 -0.230824,-0.0014 -0.98565,-0.659378 -1.33333,-1.162308 -0.190768,-0.27595 -0.374662,-0.48454 -0.408657,-0.463527 -0.03398,0.02101 -0.06144,0.388083 -0.06094,0.815716 0.0023,2.149684 0.82403,3.829886 2.459811,5.030328 l 0.432281,0.31723 0.0355,-0.65565 c 0.04218,-0.778932 0.183691,-1.145348 0.597353,-1.546794 0.598723,-0.581042 1.593931,-0.883881 2.845504,-0.865874 0.376834,0.0055 0.700757,-0.0058 0.719831,-0.02453 0.01904,-0.01904 -0.01241,-0.125762 -0.06998,-0.237064 -0.128899,-0.249279 -0.13534,-0.738391 -0.01355,-1.029864 0.204699,-0.489914 0.883681,-0.878522 1.904047,-1.08976 0.747278,-0.154701 2.88474,-0.152017 3.447002,0.0043 0.543518,0.151136 1.141847,0.416293 1.141847,0.506024 0,0.04287 -0.190544,0.07017 -0.48971,0.07017 -0.585207,0 -1.011522,0.07448 -1.524303,0.266346 -0.444316,0.166241 -0.471275,0.257868 -0.17988,0.611381 0.256104,0.310704 0.516187,0.871687 0.569763,1.228945 0.03282,0.218825 0.0053,0.358686 -0.128734,0.651183 -0.194351,0.424512 -0.429303,0.567396 -0.933015,0.567396 -0.50927,0 -0.528695,0.02904 -0.296022,0.441226 0.177093,0.313785 0.200611,0.411635 0.174537,0.726042 -0.05178,0.624562 -0.463461,0.932989 -1.169631,0.876306 l -0.427458,-0.03435 0.04513,0.24231 c 0.123034,0.660706 0.118569,0.76868 -0.04165,1.007144 -0.250535,0.372913 -0.581814,0.499664 -1.285217,0.491742 -0.458086,-0.0055 -0.711693,-0.04648 -1.080709,-0.17605 -0.357184,-0.125422 -0.482159,-0.14664 -0.482159,-0.0818 0,0.164647 0.652701,1.062517 1.07477,1.478542 0.575032,0.566783 0.969729,0.841311 1.751695,1.218358 1.239847,0.597827 2.946484,0.978163 4.588848,1.022667 0.512089,0.01409 1.028335,0.01149 1.147211,-0.0064 z M 24.333836,33.014757 c -0.0661,-0.04067 0.155967,-0.584687 0.42378,-1.038155 0.600879,-1.017423 1.777,-2.05675 2.500419,-2.209597 l 0.216144,-0.04568 v 0.372385 c 0,0.620885 -0.521432,1.65744 -1.208993,2.403353 -0.332677,0.360912 -0.580186,0.503229 -0.985676,0.56676 -0.282535,0.04425 -0.841094,0.01529 -0.945673,-0.0491 z"
       id="path2-65" />
    <circle
       style="fill:#414141;fill-opacity:1;stroke:#dfdfdf;stroke-width:1.08705;stroke-dasharray:none;stroke-opacity:1"
       id="path1-6"
       cx="48.320271"
       cy="48.287033"
       r="12.17483" />
    <path
       id="path1-3"
       style="fill:#dfdfdf;fill-opacity:1;stroke:none;stroke-width:0.20182;stroke-dasharray:none;stroke-dashoffset:2.2;stroke-opacity:0.6"
       d="m 51.761355,43.058253 c -0.20805,-8.7e-5 -0.430751,0.08369 -0.709468,0.246992 -0.663244,0.38861 -1.530643,0.57188 -2.721813,0.57188 -1.191057,0 -2.087392,-0.187174 -2.746686,-0.573538 -0.528668,-0.309806 -0.844291,-0.313912 -1.287974,-0.01478 -1.13908,0.767625 -1.997557,3.228765 -2.249396,6.444848 -0.151015,1.928547 -0.0099,2.945286 0.488995,3.517478 0.240643,0.275876 0.831407,0.229104 1.364229,-0.109404 0.451661,-0.286952 0.989814,-0.920136 1.632759,-1.921198 0.580993,-0.90461 1.283736,-1.202549 2.837856,-1.205094 1.551025,-0.0023 2.160562,0.291041 2.875977,1.390747 1.200302,1.845038 2.309754,2.487372 2.960519,1.713978 0.360522,-0.428447 0.426509,-0.842406 0.409431,-2.565996 -0.03111,-3.131006 -0.849546,-5.979338 -2.02893,-7.066455 -0.314103,-0.289533 -0.557986,-0.429217 -0.825499,-0.42933 z m -6.738245,1.844933 h 0.719412 0.719406 v 0.616637 0.61664 h 0.61664 0.616633 v 0.770797 0.770791 h -0.616633 -0.61664 v 0.668023 0.668026 h -0.651444 c -0.357887,0 -0.68008,-0.03211 -0.717752,-0.06961 -0.03766,-0.03766 -0.06959,-0.336727 -0.06959,-0.666363 v -0.60007 h -0.616645 -0.616641 v -0.770793 -0.770795 h 0.616641 0.616634 v -0.616642 z m 5.86468,0 c 0.649001,0 0.926941,0.71908 0.459164,1.186861 -0.29749,0.297457 -0.568995,0.320837 -0.861967,0.07295 -0.508167,-0.429995 -0.242935,-1.259794 0.402803,-1.259794 z M 49.639599,46.221 c 0.162065,1.09e-4 0.325226,0.06468 0.454185,0.207182 0.201035,0.222143 0.222754,0.730724 0.04146,0.968054 -0.354805,0.464484 -1.20675,0.165717 -1.20675,-0.422693 0,-0.446577 0.354591,-0.752808 0.711121,-0.75256 z m 2.54777,0.02495 c 0.186795,0.0035 0.368135,0.06527 0.474076,0.18233 0.201035,0.222143 0.222724,0.730722 0.04144,0.968055 -0.377384,0.494038 -1.206751,0.163367 -1.206751,-0.480712 0,-0.195235 0.07823,-0.406835 0.18729,-0.505575 0.124687,-0.112856 0.317151,-0.167515 0.503922,-0.164093 z m -1.254823,1.329411 c 0.575374,0 0.855333,0.610306 0.507229,1.107293 -0.119001,0.169891 -0.264129,0.228754 -0.563593,0.228754 -0.344776,0 -0.424785,-0.04487 -0.563588,-0.313304 -0.273699,-0.529262 0.02495,-1.022754 0.619952,-1.022754 z" />
  </g>
</svg>
