<?xml version="1.0" encoding="UTF-8" standalone="no"?>
<svg
   width="64"
   height="64"
   version="1.1"
   id="svg73"
   sodipodi:docname="fr.handbrake.ghb.svg"
   inkscape:version="1.4.2 (ebf0e940d0, 2025-05-08)"
   xmlns:inkscape="http://www.inkscape.org/namespaces/inkscape"
   xmlns:sodipodi="http://sodipodi.sourceforge.net/DTD/sodipodi-0.dtd"
   xmlns="http://www.w3.org/2000/svg"
   xmlns:svg="http://www.w3.org/2000/svg"
   xmlns:rdf="http://www.w3.org/1999/02/22-rdf-syntax-ns#"
   xmlns:cc="http://creativecommons.org/ns#"
   xmlns:dc="http://purl.org/dc/elements/1.1/">
  <metadata
     id="metadata77">
    <rdf:RDF>
      <cc:Work
         rdf:about="">
        <dc:format>image/svg+xml</dc:format>
        <dc:type
           rdf:resource="http://purl.org/dc/dcmitype/StillImage" />
      </cc:Work>
    </rdf:RDF>
  </metadata>
  <sodipodi:namedview
     pagecolor="#f5f7fa"
     bordercolor="#666666"
     borderopacity="1"
     objecttolerance="10"
     gridtolerance="10"
     guidetolerance="10"
     inkscape:pageopacity="0"
     inkscape:pageshadow="2"
     inkscape:window-width="1377"
     inkscape:window-height="886"
     id="namedview75"
     showgrid="false"
     inkscape:zoom="6.2890625"
     inkscape:cx="48.099379"
     inkscape:cy="45.396273"
     inkscape:window-x="0"
     inkscape:window-y="47"
     inkscape:window-maximized="0"
     inkscape:current-layer="g877"
     inkscape:document-rotation="0"
     inkscape:pagecheckerboard="0"
     inkscape:showpageshadow="2"
     inkscape:deskcolor="#d1d1d1" />
  <defs
     id="defs29" />
  <circle
     cx="32.516094"
     cy="31.877844"
     r="0"
     fill="url(#b)"
     stroke-width="1.5715"
     id="circle41"
     style="fill:url(#b)" />
  <g
     aria-label="GZ"
     transform="matrix(1.2212657,0,0,0.81882264,0.4960938,-0.1661539)"
     id="text93"
     style="font-weight:bold;font-size:11.5263px;line-height:1.25;font-family:sans-serif;-inkscape-font-specification:'sans-serif Bold';fill:#f2f2f2;stroke-width:0.288159" />
  <g
     id="g877"
     transform="matrix(1.1,0,0,1.1,-3.1845928,-3.2065454)">
    <circle
       style="opacity:1;fill:#414141;stroke:#dfdfdf;stroke-width:2.27272727;stroke-dasharray:none;fill-opacity:1;stroke-opacity:1"
       id="path1"
       cx="31.985994"
       cy="32.005951"
       r="25.454546" />
    <path
       style="fill:#dfdfdf;fill-opacity:1;stroke:none;stroke-width:0.413556;stroke-dasharray:none;stroke-opacity:0.6"
       d="m 28.227505,44.825249 c -0.09364,-2.283384 -0.09856,-2.249623 0.321951,-2.213107 l 0.192384,0.01645 -0.0155,1.660118 c -0.01624,1.738708 -0.03211,1.834891 -0.303066,1.834891 -0.140832,0 -0.143152,-0.01541 -0.195778,-1.298603 z m 2.122131,1.069575 c -0.12454,-0.124511 -0.125172,-0.213215 -0.0058,-0.806202 0.05224,-0.259509 0.135034,-0.867862 0.183963,-1.351962 0.102966,-1.018745 0.182076,-1.204016 0.514183,-1.204016 0.391781,0 0.516625,0.344039 0.360701,0.993995 -0.03386,0.141132 -0.136569,0.673836 -0.228274,1.183898 -0.197472,1.098287 -0.275642,1.285062 -0.537868,1.285062 -0.102384,0 -0.231505,-0.04531 -0.286931,-0.100758 z m 5.054044,0.05256 c -0.04067,-0.02727 -0.102999,-0.436082 -0.144143,-0.94582 -0.03984,-0.493782 -0.101393,-0.998609 -0.136746,-1.121821 -0.09294,-0.323952 -0.07892,-0.867306 0.02908,-1.125756 0.107642,-0.257605 0.319617,-0.363251 0.533449,-0.265824 0.183342,0.08354 0.236747,0.290385 0.174066,0.674261 -0.07493,0.458909 -0.09175,0.666605 -0.143616,1.774309 -0.03913,0.835599 -0.06581,1.028426 -0.144214,1.04201 -0.05291,0.0091 -0.128449,-0.0052 -0.167869,-0.03126 z M 29.4192,45.743039 c -0.138091,-0.138105 -0.140051,-0.175501 -0.161868,-3.09123 -0.0027,-0.390896 0.107972,-0.504715 0.393811,-0.404184 0.281614,0.09904 0.307377,0.281613 0.218297,1.547103 -0.153155,2.175805 -0.166217,2.232338 -0.45024,1.948311 z m 3.627012,-0.01984 c -0.126747,-0.200112 -0.43429,-1.846899 -0.443037,-2.372357 -0.0082,-0.495581 0.141881,-0.785976 0.406328,-0.785976 0.127138,0 0.167036,0.05776 0.265941,0.384765 0.06398,0.211596 0.130162,0.529058 0.147029,0.705419 0.01686,0.176337 0.07987,0.687507 0.140031,1.135901 0.105476,0.78633 0.105162,0.819913 -0.0088,0.945906 -0.156686,0.17313 -0.393142,0.166736 -0.507432,-0.01356 z m 1.209333,0.07798 c -0.02252,-0.03658 -0.06861,-0.592053 -0.102374,-1.234536 -0.03377,-0.642489 -0.07757,-1.320485 -0.09736,-1.506671 -0.04551,-0.428244 0.04147,-0.554289 0.348129,-0.504518 0.415413,0.06746 0.482248,0.264647 0.309499,0.913388 -0.0624,0.234325 -0.07788,0.581354 -0.0547,1.225828 0.03076,0.854852 0.02561,0.905672 -0.104589,1.035868 -0.150996,0.150997 -0.236422,0.171221 -0.2986,0.0706 z m 2.058678,-0.334466 c -0.01618,-0.07937 -0.0477,-0.274151 -0.07015,-0.432872 -0.02246,-0.158747 -0.06543,-0.432868 -0.09548,-0.609226 -0.03005,-0.176313 -0.05667,-0.551504 -0.05909,-0.833667 -0.0034,-0.405758 0.02218,-0.557056 0.123962,-0.723603 0.131398,-0.215483 0.291309,-0.320497 0.369321,-0.242493 0.04974,0.04976 0.03306,1.660929 -0.02557,2.457077 -0.02841,0.384791 -0.06277,0.529066 -0.126309,0.529066 -0.04805,0 -0.100572,-0.06494 -0.11668,-0.144291 z m -8.936419,-1.378089 c 0.0155,-1.189936 0.02876,-1.332037 0.125849,-1.350691 0.303472,-0.05836 0.443196,0.845124 0.288355,1.864473 -0.09537,0.627757 -0.174251,0.81605 -0.341895,0.81605 -0.07444,0 -0.08671,-0.225451 -0.07232,-1.329832 z m 4.319656,-1.881525 c -0.09131,-0.108512 -0.166938,-0.245626 -0.168066,-0.304625 -0.0044,-0.237354 -0.3081,-0.46002 -0.62718,-0.46002 -0.262312,0 -0.345136,0.124171 -0.294409,0.441394 0.0875,0.547105 -0.216183,0.596192 -0.839909,0.135756 -0.238904,-0.176312 -0.473043,-0.320641 -0.520314,-0.320641 -0.103582,0 -0.250823,0.222973 -0.306949,0.464936 -0.02249,0.09697 -0.06729,0.176311 -0.09953,0.176311 -0.03224,0 -0.162697,-0.126989 -0.289913,-0.282274 -0.127215,-0.155278 -0.302049,-0.300017 -0.388524,-0.321729 -0.180454,-0.04527 -0.532673,0.08401 -0.665677,0.244373 -0.128414,0.154835 -0.195844,0.02323 -0.197069,-0.384332 -0.0014,-0.479725 0.08994,-0.67468 0.411585,-0.878175 0.328012,-0.207523 0.720414,-0.622032 0.80874,-0.854349 0.25284,-0.665023 -0.342912,-1.73122 -1.092895,-1.955926 -0.81773,-0.244972 -2.406525,0.544732 -2.838048,1.410692 l -0.154543,0.310121 -0.230772,-0.118376 c -0.371364,-0.19049 -1.00703,-0.820317 -1.337287,-1.324964 -0.322734,-0.493165 -0.616491,-1.184544 -0.792378,-1.864941 -0.101906,-0.39419 -0.101217,-0.413499 0.01919,-0.545091 0.378116,-0.413303 0.554557,-1.108032 0.505352,-1.989799 -0.04349,-0.77943 -0.207767,-1.298789 -0.592067,-1.871881 l -0.27324,-0.407475 0.617434,-0.434656 c 0.81812,-0.575933 1.958283,-1.705276 2.381118,-2.358517 0.44542,-0.68813 0.496048,-0.737481 0.756589,-0.737481 0.180382,0 0.294037,0.06672 0.606594,0.356094 1.303943,1.207217 2.617855,1.80741 4.410106,2.014523 0.335075,0.0387 0.658512,0.08546 0.718755,0.103864 0.165771,0.05066 0.627949,0.664073 0.627949,0.833444 0,0.243522 -0.643268,1.431131 -0.95829,1.769199 -0.352865,0.378689 -0.616067,0.472943 -0.893557,0.319991 -0.106267,-0.05858 -0.427118,-0.308503 -0.712999,-0.555401 -1.360973,-1.175378 -2.745135,-1.752277 -4.040409,-1.683979 -0.553412,0.02917 -1.149963,0.229452 -1.425078,0.478427 -0.06315,0.05713 -0.127791,0.0909 -0.143669,0.07502 -0.02573,-0.02576 0.288156,-0.290238 0.63888,-0.538237 0.120088,-0.08491 0.112949,-0.09082 -0.112228,-0.09273 -0.132264,-0.0013 -0.240481,-0.01981 -0.240481,-0.04154 0,-0.02176 0.102416,-0.179033 0.2276,-0.34956 0.262246,-0.357248 0.682734,-0.683929 1.18503,-0.920665 l 0.350912,-0.16539 -0.256511,0.03602 c -0.635319,0.08919 -1.568058,0.728851 -1.863945,1.278281 -0.06664,0.12373 -0.16994,0.224957 -0.229577,0.224957 -0.271811,0 -0.293209,0.04647 -0.209191,0.454175 0.13983,0.678543 0.172167,1.841425 0.09062,3.259027 l -0.07862,1.36731 0.139382,0.137139 0.13938,0.137115 -0.0371,-0.160339 c -0.02405,-0.103968 0.08675,-0.532363 0.315188,-1.218465 0.193753,-0.58197 0.352851,-0.985977 0.35355,-0.897802 7.29e-4,0.08818 -0.04214,0.591562 -0.0952,1.118629 -0.05304,0.527069 -0.07464,0.976961 -0.04795,0.999765 0.02663,0.0227 0.163944,0.10997 0.305028,0.193744 l 0.25652,0.152275 -0.163822,-0.222191 -0.163824,-0.222189 0.302473,-1.218448 c 0.166359,-0.670141 0.305013,-1.144489 0.308113,-1.054106 0.003,0.09039 -0.03921,0.634733 -0.09401,1.209657 -0.05481,0.574922 -0.09087,1.052715 -0.08017,1.061763 0.0107,0.0091 0.260573,0.166604 0.55525,0.350111 0.627334,0.390682 1.043605,0.486746 1.836992,0.423893 0.966958,-0.07655 1.916982,-0.431925 2.75673,-1.031163 0.430495,-0.307192 0.534801,-0.472661 0.148461,-0.235517 -0.254134,0.15601 -1.336708,0.608758 -1.371755,0.573709 -0.02942,-0.02942 1.322013,-1.019911 1.855216,-1.359633 0.206034,-0.131274 0.469344,-0.278263 0.585131,-0.326644 0.19752,-0.08253 0.222654,-0.130712 0.406797,-0.779853 l 0.19627,-0.69189 0.004,0.379427 c 0.0023,0.208692 0.01867,0.364911 0.03645,0.347166 0.01776,-0.01776 0.08885,-0.28949 0.157994,-0.603877 l 0.125728,-0.571617 -0.03689,0.849706 c -0.03467,0.799076 -0.02975,0.849713 0.08248,0.849792 0.110577,4.8e-5 0.118492,-0.05784 0.107399,-0.785578 l -0.01202,-0.785662 0.108168,0.492472 c 0.141159,0.642674 0.227146,0.714526 0.17808,0.148815 l -0.03893,-0.448901 0.212152,0.732233 0.212151,0.732231 0.398924,0.211488 c 0.219405,0.116319 0.53541,0.304523 0.702226,0.418236 0.337724,0.230218 1.485844,1.069974 1.585878,1.159942 0.09478,0.08523 -0.574369,-0.178922 -1.089128,-0.429949 -0.246314,-0.120128 -0.45749,-0.208756 -0.469282,-0.196948 -0.04342,0.04342 0.802987,0.603375 1.251137,0.827706 0.752758,0.376814 1.340861,0.513065 2.231131,0.516914 0.827094,0.0037 0.943752,-0.03186 1.721562,-0.522865 l 0.252411,-0.159348 -0.04198,-0.68288 c -0.02298,-0.375586 -0.05564,-0.899317 -0.07234,-1.163848 -0.02425,-0.381554 0.01774,-0.229122 0.200949,0.73748 0.127197,0.670142 0.240275,1.228468 0.251262,1.240726 0.0107,0.01252 0.108563,-0.02999 0.21684,-0.094 0.231429,-0.136697 0.231585,-0.138783 0.100656,-1.242934 -0.05227,-0.440883 -0.09268,-0.830464 -0.08979,-0.865735 0.0031,-0.03528 0.130693,0.425698 0.283966,1.024372 0.204651,0.799238 0.260318,1.110664 0.209481,1.171898 -0.140141,0.168848 0.0068,0.147893 0.205488,-0.02918 l 0.204522,-0.182732 -0.07688,-1.344874 c -0.08119,-1.420107 -0.04422,-2.737237 0.09355,-3.32969 0.08785,-0.377923 0.06584,-0.416355 -0.242336,-0.423014 -0.09186,-0.002 -0.215274,-0.110746 -0.3635,-0.320419 -0.378313,-0.535003 -1.059863,-0.961465 -1.787598,-1.118535 -0.142986,-0.03085 -0.20259,-0.02434 -0.175607,0.01931 0.02246,0.03632 0.127276,0.08504 0.232968,0.108253 0.303808,0.06672 0.948001,0.532577 1.231602,0.890631 l 0.259457,0.327547 -0.249121,0.03206 -0.249149,0.03207 0.224461,0.1398 c 0.12344,0.07689 0.311006,0.232315 0.416837,0.345397 l 0.192362,0.205601 -0.283135,-0.201797 c -0.3701,-0.263865 -1.008708,-0.456978 -1.510987,-0.456978 -0.221016,0 -0.683223,0.07138 -1.02711,0.15861 -1.071841,0.271856 -1.779354,0.68058 -3.083572,1.781276 -0.372754,0.314584 -0.474584,0.36874 -0.69336,0.36874 -0.225334,0 -0.295874,-0.04083 -0.581469,-0.336678 -0.346187,-0.358604 -0.996858,-1.537623 -0.996858,-1.806331 0,-0.169938 0.462936,-0.783571 0.62795,-0.832364 0.06024,-0.01779 0.455827,-0.07674 0.879076,-0.13096 1.749356,-0.22409 2.975292,-0.793326 4.223757,-1.961205 0.337733,-0.315934 0.448976,-0.383395 0.632219,-0.383395 0.260973,0 0.31142,0.04915 0.756989,0.73748 0.423616,0.654447 1.563423,1.782875 2.385275,2.361462 l 0.621596,0.437604 -0.264387,0.387316 c -0.395541,0.579466 -0.570101,1.118379 -0.610943,1.886146 -0.04697,0.882791 0.13012,1.577844 0.507052,1.989795 0.12036,0.131596 0.121091,0.15092 0.01904,0.545098 -0.175894,0.68039 -0.46964,1.371772 -0.792378,1.864934 -0.33618,0.513703 -0.969276,1.137019 -1.354446,1.333516 l -0.246877,0.125971 -0.07874,-0.239441 c -0.192596,-0.585443 -1.311812,-1.355365 -2.188554,-1.505534 -0.543073,-0.09307 -0.859614,-0.0046 -1.240113,0.346027 -0.498701,0.459682 -0.726717,1.139439 -0.543689,1.620832 0.08852,0.232812 0.553176,0.719465 0.841864,0.88172 0.148544,0.0835 0.270992,0.21282 0.311543,0.329199 0.07363,0.211177 0.08716,0.699328 0.02557,0.92864 -0.03801,0.141943 -0.04223,0.142802 -0.125161,0.02425 -0.122943,-0.175502 -0.515787,-0.34678 -0.685094,-0.298692 -0.07843,0.02218 -0.261103,0.17258 -0.405902,0.333961 -0.144795,0.161385 -0.293029,0.27504 -0.329404,0.252568 -0.03638,-0.02218 -0.08461,-0.139306 -0.107169,-0.259587 -0.04887,-0.260501 -0.178409,-0.384887 -0.345657,-0.331801 -0.06696,0.02116 -0.288278,0.167937 -0.491758,0.325945 -0.414172,0.321614 -0.624712,0.359797 -0.769057,0.139488 -0.079,-0.120594 -0.08295,-0.184532 -0.02142,-0.347571 0.09879,-0.26172 -0.01085,-0.402448 -0.313605,-0.402448 -0.328595,0 -0.457414,0.09864 -0.625655,0.479059 -0.137846,0.311702 -0.306096,0.482881 -0.474612,0.482881 -0.03445,0 -0.137356,-0.08878 -0.228668,-0.19732 z m -0.16881,-3.103883 c 0.101394,-0.05245 0.236023,-0.209247 0.301428,-0.351056 0.06501,-0.14095 0.132623,-0.256299 0.15026,-0.256299 0.0176,0 0.08524,0.115324 0.150267,0.256299 0.135526,0.293891 0.380824,0.445808 0.719836,0.445808 0.187685,0 0.285461,-0.05026 0.48415,-0.248939 0.238183,-0.238163 0.248974,-0.26703 0.248974,-0.666175 0,-0.550208 -0.243096,-1.384385 -0.639699,-2.195093 -0.437742,-0.89486 -0.784186,-1.228331 -0.866114,-0.833733 -0.108942,0.524729 -0.115157,0.530926 -0.176864,0.176346 -0.07046,-0.404931 -0.158835,-0.425258 -0.428177,-0.0985 -0.518585,0.629132 -1.026996,1.944161 -1.078904,2.790627 l -0.03433,0.559854 0.257789,0.257787 c 0.207242,0.207264 0.303909,0.257787 0.492972,0.257787 0.129348,0 0.317636,-0.04261 0.41841,-0.09476 z M 29.288953,33.26848 c -0.293159,-0.353234 -2.042188,-1.262832 -3.107477,-1.616069 -0.599483,-0.198782 -0.620637,-0.211292 -0.293364,-0.173469 1.299614,0.150196 2.594612,0.788566 3.332609,1.642816 0.114268,0.132269 0.193867,0.240484 0.176902,0.240484 -0.01696,0 -0.06587,-0.04219 -0.108674,-0.09375 z m 5.444206,-0.130692 c 0.753865,-0.899427 1.947845,-1.488156 3.371469,-1.662415 0.270099,-0.03306 0.218797,-0.0054 -0.325427,0.176009 -1.07516,0.35822 -2.541693,1.116974 -3.103091,1.605475 -0.102155,0.08888 -0.082,0.04685 0.05706,-0.119069 z M 21.382972,30.461147 c 0.02123,-0.791295 0.137891,-2.082146 0.242611,-2.684328 0.221615,-1.274367 1.211911,-3.150503 2.33857,-4.430453 0.184124,-0.209173 0.32242,-0.392672 0.307321,-0.40777 -0.05539,-0.05538 -1.303281,1.236214 -1.665404,1.723727 -0.20531,0.276405 -0.373291,0.488099 -0.373291,0.470436 0,-0.11009 0.486674,-1.274628 0.756461,-1.81009 1.476544,-2.9306 3.861049,-4.713082 7.02573,-5.25193 0.347515,-0.05917 0.638859,-0.09853 0.647433,-0.08745 0.25712,0.332031 1.274569,1.835217 1.274824,1.883427 2.31e-4,0.03724 -0.165809,0.361162 -0.3689,0.71985 l -0.369259,0.652165 0.313501,0.80716 0.313498,0.807161 -0.122179,0.813682 -0.122176,0.813685 0.239647,0.499417 c 0.131803,0.274684 0.251823,0.487241 0.266703,0.472361 0.01487,-0.01487 -0.03387,-0.265634 -0.108308,-0.557231 l -0.135366,-0.530174 0.168523,-0.790449 0.168524,-0.790446 -0.262345,-0.715867 c -0.302443,-0.825282 -0.347425,-0.638973 0.398248,-1.649396 0.243061,-0.329364 0.426137,-0.63237 0.406832,-0.673353 -0.01931,-0.04099 -0.3117,-0.475559 -0.649767,-0.965733 l -0.614671,-0.891216 0.949687,0.03687 c 1.597193,0.06203 2.89769,0.365622 4.165078,0.972351 1.99081,0.953049 3.412125,2.4028 4.445481,4.534441 0.330319,0.681392 0.768233,1.740782 0.683762,1.654143 -0.01541,-0.01571 -0.165115,-0.216141 -0.332942,-0.445401 -0.344667,-0.470904 -1.0863,-1.258768 -1.469951,-1.561569 -0.215039,-0.169725 -0.182914,-0.114944 0.201052,0.343123 0.647727,0.772635 1.130743,1.516158 1.562274,2.404829 0.496632,1.022752 0.608774,1.383742 0.737116,2.37276 0.102196,0.787283 0.228897,2.789279 0.180408,2.849516 -0.02966,0.03684 -0.71541,-0.442618 -1.241878,-0.868269 -0.690104,-0.55796 -1.634316,-1.577789 -2.021676,-2.183605 -0.199471,-0.311953 -0.420426,-0.649968 -0.491024,-0.751146 l -0.128373,-0.183959 0.183907,-0.156272 c 0.317497,-0.269798 1.074541,-0.603277 1.459781,-0.643038 0.44438,-0.04587 0.473249,-0.147405 0.0419,-0.147405 -0.941963,0 -1.52412,0.298963 -2.465948,1.266373 -0.386215,0.396704 -0.906321,0.861521 -1.155797,1.032926 -0.685176,0.470766 -0.819617,0.52333 -0.471555,0.184379 0.166473,-0.16211 0.40806,-0.459502 0.536872,-0.660866 0.222582,-0.347953 0.638047,-1.360594 0.581448,-1.417197 -0.01488,-0.01467 -0.10645,0.109515 -0.203923,0.275925 -0.248505,0.423975 -1.1211,1.319115 -1.73009,1.774738 -0.718981,0.537913 -1.691437,1.001632 -2.251953,1.073852 -0.579289,0.07465 -1.923547,0.07284 -2.510147,-0.0034 -0.821243,-0.106668 -2.01642,-0.76961 -2.956324,-1.639813 -0.477809,-0.442377 -0.97285,-1.038811 -1.107493,-1.334317 -0.155782,-0.341904 -0.171534,-0.153221 -0.02353,0.281903 0.21612,0.635415 0.458481,1.055443 0.865432,1.499842 l 0.352709,0.385142 -0.256514,-0.153435 c -0.485365,-0.29031 -0.963385,-0.694454 -1.605076,-1.356999 -0.686715,-0.709032 -1.047347,-0.949235 -1.667739,-1.110826 -0.407781,-0.106215 -1.05588,-0.132696 -1.05588,-0.04315 0,0.03035 0.161725,0.07186 0.359394,0.09225 0.396099,0.04088 1.163228,0.382819 1.452768,0.647552 l 0.17688,0.161723 -0.184212,0.275174 c -0.10131,0.151346 -0.309642,0.477176 -0.462956,0.724073 -0.363588,0.585527 -1.776995,2.00268 -2.519955,2.526638 -0.312873,0.220647 -0.601453,0.413691 -0.641289,0.42899 -0.05129,0.0197 -0.06779,-0.14555 -0.0565,-0.566107 z"
       id="path482" />
    <circle
       style="fill:#414141;fill-opacity:1;stroke:#dfdfdf;stroke-width:1.08705;stroke-dasharray:none;stroke-opacity:1"
       id="path1-6"
       cx="48.320271"
       cy="48.287033"
       r="12.17483" />
    <path
       id="path1-3"
       style="fill:#dfdfdf;fill-opacity:1;stroke:none;stroke-width:0.20182;stroke-dasharray:none;stroke-dashoffset:2.2;stroke-opacity:0.6"
       d="m 51.761355,43.058253 c -0.20805,-8.7e-5 -0.430751,0.08369 -0.709468,0.246992 -0.663244,0.38861 -1.530643,0.57188 -2.721813,0.57188 -1.191057,0 -2.087392,-0.187174 -2.746686,-0.573538 -0.528668,-0.309806 -0.844291,-0.313912 -1.287974,-0.01478 -1.13908,0.767625 -1.997557,3.228765 -2.249396,6.444848 -0.151015,1.928547 -0.0099,2.945286 0.488995,3.517478 0.240643,0.275876 0.831407,0.229104 1.364229,-0.109404 0.451661,-0.286952 0.989814,-0.920136 1.632759,-1.921198 0.580993,-0.90461 1.283736,-1.202549 2.837856,-1.205094 1.551025,-0.0023 2.160562,0.291041 2.875977,1.390747 1.200302,1.845038 2.309754,2.487372 2.960519,1.713978 0.360522,-0.428447 0.426509,-0.842406 0.409431,-2.565996 -0.03111,-3.131006 -0.849546,-5.979338 -2.02893,-7.066455 -0.314103,-0.289533 -0.557986,-0.429217 -0.825499,-0.42933 z m -6.738245,1.844933 h 0.719412 0.719406 v 0.616637 0.61664 h 0.61664 0.616633 v 0.770797 0.770791 h -0.616633 -0.61664 v 0.668023 0.668026 h -0.651444 c -0.357887,0 -0.68008,-0.03211 -0.717752,-0.06961 -0.03766,-0.03766 -0.06959,-0.336727 -0.06959,-0.666363 v -0.60007 h -0.616645 -0.616641 v -0.770793 -0.770795 h 0.616641 0.616634 v -0.616642 z m 5.86468,0 c 0.649001,0 0.926941,0.71908 0.459164,1.186861 -0.29749,0.297457 -0.568995,0.320837 -0.861967,0.07295 -0.508167,-0.429995 -0.242935,-1.259794 0.402803,-1.259794 z M 49.639599,46.221 c 0.162065,1.09e-4 0.325226,0.06468 0.454185,0.207182 0.201035,0.222143 0.222754,0.730724 0.04146,0.968054 -0.354805,0.464484 -1.20675,0.165717 -1.20675,-0.422693 0,-0.446577 0.354591,-0.752808 0.711121,-0.75256 z m 2.54777,0.02495 c 0.186795,0.0035 0.368135,0.06527 0.474076,0.18233 0.201035,0.222143 0.222724,0.730722 0.04144,0.968055 -0.377384,0.494038 -1.206751,0.163367 -1.206751,-0.480712 0,-0.195235 0.07823,-0.406835 0.18729,-0.505575 0.124687,-0.112856 0.317151,-0.167515 0.503922,-0.164093 z m -1.254823,1.329411 c 0.575374,0 0.855333,0.610306 0.507229,1.107293 -0.119001,0.169891 -0.264129,0.228754 -0.563593,0.228754 -0.344776,0 -0.424785,-0.04487 -0.563588,-0.313304 -0.273699,-0.529262 0.02495,-1.022754 0.619952,-1.022754 z" />
  </g>
</svg>
