<?xml version="1.0" encoding="UTF-8" standalone="no"?>
<svg
   width="64"
   height="64"
   version="1.1"
   id="svg73"
   sodipodi:docname="fr.handbrake.ghb.svg"
   inkscape:version="1.4.2 (ebf0e940d0, 2025-05-08)"
   xmlns:inkscape="http://www.inkscape.org/namespaces/inkscape"
   xmlns:sodipodi="http://sodipodi.sourceforge.net/DTD/sodipodi-0.dtd"
   xmlns="http://www.w3.org/2000/svg"
   xmlns:svg="http://www.w3.org/2000/svg"
   xmlns:rdf="http://www.w3.org/1999/02/22-rdf-syntax-ns#"
   xmlns:cc="http://creativecommons.org/ns#"
   xmlns:dc="http://purl.org/dc/elements/1.1/">
  <metadata
     id="metadata77">
    <rdf:RDF>
      <cc:Work
         rdf:about="">
        <dc:format>image/svg+xml</dc:format>
        <dc:type
           rdf:resource="http://purl.org/dc/dcmitype/StillImage" />
      </cc:Work>
    </rdf:RDF>
  </metadata>
  <sodipodi:namedview
     pagecolor="#f5f7fa"
     bordercolor="#666666"
     borderopacity="1"
     objecttolerance="10"
     gridtolerance="10"
     guidetolerance="10"
     inkscape:pageopacity="0"
     inkscape:pageshadow="2"
     inkscape:window-width="1377"
     inkscape:window-height="886"
     id="namedview75"
     showgrid="false"
     inkscape:zoom="6.2890625"
     inkscape:cx="48.099379"
     inkscape:cy="45.396273"
     inkscape:window-x="0"
     inkscape:window-y="47"
     inkscape:window-maximized="0"
     inkscape:current-layer="g877"
     inkscape:document-rotation="0"
     inkscape:pagecheckerboard="0"
     inkscape:showpageshadow="2"
     inkscape:deskcolor="#d1d1d1" />
  <defs
     id="defs29" />
  <circle
     cx="32.516094"
     cy="31.877844"
     r="0"
     fill="url(#b)"
     stroke-width="1.5715"
     id="circle41"
     style="fill:url(#b)" />
  <g
     aria-label="GZ"
     transform="matrix(1.2212657,0,0,0.81882264,0.4960938,-0.1661539)"
     id="text93"
     style="font-weight:bold;font-size:11.5263px;line-height:1.25;font-family:sans-serif;-inkscape-font-specification:'sans-serif Bold';fill:#f2f2f2;stroke-width:0.288159" />
  <g
     id="g877"
     transform="matrix(1.1,0,0,1.1,-3.1845928,-3.2065454)">
    <circle
       style="opacity:1;fill:#414141;stroke:#dfdfdf;stroke-width:2.27272727;stroke-dasharray:none;fill-opacity:1;stroke-opacity:1"
       id="path1"
       cx="31.985994"
       cy="32.005951"
       r="25.454546" />
    <path
       style="fill:#dfdfdf;fill-opacity:1;stroke:none;stroke-width:0.434234;stroke-dasharray:none;stroke-opacity:0.6"
       d="m 27.496605,44.026794 c -0.07609,-0.09936 -1.233962,-3.443263 -2.573043,-7.430881 -1.429971,-4.25828 -2.600349,-7.514769 -2.836114,-7.891286 -0.465147,-0.74283 -1.181745,-1.185795 -2.14032,-1.323046 -0.696826,-0.09978 -1.013448,-0.419614 -0.645829,-0.652388 0.108073,-0.06843 0.662566,-0.125391 1.232213,-0.126573 0.768573,-0.0015 1.019025,-0.04756 0.970986,-0.178134 -0.0356,-0.09678 -0.398109,-1.179859 -0.805558,-2.406833 -0.825205,-2.48496 -1.207808,-3.085381 -2.123141,-3.331853 -0.632877,-0.170417 -0.789021,-0.351134 -0.551091,-0.637821 0.140625,-0.169443 0.771576,-0.204631 3.63723,-0.202848 1.913971,0.0014 3.560718,0.06136 3.676098,0.134311 0.114948,0.07269 0.970196,2.415701 1.900542,5.206712 0.930345,2.791009 1.754889,5.08494 1.83232,5.09762 0.07744,0.01273 0.566923,-0.698885 1.087755,-1.581256 0.520845,-0.882375 1.042874,-1.716306 1.160068,-1.853183 0.186063,-0.217305 0.476632,-0.248592 2.290987,-0.246712 1.142842,9.9e-4 2.166315,0.05815 2.27439,0.126568 0.308864,0.195569 0.07923,0.53894 -0.433345,0.64796 -0.619196,0.131693 -0.96026,0.451976 -0.957661,0.89931 0.0024,0.426555 1.371371,2.362547 1.539264,2.176934 0.223234,-0.246812 2.963606,-8.464001 2.963606,-8.886605 0,-0.482668 -0.309844,-0.87913 -0.687058,-0.87913 -0.134542,0 -0.365177,-0.08817 -0.512559,-0.195938 -0.22768,-0.166478 -0.239712,-0.229977 -0.08008,-0.422343 0.164245,-0.197907 0.671698,-0.226413 4.030627,-0.226413 2.113502,0 3.942935,0.03847 4.065414,0.08545 0.43106,0.165415 0.254672,0.598947 -0.305236,0.750315 -0.682577,0.184529 -1.113566,0.493457 -1.363978,0.97768 -0.162107,0.313502 -4.239239,11.978658 -6.021118,17.22718 -0.304572,0.897109 -0.481739,1.229836 -0.652004,1.224471 -0.128898,-0.0043 -1.086337,-1.07622 -2.134309,-2.390061 -1.045306,-1.310488 -1.962208,-2.363602 -2.037563,-2.340248 -0.07537,0.02348 -0.500984,0.639592 -0.945834,1.369416 -1.088176,1.785255 -1.0944,2.364839 -0.02933,2.730989 0.371329,0.127695 0.549051,0.27276 0.549051,0.448209 0,0.228887 -0.1573,0.267771 -1.337419,0.329838 l -1.337409,0.07043 -1.150093,1.896755 c -0.63255,1.043203 -1.209044,1.916399 -1.281092,1.940418 -0.07205,0.02383 -0.193267,-0.03762 -0.269357,-0.136953 z"
       id="path1151" />
    <circle
       style="fill:#414141;fill-opacity:1;stroke:#dfdfdf;stroke-width:1.08705;stroke-dasharray:none;stroke-opacity:1"
       id="path1-6"
       cx="48.320271"
       cy="48.287033"
       r="12.17483" />
    <path
       id="path1-3"
       style="fill:#dfdfdf;fill-opacity:1;stroke:none;stroke-width:0.20182;stroke-dasharray:none;stroke-dashoffset:2.2;stroke-opacity:0.6"
       d="m 51.761355,43.058253 c -0.20805,-8.7e-5 -0.430751,0.08369 -0.709468,0.246992 -0.663244,0.38861 -1.530643,0.57188 -2.721813,0.57188 -1.191057,0 -2.087392,-0.187174 -2.746686,-0.573538 -0.528668,-0.309806 -0.844291,-0.313912 -1.287974,-0.01478 -1.13908,0.767625 -1.997557,3.228765 -2.249396,6.444848 -0.151015,1.928547 -0.0099,2.945286 0.488995,3.517478 0.240643,0.275876 0.831407,0.229104 1.364229,-0.109404 0.451661,-0.286952 0.989814,-0.920136 1.632759,-1.921198 0.580993,-0.90461 1.283736,-1.202549 2.837856,-1.205094 1.551025,-0.0023 2.160562,0.291041 2.875977,1.390747 1.200302,1.845038 2.309754,2.487372 2.960519,1.713978 0.360522,-0.428447 0.426509,-0.842406 0.409431,-2.565996 -0.03111,-3.131006 -0.849546,-5.979338 -2.02893,-7.066455 -0.314103,-0.289533 -0.557986,-0.429217 -0.825499,-0.42933 z m -6.738245,1.844933 h 0.719412 0.719406 v 0.616637 0.61664 h 0.61664 0.616633 v 0.770797 0.770791 h -0.616633 -0.61664 v 0.668023 0.668026 h -0.651444 c -0.357887,0 -0.68008,-0.03211 -0.717752,-0.06961 -0.03766,-0.03766 -0.06959,-0.336727 -0.06959,-0.666363 v -0.60007 h -0.616645 -0.616641 v -0.770793 -0.770795 h 0.616641 0.616634 v -0.616642 z m 5.86468,0 c 0.649001,0 0.926941,0.71908 0.459164,1.186861 -0.29749,0.297457 -0.568995,0.320837 -0.861967,0.07295 -0.508167,-0.429995 -0.242935,-1.259794 0.402803,-1.259794 z M 49.639599,46.221 c 0.162065,1.09e-4 0.325226,0.06468 0.454185,0.207182 0.201035,0.222143 0.222754,0.730724 0.04146,0.968054 -0.354805,0.464484 -1.20675,0.165717 -1.20675,-0.422693 0,-0.446577 0.354591,-0.752808 0.711121,-0.75256 z m 2.54777,0.02495 c 0.186795,0.0035 0.368135,0.06527 0.474076,0.18233 0.201035,0.222143 0.222724,0.730722 0.04144,0.968055 -0.377384,0.494038 -1.206751,0.163367 -1.206751,-0.480712 0,-0.195235 0.07823,-0.406835 0.18729,-0.505575 0.124687,-0.112856 0.317151,-0.167515 0.503922,-0.164093 z m -1.254823,1.329411 c 0.575374,0 0.855333,0.610306 0.507229,1.107293 -0.119001,0.169891 -0.264129,0.228754 -0.563593,0.228754 -0.344776,0 -0.424785,-0.04487 -0.563588,-0.313304 -0.273699,-0.529262 0.02495,-1.022754 0.619952,-1.022754 z" />
  </g>
</svg>
