<?xml version="1.0" encoding="UTF-8" standalone="no"?>
<svg
   width="64"
   height="64"
   version="1.1"
   id="svg73"
   sodipodi:docname="fr.handbrake.ghb.svg"
   inkscape:version="1.4.2 (ebf0e940d0, 2025-05-08)"
   xmlns:inkscape="http://www.inkscape.org/namespaces/inkscape"
   xmlns:sodipodi="http://sodipodi.sourceforge.net/DTD/sodipodi-0.dtd"
   xmlns="http://www.w3.org/2000/svg"
   xmlns:svg="http://www.w3.org/2000/svg"
   xmlns:rdf="http://www.w3.org/1999/02/22-rdf-syntax-ns#"
   xmlns:cc="http://creativecommons.org/ns#"
   xmlns:dc="http://purl.org/dc/elements/1.1/">
  <metadata
     id="metadata77">
    <rdf:RDF>
      <cc:Work
         rdf:about="">
        <dc:format>image/svg+xml</dc:format>
        <dc:type
           rdf:resource="http://purl.org/dc/dcmitype/StillImage" />
      </cc:Work>
    </rdf:RDF>
  </metadata>
  <sodipodi:namedview
     pagecolor="#f5f7fa"
     bordercolor="#666666"
     borderopacity="1"
     objecttolerance="10"
     gridtolerance="10"
     guidetolerance="10"
     inkscape:pageopacity="0"
     inkscape:pageshadow="2"
     inkscape:window-width="1377"
     inkscape:window-height="886"
     id="namedview75"
     showgrid="false"
     inkscape:zoom="6.2890625"
     inkscape:cx="48.099379"
     inkscape:cy="45.396273"
     inkscape:window-x="0"
     inkscape:window-y="47"
     inkscape:window-maximized="0"
     inkscape:current-layer="g877"
     inkscape:document-rotation="0"
     inkscape:pagecheckerboard="0"
     inkscape:showpageshadow="2"
     inkscape:deskcolor="#d1d1d1" />
  <defs
     id="defs29" />
  <circle
     cx="32.516094"
     cy="31.877844"
     r="0"
     fill="url(#b)"
     stroke-width="1.5715"
     id="circle41"
     style="fill:url(#b)" />
  <g
     aria-label="GZ"
     transform="matrix(1.2212657,0,0,0.81882264,0.4960938,-0.1661539)"
     id="text93"
     style="font-weight:bold;font-size:11.5263px;line-height:1.25;font-family:sans-serif;-inkscape-font-specification:'sans-serif Bold';fill:#f2f2f2;stroke-width:0.288159" />
  <g
     id="g877"
     transform="matrix(1.1,0,0,1.1,-3.1845928,-3.2065454)">
    <circle
       style="opacity:1;fill:#414141;stroke:#dfdfdf;stroke-width:2.27272727;stroke-dasharray:none;fill-opacity:1;stroke-opacity:1"
       id="path1"
       cx="31.985994"
       cy="32.005951"
       r="25.454546" />
    <path
       style="fill:#dfdfdf;fill-opacity:1;stroke:none;stroke-width:0.454913;stroke-dasharray:none;stroke-opacity:0.6"
       d="m 26.698594,42.033886 4.800096,-2.989888 h 3.334535 c 3.163703,0 3.370058,-0.03549 4.027938,-0.693406 0.80419,-0.804189 0.925619,-2.239312 0.268809,-3.177031 -0.409554,-0.584719 -0.348457,-0.652402 1.725542,-1.911559 2.014126,-1.222805 2.190822,-1.278707 2.793529,-0.8838 1.893248,1.240502 2.588163,5.785186 1.293532,8.459542 -0.34996,0.722921 -1.10159,1.699272 -1.670291,2.169672 -1.935752,1.601136 -2.968896,1.756113 -12.616382,1.892527 L 21.89849,45.023775 Z M 18.367279,31.699072 c 0,-6.388652 0.09536,-11.562531 0.211878,-11.497509 0.311058,0.173565 16.999882,10.058293 18.087586,10.71321 l 0.925884,0.557484 -1.490881,0.905445 c -0.819984,0.497992 -5.050344,3.106012 -9.400802,5.795594 -4.350454,2.689578 -8.005262,4.946698 -8.121792,5.015822 -0.116531,0.06913 -0.211869,-5.101397 -0.211873,-11.490046 z M 40.75518,29.559627 c -1.732228,-0.981828 -1.765606,-1.023458 -1.765606,-2.202353 0,-2.000056 -0.648368,-2.437856 -3.612846,-2.439495 l -2.460844,-0.0013 -4.943702,-2.963502 -4.943697,-2.963501 7.376992,-0.0014 c 4.057345,-7.29e-4 8.057298,0.127662 8.888791,0.285348 3.787619,0.718308 5.344137,2.328639 5.564119,5.756493 0.07726,1.203187 -0.006,2.492259 -0.197894,3.074493 -0.301566,0.913856 -1.546008,2.470896 -1.966328,2.460335 -0.09539,-0.0023 -0.967889,-0.454693 -1.938972,-1.0051 z"
       id="path463" />
    <circle
       style="fill:#414141;fill-opacity:1;stroke:#dfdfdf;stroke-width:1.08705;stroke-dasharray:none;stroke-opacity:1"
       id="path1-6"
       cx="48.320271"
       cy="48.287033"
       r="12.17483" />
    <path
       id="path1-3"
       style="fill:#dfdfdf;fill-opacity:1;stroke:none;stroke-width:0.20182;stroke-dasharray:none;stroke-dashoffset:2.2;stroke-opacity:0.6"
       d="m 51.761355,43.058253 c -0.20805,-8.7e-5 -0.430751,0.08369 -0.709468,0.246992 -0.663244,0.38861 -1.530643,0.57188 -2.721813,0.57188 -1.191057,0 -2.087392,-0.187174 -2.746686,-0.573538 -0.528668,-0.309806 -0.844291,-0.313912 -1.287974,-0.01478 -1.13908,0.767625 -1.997557,3.228765 -2.249396,6.444848 -0.151015,1.928547 -0.0099,2.945286 0.488995,3.517478 0.240643,0.275876 0.831407,0.229104 1.364229,-0.109404 0.451661,-0.286952 0.989814,-0.920136 1.632759,-1.921198 0.580993,-0.90461 1.283736,-1.202549 2.837856,-1.205094 1.551025,-0.0023 2.160562,0.291041 2.875977,1.390747 1.200302,1.845038 2.309754,2.487372 2.960519,1.713978 0.360522,-0.428447 0.426509,-0.842406 0.409431,-2.565996 -0.03111,-3.131006 -0.849546,-5.979338 -2.02893,-7.066455 -0.314103,-0.289533 -0.557986,-0.429217 -0.825499,-0.42933 z m -6.738245,1.844933 h 0.719412 0.719406 v 0.616637 0.61664 h 0.61664 0.616633 v 0.770797 0.770791 h -0.616633 -0.61664 v 0.668023 0.668026 h -0.651444 c -0.357887,0 -0.68008,-0.03211 -0.717752,-0.06961 -0.03766,-0.03766 -0.06959,-0.336727 -0.06959,-0.666363 v -0.60007 h -0.616645 -0.616641 v -0.770793 -0.770795 h 0.616641 0.616634 v -0.616642 z m 5.86468,0 c 0.649001,0 0.926941,0.71908 0.459164,1.186861 -0.29749,0.297457 -0.568995,0.320837 -0.861967,0.07295 -0.508167,-0.429995 -0.242935,-1.259794 0.402803,-1.259794 z M 49.639599,46.221 c 0.162065,1.09e-4 0.325226,0.06468 0.454185,0.207182 0.201035,0.222143 0.222754,0.730724 0.04146,0.968054 -0.354805,0.464484 -1.20675,0.165717 -1.20675,-0.422693 0,-0.446577 0.354591,-0.752808 0.711121,-0.75256 z m 2.54777,0.02495 c 0.186795,0.0035 0.368135,0.06527 0.474076,0.18233 0.201035,0.222143 0.222724,0.730722 0.04144,0.968055 -0.377384,0.494038 -1.206751,0.163367 -1.206751,-0.480712 0,-0.195235 0.07823,-0.406835 0.18729,-0.505575 0.124687,-0.112856 0.317151,-0.167515 0.503922,-0.164093 z m -1.254823,1.329411 c 0.575374,0 0.855333,0.610306 0.507229,1.107293 -0.119001,0.169891 -0.264129,0.228754 -0.563593,0.228754 -0.344776,0 -0.424785,-0.04487 -0.563588,-0.313304 -0.273699,-0.529262 0.02495,-1.022754 0.619952,-1.022754 z" />
  </g>
</svg>
