<?xml version="1.0" encoding="UTF-8" standalone="no"?>
<svg
   width="64"
   height="64"
   version="1.1"
   id="svg73"
   sodipodi:docname="fr.handbrake.ghb.svg"
   inkscape:version="1.4.2 (ebf0e940d0, 2025-05-08)"
   xmlns:inkscape="http://www.inkscape.org/namespaces/inkscape"
   xmlns:sodipodi="http://sodipodi.sourceforge.net/DTD/sodipodi-0.dtd"
   xmlns="http://www.w3.org/2000/svg"
   xmlns:svg="http://www.w3.org/2000/svg"
   xmlns:rdf="http://www.w3.org/1999/02/22-rdf-syntax-ns#"
   xmlns:cc="http://creativecommons.org/ns#"
   xmlns:dc="http://purl.org/dc/elements/1.1/">
  <metadata
     id="metadata77">
    <rdf:RDF>
      <cc:Work
         rdf:about="">
        <dc:format>image/svg+xml</dc:format>
        <dc:type
           rdf:resource="http://purl.org/dc/dcmitype/StillImage" />
      </cc:Work>
    </rdf:RDF>
  </metadata>
  <sodipodi:namedview
     pagecolor="#f5f7fa"
     bordercolor="#666666"
     borderopacity="1"
     objecttolerance="10"
     gridtolerance="10"
     guidetolerance="10"
     inkscape:pageopacity="0"
     inkscape:pageshadow="2"
     inkscape:window-width="1377"
     inkscape:window-height="886"
     id="namedview75"
     showgrid="false"
     inkscape:zoom="6.2890625"
     inkscape:cx="48.099379"
     inkscape:cy="45.396273"
     inkscape:window-x="0"
     inkscape:window-y="47"
     inkscape:window-maximized="0"
     inkscape:current-layer="g877"
     inkscape:document-rotation="0"
     inkscape:pagecheckerboard="0"
     inkscape:showpageshadow="2"
     inkscape:deskcolor="#d1d1d1" />
  <defs
     id="defs29" />
  <circle
     cx="32.516094"
     cy="31.877844"
     r="0"
     fill="url(#b)"
     stroke-width="1.5715"
     id="circle41"
     style="fill:url(#b)" />
  <g
     aria-label="GZ"
     transform="matrix(1.2212657,0,0,0.81882264,0.4960938,-0.1661539)"
     id="text93"
     style="font-weight:bold;font-size:11.5263px;line-height:1.25;font-family:sans-serif;-inkscape-font-specification:'sans-serif Bold';fill:#f2f2f2;stroke-width:0.288159" />
  <g
     id="g877"
     transform="matrix(1.1,0,0,1.1,-3.1845928,-3.2065454)">
    <circle
       style="opacity:1;fill:#414141;stroke:#dfdfdf;stroke-width:2.27272727;stroke-dasharray:none;fill-opacity:1;stroke-opacity:1"
       id="path1"
       cx="31.985994"
       cy="32.005951"
       r="25.454546" />
    <path
       style="fill:#dfdfdf;fill-opacity:1;stroke-width:0.0587368"
       d="m 34.035912,45.338235 c -0.152087,-0.152084 -1.79413,-4.807976 -1.765805,-5.006809 0.02857,-0.200573 0.308102,-0.268141 0.442007,-0.10675 0.101437,0.122244 1.657526,4.826819 1.657526,5.011275 0,0.162907 -0.209059,0.226951 -0.333728,0.102297 z m -4.569243,-3.198891 c -0.733251,-0.915317 -1.360394,-1.709814 -1.393653,-1.765546 -0.06919,-0.115933 0.07943,-0.329414 0.229348,-0.329414 0.126808,0 2.777999,3.470568 2.777999,3.636562 0,0.367062 -0.360835,0.02227 -1.613694,-1.541602 z m 4.878042,0.509052 c -0.08269,-0.142157 -0.836551,-2.631581 -0.836551,-2.762516 0,-0.176484 0.142251,-0.278781 0.244931,-0.176112 0.06988,0.06989 0.851501,2.74979 0.851501,2.919486 0,0.09051 -0.20939,0.105915 -0.25988,0.01886 z M 27.67361,39.516418 c -0.35965,-0.06502 -0.560791,-0.26543 -1.392109,-1.38697 -0.480467,-0.648198 -1.082909,-1.44287 -1.338758,-1.765916 -0.859252,-1.08495 -0.918972,-1.438347 -0.453161,-2.681594 0.765948,-2.044314 0.819098,-2.230721 0.774932,-2.717803 l -0.0417,-0.459832 0.363919,-0.03054 c 0.200153,-0.01682 0.375875,-0.0018 0.390489,0.03331 0.09124,0.219272 0.289542,0.309306 0.579209,0.262987 0.519012,-0.083 0.879106,-0.292748 0.906334,-0.527944 0.02087,-0.180346 0.107387,-0.241817 0.645754,-0.45883 l 0.621648,-0.250584 0.226114,0.242054 c 0.213634,0.228699 0.532924,0.402156 0.739065,0.401506 0.05104,-1.77e-4 -0.01571,-0.06648 -0.14842,-0.147387 -0.248644,-0.151625 -0.447854,-0.492044 -0.537605,-0.918684 -0.04333,-0.205953 0.0543,-0.448229 0.625511,-1.552394 0.64091,-1.238885 0.669186,-1.314227 0.532552,-1.418992 -0.07936,-0.06085 -0.405351,-0.29333 -0.724422,-0.51662 l -0.580128,-0.405981 0.05294,0.463533 c 0.02913,0.254944 0.126564,0.760296 0.216543,1.123005 l 0.163604,0.659473 -0.34126,0.686024 -0.34126,0.686023 -0.566007,0.240407 c -0.671812,0.285344 -0.701754,0.287961 -0.873128,0.07632 l -0.132862,-0.164078 -0.623694,0.189188 c -0.552585,0.167618 -0.62643,0.212176 -0.647681,0.390797 -0.02072,0.173913 -0.07277,0.208922 -0.379179,0.25487 -0.195356,0.02929 -0.370594,0.03786 -0.389418,0.01904 -0.01883,-0.01884 -0.175006,-0.378908 -0.347071,-0.800175 -0.172066,-0.421269 -0.453107,-1.034062 -0.624535,-1.361762 -0.364528,-0.696825 -2.1579,-2.88796 -4.035397,-4.930437 -2.069363,-2.2512 -2.358478,-2.645206 -2.273482,-3.098284 0.07842,-0.41796 0.388535,-0.672692 0.819926,-0.673475 0.359747,-6.31e-4 0.364906,0.0031 1.182998,0.881055 3.162443,3.393515 3.628438,3.760864 4.770776,3.760864 0.800238,0 1.422881,-0.273653 2.024679,-0.889844 l 0.412046,-0.421901 0.62035,-0.02817 c 0.426808,-0.01939 0.73857,0.01111 0.999275,0.09769 0.664135,0.220587 3.542159,2.560875 3.827227,3.112135 0.192984,0.373188 0.138307,0.791085 -0.185016,1.414127 -0.369059,0.711173 -1.531293,2.538508 -1.787089,2.80977 l -0.190053,0.201542 0.156139,0.385828 c 0.188037,0.464657 1.962306,5.033084 2.555808,6.580758 0.519567,1.354861 0.542425,1.650909 0.157234,2.036096 -0.223309,0.223333 -0.322699,0.266256 -0.615967,0.266256 -0.233684,0 -0.417246,-0.05313 -0.553319,-0.160155 -0.131109,-0.10313 -0.764637,-1.271643 -1.779007,-3.281307 -0.866462,-1.716625 -1.644392,-3.195208 -1.728733,-3.285738 -0.08434,-0.09053 -0.200693,-0.164599 -0.258558,-0.164599 -0.05786,0 -0.424192,0.56578 -0.814056,1.257286 l -0.708845,1.257287 0.763328,1.268409 c 1.111127,1.846343 1.340782,2.27683 1.340782,2.513304 0,0.236692 -0.164773,0.596428 -0.339669,0.741583 -0.152084,0.126231 -0.521946,0.222807 -0.717599,0.187461 z m 8.055743,-5.032628 c -0.842269,-0.123335 -1.937767,-0.565566 -3.050951,-1.231607 l -0.493726,-0.295407 -0.5543,-1.439583 -0.554298,-1.439585 0.617594,-0.949059 c 1.231777,-1.892873 1.515543,-2.469944 1.525726,-3.102753 0.01468,-0.91226 -0.543954,-1.575596 -2.707814,-3.215311 -0.678954,-0.514494 -1.19465,-0.935444 -1.145989,-0.935444 0.07697,0 4.851558,1.595701 12.266489,4.099544 3.351536,1.131731 4.2434,1.544552 4.528671,2.096203 0.319367,0.61758 -0.009,0.863828 -2.330898,1.747573 l -0.76005,0.289291 0.355459,0.340585 c 0.302251,0.289613 0.34309,0.363686 0.272874,0.494929 -0.174628,0.326295 -1.069703,0.535039 -3.426242,0.799049 -1.946692,0.218095 -2.827334,0.45438 -3.298226,0.88495 -0.241826,0.221116 -0.223117,0.552618 0.06015,1.066546 0.128427,0.233018 0.233537,0.4894 0.233537,0.569731 0,0.277719 -0.579355,0.360723 -1.537989,0.220346 z M 24.031907,22.584406 c -1.301514,-0.262783 -2.014562,-1.716568 -1.416716,-2.888447 0.357059,-0.699889 1.274981,-1.184467 2.029398,-1.071337 1.001131,0.150129 1.731183,0.953762 1.735084,1.909957 0.0025,0.609438 -0.138769,0.992299 -0.524304,1.42111 -0.462446,0.51435 -1.174289,0.759789 -1.823462,0.628717 z"
       id="path1-4" />
    <circle
       style="fill:#414141;fill-opacity:1;stroke:#dfdfdf;stroke-width:1.08705;stroke-dasharray:none;stroke-opacity:1"
       id="path1-6"
       cx="48.320271"
       cy="48.287033"
       r="12.17483" />
    <path
       id="path1-3"
       style="fill:#dfdfdf;fill-opacity:1;stroke:none;stroke-width:0.20182;stroke-dasharray:none;stroke-dashoffset:2.2;stroke-opacity:0.6"
       d="m 51.761355,43.058253 c -0.20805,-8.7e-5 -0.430751,0.08369 -0.709468,0.246992 -0.663244,0.38861 -1.530643,0.57188 -2.721813,0.57188 -1.191057,0 -2.087392,-0.187174 -2.746686,-0.573538 -0.528668,-0.309806 -0.844291,-0.313912 -1.287974,-0.01478 -1.13908,0.767625 -1.997557,3.228765 -2.249396,6.444848 -0.151015,1.928547 -0.0099,2.945286 0.488995,3.517478 0.240643,0.275876 0.831407,0.229104 1.364229,-0.109404 0.451661,-0.286952 0.989814,-0.920136 1.632759,-1.921198 0.580993,-0.90461 1.283736,-1.202549 2.837856,-1.205094 1.551025,-0.0023 2.160562,0.291041 2.875977,1.390747 1.200302,1.845038 2.309754,2.487372 2.960519,1.713978 0.360522,-0.428447 0.426509,-0.842406 0.409431,-2.565996 -0.03111,-3.131006 -0.849546,-5.979338 -2.02893,-7.066455 -0.314103,-0.289533 -0.557986,-0.429217 -0.825499,-0.42933 z m -6.738245,1.844933 h 0.719412 0.719406 v 0.616637 0.61664 h 0.61664 0.616633 v 0.770797 0.770791 h -0.616633 -0.61664 v 0.668023 0.668026 h -0.651444 c -0.357887,0 -0.68008,-0.03211 -0.717752,-0.06961 -0.03766,-0.03766 -0.06959,-0.336727 -0.06959,-0.666363 v -0.60007 h -0.616645 -0.616641 v -0.770793 -0.770795 h 0.616641 0.616634 v -0.616642 z m 5.86468,0 c 0.649001,0 0.926941,0.71908 0.459164,1.186861 -0.29749,0.297457 -0.568995,0.320837 -0.861967,0.07295 -0.508167,-0.429995 -0.242935,-1.259794 0.402803,-1.259794 z M 49.639599,46.221 c 0.162065,1.09e-4 0.325226,0.06468 0.454185,0.207182 0.201035,0.222143 0.222754,0.730724 0.04146,0.968054 -0.354805,0.464484 -1.20675,0.165717 -1.20675,-0.422693 0,-0.446577 0.354591,-0.752808 0.711121,-0.75256 z m 2.54777,0.02495 c 0.186795,0.0035 0.368135,0.06527 0.474076,0.18233 0.201035,0.222143 0.222724,0.730722 0.04144,0.968055 -0.377384,0.494038 -1.206751,0.163367 -1.206751,-0.480712 0,-0.195235 0.07823,-0.406835 0.18729,-0.505575 0.124687,-0.112856 0.317151,-0.167515 0.503922,-0.164093 z m -1.254823,1.329411 c 0.575374,0 0.855333,0.610306 0.507229,1.107293 -0.119001,0.169891 -0.264129,0.228754 -0.563593,0.228754 -0.344776,0 -0.424785,-0.04487 -0.563588,-0.313304 -0.273699,-0.529262 0.02495,-1.022754 0.619952,-1.022754 z" />
  </g>
</svg>
