<?xml version="1.0" encoding="UTF-8" standalone="no"?>
<svg
   width="64"
   height="64"
   version="1.1"
   id="svg73"
   sodipodi:docname="steam_icon_1771300.svg"
   inkscape:version="1.4.2 (ebf0e940d0, 2025-05-08)"
   xmlns:inkscape="http://www.inkscape.org/namespaces/inkscape"
   xmlns:sodipodi="http://sodipodi.sourceforge.net/DTD/sodipodi-0.dtd"
   xmlns="http://www.w3.org/2000/svg"
   xmlns:svg="http://www.w3.org/2000/svg"
   xmlns:rdf="http://www.w3.org/1999/02/22-rdf-syntax-ns#"
   xmlns:cc="http://creativecommons.org/ns#"
   xmlns:dc="http://purl.org/dc/elements/1.1/">
  <metadata
     id="metadata77">
    <rdf:RDF>
      <cc:Work
         rdf:about="">
        <dc:format>image/svg+xml</dc:format>
        <dc:type
           rdf:resource="http://purl.org/dc/dcmitype/StillImage" />
      </cc:Work>
    </rdf:RDF>
  </metadata>
  <sodipodi:namedview
     pagecolor="#f5f7fa"
     bordercolor="#666666"
     borderopacity="1"
     objecttolerance="10"
     gridtolerance="10"
     guidetolerance="10"
     inkscape:pageopacity="0"
     inkscape:pageshadow="2"
     inkscape:window-width="1036"
     inkscape:window-height="950"
     id="namedview75"
     showgrid="false"
     inkscape:zoom="6.2890625"
     inkscape:cx="48.258385"
     inkscape:cy="45.237267"
     inkscape:window-x="47"
     inkscape:window-y="37"
     inkscape:window-maximized="0"
     inkscape:current-layer="g877"
     inkscape:document-rotation="0"
     inkscape:pagecheckerboard="0"
     inkscape:showpageshadow="2"
     inkscape:deskcolor="#d1d1d1" />
  <defs
     id="defs29" />
  <circle
     cx="32.516094"
     cy="31.877844"
     r="0"
     fill="url(#b)"
     stroke-width="1.5715"
     id="circle41"
     style="fill:url(#b)" />
  <g
     aria-label="GZ"
     transform="matrix(1.2212657,0,0,0.81882264,0.4960938,-0.1661539)"
     id="text93"
     style="font-weight:bold;font-size:11.5263px;line-height:1.25;font-family:sans-serif;-inkscape-font-specification:'sans-serif Bold';fill:#f2f2f2;stroke-width:0.288159" />
  <g
     id="g877"
     transform="matrix(1.1,0,0,1.1,-3.1845928,-3.2065454)">
    <circle
       style="opacity:1;fill:#414141;stroke:#dfdfdf;stroke-width:2.27272727;stroke-dasharray:none;fill-opacity:1;stroke-opacity:1"
       id="path1"
       cx="31.985994"
       cy="32.005951"
       r="25.454546" />
    <path
       style="fill:#dfdfdf;fill-opacity:1;stroke-width:0.047577"
       d="m 29.60302,42.485906 c -2.688381,-0.15658 -5.324923,-0.534127 -6.703536,-0.959937 -0.714829,-0.22079 -1.28941,-0.891184 -1.28941,-1.504426 0,-0.230689 0.03769,-0.304785 0.276416,-0.543518 0.152029,-0.152029 0.380397,-0.314018 0.50749,-0.359973 l 0.231071,-0.08356 v -1.02447 -1.02447 l -0.305164,-0.1897 c -0.47057,-0.292522 -0.64582,-0.796581 -0.425254,-1.223112 0.107919,-0.20869 0.401839,-0.334653 1.561441,-0.669176 3.647239,-1.052155 9.353498,-1.308569 14.007194,-0.62942 1.414577,0.206439 3.104067,0.611595 4.082496,0.979019 0.263092,0.0988 0.392097,0.188438 0.459913,0.319577 0.220568,0.426531 0.04532,0.93059 -0.425253,1.223112 l -0.305165,0.1897 v 0.999441 0.999438 l 0.339028,0.191336 c 0.48248,0.272295 0.675951,0.522699 0.675951,0.874863 0,0.457243 -0.304682,0.928559 -0.813297,1.258099 -0.647129,0.419292 -2.829029,0.857057 -5.403441,1.084121 -1.306743,0.115257 -5.142176,0.170413 -6.47048,0.09305 z m 6.914533,-0.66227 c 1.863717,-0.191756 4.071053,-0.6197 3.846012,-0.74564 -0.159759,-0.08941 -1.196513,-0.341701 -1.879649,-0.457418 -3.078706,-0.521494 -9.345847,-0.552763 -12.68706,-0.06331 -0.926682,0.135753 -2.071493,0.409693 -1.960762,0.469185 0.15277,0.08209 1.446766,0.367128 2.277941,0.501789 0.965775,0.156465 2.350708,0.310381 3.457268,0.38422 1.304633,0.08706 5.794845,0.02963 6.94625,-0.08884 z m -4.075188,-4.032033 c 0.863741,-0.526629 0.426732,-1.860845 -0.573748,-1.751685 -0.364999,0.03983 -0.627839,0.213496 -0.767028,0.506816 -0.310771,0.654903 0.132429,1.370924 0.848567,1.370924 0.173192,0 0.366773,-0.04957 0.492209,-0.126055 z m -3.795753,-0.291445 c 0.271477,-0.228431 0.275594,-0.58978 0.0097,-0.855628 -0.298985,-0.298983 -0.792629,-0.200238 -0.954672,0.190965 -0.245421,0.592501 0.449647,1.081411 0.944924,0.664663 z m 7.43971,-0.02914 c 0.170072,-0.17007 0.18917,-0.224694 0.158498,-0.453361 -0.01918,-0.142995 -0.08993,-0.315049 -0.157222,-0.382343 -0.06729,-0.06729 -0.239347,-0.138042 -0.382342,-0.157221 -0.228665,-0.03067 -0.283292,-0.01156 -0.453363,0.158499 -0.264121,0.264122 -0.26713,0.583181 -0.0079,0.84237 0.259188,0.259188 0.578247,0.25618 0.842371,-0.0079 z M 21.408348,34.818699 c -0.204876,-0.377957 -3.324245,-6.348717 -4.445641,-8.509368 -0.244459,-0.471013 -0.530093,-1.01339 -0.634741,-1.205286 -0.140679,-0.257963 -0.159138,-0.323085 -0.07082,-0.249861 0.48295,0.400405 1.480524,1.250487 1.939958,1.65313 0.711843,0.623856 1.368341,0.968257 2.827953,1.483549 0.05881,0.02076 0.03823,0.09425 -0.075,0.267816 -0.403059,0.617753 -0.582479,1.749565 -0.393782,2.484041 0.169914,0.661361 0.456261,1.184198 0.89188,1.628482 0.685934,0.699573 1.37769,0.863031 2.107899,0.498092 0.32592,-0.162887 0.391792,-0.229403 0.559223,-0.564676 l 0.189787,-0.380041 -0.01203,-1.053771 c -0.01389,-1.214718 -0.07327,-1.444226 -0.543905,-2.101749 -0.341626,-0.47729 -1.261835,-1.359275 -1.750738,-1.678018 -0.01322,-0.0086 0.160193,-0.214634 0.385348,-0.457823 0.464412,-0.501608 0.763433,-1.018392 0.906025,-1.565838 0.11859,-0.455297 0.251228,-2.374164 0.203557,-2.944827 -0.04034,-0.482812 -0.05648,-0.508112 0.465615,0.729514 0.852449,2.020725 1.815891,3.032674 3.115252,3.272091 l 0.420115,0.07741 -0.214999,0.355205 c -0.459242,0.758728 -0.784641,1.887253 -0.784641,2.721236 0,0.517711 0.179218,1.265564 0.4146,1.730068 0.201499,0.397638 0.722905,0.934438 1.076146,1.107917 0.188012,0.09233 0.385215,0.124615 0.761234,0.124615 0.43687,0 0.54795,-0.02378 0.798256,-0.170937 0.568626,-0.334288 0.950024,-0.900399 1.165273,-1.729614 0.115392,-0.444534 0.127644,-1.187626 0.02651,-1.607919 -0.153259,-0.636915 -0.710813,-1.667886 -1.377955,-2.547967 -0.144753,-0.190956 -0.263186,-0.363864 -0.263186,-0.384241 0,-0.02038 0.180641,-0.169687 0.401429,-0.331799 0.609611,-0.447608 1.27341,-1.086749 1.529721,-1.472898 0.328707,-0.495217 0.542458,-1.101234 0.822744,-2.33259 0.0492,-0.216141 0.227601,-0.234947 0.227601,-0.02399 0,0.323502 0.327899,1.429223 0.566766,1.911216 0.316061,0.637756 0.666252,1.035971 1.483596,1.687048 0.35512,0.282879 0.65405,0.536578 0.664292,0.563777 0.01024,0.02719 -0.149474,0.274091 -0.354928,0.54865 -0.845768,1.130259 -1.288427,2.109298 -1.329955,2.941491 -0.07835,1.569948 0.762578,2.87286 1.913835,2.965272 0.613408,0.04924 0.995183,-0.102331 1.465202,-0.581706 1.145565,-1.168371 1.235117,-3.013563 0.239566,-4.93615 -0.131188,-0.253349 -0.247131,-0.478613 -0.257652,-0.500592 -0.01052,-0.02198 0.116581,-0.06032 0.282447,-0.08519 0.761234,-0.114153 1.482448,-0.556675 2.071864,-1.271253 0.386811,-0.468948 0.978615,-1.579654 1.35053,-2.534695 l 0.246283,-0.632425 0.03851,1.425376 c 0.03744,1.385762 0.09823,1.871849 0.292183,2.33603 0.148009,0.354238 0.475285,0.833326 0.845376,1.237515 l 0.340579,0.371963 -0.186962,0.135525 c -0.788293,0.571423 -1.56401,1.413041 -1.908212,2.070328 L 39.65765,29.63973 v 1.237004 c 0,1.23508 4.73e-4,1.237464 0.174363,1.533616 0.355866,0.605364 1.239069,0.813553 1.974799,0.465499 0.889734,-0.420914 1.622517,-1.700395 1.624532,-2.836521 0.0012,-0.669574 -0.137266,-1.15983 -0.555983,-1.968731 -0.02653,-0.05125 -0.02052,-0.054 0.937352,-0.429067 0.866975,-0.339474 1.397772,-0.676314 2.251981,-1.429098 0.383788,-0.338217 0.924174,-0.802409 1.200857,-1.031537 l 0.503058,-0.416593 -0.414733,0.788375 c -0.228105,0.433607 -1.451025,2.77234 -2.717598,5.197184 -1.266573,2.424843 -2.31042,4.418546 -2.319656,4.43045 -0.0092,0.01191 -0.197365,-0.07931 -0.418062,-0.202684 -1.04689,-0.585258 -2.922579,-1.00368 -5.603028,-1.249903 -1.193059,-0.109596 -5.974869,-0.151524 -7.497964,-0.06574 -3.426492,0.192972 -6.050599,0.731152 -6.964752,1.428411 l -0.196113,0.149584 z"
       id="path1-6-6" />
    <circle
       style="fill:#414141;fill-opacity:1;stroke:#dfdfdf;stroke-width:1.08705;stroke-dasharray:none;stroke-opacity:1"
       id="path1-6"
       cx="48.320271"
       cy="48.287033"
       r="12.17483" />
    <path
       id="path1-3"
       style="fill:#dfdfdf;fill-opacity:1;stroke:none;stroke-width:0.20182;stroke-dasharray:none;stroke-dashoffset:2.2;stroke-opacity:0.6"
       d="m 51.761355,43.058253 c -0.20805,-8.7e-5 -0.430751,0.08369 -0.709468,0.246992 -0.663244,0.38861 -1.530643,0.57188 -2.721813,0.57188 -1.191057,0 -2.087392,-0.187174 -2.746686,-0.573538 -0.528668,-0.309806 -0.844291,-0.313912 -1.287974,-0.01478 -1.13908,0.767625 -1.997557,3.228765 -2.249396,6.444848 -0.151015,1.928547 -0.0099,2.945286 0.488995,3.517478 0.240643,0.275876 0.831407,0.229104 1.364229,-0.109404 0.451661,-0.286952 0.989814,-0.920136 1.632759,-1.921198 0.580993,-0.90461 1.283736,-1.202549 2.837856,-1.205094 1.551025,-0.0023 2.160562,0.291041 2.875977,1.390747 1.200302,1.845038 2.309754,2.487372 2.960519,1.713978 0.360522,-0.428447 0.426509,-0.842406 0.409431,-2.565996 -0.03111,-3.131006 -0.849546,-5.979338 -2.02893,-7.066455 -0.314103,-0.289533 -0.557986,-0.429217 -0.825499,-0.42933 z m -6.738245,1.844933 h 0.719412 0.719406 v 0.616637 0.61664 h 0.61664 0.616633 v 0.770797 0.770791 h -0.616633 -0.61664 v 0.668023 0.668026 h -0.651444 c -0.357887,0 -0.68008,-0.03211 -0.717752,-0.06961 -0.03766,-0.03766 -0.06959,-0.336727 -0.06959,-0.666363 v -0.60007 h -0.616645 -0.616641 v -0.770793 -0.770795 h 0.616641 0.616634 v -0.616642 z m 5.86468,0 c 0.649001,0 0.926941,0.71908 0.459164,1.186861 -0.29749,0.297457 -0.568995,0.320837 -0.861967,0.07295 -0.508167,-0.429995 -0.242935,-1.259794 0.402803,-1.259794 z M 49.639599,46.221 c 0.162065,1.09e-4 0.325226,0.06468 0.454185,0.207182 0.201035,0.222143 0.222754,0.730724 0.04146,0.968054 -0.354805,0.464484 -1.20675,0.165717 -1.20675,-0.422693 0,-0.446577 0.354591,-0.752808 0.711121,-0.75256 z m 2.54777,0.02495 c 0.186795,0.0035 0.368135,0.06527 0.474076,0.18233 0.201035,0.222143 0.222724,0.730722 0.04144,0.968055 -0.377384,0.494038 -1.206751,0.163367 -1.206751,-0.480712 0,-0.195235 0.07823,-0.406835 0.18729,-0.505575 0.124687,-0.112856 0.317151,-0.167515 0.503922,-0.164093 z m -1.254823,1.329411 c 0.575374,0 0.855333,0.610306 0.507229,1.107293 -0.119001,0.169891 -0.264129,0.228754 -0.563593,0.228754 -0.344776,0 -0.424785,-0.04487 -0.563588,-0.313304 -0.273699,-0.529262 0.02495,-1.022754 0.619952,-1.022754 z" />
  </g>
</svg>
