<?xml version="1.0" encoding="UTF-8" standalone="no"?>
<svg
   width="64"
   height="64"
   version="1.1"
   id="svg73"
   sodipodi:docname="fr.handbrake.ghb.svg"
   inkscape:version="1.4.2 (ebf0e940d0, 2025-05-08)"
   xmlns:inkscape="http://www.inkscape.org/namespaces/inkscape"
   xmlns:sodipodi="http://sodipodi.sourceforge.net/DTD/sodipodi-0.dtd"
   xmlns="http://www.w3.org/2000/svg"
   xmlns:svg="http://www.w3.org/2000/svg"
   xmlns:rdf="http://www.w3.org/1999/02/22-rdf-syntax-ns#"
   xmlns:cc="http://creativecommons.org/ns#"
   xmlns:dc="http://purl.org/dc/elements/1.1/">
  <metadata
     id="metadata77">
    <rdf:RDF>
      <cc:Work
         rdf:about="">
        <dc:format>image/svg+xml</dc:format>
        <dc:type
           rdf:resource="http://purl.org/dc/dcmitype/StillImage" />
      </cc:Work>
    </rdf:RDF>
  </metadata>
  <sodipodi:namedview
     pagecolor="#f5f7fa"
     bordercolor="#666666"
     borderopacity="1"
     objecttolerance="10"
     gridtolerance="10"
     guidetolerance="10"
     inkscape:pageopacity="0"
     inkscape:pageshadow="2"
     inkscape:window-width="1377"
     inkscape:window-height="886"
     id="namedview75"
     showgrid="false"
     inkscape:zoom="6.2890625"
     inkscape:cx="48.099379"
     inkscape:cy="45.396273"
     inkscape:window-x="0"
     inkscape:window-y="47"
     inkscape:window-maximized="0"
     inkscape:current-layer="g877"
     inkscape:document-rotation="0"
     inkscape:pagecheckerboard="0"
     inkscape:showpageshadow="2"
     inkscape:deskcolor="#d1d1d1" />
  <defs
     id="defs29" />
  <circle
     cx="32.516094"
     cy="31.877844"
     r="0"
     fill="url(#b)"
     stroke-width="1.5715"
     id="circle41"
     style="fill:url(#b)" />
  <g
     aria-label="GZ"
     transform="matrix(1.2212657,0,0,0.81882264,0.4960938,-0.1661539)"
     id="text93"
     style="font-weight:bold;font-size:11.5263px;line-height:1.25;font-family:sans-serif;-inkscape-font-specification:'sans-serif Bold';fill:#f2f2f2;stroke-width:0.288159" />
  <g
     id="g877"
     transform="matrix(1.1,0,0,1.1,-3.1845928,-3.2065454)">
    <circle
       style="opacity:1;fill:#414141;stroke:#dfdfdf;stroke-width:2.27272727;stroke-dasharray:none;fill-opacity:1;stroke-opacity:1"
       id="path1"
       cx="31.985994"
       cy="32.005951"
       r="25.454546" />
    <path
       d="m 20.342254,39.653725 c -0.330087,-0.330086 -0.190049,-0.870224 0.20005,-1.26033 0.820215,-0.820214 2.360619,-0.740194 2.890754,-0.410107 0.270068,0.170063 0.60016,0.100001 0.580155,-0.260065 -0.05003,-0.630173 -0.180044,-1.440386 -0.270069,-2.090557 -0.03001,-0.250072 -0.250069,-0.450112 -0.650164,-0.450124 -0.960257,-0.02005 -2.35062,0.390111 -3.480917,1.520407 -1.370359,1.370356 -1.870488,4.09107 -0.740193,5.221364 2.070541,2.070541 6.43168,-1.550408 7.331917,-0.650168 0.330086,0.330086 -0.07002,0.950247 -0.500131,1.38036 -0.830218,0.83022 -2.450641,0.930242 -3.020788,0.560145 -0.270071,-0.170064 -0.61016,-0.09001 -0.580154,0.260063 0.04003,0.640169 0.170045,1.450379 0.260068,2.100552 0.04001,0.240066 0.250067,0.450117 0.66017,0.46012 0.960252,0.02 2.48065,-0.560143 3.790992,-1.870487 1.300338,-1.300339 1.970514,-4.051059 0.820215,-5.201358 -1.920501,-1.920506 -6.35166,1.630424 -7.291905,0.690179 z m 16.907539,-8.52535 c -0.460113,0.04001 -1.280333,0.100021 -2.240582,0.140045 -0.160044,-0.300077 -0.190051,-0.890233 -0.290076,-1.210317 -0.100027,-0.360096 -0.450119,-0.370096 -0.630165,-0.07002 l -0.780203,1.320338 -1.000261,-0.04001 c 0.43011,-0.950249 0.340088,-2.660698 -0.410109,-3.410893 -1.000261,-1.000261 -2.370619,-1.070277 -3.540926,0.100027 -1.400364,1.400366 -1.560406,3.660956 -0.390102,4.831263 0.45012,0.450119 1.230323,0.73019 2.160568,0.880227 -0.800212,1.060277 -0.580153,2.640693 0.190044,3.410894 1.190311,1.190312 2.790733,0.790206 3.981042,-0.400107 0.730189,-0.730188 1.380361,-1.900496 1.330349,-2.930763 0.61016,-0.05003 1.120288,-0.100023 1.440378,-0.140045 0.340087,-0.04003 0.580145,-0.140046 0.620163,-0.520135 0.04997,-0.390102 0.08,-1.360355 0.06,-1.560408 -0.02984,-0.21005 -0.200065,-0.420112 -0.50013,-0.400106 z M 33.248749,35.0494 c -0.330085,0.330086 -1.060275,0.260067 -1.430374,-0.110023 -0.240068,-0.240067 -0.340084,-0.720191 -0.290073,-1.11029 0.640165,0.04001 1.310342,0.05003 1.960512,0.02006 0.06003,0.440116 -0.01003,0.970256 -0.24007,1.200317 z m -4.041057,-5.241371 c 0.260065,-0.260071 1.010268,-0.01004 1.310346,0.290074 0.210042,0.210046 0.380095,0.640176 0.340087,1.020269 -0.720186,-0.120022 -1.30034,-0.320083 -1.610419,-0.630167 -0.200045,-0.200043 -0.230045,-0.490135 -0.04001,-0.680176 z M 37.1629,19.392182 c -0.230096,0.230074 -2.060538,2.180568 -2.37062,2.490651 -0.240071,0.240071 -0.150048,1.61042 0.06002,1.820475 0.09002,0.09003 0.170043,0.07003 0.250071,-0.01003 0.290074,-0.290075 2.050539,-2.150564 2.330608,-2.430637 1.550406,-1.550403 4.051058,-0.950249 5.621471,0.620164 0.94024,0.940247 1.170306,2.010525 0.370094,2.890756 -0.100001,0.100019 -0.680185,0.700174 -1.300339,1.360356 -0.04001,-0.500131 -0.200064,-0.980259 -0.550148,-1.33035 0,0 -1.210396,-1.23024 -2.2906,-2.350607 -0.240064,-0.240067 -0.320075,-0.440123 -0.460117,-0.780205 -0.130063,-0.350095 -0.470124,-0.330086 -0.620161,-0.02006 l -1.010275,2.070544 c -0.140064,0.300078 -0.02,0.600159 0.250065,0.73019 0.240065,0.120018 0.490123,0.250068 0.770199,0.530142 0.880229,0.880231 1.790469,1.83048 2.240584,2.280597 0.110032,0.110025 0.200062,0.200047 0.270064,0.310085 l -0.390103,0.390162 c -0.240064,0.240071 0.08,1.720448 0.290065,1.930504 0.08,0.08002 0.180064,0.06001 0.260065,-0.02006 0.280065,-0.280064 3.290857,-3.370873 3.57093,-3.650949 1.880505,-1.880468 1.580425,-4.801227 -0.300064,-6.721728 -1.980519,-1.98052 -5.051324,-2.050538 -6.991833,-0.110024 z"
       id="text3"
       style="font-size:5.64433px;line-height:0.7;font-family:'Anubis Mythical Serif';-inkscape-font-specification:'Anubis Mythical Serif';letter-spacing:-0.394221px;fill:#dfdfdf;fill-opacity:1;stroke-width:0.795702"
       aria-label="S &amp; D" />
    <circle
       style="fill:#414141;fill-opacity:1;stroke:#dfdfdf;stroke-width:1.08705;stroke-dasharray:none;stroke-opacity:1"
       id="path1-6"
       cx="48.320271"
       cy="48.287033"
       r="12.17483" />
    <path
       id="path1-3"
       style="fill:#dfdfdf;fill-opacity:1;stroke:none;stroke-width:0.20182;stroke-dasharray:none;stroke-dashoffset:2.2;stroke-opacity:0.6"
       d="m 51.761355,43.058253 c -0.20805,-8.7e-5 -0.430751,0.08369 -0.709468,0.246992 -0.663244,0.38861 -1.530643,0.57188 -2.721813,0.57188 -1.191057,0 -2.087392,-0.187174 -2.746686,-0.573538 -0.528668,-0.309806 -0.844291,-0.313912 -1.287974,-0.01478 -1.13908,0.767625 -1.997557,3.228765 -2.249396,6.444848 -0.151015,1.928547 -0.0099,2.945286 0.488995,3.517478 0.240643,0.275876 0.831407,0.229104 1.364229,-0.109404 0.451661,-0.286952 0.989814,-0.920136 1.632759,-1.921198 0.580993,-0.90461 1.283736,-1.202549 2.837856,-1.205094 1.551025,-0.0023 2.160562,0.291041 2.875977,1.390747 1.200302,1.845038 2.309754,2.487372 2.960519,1.713978 0.360522,-0.428447 0.426509,-0.842406 0.409431,-2.565996 -0.03111,-3.131006 -0.849546,-5.979338 -2.02893,-7.066455 -0.314103,-0.289533 -0.557986,-0.429217 -0.825499,-0.42933 z m -6.738245,1.844933 h 0.719412 0.719406 v 0.616637 0.61664 h 0.61664 0.616633 v 0.770797 0.770791 h -0.616633 -0.61664 v 0.668023 0.668026 h -0.651444 c -0.357887,0 -0.68008,-0.03211 -0.717752,-0.06961 -0.03766,-0.03766 -0.06959,-0.336727 -0.06959,-0.666363 v -0.60007 h -0.616645 -0.616641 v -0.770793 -0.770795 h 0.616641 0.616634 v -0.616642 z m 5.86468,0 c 0.649001,0 0.926941,0.71908 0.459164,1.186861 -0.29749,0.297457 -0.568995,0.320837 -0.861967,0.07295 -0.508167,-0.429995 -0.242935,-1.259794 0.402803,-1.259794 z M 49.639599,46.221 c 0.162065,1.09e-4 0.325226,0.06468 0.454185,0.207182 0.201035,0.222143 0.222754,0.730724 0.04146,0.968054 -0.354805,0.464484 -1.20675,0.165717 -1.20675,-0.422693 0,-0.446577 0.354591,-0.752808 0.711121,-0.75256 z m 2.54777,0.02495 c 0.186795,0.0035 0.368135,0.06527 0.474076,0.18233 0.201035,0.222143 0.222724,0.730722 0.04144,0.968055 -0.377384,0.494038 -1.206751,0.163367 -1.206751,-0.480712 0,-0.195235 0.07823,-0.406835 0.18729,-0.505575 0.124687,-0.112856 0.317151,-0.167515 0.503922,-0.164093 z m -1.254823,1.329411 c 0.575374,0 0.855333,0.610306 0.507229,1.107293 -0.119001,0.169891 -0.264129,0.228754 -0.563593,0.228754 -0.344776,0 -0.424785,-0.04487 -0.563588,-0.313304 -0.273699,-0.529262 0.02495,-1.022754 0.619952,-1.022754 z" />
  </g>
</svg>
