<?xml version="1.0" encoding="UTF-8" standalone="no"?>
<svg
   width="64"
   height="64"
   version="1.1"
   id="svg73"
   sodipodi:docname="fr.handbrake.ghb.svg"
   inkscape:version="1.4.2 (ebf0e940d0, 2025-05-08)"
   xmlns:inkscape="http://www.inkscape.org/namespaces/inkscape"
   xmlns:sodipodi="http://sodipodi.sourceforge.net/DTD/sodipodi-0.dtd"
   xmlns="http://www.w3.org/2000/svg"
   xmlns:svg="http://www.w3.org/2000/svg"
   xmlns:rdf="http://www.w3.org/1999/02/22-rdf-syntax-ns#"
   xmlns:cc="http://creativecommons.org/ns#"
   xmlns:dc="http://purl.org/dc/elements/1.1/">
  <metadata
     id="metadata77">
    <rdf:RDF>
      <cc:Work
         rdf:about="">
        <dc:format>image/svg+xml</dc:format>
        <dc:type
           rdf:resource="http://purl.org/dc/dcmitype/StillImage" />
      </cc:Work>
    </rdf:RDF>
  </metadata>
  <sodipodi:namedview
     pagecolor="#f5f7fa"
     bordercolor="#666666"
     borderopacity="1"
     objecttolerance="10"
     gridtolerance="10"
     guidetolerance="10"
     inkscape:pageopacity="0"
     inkscape:pageshadow="2"
     inkscape:window-width="1377"
     inkscape:window-height="886"
     id="namedview75"
     showgrid="false"
     inkscape:zoom="6.2890625"
     inkscape:cx="48.099379"
     inkscape:cy="45.396273"
     inkscape:window-x="0"
     inkscape:window-y="47"
     inkscape:window-maximized="0"
     inkscape:current-layer="g877"
     inkscape:document-rotation="0"
     inkscape:pagecheckerboard="0"
     inkscape:showpageshadow="2"
     inkscape:deskcolor="#d1d1d1" />
  <defs
     id="defs29" />
  <circle
     cx="32.516094"
     cy="31.877844"
     r="0"
     fill="url(#b)"
     stroke-width="1.5715"
     id="circle41"
     style="fill:url(#b)" />
  <g
     aria-label="GZ"
     transform="matrix(1.2212657,0,0,0.81882264,0.4960938,-0.1661539)"
     id="text93"
     style="font-weight:bold;font-size:11.5263px;line-height:1.25;font-family:sans-serif;-inkscape-font-specification:'sans-serif Bold';fill:#f2f2f2;stroke-width:0.288159" />
  <g
     id="g877"
     transform="matrix(1.1,0,0,1.1,-3.1845928,-3.2065454)">
    <circle
       style="opacity:1;fill:#414141;stroke:#dfdfdf;stroke-width:2.27272727;stroke-dasharray:none;fill-opacity:1;stroke-opacity:1"
       id="path1"
       cx="31.985994"
       cy="32.005951"
       r="25.454546" />
    <path
       style="fill:#dfdfdf;fill-opacity:1;stroke:none;stroke-width:0.437627;stroke-dasharray:none;stroke-dashoffset:2.2;stroke-opacity:0.6"
       d="m 24.292568,46.114534 c 0,-0.03863 0.152118,-0.378027 0.338053,-0.754315 0.195217,-0.395085 0.374372,-0.935315 0.424013,-1.278584 0.106993,-0.739853 0.115275,-6.98577 0.0095,-7.152513 -0.09216,-0.145259 -1.087474,0.184751 -2.120284,0.702942 -0.733272,0.36793 -0.738518,0.361806 -0.494243,-0.576011 0.316438,-1.21485 1.147893,-2.416192 2.137283,-3.088073 l 0.557523,-0.378607 v -4.629798 c 0,-3.045726 -0.03415,-4.70478 -0.09985,-4.848944 -0.251778,-0.552594 -1.27601,-0.971618 -2.148053,-0.878797 -0.482176,0.05133 -0.591556,0.03763 -0.591556,-0.07403 0,-0.157546 1.420643,-1.733162 3.473462,-3.852368 l 1.420188,-1.466115 0.545915,0.362469 c 0.832881,0.553002 1.365632,1.089279 1.658535,1.669515 0.361165,0.71547 0.453138,1.100338 0.563512,2.358133 0.09394,1.07065 0.144514,1.274567 0.270357,1.090463 0.03621,-0.05299 0.342685,-0.305825 0.681055,-0.56188 0.582745,-0.44099 1.617393,-1.255236 4.54313,-3.575357 0.702762,-0.557297 1.322769,-1.013422 1.377808,-1.01361 0.05502,-1.89e-4 0.296453,0.265853 0.536601,0.591211 0.618205,0.837737 1.530572,1.730171 2.002214,1.958494 0.480135,0.232424 1.276879,0.257442 1.842577,0.05783 0.213361,-0.0753 0.406804,-0.106553 0.429736,-0.06944 0.07713,0.124785 -0.122835,0.954277 -0.326099,1.352689 -0.257298,0.504385 -0.935436,1.23069 -1.365028,1.462045 l -0.333249,0.179471 0.0018,6.059644 0.0018,6.059649 0.282237,0.512024 c 0.155257,0.281605 0.282238,0.530615 0.282238,0.55334 0,0.02237 -0.437318,0.01132 -0.971837,-0.02514 -2.104637,-0.143493 -4.280256,0.539194 -6.674284,2.094223 -0.431258,0.28008 -0.809851,0.509315 -0.841319,0.509315 -0.03144,0 -0.402679,-0.330078 -0.824917,-0.733532 l -0.767722,-0.733528 -0.0256,2.034214 c -0.02807,2.229051 0.03001,2.690591 0.450586,3.579856 l 0.276851,0.585402 h -0.871886 c -1.279458,0 -2.981342,0.55117 -4.717413,1.527767 -0.83775,0.47121 -0.933492,0.511181 -0.933492,0.389649 z M 34.622367,35.077016 c 0.03605,-2.118759 0.0289,-7.083704 -0.01316,-9.093966 l -0.04725,-2.265733 -0.330278,-0.0854 c -0.181653,-0.04698 -0.522664,-0.226622 -0.757801,-0.399228 -0.406335,-0.298279 -0.43727,-0.306061 -0.624194,-0.157056 -0.108164,0.08623 -0.338243,0.263258 -0.511278,0.393399 -0.173036,0.13014 -0.361109,0.279212 -0.417933,0.33127 -0.05683,0.05204 -0.498022,0.41105 -0.980434,0.797765 l -0.877108,0.703116 0.05322,3.556067 c 0.02931,1.95584 0.07379,3.7277 0.09893,3.937473 0.0452,0.377205 0.0535,0.384374 0.752441,0.651236 0.936576,0.357582 1.932593,1.028065 2.732096,1.839149 0.381387,0.386913 0.70551,0.640973 0.78085,0.612061 0.09247,-0.0355 0.132505,-0.266898 0.141918,-0.820155 z"
       id="path1-7-3" />
    <circle
       style="fill:#414141;fill-opacity:1;stroke:#dfdfdf;stroke-width:1.08705;stroke-dasharray:none;stroke-opacity:1"
       id="path1-6"
       cx="48.320271"
       cy="48.287033"
       r="12.17483" />
    <path
       id="path1-3"
       style="fill:#dfdfdf;fill-opacity:1;stroke:none;stroke-width:0.20182;stroke-dasharray:none;stroke-dashoffset:2.2;stroke-opacity:0.6"
       d="m 51.761355,43.058253 c -0.20805,-8.7e-5 -0.430751,0.08369 -0.709468,0.246992 -0.663244,0.38861 -1.530643,0.57188 -2.721813,0.57188 -1.191057,0 -2.087392,-0.187174 -2.746686,-0.573538 -0.528668,-0.309806 -0.844291,-0.313912 -1.287974,-0.01478 -1.13908,0.767625 -1.997557,3.228765 -2.249396,6.444848 -0.151015,1.928547 -0.0099,2.945286 0.488995,3.517478 0.240643,0.275876 0.831407,0.229104 1.364229,-0.109404 0.451661,-0.286952 0.989814,-0.920136 1.632759,-1.921198 0.580993,-0.90461 1.283736,-1.202549 2.837856,-1.205094 1.551025,-0.0023 2.160562,0.291041 2.875977,1.390747 1.200302,1.845038 2.309754,2.487372 2.960519,1.713978 0.360522,-0.428447 0.426509,-0.842406 0.409431,-2.565996 -0.03111,-3.131006 -0.849546,-5.979338 -2.02893,-7.066455 -0.314103,-0.289533 -0.557986,-0.429217 -0.825499,-0.42933 z m -6.738245,1.844933 h 0.719412 0.719406 v 0.616637 0.61664 h 0.61664 0.616633 v 0.770797 0.770791 h -0.616633 -0.61664 v 0.668023 0.668026 h -0.651444 c -0.357887,0 -0.68008,-0.03211 -0.717752,-0.06961 -0.03766,-0.03766 -0.06959,-0.336727 -0.06959,-0.666363 v -0.60007 h -0.616645 -0.616641 v -0.770793 -0.770795 h 0.616641 0.616634 v -0.616642 z m 5.86468,0 c 0.649001,0 0.926941,0.71908 0.459164,1.186861 -0.29749,0.297457 -0.568995,0.320837 -0.861967,0.07295 -0.508167,-0.429995 -0.242935,-1.259794 0.402803,-1.259794 z M 49.639599,46.221 c 0.162065,1.09e-4 0.325226,0.06468 0.454185,0.207182 0.201035,0.222143 0.222754,0.730724 0.04146,0.968054 -0.354805,0.464484 -1.20675,0.165717 -1.20675,-0.422693 0,-0.446577 0.354591,-0.752808 0.711121,-0.75256 z m 2.54777,0.02495 c 0.186795,0.0035 0.368135,0.06527 0.474076,0.18233 0.201035,0.222143 0.222724,0.730722 0.04144,0.968055 -0.377384,0.494038 -1.206751,0.163367 -1.206751,-0.480712 0,-0.195235 0.07823,-0.406835 0.18729,-0.505575 0.124687,-0.112856 0.317151,-0.167515 0.503922,-0.164093 z m -1.254823,1.329411 c 0.575374,0 0.855333,0.610306 0.507229,1.107293 -0.119001,0.169891 -0.264129,0.228754 -0.563593,0.228754 -0.344776,0 -0.424785,-0.04487 -0.563588,-0.313304 -0.273699,-0.529262 0.02495,-1.022754 0.619952,-1.022754 z" />
  </g>
</svg>
