<?xml version="1.0" encoding="UTF-8" standalone="no"?>
<svg
   width="64"
   height="64"
   version="1.1"
   id="svg73"
   sodipodi:docname="fr.handbrake.ghb.svg"
   inkscape:version="1.4.2 (ebf0e940d0, 2025-05-08)"
   xmlns:inkscape="http://www.inkscape.org/namespaces/inkscape"
   xmlns:sodipodi="http://sodipodi.sourceforge.net/DTD/sodipodi-0.dtd"
   xmlns="http://www.w3.org/2000/svg"
   xmlns:svg="http://www.w3.org/2000/svg"
   xmlns:rdf="http://www.w3.org/1999/02/22-rdf-syntax-ns#"
   xmlns:cc="http://creativecommons.org/ns#"
   xmlns:dc="http://purl.org/dc/elements/1.1/">
  <metadata
     id="metadata77">
    <rdf:RDF>
      <cc:Work
         rdf:about="">
        <dc:format>image/svg+xml</dc:format>
        <dc:type
           rdf:resource="http://purl.org/dc/dcmitype/StillImage" />
      </cc:Work>
    </rdf:RDF>
  </metadata>
  <sodipodi:namedview
     pagecolor="#f5f7fa"
     bordercolor="#666666"
     borderopacity="1"
     objecttolerance="10"
     gridtolerance="10"
     guidetolerance="10"
     inkscape:pageopacity="0"
     inkscape:pageshadow="2"
     inkscape:window-width="1377"
     inkscape:window-height="886"
     id="namedview75"
     showgrid="false"
     inkscape:zoom="6.2890625"
     inkscape:cx="48.099379"
     inkscape:cy="45.396273"
     inkscape:window-x="0"
     inkscape:window-y="47"
     inkscape:window-maximized="0"
     inkscape:current-layer="g877"
     inkscape:document-rotation="0"
     inkscape:pagecheckerboard="0"
     inkscape:showpageshadow="2"
     inkscape:deskcolor="#d1d1d1" />
  <defs
     id="defs29" />
  <circle
     cx="32.516094"
     cy="31.877844"
     r="0"
     fill="url(#b)"
     stroke-width="1.5715"
     id="circle41"
     style="fill:url(#b)" />
  <g
     aria-label="GZ"
     transform="matrix(1.2212657,0,0,0.81882264,0.4960938,-0.1661539)"
     id="text93"
     style="font-weight:bold;font-size:11.5263px;line-height:1.25;font-family:sans-serif;-inkscape-font-specification:'sans-serif Bold';fill:#f2f2f2;stroke-width:0.288159" />
  <g
     id="g877"
     transform="matrix(1.1,0,0,1.1,-3.1845928,-3.2065454)">
    <circle
       style="opacity:1;fill:#414141;stroke:#dfdfdf;stroke-width:2.27272727;stroke-dasharray:none;fill-opacity:1;stroke-opacity:1"
       id="path1"
       cx="31.985994"
       cy="32.005951"
       r="25.454546" />
    <path
       style="fill:#dfdfdf;fill-opacity:1;stroke:none;stroke-width:0.416787;stroke-dasharray:none;stroke-opacity:0.6"
       d="m 44.917992,42.159145 c 0,-0.148048 0.194678,-0.496604 0.432578,-0.774566 0.889125,-1.038738 0.881732,-2.739211 -0.0163,-3.733144 -0.239706,-0.265327 -0.544102,-0.516757 -0.676449,-0.558767 -0.438726,-0.139238 -0.51923,-0.4971 -0.224292,-0.996969 0.481457,-0.816009 0.273623,-2.292413 -0.428691,-3.045334 -0.309233,-0.331518 -1.104338,-0.771501 -1.394195,-0.771501 -0.152518,0 -0.175479,-0.107835 -0.11575,-0.543772 0.131925,-0.962423 -0.593208,-2.134727 -1.580702,-2.555502 -0.526383,-0.224293 -1.594632,-0.246575 -1.978327,-0.04121 -0.340476,0.182212 -0.546588,0.07556 -0.922159,-0.477239 -0.930099,-1.369153 -3.405175,-1.162307 -3.989653,0.33343 -0.135661,0.347164 -0.364487,0.355287 -0.895143,0.03176 -0.52747,-0.321602 -1.254205,-0.318432 -1.929367,0.0086 -0.67116,0.324905 -1.092342,0.977963 -1.121668,1.739197 -0.0217,0.564023 -0.02396,0.566709 -0.504388,0.599906 -0.763924,0.05277 -1.0006,0.132635 -1.407031,0.474617 -0.229926,0.193495 -0.412964,0.492177 -0.462105,0.754123 -0.09025,0.481056 -0.351775,0.677195 -0.902969,0.677195 -0.201696,0 -0.509853,0.112621 -0.684816,0.250253 -0.39661,0.311972 -0.510648,0.311655 -1.161015,-0.0034 -0.439489,-0.212747 -0.581309,-0.230026 -0.884028,-0.107833 -0.503014,0.203069 -0.832807,0.161251 -1.534972,-0.1946 -0.871643,-0.441706 -1.588613,-1.310003 -1.89155,-2.290784 -0.296531,-0.960069 -0.334992,-2.766026 -0.07928,-3.721935 0.552065,-2.063457 1.941084,-3.315461 3.678397,-3.315461 0.653731,0 1.669726,0.313986 2.092777,0.64676 0.953815,0.750267 1.079122,2.60103 0.243338,3.594279 -0.510559,0.606768 -1.260589,0.822416 -2.338723,0.672444 -0.498247,-0.06932 -0.948124,-0.101965 -0.999742,-0.07259 -0.254651,0.144895 -0.05076,0.564042 0.428764,0.881381 0.468712,0.310174 0.633211,0.345838 1.595219,0.345838 1.267088,0 1.796822,-0.210696 2.59766,-1.033007 0.777965,-0.798901 1.076466,-1.696462 1.014056,-3.049153 -0.04168,-0.90336 -0.115784,-1.213386 -0.4545,-1.901421 -0.485301,-0.985782 -1.261986,-1.713345 -2.253846,-2.111302 -0.58945,-0.236501 -0.94497,-0.283841 -2.145362,-0.285678 -1.362832,-0.0022 -1.483677,0.01903 -2.288047,0.400048 -1.691605,0.801255 -2.91775,2.384875 -3.485909,4.502201 -0.387825,1.445272 -0.387353,4.100189 0.002,5.474464 0.522897,1.850555 1.475014,3.25823 2.84239,4.202355 0.913642,0.630845 2.668648,1.245294 3.569641,1.249778 0.504026,0.0026 0.889594,0.07194 1.04265,0.18771 0.35363,0.267468 0.98409,0.225371 1.388447,-0.09266 0.282664,-0.222373 0.497151,-0.272328 1.09714,-0.255698 0.736459,0.02025 1.46288,-0.214772 1.46288,-0.47362 0,-0.204121 1.279205,-0.953285 1.78788,-1.047065 0.333268,-0.06162 0.657324,-0.270386 1.09565,-0.706423 0.342231,-0.340437 0.676436,-0.618973 0.742678,-0.618973 0.06623,0 0.304783,0.11241 0.530089,0.249752 0.225307,0.13737 0.620781,0.249964 0.878832,0.250226 l 0.46918,4.17e-4 v 0.692152 c 0,1.126982 0.550726,2.093774 1.390967,2.441809 0.417813,0.17306 0.421961,0.191917 0.172981,0.787869 -0.483347,1.156807 -0.05947,2.490335 1.00043,3.147172 l 0.605656,0.375346 3.294477,0.03885 3.294479,0.03885 z m -1.724489,-1.192366 c -0.415367,-0.290935 -0.6527,-0.844471 -0.6527,-1.522298 0,-1.3161 1.126771,-2.008171 1.920569,-1.179627 0.716745,0.748125 0.690764,1.947066 -0.05581,2.575264 -0.437555,0.368181 -0.811456,0.407254 -1.212066,0.126692 z m -5.160061,-0.164038 c -0.472123,-0.472117 -0.579555,-0.939121 -0.360253,-1.566034 0.245782,-0.70262 0.814265,-1.02938 1.434646,-0.824635 0.55203,0.18216 0.929557,0.757497 0.9302,1.417517 3.91e-4,0.381331 -0.08816,0.570318 -0.424925,0.907083 -0.551603,0.551606 -1.07236,0.573384 -1.579668,0.06607 z m -1.283814,-3.864514 c -0.586165,-0.530484 -0.740114,-1.30079 -0.381347,-1.908138 0.354494,-0.600116 0.919994,-0.758895 1.547357,-0.434473 0.931388,0.481638 0.996488,2.010346 0.107256,2.518347 -0.357957,0.204542 -0.942205,0.123825 -1.27326,-0.175716 z m -10.902766,0.148652 c -0.108122,-0.108124 -0.196625,-0.244809 -0.196625,-0.303825 0,-0.228739 0.410073,-0.500464 0.755223,-0.500464 0.238755,0 0.409493,0.08873 0.501501,0.260642 0.289279,0.540516 -0.604766,0.999018 -1.060115,0.543668 z m -2.258321,-0.381597 c -0.398106,-0.398098 0.0014,-0.902882 0.595179,-0.753639 0.374517,0.094 0.554868,0.510522 0.335509,0.77483 -0.20055,0.241625 -0.678758,0.230711 -0.930688,-0.02131 z m 4.569734,-0.10302 c -0.240419,-0.289688 -0.103004,-0.738635 0.282459,-0.922815 0.699576,-0.334273 1.307672,0.47264 0.684905,0.908842 -0.348391,0.243991 -0.771374,0.250173 -0.967366,0.01367 z M 41.706444,35.86526 c -0.397367,-0.364159 -0.46277,-0.506839 -0.513664,-1.120614 -0.05458,-0.658336 -0.03298,-0.728678 0.337864,-1.099525 0.341099,-0.341094 0.458439,-0.386094 0.843811,-0.323553 0.779045,0.126428 1.292387,0.806926 1.292387,1.71324 0,0.403828 -0.07967,0.59597 -0.36572,0.882019 -0.505288,0.505292 -1.004665,0.489139 -1.594678,-0.05155 z M 21.392055,35.648987 c -0.183648,-0.343186 0.06035,-0.643564 0.48141,-0.592629 0.415525,0.05031 0.626634,0.388511 0.407385,0.652693 -0.233401,0.281233 -0.72388,0.24807 -0.888795,-0.06009 z m 9.071709,-0.871594 c -0.327784,-0.362196 -0.126744,-0.870196 0.457637,-1.156369 0.816187,-0.399687 1.505724,0.16509 1.050254,0.860225 -0.368695,0.562701 -1.131147,0.712439 -1.507891,0.296157 z m -4.115148,0.05297 c -0.254484,-0.09768 -0.255256,-0.599535 -0.0013,-0.8535 0.232657,-0.232657 0.816951,-0.259037 1.029527,-0.04648 0.497026,0.497022 -0.287916,1.184039 -1.028227,0.899948 z m -2.333088,-0.05361 c -0.285212,-0.152651 -0.316671,-0.528566 -0.06188,-0.740014 0.249786,-0.207304 0.829922,-0.115277 0.995868,0.157936 0.111874,0.184265 0.08234,0.272239 -0.157616,0.469183 -0.338353,0.277679 -0.440624,0.292529 -0.776325,0.112883 z M 22.013688,34.5265 c -0.314679,-0.168432 -0.310205,-0.575872 0.0083,-0.746287 0.505104,-0.270321 0.999342,0.326882 0.600554,0.725662 -0.18385,0.183843 -0.296689,0.187655 -0.608774,0.02104 z m -1.863967,-0.05269 c -0.16973,-0.204542 -0.07533,-0.443385 0.175201,-0.443385 0.224978,0 0.486035,0.334197 0.386669,0.494979 -0.115054,0.186183 -0.385102,0.161382 -0.561868,-0.05161 z m 14.142433,-0.751512 c -1.210127,-0.625778 -0.107456,-2.176972 1.168521,-1.64384 0.717596,0.299841 0.913484,0.962788 0.417747,1.413806 -0.493873,0.449323 -1.015836,0.525017 -1.586268,0.230053 z m -5.739222,-0.217314 c -0.243474,-0.243493 -0.172667,-0.714513 0.156961,-1.044138 0.384373,-0.384371 0.867013,-0.396834 1.124631,-0.02898 0.255697,0.365061 0.246044,0.498797 -0.06455,0.893649 -0.282265,0.358844 -0.940625,0.455957 -1.217053,0.17953 z m -8.009825,-0.320327 c -0.02994,-0.210538 0.02232,-0.28026 0.211604,-0.28026 0.299465,0 0.441603,0.189261 0.340332,0.453144 -0.107035,0.278882 -0.505242,0.154123 -0.551902,-0.172876 z m -1.199424,-0.06527 c -0.09443,-0.149677 -0.0879,-0.251384 0.0232,-0.362536 0.207822,-0.207829 0.596632,0.163749 0.482517,0.461084 -0.09291,0.242125 -0.318601,0.198151 -0.505754,-0.09855 z M 39.573459,32.57036 c -0.745569,-0.353799 -1.124415,-1.285887 -0.782403,-1.924951 0.157938,-0.295116 0.758742,-0.618808 1.147395,-0.618177 0.418997,7.37e-4 1.059285,0.431802 1.282571,0.863588 0.364209,0.704305 0.207461,1.361778 -0.403698,1.693446 -0.446642,0.242362 -0.709976,0.239443 -1.243865,-0.01367 z m -8.09859,-1.244585 c -0.600234,-0.230342 -0.447405,-1.025324 0.261813,-1.361867 0.54641,-0.259301 1.087659,-0.04497 1.14567,0.453663 0.06702,0.576028 -0.805663,1.139135 -1.407483,0.908204 z m 3.741011,-0.98051 c -0.420386,-0.420387 -0.393599,-0.849024 0.07785,-1.245717 0.436032,-0.366899 0.951112,-0.41583 1.482833,-0.14086 0.381157,0.197141 0.509409,0.419058 0.509409,0.881585 0,0.760154 -1.459009,1.116075 -2.070088,0.504994 z"
       id="path1-47" />
    <circle
       style="fill:#414141;fill-opacity:1;stroke:#dfdfdf;stroke-width:1.08705;stroke-dasharray:none;stroke-opacity:1"
       id="path1-6"
       cx="48.320271"
       cy="48.287033"
       r="12.17483" />
    <path
       id="path1-3"
       style="fill:#dfdfdf;fill-opacity:1;stroke:none;stroke-width:0.20182;stroke-dasharray:none;stroke-dashoffset:2.2;stroke-opacity:0.6"
       d="m 51.761355,43.058253 c -0.20805,-8.7e-5 -0.430751,0.08369 -0.709468,0.246992 -0.663244,0.38861 -1.530643,0.57188 -2.721813,0.57188 -1.191057,0 -2.087392,-0.187174 -2.746686,-0.573538 -0.528668,-0.309806 -0.844291,-0.313912 -1.287974,-0.01478 -1.13908,0.767625 -1.997557,3.228765 -2.249396,6.444848 -0.151015,1.928547 -0.0099,2.945286 0.488995,3.517478 0.240643,0.275876 0.831407,0.229104 1.364229,-0.109404 0.451661,-0.286952 0.989814,-0.920136 1.632759,-1.921198 0.580993,-0.90461 1.283736,-1.202549 2.837856,-1.205094 1.551025,-0.0023 2.160562,0.291041 2.875977,1.390747 1.200302,1.845038 2.309754,2.487372 2.960519,1.713978 0.360522,-0.428447 0.426509,-0.842406 0.409431,-2.565996 -0.03111,-3.131006 -0.849546,-5.979338 -2.02893,-7.066455 -0.314103,-0.289533 -0.557986,-0.429217 -0.825499,-0.42933 z m -6.738245,1.844933 h 0.719412 0.719406 v 0.616637 0.61664 h 0.61664 0.616633 v 0.770797 0.770791 h -0.616633 -0.61664 v 0.668023 0.668026 h -0.651444 c -0.357887,0 -0.68008,-0.03211 -0.717752,-0.06961 -0.03766,-0.03766 -0.06959,-0.336727 -0.06959,-0.666363 v -0.60007 h -0.616645 -0.616641 v -0.770793 -0.770795 h 0.616641 0.616634 v -0.616642 z m 5.86468,0 c 0.649001,0 0.926941,0.71908 0.459164,1.186861 -0.29749,0.297457 -0.568995,0.320837 -0.861967,0.07295 -0.508167,-0.429995 -0.242935,-1.259794 0.402803,-1.259794 z M 49.639599,46.221 c 0.162065,1.09e-4 0.325226,0.06468 0.454185,0.207182 0.201035,0.222143 0.222754,0.730724 0.04146,0.968054 -0.354805,0.464484 -1.20675,0.165717 -1.20675,-0.422693 0,-0.446577 0.354591,-0.752808 0.711121,-0.75256 z m 2.54777,0.02495 c 0.186795,0.0035 0.368135,0.06527 0.474076,0.18233 0.201035,0.222143 0.222724,0.730722 0.04144,0.968055 -0.377384,0.494038 -1.206751,0.163367 -1.206751,-0.480712 0,-0.195235 0.07823,-0.406835 0.18729,-0.505575 0.124687,-0.112856 0.317151,-0.167515 0.503922,-0.164093 z m -1.254823,1.329411 c 0.575374,0 0.855333,0.610306 0.507229,1.107293 -0.119001,0.169891 -0.264129,0.228754 -0.563593,0.228754 -0.344776,0 -0.424785,-0.04487 -0.563588,-0.313304 -0.273699,-0.529262 0.02495,-1.022754 0.619952,-1.022754 z" />
  </g>
</svg>
