<?xml version="1.0" encoding="UTF-8" standalone="no"?>
<svg
   width="64"
   height="64"
   version="1.1"
   id="svg73"
   sodipodi:docname="abcd.svg"
   inkscape:version="1.4.2 (ebf0e940d0, 2025-05-08)"
   xmlns:inkscape="http://www.inkscape.org/namespaces/inkscape"
   xmlns:sodipodi="http://sodipodi.sourceforge.net/DTD/sodipodi-0.dtd"
   xmlns="http://www.w3.org/2000/svg"
   xmlns:svg="http://www.w3.org/2000/svg"
   xmlns:rdf="http://www.w3.org/1999/02/22-rdf-syntax-ns#"
   xmlns:cc="http://creativecommons.org/ns#"
   xmlns:dc="http://purl.org/dc/elements/1.1/">
  <metadata
     id="metadata77">
    <rdf:RDF>
      <cc:Work
         rdf:about="">
        <dc:format>image/svg+xml</dc:format>
        <dc:type
           rdf:resource="http://purl.org/dc/dcmitype/StillImage" />
      </cc:Work>
    </rdf:RDF>
  </metadata>
  <sodipodi:namedview
     pagecolor="#f5f7fa"
     bordercolor="#666666"
     borderopacity="1"
     objecttolerance="10"
     gridtolerance="10"
     guidetolerance="10"
     inkscape:pageopacity="0"
     inkscape:pageshadow="2"
     inkscape:window-width="1377"
     inkscape:window-height="679"
     id="namedview75"
     showgrid="false"
     inkscape:zoom="6.2890624"
     inkscape:cx="47.622361"
     inkscape:cy="45.316771"
     inkscape:window-x="13"
     inkscape:window-y="130"
     inkscape:window-maximized="0"
     inkscape:current-layer="g877"
     inkscape:document-rotation="0"
     inkscape:pagecheckerboard="0"
     inkscape:showpageshadow="2"
     inkscape:deskcolor="#d1d1d1" />
  <defs
     id="defs29">
    <clipPath
       id="clip0_2648_607">
      <rect
         width="16"
         height="16"
         fill="#ffffff"
         id="rect1"
         x="0"
         y="0" />
    </clipPath>
  </defs>
  <circle
     cx="32.516094"
     cy="31.877844"
     r="0"
     fill="url(#b)"
     stroke-width="1.5715"
     id="circle41"
     style="fill:url(#b)" />
  <g
     aria-label="GZ"
     transform="matrix(1.2212657,0,0,0.81882264,0.4960938,-0.1661539)"
     id="text93"
     style="font-weight:bold;font-size:11.5263px;line-height:1.25;font-family:sans-serif;-inkscape-font-specification:'sans-serif Bold';fill:#f2f2f2;stroke-width:0.288159" />
  <g
     id="g877"
     transform="matrix(1.1,0,0,1.1,-3.1845928,-3.2065454)">
    <circle
       style="opacity:1;fill:#414141;stroke:#dfdfdf;stroke-width:2.27272727;stroke-dasharray:none;fill-opacity:1;stroke-opacity:1"
       id="path1"
       cx="31.985994"
       cy="32.005951"
       r="25.454546" />
    <path
       d="m 32.085675,21.090719 c -5.869299,0 -10.658443,4.586992 -11.014912,10.366974 h -3.439044 l 5.532379,8.273648 5.532376,-8.273648 h -3.937458 c 0.339722,-3.750051 3.486894,-6.678725 7.326659,-6.678725 1.420278,0 2.764397,0.401525 3.88762,1.096511 l 1.893963,-3.139995 c -1.68144,-1.033911 -3.664324,-1.644765 -5.781583,-1.644765 z m 8.72222,3.189837 -5.532376,8.273648 h 3.93746 c -0.339724,3.750051 -3.486899,6.678728 -7.326666,6.678728 -1.420278,0 -2.764394,-0.401527 -3.887614,-1.096515 l -1.893973,3.14 c 1.681447,1.033908 3.664332,1.644765 5.781587,1.644765 5.8693,0 10.658446,-4.586994 11.014913,-10.366978 h 3.439041 z"
       style="clip-rule:evenodd;fill:#dfdfdf;fill-opacity:1;fill-rule:evenodd;stroke:none;stroke-width:0.4275;stroke-linejoin:round;stroke-miterlimit:1.41421;stroke-dasharray:none;stroke-opacity:0.6"
       id="path2" />
    <g
       id="g2"
       style="fill:#dfdfdf;fill-opacity:1;stroke:none;stroke-opacity:0.6"
       transform="translate(-1.8181818e-7,1.7274047)" />
  </g>
</svg>
