<?xml version="1.0" encoding="UTF-8" standalone="no"?>
<svg
   width="64"
   height="64"
   version="1.1"
   id="svg73"
   sodipodi:docname="accessories-text-editor.svg"
   inkscape:version="1.4.2 (ebf0e940d0, 2025-05-08)"
   xmlns:inkscape="http://www.inkscape.org/namespaces/inkscape"
   xmlns:sodipodi="http://sodipodi.sourceforge.net/DTD/sodipodi-0.dtd"
   xmlns="http://www.w3.org/2000/svg"
   xmlns:svg="http://www.w3.org/2000/svg"
   xmlns:rdf="http://www.w3.org/1999/02/22-rdf-syntax-ns#"
   xmlns:cc="http://creativecommons.org/ns#"
   xmlns:dc="http://purl.org/dc/elements/1.1/">
  <metadata
     id="metadata77">
    <rdf:RDF>
      <cc:Work
         rdf:about="">
        <dc:format>image/svg+xml</dc:format>
        <dc:type
           rdf:resource="http://purl.org/dc/dcmitype/StillImage" />
      </cc:Work>
    </rdf:RDF>
  </metadata>
  <sodipodi:namedview
     pagecolor="#f5f7fa"
     bordercolor="#666666"
     borderopacity="1"
     objecttolerance="10"
     gridtolerance="10"
     guidetolerance="10"
     inkscape:pageopacity="0"
     inkscape:pageshadow="2"
     inkscape:window-width="1377"
     inkscape:window-height="886"
     id="namedview75"
     showgrid="false"
     inkscape:zoom="6.2890624"
     inkscape:cx="47.622361"
     inkscape:cy="45.396274"
     inkscape:window-x="324"
     inkscape:window-y="75"
     inkscape:window-maximized="0"
     inkscape:current-layer="g877"
     inkscape:document-rotation="0"
     inkscape:pagecheckerboard="0"
     inkscape:showpageshadow="2"
     inkscape:deskcolor="#d1d1d1" />
  <defs
     id="defs29" />
  <circle
     cx="32.516094"
     cy="31.877844"
     r="0"
     fill="url(#b)"
     stroke-width="1.5715"
     id="circle41"
     style="fill:url(#b)" />
  <g
     aria-label="GZ"
     transform="matrix(1.2212657,0,0,0.81882264,0.4960938,-0.1661539)"
     id="text93"
     style="font-weight:bold;font-size:11.5263px;line-height:1.25;font-family:sans-serif;-inkscape-font-specification:'sans-serif Bold';fill:#f2f2f2;stroke-width:0.288159" />
  <g
     id="g877"
     transform="matrix(1.1,0,0,1.1,-3.1845928,-3.2065454)">
    <circle
       style="opacity:1;fill:#414141;stroke:#dfdfdf;stroke-width:2.27272727;stroke-dasharray:none;fill-opacity:1;stroke-opacity:1"
       id="path1"
       cx="31.985994"
       cy="32.005951"
       r="25.454546" />
    <path
       id="path7"
       style="fill:#dfdfdf;fill-opacity:1;stroke:none;stroke-width:0.33498;stroke-dasharray:none;stroke-opacity:0.6"
       d="m 42.944788,20.277024 c -0.420069,0 -0.813959,0.199322 -1.045785,0.52918 -0.05893,0.08378 -0.427905,0.998553 -0.85222,2.111695 l -0.747891,1.963371 -1.313523,0.576945 c -0.721929,0.317301 -1.324888,0.576972 -1.339923,0.576946 -0.01514,-2.8e-5 -0.05692,-0.1018 -0.09298,-0.226257 -0.09537,-0.328794 -0.42808,-0.984625 -0.648629,-1.277068 -0.265044,-0.351454 -0.607455,-0.707778 -0.927633,-0.965347 -0.241254,-0.194079 -0.285123,-0.248492 -0.389657,-0.488955 -0.256843,-0.590837 -0.677098,-1.081493 -1.254446,-1.461848 -1.627276,-1.072038 -3.971633,-0.863895 -5.305632,0.470103 -0.295372,0.295373 -0.51061,0.612486 -0.678758,0.999285 -0.109715,0.252379 -0.146203,0.297186 -0.411025,0.509068 -0.720009,0.576079 -1.380335,1.535844 -1.567431,2.27887 -0.03185,0.126508 -0.05647,0.163732 -0.100561,0.150836 -0.138051,-0.04037 -2.561159,-1.121897 -2.599392,-1.160173 -0.02321,-0.02326 -0.369407,-0.904577 -0.770518,-1.959603 -0.40111,-1.055027 -0.762079,-1.971781 -0.80194,-2.036278 -0.119165,-0.192812 -0.420307,-0.437114 -0.641048,-0.520379 -0.276219,-0.104193 -0.70067,-0.08631 -0.966605,0.04022 -0.242786,0.115517 -0.508264,0.387246 -0.625965,0.64105 -0.07954,0.171492 -0.0966,0.25858 -0.09552,0.497756 0.0013,0.288905 0.0034,0.295887 0.789371,2.354289 0.433561,1.135326 0.830179,2.169514 0.88113,2.298979 0.114194,0.2902 0.289978,0.537976 0.47136,0.663675 0.09969,0.06907 2.14003,0.994187 2.821876,1.279586 0.02265,0.0095 0.163945,-0.166807 0.314239,-0.392172 0.590589,-0.885511 1.227146,-1.580169 1.639077,-1.786142 0.172455,-0.08623 0.272418,-0.109245 0.515357,-0.120668 0.481027,-0.02263 0.46602,-0.03287 2.759026,1.92692 1.964876,1.679342 2.01198,1.715708 2.082785,1.652903 0.340751,-0.302245 3.868717,-3.297524 4.013477,-3.407621 0.333807,-0.253874 0.709008,-0.345301 1.005565,-0.245103 0.219031,0.07399 0.439771,0.266683 0.889928,0.778059 0.502082,0.570358 0.718852,0.850095 1.008091,1.298439 0.157026,0.243423 0.216631,0.308388 0.263986,0.29036 0.363697,-0.138457 2.669753,-1.177761 2.782909,-1.254447 0.174328,-0.118165 0.314542,-0.278091 0.408516,-0.462562 0.03671,-0.07203 0.447811,-1.124206 0.91255,-2.339203 l 0.844665,-2.209742 v -0.325553 c 5.97e-4,-0.283929 -0.01091,-0.352183 -0.0993,-0.531694 -0.209903,-0.428733 -0.66387,-0.717727 -1.127481,-0.717728 z m -9.324134,2.613221 c 0.334934,0.01642 0.7164,0.209684 1.038251,0.554319 0.802367,0.85917 0.937748,2.206016 0.260192,2.586825 -0.159125,0.08943 -0.455952,0.126157 -0.639793,0.07919 -0.252642,-0.06456 -0.540049,-0.240898 -0.773032,-0.473883 -0.791748,-0.791749 -0.998976,-2.081921 -0.414797,-2.579281 0.144858,-0.123335 0.328216,-0.177023 0.529179,-0.167178 z m -3.245471,0.01636 c 0.376834,7.6e-4 0.582119,0.13805 0.749146,0.502784 0.06973,0.152281 0.08289,0.238446 0.08045,0.543007 -0.0053,0.630535 -0.243505,1.182788 -0.720239,1.667992 -0.174033,0.177125 -0.330019,0.295833 -0.496502,0.377088 -0.259851,0.126818 -0.60437,0.174962 -0.800684,0.111856 -0.319058,-0.102592 -0.534173,-0.450921 -0.560603,-0.907547 -0.04996,-0.863073 0.528503,-1.846916 1.295924,-2.203455 0.15439,-0.07172 0.256005,-0.09214 0.452505,-0.09174 z m 6.391643,3.476754 c -0.03426,0.004 -0.0734,0.02364 -0.142072,0.06033 -0.08294,0.04423 -1.153955,0.935257 -2.379412,1.980949 -1.225456,1.04569 -2.248989,1.901784 -2.275097,1.901784 -0.02614,0 -1.04618,-0.852155 -2.2663,-1.892985 -1.57531,-1.343845 -2.258223,-1.903186 -2.354266,-1.931962 -0.199145,-0.05967 -0.470125,0.07466 -0.775544,0.38463 -0.286793,0.291056 -0.879161,1.073513 -1.151378,1.520922 -0.811913,1.334454 -1.298634,2.854898 -1.44299,4.50872 -0.05136,0.588393 -0.02299,1.723616 0.05781,2.312805 0.33454,2.438014 1.406552,4.6806 3.004136,6.284807 1.247957,1.253141 2.779138,2.031173 4.311372,2.190886 0.837293,0.08725 1.719512,-0.01252 2.571743,-0.291651 0.429302,-0.140584 1.257694,-0.549911 1.665472,-0.822052 2.661233,-1.776005 4.399375,-5.255962 4.399375,-8.806265 0,-2.251717 -0.696213,-4.413369 -1.962115,-6.089975 -0.351279,-0.46525 -1.025086,-1.214262 -1.151385,-1.279576 -0.04592,-0.02378 -0.0751,-0.03525 -0.109347,-0.03142 z m 3.307066,3.723119 c -0.004,0.0026 0.04756,0.177742 0.114306,0.3884 0.146874,0.46285 0.32429,1.293123 0.382121,1.787398 0.06079,0.52012 0.05125,0.505566 0.384618,0.559347 0.15559,0.02516 0.315271,0.0586 0.355727,0.07416 0.04043,0.01552 0.669474,0.576847 1.396485,1.248161 0.727004,0.671313 1.383355,1.263326 1.459334,1.314781 0.076,0.05144 0.222217,0.123978 0.325537,0.160897 0.568668,0.203195 1.262446,-0.123752 1.537263,-0.72401 0.177408,-0.387467 0.106501,-0.911818 -0.17091,-1.264498 -0.04035,-0.0513 -0.769861,-0.735249 -1.621467,-1.520941 -1.000286,-0.92286 -1.612598,-1.461902 -1.729579,-1.522178 -0.137331,-0.07076 -0.452193,-0.14373 -1.303464,-0.300412 -0.617463,-0.113648 -1.126019,-0.203886 -1.130016,-0.201114 z m -16.272615,0.03264 c -0.109601,0.0076 -0.546705,0.07625 -1.057102,0.167169 -0.849106,0.151282 -1.103109,0.210594 -1.277074,0.295396 -0.172581,0.08413 -0.545012,0.409453 -1.810023,1.581255 -1.858982,1.722015 -1.811579,1.662814 -1.811278,2.253732 1.54e-4,0.304902 0.01121,0.36564 0.0993,0.532951 0.19021,0.36146 0.46174,0.588231 0.820795,0.685043 0.09103,0.02451 0.233882,0.04516 0.316756,0.0465 0.206014,0.0034 0.566048,-0.113804 0.729036,-0.237569 0.113598,-0.08627 2.176943,-1.973578 2.634591,-2.409595 0.133134,-0.126844 0.178424,-0.144222 0.488958,-0.198602 0.188207,-0.03293 0.347024,-0.06462 0.353207,-0.06914 0.0062,-0.0045 0.03484,-0.19235 0.0641,-0.418565 0.09063,-0.700791 0.206715,-1.24811 0.40097,-1.887956 0.05296,-0.174429 0.08659,-0.326945 0.07415,-0.339377 -0.0016,-0.0016 -0.01074,-0.0023 -0.02641,-0.0014 z m -0.418566,5.345851 -0.649849,0.546779 c -0.825056,0.693613 -0.964932,0.831538 -1.077215,1.060874 -0.328857,0.671678 -1.84269,4.037014 -1.876643,4.171849 -0.05442,0.216188 -0.023,0.571395 0.07038,0.785606 0.135195,0.310182 0.451922,0.596117 0.778059,0.702641 0.09187,0.03001 0.265181,0.04428 0.441194,0.03766 0.247654,-0.0094 0.322196,-0.02784 0.517867,-0.132026 0.395938,-0.211047 0.418922,-0.250923 1.36506,-2.32663 0.741444,-1.626613 0.883657,-1.911036 1.003059,-2.019906 l 0.13827,-0.126962 -0.177232,-0.52541 c -0.203391,-0.600976 -0.343151,-1.13672 -0.455022,-1.74836 z m 17.172599,0.0076 c -0.0046,0.007 -0.03855,0.183534 -0.07416,0.392172 -0.09062,0.531036 -0.273603,1.237254 -0.46884,1.811278 l -0.165977,0.487706 0.144578,0.126987 c 0.127484,0.112425 0.239073,0.335575 0.957803,1.910577 0.447578,0.980855 0.841598,1.836948 0.874848,1.901782 0.136279,0.265766 0.362616,0.470212 0.658648,0.594539 0.28549,0.119918 0.694899,0.107312 0.99048,-0.03001 0.552904,-0.257236 0.867932,-0.946604 0.68379,-1.49703 -0.07826,-0.233958 -1.871117,-4.139711 -1.963373,-4.277442 -0.07634,-0.113939 -1.616295,-1.44948 -1.637816,-1.420366 z" />
  </g>
</svg>
