<?xml version="1.0" encoding="UTF-8" standalone="no"?>
<svg
   width="64"
   height="64"
   version="1.1"
   id="svg73"
   sodipodi:docname="abcd.svg"
   inkscape:version="1.4.2 (ebf0e940d0, 2025-05-08)"
   xmlns:inkscape="http://www.inkscape.org/namespaces/inkscape"
   xmlns:sodipodi="http://sodipodi.sourceforge.net/DTD/sodipodi-0.dtd"
   xmlns="http://www.w3.org/2000/svg"
   xmlns:svg="http://www.w3.org/2000/svg"
   xmlns:rdf="http://www.w3.org/1999/02/22-rdf-syntax-ns#"
   xmlns:cc="http://creativecommons.org/ns#"
   xmlns:dc="http://purl.org/dc/elements/1.1/">
  <metadata
     id="metadata77">
    <rdf:RDF>
      <cc:Work
         rdf:about="">
        <dc:format>image/svg+xml</dc:format>
        <dc:type
           rdf:resource="http://purl.org/dc/dcmitype/StillImage" />
      </cc:Work>
    </rdf:RDF>
  </metadata>
  <sodipodi:namedview
     pagecolor="#f5f7fa"
     bordercolor="#666666"
     borderopacity="1"
     objecttolerance="10"
     gridtolerance="10"
     guidetolerance="10"
     inkscape:pageopacity="0"
     inkscape:pageshadow="2"
     inkscape:window-width="1377"
     inkscape:window-height="679"
     id="namedview75"
     showgrid="false"
     inkscape:zoom="6.2890624"
     inkscape:cx="47.622361"
     inkscape:cy="45.316771"
     inkscape:window-x="13"
     inkscape:window-y="130"
     inkscape:window-maximized="0"
     inkscape:current-layer="g877"
     inkscape:document-rotation="0"
     inkscape:pagecheckerboard="0"
     inkscape:showpageshadow="2"
     inkscape:deskcolor="#d1d1d1" />
  <defs
     id="defs29">
    <clipPath
       id="clip0_2648_607">
      <rect
         width="16"
         height="16"
         fill="#ffffff"
         id="rect1"
         x="0"
         y="0" />
    </clipPath>
  </defs>
  <circle
     cx="32.516094"
     cy="31.877844"
     r="0"
     fill="url(#b)"
     stroke-width="1.5715"
     id="circle41"
     style="fill:url(#b)" />
  <g
     aria-label="GZ"
     transform="matrix(1.2212657,0,0,0.81882264,0.4960938,-0.1661539)"
     id="text93"
     style="font-weight:bold;font-size:11.5263px;line-height:1.25;font-family:sans-serif;-inkscape-font-specification:'sans-serif Bold';fill:#f2f2f2;stroke-width:0.288159" />
  <g
     id="g877"
     transform="matrix(1.1,0,0,1.1,-3.1845928,-3.2065454)">
    <circle
       style="opacity:1;fill:#414141;stroke:#dfdfdf;stroke-width:2.27272727;stroke-dasharray:none;fill-opacity:1;stroke-opacity:1"
       id="path1"
       cx="31.985994"
       cy="32.005951"
       r="25.454546" />
    <path
       style="fill:#dfdfdf;fill-opacity:1;stroke:none;stroke-width:0.360854;stroke-dasharray:none;stroke-opacity:0.6"
       d="m 31.986043,17.687959 c -4.404407,0.0018 -8.562313,2.035318 -11.271023,5.512427 l 4.263505,7.391661 c 0.672273,-3.340817 3.603605,-5.744061 7.007518,-5.745093 H 44.356449 C 41.804434,20.421494 37.090075,17.693202 31.986043,17.687959 Z M 19.61205,24.864853 c -1.256027,2.170279 -1.92056,4.632828 -1.927065,7.141096 0.01187,7.1344 5.268055,13.171479 12.325723,14.15691 l 4.261713,-7.37376 c -0.73665,0.248891 -1.508912,0.375837 -2.286379,0.37584 -2.551378,-0.0032 -4.90773,-1.367317 -6.18342,-3.579494 h -0.0108 z m 17.091555,1.771848 c 1.543633,1.356803 2.42991,3.312708 2.43296,5.369248 -0.0017,1.25717 -0.334004,2.491729 -0.963531,3.579496 h 0.0068 l -6.19038,10.738494 c 7.896872,-0.002 14.297516,-6.411765 14.297517,-14.31799 -0.0035,-1.840992 -0.361629,-3.66403 -1.054708,-5.369248 z"
       id="path2-50"
       sodipodi:nodetypes="cccccccccccccccccccccc" />
    <path
       style="fill:#dfdfdf;fill-opacity:1;stroke:none;stroke-width:0.154482;stroke-dasharray:none;stroke-opacity:0.6"
       d="m 28.172687,36.376964 c -0.206342,-0.08347 -0.37988,-0.352503 -0.415552,-0.644222 -0.01859,-0.151893 -0.02621,-1.173925 -0.01697,-2.271183 0.01534,-1.821473 0.02506,-2.007178 0.111748,-2.134867 0.141134,-0.207873 0.395928,-0.306399 0.792367,-0.306399 h 0.346441 l 6.5e-4,-1.063132 c 8.02e-4,-1.422801 0.110567,-1.816622 0.664987,-2.386534 0.510108,-0.52436 1.313823,-0.80104 2.326912,-0.80104 0.949618,0 1.686475,0.23251 2.180751,0.688119 0.345328,0.318311 0.524178,0.598796 0.68601,1.07584 0.127839,0.376842 0.142398,0.503721 0.166371,1.449865 l 0.02628,1.036882 0.347189,1.97e-4 c 0.25556,1.44e-4 0.393047,0.02815 0.520971,0.10615 0.319128,0.194566 0.324967,0.241321 0.324967,2.600924 0,2.361252 -0.0048,2.398692 -0.337051,2.601268 -0.154333,0.09412 -0.331615,0.09846 -3.889227,0.09548 -2.050145,-0.0017 -3.776708,-0.02304 -3.836814,-0.04734 z m 5.648074,-6.299709 c 0,-0.823603 -0.01368,-0.97964 -0.108136,-1.232056 -0.132458,-0.354022 -0.464393,-0.665476 -0.85417,-0.801467 -0.327427,-0.114239 -1.30664,-0.131129 -1.644725,-0.02839 -0.393876,0.119715 -0.70868,0.375387 -0.883065,0.717187 -0.157486,0.30868 -0.158811,0.318473 -0.175898,1.299384 l -0.01721,0.98836 h 1.841605 1.841604 z"
       id="path53" />
    <g
       id="g2"
       style="fill:#dfdfdf;fill-opacity:1;stroke:none;stroke-opacity:0.6"
       transform="translate(-1.8181818e-7,1.7274047)" />
  </g>
</svg>
