<?xml version="1.0" encoding="UTF-8" standalone="no"?>
<svg
   width="64"
   height="64"
   version="1.1"
   id="svg73"
   sodipodi:docname="accessories-text-editor.svg"
   inkscape:version="1.4.2 (ebf0e940d0, 2025-05-08)"
   xmlns:inkscape="http://www.inkscape.org/namespaces/inkscape"
   xmlns:sodipodi="http://sodipodi.sourceforge.net/DTD/sodipodi-0.dtd"
   xmlns="http://www.w3.org/2000/svg"
   xmlns:svg="http://www.w3.org/2000/svg"
   xmlns:rdf="http://www.w3.org/1999/02/22-rdf-syntax-ns#"
   xmlns:cc="http://creativecommons.org/ns#"
   xmlns:dc="http://purl.org/dc/elements/1.1/">
  <metadata
     id="metadata77">
    <rdf:RDF>
      <cc:Work
         rdf:about="">
        <dc:format>image/svg+xml</dc:format>
        <dc:type
           rdf:resource="http://purl.org/dc/dcmitype/StillImage" />
      </cc:Work>
    </rdf:RDF>
  </metadata>
  <sodipodi:namedview
     pagecolor="#f5f7fa"
     bordercolor="#666666"
     borderopacity="1"
     objecttolerance="10"
     gridtolerance="10"
     guidetolerance="10"
     inkscape:pageopacity="0"
     inkscape:pageshadow="2"
     inkscape:window-width="1377"
     inkscape:window-height="678"
     id="namedview75"
     showgrid="false"
     inkscape:zoom="6.2890624"
     inkscape:cx="47.622361"
     inkscape:cy="35.855901"
     inkscape:window-x="21"
     inkscape:window-y="79"
     inkscape:window-maximized="0"
     inkscape:current-layer="g877"
     inkscape:document-rotation="0"
     inkscape:pagecheckerboard="0"
     inkscape:showpageshadow="2"
     inkscape:deskcolor="#d1d1d1" />
  <defs
     id="defs29" />
  <circle
     cx="32.516094"
     cy="31.877844"
     r="0"
     fill="url(#b)"
     stroke-width="1.5715"
     id="circle41"
     style="fill:url(#b)" />
  <g
     aria-label="GZ"
     transform="matrix(1.2212657,0,0,0.81882264,0.4960938,-0.1661539)"
     id="text93"
     style="font-weight:bold;font-size:11.5263px;line-height:1.25;font-family:sans-serif;-inkscape-font-specification:'sans-serif Bold';fill:#f2f2f2;stroke-width:0.288159" />
  <g
     id="g877"
     transform="matrix(1.1,0,0,1.1,-3.1845928,-3.2065454)">
    <circle
       style="opacity:1;fill:#414141;stroke:#dfdfdf;stroke-width:2.27272727;stroke-dasharray:none;fill-opacity:1;stroke-opacity:1"
       id="path1"
       cx="31.985994"
       cy="32.005951"
       r="25.454546" />
    <path
       id="path1-2"
       style="fill:#dfdfdf;fill-opacity:1;stroke:none;stroke-width:0.413556;stroke-dasharray:none;stroke-dashoffset:2.2;stroke-opacity:0.6"
       d="m 31.935743,18.804017 c -0.713669,0.0071 -1.416474,0.206101 -1.721531,0.593919 -0.105221,0.133769 -0.509552,1.202363 -0.900079,2.374006 l -0.711033,2.12975 0.393158,0.34966 c 0.41545,0.368539 1.078746,0.649518 1.867082,0.79301 0.754364,0.137304 2.287141,0.03587 2.979642,-0.197417 0.752968,-0.253657 1.367446,-0.650909 1.437118,-0.92852 0.06935,-0.27631 -1.29536,-4.268168 -1.557574,-4.555622 -0.347857,-0.381333 -1.07311,-0.565871 -1.786783,-0.558786 z m -4.654324,9.07945 -0.588903,1.703129 c -1.07713,3.110727 -1.053982,2.948119 -0.501902,3.576907 0.861557,0.98126 2.511604,1.618142 4.689459,1.8102 2.726582,0.240449 5.543213,-0.437171 6.725525,-1.61948 0.69363,-0.693626 0.693746,-0.700742 -0.06356,-2.988003 -0.369136,-1.114833 -0.710045,-2.129418 -0.756207,-2.25355 -0.0832,-0.223746 -0.08681,-0.222946 -0.389819,0.122131 -0.392684,0.447253 -1.509685,0.992384 -2.450956,1.196206 -1.101582,0.238531 -2.970912,0.216311 -4.070442,-0.04852 -1.032523,-0.248698 -1.936927,-0.702816 -2.318802,-1.166095 z m -2.387393,6.546505 c 0,-0.01265 -1.228731,0.503764 -2.730358,1.147687 -2.359494,1.011792 -2.781354,1.226001 -3.110139,1.574301 -0.335826,0.355773 -0.373324,0.443728 -0.322887,0.754531 0.03387,0.20862 0.186861,0.487017 0.376425,0.682595 0.185631,0.191552 2.448451,1.541608 5.390455,3.217205 5.937642,3.381743 5.370873,3.076416 6.024526,3.252343 0.841247,0.226417 2.363618,0.190534 3.138574,-0.07355 0.372597,-0.126988 2.886459,-1.499521 5.889018,-3.21554 5.464281,-3.122927 5.709999,-3.291121 5.709999,-3.914854 0,-0.353144 -0.257892,-0.769877 -0.612326,-0.988755 -0.287955,-0.177773 -5.5862,-2.488111 -5.5862,-2.435903 0,0.01174 0.130694,0.405435 0.289439,0.874988 0.224174,0.663266 0.269183,0.919899 0.202461,1.152703 -0.548115,1.911144 -3.967159,3.169541 -8.201128,3.01811 -3.261322,-0.116654 -5.896447,-1.093379 -6.713811,-2.487798 -0.299342,-0.510682 -0.297279,-0.908309 0.01,-1.811868 0.135285,-0.397745 0.245934,-0.733478 0.245934,-0.746165 z" />
  </g>
</svg>
