<?xml version="1.0" encoding="UTF-8" standalone="no"?>
<svg
   width="64"
   height="64"
   version="1.1"
   id="svg73"
   sodipodi:docname="com.warlordsoftwares.formatlab.svg"
   inkscape:version="1.4.2 (ebf0e940d0, 2025-05-08)"
   xmlns:inkscape="http://www.inkscape.org/namespaces/inkscape"
   xmlns:sodipodi="http://sodipodi.sourceforge.net/DTD/sodipodi-0.dtd"
   xmlns="http://www.w3.org/2000/svg"
   xmlns:svg="http://www.w3.org/2000/svg"
   xmlns:rdf="http://www.w3.org/1999/02/22-rdf-syntax-ns#"
   xmlns:cc="http://creativecommons.org/ns#"
   xmlns:dc="http://purl.org/dc/elements/1.1/">
  <metadata
     id="metadata77">
    <rdf:RDF>
      <cc:Work
         rdf:about="">
        <dc:format>image/svg+xml</dc:format>
        <dc:type
           rdf:resource="http://purl.org/dc/dcmitype/StillImage" />
      </cc:Work>
    </rdf:RDF>
  </metadata>
  <sodipodi:namedview
     pagecolor="#f5f7fa"
     bordercolor="#666666"
     borderopacity="1"
     objecttolerance="10"
     gridtolerance="10"
     guidetolerance="10"
     inkscape:pageopacity="0"
     inkscape:pageshadow="2"
     inkscape:window-width="1377"
     inkscape:window-height="886"
     id="namedview75"
     showgrid="false"
     inkscape:zoom="6.2890625"
     inkscape:cx="48.099379"
     inkscape:cy="45.396273"
     inkscape:window-x="0"
     inkscape:window-y="47"
     inkscape:window-maximized="0"
     inkscape:current-layer="g877"
     inkscape:document-rotation="0"
     inkscape:pagecheckerboard="0"
     inkscape:showpageshadow="2"
     inkscape:deskcolor="#d1d1d1" />
  <defs
     id="defs29" />
  <circle
     cx="32.516094"
     cy="31.877844"
     r="0"
     fill="url(#b)"
     stroke-width="1.5715"
     id="circle41"
     style="fill:url(#b)" />
  <g
     aria-label="GZ"
     transform="matrix(1.2212657,0,0,0.81882264,0.4960938,-0.1661539)"
     id="text93"
     style="font-weight:bold;font-size:11.5263px;line-height:1.25;font-family:sans-serif;-inkscape-font-specification:'sans-serif Bold';fill:#f2f2f2;stroke-width:0.288159" />
  <g
     id="g877"
     transform="matrix(1.1,0,0,1.1,-3.1845928,-3.2065454)">
    <circle
       style="opacity:1;fill:#414141;stroke:#dfdfdf;stroke-width:2.27272727;stroke-dasharray:none;fill-opacity:1;stroke-opacity:1"
       id="path1"
       cx="31.985994"
       cy="32.005951"
       r="25.454546" />
    <path
       style="fill:#dfdfdf;fill-opacity:1;stroke:none;stroke-width:0.443052;stroke-dasharray:none;stroke-dashoffset:2.2;stroke-opacity:0.6"
       d="m 37.604752,45.481459 c -0.214384,-0.136289 -2.796687,-2.546552 -5.738447,-5.356148 -2.941762,-2.809592 -5.408215,-5.102919 -5.481003,-5.096286 -0.0728,0.0065 -1.208967,0.821218 -2.524842,1.810193 -1.315874,0.988969 -2.525373,1.844449 -2.687773,1.901059 -0.443539,0.154622 -0.778033,-0.02276 -1.790645,-0.949505 -0.982585,-0.899268 -1.198673,-1.285337 -1.014352,-1.812263 0.0711,-0.203296 0.897674,-1.022148 2.313762,-2.292201 1.211722,-1.086759 2.203129,-2.011337 2.203129,-2.054618 0,-0.04329 -1.012734,-1.054918 -2.250519,-2.248083 -2.396688,-2.310292 -2.536297,-2.505467 -2.224034,-3.109317 0.08994,-0.173887 0.575204,-0.68994 1.078408,-1.14678 1.442396,-1.309508 1.199219,-1.373953 4.401446,1.166472 l 2.657515,2.108289 5.377737,-4.844928 c 2.957756,-2.664708 5.547617,-4.945156 5.755244,-5.06766 0.620087,-0.365859 1.017463,-0.243052 4.161561,1.286145 3.283537,1.597012 3.347807,1.634169 3.631653,2.099703 0.203626,0.333975 0.209596,0.619328 0.20996,10.108651 4.35e-4,10.520109 0.02557,10.048457 -0.553987,10.575139 -0.138685,0.126171 -1.583047,0.870887 -3.209655,1.654972 -3.290132,1.585976 -3.648252,1.691137 -4.315154,1.267166 z m 1.278641,-16.686227 -0.0283,-3.172119 -3.87159,2.899824 c -2.129375,1.594902 -3.963777,2.961244 -4.076452,3.036316 -0.185911,0.123872 0.172235,0.43662 3.871591,3.3809 l 4.076451,3.2444 0.02893,-3.108599 c 0.01583,-1.709731 0.01583,-4.536056 0,-6.280722 z"
       id="path72" />
    <circle
       style="fill:#414141;fill-opacity:1;stroke:#dfdfdf;stroke-width:1.08705;stroke-dasharray:none;stroke-opacity:1"
       id="path1-6"
       cx="48.320271"
       cy="48.287033"
       r="12.17483" />
    <path
       d="m 46.591149,55.546224 h 3.245996 v -9.193861 h -3.245996 z m 1.632382,-10.450983 c 1.107017,0 1.857539,-0.750521 1.857539,-1.857537 0,-1.125778 -0.750522,-1.876299 -1.857539,-1.876299 -1.107017,0 -1.857538,0.750521 -1.857538,1.876299 0,1.107016 0.750521,1.857537 1.857538,1.857537 z"
       id="text1"
       style="font-weight:800;font-size:5.64433px;font-family:Cantarell;-inkscape-font-specification:'Cantarell Ultra-Bold';letter-spacing:0.264578px;fill:#dfdfdf;fill-opacity:1;stroke:none;stroke-width:0.40592;stroke-miterlimit:4;stroke-dasharray:none;stroke-dashoffset:2.2;stroke-opacity:0.6"
       aria-label="i" />
  </g>
</svg>
