<?xml version="1.0" encoding="UTF-8" standalone="no"?>
<svg
   width="64"
   height="64"
   version="1.1"
   id="svg73"
   sodipodi:docname="abcd.svg"
   inkscape:version="1.4.2 (ebf0e940d0, 2025-05-08)"
   xmlns:inkscape="http://www.inkscape.org/namespaces/inkscape"
   xmlns:sodipodi="http://sodipodi.sourceforge.net/DTD/sodipodi-0.dtd"
   xmlns="http://www.w3.org/2000/svg"
   xmlns:svg="http://www.w3.org/2000/svg"
   xmlns:rdf="http://www.w3.org/1999/02/22-rdf-syntax-ns#"
   xmlns:cc="http://creativecommons.org/ns#"
   xmlns:dc="http://purl.org/dc/elements/1.1/">
  <metadata
     id="metadata77">
    <rdf:RDF>
      <cc:Work
         rdf:about="">
        <dc:format>image/svg+xml</dc:format>
        <dc:type
           rdf:resource="http://purl.org/dc/dcmitype/StillImage" />
      </cc:Work>
    </rdf:RDF>
  </metadata>
  <sodipodi:namedview
     pagecolor="#f5f7fa"
     bordercolor="#666666"
     borderopacity="1"
     objecttolerance="10"
     gridtolerance="10"
     guidetolerance="10"
     inkscape:pageopacity="0"
     inkscape:pageshadow="2"
     inkscape:window-width="1377"
     inkscape:window-height="678"
     id="namedview75"
     showgrid="false"
     inkscape:zoom="4.4470387"
     inkscape:cx="47.559739"
     inkscape:cy="37.440646"
     inkscape:window-x="18"
     inkscape:window-y="126"
     inkscape:window-maximized="0"
     inkscape:current-layer="g877"
     inkscape:document-rotation="0"
     inkscape:pagecheckerboard="0"
     inkscape:showpageshadow="2"
     inkscape:deskcolor="#d1d1d1" />
  <defs
     id="defs29" />
  <circle
     cx="32.516094"
     cy="31.877844"
     r="0"
     fill="url(#b)"
     stroke-width="1.5715"
     id="circle41"
     style="fill:url(#b)" />
  <g
     aria-label="GZ"
     transform="matrix(1.2212657,0,0,0.81882264,0.4960938,-0.1661539)"
     id="text93"
     style="font-weight:bold;font-size:11.5263px;line-height:1.25;font-family:sans-serif;-inkscape-font-specification:'sans-serif Bold';fill:#f2f2f2;stroke-width:0.288159" />
  <g
     id="g877"
     transform="matrix(1.1,0,0,1.1,-3.1845928,-3.2065454)">
    <circle
       style="opacity:1;fill:#414141;stroke:#dfdfdf;stroke-width:2.27272727;stroke-dasharray:none;fill-opacity:1;stroke-opacity:1"
       id="path1"
       cx="31.985994"
       cy="32.005951"
       r="25.454546" />
    <path
       id="path2"
       style="fill:#dfdfdf;fill-opacity:1;stroke:none;stroke-width:0.42525;stroke-dasharray:none;stroke-opacity:0.6"
       d="m 40.553674,19.050636 c -0.05719,0.0038 -0.09959,0.02169 -0.121248,0.05481 -0.06493,0.09917 -0.491297,0.750565 -0.948502,1.446848 l -0.832236,1.265783 -0.931898,-0.471761 c -0.512298,-0.259596 -1.015983,-0.471763 -1.119614,-0.471763 -0.103626,0 -0.448447,0.37764 -0.765782,0.838872 l -0.576413,0.837212 -2.445188,-0.098 c -2.926789,-0.118706 -4.76486,0.255549 -7.2442,1.475086 -5.829489,2.867407 -8.118474,9.557693 -5.0731,14.830595 1.703291,2.949161 5.363742,5.415245 8.921944,6.009977 3.71586,0.621081 7.763406,-0.272272 10.682745,-2.355485 5.373618,-3.834528 6.299441,-10.779275 2.079743,-15.603018 l -0.893696,-1.019936 0.523262,-0.93854 c 0.287818,-0.51551 0.472977,-1.019876 0.410294,-1.121264 -0.06266,-0.101388 -0.473717,-0.364578 -0.913622,-0.58638 -0.439912,-0.221801 -0.834509,-0.435023 -0.877076,-0.473423 l -0.0017,-0.0017 -0.0017,-0.0017 v -0.0017 -0.0017 -0.0017 c -0.0038,-0.08986 0.357631,-0.712352 0.833885,-1.428575 0.973847,-1.464527 0.978941,-1.395714 -0.157806,-2.009971 -0.222768,-0.120382 -0.42236,-0.181117 -0.548175,-0.172759 z m -9.956833,6.031574 c 0.321907,0.0055 0.724431,0.0256 1.25914,0.05316 3.172279,0.163634 6.639411,1.270173 7.717623,2.461798 0.278818,0.308145 0.624836,1.374365 1.101326,3.395357 0.684687,2.903939 0.690149,2.956716 0.358808,3.621269 -0.244131,0.48968 -0.651693,0.834624 -1.485053,1.260799 l -1.146181,0.58638 -3.538211,0.03821 c -1.945977,0.02131 -3.781484,-0.0365 -4.078081,-0.129573 -0.296597,-0.09307 -0.988268,-0.515546 -1.536548,-0.938541 -0.548281,-0.422994 -1.629548,-1.027168 -2.40366,-1.342194 -1.934274,-0.787159 -3.080899,-1.951079 -3.069774,-3.116285 0.01401,-1.467599 2.423342,-4.22058 4.657818,-5.320608 0.951683,-0.468514 1.197078,-0.586439 2.162793,-0.569769 z m 5.310642,3.995024 c -0.716243,-0.01387 -1.277091,0.454393 -1.727577,1.42193 -0.58645,1.259548 -0.580441,1.68132 0.03155,2.408642 0.408517,0.485495 0.634097,0.588207 1.290702,0.584719 1.189117,-0.0064 1.897786,-0.720853 2.245848,-2.264125 0.193829,-0.859407 -0.06034,-1.47081 -0.762458,-1.83389 -0.393993,-0.203741 -0.752509,-0.310972 -1.078074,-0.317276 z m -6.049845,0.02326 c -0.944996,-0.0039 -1.49668,0.678196 -1.49668,1.852147 0,0.466077 0.08879,1.01415 0.197674,1.217611 0.295933,0.552969 1.705943,0.515444 2.234224,-0.05979 0.515557,-0.561377 0.697835,-1.467689 0.433556,-2.162795 -0.267035,-0.702357 -0.495039,-0.843521 -1.368774,-0.847178 z m -3.491701,5.468447 c 0.697088,0.02218 1.342377,0.34872 1.705983,0.903656 0.256369,0.39127 0.27641,0.614393 0.111297,1.227575 -0.247744,0.920048 -1.533968,2.944619 -2.139541,3.368779 -1.590015,1.11369 -4.075108,-1.307439 -3.159474,-3.078078 0.448825,-0.867933 1.922813,-2.110864 2.775753,-2.340538 0.23541,-0.0634 0.473619,-0.08879 0.705982,-0.0814 z m 4.461804,2.810635 c 0.542975,0.0055 1.028911,0.226538 1.297343,0.636215 0.401226,0.612349 0.58646,3.272472 0.269102,3.865457 -0.185654,0.3469 -0.380722,0.409017 -1.219272,0.390363 -1.166961,-0.02601 -1.541869,-0.10418 -2.383726,-0.49668 -0.556238,-0.259356 -0.621262,-0.37429 -0.621262,-1.091361 0,-1.176282 0.804618,-2.672256 1.652826,-3.074759 0.333537,-0.158272 0.6792,-0.232558 1.004985,-0.229226 z m 4.799011,0.0067 c 0.660112,-0.01198 1.089735,0.325333 1.619604,1.156148 1.110262,1.740857 1.019936,2.150924 -0.566444,2.584724 -0.980028,0.267977 -2.711537,0.271836 -2.875422,0.0067 -0.06943,-0.112303 -0.17247,-0.701323 -0.227575,-1.308969 -0.125605,-1.385192 0.236452,-2.029058 1.300666,-2.31562 0.283404,-0.07629 0.529135,-0.11894 0.749171,-0.122913 z" />
  </g>
</svg>
