<?xml version="1.0" encoding="UTF-8" standalone="no"?>
<svg
   width="64"
   height="64"
   version="1.1"
   id="svg73"
   sodipodi:docname="abcd.svg"
   inkscape:version="1.4.2 (ebf0e940d0, 2025-05-08)"
   xmlns:inkscape="http://www.inkscape.org/namespaces/inkscape"
   xmlns:sodipodi="http://sodipodi.sourceforge.net/DTD/sodipodi-0.dtd"
   xmlns="http://www.w3.org/2000/svg"
   xmlns:svg="http://www.w3.org/2000/svg"
   xmlns:rdf="http://www.w3.org/1999/02/22-rdf-syntax-ns#"
   xmlns:cc="http://creativecommons.org/ns#"
   xmlns:dc="http://purl.org/dc/elements/1.1/">
  <metadata
     id="metadata77">
    <rdf:RDF>
      <cc:Work
         rdf:about="">
        <dc:format>image/svg+xml</dc:format>
        <dc:type
           rdf:resource="http://purl.org/dc/dcmitype/StillImage" />
      </cc:Work>
    </rdf:RDF>
  </metadata>
  <sodipodi:namedview
     pagecolor="#f5f7fa"
     bordercolor="#666666"
     borderopacity="1"
     objecttolerance="10"
     gridtolerance="10"
     guidetolerance="10"
     inkscape:pageopacity="0"
     inkscape:pageshadow="2"
     inkscape:window-width="1377"
     inkscape:window-height="726"
     id="namedview75"
     showgrid="false"
     inkscape:zoom="6.2890624"
     inkscape:cx="47.622361"
     inkscape:cy="45.396274"
     inkscape:window-x="22"
     inkscape:window-y="80"
     inkscape:window-maximized="0"
     inkscape:current-layer="g877"
     inkscape:document-rotation="0"
     inkscape:pagecheckerboard="0"
     inkscape:showpageshadow="2"
     inkscape:deskcolor="#d1d1d1" />
  <defs
     id="defs29" />
  <circle
     cx="32.516094"
     cy="31.877844"
     r="0"
     fill="url(#b)"
     stroke-width="1.5715"
     id="circle41"
     style="fill:url(#b)" />
  <g
     aria-label="GZ"
     transform="matrix(1.2212657,0,0,0.81882264,0.4960938,-0.1661539)"
     id="text93"
     style="font-weight:bold;font-size:11.5263px;line-height:1.25;font-family:sans-serif;-inkscape-font-specification:'sans-serif Bold';fill:#f2f2f2;stroke-width:0.288159" />
  <g
     id="g877"
     transform="matrix(1.1,0,0,1.1,-3.1845928,-3.2065454)">
    <circle
       style="opacity:1;fill:#414141;stroke:#dfdfdf;stroke-width:2.27272727;stroke-dasharray:none;fill-opacity:1;stroke-opacity:1"
       id="path1"
       cx="31.985994"
       cy="32.005951"
       r="25.454546" />
    <path
       style="fill:#dfdfdf;fill-opacity:1;stroke-width:0.0204116;stroke-opacity:0.5"
       d="m 19.630347,45.66868 c -0.291764,-0.05392 -0.373826,-0.111018 -0.345415,-0.240366 0.01316,-0.05989 0.188719,-0.439573 0.390139,-0.843722 0.61873,-1.241476 0.793527,-2.040348 0.794963,-3.633245 6.27e-4,-0.753636 -0.0098,-0.894513 -0.08643,-1.16522 -0.137577,-0.485846 -0.365531,-1.070555 -0.674117,-1.729143 -0.917114,-1.957303 -1.343613,-3.670895 -1.408242,-5.658049 -0.121864,-3.74701 1.325376,-7.381013 4.007733,-10.06337 2.682369,-2.682371 6.318296,-4.130252 10.063369,-4.007391 0.873703,0.02866 1.262747,0.06916 2.081971,0.216719 2.720035,0.489928 5.220325,1.805233 7.205763,3.790672 4.046967,4.046967 5.149084,10.102221 2.792135,15.340567 -0.722455,1.605665 -1.926276,3.259515 -3.232975,4.441573 -2.150111,1.945017 -4.673236,3.104795 -7.601794,3.494234 -0.735569,0.09781 -2.480905,0.09741 -3.225014,-6.63e-4 -0.894887,-0.118054 -1.767303,-0.314302 -3.020899,-0.679555 -0.377169,-0.109893 -0.960786,-0.203867 -1.265511,-0.203771 -0.400529,1.25e-4 -0.992467,0.106848 -2.140684,0.385946 -1.188203,0.288819 -1.728891,0.396521 -2.472314,0.492466 -0.592917,0.07652 -1.603103,0.11036 -1.862682,0.06239 z m 16.579366,-7.312378 c 0.984386,-0.159493 1.971548,-0.804277 2.3181,-1.514116 0.246057,-0.503993 0.389334,-1.277902 0.298571,-1.612735 -0.09441,-0.348295 -0.584692,-0.675847 -2.024739,-1.352704 -0.73057,-0.343386 -1.04803,-0.457237 -1.274949,-0.457237 -0.266294,0 -0.399906,0.116083 -1.068025,0.92791 -0.405312,0.492495 -0.671166,0.745832 -0.782688,0.745832 -0.0383,0 -0.214112,-0.04842 -0.390675,-0.107598 -1.405419,-0.471047 -2.682934,-1.376485 -3.527473,-2.500097 -0.331543,-0.441096 -0.694996,-1.112264 -0.780394,-1.441102 -0.04847,-0.186573 -0.04624,-0.196083 0.09503,-0.408228 0.07955,-0.119465 0.260102,-0.354985 0.401221,-0.523379 0.502933,-0.600141 0.579321,-0.80468 0.474267,-1.269878 -0.08238,-0.364793 -0.490805,-1.410489 -0.803491,-2.057195 -0.307306,-0.635577 -0.483146,-0.86217 -0.79143,-1.019848 -0.236452,-0.120941 -0.252117,-0.123195 -0.856117,-0.123195 -0.578855,0 -0.628543,0.0063 -0.839786,0.106662 -0.123489,0.05867 -0.296045,0.178073 -0.383456,0.265351 -0.4498,0.449109 -0.924706,1.258313 -1.063443,1.812016 -0.03658,0.145941 -0.07746,0.485793 -0.09089,0.755225 -0.04432,0.889717 0.105008,1.573036 0.535267,2.449378 0.653329,1.330686 2.155232,3.283866 3.366842,4.378473 1.271866,1.149047 2.673481,1.957581 4.391882,2.533495 1.190134,0.398867 2.075979,0.52969 2.796374,0.41297 z"
       id="path5" />
  </g>
</svg>
