<?xml version="1.0" encoding="UTF-8" standalone="no"?>
<svg
   width="64"
   height="64"
   version="1.1"
   id="svg73"
   sodipodi:docname="abcd.svg"
   inkscape:version="1.4.2 (ebf0e940d0, 2025-05-08)"
   xmlns:inkscape="http://www.inkscape.org/namespaces/inkscape"
   xmlns:sodipodi="http://sodipodi.sourceforge.net/DTD/sodipodi-0.dtd"
   xmlns="http://www.w3.org/2000/svg"
   xmlns:svg="http://www.w3.org/2000/svg"
   xmlns:rdf="http://www.w3.org/1999/02/22-rdf-syntax-ns#"
   xmlns:cc="http://creativecommons.org/ns#"
   xmlns:dc="http://purl.org/dc/elements/1.1/">
  <metadata
     id="metadata77">
    <rdf:RDF>
      <cc:Work
         rdf:about="">
        <dc:format>image/svg+xml</dc:format>
        <dc:type
           rdf:resource="http://purl.org/dc/dcmitype/StillImage" />
      </cc:Work>
    </rdf:RDF>
  </metadata>
  <sodipodi:namedview
     pagecolor="#f5f7fa"
     bordercolor="#666666"
     borderopacity="1"
     objecttolerance="10"
     gridtolerance="10"
     guidetolerance="10"
     inkscape:pageopacity="0"
     inkscape:pageshadow="2"
     inkscape:window-width="1377"
     inkscape:window-height="679"
     id="namedview75"
     showgrid="false"
     inkscape:zoom="6.2890624"
     inkscape:cx="47.622361"
     inkscape:cy="45.316771"
     inkscape:window-x="13"
     inkscape:window-y="130"
     inkscape:window-maximized="0"
     inkscape:current-layer="g877"
     inkscape:document-rotation="0"
     inkscape:pagecheckerboard="0"
     inkscape:showpageshadow="2"
     inkscape:deskcolor="#d1d1d1" />
  <defs
     id="defs29">
    <clipPath
       id="clip0_2648_607">
      <rect
         width="16"
         height="16"
         fill="#ffffff"
         id="rect1"
         x="0"
         y="0" />
    </clipPath>
  </defs>
  <circle
     cx="32.516094"
     cy="31.877844"
     r="0"
     fill="url(#b)"
     stroke-width="1.5715"
     id="circle41"
     style="fill:url(#b)" />
  <g
     aria-label="GZ"
     transform="matrix(1.2212657,0,0,0.81882264,0.4960938,-0.1661539)"
     id="text93"
     style="font-weight:bold;font-size:11.5263px;line-height:1.25;font-family:sans-serif;-inkscape-font-specification:'sans-serif Bold';fill:#f2f2f2;stroke-width:0.288159" />
  <g
     id="g877"
     transform="matrix(1.1,0,0,1.1,-3.1845928,-3.2065454)">
    <circle
       style="opacity:1;fill:#414141;stroke:#dfdfdf;stroke-width:2.27272727;stroke-dasharray:none;fill-opacity:1;stroke-opacity:1"
       id="path1"
       cx="31.985994"
       cy="32.005951"
       r="25.454546" />
    <path
       style="fill:#dfdfdf;fill-opacity:1;stroke:none;stroke-width:0.45;stroke-dasharray:none;stroke-opacity:0.6"
       d="m 20.877985,45.928987 c -0.601063,-0.243149 -1.10657,-1.026823 -1.210485,-1.876584 -0.05413,-0.44246 -0.07636,-3.41958 -0.04944,-6.61584 0.04469,-5.305852 0.07299,-5.846804 0.325523,-6.218751 0.411109,-0.605523 1.153319,-0.892527 2.30812,-0.892527 h 1.009175 l 0.0018,-3.09685 c 0.0023,-4.144541 0.322073,-5.291722 1.937071,-6.951847 1.485914,-1.527435 3.827097,-2.333387 6.778171,-2.333387 2.766186,0 4.912613,0.677288 6.352414,2.00445 1.005924,0.927228 1.526904,1.744265 1.998313,3.133869 0.372387,1.097723 0.414799,1.467316 0.484626,4.223381 l 0.07657,3.020384 1.011348,5.73e-4 c 0.744434,4.2e-4 1.144925,0.08201 1.517559,0.309209 0.929604,0.566761 0.946615,0.702956 0.946615,7.576361 0,6.878201 -0.01391,6.98726 -0.981813,7.57735 -0.449561,0.274172 -0.965976,0.28682 -11.329117,0.27813 -5.971946,-0.005 -11.001339,-0.0671 -11.176422,-0.13789 z m 16.452544,-18.35072 c 0,-2.399115 -0.03986,-2.853641 -0.314993,-3.588916 -0.385844,-1.031249 -1.352751,-1.938499 -2.488155,-2.334633 -0.953777,-0.332771 -3.806171,-0.38197 -4.790996,-0.08264 -1.147338,0.348723 -2.064351,1.093481 -2.572323,2.089129 -0.458747,0.899169 -0.462607,0.927699 -0.51238,3.785038 l -0.05014,2.879039 h 5.364498 5.364492 z"
       id="path53" />
    <g
       id="g2"
       style="fill:#dfdfdf;fill-opacity:1;stroke:none;stroke-opacity:0.6"
       transform="translate(-1.8181818e-7,1.7274047)" />
  </g>
</svg>
