<?xml version="1.0" encoding="UTF-8" standalone="no"?>
<svg
   width="64"
   height="64"
   version="1.1"
   id="svg73"
   sodipodi:docname="accessories-text-editor.svg"
   inkscape:version="1.4.2 (ebf0e940d0, 2025-05-08)"
   xmlns:inkscape="http://www.inkscape.org/namespaces/inkscape"
   xmlns:sodipodi="http://sodipodi.sourceforge.net/DTD/sodipodi-0.dtd"
   xmlns="http://www.w3.org/2000/svg"
   xmlns:svg="http://www.w3.org/2000/svg"
   xmlns:rdf="http://www.w3.org/1999/02/22-rdf-syntax-ns#"
   xmlns:cc="http://creativecommons.org/ns#"
   xmlns:dc="http://purl.org/dc/elements/1.1/">
  <metadata
     id="metadata77">
    <rdf:RDF>
      <cc:Work
         rdf:about="">
        <dc:format>image/svg+xml</dc:format>
        <dc:type
           rdf:resource="http://purl.org/dc/dcmitype/StillImage" />
      </cc:Work>
    </rdf:RDF>
  </metadata>
  <sodipodi:namedview
     pagecolor="#f5f7fa"
     bordercolor="#666666"
     borderopacity="1"
     objecttolerance="10"
     gridtolerance="10"
     guidetolerance="10"
     inkscape:pageopacity="0"
     inkscape:pageshadow="2"
     inkscape:window-width="1377"
     inkscape:window-height="886"
     id="namedview75"
     showgrid="false"
     inkscape:zoom="6.2890624"
     inkscape:cx="47.622361"
     inkscape:cy="45.396274"
     inkscape:window-x="324"
     inkscape:window-y="75"
     inkscape:window-maximized="0"
     inkscape:current-layer="g877"
     inkscape:document-rotation="0"
     inkscape:pagecheckerboard="0"
     inkscape:showpageshadow="2"
     inkscape:deskcolor="#d1d1d1" />
  <defs
     id="defs29" />
  <circle
     cx="32.516094"
     cy="31.877844"
     r="0"
     fill="url(#b)"
     stroke-width="1.5715"
     id="circle41"
     style="fill:url(#b)" />
  <g
     aria-label="GZ"
     transform="matrix(1.2212657,0,0,0.81882264,0.4960938,-0.1661539)"
     id="text93"
     style="font-weight:bold;font-size:11.5263px;line-height:1.25;font-family:sans-serif;-inkscape-font-specification:'sans-serif Bold';fill:#f2f2f2;stroke-width:0.288159" />
  <g
     id="g877"
     transform="matrix(1.1,0,0,1.1,-3.1845928,-3.2065454)">
    <circle
       style="opacity:1;fill:#414141;stroke:#dfdfdf;stroke-width:2.27272727;stroke-dasharray:none;fill-opacity:1;stroke-opacity:1"
       id="path1"
       cx="31.985994"
       cy="32.005951"
       r="25.454546" />
    <path
       d="m 19.325616,18.406747 v 0.0068 5.43961 5.439608 5.439609 1.801784 3.637834 0.897464 0.904313 a 3.3786516,3.6309749 0 0 0 3.372279,3.624126 h -0.886099 l 0.05737,0.0069 h 2.530801 5.061604 5.061599 5.061614 5.061594 v -5.439592 h -5.061593 -5.0616 -3.21291 l 2.785794,-1.726394 4.379494,-2.719953 4.385871,-2.719804 -2.5308,-4.706568 -4.385872,2.719808 -4.37949,2.719807 -2.773049,1.719575 1.600081,-2.980141 2.530799,-4.706564 2.530803,-4.713417 -4.398621,-2.726656 -2.530804,4.713415 -2.5308,4.706565 -1.606451,2.99384 V 29.28607 23.84646 18.406848 Z m 3.372279,21.751589 c 0.446236,0 0.873356,0.191774 1.192091,0.527519 0.31874,0.335732 0.490858,0.801549 0.490858,1.281118 0,0.479556 -0.178495,0.938568 -0.490858,1.281116 -0.312369,0.342525 -0.745855,0.527519 -1.192091,0.527519 -0.446235,0 -0.873351,-0.191855 -1.192092,-0.527519 -0.31874,-0.335733 -0.490858,-0.80156 -0.490858,-1.281116 0,-0.479569 0.178494,-0.938566 0.490858,-1.281118 0.312364,-0.342492 0.745857,-0.527519 1.192092,-0.527519 z"
       fill="#bebebe"
       id="path2-3"
       style="fill:#dfdfdf;fill-opacity:1;stroke:none;stroke-width:0.491559;stroke-dasharray:none;stroke-opacity:0.6" />
  </g>
</svg>
