<?xml version="1.0" encoding="UTF-8" standalone="no"?>
<svg
   width="64"
   height="64"
   version="1.1"
   id="svg73"
   sodipodi:docname="abcd.svg"
   inkscape:version="1.4.2 (ebf0e940d0, 2025-05-08)"
   xmlns:inkscape="http://www.inkscape.org/namespaces/inkscape"
   xmlns:sodipodi="http://sodipodi.sourceforge.net/DTD/sodipodi-0.dtd"
   xmlns="http://www.w3.org/2000/svg"
   xmlns:svg="http://www.w3.org/2000/svg"
   xmlns:rdf="http://www.w3.org/1999/02/22-rdf-syntax-ns#"
   xmlns:cc="http://creativecommons.org/ns#"
   xmlns:dc="http://purl.org/dc/elements/1.1/">
  <metadata
     id="metadata77">
    <rdf:RDF>
      <cc:Work
         rdf:about="">
        <dc:format>image/svg+xml</dc:format>
        <dc:type
           rdf:resource="http://purl.org/dc/dcmitype/StillImage" />
      </cc:Work>
    </rdf:RDF>
  </metadata>
  <sodipodi:namedview
     pagecolor="#f5f7fa"
     bordercolor="#666666"
     borderopacity="1"
     objecttolerance="10"
     gridtolerance="10"
     guidetolerance="10"
     inkscape:pageopacity="0"
     inkscape:pageshadow="2"
     inkscape:window-width="1377"
     inkscape:window-height="679"
     id="namedview75"
     showgrid="false"
     inkscape:zoom="6.2890624"
     inkscape:cx="47.622361"
     inkscape:cy="45.316771"
     inkscape:window-x="13"
     inkscape:window-y="130"
     inkscape:window-maximized="0"
     inkscape:current-layer="g877"
     inkscape:document-rotation="0"
     inkscape:pagecheckerboard="0"
     inkscape:showpageshadow="2"
     inkscape:deskcolor="#d1d1d1" />
  <defs
     id="defs29">
    <clipPath
       id="clip0_2648_607">
      <rect
         width="16"
         height="16"
         fill="#ffffff"
         id="rect1"
         x="0"
         y="0" />
    </clipPath>
  </defs>
  <circle
     cx="32.516094"
     cy="31.877844"
     r="0"
     fill="url(#b)"
     stroke-width="1.5715"
     id="circle41"
     style="fill:url(#b)" />
  <g
     aria-label="GZ"
     transform="matrix(1.2212657,0,0,0.81882264,0.4960938,-0.1661539)"
     id="text93"
     style="font-weight:bold;font-size:11.5263px;line-height:1.25;font-family:sans-serif;-inkscape-font-specification:'sans-serif Bold';fill:#f2f2f2;stroke-width:0.288159" />
  <g
     id="g877"
     transform="matrix(1.1,0,0,1.1,-3.1845928,-3.2065454)">
    <circle
       style="opacity:1;fill:#414141;stroke:#dfdfdf;stroke-width:2.27272727;stroke-dasharray:none;fill-opacity:1;stroke-opacity:1"
       id="path1"
       cx="31.985994"
       cy="32.005951"
       r="25.454546" />
    <path
       id="path50"
       style="fill:#dfdfdf;fill-opacity:1;stroke:none;stroke-width:0.882806;stroke-dasharray:none;stroke-dashoffset:2.2;stroke-opacity:0.3"
       d="m 31.958891,18.247245 c -0.923528,-1.86e-4 -1.838213,0.06107 -2.425986,0.18449 -1.267295,0.26607 -2.87537,0.826939 -3.839851,1.339724 l -0.84832,0.451748 h -1.281097 c -1.136169,8.88e-4 -1.338487,0.02854 -1.788023,0.241391 -0.613359,0.290463 -1.083465,0.768569 -1.360415,1.381105 -0.17097,0.378139 -0.206778,0.668246 -0.208633,1.700089 l -0.0017,1.244889 -0.555158,1.137989 c -1.07082,2.200052 -1.416593,3.702473 -1.410415,6.107206 0.0062,2.404695 0.383783,3.991791 1.469042,6.162385 l 0.496576,0.989705 v 1.269029 c 0,0.892743 0.04398,1.375618 0.150007,1.629389 0.258103,0.617727 0.740666,1.128108 1.348342,1.42594 0.524878,0.257284 0.710996,0.289252 1.99838,0.339692 1.304923,0.05105 1.458417,0.07751 1.882856,0.327591 1.021413,0.601882 2.758811,1.193853 4.251937,1.446625 0.418271,0.07081 1.332297,0.132454 2.029414,0.137932 2.180627,0.01717 4.107077,-0.413963 6.03307,-1.350066 l 1.113845,-0.541409 1.369043,-0.0431 c 1.177041,-0.03691 1.433608,-0.07683 1.825955,-0.277616 0.621593,-0.31814 0.984349,-0.674875 1.296615,-1.275928 0.237272,-0.456691 0.26609,-0.642907 0.301709,-1.875955 l 0.03971,-1.367313 0.437947,-0.862112 c 0.935285,-1.844099 1.360698,-3.542136 1.438012,-5.729577 0.0841,-2.37875 -0.312484,-4.301482 -1.308689,-6.336529 l -0.520711,-1.065584 -0.06207,-1.369035 c -0.06875,-1.545058 -0.22403,-2.043072 -0.832817,-2.651863 -0.627672,-0.627674 -0.987049,-0.741129 -2.462198,-0.777626 l -1.319034,-0.03275 -1.115575,-0.541408 c -1.242111,-0.603789 -2.317926,-0.966064 -3.662294,-1.23282 -0.623173,-0.123629 -1.555908,-0.186029 -2.479437,-0.186215 z m -9.45393,3.334654 c 0.04777,-0.0036 0.09673,-0.0038 0.14483,0 0.230866,0.0176 0.461454,0.118338 0.651757,0.308635 0.49157,0.491564 0.399124,1.222665 -0.200006,1.588013 -0.89262,0.544319 -1.90999,-0.394697 -1.431105,-1.32076 0.182379,-0.35268 0.499997,-0.551353 0.834524,-0.575888 z m 18.952692,0 c 0.261471,0.01414 0.495735,0.14063 0.696582,0.379328 0.349929,0.415868 0.341695,0.901315 -0.02183,1.30524 -0.336468,0.37325 -0.861624,0.476557 -1.26558,0.250008 -0.351004,-0.196841 -0.484511,-0.446387 -0.484511,-0.91039 0,-0.502602 0.155436,-0.751226 0.577621,-0.927634 0.175162,-0.07319 0.34141,-0.10504 0.498297,-0.09656 z m -9.493588,0.482782 c 3.172087,-0.01048 6.401818,1.655491 8.210762,4.284702 0.49439,0.718569 1.199626,2.260816 1.441458,3.151884 0.322009,1.186395 0.322222,3.801855 0.0017,4.958873 -0.985245,3.55682 -3.454317,6.078829 -6.964147,7.112437 -1.249422,0.367929 -3.426732,0.442447 -4.715758,0.160352 -2.928559,-0.640921 -5.353096,-2.480476 -6.739998,-5.110612 -3.340423,-6.334792 0.945865,-13.992157 8.133172,-14.531774 0.21053,-0.0158 0.42132,-0.02516 0.632792,-0.0258 z m 0.0431,6.589989 c -0.06297,8.2e-4 -0.127544,0.002 -0.193108,0.0053 -1.303698,0.06295 -2.343745,0.735842 -2.903597,1.877712 -0.34128,0.696075 -0.38395,1.902339 -0.09484,2.672548 0.379647,1.011389 1.255042,1.792251 2.332878,2.082868 1.092825,0.294655 2.220112,0.01309 3.077743,-0.770732 1.504448,-1.374978 1.531667,-3.609432 0.06035,-4.99163 -0.670537,-0.629969 -1.334626,-0.887838 -2.279433,-0.87596 z m 9.490142,11.736807 c 0.186617,0.01575 0.373861,0.08545 0.541415,0.21726 0.522342,0.41088 0.438792,1.370689 -0.144804,1.672501 -0.737748,0.3815 -1.512153,-0.0611 -1.512153,-0.865566 0,-0.640326 0.55568,-1.071511 1.115576,-1.024185 z m -18.913032,0.01042 c 0.476513,0 0.827554,0.238776 0.965565,0.656926 0.147765,0.447737 0.04328,0.809574 -0.32243,1.117296 -0.839717,0.706482 -2.064915,-0.27801 -1.560423,-1.253606 0.198831,-0.384515 0.440768,-0.520719 0.917288,-0.520719 z" />
    <g
       id="g2"
       style="fill:#dfdfdf;fill-opacity:1;stroke:none;stroke-opacity:0.6"
       transform="translate(-1.8181818e-7,1.7274047)" />
  </g>
</svg>
