<?xml version="1.0" encoding="UTF-8" standalone="no"?>
<svg
   width="64"
   height="64"
   version="1.1"
   id="svg73"
   sodipodi:docname="abcd.svg"
   inkscape:version="1.4.2 (ebf0e940d0, 2025-05-08)"
   xmlns:inkscape="http://www.inkscape.org/namespaces/inkscape"
   xmlns:sodipodi="http://sodipodi.sourceforge.net/DTD/sodipodi-0.dtd"
   xmlns="http://www.w3.org/2000/svg"
   xmlns:svg="http://www.w3.org/2000/svg"
   xmlns:rdf="http://www.w3.org/1999/02/22-rdf-syntax-ns#"
   xmlns:cc="http://creativecommons.org/ns#"
   xmlns:dc="http://purl.org/dc/elements/1.1/">
  <metadata
     id="metadata77">
    <rdf:RDF>
      <cc:Work
         rdf:about="">
        <dc:format>image/svg+xml</dc:format>
        <dc:type
           rdf:resource="http://purl.org/dc/dcmitype/StillImage" />
      </cc:Work>
    </rdf:RDF>
  </metadata>
  <sodipodi:namedview
     pagecolor="#f5f7fa"
     bordercolor="#666666"
     borderopacity="1"
     objecttolerance="10"
     gridtolerance="10"
     guidetolerance="10"
     inkscape:pageopacity="0"
     inkscape:pageshadow="2"
     inkscape:window-width="1377"
     inkscape:window-height="679"
     id="namedview75"
     showgrid="false"
     inkscape:zoom="6.2890624"
     inkscape:cx="47.622361"
     inkscape:cy="45.316771"
     inkscape:window-x="13"
     inkscape:window-y="130"
     inkscape:window-maximized="0"
     inkscape:current-layer="g877"
     inkscape:document-rotation="0"
     inkscape:pagecheckerboard="0"
     inkscape:showpageshadow="2"
     inkscape:deskcolor="#d1d1d1" />
  <defs
     id="defs29">
    <clipPath
       id="clip0_2648_607">
      <rect
         width="16"
         height="16"
         fill="#ffffff"
         id="rect1"
         x="0"
         y="0" />
    </clipPath>
  </defs>
  <circle
     cx="32.516094"
     cy="31.877844"
     r="0"
     fill="url(#b)"
     stroke-width="1.5715"
     id="circle41"
     style="fill:url(#b)" />
  <g
     aria-label="GZ"
     transform="matrix(1.2212657,0,0,0.81882264,0.4960938,-0.1661539)"
     id="text93"
     style="font-weight:bold;font-size:11.5263px;line-height:1.25;font-family:sans-serif;-inkscape-font-specification:'sans-serif Bold';fill:#f2f2f2;stroke-width:0.288159" />
  <g
     id="g877"
     transform="matrix(1.1,0,0,1.1,-3.1845928,-3.2065454)">
    <circle
       style="opacity:1;fill:#414141;stroke:#dfdfdf;stroke-width:2.27272727;stroke-dasharray:none;fill-opacity:1;stroke-opacity:1"
       id="path1"
       cx="31.985994"
       cy="32.005951"
       r="25.454546" />
    <path
       id="path17"
       style="fill:#dfdfdf;fill-opacity:1;stroke:none;stroke-width:0.840768;stroke-dasharray:none;stroke-dashoffset:2.2;stroke-opacity:0.3"
       d="m 31.518151,17.93054 c -0.187553,0.02516 -0.376324,0.183302 -0.507415,0.436805 -0.125301,0.242303 -0.146149,1.091115 -0.146149,6.031506 0,3.162897 -0.03242,5.751237 -0.07225,5.750702 -0.03984,-5.33e-4 -1.560325,-1.256508 -3.377837,-2.78996 -1.817512,-1.533455 -3.37609,-2.815009 -3.464872,-2.849078 -0.08878,-0.03407 -0.266441,0.0067 -0.394108,0.09031 -0.393048,0.257533 -0.528156,0.854114 -0.303796,1.346537 0.06243,0.137019 1.638059,1.535216 3.500999,3.106891 1.862937,1.571676 3.396834,2.907482 3.409042,2.967311 0.0122,0.05981 -1.477611,1.324775 -3.312155,2.811308 -1.834548,1.486532 -3.403464,2.777342 -3.486222,2.868785 -0.247039,0.272954 -0.266425,0.944512 -0.03776,1.308766 0.373956,0.595738 0.424307,0.566911 4.062605,-2.389284 1.830333,-1.487179 3.361593,-2.70457 3.402471,-2.70457 0.04089,0 0.0739,2.561343 0.0739,5.691585 0,3.719913 0.03421,5.784861 0.100171,5.962547 0.05552,0.149535 0.173669,0.326072 0.261096,0.392463 0.08743,0.06641 0.252031,0.12151 0.366193,0.12151 0.214303,0 8.459494,-6.229627 8.95448,-6.765531 0.355294,-0.384673 0.379136,-1.164803 0.04766,-1.551812 -0.11925,-0.139204 -1.803777,-1.460655 -3.742423,-2.9361 -1.938654,-1.475452 -3.558693,-2.711733 -3.601178,-2.748913 -0.04247,-0.03718 1.554479,-1.319071 3.550265,-2.847434 1.99578,-1.528363 3.714712,-2.888205 3.819571,-3.021501 0.219052,-0.278446 0.255838,-1.006084 0.06733,-1.343256 -0.122056,-0.218316 -8.676581,-6.804492 -8.985686,-6.918249 -0.06018,-0.02216 -0.121401,-0.02973 -0.183918,-0.02131 z m 0.85062,2.852362 c 0.09899,0 6.125109,4.646413 6.125109,4.722738 0,0.04084 -1.355021,1.114349 -3.011651,2.384356 -1.656629,1.270011 -3.047463,2.322317 -3.090468,2.340022 -0.043,0.01773 -0.07881,-2.099321 -0.07881,-4.706314 0,-2.606994 0.02554,-4.740802 0.05582,-4.740802 z m 0.01643,13.038433 c 0.139793,0.0026 6.059417,4.600508 6.059417,4.706316 0,0.05881 -1.363443,1.153281 -3.031348,2.43198 -1.667902,1.278692 -3.047383,2.323601 -3.065836,2.323601 -0.01845,0 -0.0345,-2.128383 -0.0345,-4.730949 0,-2.602566 0.03243,-4.731729 0.07225,-4.730948 z" />
    <g
       id="g2"
       style="fill:#dfdfdf;fill-opacity:1;stroke:none;stroke-opacity:0.6"
       transform="translate(-1.8181818e-7,1.7274047)" />
  </g>
</svg>
