<?xml version="1.0" encoding="UTF-8" standalone="no"?>
<svg
   width="64"
   height="64"
   version="1.1"
   id="svg73"
   sodipodi:docname="abcd.svg"
   inkscape:version="1.4.2 (ebf0e940d0, 2025-05-08)"
   xmlns:inkscape="http://www.inkscape.org/namespaces/inkscape"
   xmlns:sodipodi="http://sodipodi.sourceforge.net/DTD/sodipodi-0.dtd"
   xmlns="http://www.w3.org/2000/svg"
   xmlns:svg="http://www.w3.org/2000/svg"
   xmlns:rdf="http://www.w3.org/1999/02/22-rdf-syntax-ns#"
   xmlns:cc="http://creativecommons.org/ns#"
   xmlns:dc="http://purl.org/dc/elements/1.1/">
  <metadata
     id="metadata77">
    <rdf:RDF>
      <cc:Work
         rdf:about="">
        <dc:format>image/svg+xml</dc:format>
        <dc:type
           rdf:resource="http://purl.org/dc/dcmitype/StillImage" />
      </cc:Work>
    </rdf:RDF>
  </metadata>
  <sodipodi:namedview
     pagecolor="#f5f7fa"
     bordercolor="#666666"
     borderopacity="1"
     objecttolerance="10"
     gridtolerance="10"
     guidetolerance="10"
     inkscape:pageopacity="0"
     inkscape:pageshadow="2"
     inkscape:window-width="1377"
     inkscape:window-height="679"
     id="namedview75"
     showgrid="false"
     inkscape:zoom="6.2890624"
     inkscape:cx="47.622361"
     inkscape:cy="45.316771"
     inkscape:window-x="13"
     inkscape:window-y="130"
     inkscape:window-maximized="0"
     inkscape:current-layer="g877"
     inkscape:document-rotation="0"
     inkscape:pagecheckerboard="0"
     inkscape:showpageshadow="2"
     inkscape:deskcolor="#d1d1d1" />
  <defs
     id="defs29">
    <clipPath
       id="clip0_2648_607">
      <rect
         width="16"
         height="16"
         fill="#ffffff"
         id="rect1"
         x="0"
         y="0" />
    </clipPath>
  </defs>
  <circle
     cx="32.516094"
     cy="31.877844"
     r="0"
     fill="url(#b)"
     stroke-width="1.5715"
     id="circle41"
     style="fill:url(#b)" />
  <g
     aria-label="GZ"
     transform="matrix(1.2212657,0,0,0.81882264,0.4960938,-0.1661539)"
     id="text93"
     style="font-weight:bold;font-size:11.5263px;line-height:1.25;font-family:sans-serif;-inkscape-font-specification:'sans-serif Bold';fill:#f2f2f2;stroke-width:0.288159" />
  <g
     id="g877"
     transform="matrix(1.1,0,0,1.1,-3.1845928,-3.2065454)">
    <circle
       style="opacity:1;fill:#414141;stroke:#dfdfdf;stroke-width:2.27272727;stroke-dasharray:none;fill-opacity:1;stroke-opacity:1"
       id="path1"
       cx="31.985994"
       cy="32.005951"
       r="25.454546" />
    <path
       style="color:#444444;fill:#dfdfdf;fill-opacity:1;stroke:none;stroke-width:0.838857;stroke-dasharray:none;stroke-opacity:0.3"
       class="ColorScheme-Text"
       d="m 31.977317,17.688548 -4.474191,7.1587 h 2.684514 v 8.948377 h -5.369026 v -2.275544 c 1.1055,-0.638249 1.787419,-1.816904 1.789676,-3.093479 0,-1.976879 -1.602529,-3.579354 -3.579352,-3.579354 -1.976823,0 -3.57935,1.602531 -3.57935,3.579354 9.9e-4,1.277772 0.683098,2.458063 1.789674,3.096976 v 2.272047 c 0,3.579349 3.579352,3.579349 3.579352,3.579349 h 5.369026 v 2.275548 c -1.105501,0.638254 -1.787422,1.816908 -1.789673,3.093486 0,1.976875 1.602526,3.579344 3.57935,3.579344 1.976819,0 3.57935,-1.602525 3.57935,-3.579344 -9.9e-4,-1.277783 -0.683103,-2.458067 -1.789677,-3.096984 v -2.27205 h 5.369028 c 0,0 3.579348,0 3.579348,-3.579349 V 32.00595 c 0,0 2.013386,-0.335561 1.789683,-1.789672 v -3.579351 c 0.223703,-2.013385 -1.789683,-1.789679 -1.789683,-1.789679 h -3.579348 c -1.901533,0 -1.789676,1.789679 -1.789676,1.789679 v 3.579351 c 0,1.789672 1.789676,1.789672 1.789676,1.789672 v 1.789675 H 33.76699 v -8.948377 h 2.684514 z"
       id="path5-3" />
    <g
       id="g2"
       style="fill:#dfdfdf;fill-opacity:1;stroke:none;stroke-opacity:0.6"
       transform="translate(-1.8181818e-7,1.7274047)" />
  </g>
</svg>
