<?xml version="1.0" encoding="UTF-8" standalone="no"?>
<svg
   width="64"
   height="64"
   version="1.1"
   id="svg73"
   sodipodi:docname="abcd.svg"
   inkscape:version="1.4.2 (ebf0e940d0, 2025-05-08)"
   xmlns:inkscape="http://www.inkscape.org/namespaces/inkscape"
   xmlns:sodipodi="http://sodipodi.sourceforge.net/DTD/sodipodi-0.dtd"
   xmlns="http://www.w3.org/2000/svg"
   xmlns:svg="http://www.w3.org/2000/svg"
   xmlns:rdf="http://www.w3.org/1999/02/22-rdf-syntax-ns#"
   xmlns:cc="http://creativecommons.org/ns#"
   xmlns:dc="http://purl.org/dc/elements/1.1/">
  <metadata
     id="metadata77">
    <rdf:RDF>
      <cc:Work
         rdf:about="">
        <dc:format>image/svg+xml</dc:format>
        <dc:type
           rdf:resource="http://purl.org/dc/dcmitype/StillImage" />
      </cc:Work>
    </rdf:RDF>
  </metadata>
  <sodipodi:namedview
     pagecolor="#f5f7fa"
     bordercolor="#666666"
     borderopacity="1"
     objecttolerance="10"
     gridtolerance="10"
     guidetolerance="10"
     inkscape:pageopacity="0"
     inkscape:pageshadow="2"
     inkscape:window-width="1377"
     inkscape:window-height="679"
     id="namedview75"
     showgrid="false"
     inkscape:zoom="6.2890624"
     inkscape:cx="47.622361"
     inkscape:cy="45.316771"
     inkscape:window-x="13"
     inkscape:window-y="130"
     inkscape:window-maximized="0"
     inkscape:current-layer="g877"
     inkscape:document-rotation="0"
     inkscape:pagecheckerboard="0"
     inkscape:showpageshadow="2"
     inkscape:deskcolor="#d1d1d1" />
  <defs
     id="defs29">
    <clipPath
       id="clip0_2648_607">
      <rect
         width="16"
         height="16"
         fill="#ffffff"
         id="rect1"
         x="0"
         y="0" />
    </clipPath>
  </defs>
  <circle
     cx="32.516094"
     cy="31.877844"
     r="0"
     fill="url(#b)"
     stroke-width="1.5715"
     id="circle41"
     style="fill:url(#b)" />
  <g
     aria-label="GZ"
     transform="matrix(1.2212657,0,0,0.81882264,0.4960938,-0.1661539)"
     id="text93"
     style="font-weight:bold;font-size:11.5263px;line-height:1.25;font-family:sans-serif;-inkscape-font-specification:'sans-serif Bold';fill:#f2f2f2;stroke-width:0.288159" />
  <g
     id="g877"
     transform="matrix(1.1,0,0,1.1,-3.1845928,-3.2065454)">
    <circle
       style="opacity:1;fill:#414141;stroke:#dfdfdf;stroke-width:2.27272727;stroke-dasharray:none;fill-opacity:1;stroke-opacity:1"
       id="path1"
       cx="31.985994"
       cy="32.005951"
       r="25.454546" />
    <path
       id="path53"
       style="fill:#dfdfdf;fill-opacity:1;stroke:none;stroke-width:0.92268;stroke-dasharray:none;stroke-dashoffset:2.2;stroke-opacity:0.3"
       d="m 40.305114,17.618724 -2.515923,2.517724 -2.517725,2.515918 2.488887,2.490695 c 1.369098,1.370023 2.514684,2.490687 2.544761,2.490687 0.0303,0 1.173858,-1.120664 2.542954,-2.490687 l 2.490689,-2.490695 -2.517735,-2.515918 z m -16.640042,0.0018 -2.515923,2.514119 -2.51592,2.515922 0.897514,0.90292 c 0.493475,0.496052 0.92249,0.901117 0.953383,0.901117 0.03088,0 1.175793,-1.120794 2.544754,-2.490689 l 2.488889,-2.490691 -0.926347,-0.926349 z m 3.235011,3.229607 -2.517723,2.515922 -2.517722,2.515918 0.872284,0.875888 c 0.479239,0.481751 0.895442,0.875889 0.926345,0.875889 0.03088,0 1.176229,-1.119429 2.544758,-2.48889 l 2.488888,-2.490691 -0.897514,-0.901117 z m 5.084106,3.932478 c -0.477474,0 -0.953743,0.06739 -1.472427,0.200052 -1.167476,0.298588 -2.011583,0.779781 -2.87997,1.641835 -0.85503,0.848792 -1.225601,1.427538 -1.607595,2.521326 -0.343075,0.982338 -0.383358,2.547491 -0.09191,3.523372 0.766842,2.567745 2.853147,4.338999 5.417517,4.599307 3.224307,0.3273 6.114594,-1.833082 6.794429,-5.076901 0.659194,-3.145316 -1.443797,-6.379776 -4.685811,-7.208942 -0.518683,-0.132657 -0.99676,-0.200049 -1.47423,-0.200049 z m 0,2.694342 c 0.890317,9.9e-4 1.138967,0.04077 1.551726,0.245107 0.752454,0.372497 1.288951,0.890209 1.686892,1.627419 0.338915,0.627856 0.362578,0.733202 0.364052,1.676076 0.0014,0.889567 -0.03214,1.078395 -0.29377,1.611203 -0.427495,0.87055 -1.278256,1.613078 -2.159071,1.885137 -0.858427,0.265135 -1.484924,0.263646 -2.333896,-0.0055 -0.841662,-0.266732 -1.706606,-1.031737 -2.123033,-1.879732 -0.257597,-0.524564 -0.295566,-0.727423 -0.295566,-1.557131 0,-0.80605 0.04279,-1.046042 0.275737,-1.542713 0.379753,-0.809637 0.819746,-1.275234 1.602191,-1.69951 0.632269,-0.342844 0.718774,-0.361645 1.724737,-0.360448 z m -3.550403,11.815478 v 1.272384 1.272374 h 3.550403 3.552208 V 40.564743 39.29236 h -3.552208 z m 0,4.451526 v 1.324632 1.324649 h 3.550403 3.552208 v -1.324674 -1.324644 h -3.552208 z" />
    <g
       id="g2"
       style="fill:#dfdfdf;fill-opacity:1;stroke:none;stroke-opacity:0.6"
       transform="translate(-1.8181818e-7,1.7274047)" />
  </g>
</svg>
