<?xml version="1.0" encoding="UTF-8" standalone="no"?>
<svg
   width="64"
   height="64"
   version="1.1"
   id="svg73"
   sodipodi:docname="abcd.svg"
   inkscape:version="1.4.2 (ebf0e940d0, 2025-05-08)"
   xmlns:inkscape="http://www.inkscape.org/namespaces/inkscape"
   xmlns:sodipodi="http://sodipodi.sourceforge.net/DTD/sodipodi-0.dtd"
   xmlns="http://www.w3.org/2000/svg"
   xmlns:svg="http://www.w3.org/2000/svg"
   xmlns:rdf="http://www.w3.org/1999/02/22-rdf-syntax-ns#"
   xmlns:cc="http://creativecommons.org/ns#"
   xmlns:dc="http://purl.org/dc/elements/1.1/">
  <metadata
     id="metadata77">
    <rdf:RDF>
      <cc:Work
         rdf:about="">
        <dc:format>image/svg+xml</dc:format>
        <dc:type
           rdf:resource="http://purl.org/dc/dcmitype/StillImage" />
      </cc:Work>
    </rdf:RDF>
  </metadata>
  <sodipodi:namedview
     pagecolor="#f5f7fa"
     bordercolor="#666666"
     borderopacity="1"
     objecttolerance="10"
     gridtolerance="10"
     guidetolerance="10"
     inkscape:pageopacity="0"
     inkscape:pageshadow="2"
     inkscape:window-width="1377"
     inkscape:window-height="679"
     id="namedview75"
     showgrid="false"
     inkscape:zoom="6.2890624"
     inkscape:cx="47.622361"
     inkscape:cy="45.316771"
     inkscape:window-x="13"
     inkscape:window-y="130"
     inkscape:window-maximized="0"
     inkscape:current-layer="g877"
     inkscape:document-rotation="0"
     inkscape:pagecheckerboard="0"
     inkscape:showpageshadow="2"
     inkscape:deskcolor="#d1d1d1" />
  <defs
     id="defs29">
    <clipPath
       id="clip0_2648_607">
      <rect
         width="16"
         height="16"
         fill="#ffffff"
         id="rect1"
         x="0"
         y="0" />
    </clipPath>
  </defs>
  <circle
     cx="32.516094"
     cy="31.877844"
     r="0"
     fill="url(#b)"
     stroke-width="1.5715"
     id="circle41"
     style="fill:url(#b)" />
  <g
     aria-label="GZ"
     transform="matrix(1.2212657,0,0,0.81882264,0.4960938,-0.1661539)"
     id="text93"
     style="font-weight:bold;font-size:11.5263px;line-height:1.25;font-family:sans-serif;-inkscape-font-specification:'sans-serif Bold';fill:#f2f2f2;stroke-width:0.288159" />
  <g
     id="g877"
     transform="matrix(1.1,0,0,1.1,-3.1845928,-3.2065454)">
    <circle
       style="opacity:1;fill:#414141;stroke:#dfdfdf;stroke-width:2.27272727;stroke-dasharray:none;fill-opacity:1;stroke-opacity:1"
       id="path1"
       cx="31.985994"
       cy="32.005951"
       r="25.454546" />
    <path
       style="color:#444444;fill:#dfdfdf;fill-opacity:1;stroke:none;stroke-width:0.838857;stroke-dasharray:none;stroke-opacity:0.3"
       class="ColorScheme-Text"
       d="m 21.942918,21.04987 c 0,0 -3.652026,0 -3.652026,3.652028 v 14.608103 c 0,3.652029 3.652026,3.652029 3.652026,3.652029 h 20.086144 c 0,0 3.652033,0 3.652033,-3.652029 V 24.701898 c 0,-3.652028 -3.652033,-3.652028 -3.652033,-3.652028 z m 0.456504,3.652028 h 2.739019 c 0.252906,0 0.456502,0.203606 0.456502,0.456505 v 2.73902 c 0,0.252904 -0.203604,0.456502 -0.456502,0.456502 h -2.739019 c -0.252904,0 -0.456504,-0.203607 -0.456504,-0.456502 v -2.73902 c 0,-0.252905 0.203603,-0.456505 0.456504,-0.456505 z m 5.47804,0 h 2.739018 c 0.25291,0 0.456504,0.203606 0.456504,0.456505 v 2.73902 c 0,0.252904 -0.2036,0.456502 -0.456504,0.456502 h -2.739018 c -0.252909,0 -0.456505,-0.203607 -0.456505,-0.456502 v -2.73902 c 0,-0.252905 0.203603,-0.456505 0.456505,-0.456505 z m 5.478039,0 h 2.739018 c 0.252906,0 0.456507,0.203606 0.456507,0.456505 v 2.73902 c 0,0.252904 -0.203598,0.456502 -0.456507,0.456502 h -2.739018 c -0.252904,0 -0.456503,-0.203607 -0.456503,-0.456502 v -2.73902 c 0,-0.252905 0.203599,-0.456505 0.456503,-0.456505 z m 5.478037,0 h 2.739024 c 0.252909,0 0.4565,0.203606 0.4565,0.456505 v 2.73902 c 0,0.252904 -0.203628,0.456502 -0.4565,0.456502 h -2.739024 c -0.252908,0 -0.4565,-0.203607 -0.4565,-0.456502 v -2.73902 c 0,-0.252905 0.203592,-0.456505 0.4565,-0.456505 z m -16.434116,5.478039 h 2.739019 c 0.252906,0 0.456502,0.203603 0.456502,0.456501 v 2.739024 c 0,0.252908 -0.203604,0.456501 -0.456502,0.456501 h -2.739019 c -0.252904,0 -0.456504,-0.203603 -0.456504,-0.456501 v -2.739024 c 0,-0.252903 0.203603,-0.456501 0.456504,-0.456501 z m 5.47804,0 h 2.739018 c 0.25291,0 0.456504,0.203603 0.456504,0.456501 v 2.739024 c 0,0.252908 -0.2036,0.456501 -0.456504,0.456501 h -2.739018 c -0.252909,0 -0.456505,-0.203603 -0.456505,-0.456501 v -2.739024 c 0,-0.252903 0.203603,-0.456501 0.456505,-0.456501 z m 5.478039,0 h 2.739018 c 0.252906,0 0.456507,0.203603 0.456507,0.456501 v 2.739024 c 0,0.252908 -0.203598,0.456501 -0.456507,0.456501 h -2.739018 c -0.252904,0 -0.456503,-0.203603 -0.456503,-0.456501 v -2.739024 c 0,-0.252903 0.203599,-0.456501 0.456503,-0.456501 z m 5.478037,0 h 2.739024 c 0.252909,0 0.4565,0.203603 0.4565,0.456501 v 2.739024 c 0,0.252908 -0.203628,0.456501 -0.4565,0.456501 h -2.739024 c -0.252908,0 -0.4565,-0.203603 -0.4565,-0.456501 v -2.739024 c 0,-0.252903 0.203592,-0.456501 0.4565,-0.456501 z m -12.782092,5.47804 h 11.869087 c 0.252909,0 0.456505,0.203607 0.456505,0.456502 v 2.739014 c 0,0.252946 -0.20363,0.456508 -0.456505,0.456508 H 26.051446 c -0.252904,0 -0.456503,-0.20363 -0.456503,-0.456508 v -2.739014 c 0,-0.252894 0.203602,-0.456502 0.456503,-0.456502 z"
       id="path5" />
    <g
       id="g2"
       style="fill:#dfdfdf;fill-opacity:1;stroke:none;stroke-opacity:0.6"
       transform="translate(-1.8181818e-7,1.7274047)" />
  </g>
</svg>
