<?xml version="1.0" encoding="UTF-8" standalone="no"?>
<svg
   width="64"
   height="64"
   version="1.1"
   id="svg73"
   sodipodi:docname="abcd.svg"
   inkscape:version="1.4.2 (ebf0e940d0, 2025-05-08)"
   xmlns:inkscape="http://www.inkscape.org/namespaces/inkscape"
   xmlns:sodipodi="http://sodipodi.sourceforge.net/DTD/sodipodi-0.dtd"
   xmlns="http://www.w3.org/2000/svg"
   xmlns:svg="http://www.w3.org/2000/svg"
   xmlns:rdf="http://www.w3.org/1999/02/22-rdf-syntax-ns#"
   xmlns:cc="http://creativecommons.org/ns#"
   xmlns:dc="http://purl.org/dc/elements/1.1/">
  <metadata
     id="metadata77">
    <rdf:RDF>
      <cc:Work
         rdf:about="">
        <dc:format>image/svg+xml</dc:format>
        <dc:type
           rdf:resource="http://purl.org/dc/dcmitype/StillImage" />
      </cc:Work>
    </rdf:RDF>
  </metadata>
  <sodipodi:namedview
     pagecolor="#f5f7fa"
     bordercolor="#666666"
     borderopacity="1"
     objecttolerance="10"
     gridtolerance="10"
     guidetolerance="10"
     inkscape:pageopacity="0"
     inkscape:pageshadow="2"
     inkscape:window-width="1377"
     inkscape:window-height="679"
     id="namedview75"
     showgrid="false"
     inkscape:zoom="6.2890624"
     inkscape:cx="47.622361"
     inkscape:cy="45.316771"
     inkscape:window-x="13"
     inkscape:window-y="130"
     inkscape:window-maximized="0"
     inkscape:current-layer="g877"
     inkscape:document-rotation="0"
     inkscape:pagecheckerboard="0"
     inkscape:showpageshadow="2"
     inkscape:deskcolor="#d1d1d1" />
  <defs
     id="defs29">
    <clipPath
       id="clip0_2648_607">
      <rect
         width="16"
         height="16"
         fill="#ffffff"
         id="rect1"
         x="0"
         y="0" />
    </clipPath>
  </defs>
  <circle
     cx="32.516094"
     cy="31.877844"
     r="0"
     fill="url(#b)"
     stroke-width="1.5715"
     id="circle41"
     style="fill:url(#b)" />
  <g
     aria-label="GZ"
     transform="matrix(1.2212657,0,0,0.81882264,0.4960938,-0.1661539)"
     id="text93"
     style="font-weight:bold;font-size:11.5263px;line-height:1.25;font-family:sans-serif;-inkscape-font-specification:'sans-serif Bold';fill:#f2f2f2;stroke-width:0.288159" />
  <g
     id="g877"
     transform="matrix(1.1,0,0,1.1,-3.1845928,-3.2065454)">
    <circle
       style="opacity:1;fill:#414141;stroke:#dfdfdf;stroke-width:2.27272727;stroke-dasharray:none;fill-opacity:1;stroke-opacity:1"
       id="path1"
       cx="31.985994"
       cy="32.005951"
       r="25.454546" />
    <path
       id="path1-0"
       style="fill:#dfdfdf;fill-opacity:1;stroke:none;stroke-width:0.873787;stroke-dasharray:none;stroke-dashoffset:2.2;stroke-opacity:0.3"
       d="m 39.619178,20.545819 c -0.459254,-1.91e-4 -0.950842,0.184737 -1.566084,0.545225 -1.464058,0.857819 -3.378772,1.262379 -6.008186,1.262379 -2.629159,0 -4.607745,-0.413167 -6.063086,-1.266037 -1.166991,-0.683872 -1.863698,-0.692936 -2.843091,-0.03258 -2.514426,1.694466 -4.409448,7.127233 -4.965366,14.226479 -0.33337,4.257107 -0.02197,6.501477 1.079423,7.764545 0.531208,0.60896 1.835256,0.50572 3.011416,-0.241496 0.997011,-0.633413 2.184942,-2.031117 3.604189,-4.240889 1.282491,-1.99685 2.833745,-2.654526 6.264334,-2.660148 3.423762,-0.0053 4.769267,0.642448 6.348489,3.069962 2.649565,4.072769 5.098591,5.490667 6.535106,3.783471 0.795814,-0.945763 0.941475,-1.859539 0.903784,-5.664229 -0.06868,-6.911439 -1.875307,-13.198897 -4.478702,-15.598626 -0.69336,-0.639121 -1.231706,-0.947455 -1.822226,-0.947702 z M 24.74506,24.618365 h 1.588036 1.588037 v 1.361176 1.361179 h 1.361178 1.361174 v 1.70147 1.701465 h -1.361174 -1.361178 v 1.474604 1.474609 h -1.438009 c -0.790013,0 -1.501223,-0.07081 -1.584386,-0.153658 -0.08312,-0.08312 -0.153662,-0.743298 -0.153662,-1.470943 v -1.324612 h -1.361192 -1.36118 V 29.04219 27.34072 h 1.36118 1.361176 v -1.361179 z m 12.945797,0 c 1.432621,0 2.046147,1.58731 1.013566,2.619902 -0.656687,0.656608 -1.256008,0.708221 -1.902717,0.161016 -1.121738,-0.949175 -0.536234,-2.780893 0.889151,-2.780893 z m -2.755279,2.908964 c 0.357724,2.48e-4 0.717909,0.142832 1.002582,0.457351 0.443758,0.490352 0.491692,1.613019 0.0915,2.136904 -0.7832,1.025306 -2.663805,0.365802 -2.663805,-0.933062 0,-0.985785 0.782736,-1.661759 1.56974,-1.661222 z m 5.623994,0.05524 c 0.412359,0.0077 0.812631,0.144089 1.046493,0.402475 0.443742,0.490354 0.491674,1.613013 0.09146,2.136904 -0.833046,1.090548 -2.663803,0.360628 -2.663803,-1.061135 0,-0.430945 0.172685,-0.89805 0.41346,-1.116015 0.275247,-0.249112 0.700084,-0.369766 1.112364,-0.362253 z m -2.76992,2.934569 c 1.270093,0 1.888081,1.347201 1.119671,2.444263 -0.262711,0.375005 -0.583036,0.504939 -1.244082,0.504939 -0.761072,0 -0.937676,-0.09905 -1.244078,-0.69159 -0.604144,-1.168305 0.05523,-2.257649 1.368489,-2.257649 z" />
    <g
       id="g2"
       style="fill:#dfdfdf;fill-opacity:1;stroke:none;stroke-opacity:0.6"
       transform="translate(-1.8181818e-7,1.7274047)" />
  </g>
</svg>
