<?xml version="1.0" encoding="UTF-8" standalone="no"?>
<svg
   width="64"
   height="64"
   version="1.1"
   id="svg73"
   sodipodi:docname="abcd.svg"
   inkscape:version="1.4.2 (ebf0e940d0, 2025-05-08)"
   xmlns:inkscape="http://www.inkscape.org/namespaces/inkscape"
   xmlns:sodipodi="http://sodipodi.sourceforge.net/DTD/sodipodi-0.dtd"
   xmlns="http://www.w3.org/2000/svg"
   xmlns:svg="http://www.w3.org/2000/svg"
   xmlns:rdf="http://www.w3.org/1999/02/22-rdf-syntax-ns#"
   xmlns:cc="http://creativecommons.org/ns#"
   xmlns:dc="http://purl.org/dc/elements/1.1/">
  <metadata
     id="metadata77">
    <rdf:RDF>
      <cc:Work
         rdf:about="">
        <dc:format>image/svg+xml</dc:format>
        <dc:type
           rdf:resource="http://purl.org/dc/dcmitype/StillImage" />
      </cc:Work>
    </rdf:RDF>
  </metadata>
  <sodipodi:namedview
     pagecolor="#f5f7fa"
     bordercolor="#666666"
     borderopacity="1"
     objecttolerance="10"
     gridtolerance="10"
     guidetolerance="10"
     inkscape:pageopacity="0"
     inkscape:pageshadow="2"
     inkscape:window-width="1377"
     inkscape:window-height="679"
     id="namedview75"
     showgrid="false"
     inkscape:zoom="6.2890624"
     inkscape:cx="47.622361"
     inkscape:cy="45.316771"
     inkscape:window-x="13"
     inkscape:window-y="130"
     inkscape:window-maximized="0"
     inkscape:current-layer="g877"
     inkscape:document-rotation="0"
     inkscape:pagecheckerboard="0"
     inkscape:showpageshadow="2"
     inkscape:deskcolor="#d1d1d1" />
  <defs
     id="defs29">
    <clipPath
       id="clip0_2648_607">
      <rect
         width="16"
         height="16"
         fill="#ffffff"
         id="rect1"
         x="0"
         y="0" />
    </clipPath>
  </defs>
  <circle
     cx="32.516094"
     cy="31.877844"
     r="0"
     fill="url(#b)"
     stroke-width="1.5715"
     id="circle41"
     style="fill:url(#b)" />
  <g
     aria-label="GZ"
     transform="matrix(1.2212657,0,0,0.81882264,0.4960938,-0.1661539)"
     id="text93"
     style="font-weight:bold;font-size:11.5263px;line-height:1.25;font-family:sans-serif;-inkscape-font-specification:'sans-serif Bold';fill:#f2f2f2;stroke-width:0.288159" />
  <g
     id="g877"
     transform="matrix(1.1,0,0,1.1,-3.1845928,-3.2065454)">
    <circle
       style="opacity:1;fill:#414141;stroke:#dfdfdf;stroke-width:2.27272727;stroke-dasharray:none;fill-opacity:1;stroke-opacity:1"
       id="path1"
       cx="31.985994"
       cy="32.005951"
       r="25.454546" />
    <path
       id="path6189"
       style="fill:#dfdfdf;fill-opacity:1;stroke-width:0.0600035"
       d="m 26.542945,17.826903 c -4.054178,-7.47e-4 -4.131378,0.02256 -4.37917,0.1153 -0.415238,0.155361 -0.893909,0.580065 -1.105395,0.980919 l -0.161667,0.306474 -0.01563,12.672098 c -0.01544,12.580222 -0.01456,12.674029 0.105633,12.995186 0.219445,0.586514 0.741465,1.050532 1.375915,1.222668 0.213667,0.05797 2.368501,0.07187 9.754637,0.06303 l 9.480393,-0.01148 0.339738,-0.166871 c 0.446431,-0.219202 0.805173,-0.575302 1.001497,-0.994058 l 0.158939,-0.339188 V 31.980298 19.289604 l -0.205829,-0.379376 c -0.22593,-0.416657 -0.537585,-0.717402 -0.959617,-0.925376 L 41.657612,17.84972 32.076298,17.83385 c -2.388805,-0.004 -4.182018,-0.0066 -5.533406,-0.0068 z m 5.344221,2.466923 c 6.1474,-0.0118 8.313726,0.0021 8.438474,0.05356 0.356001,0.146955 0.342187,-0.08563 0.342187,5.770706 0,3.771233 -0.01973,5.420857 -0.06666,5.554982 -0.03711,0.106726 -0.141691,0.229627 -0.237045,0.278957 -0.147687,0.07637 -1.270011,0.08788 -8.378721,0.08455 -4.514647,-0.0022 -8.266385,-0.02728 -8.337105,-0.05579 -0.337472,-0.13619 -0.321355,0.154784 -0.321355,-5.830712 v -5.503652 l 0.144809,-0.168361 0.144805,-0.168361 z m -1.916462,3.213276 c -0.09766,-0.0034 -0.227659,0.05217 -0.314906,0.134147 l -0.14853,0.139601 v 2.379146 2.379149 l 0.134891,0.122985 c 0.07424,0.06754 0.175393,0.136076 0.224894,0.152495 0.04949,0.01646 0.183765,-0.0082 0.298291,-0.0548 0.501724,-0.204011 4.097594,-2.210497 4.204118,-2.34592 0.153422,-0.195037 0.148912,-0.331512 -0.0171,-0.522197 -0.180543,-0.207375 -4.167885,-2.377396 -4.381648,-2.384605 z m 6.676743,9.504695 c 1.2456,0.06037 2.061914,1.051684 1.961591,2.382369 -0.06252,0.828787 -0.558955,1.535415 -1.2626,1.797195 -1.391174,0.51756 -2.730059,-0.333588 -2.841095,-1.80637 -0.104944,-1.392033 0.837699,-2.436426 2.142104,-2.373194 z m -9.24037,0.01886 c 0.503204,-4.42e-4 0.610173,0.01954 0.912231,0.167867 0.432795,0.212534 0.841476,0.66148 1.010178,1.109854 0.109421,0.290802 0.125173,0.436708 0.10514,0.972241 -0.02028,0.541657 -0.0467,0.674319 -0.187699,0.946932 -0.303885,0.587578 -0.816564,0.967362 -1.475096,1.09225 -0.359728,0.06823 -0.411823,0.06809 -0.763461,-0.0016 -0.602883,-0.119318 -1.214869,-0.60965 -1.481794,-1.187211 -0.1091,-0.236056 -0.129683,-0.389907 -0.129683,-0.970505 0,-0.671293 0.0057,-0.700319 0.204561,-1.067207 0.231748,-0.427388 0.470806,-0.659944 0.922897,-0.897854 0.277218,-0.145885 0.377548,-0.164641 0.882729,-0.164896 z m 9.241607,6.052637 c 1.019353,0.03039 1.876588,0.852033 1.961098,1.972992 0.07484,0.992721 -0.36792,1.814211 -1.182264,2.193673 -0.481743,0.224494 -1.166812,0.247264 -1.624367,0.05405 -0.901856,-0.380785 -1.376579,-1.202898 -1.297808,-2.247731 0.07653,-1.014953 0.716904,-1.745075 1.698258,-1.936296 0.15045,-0.0296 0.299464,-0.04109 0.445083,-0.03671 z m -9.241607,0.01933 c 0.254562,0.002 0.562009,0.04523 0.707917,0.09918 0.573355,0.21222 1.04303,0.689922 1.234825,1.255908 0.143615,0.42378 0.130767,1.26941 -0.02574,1.687839 -0.162026,0.433043 -0.576638,0.886949 -0.998272,1.093239 -0.403289,0.197299 -1.163578,0.257883 -1.528162,0.121761 -0.599088,-0.223784 -0.944988,-0.526317 -1.239043,-1.083681 -0.148438,-0.281365 -0.161672,-0.363024 -0.161672,-0.996536 0,-0.811532 0.09079,-1.073385 0.536827,-1.550231 0.396199,-0.423621 0.885735,-0.632209 1.473335,-0.627603 z" />
    <g
       id="g2"
       style="fill:#dfdfdf;fill-opacity:1;stroke:none;stroke-opacity:0.6"
       transform="translate(-1.8181818e-7,1.7274047)" />
  </g>
</svg>
