<?xml version="1.0" encoding="UTF-8" standalone="no"?>
<svg
   width="64"
   height="64"
   version="1.1"
   id="svg73"
   sodipodi:docname="abcd.svg"
   inkscape:version="1.4.2 (ebf0e940d0, 2025-05-08)"
   xmlns:inkscape="http://www.inkscape.org/namespaces/inkscape"
   xmlns:sodipodi="http://sodipodi.sourceforge.net/DTD/sodipodi-0.dtd"
   xmlns="http://www.w3.org/2000/svg"
   xmlns:svg="http://www.w3.org/2000/svg"
   xmlns:rdf="http://www.w3.org/1999/02/22-rdf-syntax-ns#"
   xmlns:cc="http://creativecommons.org/ns#"
   xmlns:dc="http://purl.org/dc/elements/1.1/">
  <metadata
     id="metadata77">
    <rdf:RDF>
      <cc:Work
         rdf:about="">
        <dc:format>image/svg+xml</dc:format>
        <dc:type
           rdf:resource="http://purl.org/dc/dcmitype/StillImage" />
      </cc:Work>
    </rdf:RDF>
  </metadata>
  <sodipodi:namedview
     pagecolor="#f5f7fa"
     bordercolor="#666666"
     borderopacity="1"
     objecttolerance="10"
     gridtolerance="10"
     guidetolerance="10"
     inkscape:pageopacity="0"
     inkscape:pageshadow="2"
     inkscape:window-width="1377"
     inkscape:window-height="679"
     id="namedview75"
     showgrid="false"
     inkscape:zoom="6.2890624"
     inkscape:cx="47.622361"
     inkscape:cy="45.316771"
     inkscape:window-x="13"
     inkscape:window-y="130"
     inkscape:window-maximized="0"
     inkscape:current-layer="g877"
     inkscape:document-rotation="0"
     inkscape:pagecheckerboard="0"
     inkscape:showpageshadow="2"
     inkscape:deskcolor="#d1d1d1" />
  <defs
     id="defs29">
    <clipPath
       id="clip0_2648_607">
      <rect
         width="16"
         height="16"
         fill="#ffffff"
         id="rect1"
         x="0"
         y="0" />
    </clipPath>
  </defs>
  <circle
     cx="32.516094"
     cy="31.877844"
     r="0"
     fill="url(#b)"
     stroke-width="1.5715"
     id="circle41"
     style="fill:url(#b)" />
  <g
     aria-label="GZ"
     transform="matrix(1.2212657,0,0,0.81882264,0.4960938,-0.1661539)"
     id="text93"
     style="font-weight:bold;font-size:11.5263px;line-height:1.25;font-family:sans-serif;-inkscape-font-specification:'sans-serif Bold';fill:#f2f2f2;stroke-width:0.288159" />
  <g
     id="g877"
     transform="matrix(1.1,0,0,1.1,-3.1845928,-3.2065454)">
    <circle
       style="opacity:1;fill:#414141;stroke:#dfdfdf;stroke-width:2.27272727;stroke-dasharray:none;fill-opacity:1;stroke-opacity:1"
       id="path1"
       cx="31.985994"
       cy="32.005951"
       r="25.454546" />
    <path
       id="path7250"
       style="fill:#dfdfdf;fill-opacity:1;stroke:none;stroke-width:0.203618;stroke-dasharray:none;stroke-opacity:1"
       d="m 32.243266,22.645999 c -2.952045,-0.03597 -5.913176,0.606858 -8.586111,1.904667 -1.950903,0.947235 -3.760232,2.235273 -5.246103,3.734841 l -0.400069,0.403638 1.555053,1.41059 1.554817,1.410592 0.474083,-0.442193 c 0.260668,-0.243204 0.563567,-0.519124 0.673285,-0.613073 4.546018,-3.892622 11.019672,-4.689989 16.383275,-2.017953 1.384744,0.689854 2.494049,1.471344 3.70533,2.609844 l 0.496453,0.466469 1.553866,-1.411066 1.553859,-1.411306 -0.441711,-0.445048 c -2.207474,-2.224045 -4.951347,-3.861778 -8.036585,-4.79701 -1.700272,-0.515404 -3.468213,-0.781407 -5.239442,-0.802992 z m -0.258699,4.894586 c -0.678377,4.2e-5 -1.356606,0.02529 -1.730216,0.07544 -3.187115,0.427493 -5.918896,1.738678 -8.236499,3.953319 -0.208613,0.199343 -0.374047,0.377513 -0.367701,0.396023 0.0063,0.01854 0.706956,0.664214 1.556957,1.434866 l 1.545295,1.40107 0.307489,-0.29773 c 1.484206,-1.437035 3.531014,-2.405073 5.674968,-2.684334 0.630673,-0.0821 1.871663,-0.08207 2.500365,2.78e-4 2.144399,0.280741 3.9539,1.118702 5.585247,2.586518 l 0.416962,0.375078 0.08974,-0.08044 c 0.439178,-0.392479 2.80485,-2.533572 2.898529,-2.623411 L 42.3466,31.961358 42.184996,31.792859 c -0.63136,-0.658301 -1.755294,-1.556436 -2.645784,-2.114341 -0.635938,-0.398422 -1.808765,-0.98052 -2.492269,-1.237093 -1.015342,-0.381133 -2.196598,-0.673869 -3.331204,-0.8256 -0.37439,-0.05007 -1.052789,-0.07525 -1.731169,-0.0752 z m -0.08949,4.852937 c -0.160346,0.0017 -0.320914,0.0074 -0.481463,0.01735 -2.22094,0.139035 -4.244088,1.018606 -5.915103,2.571058 l -0.276313,0.25656 1.5591,1.413445 c 0.857453,0.777413 1.565058,1.414262 1.572428,1.415114 0.0074,8.46e-4 0.117162,-0.08787 0.244178,-0.197301 1.909024,-1.644867 4.780827,-1.670208 6.703341,-0.05904 l 0.312014,0.261566 0.17468,-0.154444 c 0.09609,-0.08492 0.802303,-0.722671 1.569332,-1.417005 l 1.394654,-1.262304 -0.318911,-0.298682 c -1.768636,-1.655576 -4.132753,-2.570864 -6.537932,-2.546316 z m -0.03712,4.876261 c -0.260964,0.0058 -0.519137,0.03409 -0.768722,0.08685 -0.793162,0.167776 -1.58827,0.563617 -2.103628,1.047652 l -0.128278,0.120693 1.565525,1.421067 1.565525,1.421296 0.924846,-0.840833 c 0.50863,-0.462376 1.212593,-1.099202 1.564337,-1.415104 l 0.639488,-0.574269 -0.191581,-0.179698 c -0.75435,-0.707646 -1.936666,-1.11195 -3.067515,-1.087646 z" />
    <g
       id="g2"
       style="fill:#dfdfdf;fill-opacity:1;stroke:none;stroke-opacity:0.6"
       transform="translate(-1.8181818e-7,1.7274047)" />
  </g>
</svg>
