<?xml version="1.0" encoding="UTF-8" standalone="no"?>
<svg
   width="64"
   height="64"
   version="1.1"
   id="svg73"
   sodipodi:docname="abcd.svg"
   inkscape:version="1.4.2 (ebf0e940d0, 2025-05-08)"
   xmlns:inkscape="http://www.inkscape.org/namespaces/inkscape"
   xmlns:sodipodi="http://sodipodi.sourceforge.net/DTD/sodipodi-0.dtd"
   xmlns="http://www.w3.org/2000/svg"
   xmlns:svg="http://www.w3.org/2000/svg"
   xmlns:rdf="http://www.w3.org/1999/02/22-rdf-syntax-ns#"
   xmlns:cc="http://creativecommons.org/ns#"
   xmlns:dc="http://purl.org/dc/elements/1.1/">
  <metadata
     id="metadata77">
    <rdf:RDF>
      <cc:Work
         rdf:about="">
        <dc:format>image/svg+xml</dc:format>
        <dc:type
           rdf:resource="http://purl.org/dc/dcmitype/StillImage" />
      </cc:Work>
    </rdf:RDF>
  </metadata>
  <sodipodi:namedview
     pagecolor="#f5f7fa"
     bordercolor="#666666"
     borderopacity="1"
     objecttolerance="10"
     gridtolerance="10"
     guidetolerance="10"
     inkscape:pageopacity="0"
     inkscape:pageshadow="2"
     inkscape:window-width="1377"
     inkscape:window-height="679"
     id="namedview75"
     showgrid="false"
     inkscape:zoom="6.2890624"
     inkscape:cx="47.622361"
     inkscape:cy="45.316771"
     inkscape:window-x="13"
     inkscape:window-y="130"
     inkscape:window-maximized="0"
     inkscape:current-layer="g877"
     inkscape:document-rotation="0"
     inkscape:pagecheckerboard="0"
     inkscape:showpageshadow="2"
     inkscape:deskcolor="#d1d1d1" />
  <defs
     id="defs29">
    <clipPath
       id="clip0_2648_607">
      <rect
         width="16"
         height="16"
         fill="#ffffff"
         id="rect1"
         x="0"
         y="0" />
    </clipPath>
  </defs>
  <circle
     cx="32.516094"
     cy="31.877844"
     r="0"
     fill="url(#b)"
     stroke-width="1.5715"
     id="circle41"
     style="fill:url(#b)" />
  <g
     aria-label="GZ"
     transform="matrix(1.2212657,0,0,0.81882264,0.4960938,-0.1661539)"
     id="text93"
     style="font-weight:bold;font-size:11.5263px;line-height:1.25;font-family:sans-serif;-inkscape-font-specification:'sans-serif Bold';fill:#f2f2f2;stroke-width:0.288159" />
  <g
     id="g877"
     transform="matrix(1.1,0,0,1.1,-3.1845928,-3.2065454)">
    <circle
       style="opacity:1;fill:#414141;stroke:#dfdfdf;stroke-width:2.27272727;stroke-dasharray:none;fill-opacity:1;stroke-opacity:1"
       id="path1"
       cx="31.985994"
       cy="32.005951"
       r="25.454546" />
    <path
       id="path59"
       style="fill:#dfdfdf;fill-opacity:1;stroke:none;stroke-width:0.430868;stroke-dasharray:none;stroke-dashoffset:2.2;stroke-opacity:0.6"
       d="m 32.035517,19.403092 c -12.830749,0 -12.323528,-0.01926 -12.594595,0.487241 -0.06268,0.117152 -0.102128,1.252862 -0.102128,2.978699 0,3.080741 0.0056,3.113051 0.627889,3.3839 0.253159,0.110188 2.371932,0.134126 12.010237,0.137295 10.632396,0.0036 11.73384,-0.01109 12.042052,-0.157387 0.617538,-0.293053 0.638478,-0.411789 0.606122,-3.494406 l -0.02841,-2.761034 -0.32146,-0.287989 -0.323135,-0.28632 z m 6.995507,1.078292 c 0.392089,0.01002 0.765581,0.172396 0.951043,0.455428 0.362557,0.553335 0.131297,1.203009 -0.527428,1.481817 -0.390917,0.165469 -0.58235,0.164703 -0.976156,-0.0066 -0.39902,-0.173671 -0.627889,-0.509568 -0.627889,-0.920912 0,-0.432509 0.138994,-0.675462 0.490595,-0.857276 0.21303,-0.110144 0.454584,-0.158328 0.689835,-0.152367 z m -3.594869,0.005 c 1.201718,0 1.527528,1.47545 0.423619,1.917151 -0.420297,0.168186 -0.486363,0.170994 -0.932626,0.04188 -0.622019,-0.180009 -0.889858,-0.852903 -0.579331,-1.453397 0.175957,-0.340257 0.53383,-0.505659 1.088338,-0.505659 z m 6.729283,0 c 1.251988,0 1.643045,1.454693 0.512356,1.907103 -0.219774,0.08795 -0.454131,0.155582 -0.520729,0.150695 -1.05761,-0.07761 -1.512109,-1.031288 -0.820426,-1.722958 0.291786,-0.291874 0.397576,-0.334873 0.828799,-0.334873 z m -11.060869,0.492208 c 0.240497,0 0.641282,0.452424 0.641282,0.723328 0,0.219077 -1.269924,2.004667 -1.953987,2.747636 -0.448675,0.487308 -1.197174,0.263233 -1.197174,-0.358315 0,-0.256922 0.200696,-0.58633 0.989552,-1.619112 0.969337,-1.269087 1.199623,-1.493549 1.520327,-1.493549 z m -8.23789,0.01672 c 0.130928,-0.01459 0.250815,0.04506 0.39515,0.152358 0.497813,0.370012 0.417392,0.656411 -0.534127,1.90714 -0.470383,0.618317 -0.968527,1.245829 -1.106755,1.39476 -0.302002,0.325394 -0.718936,0.356009 -1.001269,0.07368 -0.373758,-0.373752 -0.262464,-0.65239 0.838855,-2.091284 0.777934,-1.016375 1.120095,-1.404742 1.408146,-1.436606 z m 2.782796,0.0034 c 0.04486,2.42e-4 0.09035,0.0084 0.137288,0.02016 0.321545,0.08064 0.582494,0.482438 0.507334,0.781876 -0.06123,0.243983 -1.708264,2.448711 -2.051093,2.745971 -0.26559,0.230283 -0.696712,0.218907 -0.917553,-0.02515 -0.351649,-0.388554 -0.236887,-0.679288 0.783608,-2.005876 0.920849,-1.197053 1.226483,-1.518656 1.540416,-1.516978 z m 2.613689,0.02016 c 0.277601,-0.01945 0.590981,0.116886 0.663049,0.304697 0.1624,0.423196 0.04017,0.687917 -0.884066,1.903738 -0.521175,0.685636 -1.018512,1.301969 -1.103405,1.369668 -0.398178,0.317502 -1.100061,-0.01193 -1.100061,-0.515708 0,-0.342281 1.986684,-2.963538 2.307279,-3.044 0.03735,-0.0094 0.07755,-0.01561 0.1172,-0.01843 z m 3.666866,7.424071 c -5.900841,0.0019 -11.789555,0.05771 -11.99852,0.165773 -0.588628,0.304382 -0.592727,0.323533 -0.592727,3.377206 0,1.717898 0.04,2.862599 0.102138,2.978697 0.0555,0.103729 0.22079,0.254785 0.368357,0.334872 0.232472,0.126167 1.863123,0.145588 12.206143,0.149016 l 11.936569,0.0033 0.323138,-0.286315 0.32146,-0.287985 0.02841,-2.761035 c 0.03227,-3.096396 0.0059,-3.252127 -0.622722,-3.5145 -0.2583,-0.107821 -6.171358,-0.16074 -12.072201,-0.158972 z m 3.475988,1.110109 c 0.166569,0.0036 0.331678,0.05393 0.539146,0.152367 0.656698,0.311628 0.797416,1.125978 0.279628,1.612424 -0.175123,0.164486 -0.395827,0.242441 -0.783591,0.27459 -0.512403,0.04252 -0.558459,0.02589 -0.887432,-0.303057 -0.56743,-0.567429 -0.428918,-1.301549 0.303071,-1.607389 0.213667,-0.08927 0.382598,-0.132552 0.549191,-0.128922 z m 6.794576,0 c 0.166562,0.0036 0.331688,0.05393 0.539149,0.152367 0.656698,0.311623 0.797425,1.125972 0.279585,1.612416 -0.17513,0.164487 -0.395839,0.242441 -0.7836,0.274606 -0.512384,0.04252 -0.558433,0.0259 -0.887417,-0.303064 -0.567429,-0.567434 -0.428918,-1.301554 0.303068,-1.607393 0.213681,-0.08927 0.382589,-0.13255 0.54919,-0.128927 z m -3.122686,0.02177 c 0.05319,0.0023 0.104631,0.0093 0.154002,0.02013 0.387094,0.08503 0.846252,0.474511 0.924246,0.785279 0.08922,0.355384 -0.173468,0.898736 -0.520732,1.078294 -0.567235,0.293333 -1.441576,0.120535 -1.684398,-0.333197 -0.163846,-0.306158 -0.115637,-0.844235 0.09878,-1.116804 0.214224,-0.272301 0.655593,-0.451428 1.028057,-0.433659 z m -16.19281,0.560911 c 0.366254,0 0.688165,0.307975 0.688165,0.658028 0,0.32815 -1.900053,2.864807 -2.243654,2.995443 -0.318773,0.121217 -0.35391,0.115806 -0.64798,-0.115511 -0.444243,-0.34944 -0.355168,-0.636294 0.584352,-1.880315 1.180093,-1.562562 1.273942,-1.657621 1.619117,-1.657627 z m 2.806238,0 c 0.254282,0 0.639608,0.415203 0.639608,0.689841 0,0.236386 -1.96599,2.816667 -2.245328,2.946885 -0.261342,0.121821 -0.291946,0.1213 -0.575982,0.0067 -0.270076,-0.108902 -0.341313,-0.228615 -0.351615,-0.590987 -0.0064,-0.225717 0.221935,-0.594356 0.999597,-1.615764 1.022144,-1.342516 1.122523,-1.436605 1.53372,-1.436605 z m 2.647177,0.0033 c 0.187797,-0.0078 0.372437,0.04896 0.487242,0.175813 0.347337,0.383827 0.218804,0.707891 -0.825465,2.071211 -0.544053,0.710268 -1.073138,1.336666 -1.17541,1.391402 -0.102251,0.05473 -0.257667,0.100463 -0.344915,0.100463 -0.238126,0 -0.641284,-0.452299 -0.641284,-0.718304 0,-0.206488 1.367003,-2.128065 1.994172,-2.802892 0.127295,-0.13696 0.317864,-0.209836 0.50566,-0.217659 z m 2.658893,0.0083 c 0.449346,-0.04811 0.832124,0.333491 0.716633,0.793658 -0.07725,0.307836 -1.884146,2.657473 -2.161611,2.811241 -0.268653,0.148868 -0.360564,0.149737 -0.612819,0.0067 -0.597427,-0.338774 -0.4961,-0.683007 0.644629,-2.178351 0.544496,-0.713754 1.092409,-1.337981 1.217266,-1.386372 0.06571,-0.02547 0.131714,-0.04 0.195904,-0.0469 z m 1.038111,7.471015 c -12.830723,0 -12.323528,-0.01904 -12.594595,0.487245 -0.139897,0.261317 -0.136823,5.663673 0.0033,5.925591 0.05759,0.107702 0.246034,0.281588 0.418593,0.386771 0.306017,0.186574 0.602526,0.190517 12.058797,0.190815 12.884112,4.09e-4 12.254301,0.02931 12.57282,-0.586033 0.136982,-0.26488 0.155607,-0.682417 0.130673,-3.067435 l -0.02845,-2.762726 -0.321459,-0.286284 -0.323137,-0.287959 z m 3.097577,1.086677 c 0.08145,-6.15e-4 0.179993,0.007 0.308071,0.01876 0.387765,0.03192 0.608517,0.108483 0.783607,0.272915 0.517796,0.486444 0.377079,1.300792 -0.279622,1.61242 -0.407297,0.193265 -0.699058,0.198946 -1.110105,0.01984 -0.712125,-0.309814 -0.840905,-1.044328 -0.281288,-1.603942 0.246721,-0.246773 0.334924,-0.317973 0.579329,-0.319816 z m 3.740541,0 c 0.543543,-0.03584 1.081032,0.246201 1.239033,0.725009 0.136466,0.413419 0.004,0.768898 -0.393474,1.063221 -0.754608,0.558 -1.8686,0.08984 -1.8686,-0.785285 0,-0.432504 0.138994,-0.675465 0.490595,-0.857274 0.168575,-0.08718 0.351279,-0.133744 0.532446,-0.145681 z m 3.054048,0 c 0.08145,-6.15e-4 0.17994,0.007 0.30807,0.01876 0.387758,0.03192 0.608507,0.108483 0.78361,0.272915 0.517791,0.48645 0.37706,1.3008 -0.279644,1.612423 -0.407304,0.193263 -0.699056,0.198947 -1.11011,0.02012 -0.712127,-0.309945 -0.840905,-1.04444 -0.28129,-1.604055 0.246745,-0.246745 0.334917,-0.317937 0.579332,-0.319816 z m -10.861625,0.488907 c 0.271743,0 0.679792,0.434032 0.679792,0.723333 0,0.218986 -1.269926,2.004677 -1.953987,2.747646 -0.466889,0.507087 -1.197177,0.274648 -1.197177,-0.381761 0,-0.217788 0.230831,-0.597665 0.894115,-1.4701 1.004366,-1.321055 1.294134,-1.619118 1.577257,-1.619118 z m -8.115661,0.02501 c 0.103977,0.01013 0.204239,0.06484 0.319805,0.150685 0.48592,0.361082 0.403535,0.65258 -0.539147,1.898739 -0.468514,0.619188 -0.966737,1.247358 -1.106758,1.396291 -0.305748,0.324945 -0.722594,0.355461 -1.004619,0.07344 -0.372869,-0.372929 -0.261074,-0.65146 0.833835,-2.079631 0.845358,-1.10266 1.184975,-1.470532 1.496886,-1.439959 z m 2.672289,0.01687 c 0.251871,0.007 0.519876,0.164796 0.627887,0.401851 0.1564,0.343266 0.0078,0.616059 -1.123498,2.067851 -0.83573,1.072488 -0.953156,1.183884 -1.267498,1.210562 -0.250441,0.02093 -0.396261,-0.02664 -0.529099,-0.174149 -0.359958,-0.397689 -0.247223,-0.676897 0.827138,-2.061089 0.555756,-0.716033 1.107417,-1.345913 1.225638,-1.399773 0.074,-0.03363 0.155484,-0.04767 0.239429,-0.04527 z m 2.633782,0.0018 c 0.237856,-0.01196 0.538674,0.115067 0.656352,0.291371 0.230351,0.344986 0.05927,0.715251 -0.919228,1.979109 -0.544788,0.703659 -1.041955,1.31104 -1.105083,1.351208 -0.397672,0.252972 -1.049828,-0.09537 -1.049828,-0.560916 0,-0.345703 1.995276,-2.96567 2.320671,-3.047347 0.03065,-0.007 0.06314,-0.01197 0.09712,-0.01305 z" />
    <g
       id="g2"
       style="fill:#dfdfdf;fill-opacity:1;stroke:none;stroke-opacity:0.6"
       transform="translate(-1.8181818e-7,1.7274047)" />
  </g>
</svg>
