<?xml version="1.0" encoding="UTF-8" standalone="no"?>
<svg
   width="64"
   height="64"
   version="1.1"
   id="svg73"
   sodipodi:docname="fr.handbrake.ghb.svg"
   inkscape:version="1.4.2 (ebf0e940d0, 2025-05-08)"
   xmlns:inkscape="http://www.inkscape.org/namespaces/inkscape"
   xmlns:sodipodi="http://sodipodi.sourceforge.net/DTD/sodipodi-0.dtd"
   xmlns="http://www.w3.org/2000/svg"
   xmlns:svg="http://www.w3.org/2000/svg"
   xmlns:rdf="http://www.w3.org/1999/02/22-rdf-syntax-ns#"
   xmlns:cc="http://creativecommons.org/ns#"
   xmlns:dc="http://purl.org/dc/elements/1.1/">
  <metadata
     id="metadata77">
    <rdf:RDF>
      <cc:Work
         rdf:about="">
        <dc:format>image/svg+xml</dc:format>
        <dc:type
           rdf:resource="http://purl.org/dc/dcmitype/StillImage" />
      </cc:Work>
    </rdf:RDF>
  </metadata>
  <sodipodi:namedview
     pagecolor="#f5f7fa"
     bordercolor="#666666"
     borderopacity="1"
     objecttolerance="10"
     gridtolerance="10"
     guidetolerance="10"
     inkscape:pageopacity="0"
     inkscape:pageshadow="2"
     inkscape:window-width="1377"
     inkscape:window-height="886"
     id="namedview75"
     showgrid="false"
     inkscape:zoom="6.2890625"
     inkscape:cx="48.099379"
     inkscape:cy="45.396273"
     inkscape:window-x="0"
     inkscape:window-y="47"
     inkscape:window-maximized="0"
     inkscape:current-layer="g877"
     inkscape:document-rotation="0"
     inkscape:pagecheckerboard="0"
     inkscape:showpageshadow="2"
     inkscape:deskcolor="#d1d1d1" />
  <defs
     id="defs29" />
  <circle
     cx="32.516094"
     cy="31.877844"
     r="0"
     fill="url(#b)"
     stroke-width="1.5715"
     id="circle41"
     style="fill:url(#b)" />
  <g
     aria-label="GZ"
     transform="matrix(1.2212657,0,0,0.81882264,0.4960938,-0.1661539)"
     id="text93"
     style="font-weight:bold;font-size:11.5263px;line-height:1.25;font-family:sans-serif;-inkscape-font-specification:'sans-serif Bold';fill:#f2f2f2;stroke-width:0.288159" />
  <g
     id="g877"
     transform="matrix(1.1,0,0,1.1,-3.1845928,-3.2065454)">
    <circle
       style="opacity:1;fill:#414141;stroke:#dfdfdf;stroke-width:2.27272727;stroke-dasharray:none;fill-opacity:1;stroke-opacity:1"
       id="path1"
       cx="31.985994"
       cy="32.005951"
       r="25.454546" />
    <path
       style="color:#444444;fill:#dfdfdf;fill-opacity:1;stroke:none;stroke-width:0.434234;stroke-dasharray:none;stroke-opacity:0.6"
       class="ColorScheme-Text"
       d="m 24.075587,19.151544 v 3.955202 h 15.820808 v -3.955202 z m -3.955204,5.932803 c -0.988802,0 -1.9776,0.9888 -1.9776,1.977601 v 7.910409 c 0,0.988794 0.988798,1.9776 1.9776,1.9776 h 1.977604 v -3.955204 h 19.776008 v 3.955204 h 1.977611 c 0.9888,0 1.977598,-0.988806 1.977598,-1.9776 v -7.910409 c 0,-0.988801 -0.988798,-1.977601 -1.977598,-1.977601 z m 3.955204,9.88801 v 9.888 h 15.820808 v -9.888 z"
       id="path5" />
    <circle
       style="fill:#414141;fill-opacity:1;stroke:#dfdfdf;stroke-width:1.08705;stroke-dasharray:none;stroke-opacity:1"
       id="path1-6"
       cx="48.320271"
       cy="48.287033"
       r="12.17483" />
    <path
       id="path7250"
       style="fill:#dfdfdf;fill-opacity:1;stroke:none;stroke-width:0.446513;stroke-dasharray:none;stroke-opacity:0.6"
       d="m 48.368534,43.645802 c -1.553153,-0.01903 -3.111084,0.319268 -4.517388,1.002092 -1.026419,0.498371 -1.978355,1.176037 -2.760113,1.964999 l -0.210494,0.212367 0.818154,0.742148 0.818033,0.742153 0.249434,-0.232649 c 0.137128,-0.127954 0.296534,-0.273122 0.354228,-0.322542 2.391783,-2.048012 5.797742,-2.467528 8.619678,-1.061704 0.728552,0.362953 1.312182,0.774116 1.949469,1.373113 l 0.261217,0.245413 0.817532,-0.742404 0.817526,-0.742527 -0.232373,-0.234152 C 54.19201,45.421996 52.748385,44.560346 51.125161,44.068293 50.230601,43.797138 49.300439,43.657177 48.36855,43.645818 Z m -0.136116,2.575166 c -0.356913,2.6e-5 -0.713751,0.0135 -0.910312,0.0397 -1.676831,0.224917 -3.114091,0.914766 -4.333444,2.079946 -0.109759,0.104879 -0.19678,0.198589 -0.193435,0.208347 0.0034,0.0098 0.37195,0.349464 0.819155,0.754928 l 0.813021,0.737139 0.16177,-0.156613 c 0.780882,-0.75606 1.857759,-1.26537 2.985749,-1.412295 0.331825,-0.04321 0.984736,-0.04321 1.31551,1.43e-4 1.128226,0.147745 2.080255,0.588577 2.938548,1.360838 l 0.219393,0.197331 0.0472,-0.04229 c 0.231023,-0.206505 1.475709,-1.33298 1.524994,-1.38025 l 0.06364,-0.06097 -0.08502,-0.08868 c -0.332193,-0.346353 -0.923515,-0.81888 -1.392026,-1.112416 -0.33459,-0.209604 -0.951641,-0.515875 -1.311246,-0.650864 -0.534203,-0.20052 -1.155693,-0.354542 -1.752639,-0.434376 -0.196993,-0.02609 -0.553898,-0.03958 -0.910812,-0.03955 z m -0.0471,2.553262 c -0.08435,8.82e-4 -0.168826,0.004 -0.253268,0.0093 -1.168503,0.07315 -2.232932,0.535914 -3.112097,1.352702 l -0.145352,0.134981 0.820285,0.743649 c 0.451124,0.409022 0.823414,0.744078 0.827293,0.744533 0.004,4.43e-4 0.06165,-0.04622 0.128476,-0.103742 1.004387,-0.86541 2.515319,-0.878749 3.526806,-0.03105 l 0.164163,0.137649 0.0919,-0.08129 c 0.05056,-0.04468 0.422112,-0.380228 0.825669,-0.745531 l 0.73376,-0.6642 -0.167781,-0.157136 C 50.694643,49.242986 49.45082,48.761428 48.185391,48.774347 Z m -0.01964,2.565529 c -0.137312,0.0031 -0.273121,0.0178 -0.404447,0.04568 -0.417304,0.08821 -0.835631,0.296564 -1.10678,0.551196 l -0.0675,0.06349 0.823668,0.747659 0.823663,0.747783 0.486586,-0.442382 c 0.267598,-0.243266 0.63798,-0.57833 0.823043,-0.744535 l 0.336451,-0.302114 -0.100738,-0.09457 C 49.38291,51.539657 48.760858,51.326941 48.16589,51.33973 Z" />
  </g>
</svg>
