<?xml version="1.0" encoding="UTF-8" standalone="no"?>
<svg
   width="64"
   height="64"
   version="1.1"
   id="svg73"
   sodipodi:docname="abcd.svg"
   inkscape:version="1.4.2 (ebf0e940d0, 2025-05-08)"
   xmlns:inkscape="http://www.inkscape.org/namespaces/inkscape"
   xmlns:sodipodi="http://sodipodi.sourceforge.net/DTD/sodipodi-0.dtd"
   xmlns="http://www.w3.org/2000/svg"
   xmlns:svg="http://www.w3.org/2000/svg"
   xmlns:rdf="http://www.w3.org/1999/02/22-rdf-syntax-ns#"
   xmlns:cc="http://creativecommons.org/ns#"
   xmlns:dc="http://purl.org/dc/elements/1.1/">
  <metadata
     id="metadata77">
    <rdf:RDF>
      <cc:Work
         rdf:about="">
        <dc:format>image/svg+xml</dc:format>
        <dc:type
           rdf:resource="http://purl.org/dc/dcmitype/StillImage" />
      </cc:Work>
    </rdf:RDF>
  </metadata>
  <sodipodi:namedview
     pagecolor="#f5f7fa"
     bordercolor="#666666"
     borderopacity="1"
     objecttolerance="10"
     gridtolerance="10"
     guidetolerance="10"
     inkscape:pageopacity="0"
     inkscape:pageshadow="2"
     inkscape:window-width="1377"
     inkscape:window-height="679"
     id="namedview75"
     showgrid="false"
     inkscape:zoom="6.2890624"
     inkscape:cx="47.622361"
     inkscape:cy="45.316771"
     inkscape:window-x="13"
     inkscape:window-y="130"
     inkscape:window-maximized="0"
     inkscape:current-layer="g877"
     inkscape:document-rotation="0"
     inkscape:pagecheckerboard="0"
     inkscape:showpageshadow="2"
     inkscape:deskcolor="#d1d1d1" />
  <defs
     id="defs29">
    <clipPath
       id="clip0_2648_607">
      <rect
         width="16"
         height="16"
         fill="#ffffff"
         id="rect1"
         x="0"
         y="0" />
    </clipPath>
  </defs>
  <circle
     cx="32.516094"
     cy="31.877844"
     r="0"
     fill="url(#b)"
     stroke-width="1.5715"
     id="circle41"
     style="fill:url(#b)" />
  <g
     aria-label="GZ"
     transform="matrix(1.2212657,0,0,0.81882264,0.4960938,-0.1661539)"
     id="text93"
     style="font-weight:bold;font-size:11.5263px;line-height:1.25;font-family:sans-serif;-inkscape-font-specification:'sans-serif Bold';fill:#f2f2f2;stroke-width:0.288159" />
  <g
     id="g877"
     transform="matrix(1.1,0,0,1.1,-3.1845928,-3.2065454)">
    <circle
       style="opacity:1;fill:#414141;stroke:#dfdfdf;stroke-width:2.27272727;stroke-dasharray:none;fill-opacity:1;stroke-opacity:1"
       id="path1"
       cx="31.985994"
       cy="32.005951"
       r="25.454546" />
    <path
       style="fill:#dfdfdf;fill-opacity:1;stroke:none;stroke-width:0.890326;stroke-dasharray:none;stroke-opacity:0.3"
       d="M 22.370289,45.686988 C 20.898314,45.515557 19.663733,44.439876 19.23936,42.95904 19.149441,42.645272 19.138757,42.090785 19.121092,36.822133 l -0.01948,-5.791971 H 31.984629 44.86764 L 44.849,36.822133 c -0.02156,6.459881 0.0049,6.034571 -0.431109,6.912987 -0.295849,0.596043 -0.971122,1.271342 -1.567154,1.567167 -0.582148,0.288969 -0.985561,0.381592 -1.852066,0.425452 l -0.73195,0.03689 -0.01617,-3.041293 -0.01575,-3.04131 -0.132985,-0.269862 c -0.169705,-0.344378 -0.517411,-0.69206 -0.861908,-0.861752 l -0.269988,-0.132988 -6.896087,-0.01533 c -7.924059,-0.01741 -7.235753,-0.06377 -7.825824,0.527265 -0.561409,0.562348 -0.541617,0.421046 -0.541617,3.867072 v 2.950431 l -0.474282,-0.0078 c -0.260598,-0.0049 -0.648386,-0.02818 -0.86151,-0.05263 z M 38.035764,35.483874 c 0.278608,-0.18932 0.38769,-0.41062 0.387428,-0.785959 -3.91e-4,-0.564931 -0.347756,-0.907873 -0.919598,-0.907873 -0.571827,0 -0.919198,0.342938 -0.919593,0.907873 -3.9e-4,0.578842 0.347638,0.931328 0.919593,0.931328 0.245714,0 0.367017,-0.03319 0.532179,-0.145383 z m 3.650649,0.0307 c 0.280515,-0.171043 0.415838,-0.433028 0.415838,-0.80515 0,-0.576999 -0.342348,-0.919387 -0.919386,-0.919387 -0.577002,0 -0.91938,0.34239 -0.91938,0.919387 0,0.576999 0.342346,0.919387 0.91938,0.919387 0.214377,0 0.376534,-0.03688 0.503564,-0.114245 z M 24.62616,44.367502 v -1.379729 h 7.358533 7.358541 v 1.379729 1.379723 H 31.984693 24.62616 Z M 19.122534,28.457543 c 0.03331,-1.840535 0.06361,-2.03621 0.429667,-2.773823 0.295652,-0.595706 0.971001,-1.271175 1.567159,-1.567437 0.706289,-0.350998 1.027577,-0.409413 2.2708,-0.412869 1.010766,-0.0031 1.109439,0.0063 1.322233,0.120391 0.503801,0.270433 0.736978,0.62628 0.804386,1.227545 0.05231,0.466257 0.155777,0.722185 0.391416,0.967837 0.39939,0.416364 -0.361236,0.379895 8.605993,0.412558 l 8.077142,0.02939 0.340314,0.128948 c 0.483204,0.183074 0.782085,0.370597 1.094592,0.68677 0.555643,0.562161 0.760468,1.095309 0.815364,2.122373 l 0.0377,0.711077 H 31.986169 19.092672 Z m 8.014942,-3.030946 c -0.406348,-0.142384 -0.614197,-0.430891 -0.614197,-0.852547 0,-0.295742 0.170233,-0.586407 0.431363,-0.73658 0.09474,-0.05447 2.254787,-0.828266 4.800099,-1.719506 2.545303,-0.891246 6.101485,-2.136427 7.902622,-2.76707 3.579015,-1.253142 3.516881,-1.238319 3.886595,-0.927236 0.458205,0.385565 0.460506,1.065416 0.0049,1.389979 -0.09099,0.06478 -1.210252,0.483379 -2.487263,0.93021 -1.277373,0.446833 -3.305255,1.156408 -4.506764,1.576837 -7.396769,2.588247 -8.925508,3.12004 -9.054426,3.149709 -0.07906,0.01818 -0.242447,-0.0019 -0.363108,-0.0438 z"
       id="path1-3" />
    <g
       id="g2"
       style="fill:#dfdfdf;fill-opacity:1;stroke:none;stroke-opacity:0.6"
       transform="translate(-1.8181818e-7,1.7274047)" />
  </g>
</svg>
